<?xml version="1.0" encoding="UTF-8" standalone="no"?>
<svg
   width="943.87054"
   height="943.90442"
   version="1.1"
   id="svg85"
   sodipodi:docname="ratman.svg"
   inkscape:version="1.3.2 (091e20ef0f, 2023-11-25)"
   xmlns:inkscape="http://www.inkscape.org/namespaces/inkscape"
   xmlns:sodipodi="http://sodipodi.sourceforge.net/DTD/sodipodi-0.dtd"
   xmlns="http://www.w3.org/2000/svg"
   xmlns:svg="http://www.w3.org/2000/svg">
  <sodipodi:namedview
     id="namedview85"
     pagecolor="#ffffff"
     bordercolor="#000000"
     borderopacity="0.25"
     inkscape:showpageshadow="2"
     inkscape:pageopacity="0.0"
     inkscape:pagecheckerboard="0"
     inkscape:deskcolor="#d1d1d1"
     inkscape:zoom="0.70507812"
     inkscape:cx="470.86981"
     inkscape:cy="471.57895"
     inkscape:window-width="1920"
     inkscape:window-height="1011"
     inkscape:window-x="0"
     inkscape:window-y="0"
     inkscape:window-maximized="1"
     inkscape:current-layer="svg85" />
  <path
     fill="#340f19"
     d="m 459.80883,0.1536384 q 5.565,-0.1422 11.131,-0.15279999696 5.567,-0.010500003 11.132,0.11049999696 5.566,0.1211 11.127,0.3737 5.561,0.2526 11.114,0.6367 5.553,0.384 11.096,0.8993 5.543,0.5153 11.072,1.1614 5.529,0.6462 11.041,1.423 5.512,0.7767 11.005,1.6836 5.492,0.9068 10.961,1.9433 5.469,1.0365 10.913,2.2019996 5.443,1.1655 10.857,2.4594 5.414,1.2939 10.796,2.7155 5.382,1.4216 10.729,2.97 5.347,1.5485 10.656,3.2229 5.309,1.6744 10.577,3.4739 5.268,1.7995 10.491,3.7231 5.224,1.9236 10.401,3.9701 5.177,2.0466 10.304,4.2149 5.127,2.1684 10.201,4.4574 5.074,2.2891 10.093,4.6974 5.019,2.4084 9.979,4.9347 4.96,2.5264 9.86,5.1693 4.899,2.643 9.734,5.4006 4.835,2.758 9.604,5.63 4.769,2.872 9.469,5.855 4.699,2.984 9.327,6.078 4.628,3.094 9.181,6.296 4.553,3.203 9.029,6.512 4.476,3.309 8.873,6.723 4.397,3.414002 8.712,6.931002 4.315,3.517 8.545,7.136 4.23,3.618 8.374,7.335 4.348,3.88 8.599,7.866 4.251,3.987 8.403,8.077 4.151,4.09 8.2,8.281 4.049,4.192 7.993,8.482 3.944,4.29 7.781,8.677 3.837,4.386 7.564,8.866 3.728,4.48 7.343,9.05 3.616,4.571 7.117,9.23 3.502,4.658 6.887,9.402 3.386,4.743 6.653,9.569 3.267,4.826 6.413,9.731 3.147,4.905 6.172,9.886 3.025,4.982 5.925,10.036 2.901,5.055 5.676,10.18 2.775,5.124 5.422,10.316 2.647,5.192 5.166,10.447 2.518,5.256 4.906,10.572 2.387,5.316 4.643,10.69 2.256,5.373 4.378,10.801 2.122,5.427 4.109,10.906 1.988,5.478 3.839,11.004 1.851,5.526 3.566,11.096 1.714,5.57 3.29,11.18 1.576,5.611 3.013,11.258 1.437,5.648 2.734,11.33 1.297,5.681 2.454,11.393 1.156,5.712 2.171,11.451 1.014,5.738 1.887,11.5 0.873,5.762 1.603,11.544 0.73,5.782 1.316,11.58 0.587,5.798 1.031,11.609 0.443,5.811 0.743,11.631 0.311,5.782 0.48,11.57 0.169,5.788 0.196,11.579 0.026,5.79 -0.091,11.58 -0.116,5.789 -0.375,11.574 -0.259,5.785 -0.66,11.561 -0.401,5.777 -0.944,11.542 -0.544,5.765 -1.229,11.515 -0.685,5.749 -1.512,11.481 -0.827,5.731 -1.794,11.44 -0.968,5.709 -2.075,11.393 -1.108,5.683 -2.356,11.338 -1.247,5.654 -2.633,11.277 -1.387,5.622 -2.911,11.208 -1.525,5.586 -3.186,11.133 -1.662,5.547 -3.459,11.052 -1.798,5.504 -3.731,10.963 -1.932,5.458 -3.999,10.868 -2.066,5.409 -4.265,10.766 -2.2,5.356 -4.53,10.657 -2.33,5.301 -4.79,10.543 -2.461,5.242 -5.049,10.422 -2.589,5.179 -5.304,10.294 -2.716,5.114 -5.556,10.16 -2.841,5.046 -5.804,10.021 -2.964,4.974 -6.05,9.874 -3.085,4.9 -6.291,9.723 -3.205,4.822 -6.528,9.564 -3.323,4.743 -6.762,9.401 -3.439,4.659 -6.991,9.232 -3.553,4.573 -7.217,9.057 -3.664,4.483 -7.437,8.876 -3.774,4.392 -7.654,8.69 -3.111,3.428 -6.289,6.795 -3.178,3.367 -6.42,6.671 -3.242,3.304 -6.549,6.545 -3.306,3.241 -6.674,6.416 -3.369,3.176 -6.799,6.286 -3.429,3.109 -6.919,6.151 -3.49,3.043 -7.038,6.017 -3.548,2.973 -7.153,5.877 -3.605,2.905 -7.266,5.738 -3.662,2.834 -7.377,5.596 -3.716,2.761 -7.484,5.45 -3.769,2.689 -7.589,5.304 -3.82,2.616 -7.69,5.156 -3.871,2.54 -7.79,5.005 -3.919,2.464 -7.885,4.852 -3.966,2.388 -7.978,4.698 -4.012,2.31 -8.068,4.542 -4.056,2.232 -8.155,4.384 -4.098,2.152 -8.238,4.225 -4.14,2.072 -8.319,4.063 -4.18,1.991 -8.397,3.901 -4.218,1.91 -8.471,3.737 -4.254,1.827 -8.542,3.571 -4.289,1.744 -8.61,3.405 -4.322,1.66 -8.675,3.236 -4.353,1.576 -8.736,3.067 -4.383,1.491 -8.794,2.896 -4.411,1.406 -8.848,2.725 -4.438,1.319 -8.9,2.552 -4.462,1.233 -8.948,2.378 -4.485,1.146 -8.992,2.204 -4.507,1.059 -9.034,2.029 c -28.621,5.936 -57.07,8.6 -86.221,9.911 q -5.671,0.16 -11.344,0.183 -5.672,0.023 -11.344,-0.091 -5.672,-0.114 -11.339,-0.365 -5.668,-0.251 -11.327,-0.638 -5.66,-0.387 -11.309,-0.911 -5.648,-0.524 -11.283,-1.184 -5.634,-0.66 -11.251,-1.456 -5.617,-0.796 -11.213,-1.727 -5.596,-0.932 -11.168,-1.998 -5.572,-1.065 -11.116,-2.266 -5.545,-1.2 -11.059,-2.533 -5.513,-1.334 -10.994,-2.8 -5.48,-1.466 -10.923,-3.064 -5.443,-1.598 -10.846,-3.327 -5.403,-1.729 -10.763,-3.588 -5.36,-1.859 -10.673,-3.846 -5.313,-1.988 -10.577,-4.103 -5.264,-2.116 -10.475,-4.357 -5.211,-2.242 -10.367,-4.609 -5.156,-2.366 -10.253,-4.857 -5.097,-2.491 -10.132,-5.103 -5.035,-2.613 -10.006,-5.347 -4.971,-2.733 -9.875,-5.586 -4.903,-2.853 -9.736,-5.823 -4.834,-2.97 -9.594,-6.056 -4.76,-3.086 -9.444,-6.286 -4.684,-3.2 -9.29,-6.512 -4.606,-3.312 -9.13,-6.734 -4.525,-3.422 -8.965,-6.953 -4.441,-3.53 -8.795,-7.167 -4.354,-3.636 -8.619,-7.377 -4.265,-3.741 -8.438,-7.583 -4.262,-3.891 -8.427,-7.886 -4.165,-3.995 -8.23,-8.092 -4.065,-4.097 -8.027,-8.293 -3.962,-4.196 -7.819,-8.488 -3.858,-4.293 -7.608,-8.68 -3.75,-4.386 -7.39,-8.864 -3.64,-4.479 -7.169004,-9.045 -3.528,-4.567 -6.943,-9.22 -3.414,-4.652 -6.713,-9.388 -3.298,-4.736 -6.479,-9.551 -3.18,-4.816 -6.24,-9.709 -3.061,-4.893 -5.999,-9.86 -2.938,-4.967 -5.7532,-10.005 -2.8147,-5.038 -5.5039,-10.145 -2.6893,-5.106 -5.2515,-10.277 -2.5622,-5.171 -4.9957,-10.404 -2.4335,-5.233 -4.737,-10.525 -2.3034,-5.291 -4.4753,-10.638 -2.1718,-5.347 -4.2108,-10.746 -2.039,-5.399 -3.9439,-10.846 -1.9049,-5.448 -3.6746,-10.941 -1.7696,-5.493 -3.4028,-11.029 -1.6333,-5.535 -3.1292,-11.109 -1.4959,-5.574 -2.8535,-11.183 -1.3577,-5.609 -2.5762,-11.25 -1.2184996,-5.641 -2.2971996,-11.31 -1.0787,-5.67 -2.0169,-11.364 -0.9381,-5.694 -1.7352,-11.41 -0.7971,-5.716 -1.4527,-11.45 -0.6555,-5.734 -1.169,-11.482 -0.5136,-5.748 -0.8849,-11.507 -0.37119998,-5.759 -0.59999998,-11.526 -0.2619,-5.773 -0.3807,-11.551 -0.1188,-5.778 -0.0945,-11.558 0.0244,-5.779 0.1919,-11.556 0.1675,-5.777 0.478,-11.547 0.3106,-5.771 0.76399998,-11.533 0.4534,-5.761 1.0493,-11.51 0.596,-5.748 1.3342,-11.48 0.7382,-5.732 1.6181,-11.444 0.8799,-5.712 1.9011,-11.4 1.0211,-5.689 2.1829,-11.35 1.1616996,-5.661 2.4632996,-11.292 1.3016,-5.631 2.7423,-11.228 1.4407,-5.596 3.0196,-11.156 1.5789,-5.559 3.295,-11.078 1.7161,-5.518 3.5684,-10.993 1.8523,-5.474 3.8396,-10.901 1.9873,-5.427 4.1084,-10.803 2.1211,-5.376 4.3748,-10.697 2.2536,-5.322 4.6384,-10.587 2.3848,-5.264 4.8992,-10.467 2.5145,-5.204 5.157,-10.344 2.6426,-5.14 5.4116,-10.212 2.7691,-5.073 5.6626,-10.075 2.894,-5.003 5.911,-9.932 3.017,-4.93 6.155,-9.783 3.138,-4.853 6.395,-9.627 3.258,-4.774 6.632,-9.465 3.375,-4.692 6.865,-9.299 3.489,-4.606 7.092004,-9.125 3.603,-4.519 7.317,-8.947 3.713,-4.428 7.535,-8.763 3.823,-4.335 7.751,-8.574 3.993,-4.385 8.095,-8.668 4.101,-4.284 8.308,-8.464 4.207,-4.18 8.517,-8.253 4.31,-4.074 8.721,-8.039 4.41,-3.965 8.918,-7.818 4.508,-3.854 9.11,-7.594 4.603,-3.74 9.297,-7.363002 4.695,-3.624 9.478,-7.13 4.784,-3.506 9.653,-6.891 4.869,-3.385 9.822,-6.648 4.952,-3.263 9.984,-6.401 5.033,-3.138 10.141,-6.149 5.109,-3.012 10.292,-5.8953 5.182,-2.8832 10.435,-5.6362 5.253,-2.753 10.573,-5.3741 5.32,-2.6211 10.703,-5.1086 5.384,-2.4876 10.828,-4.84 5.444,-2.3525 10.945,-4.5684 5.501,-2.2159 11.055,-4.2939 5.555,-2.078 11.159,-4.0167 5.605,-1.9388 11.256,-3.7371 5.652,-1.7983 11.346,-3.4551 5.694,-1.6567 11.428,-3.1709 5.734,-1.5142 11.504,-2.8848 5.77,-1.3707 11.572,-2.5969 5.803,-1.2262996 11.634,-2.3073996 5.831,-1.0811 11.687,-2.0164 5.857,-0.9353 11.734,-1.7242 5.878,-0.7889 11.774,-1.4309 5.895,-0.642 11.805,-1.1367 5.91,-0.4948 11.831,-0.8419 5.92,-0.3471 11.847,-0.5464 z"
     id="path2" />
  <path
     fill="#8a959b"
     d="m 462.46583,827.19054 c 0.863,2.608 0.483,5.132 1.22,7.745 l 0.246,0.91 0.188,0.664 c -0.009,-0.177 -0.02,-0.355 -0.027,-0.532 -0.068,-1.607 -0.097,-3.613 0.801,-5.024 -0.084,0.302 -0.179,0.602 -0.252,0.907 -0.661,2.754 0.298,6.743 0.421,9.63 0.267,6.863 0.359,36.374 -1.015,41.669 -1.499,-2.607 -1.556,-49.755 -1.582,-55.969 z"
     id="path3" />
  <path
     fill="#a5958b"
     d="m 360.06883,545.84254 9.1,-0.035 c -1.763,3.728 -2.877,6.905 -3.298,11.06 l -6.986,2.907 c 0.069,-4.616 0.766,-9.329 1.184,-13.932 z"
     id="path4" />
  <path
     fill="#7b4540"
     d="m 315.28583,546.14154 c 0.9,-0.177 1.624,-0.118 2.534,-0.067 -5.143,4.147 -10.035,7.625 -14.523,12.568 l -0.754,-0.237 c -1.902,-3.198 -3.621,-6.466 -5.321,-9.776 6.03,-0.711 12.025,-1.775 18.064,-2.488 z"
     id="path5" />
  <path
     fill="#a5958b"
     d="m 516.24483,524.52654 c 6.834,-0.359 16.693,-1.665 22.37,3.056 -9.817,3.151 -17.031,2.519 -27.018,1.721 1.618,-1.495 3.113,-3.193 4.648,-4.777 z"
     id="path6" />
  <path
     fill="#7b4540"
     d="m 587.36983,524.84254 c 3.04,-1.046 6.553,-1.557 9.704,-2.289 -2.382,5.34 -4.197,10.973 -7.268,15.972 -2.562,0.246 -5.067,0.434 -7.643,0.442 q 1.825,-3.316 3.134,-6.867 1.309,-3.551 2.073,-7.258 z"
     id="path7" />
  <path
     fill="#253e4a"
     d="m 670.38783,526.39754 c 4.318,1.219 8.376,3.449 12.501,5.204 5.155,2.194 10.481,3.934 15.847,5.532 q 3.17,4.357 6.261,8.77 c -2.43,-0.435 -4.779,-0.995 -7.253,-0.672 -5.493,-3.873 -10.968,-7.796 -16.561,-11.525 -3.526,-2.352 -7.805,-4.324 -10.795,-7.309 z"
     id="path8" />
  <path
     fill="#a5958b"
     d="m 564.29683,531.07754 q 11.476,-3.342 23.073,-6.235 -0.764,3.707 -2.073,7.258 -1.309,3.551 -3.134,6.867 c -3.345,0.414 -7.149,1.528 -10.028,-0.528 -2.256,-2.73 -4.999,-5.246 -7.838,-7.362 z"
     id="path9" />
  <path
     fill="#a5958b"
     d="m 355.15583,545.85554 4.913,-0.013 c -0.418,4.603 -1.115,9.316 -1.184,13.932 l -4.983,2.161 -2.889,1.429 c -4.289,-4.846 -7.566,-11.415 -10.909,-16.957 4.998,-0.41 10.04,-0.428 15.052,-0.552 z"
     id="path10" />
  <path
     fill="#7b4540"
     d="m 355.15583,545.85554 4.913,-0.013 c -0.418,4.603 -1.115,9.316 -1.184,13.932 l -4.983,2.161 c -0.004,-5.401 0.622,-10.727 1.254,-16.08 z"
     id="path11" />
  <defs
     id="defs12">
    <linearGradient
       id="gradient_0"
       gradientUnits="userSpaceOnUse"
       x1="252.96637"
       y1="520.38348"
       x2="271.40039"
       y2="533.88513"
       gradientTransform="translate(-40.013174,-39.568462)">
      <stop
         offset="0"
         stop-color="#450D1E"
         id="stop11" />
      <stop
         offset="1"
         stop-color="#64292B"
         id="stop12" />
    </linearGradient>
  </defs>
  <path
     fill="url(#gradient_0)"
     d="m 236.44183,477.92654 1.315,0.786 c 4.54,-1.513 10.111,-7.956 13.514,-11.409 -6.474,12.176 -14.069,20.015 -25.984,26.821 -3.115,1.779 -7.543,3.489 -10.185,5.76 -5.642,1.551 -16.204,4.923 -21.843,2.431 17.606,-3.51 30.195,-12.525 43.183,-24.389 z"
     id="path12"
     style="fill:url(#gradient_0)" />
  <path
     fill="#a5958b"
     d="m 466.46083,560.85254 c 3.589,-0.201 7.082,-0.127 10.67,0.065 4.221,4.021 9.112,7.371 13.13,11.544 l -0.206,0.479 -2.85,0.978 c -9.542,1.387 -20.461,2.117 -29.838,-0.564 -1.258,-0.303 -2.953,-0.361 -3.762,-1.377 q 6.52,-5.456 12.856,-11.125 z"
     id="path13" />
  <path
     fill="#7b4540"
     d="m 457.36683,573.35454 c 0.549,-0.292 0.984,-0.557 1.621,-0.608 4.023,-0.322 8.607,0.537 12.713,0.511 3.9,-0.025 10.372,-1.147 13.961,-10e-4 0.844,0.269 0.85,0.304 1.543,0.662 -9.542,1.387 -20.461,2.117 -29.838,-0.564 z"
     id="path14" />
  <path
     fill="#7b4540"
     d="m 393.53883,526.99254 c 10.653,-7.889 22.607,-9.574 35.515,-9.572 q 2.817,6.525 6.794,12.416 c -11.741,0.143 -23.608,0.43 -35.338,-0.024 z"
     id="path15" />
  <path
     fill="#a5958b"
     d="m 577.87983,546.59354 c 12.064,-0.868 23.999,-2.471 36.118,-2.741 -6.467,6.431 -12.593,13.193 -18.798,19.874 -4.59,-1.609 -9.227,-3.1 -13.841,-4.641 -0.987,-4.2 -2.286,-8.346 -3.479,-12.492 z"
     id="path16" />
  <path
     fill="#456c77"
     d="m 486.79583,863.47754 c 4.539,-0.257 7.998,0.206 11.537,3.32 2.281,2.007 4.062,4.979 4.215,8.065 0.097,1.965 -0.472,3.763 -1.811,5.222 -2.451,2.671 -5.756,2.889 -9.126,3.151 -3.701,0.048 -7.771,0.492 -11.305,-0.802 -1.956,-0.716 -3.546,-1.951 -4.365,-3.908 -0.885,-2.116 -0.36,-4.57 0.596,-6.566 2.132,-4.452 5.688,-6.993 10.259,-8.482 z"
     id="path17" />
  <path
     fill="#340f19"
     d="m 488.28183,873.38954 c 0.942,0.213 2.169,0.505 2.942,1.097 1.153,0.882 1.123,1.573 1.232,2.881 -0.567,1.742 -1.554,2.498 -2.92,3.667 -1.092,-0.33 -1.995,-0.729 -2.824,-1.548 -0.987,-0.974 -1.019,-1.949 -1.068,-3.243 0.688,-1.569 1.261,-1.95 2.638,-2.854 z"
     id="path18" />
  <path
     fill="#253e4a"
     d="m 652.72683,776.65754 c 11.12,15.73 22.168,30.71 31.562,47.595 l -7.836,4.994 c -3.87,-6.882 -7.337,-13.932 -11.65,-20.564 -5.166,-7.945 -11.158,-15.312 -16.518,-23.126 1.368,-3.008 2.954,-5.947 4.442,-8.899 z"
     id="path19" />
  <path
     fill="#253e4a"
     d="m 259.06783,824.60654 c 9.445,-17.365 19.556,-34.487 31.965,-49.931 1.514,3.065 2.845,6.153 4.107,9.329 -7.86,11.47 -15.77,22.658 -22.839,34.654 -1.947,3.303 -4.345,6.866 -5.754,10.413 -2.414,-1.648 -4.924,-3.053 -7.479,-4.465 z"
     id="path20" />
  <path
     fill="#456c77"
     d="m 484.77083,810.00354 c 2.748,-0.062 5.19,-0.046 7.803,0.994 3.652,1.452 6.574,4.238 8.077,7.886 1.444,3.503 1.474,7.55 -0.158,10.998 -2.134,4.51 -5.993,6.839 -10.556,8.386 -2.978,0.16 -5.885,-0.067 -8.641,-1.303 q -0.663,-0.296 -1.294,-0.657 -0.63,-0.362 -1.221,-0.784 -0.59,-0.423 -1.136,-0.903 -0.545,-0.48 -1.039,-1.012 -0.494,-0.533 -0.933,-1.112 -0.438,-0.579 -0.816,-1.2 -0.378,-0.62 -0.691,-1.275 -0.314,-0.656 -0.56,-1.339 -0.243,-0.666 -0.413,-1.354 -0.17,-0.689 -0.266,-1.391 -0.096,-0.702 -0.117,-1.411 -0.021,-0.709 0.033,-1.415 0.054,-0.707 0.184,-1.404 0.129,-0.697 0.331,-1.376 0.203,-0.68 0.477,-1.334 0.273,-0.654 0.615,-1.275 c 2.265,-4.19 5.927,-6.315 10.321,-7.719 z"
     id="path21" />
  <path
     fill="#340f19"
     d="m 486.43783,820.74854 c 1.086,0.235 2.246,0.434 3.143,1.137 0.936,0.735 1.566,1.948 1.557,3.143 -0.014,2.125 -1.193,3.195 -2.686,4.459 -1.059,-0.245 -2.126,-0.464 -3.011,-1.138 -0.942,-0.718 -1.565,-1.815 -1.579,-3.01 -0.023,-2.097 1.166,-3.264 2.576,-4.591 z"
     id="path22" />
  <path
     fill="#a5958b"
     d="m 326.22983,514.78554 c 20.48,2.628 33.658,8.855 52.507,15.655 -2.619,2.011 -3.933,4.131 -5.381,7.05 -11.351,-0.813 -23.081,-1.875 -34.454,-0.844 -0.828,-0.113 -1.51,-0.271 -2.306,-0.499 -4.005,-5.239 -7.532,-15.186 -10.366,-21.362 z"
     id="path23" />
  <path
     fill="#7b4540"
     d="m 442.95383,154.98854 c 7.48,2.73 14.077,11.327 17.634,18.142 3.027,5.799 10.338,22.761 8.463,28.749 -0.491,0.378 -0.719,0.755 -1.38,0.709 -3.515,-0.243 -12.994,-13.62 -15.782,-16.891 -10.119,-10.725 -19.887,-21.347 -32.242,-29.576 10.426,0.531 18.428,2.742 26.727,9.161 q -1.862,-5.097 -3.42,-10.294 z"
     id="path24" />
  <path
     fill="#7b4540"
     d="m 396.03783,164.57154 q 2.837,0.139 5.655,0.486 2.819,0.346 5.605,0.897 2.786,0.552 5.524,1.305 2.738,0.754 5.414,1.706 1.535,0.543 3.041,1.162 1.506,0.619 2.979,1.312 1.473,0.693 2.91,1.458 1.438,0.765 2.835,1.6 1.397,0.836 2.752,1.739 1.354,0.904 2.661,1.874 1.308,0.97 2.566,2.004 1.258,1.033 2.463,2.128 1.205,1.095 2.354,2.248 1.15,1.153 2.24,2.362 1.091,1.209 2.12,2.471 1.029,1.261 1.995,2.572 0.965,1.311 1.864,2.669 0.899,1.357 1.73,2.757 0.83,1.401 1.59,2.84 0.76,1.44 1.448,2.916 c -10.379,-0.726 -19.637,-6.103 -29.179,-9.841 -4.371,-1.712 -8.778,-2.887 -13.349,-3.928 -10.866,-1.765 -20.826,-0.743 -31.692,-0.255 4.131,-1.171 8.321,-2.043 12.443,-3.28 17.237,-5.176 21.356,-4.76 37.897,1.887 -6.234,-6.501 -13.459,-12.25 -21.563,-16.234 -4.576,-2.249 -9.366,-4.108 -13.824,-6.584 z"
     id="path25" />
  <path
     fill="#f3e3ce"
     d="m 184.12883,288.09754 c -2.347,-17.468 3.816,-37.825 11.703,-53.246 5.102,-9.974 14.014,-26.347 25.459,-29.764 10.257,-3.063 22.788,2.912 31.568,7.711 -0.17,0.069 -0.334,0.157 -0.511,0.207 -3.023,0.855 -10.2,-0.538 -14.238,-0.131 -13.944,1.407 -29.909,16.396 -37.31,27.735 q -1.973,3.057 -3.717,6.25 -1.743,3.193 -3.248,6.506 -1.505,3.312 -2.763,6.726 -1.259,3.414 -2.263,6.911 c -1.122,3.813 -3.346,19.232 -4.68,21.095 z"
     id="path26" />
  <path
     fill="#7b4540"
     d="m 305.11583,562.46554 c 9.647,-9.786 21.256,-15.425 34.988,-16.058 3.343,5.542 6.62,12.111 10.909,16.957 -10.541,6.116 -20.115,13.09 -28.926,21.54 -6.295,-6.847 -11.926,-14.635 -16.971,-22.439 z"
     id="path27" />
  <path
     fill="#7b4540"
     d="m 613.99783,543.85254 q 11.296,0.194 22.577,0.824 c 2.423,0.527 4.858,1.002 7.222,1.758 l -4.217,7.467 c -5.59,9.366 -12.093,17.923 -18.681,26.593 -8.13,-6.787 -16.099,-12.177 -25.699,-16.768 6.205,-6.681 12.331,-13.443 18.798,-19.874 z"
     id="path28" />
  <path
     fill="#7b4540"
     d="m 546.55283,164.61954 c 0.72,-0.101 1.438,-0.002 2.162,0.044 -3.277,2.976 -9.053,4.275 -12.905,6.724 -10.64,6.763 -19.181,15.089 -27.949,24.05 24.061,-16.321 45.496,-17.452 73.182,-12.837 -19.476,0.978 -35.996,5.625 -53.996,12.776 l 10.565,0.052 c 10.901,0.058 33.545,2.345 43.305,6.067 -3.316,0.788 -11.845,-0.956 -15.607,-1.168 q -6.515,-0.315 -13.037,-0.201 c -12.072,0.259 -24.271,1.162 -36.283,2.352 -7.07,0.7 -14.141,1.825 -21.241,2.093 q 3.8,-6.487 8.544,-12.319 c 10.689,-13.217 25.785,-25.708 43.26,-27.633 z"
     id="path29" />
  <path
     fill="#f3e3ce"
     d="m 696.94383,207.31754 c 7.646,-3.414 15.804,-6.853 24.187,-3.571 2.438,0.955 4.547,2.582 6.616,4.153 l 3.831,2.92 0.091,0.533 c 0.608,3.426 3.675,9.684 1.318,12.765 -1.368,1.789 -4.475,2.08 -6.525,2.083 -1.844,0.002 -3.696,-0.12 -5.532,-0.293 -13.773,-3.484 -26.855,-3.995 -39.44,3.56 -8.533,5.121 -10.696,10.685 -17.192,15.931 -1.575,-3.424 -3.175,-6.814 -4.415,-10.376 9.02,-10.991 23.5,-23.105 37.061,-27.705 z"
     id="path30" />
  <path
     fill="#7b4540"
     d="m 473.54983,176.03254 c 2.539,-12.286 7.844,-22.926 18.3,-30.142 -4.926,8.078 -8.168,16.862 -10.484,26.003 10.532,-11.501 17.144,-14.634 32.456,-16.965 -9.364,8.022 -13.319,17.027 -18.642,27.751 0.203,-0.21 0.408,-0.418 0.608,-0.631 2.14,-2.263 3.499,-5.185 5.69,-7.421 8.946,-9.127 22.393,-14.568 34.572,-17.541 -26.754,14.708 -30.802,18.376 -47.497,43.532 0.265,-3.72 0.396,-7.416 0.449,-11.145 -2.979,3.813 -4.417,9.914 -7.796,13.02 -0.741,0.681 -0.388,0.517 -1.396,0.441 -0.108,-0.162 -0.23,-0.315 -0.324,-0.485 -3.15,-5.731 -2.927,-18.618 -1.391,-24.884 -2.374,1.787 -4.38,10.309 -5.477,13.317 -2.554,-6.332 -4.416,-12.92 -7.058,-19.236 -3.362,-8.037 -7.551,-15.715 -11.44,-23.505 9.243,7.74 14.184,17.274 19.43,27.891 z"
     id="path31" />
  <path
     fill="#253e4a"
     d="m 428.17283,475.64154 1.313,1.073 c 7.413,11.669 20.858,21.115 34.374,24.087 24.342,5.351 29.838,-10.412 49.146,-13.884 l 2.637,0.071 c -0.17,0.67 -0.342,1.305 -0.596,1.949 -7.124,18.118 -26.629,31.805 -43.874,39.101 -15.4,-7.331 -31.812,-19.32 -39.454,-35.032 -2.067,-4.25 -2.845,-8.917 -4.655,-13.235 l -0.352,-0.823 z"
     id="path32" />
  <path
     fill="#a5958b"
     d="m 184.12883,288.09754 c 1.334,-1.863 3.558,-17.282 4.68,-21.095 q 1.004,-3.497 2.263,-6.911 1.258,-3.414 2.763,-6.726 1.505,-3.313 3.248,-6.506 1.744,-3.193 3.717,-6.25 c 7.401,-11.339 23.366,-26.328 37.31,-27.735 4.038,-0.407 11.215,0.986 14.238,0.131 0.177,-0.05 0.341,-0.138 0.511,-0.207 10.416,5.552 24.359,14.777 32.203,23.475 l -7.146,16.552 c -6.792,-6.809 -21.145,-21.369 -31.11,-21.417 -7.901,-0.038 -14.792,6.132 -19.924,11.544 -14.626,15.428 -21.568,36.043 -20.843,57.137 0.641,18.635 8.248,33.196 21.819,45.879 7.598,7.101 20.857,15.758 31.29,17.291 q 0.845,7.467 2.675,14.756 c -15.559,-2.253 -26.484,-6.778 -38.784,-16.915 q -1.027,-0.841 -2.032,-1.706 -1.006,-0.866 -1.99,-1.756 -0.984,-0.89 -1.946,-1.804 -0.962,-0.915 -1.9,-1.852 -0.939,-0.938 -1.855,-1.898 -0.915,-0.961 -1.806,-1.944 -0.892,-0.983 -1.759,-1.987 -0.867,-1.005 -1.708,-2.031 -0.842,-1.025 -1.658,-2.071 -0.817,-1.047 -1.607,-2.113 -0.79,-1.066 -1.553,-2.151 -0.764,-1.085 -1.501,-2.189 -0.736,-1.103 -1.445,-2.225 -0.709,-1.122 -1.39,-2.26 -0.682,-1.139 -1.334,-2.294 -0.653,-1.155 -1.277,-2.326 -0.624,-1.171 -1.219,-2.357 -0.595,-1.186 -1.161,-2.387 -0.566,-1.2 -1.101,-2.414 -0.536,-1.214 -1.042,-2.441 -0.505,-1.226 -0.98,-2.465 -0.476,-1.239 -0.92,-2.49 -0.444,-1.25 -0.858,-2.511 -0.413,-1.261 -0.795,-2.531 -0.382,-1.271 -0.733,-2.551 -0.351,-1.279 -0.67,-2.567 -0.319,-1.288 -0.606,-2.584 -0.287,-1.295 -0.542,-2.597 -0.255,-1.303 -0.477,-2.611 -0.223,-1.308 -0.414,-2.621 -0.19,-1.313 -0.348,-2.631 -0.158,-1.317 -0.283,-2.638 z"
     id="path33" />
  <path
     fill="#a5958b"
     d="m 731.57783,210.81954 c 1.804,1.559 3.734,3.053 5.226,4.922 12.815,10.001 21.682,35.171 23.584,50.881 3.657,30.217 -7.058,58.822 -25.776,82.355 -14.203,17.856 -28.74,26.761 -51.428,29.275 q -1.694,0.2 -3.394,0.348 c 0.479,-6.459 0.597,-13.214 1.592,-19.6 0.566,-0.011 1.133,-0.017 1.698,-0.056 14.456,-1.008 28.288,-8.587 37.781,-19.398 11.836,-13.479 15.833,-32.092 14.528,-49.621 -1.153,-15.47 -8.311,-35.653 -20.51,-45.876 -5.613,-4.704 -12.742,-7.27 -20.093,-6.49 -11.149,1.184 -19.633,9.1 -26.416,17.372 -1.501,-3.09 -2.737,-6.364 -4.072,-9.533 6.496,-5.246 8.659,-10.81 17.192,-15.931 12.585,-7.555 25.667,-7.044 39.44,-3.56 1.836,0.173 3.688,0.295 5.532,0.293 2.05,-0.003 5.157,-0.294 6.525,-2.083 2.357,-3.081 -0.71,-9.339 -1.318,-12.765 z"
     id="path34" />
  <path
     fill="#7b4540"
     d="m 668.36983,254.93154 c 6.783,-8.272 15.267,-16.188 26.416,-17.372 7.351,-0.78 14.48,1.786 20.093,6.49 12.199,10.223 19.357,30.406 20.51,45.876 1.305,17.529 -2.692,36.142 -14.528,49.621 -9.493,10.811 -23.325,18.39 -37.781,19.398 -0.565,0.039 -1.132,0.045 -1.698,0.056 2.485,-36.504 -0.427,-69.464 -13.012,-104.069 z"
     id="path35" />
  <path
     fill="#7b4540"
     d="m 259.14783,363.25954 c -10.433,-1.533 -23.692,-10.19 -31.29,-17.291 -13.571,-12.683 -21.178,-27.244 -21.819,-45.879 -0.725,-21.094 6.217,-41.709 20.843,-57.137 5.132,-5.412 12.023,-11.582 19.924,-11.544 9.965,0.048 24.318,14.608 31.11,21.417 -9.753,22.213 -15.682,43.26 -19.322,67.214 -1.104,7.262 -2.31,14.537 -2.211,21.904 0.096,7.195 1.413,14.27 2.765,21.316 z"
     id="path36" />
  <path
     fill="#253e4a"
     d="m 277.23083,516.74554 c 3.249,10.31 6.097,21.504 10.877,31.225 -10.827,4.159 -18.116,11.014 -25.329,19.925 8.261,-6.701 16.861,-12.645 26.753,-16.746 q 3.163,6.317 6.027,12.774 c -5.095,9.78 -7.682,17.691 -8.659,28.659 3.065,-8.6 6.987,-15.934 11.853,-23.652 2.976,6.91 6.59,13.475 10.316,20.002 -5.663,6.366 -8.332,15.857 -10.863,23.817 4.4,-7.056 7.522,-11.759 15.628,-15.047 27.135,43.515 58.937,83.608 98.352,116.666 8.913,7.476 18.397,14.247 27.872,20.984 4.796,3.41 10.647,6.781 14.85,10.862 -20.672,-2.376 -58.059,-21.27 -75.893,-32.226 -61.814,-37.973 -117.247,-100.439 -134.45,-172.342 9.131,-8.319 22.621,-17.055 32.666,-24.901 z"
     id="path37" />
  <path
     fill="#253e4a"
     d="m 665.51283,523.52954 c 1.311,0.693 2.442,1.396 3.608,2.314 1.466,4.787 4.932,10.049 7.121,14.654 5.614,11.812 11.193,23.988 15.316,36.415 -5.119,11.732 -11.04,23.475 -17.895,34.304 -34.461,54.439 -93.338,101.833 -153.116,125.32 -7.796,3.063 -22.36,9.024 -30.441,9.122 4.036,-4.361 9.929,-7.837 14.709,-11.408 q 13.463,-9.862 26.337,-20.481 c 37.491,-31.441 76.825,-78.958 98.408,-123.004 8.824,5.015 18.7,15.444 23.046,24.662 1.752,3.718 2.781,8.116 4.891,11.604 0.159,0.265 0.326,0.525 0.489,0.787 -3,-17.965 -11.106,-32.756 -25.791,-43.911 7.979,-11.102 16.214,-21.479 22.716,-33.563 6.413,3.382 12.767,7.261 18.816,11.263 -4.815,-5.742 -10.224,-11.13 -16.82,-14.752 q 4.406,-11.625 8.606,-23.326 z"
     id="path38" />
  <path
     fill="#253e4a"
     d="m 814.15183,259.92454 c 3.796,2.364 7.084,10.18 9.4,14.203 q 3.743,6.424 7.237,12.987 3.493,6.564 6.731,13.257 3.239,6.692 6.217,13.505 2.979,6.812 5.694,13.734 2.714,6.922 5.16,13.943 2.446,7.022 4.621,14.132 2.174,7.11 4.073,14.298 1.9,7.189 3.521,14.445 1.152,4.901 2.183,9.829 1.031,4.927 1.941,9.879 0.91,4.952 1.697,9.924 0.788,4.973 1.453,9.963 0.665,4.991 1.207,9.996 0.542,5.005 0.96,10.022 0.419,5.017 0.714,10.043 0.295,5.026 0.466,10.058 0.172,5.031 0.219,10.066 0.048,5.034 -0.029,10.068 -0.076,5.034 -0.276,10.064 -0.201,5.031 -0.525,10.055 -0.324,5.024 -0.771,10.039 -0.448,5.014 -1.018,10.016 -0.571,5.002 -1.265,9.989 -0.693,4.986 -1.509,9.954 -0.816,4.968 -1.755,9.914 -0.938,4.947 -1.997,9.869 -1.06,4.921 -2.24,9.815 -1.18,4.895 -2.481,9.758 -1.3,4.864 -2.72,9.694 -1.419,4.83 -2.957,9.624 -1.538,4.794 -3.194,9.549 -1.655,4.754 -3.427,9.467 -1.772,4.712 -3.66,9.379 -1.887,4.667 -3.889,9.287 -2.001,4.62 -4.116,9.188 -2.115,4.569 -4.341,9.085 -2.227,4.515 -4.564,8.974 -2.337,4.46 -4.783,8.86 -2.446,4.4 -4.999,8.739 -2.554,4.339 -5.213,8.614 -4.216,6.732 -8.521,13.407 c -15.055,-15.608 -35.98,-30.278 -55.25,-40.154 6.455,-6.74 11.886,-14.604 17.372,-22.131 21.794,-29.901 39.877,-61.446 53.103,-96.087 28.696,-75.162 34.948,-157.961 12.125,-235.608 -5.482,-18.651 -12.675,-36.013 -20.594,-53.712 z"
     id="path39" />
  <path
     fill="#253e4a"
     d="m 137.03783,708.92854 c -48.931004,-76.454 -74.916004,-157.783 -70.985004,-249.092 2.696,-62.61 20.075,-122.394 49.108004,-177.764 3.966,-7.565 11.063,-22.904 17.174,-28.512 -2.892,7.424 -6.702,14.477 -9.888,21.778 -3.871,8.869 -7.22,18.225 -10.168,27.444 -26.908004,84.128 -23.759004,173.008 11.82,254.156 q 2.816,6.439 5.895,12.757 3.079,6.318 6.416,12.503 3.338,6.185 6.927,12.227 3.59,6.043 7.425,11.932 3.836,5.889 7.912,11.614 4.075,5.726 8.383,11.279 4.308,5.553 8.842,10.923 4.534,5.37 9.285,10.549 c 4.325,4.696 8.631,9.609 13.363,13.897 -21.445,12.513 -43.397,27.251 -61.509,44.309 z"
     id="path40" />
  <path
     fill="#7b4540"
     d="m 578.65383,566.06854 c 4.013,0.833 7.913,1.968 11.843,3.117 8.599,2.464 21.805,8.03 28.873,13.363 -18.239,21.078 -38.115,39.522 -61.436,54.87 -9.089,5.982 -19.027,10.965 -27.889,17.189 -8.235,5.784 -19.567,18.189 -30.426,18.613 -3.98,0.156 -8.085,-1.078 -12.086,-1.252 -7.238,-0.316 -14.622,-0.011 -21.871,0.076 -5.935,0.071 -18.502,1.79 -23.472,0.523 -11.904,-3.034 -18.85,-12.611 -28.538,-19.112 -9.348,-6.272 -19.316,-11.575 -28.985,-17.324 -17.638,-10.485 -34.868,-22.343 -49.432,-36.895 q -4.076,-4.052 -7.8,-8.43 c 4.994,-3.495 10.455,-6.348 15.639,-9.554 4.024,-2.489 8.32,-5.863 12.583,-7.736 l 8.749,-5.831 c 4.115,4.291 8.194,7.871 13.51,10.614 20.792,10.728 47.6,6.793 68.957,0.058 21.503,6.17 29.354,5.974 50.648,-0.197 19.635,7.027 46.89,11.184 66.737,2.812 7.231,-3.051 11.466,-7.756 14.396,-14.904 z"
     id="path41" />
  <path
     fill="#a5958b"
     d="m 465.46683,614.62054 c 10.234,-1.311 22.005,1.086 31.447,5.019 11.598,4.831 22.335,13.448 27.234,25.245 -13.079,9.176 -27.836,11.978 -43.608,12.087 -21.167,0.068 -42.217,0.597 -60.012,-12.729 q 1.753,-4.004 4.401,-7.483 c 9.938,-13.171 24.551,-19.832 40.538,-22.139 z"
     id="path42" />
  <path
     fill="#a5958b"
     d="m 578.65383,566.06854 c 4.013,0.833 7.913,1.968 11.843,3.117 -17.329,18.301 -44.627,38.052 -69.221,44.178 -6.612,-4.725 -13.549,-8.055 -20.37,-12.316 -18.82,3.431 -38.592,3.121 -57.43,0.004 -7.397,3.999 -14.622,8.13 -21.798,12.517 -23.062,-7.459 -49.426,-21.861 -66.021,-40.052 l 8.749,-5.831 c 4.115,4.291 8.194,7.871 13.51,10.614 20.792,10.728 47.6,6.793 68.957,0.058 21.503,6.17 29.354,5.974 50.648,-0.197 19.635,7.027 46.89,11.184 66.737,2.812 7.231,-3.051 11.466,-7.756 14.396,-14.904 z"
     id="path43" />
  <path
     fill="#340f19"
     d="m 423.20283,589.52054 c 4.068,1.85 7.948,2.947 12.419,3.271 12.873,0.934 26.039,-1.481 38.991,-1.485 12.016,-0.004 24.235,2.155 36.218,1.34 3.347,-0.228 6.348,-1.337 9.453,-2.5 -5.792,4.987 -11.979,8.782 -19.378,10.901 -18.82,3.431 -38.592,3.121 -57.43,0.004 -8.047,-2.427 -14.483,-5.255 -20.273,-11.531 z"
     id="path44" />
  <path
     fill="#456c77"
     d="m 244.56483,541.64654 c 17.203,71.903 72.636,134.369 134.45,172.342 17.834,10.956 55.221,29.85 75.893,32.226 3.953,1.709 5.721,3.812 7.319,7.805 7.136,17.824 4.038,45.646 3.487,64.725 -0.216,7.487 0.219,15.328 -0.651,22.746 -0.123,-2.887 -1.082,-6.876 -0.421,-9.63 0.073,-0.305 0.168,-0.605 0.252,-0.907 -0.898,1.411 -0.869,3.417 -0.801,5.024 0.007,0.177 0.018,0.355 0.027,0.532 l -0.188,-0.664 -0.246,-0.91 c -0.737,-2.613 -0.357,-5.137 -1.22,-7.745 -0.843,-4.299 -0.576,-9.311 -0.796,-13.747 -0.726,-14.644 -1.113,-33.358 -7.99,-46.503 -1.111,-2.123 -2.541,-4.055 -4.958,-4.698 -1.783,-0.475 -2.854,-0.234 -4.391,0.716 -4.897,6.181 -9.208,12.877 -13.622,19.406 q -12.375,18.411 -24.44,37.027 c -6.925,10.563 -15.122,21.007 -20.949,32.189 -2.501,4.798 -3.935,9.29 -4.808,14.613 -6.595,-23.173 -16.741,-40.835 -31.351,-59.788 2.045,9.587 1.581,20.125 1.81,29.895 -6.508,-8.894 -9.967,-20.165 -15.266,-29.849 -6.588,-12.041 -14.848,-23.331 -22.524,-34.705 -1.979,9.736 -1.118,18.124 1.349,27.686 -13.236,-20.544 -25.414,-40.882 -30.045,-65.247 -3.717,11.061 -3.965,20.527 -3.43,32.064 -13.278,-19.681 -23.202,-42.586 -27.547,-65.954 -2.746,8.709 -3.524,17.433 -4.527,26.453 -9.995,-17.38 -15.27,-36.975 -17.414,-56.806 -2.633,8.327 -4.125,15.936 -4.253,24.687 -12.535,-19.498 -19.877,-57.422 -19.878,-81.089 -3.784,7.818 -9.001,14.992 -13.256,22.587 2.113,-6.206 3.352,-12.858 4.853,-19.238 q 3.456,-14.745 7.12,-29.44 c 1.218,-4.909 2.097,-10.889 4.353,-15.427 1.067,-2.146 3.866,-4.288 5.6,-5.96 8.856,-8.74 18.83,-16.551 28.459,-24.416 z"
     id="path45" />
  <path
     fill="#456c77"
     d="m 669.12083,525.84354 1.267,0.554 c 2.99,2.985 7.269,4.957 10.795,7.309 5.593,3.729 11.068,7.652 16.561,11.525 2.474,-0.323 4.823,0.237 7.253,0.672 6.84,5.961 18.618,11.755 27.915,10.957 0.188,-0.016 0.372,-0.059 0.558,-0.089 6.343,3.038 15.258,11.945 17.649,18.629 -0.151,2.887 1.293,5.732 2.374,8.362 -2.885,-3.04 -7.282,-9.089 -11.44,-10.027 l -0.326,0.619 c 0.83,1.98 2.255,3.658 3.055,5.574 l -1.698,2.49 c -1.78,-0.242 -3.255,0.896 -4.816,1.743 3.977,15.864 7.491,31.88 8.897,48.212 l -10.98,-15.075 q -2.581,24.167 -6.601,48.136 c -1.501,8.74 -3.767,17.441 -4.993,26.205 -5.011,-9.555 -10.185,-19.025 -14.963,-28.699 -0.638,20.307 -3.819,41.772 -8.068,61.644 -3.844,-6.006 -7.584,-12.117 -11.605,-18.004 -3.105,9.665 -6.04,19.446 -9.51,28.984 -4.042,11.116 -8.712,22.029 -13.189,32.975 -1.007,-10.338 -1.853,-20.808 -3.238,-31.099 -11.335,19.971 -23.425,39.817 -32.447,60.964 -0.56,-9.203 -1.17,-18.385 -0.951,-27.609 -6.197,7.972 -11.732,16.207 -16.385,25.194 -7.185,13.879 -12.482,30.762 -23.552,42.095 1.127,-9.451 2.243,-19.171 1.431,-28.696 -11.393,17.426 -23.749,33.659 -27.549,54.611 -4.601,-10.154 -10.702,-19.417 -16.711,-28.773 q -10.819,-16.895 -21.974,-33.571 c -8.351,-12.611 -16.068,-26.01 -25.209,-38.054 -1.036,-0.762 -1.937,-1.411 -3.236,-1.575 -1.975,-0.248 -3.674,0.345 -5.171,1.642 -9.164,7.943 -11.419,33.837 -11.891,45.269 -4.575,-14.115 -5.485,-41.442 0.705,-55.06 2.03,-4.467 4.492,-6.528 9.028,-8.219 8.081,-0.098 22.645,-6.059 30.441,-9.122 59.778,-23.487 118.655,-70.881 153.116,-125.32 6.855,-10.829 12.776,-22.572 17.895,-34.304 -4.123,-12.427 -9.702,-24.603 -15.316,-36.415 -2.189,-4.605 -5.655,-9.867 -7.121,-14.654 z"
     id="path46" />
  <defs
     id="defs47">
    <linearGradient
       id="gradient_1"
       gradientUnits="userSpaceOnUse"
       x1="447.30048"
       y1="630.23041"
       x2="597.60217"
       y2="276.03802"
       gradientTransform="translate(-40.013174,-39.568462)">
      <stop
         offset="0"
         stop-color="#694A47"
         id="stop46" />
      <stop
         offset="1"
         stop-color="#988073"
         id="stop47" />
    </linearGradient>
  </defs>
  <path
     fill="url(#gradient_1)"
     d="m 343.96983,252.59754 c 0.671,-0.674 1.349,-1.325 2.059,-1.958 19.083,-17.03 38.065,-19.119 62.658,-18.023 10.826,0.483 21.471,1.427 32.08,3.742 7.641,1.667 15.076,5.112 22.708,6.352 4.408,0.717 9.255,0.472 13.705,0.304 8.538,-0.322 16.891,-4.31 25.208,-6.265 16.633,-3.909 35.278,-4.914 52.333,-3.952 16.552,0.935 36.99,5.937 48.484,18.804 -2.009,1.896 -4.035,3.762 -5.886,5.816 -3.501,5.26 -6.023,11.162 -8.624,16.904 3.37,-0.65 6.068,-3.209 8.605,-5.368 3.597,-4.134 7.494,-8.144 9.7,-13.232 20.318,22.179 26.534,53.051 32.054,81.658 1.434,7.434 3.955,16.098 3.565,23.663 -0.867,16.844 -9.093,36.738 -3.058,53.096 2.744,7.439 10.839,22.246 11.785,29.113 11.263,30.628 9.623,66.798 -4.122,96.363 q -0.829,1.78 -1.686,3.546 c -3.632,-1.011 -7.26,-2.087 -10.936,-2.924 -5.432,-0.679 -11.147,-1.011 -16.5,-2.064 -9.288,-0.71 -19.014,-0.374 -28.296,0.353 3.071,-4.999 4.886,-10.632 7.268,-15.972 3.141,-0.531 6.668,-1.901 9.696,-2.956 14.098,-4.912 27.478,-12.155 37.674,-23.271 -14.718,8.803 -29.831,13.935 -46.138,18.848 q -4.76,1.309 -9.539,2.546 c -10.065,3.204 -20.618,5.57 -30.821,8.341 -12.97,-6.918 -23.894,-9.035 -38.601,-8.177 2.741,-11.522 0.978,-20.208 -2.484,-31.29 l -1.218,0.394 -2.637,-0.071 c -19.308,3.472 -24.804,19.235 -49.146,13.884 -13.516,-2.972 -26.961,-12.418 -34.374,-24.087 l -1.313,-1.073 -1.461,3.307 c -4.645,10.605 -3.612,20.675 -0.222,31.506 -16.963,0.101 -31.643,3.81 -44.231,15.863 -19.429,-8.953 -36.163,-13.566 -57.471,-14.996 -10.591,-0.148 -18.237,0.89 -28.006,4.97 q 3.615,-0.816 7.287,-1.32 3.671,-0.504 7.373,-0.694 3.701,-0.189 7.405,-0.062 3.704,0.127 7.383,0.57 c 2.834,6.176 6.361,16.123 10.366,21.362 0.796,0.228 1.478,0.386 2.306,0.499 -4.946,0.911 -10.203,1.121 -15.217,1.936 -9.515,1.548 -18.917,3.955 -28.189,6.566 -8.444,-20.951 -14.161,-43.363 -12.896,-66.117 0.866,-15.566 4.688,-31.221 16.677,-41.938 3.874,-4.807 5.115,-13.177 6.086,-19.097 0.703,-12.523 -2.248,-25.315 -3.475,-37.75 -3.616,-36.673 3.796,-70.348 22.248,-102.242 q 4.393,-6.854 8.981,-13.579 c 2.438,-3.181 5.204,-6.113 7.891,-9.085 l 3.367,6.935 c 3.548,5.87 7.11,12.879 11.859,17.856 0.891,1.403 1.778,2.786 2.768,4.121 2.715,3.366 5.332,6.981 8.669,9.756 q -1.302,-3.441 -2.769,-6.814 l 0.703,-0.806 c -0.103,-0.081 -0.206,-0.16 -0.307,-0.243 l -0.504,-0.414 c -1.747,-1.417 -3.026,-2.854 -4.388,-4.646 l -1.051,-1.555 c -0.864,-0.561 -1.545,-1.134 -2.276,-1.86 0.155,-1.173 0.055,-0.734 0.357,-1.833 0.068,-0.25 0.142,-0.498 0.213,-0.747 -1.104,-6.069 -9.273,-17.746 -13.679,-22.493 z"
     id="path47"
     style="fill:url(#gradient_1)" />
  <path
     fill="#7b4540"
     d="m 588.69483,274.32154 c 3.37,-0.65 6.068,-3.209 8.605,-5.368 -2.089,5.589 -9.537,14.011 -14.561,17.259 l -1.281,0.031 1.932,-2.599 c 1.026,-3.216 3.466,-6.499 5.305,-9.323 z"
     id="path48" />
  <path
     fill="#340f19"
     d="m 619.99283,282.70754 0.591,0.234 0.196,0.922 c -1.747,5.946 -6.693,13.099 -11.661,16.797 -0.395,-0.252 -0.616,-0.611 -0.904,-0.977 0.307,-5.396 8.25,-13.114 11.778,-16.976 z"
     id="path49" />
  <path
     fill="#340f19"
     d="m 334.35283,266.97354 c 2.848,4.906 5.401,10.113 9.466,14.146 1.06,1.693 2.121,3.31 3.358,4.879 1.514,3.59 4.343,6.637 5.944,10.276 l -0.408,0.748 -0.916,0.265 c -5.857,-4.723 -15.78,-23.261 -17.444,-30.314 z"
     id="path50" />
  <path
     fill="#340f19"
     d="m 324.13583,278.00454 c 5.414,5.138 14.181,16.981 14.248,24.873 0.001,0.149 -0.022,0.296 -0.033,0.445 -4.596,-4.719 -8.595,-10.655 -10.836,-16.878 -1.122,-3.118 -1.414,-5.624 -3.379,-8.44 z"
     id="path51" />
  <path
     fill="#a5958b"
     d="m 344.37483,262.27554 c 3.548,5.87 7.11,12.879 11.859,17.856 0.891,1.403 1.778,2.786 2.768,4.121 -3.009,0.615 -6.243,1.324 -9.29,0.648 2.155,-0.554 5.853,-0.049 7.469,-1.219 -0.681,-2.016 -3.338,-5.608 -4.818,-7.074 -1.165,-1.154 -1.645,-3.507 -3.009,-4.227 l -0.368,0.545 c -1.463,2.144 -3.176,3.784 -4.226,6.217 0.126,0.313 0.267,0.619 0.379,0.937 0.344,0.983 0.423,2.339 0.878,3.238 0.626,1.238 1.677,0.731 1.405,2.44 l -0.245,0.241 c -1.237,-1.569 -2.298,-3.186 -3.358,-4.879 -0.027,-0.754 -0.174,-1.452 -0.33,-2.192 -1.142,-5.417 -0.564,-11.334 0.886,-16.652 z"
     id="path52" />
  <path
     fill="#7b4540"
     d="m 333.11683,264.42554 c 2.438,-3.181 5.204,-6.113 7.891,-9.085 l 3.367,6.935 c -1.45,5.318 -2.028,11.235 -0.886,16.652 0.156,0.74 0.303,1.438 0.33,2.192 -4.065,-4.033 -6.618,-9.24 -9.466,-14.146 -0.077,-1.119 -0.586,-1.669 -1.236,-2.548 z"
     id="path53" />
  <path
     fill="#340f19"
     d="m 613.37583,266.75754 0.884,0.235 c 0.578,0.857 0.71,1.076 0.614,2.163 -0.507,5.761 -16.537,25.342 -21.22,29.397 -0.391,0.133 -0.098,0.065 -0.889,-0.157 0.05,-0.713 0.031,-0.655 0.181,-1.496 1.644,-9.243 12.84,-24.68 20.43,-30.142 z"
     id="path54" />
  <path
     fill="#340f19"
     d="m 564.14083,480.20654 c 3.351,0.12 6.72,0.334 10.071,0.12 5.387,0.49 10.914,0.77 16.16,2.151 3.851,9.288 5.237,19.083 6.794,28.949 -2.887,-3.155 -5.279,-7.189 -7.804,-10.673 -8.069,-11.136 -13.343,-13.835 -25.221,-20.547 z"
     id="path55" />
  <path
     fill="#340f19"
     d="m 529.84183,445.76954 c 3.278,3.279 5.527,7.507 9.097,10.659 10,8.828 26.208,11.247 39.024,10.552 17.68,-0.959 32.002,-7.657 43.785,-20.743 -0.989,2.237 -2.181,4.343 -3.374,6.474 -1.53,2.484 -3.457,4.933 -5.467,7.045 -9.505,9.992 -23.878,14.843 -37.454,15.095 -13.293,0.246 -27.645,-3.335 -37.348,-12.86 -4.437,-4.356 -8.204,-9.819 -8.263,-16.222 z"
     id="path56" />
  <path
     fill="#a5958b"
     d="m 574.21183,480.32654 c 5.355,-1.002 10.882,0.386 16.182,1.274 1.408,1.427 1.187,2.779 2.103,4.468 4.313,7.954 3.147,18.938 6.202,27.457 4.245,1.028 24.838,-7.446 29.699,-9.691 4.959,-2.29 9.696,-5.209 14.819,-7.105 0.837,-0.31 2.115,-4.927 2.848,-6.135 l 0.845,-0.089 0.568,0.944 c 0.148,6.906 -1.387,15.15 -3.106,21.854 -0.26,1.014 -0.917,1.857 -1.154,2.839 -0.673,2.78 -0.888,5.281 -1.863,8.073 -1.717,4.92 -4.106,9.68 -5.516,14.683 l 0.561,0.049 -0.401,0.32 c 2.51,1.436 6.464,2.519 9.354,2.363 1.979,-2.46 3.054,-6.811 4.174,-9.804 7.485,-19.995 10.477,-41.929 7.328,-63.139 -0.927,-6.245 -5.611,-20.025 -5.543,-24.521 0.005,-0.305 0.022,-0.61 0.034,-0.915 11.263,30.628 9.623,66.798 -4.122,96.363 q -0.829,1.78 -1.686,3.546 c -3.632,-1.011 -7.26,-2.087 -10.936,-2.924 -5.432,-0.679 -11.147,-1.011 -16.5,-2.064 -9.288,-0.71 -19.014,-0.374 -28.296,0.353 3.071,-4.999 4.886,-10.632 7.268,-15.972 3.141,-0.531 6.668,-1.901 9.696,-2.956 14.098,-4.912 27.478,-12.155 37.674,-23.271 -14.718,8.803 -29.831,13.935 -46.138,18.848 l -1.14,-3.748 c -1.557,-9.866 -2.943,-19.661 -6.794,-28.949 -5.246,-1.381 -10.773,-1.661 -16.16,-2.151 z"
     id="path57" />
  <path
     fill="#7b4540"
     d="m 618.10183,538.17254 c 5.104,-1.766 20.01,-27.301 22.734,-32.921 2.528,-5.215 4.248,-10.689 6.538,-15.984 -1.422,12.852 -3.614,25.147 -7.605,37.473 -1.461,4.51 -4.086,8.927 -5.167,13.496 -5.432,-0.679 -11.147,-1.011 -16.5,-2.064 z"
     id="path58" />
  <path
     fill="#340f19"
     d="m 577.18983,308.45654 c 17.381,5.725 37.546,21.333 45.779,37.762 q 1.757,3.529 3.054,7.252 1.298,3.723 2.116,7.58 c -13.889,-7.332 -32.706,-18.178 -48.586,-18.197 -4.389,-0.005 -8.703,1.053 -12.877,2.326 -14.18,4.327 -32.991,12.929 -44.306,22.524 -2.365,2.007 -7.89,7.934 -10.319,8.602 l -0.419,-0.251 c -0.789,-5.898 -0.826,-11.798 0.727,-17.584 q 0.425,-1.642 1.04,-3.223 0.616,-1.58 1.414,-3.077 0.798,-1.497 1.768,-2.889 0.969,-1.391 2.096,-2.659 c 9.109,-10.255 38.024,-27.013 50.857,-34.455 z"
     id="path59" />
  <path
     fill="#340f19"
     d="m 315.83383,373.26754 c 3.496,-21.912 12.955,-40.194 31.071,-53.432 2.481,-1.813 16.979,-11.177 19.082,-11.35 0.678,-0.056 1.345,0.207 2.018,0.31 2.855,3.266 9.235,6.1 13.037,8.362 11.395,6.776 39.514,22.272 46.207,32.04 5.018,7.323 6.073,16.215 5.534,24.837 l -0.532,2.075 -0.773,0.444 c -1.942,-1.071 -3.621,-3.821 -5.143,-5.47 -4.063,-4.404 -9.527,-8.533 -14.694,-11.572 -9.914,-5.831 -35.225,-16.087 -46.732,-16.385 -15.759,-0.408 -37.949,19.603 -49.075,30.141 z"
     id="path60" />
  <path
     fill="#340f19"
     d="m 520.45783,420.14854 c -0.357,-15.497 6.74,-31.253 17.416,-42.418 8.655,-9.051 20.553,-15.436 33.255,-15.571 11.905,-0.127 20.715,4.142 29.09,12.518 7.639,7.641 11.634,16.342 11.509,27.194 -0.173,15.123 -4.04,28.553 -15.041,39.304 -8.467,8.274 -19.749,12.501 -31.555,12.307 -10.828,-0.178 -23.095,-4.028 -30.726,-12.017 -4.575,-4.789 -7.756,-11.309 -7.593,-18.024 0.039,-1.595 0.179,-3.116 0.553,-4.665 l -0.224,-1.483 c -1.258,1.152 -2.206,2.198 -3.944,2.544 l -0.784,-0.561 c -0.551,-2.804 0.722,-5.693 1.658,-8.305 l -0.839,-0.644 c -0.823,3.299 -1.551,6.642 -2.775,9.821 z"
     id="path61" />
  <path
     fill="#f3e3ce"
     d="m 563.88883,391.95854 c 2.187,-0.021 4.484,0.156 6.142,1.754 1.002,0.966 1.584,2.213 1.505,3.63 -0.137,2.467 -1.661,4.085 -3.381,5.672 -0.687,-0.01 -1.494,0.02 -2.179,-0.109 -2.072,-0.392 -3.84,-1.657 -4.95,-3.45 -0.803,-1.298 -0.954,-2.778 -0.479,-4.231 0.545,-1.672 1.927,-2.399 3.342,-3.266 z"
     id="path62" />
  <path
     fill="#a5958b"
     d="m 523.23283,410.32754 c 4.767,-14.912 16.048,-29.107 30.094,-36.3 9.492,-4.862 20.076,-6.047 30.271,-2.701 q 0.879,0.295 1.742,0.633 0.864,0.338 1.709,0.718 0.846,0.38 1.672,0.801 0.826,0.421 1.631,0.882 0.804,0.461 1.585,0.961 0.781,0.5 1.537,1.037 0.755,0.538 1.483,1.112 0.728,0.574 1.427,1.183 0.699,0.609 1.368,1.252 0.668,0.642 1.304,1.317 0.636,0.674 1.239,1.379 0.602,0.705 1.169,1.439 0.567,0.734 1.097,1.494 0.53,0.761 1.022,1.546 0.493,0.786 0.946,1.595 0.453,0.809 0.866,1.639 c 0.72,1.441 1.278,2.974 1.835,4.484 -8.031,-9.375 -15.945,-16.87 -28.912,-17.865 -15.17,-1.164 -29.618,6.59 -40.741,16.293 -5.35,4.667 -10.969,11.016 -13.505,17.745 z"
     id="path63" />
  <path
     fill="#a5958b"
     d="m 589.99783,410.98854 c 0.362,-6.807 -0.545,-11.069 -3.283,-17.264 7.746,4.276 14.075,10.73 20.52,16.715 -1.906,12.298 -6.856,22.172 -17.05,29.708 -9.263,6.846 -20.518,9.075 -31.81,7.259 -10.03,-1.612 -18.328,-6.385 -24.291,-14.665 -2.978,-4.134 -5.464,-9.019 -6.718,-13.965 l -0.224,-1.483 c 1.636,-2.434 4.398,-4.706 6.481,-6.798 2.678,-2.569 5.384,-5.05 8.221,-7.441 0.019,6.118 0.549,10.818 3.181,16.468 q 0.624,1.061 1.294,2.093 c 3.482,5.311 8.7,9.355 15.021,10.548 q 0.587,0.105 1.178,0.181 0.591,0.076 1.185,0.124 0.594,0.047 1.189,0.066 0.596,0.019 1.192,0.009 0.596,-0.01 1.19,-0.049 0.595,-0.039 1.187,-0.107 0.592,-0.067 1.18,-0.163 0.588,-0.097 1.171,-0.221 0.583,-0.125 1.159,-0.277 0.576,-0.153 1.144,-0.333 0.568,-0.18 1.126,-0.388 0.559,-0.207 1.107,-0.442 0.548,-0.234 1.084,-0.495 0.536,-0.26 1.058,-0.546 0.523,-0.286 1.031,-0.598 0.508,-0.311 1.001,-0.646 c 6.039,-4.194 9.095,-10.263 10.476,-17.29 z"
     id="path64" />
  <path
     fill="#f3e3ce"
     d="m 533.62283,410.49554 c 2.678,-2.569 5.384,-5.05 8.221,-7.441 0.019,6.118 0.549,10.818 3.181,16.468 q 0.624,1.061 1.294,2.093 c 3.482,5.311 8.7,9.355 15.021,10.548 q 0.587,0.105 1.178,0.181 0.591,0.076 1.185,0.124 0.594,0.047 1.189,0.066 0.596,0.019 1.192,0.009 0.596,-0.01 1.19,-0.049 0.595,-0.039 1.187,-0.107 0.592,-0.067 1.18,-0.163 0.588,-0.097 1.171,-0.221 0.583,-0.125 1.159,-0.277 0.576,-0.153 1.144,-0.333 0.568,-0.18 1.126,-0.388 0.559,-0.207 1.107,-0.442 0.548,-0.234 1.084,-0.495 0.536,-0.26 1.058,-0.546 0.523,-0.286 1.031,-0.598 0.508,-0.311 1.001,-0.646 c 6.039,-4.194 9.095,-10.263 10.476,-17.29 0.601,-1.568 0.574,-1.885 2.032,-2.833 1.195,0.318 1.615,0.797 2.236,1.878 2.539,4.411 1.037,11.349 -0.527,15.949 -2.02,5.942 -7.221,10.479 -12.794,13.061 -8.405,3.894 -19.085,4.435 -27.797,1.239 -6.721,-2.465 -12.276,-7.077 -15.242,-13.684 -1.244,-2.77 -1.585,-5.827 -2.237,-8.772 -0.952,-2.728 0.432,-5.027 -2.046,-7.331 z"
     id="path65" />
  <path
     fill="#340f19"
     d="m 330.33883,410.08154 c 0.624,-10.653 2.765,-22.287 8.964,-31.213 q 0.557,-0.786 1.152,-1.544 0.595,-0.759 1.227,-1.486 0.631,-0.728 1.298,-1.424 0.667,-0.696 1.367,-1.358 0.7,-0.663 1.432,-1.29 0.732,-0.627 1.493,-1.217 0.762,-0.59 1.552,-1.143 0.79,-0.552 1.606,-1.064 0.816,-0.513 1.657,-0.985 0.84,-0.471 1.702,-0.901 0.863,-0.43 1.746,-0.817 0.882,-0.387 1.783,-0.73 0.901,-0.343 1.817,-0.642 0.916,-0.298 1.846,-0.551 0.93,-0.253 1.871,-0.46 0.942,-0.207 1.892,-0.367 c 11.879,-2.083 23.833,1.523 33.583,8.377 13.819,9.714 20.35,23.143 23.159,39.387 -1.075,-2.582 -2.268,-5.097 -3.469,-7.622 l -1.028,0.887 c 1.81,3.149 5.951,9.061 5.347,12.816 l -1.832,-0.962 c -0.218,4.119 1.695,5.044 -0.735,9.094 l -1.378,1.623 c 0.418,4.962 -3.15,10.618 -6.277,14.298 -7.81,9.191 -20.995,14.808 -32.882,15.662 -11.588,0.832 -22.451,-2.998 -31.125,-10.707 -5.276,-4.688 -8.577,-10.158 -10.662,-16.889 -0.675,-2.577 -0.872,-5.362 -1.221,-8.004 l -2.663,-0.988 c -0.024,-1.995 -0.309,-4.532 0.353,-6.396 0.266,-0.747 0.232,-0.539 1.007,-0.899 -0.017,-0.042 -0.025,-0.088 -0.05,-0.126 -0.934,-1.39 -2.984,-1.776 -4.532,-2.359 z"
     id="path66" />
  <path
     fill="#7b4540"
     d="m 333.56083,419.86154 c -0.024,-1.995 -0.309,-4.532 0.353,-6.396 0.266,-0.747 0.232,-0.539 1.007,-0.899 0.601,2.744 0.95,5.499 1.303,8.283 z"
     id="path67" />
  <path
     fill="#a5958b"
     d="m 339.54183,412.26254 c 6.264,-6.771 8.475,-11.145 16.976,-15.883 -1.537,3.161 -2.572,6.245 -3.386,9.65 -3.566,1.153 -6.066,2.687 -8.897,5.153 -1.592,0.29 -3.134,0.647 -4.693,1.08 z"
     id="path68" />
  <path
     fill="#f3e3ce"
     d="m 369.84483,393.27554 c 0.194,0 0.388,-10e-4 0.582,0.001 1.943,0.02 3.25,0.074 4.636,1.596 0.959,1.052 1.418,2.359 1.264,3.779 -0.238,2.184 -1.363,3.199 -3.021,4.416 -2.256,0.073 -4.183,0.287 -5.842,-1.579 -0.933,-1.049 -1.13,-2.124 -0.989,-3.484 0.23,-2.208 1.77,-3.435 3.37,-4.729 z"
     id="path69" />
  <path
     fill="#a5958b"
     d="m 394.94083,395.26654 c 4.542,3.244 8.793,6.642 12.731,10.606 2.622,2.413 4.678,6.338 7.39,8.272 0.225,-0.066 0.449,-0.135 0.675,-0.199 0.683,-0.194 1.326,-0.33 2.024,-0.441 2.4,2.637 0.948,7.975 2.008,11.362 l -1.378,1.623 -2.969,3.697 c -2.022,-2.643 -4.256,-5.221 -5.521,-8.328 0.098,-3.653 -0.902,-7.082 -1.762,-10.602 -2.35,-0.821 -4.841,-1.36 -7.229,-2.098 -1.191,-5.344 -3.041,-9.266 -5.969,-13.892 z"
     id="path70" />
  <path
     fill="#a5958b"
     d="m 334.23183,399.44454 c 3.926,-11.277 10.071,-20.199 20.977,-25.756 9.208,-4.692 19.503,-5.247 29.272,-2.004 14.984,4.975 26.604,17.527 33.536,31.347 l -1.028,0.887 c -4.985,-8.049 -11.416,-15.284 -19.313,-20.572 -9.724,-6.509 -21.293,-9.636 -32.897,-7.22 -13.276,2.763 -23.371,12.301 -30.547,23.318 z"
     id="path71" />
  <path
     fill="#f3e3ce"
     d="m 344.23483,411.18254 c 2.831,-2.466 5.331,-4 8.897,-5.153 l -0.271,7.066 c 1.309,5.421 2.569,9.605 6.704,13.708 q 0.421,0.422 0.863,0.823 0.442,0.401 0.903,0.779 0.461,0.379 0.94,0.734 0.479,0.355 0.976,0.686 0.496,0.33 1.008,0.636 0.512,0.306 1.039,0.586 0.527,0.28 1.067,0.533 0.54,0.254 1.091,0.48 0.552,0.226 1.115,0.425 0.562,0.198 1.134,0.369 0.571,0.17 1.151,0.312 0.579,0.142 1.165,0.254 0.585,0.113 1.176,0.197 0.591,0.083 1.185,0.138 0.594,0.054 1.19,0.078 0.596,0.025 1.192,0.02 c 6.713,-0.123 13.596,-3.076 18.25,-7.926 4.537,-4.729 6.157,-10.367 5.9,-16.769 2.388,0.738 4.879,1.277 7.229,2.098 0.86,3.52 1.86,6.949 1.762,10.602 1.265,3.107 3.499,5.685 5.521,8.328 -7.969,9.343 -19.249,15.903 -31.467,17.628 -10.776,1.521 -22.197,-1.232 -30.862,-7.888 -7.595,-5.834 -13.081,-14.838 -14.038,-24.454 -0.124,-1.248 -0.359,-2.214 0.487,-3.21 1.559,-0.433 3.101,-0.79 4.693,-1.08 z"
     id="path72" />
  <path
     fill="#a5958b"
     d="m 343.96983,252.59754 c 0.671,-0.674 1.349,-1.325 2.059,-1.958 19.083,-17.03 38.065,-19.119 62.658,-18.023 10.826,0.483 21.471,1.427 32.08,3.742 7.641,1.667 15.076,5.112 22.708,6.352 4.408,0.717 9.255,0.472 13.705,0.304 8.538,-0.322 16.891,-4.31 25.208,-6.265 16.633,-3.909 35.278,-4.914 52.333,-3.952 16.552,0.935 36.99,5.937 48.484,18.804 -2.009,1.896 -4.035,3.762 -5.886,5.816 -3.501,5.26 -6.023,11.162 -8.624,16.904 -1.839,2.824 -4.279,6.107 -5.305,9.323 l -1.932,2.599 -0.451,0.536 c -2.958,3.471 -6.17,6.729 -8.975,10.355 -1.327,1.715 -11.716,17.413 -11.836,18.52 l 0.393,0.57 c 3.064,-1.017 5.359,-3.566 8.471,-4.404 l 0.474,0.347 c -12.833,7.442 -41.748,24.2 -50.857,34.455 q -1.127,1.268 -2.096,2.659 -0.97,1.392 -1.768,2.889 -0.798,1.497 -1.414,3.077 -0.615,1.581 -1.04,3.223 c -1.553,5.786 -1.516,11.686 -0.727,17.584 -8.354,-6.888 -14.762,-15.794 -24.833,-20.482 -16.492,-7.678 -33.034,-0.3 -45.235,11.444 -2.382,2.293 -5.229,6.785 -8.25,7.87 l -0.531,-0.852 c 0.539,-8.622 -0.516,-17.514 -5.534,-24.837 -6.693,-9.768 -34.812,-25.264 -46.207,-32.04 -3.802,-2.262 -10.182,-5.096 -13.037,-8.362 3.263,0.128 35.793,21.437 40.824,24.588 2.448,-1.018 6.83,1.934 9.58,2.55 3.82,0.854 7.527,0.35 11.346,0.818 2.609,0.319 5.113,1.262 7.693,1.732 1.348,0.246 2.895,0.642 4.223,0.126 3.037,-1.179 5.988,-1.179 9.039,-2.227 1.078,-2.007 0.919,-5.687 1.177,-8.061 0.416,-3.83 1.01,-7.812 0.251,-11.631 -2.405,-12.107 -16.511,-22.295 -15.233,-35.389 0.526,-5.393 6.733,-8.152 10.622,-11.318 0.069,-7.899 2.904,-4.642 6.468,-9.34 -0.518,-0.07 -1.04,-0.127 -1.552,-0.236 -3.616,-0.772 -4.061,-4.731 -5.866,-7.406 -1.028,-1.523 -2.635,-2.141 -4.337,-2.614 -5.237,-1.456 -10.999,-1.19 -16.324,-2.391 -5.958,-1.343 -11.585,-4.554 -17.554,-5.626 -6.581,-1.18 -23.85,-4.661 -29.606,-2.128 -0.837,0.369 -0.504,0.317 -1.264,0.472 -0.155,0.032 -0.314,0.044 -0.468,0.077 -7.544,1.602 -8.108,0.844 -14.178,6.167 -2.12,1.859 -5.453,4.843 -5.649,7.757 9.658,13.313 21.977,19.676 38.085,22.27 3.966,0.638 9.404,0.559 13.029,1.946 l 0.339,0.806 c -0.3,0.324 -0.536,0.721 -0.9,0.97 -2.008,1.378 -28.212,3.465 -32.162,3.618 7.864,6.676 18.141,8.509 28.067,9.526 -9.26,1.547 -24.023,5.137 -32.298,-0.901 -2.37,-1.73 -3.492,-4.722 -5.752,-6.562 -0.103,-0.081 -0.206,-0.16 -0.307,-0.243 l -0.504,-0.414 c -1.747,-1.417 -3.026,-2.854 -4.388,-4.646 l -1.051,-1.555 c -0.864,-0.561 -1.545,-1.134 -2.276,-1.86 0.155,-1.173 0.055,-0.734 0.357,-1.833 0.068,-0.25 0.142,-0.498 0.213,-0.747 -1.104,-6.069 -9.273,-17.746 -13.679,-22.493 z"
     id="path73" />
  <path
     fill="#f3e3ce"
     d="m 547.64083,280.10554 c 10.637,-3.005 21.387,-4.342 30.959,-10.354 4.849,-3.047 13.971,-13.28 17.167,-14.075 1.272,0.487 1.017,0.577 1.552,1.741 -3.501,5.26 -6.023,11.162 -8.624,16.904 -1.839,2.824 -4.279,6.107 -5.305,9.323 -8.917,1.2 -25.994,-2.647 -35.749,-3.539 z"
     id="path74" />
  <path
     fill="#f3e3ce"
     d="m 358.05283,256.05954 c 7.42,11.699 17.732,17.584 31.128,20.519 6.569,1.439 13.433,1.745 19.922,3.446 -4.904,0.53 -31.887,2.802 -33.755,3.944 l 0.24,0.357 c 7.864,6.676 18.141,8.509 28.067,9.526 -9.26,1.547 -24.023,5.137 -32.298,-0.901 -2.37,-1.73 -3.492,-4.722 -5.752,-6.562 -0.103,-0.081 -0.206,-0.16 -0.307,-0.243 l -0.504,-0.414 c -1.747,-1.417 -3.026,-2.854 -4.388,-4.646 l -1.051,-1.555 c -2.007,-7.349 -1.27,-15.913 -1.302,-23.471 z"
     id="path75" />
  <path
     fill="#a5958b"
     d="m 419.73483,451.41254 c 0.112,-0.109 0.226,-0.215 0.336,-0.326 9.785,-9.838 20.464,-36.964 25.02,-50.648 1.977,-5.938 3.125,-13.741 6.959,-18.751 5.516,-7.205 12.064,-9.11 20.744,-9.242 5.63,-0.086 10.58,0.383 14.881,4.442 8.906,8.405 12.046,22.611 16.716,33.584 7.026,16.51 17.93,42.713 28.737,56.105 21.351,26.46 41.299,9.54 55.639,51.144 -10.065,3.204 -20.618,5.57 -30.821,8.341 -12.97,-6.918 -23.894,-9.035 -38.601,-8.177 2.741,-11.522 0.978,-20.208 -2.484,-31.29 l -1.218,0.394 -2.637,-0.071 c -19.308,3.472 -24.804,19.235 -49.146,13.884 -13.516,-2.972 -26.961,-12.418 -34.374,-24.087 l -1.313,-1.073 -1.461,3.307 c -4.645,10.605 -3.612,20.675 -0.222,31.506 -16.963,0.101 -31.643,3.81 -44.231,15.863 -19.429,-8.953 -36.163,-13.566 -57.471,-14.996 -1.849,-6.206 -5.567,-11.809 -10.987,-15.374 l -5.173,2.146 c -5.755,-12.071 -6.872,-26.738 -4.681,-39.827 2.679,-15.997 10.53,-31.373 23.871,-40.959 l 5.743,2.554 2.663,0.988 c 0.349,2.642 0.546,5.427 1.221,8.004 -0.783,6.832 0.759,11.946 5.024,17.394 6.763,8.637 15.673,14.541 26.696,15.825 12.537,1.461 27.452,-2.387 37.415,-10.254 3.978,-3.141 8.038,-8.081 13.096,-9.305 l 0.898,-0.788 c 0.991,2.291 -0.345,7.173 -0.839,9.687 z"
     id="path76" />
  <path
     fill="#7b4540"
     d="m 356.43683,488.98154 c -0.196,7.563 -2.734,14.946 -2.962,22.359 -0.537,0.357 -0.18,0.182 -1.151,0.31 -2.608,-6.399 1.856,-16.569 4.113,-22.669 z"
     id="path77" />
  <path
     fill="#340f19"
     d="m 329.56583,437.95754 c 6.789,12.852 16.078,22.99 30.305,27.408 14.201,4.41 29.007,2.156 41.937,-4.844 7.487,-4.053 14.6,-9.965 17.868,-18.008 l 0.898,-0.788 c 0.991,2.291 -0.345,7.173 -0.839,9.687 -3.19,5.91 -7.216,11.22 -12.301,15.632 -10.341,5.645 -20.512,8.896 -32.409,8.79 -13.116,-0.117 -25.453,-3.21 -34.801,-12.916 -5.969,-6.197 -10.845,-16.18 -10.658,-24.961 z"
     id="path78" />
  <path
     fill="#7b4540"
     d="m 428.17283,475.64154 c -0.648,-1.589 -1.154,-2.757 -1.049,-4.492 2.182,-4.209 5.106,-8.056 7.51,-12.152 5.576,-9.5 11.032,-22.332 19.008,-29.992 2.758,-2.649 6.872,-4.878 10.477,-6.097 6.443,-2.18 13.908,-1.968 19.984,1.199 12.91,6.729 27.077,41.704 31.274,56.139 0.603,2.072 1.148,4.215 1.484,6.348 l -1.218,0.394 -2.637,-0.071 c -2.777,-10.913 -18.453,-44.486 -25.902,-52.555 -3.865,-4.186 -9.094,-6.778 -14.846,-6.766 -20.292,0.042 -30.091,36.362 -42.387,48.744 -0.126,0.127 -0.256,0.249 -0.385,0.374 z"
     id="path79" />
  <path
     fill="#7b4540"
     d="m 325.58683,429.16854 3.979,8.789 c -0.187,8.781 4.689,18.764 10.658,24.961 9.348,9.706 21.685,12.799 34.801,12.916 11.897,0.106 22.068,-3.145 32.409,-8.79 -4.941,7.659 -17.652,18.296 -25.996,22.032 -5.291,8.901 -12.572,17.367 -19.323,25.236 -1.437,-2.258 -3.05,-4.507 -3.639,-7.16 -1.628,1.468 -3.227,2.892 -5.001,4.188 0.228,-7.413 2.766,-14.796 2.962,-22.359 l 0.107,-0.838 c -11.81,-3.096 -20.515,-8.619 -26.847,-19.3 -7.779,-13.122 -7.813,-25.284 -4.11,-39.675 z"
     id="path80" />
  <path
     fill="#340f19"
     d="m 356.54383,488.14354 c 0.243,-1.794 0.369,-4.769 2.009,-5.923 2.252,-1.585 19.184,-0.727 23.155,-0.761 -3.633,4.275 -7.694,6.002 -12.663,8.307 -2.949,6.495 -6.092,11.834 -10.569,17.386 -1.628,1.468 -3.227,2.892 -5.001,4.188 0.228,-7.413 2.766,-14.796 2.962,-22.359 z"
     id="path81" />
  <path
     fill="#a5958b"
     d="m 429.48583,476.71454 c 0.129,-0.125 0.259,-0.247 0.385,-0.374 12.296,-12.382 22.095,-48.702 42.387,-48.744 5.752,-0.012 10.981,2.58 14.846,6.766 7.449,8.069 23.125,41.642 25.902,52.555 -19.308,3.472 -24.804,19.235 -49.146,13.884 -13.516,-2.972 -26.961,-12.418 -34.374,-24.087 z"
     id="path82" />
  <path
     fill="#f3e3ce"
     d="m 469.07483,439.71254 c 1.143,0.581 2.21,1.192 3.158,2.067 6.84,6.314 18.188,33.482 18.493,42.973 0.088,2.745 -0.816,5.024 -2.781,6.966 -4.029,3.981 -10.029,4.845 -15.432,4.946 -2.567,-0.013 -5.025,-0.127 -7.532,-0.77 -6.3,-1.615 -11.056,-6.181 -14.26,-11.667 2.367,-7.007 5.309,-13.921 7.989,-20.817 3.091,-7.952 5.775,-16.464 10.365,-23.698 z"
     id="path83" />
  <path
     fill="#8a959b"
     d="m 132.33483,253.56054 c 11.662,-20.953 26.003,-40.217 41.729,-58.301 q 2.404,-2.774 4.858,-5.504 2.454,-2.73 4.957,-5.415 2.503,-2.684 5.055,-5.323 2.551,-2.639 5.151,-5.231 2.599,-2.591 5.245,-5.135 2.646,-2.545 5.338,-5.04 2.692,-2.496 5.429,-4.942 2.736,-2.446 5.517,-4.842 2.781,-2.396 5.605,-4.741 2.824,-2.344 5.691,-4.638 2.866,-2.293 5.774,-4.533 2.907,-2.241 5.855,-4.428 2.948,-2.187 5.935,-4.32 2.987,-2.134 6.013,-4.212 3.025,-2.079 6.088,-4.102 3.063,-2.023 6.162,-3.99 3.099,-1.967 6.233,-3.877 3.135,-1.91 6.304,-3.763 3.168,-1.853 6.37,-3.648 3.202,-1.795 6.436,-3.531 3.234,-1.737 6.499,-3.414 3.265,-1.677002 6.56,-3.295002 3.296,-1.617 6.619,-3.174 3.324,-1.558 6.676,-3.054 3.352,-1.497 6.73,-2.932 3.379,-1.435 6.783,-2.809 3.404,-1.373 6.832,-2.684 3.429,-1.312 6.881,-2.56 3.451,-1.249 6.925,-2.435 3.474,-1.185 6.969,-2.308 3.495,-1.122 7.01,-2.18 3.515,-1.059 7.048,-2.053 4.532,-1.254 9.092,-2.397 4.561,-1.143 9.148,-2.175 4.588,-1.031 9.199,-1.951 4.611,-0.92 9.243,-1.726 4.632,-0.807 9.282,-1.501 4.651,-0.694 9.317,-1.2741 4.666,-0.5803 9.344,-1.0467 4.679,-0.4663 9.368,-0.8185 4.688,-0.3522 9.384,-0.5901 4.696,-0.2378 9.396,-0.3612 4.7,-0.1233 9.402,-0.1321 4.702,-0.0087 9.403,0.0971 4.7,0.1058 9.397,0.3262 4.697,0.2203 9.387,0.555 4.69,0.3348 9.37,0.7837 4.68,0.4489 9.348,1.0118 4.668,0.5629 9.321,1.2389 4.653,0.677 9.288,1.466 4.635,0.79 9.25,1.692 4.614,0.903 9.205,1.917 4.592,1.015 9.157,2.141 4.565,1.126 9.101,2.363 4.536,1.237 9.041,2.584 4.504,1.348 8.975,2.804 4.47,1.457 8.904,3.022 4.434,1.565 8.828,3.238 4.394,1.672 8.747,3.452 4.352,1.779 8.659,3.664 4.308,1.885 8.568,3.874 4.261,1.989 8.471,4.082 4.211,2.092 8.369,4.286002 4.158,2.195 8.262,4.49 c 52.049,28.94 99.532,71.013 133.255,120.196 7.371,10.75 13.617,22.153 20.059,33.467 7.919,17.699 15.112,35.061 20.594,53.712 22.823,77.647 16.571,160.446 -12.125,235.608 -13.226,34.641 -31.309,66.186 -53.103,96.087 -5.486,7.527 -10.917,15.391 -17.372,22.131 -4.498,-1.987 -8.817,-4.533 -13.15,-6.861 1.579,-9.944 1.949,-19.794 2.051,-29.841 3.473,4.167 6.384,8.803 9.972,12.863 0.721,-21.194 0.003,-41.165 -7.935,-61.205 l 1.698,-2.49 c -0.8,-1.916 -2.225,-3.594 -3.055,-5.574 l 0.326,-0.619 c 4.158,0.938 8.555,6.987 11.44,10.027 -1.081,-2.63 -2.525,-5.475 -2.374,-8.362 -2.391,-6.684 -11.306,-15.591 -17.649,-18.629 -7.205,-5.562 -14.27,-11.931 -20.407,-18.653 8.135,3.762 16.855,6.034 25.699,7.351 -24.627,-12.849 -48.036,-31.544 -59.981,-57.234 25.926,15.267 54.845,23.614 84.947,18.818 -16.376,-4.207 -38.742,-14.287 -52.133,-24.907 18.465,7.25 33.264,9.819 53.032,9.737 -8.706,-3.175 -17.033,-6.807 -25.165,-11.25 -12.136,-8.793 -23.227,-19.205 -35.09,-28.435 l 0.676,-0.391 c 7.374,4.208 14.756,8.531 22.598,11.824 19.432,8.16 43.847,11.998 64.458,6.42 2.238,-0.606 4.4,-1.31 6.523,-2.249 -26.864,-1.656 -49.241,-14.345 -66.932,-34.389 -8.584,-9.725 -17.337,-22.195 -22.95,-33.969 8.201,-3.855 16.171,-7.877 23.479,-13.304 17.605,-13.073 30.318,-34.092 37.651,-54.51 11.005,-30.644 10.1,-67.993 -3.839,-97.466 -8.339,-17.633 -22.12,-35.552 -41.121,-42.264 -14.306,-5.054 -28.897,-0.902 -42.078,5.487 -11.408,5.529 -22.653,13.465 -31.16,22.913 -27.323,-48.001 -64.805,-78.627 -118.477,-93.36 -55.463,-15.225 -117.439,-9.101 -167.557,19.545 -32.139,18.37 -54.312,41.939 -73.046,73.661 -18.256,-14.655 -42.436,-33.841 -67.263,-31.28 -14.557,1.501 -25.435,11.688 -34.207,22.606 -20.129,25.054 -28.224,56.177 -24.675,87.941 3.654,32.699 17.461,66.593 43.736,87.469 8.409,6.682 17.842,11.169 27.509,15.671 -16.433,28.903 -48.213,55.346 -80.153,65.096 -2.463,0.576 -4.9,1.161 -7.318,1.912 4.668,0.19 9.551,0.81 14.205,0.744 q 2.072,0.17 4.149,0.26 2.078,0.09 4.157,0.1 2.079,0.011 4.157,-0.059 2.078,-0.07 4.152,-0.219 2.073,-0.149 4.14,-0.378 2.066,-0.228 4.123,-0.536 2.056,-0.308 4.099,-0.695 2.043,-0.386 4.069,-0.851 2.027,-0.465 4.034,-1.007 2.007,-0.542 3.992,-1.161 1.985,-0.619 3.945,-1.313 1.96,-0.695 3.891,-1.464 1.932,-0.769 3.832,-1.612 1.901,-0.843 3.768,-1.758 1.867,-0.915 3.697,-1.901 1.831,-0.986 3.622,-2.042 c -2.663,9.895 -27.785,27.506 -37.311,33.369 -3.563,2.044 -7.208,3.808 -10.928,5.546 4.413,-0.352 8.841,-0.886 13.173,-1.822 13.632,-2.211 27.148,-7.987 39.451,-14.031 1.264,-0.686 2.421,-1.323 3.822,-1.701 l -0.023,0.896 c -12.988,11.864 -25.577,20.879 -43.183,24.389 -3.592,0.57 -7.117,0.97 -10.747,1.188 q 6.462,2.024 13.18,2.871 1.783,0.247 3.576,0.411 1.793,0.165 3.591,0.247 1.798,0.083 3.599,0.082 1.8,0 3.598,-0.082 1.799,-0.083 3.591,-0.248 1.793,-0.165 3.576,-0.412 1.783,-0.248 3.553,-0.576 1.77,-0.329 3.523,-0.738 1.753,-0.409 3.486,-0.899 1.732,-0.489 3.441,-1.057 1.708,-0.568 3.388,-1.214 1.681,-0.646 3.33,-1.369 1.649,-0.722 3.263,-1.519 1.614,-0.797 3.19,-1.667 1.576,-0.871 3.11,-1.812 1.534,-0.942 3.024,-1.953 c 4.478,-2.98 8.431,-6.47 12.684,-9.731 l 0.948,0.159 c -3.022,5.221 -5.575,10.707 -8.67,15.882 q -1.728,2.871 -3.609,5.643 -1.881,2.773 -3.91,5.44 -2.028,2.666 -4.198,5.219 -2.171,2.553 -4.476,4.984 -2.305,2.432 -4.739,4.735 -2.433,2.302 -4.988,4.47 -2.555,2.168 -5.224,4.194 -2.668,2.026 -5.443,3.904 c -5.715,3.241 -10.904,5.22 -17.216,6.909 10.578,0.061 20.095,-1.116 30.081,-4.678 -8.593,10.234 -18.298,19.104 -27.545,28.698 -6.31,6.546 -12,13.619 -18.424,20.08 6.105,-2.474 12.461,-4.737 18.399,-7.573 -6.747,22.007 -12.187,43.451 -14.491,66.451 3.565,-7.267 9.923,-13.036 14.331,-19.892 0.096,-0.151 0.19,-0.303 0.285,-0.454 -0.402,11.185 -0.085,21.907 1.531,33.012 -2.423,1.228 -4.833,2.483 -7.31,3.599 -4.732,-4.288 -9.038,-9.201 -13.363,-13.897 q -4.751,-5.179 -9.285,-10.549 -4.534,-5.37 -8.842,-10.923 -4.308,-5.553 -8.383,-11.279 -4.076,-5.725 -7.912,-11.614 -3.835,-5.889 -7.425,-11.932 -3.589,-6.042 -6.927,-12.227 -3.337,-6.185 -6.416,-12.503 -3.079,-6.318 -5.895,-12.757 c -35.579004,-81.148 -38.728004,-170.028 -11.82,-254.156 2.948,-9.219 6.297,-18.575 10.168,-27.444 3.186,-7.301 6.996,-14.354 9.888,-21.778 z"
     id="path84" />
  <path
     fill="#340f19"
     d="m 744.78183,579.92854 c -0.8,-1.916 -2.225,-3.594 -3.055,-5.574 l 0.326,-0.619 c 4.158,0.938 8.555,6.987 11.44,10.027 -1.081,-2.63 -2.525,-5.475 -2.374,-8.362 3.117,5.271 5.845,10.511 7.979,16.258 -5.52,-3.395 -10.189,-6.694 -14.316,-11.73 z"
     id="path85" />
</svg>
