<?xml version="1.0" encoding="UTF-8" standalone="no"?>
<svg
   width="1024"
   height="1024"
   version="1.1"
   id="svg114"
   sodipodi:docname="agriculture.svg"
   inkscape:version="1.3.2 (091e20ef0f, 2023-11-25)"
   xmlns:inkscape="http://www.inkscape.org/namespaces/inkscape"
   xmlns:sodipodi="http://sodipodi.sourceforge.net/DTD/sodipodi-0.dtd"
   xmlns="http://www.w3.org/2000/svg"
   xmlns:svg="http://www.w3.org/2000/svg">
  <sodipodi:namedview
     id="namedview114"
     pagecolor="#ffffff"
     bordercolor="#000000"
     borderopacity="0.25"
     inkscape:showpageshadow="2"
     inkscape:pageopacity="0.0"
     inkscape:pagecheckerboard="0"
     inkscape:deskcolor="#d1d1d1"
     inkscape:zoom="0.53857401"
     inkscape:cx="421.48339"
     inkscape:cy="795.61952"
     inkscape:window-width="1920"
     inkscape:window-height="1011"
     inkscape:window-x="0"
     inkscape:window-y="0"
     inkscape:window-maximized="1"
     inkscape:current-layer="svg114" />
  <path
     fill="#F9FEFF"
     d="M602.071 123.864C603.934 124.14 605.486 124.487 606.761 125.999C607.696 127.107 607.989 128.321 607.862 129.741C607.676 131.812 606.18 133.048 604.633 134.201C604.107 134.165 603.579 134.143 603.055 134.085C601.529 133.916 600.103 133.293 599.211 131.976C598.424 130.814 598.128 129.701 598.394 128.303C598.833 126.003 600.255 125.068 602.071 123.864Z"
     id="path2" />
  <path
     fill="#F9FEFF"
     d="M755.604 649.501C757.748 649.384 759.851 649.296 761.562 650.845C762.668 651.847 763.106 652.712 763.206 654.204C763.345 656.287 761.974 657.787 760.674 659.204C760.111 659.342 760.15 659.348 759.475 659.427C757.637 659.643 755.96 659.313 754.555 658.016C753.504 657.046 753.027 655.8 753.011 654.393C752.987 652.137 754.107 650.984 755.604 649.501Z"
     id="path3" />
  <path
     fill="#F9FEFF"
     d="M756.903 562.044C757.086 562.05 757.27 562.048 757.454 562.062C759.39 562.212 761.221 562.71 762.485 564.294C763.507 565.575 763.725 566.882 763.43 568.465C763.016 570.681 761.335 571.839 759.558 572.959C757.496 572.662 755.757 572.315 754.365 570.631C753.297 569.338 752.969 567.937 753.263 566.275C753.634 564.179 755.216 563.08 756.903 562.044Z"
     id="path4" />
  <path
     fill="#F9FEFF"
     d="M278.464 764.465C279.472 764.374 280.478 764.256 281.483 764.47C282.862 764.764 284.126 765.659 284.897 766.835C285.678 768.026 285.891 769.393 285.598 770.779C285.14 772.935 283.911 773.958 282.151 775.134C280.103 775.014 278.321 774.924 276.736 773.456C275.559 772.368 275.141 771.134 275.22 769.557C275.331 767.346 276.93 765.841 278.464 764.465Z"
     id="path5" />
  <path
     fill="#F9FEFF"
     d="M284.588 253.451C286.542 253.529 288.672 253.954 289.993 255.55C291.168 256.969 291.533 258.382 291.198 260.195C290.815 262.27 289.216 263.56 287.581 264.678C286.804 264.688 286.012 264.699 285.239 264.606C283.521 264.399 281.81 263.41 280.948 261.878C280.26 260.654 280.281 259.365 280.588 258.038C281.102 255.815 282.805 254.646 284.588 253.451Z"
     id="path6" />
  <path
     fill="#F9FEFF"
     d="M719.571 176.488C720.227 176.483 720.884 176.478 721.539 176.52C723.083 176.617 724.724 177.405 725.63 178.714C726.553 180.049 726.857 181.466 726.496 183.038C725.912 185.583 724.558 186.59 722.425 187.849C721.666 187.83 721.577 187.845 720.743 187.733C718.984 187.496 717.146 186.63 716.161 185.096C715.409 183.926 715.354 182.59 715.594 181.268C716.003 179.017 717.831 177.718 719.571 176.488Z"
     id="path7" />
  <path
     fill="#F9FEFF"
     d="M282.546 343.423C283.274 343.435 284.033 343.422 284.753 343.555C286.132 343.811 287.402 344.693 288.189 345.841C289.098 347.166 289.302 348.744 288.992 350.298C288.47 352.918 287.128 354.126 284.944 355.503C284.745 355.495 284.545 355.498 284.346 355.478C282.371 355.285 280.485 354.429 279.327 352.763C278.368 351.383 278.191 349.71 278.575 348.1C279.142 345.719 280.59 344.716 282.546 343.423Z"
     id="path8" />
  <path
     fill="#DF9ABC"
     d="M722.843 740.078C725.864 739.905 728.63 739.904 731.364 741.378Q731.949 741.689 732.499 742.056Q733.05 742.423 733.561 742.844Q734.073 743.264 734.54 743.734Q735.007 744.203 735.425 744.716Q735.843 745.23 736.207 745.782Q736.572 746.335 736.88 746.921Q737.188 747.507 737.435 748.121Q737.683 748.734 737.869 749.37C738.957 753.009 738.548 757.129 736.656 760.432C734.539 764.129 731.663 765.85 727.678 767.033C724.583 767.188 722.022 766.965 719.249 765.461Q718.614 765.118 718.016 764.714Q717.418 764.309 716.863 763.847Q716.309 763.385 715.803 762.871Q715.297 762.356 714.844 761.793Q714.392 761.23 713.998 760.626Q713.604 760.021 713.272 759.38Q712.94 758.739 712.674 758.068Q712.407 757.397 712.209 756.703C711.279 753.34 711.631 749.696 713.402 746.666C715.571 742.954 718.84 741.246 722.843 740.078Z"
     id="path9" />
  <path
     fill="#DF9ABC"
     d="M752.807 439.654C755.428 439.846 757.907 440.228 760.264 441.464Q760.906 441.794 761.51 442.19Q762.114 442.586 762.673 443.044Q763.232 443.501 763.74 444.015Q764.247 444.529 764.697 445.094Q765.148 445.658 765.536 446.267Q765.924 446.876 766.246 447.523Q766.568 448.169 766.82 448.846Q767.072 449.523 767.251 450.223C768.168 453.824 767.652 457.911 765.648 461.07C763.053 465.161 759.612 466.615 755.077 467.521C751.85 467.456 748.756 466.828 746.074 464.953Q745.49 464.544 744.951 464.078Q744.412 463.613 743.923 463.094Q743.434 462.576 743.001 462.01Q742.567 461.444 742.194 460.838Q741.82 460.231 741.51 459.589Q741.2 458.948 740.957 458.278Q740.714 457.608 740.541 456.916Q740.368 456.225 740.266 455.52C739.705 451.828 740.56 447.924 742.843 444.939C745.451 441.529 748.701 440.305 752.807 439.654Z"
     id="path10" />
  <path
     fill="#DF9ABC"
     d="M333.472 169.588C336.603 169.306 339.423 169.076 342.4 170.287Q343.08 170.563 343.728 170.905Q344.377 171.248 344.988 171.654Q345.599 172.059 346.166 172.524Q346.734 172.99 347.251 173.509Q347.769 174.029 348.232 174.598Q348.695 175.167 349.098 175.78Q349.502 176.392 349.842 177.042Q350.182 177.692 350.455 178.373C351.905 181.949 351.974 185.941 350.441 189.504C348.671 193.62 345.374 195.947 341.323 197.513C338.393 198.13 335.39 198.107 332.558 197.066Q331.899 196.824 331.268 196.517Q330.637 196.209 330.04 195.839Q329.443 195.469 328.887 195.04Q328.331 194.612 327.822 194.129Q327.312 193.646 326.855 193.113Q326.397 192.581 325.995 192.005Q325.594 191.429 325.253 190.815Q324.913 190.201 324.636 189.556Q324.344 188.874 324.12 188.168Q323.895 187.461 323.742 186.735Q323.588 186.01 323.506 185.273Q323.424 184.536 323.415 183.794Q323.406 183.053 323.47 182.314Q323.533 181.575 323.669 180.846Q323.805 180.117 324.011 179.405Q324.218 178.693 324.493 178.004C326.253 173.653 329.281 171.385 333.472 169.588Z"
     id="path11" />
  <path
     fill="#DF9ABC"
     d="M257.618 609.116C260.5 608.804 263.26 608.797 265.995 609.864Q266.684 610.13 267.344 610.463Q268.003 610.797 268.626 611.194Q269.249 611.591 269.829 612.049Q270.409 612.507 270.94 613.02Q271.472 613.533 271.949 614.097Q272.427 614.66 272.846 615.269Q273.265 615.877 273.622 616.524Q273.978 617.171 274.268 617.851Q274.553 618.514 274.77 619.202Q274.988 619.89 275.136 620.596Q275.285 621.303 275.362 622.02Q275.44 622.738 275.447 623.459Q275.453 624.181 275.389 624.9Q275.324 625.618 275.188 626.327Q275.053 627.036 274.848 627.728Q274.642 628.42 274.37 629.088C272.525 633.563 269.25 635.821 264.902 637.541C262.003 637.938 259.53 638.033 256.738 637.008Q256.06 636.759 255.41 636.443Q254.76 636.128 254.144 635.749Q253.529 635.369 252.955 634.93Q252.381 634.491 251.854 633.997Q251.327 633.502 250.853 632.957Q250.378 632.413 249.96 631.823Q249.543 631.233 249.186 630.605Q248.83 629.976 248.538 629.315Q248.237 628.633 248.005 627.925Q247.772 627.216 247.612 626.488Q247.451 625.76 247.364 625.02Q247.276 624.279 247.263 623.534Q247.249 622.788 247.31 622.045Q247.371 621.302 247.505 620.569Q247.639 619.835 247.845 619.119Q248.052 618.402 248.328 617.71C250.144 613.181 253.237 610.9 257.618 609.116Z"
     id="path12" />
  <path
     fill="#9A0B6C"
     d="M292.688 673.658C300.51 673.003 308.164 674.506 314.877 678.679C323.026 683.744 329.061 692.468 331.187 701.8C333.39 711.466 331.249 721.044 325.908 729.319C319.86 738.69 311.446 743.275 300.77 745.614C292.075 746.739 283.304 744.788 276.067 739.789Q275.343 739.284 274.645 738.744Q273.946 738.203 273.276 737.629Q272.605 737.055 271.963 736.449Q271.322 735.842 270.711 735.204Q270.1 734.567 269.522 733.9Q268.944 733.233 268.399 732.538Q267.854 731.843 267.345 731.122Q266.835 730.401 266.362 729.656Q265.888 728.91 265.453 728.143Q265.017 727.375 264.619 726.586Q264.222 725.798 263.864 724.991Q263.506 724.184 263.189 723.36Q262.871 722.536 262.595 721.697Q262.319 720.859 262.084 720.008Q261.849 719.157 261.657 718.295Q261.465 717.433 261.316 716.563C259.56 706.557 261.538 696.391 267.452 688.071C273.619 679.395 282.413 675.334 292.688 673.658Z"
     id="path13" />
  <path
     fill="#D874A6"
     d="M293.569 681.657Q294.623 681.586 295.68 681.595Q296.736 681.604 297.789 681.692Q298.842 681.78 299.885 681.946Q300.928 682.113 301.956 682.358Q302.984 682.603 303.99 682.924Q304.997 683.245 305.976 683.641Q306.956 684.036 307.903 684.505Q308.85 684.973 309.759 685.511Q310.349 685.872 310.919 686.262Q311.49 686.652 312.04 687.07Q312.591 687.488 313.12 687.933Q313.649 688.378 314.155 688.849Q314.661 689.32 315.143 689.816Q315.625 690.311 316.081 690.831Q316.538 691.35 316.968 691.891Q317.398 692.432 317.8 692.994Q318.202 693.556 318.576 694.138Q318.95 694.719 319.294 695.319Q319.639 695.918 319.953 696.534Q320.267 697.15 320.549 697.781Q320.832 698.412 321.083 699.056Q321.334 699.7 321.552 700.356Q321.771 701.012 321.956 701.678Q322.141 702.344 322.293 703.018C323.874 710.146 322.573 718.119 318.57 724.26C314.137 731.062 308.199 734.27 300.488 736.035C293.4 736.377 287.04 735.636 281.092 731.339C274.975 726.921 271.059 719.917 269.94 712.509Q269.837 711.859 269.767 711.205Q269.697 710.551 269.659 709.894Q269.621 709.238 269.616 708.58Q269.61 707.922 269.638 707.265Q269.665 706.607 269.725 705.952Q269.784 705.297 269.876 704.646Q269.968 703.994 270.093 703.348Q270.217 702.702 270.373 702.063Q270.529 701.424 270.716 700.794Q270.904 700.163 271.122 699.543Q271.34 698.922 271.589 698.313Q271.838 697.704 272.117 697.108Q272.395 696.512 272.703 695.931Q273.011 695.35 273.347 694.784Q273.683 694.219 274.047 693.671Q274.411 693.122 274.801 692.593C279.475 686.334 285.984 682.871 293.569 681.657Z"
     id="path14" />
  <path
     fill="#9A0B6C"
     d="M272.679 473.697C282.32 472.777 293.585 475.98 301.283 481.842C310.517 488.874 316.27 499.586 317.822 511.013Q317.969 512.141 318.06 513.276Q318.151 514.41 318.186 515.547Q318.221 516.685 318.2 517.822Q318.179 518.96 318.101 520.095Q318.024 521.23 317.89 522.36Q317.757 523.49 317.567 524.613Q317.378 525.735 317.134 526.846Q316.889 527.957 316.59 529.055Q316.291 530.153 315.938 531.235Q315.585 532.316 315.179 533.379Q314.773 534.442 314.315 535.484Q313.857 536.526 313.348 537.543Q312.839 538.561 312.28 539.552Q311.722 540.544 311.115 541.506Q310.508 542.469 309.854 543.4Q309.2 544.331 308.501 545.229C300.824 555.222 290.152 560.439 277.822 561.981C266.606 562.277 256.108 559.837 247.228 552.7C237.793 545.116 231.867 533.174 230.653 521.204Q230.546 520.141 230.493 519.073Q230.44 518.006 230.44 516.937Q230.44 515.868 230.494 514.801Q230.548 513.733 230.655 512.67Q230.762 511.606 230.922 510.549Q231.083 509.493 231.295 508.445Q231.508 507.398 231.773 506.362Q232.038 505.327 232.355 504.306Q232.672 503.285 233.039 502.282Q233.406 501.278 233.823 500.294Q234.24 499.31 234.706 498.348Q235.172 497.386 235.685 496.448Q236.198 495.511 236.758 494.6Q237.318 493.69 237.922 492.808Q238.527 491.927 239.175 491.077Q239.822 490.227 240.512 489.41C248.639 479.727 260.258 474.729 272.679 473.697Z"
     id="path15" />
  <path
     fill="#D874A6"
     d="M272.749 482.69C280.84 482.19 289.45 484.638 295.878 489.597C303.201 495.246 307.703 503.739 308.853 512.859Q308.97 513.722 309.043 514.589Q309.117 515.457 309.146 516.327Q309.176 517.197 309.162 518.067Q309.148 518.938 309.09 519.806Q309.032 520.675 308.931 521.54Q308.83 522.404 308.685 523.263Q308.54 524.121 308.352 524.971Q308.165 525.822 307.935 526.661Q307.704 527.501 307.432 528.328Q307.16 529.155 306.847 529.967Q306.534 530.779 306.18 531.575Q305.826 532.37 305.433 533.147Q305.04 533.923 304.608 534.679Q304.176 535.435 303.707 536.169Q303.238 536.902 302.732 537.611Q302.227 538.32 301.686 539.002C295.495 546.848 287.082 551.082 277.242 552.165C268.509 552.391 260.337 550.612 253.349 545.107C245.939 539.27 241.124 530.207 240.128 520.855C239.145 511.635 241.544 502.312 247.462 495.101C254.028 487.1 262.681 483.679 272.749 482.69Z"
     id="path16" />
  <path
     fill="#9A0B6C"
     d="M755.277 268.16C766.647 266.899 777.606 270.032 786.777 276.798C797.171 284.465 804.464 295.882 806.347 308.718C808.293 321.986 805.472 334.855 797.367 345.614C788.657 357.174 778.093 361.446 764.118 363.352C752.489 364.514 741.478 362.276 731.959 355.249C721.969 347.875 714.655 336.876 712.806 324.504Q712.615 323.282 712.486 322.052Q712.356 320.821 712.289 319.586Q712.221 318.351 712.216 317.114Q712.21 315.877 712.266 314.641Q712.323 313.406 712.441 312.174Q712.559 310.943 712.739 309.719Q712.919 308.495 713.16 307.282Q713.401 306.069 713.702 304.869Q714.003 303.669 714.364 302.486Q714.725 301.303 715.145 300.139Q715.565 298.976 716.043 297.835Q716.521 296.694 717.055 295.578Q717.589 294.462 718.179 293.375Q718.768 292.287 719.411 291.231Q720.055 290.174 720.75 289.151Q721.445 288.128 722.191 287.141C730.431 276.19 741.807 270.03 755.277 268.16Z"
     id="path17" />
  <path
     fill="#D874A6"
     d="M754.452 278.658C763.521 277.78 772.647 279.332 780.288 284.483C788.722 290.17 794.334 299.375 796.244 309.301Q796.432 310.235 796.573 311.177Q796.714 312.12 796.808 313.068Q796.902 314.016 796.948 314.968Q796.994 315.92 796.992 316.873Q796.99 317.826 796.94 318.777Q796.891 319.729 796.794 320.677Q796.696 321.624 796.552 322.566Q796.407 323.508 796.216 324.441Q796.024 325.375 795.786 326.297Q795.547 327.22 795.263 328.13Q794.979 329.039 794.65 329.933Q794.32 330.827 793.946 331.704Q793.572 332.58 793.155 333.437Q792.738 334.293 792.278 335.128Q791.818 335.963 791.317 336.773Q790.816 337.584 790.275 338.368C784.248 347.133 775.913 352.054 765.549 353.923C755.875 355.311 746.556 353.37 738.455 347.799Q737.686 347.265 736.944 346.694Q736.202 346.122 735.489 345.515Q734.776 344.908 734.094 344.267Q733.412 343.625 732.762 342.951Q732.113 342.276 731.497 341.571Q730.881 340.865 730.301 340.13Q729.721 339.395 729.178 338.633Q728.634 337.87 728.129 337.081Q727.625 336.293 727.159 335.48Q726.693 334.668 726.268 333.833Q725.844 332.999 725.46 332.145Q725.077 331.29 724.736 330.418Q724.395 329.546 724.098 328.658Q723.801 327.77 723.547 326.868Q723.294 325.967 723.086 325.054Q722.877 324.141 722.714 323.219Q722.534 322.29 722.402 321.353Q722.269 320.416 722.184 319.473Q722.099 318.531 722.062 317.585Q722.025 316.639 722.035 315.693Q722.046 314.746 722.104 313.802Q722.163 312.857 722.269 311.917Q722.376 310.976 722.529 310.043Q722.683 309.109 722.884 308.184Q723.085 307.259 723.332 306.346Q723.58 305.432 723.873 304.532Q724.166 303.632 724.504 302.749Q724.843 301.865 725.226 300.999Q725.608 300.134 726.034 299.288Q726.46 298.443 726.928 297.621Q727.397 296.798 727.906 296.001Q728.415 295.203 728.964 294.432C735.2 285.644 743.927 280.46 754.452 278.658Z"
     id="path18" />
  <path
     id="path20"
     d="M 512.21094 117.99023 C 505.89994 129.89121 499.95634 141.83307 493.19336 153.49805 C 471.7764 190.44397 463.23997 206.13933 474.62695 249.78125 C 466.10564 245.56659 457.4918 241.55103 448.78516 237.73438 C 435.74718 231.89138 422.8634 227.10862 413.10742 216.18164 C 411.85242 236.3876 410.31075 256.65685 412.17773 276.88281 C 391.69677 268.90083 370.15987 265.15648 352.00391 251.97852 C 354.77389 285.25644 355.4512 309.55728 377.66016 337.19922 C 364.01818 332.99822 349.44798 329.37373 337.375 321.55273 C 339.664 352.69967 345.4086 382.00554 367.10156 406.02148 C 354.79458 403.2485 343.24273 400.13673 331.75977 394.71875 C 333.93575 421.43769 341.39401 451.48531 360.41797 471.32227 C 348.71199 468.99527 336.56415 468.39409 325.45117 463.74609 C 331.20717 493.13503 338.58442 522.63354 360.60938 544.52148 C 350.1774 542.2305 339.43546 541.39514 329.52148 537.16016 C 335.04948 568.2351 341.34468 601.79182 367.64062 622.67578 C 356.14966 619.32978 343.9314 619.11645 332.35742 615.81445 C 336.99842 647.54339 345.06264 686.8931 372.51758 707.03906 C 373.75691 707.93239 375.02064 708.79252 376.30664 709.61719 C 367.90566 709.45619 359.46084 709.75928 351.08984 708.98828 C 356.77184 744.57822 367.1032 783.90229 397.82812 806.28125 C 415.7071 819.30423 437.70954 825.46886 459.6875 825.50586 C 475.46246 825.53186 484.13385 823.45964 498.92383 830.76562 L 499.08594 888.19922 C 499.25194 892.8652 499.98761 897.38675 503.30859 900.92773 C 505.42559 903.18573 508.29497 904.5477 511.41797 904.4707 C 514.42597 904.3967 517.23392 903.02828 519.29492 900.86328 C 523.45792 896.4913 523.16539 891.14373 523.02539 885.55273 L 522.92578 830.75977 C 540.89174 820.64179 556.70796 825.90122 575.79492 824.32422 C 621.14984 820.57522 655.81082 788.63895 667.9668 745.49805 C 671.73778 732.11707 673.11628 718.40723 673.73828 704.57227 C 666.6033 706.58125 659.48648 707.4813 652.14648 708.2793 C 675.81744 683.78634 684.61175 649.07575 685.71875 615.92383 C 675.90477 621.44281 666.16659 622.47097 655.34961 624.66797 C 675.60157 606.52901 685.18869 583.06622 689.88867 556.73828 C 691.03467 550.3253 691.52919 543.77962 692.74219 537.39062 C 682.40121 542.32562 672.92789 544.09977 661.75391 545.88477 C 677.56087 529.04679 685.68447 508.77129 690.10547 486.36133 C 691.55547 479.01435 692.3968 471.29701 694.3418 464.08203 C 683.03082 470.95001 673.80676 473.08972 661.05078 475.76172 C 681.61774 451.91276 685.42894 426.12016 690.29492 396.32422 C 680.94194 403.6662 670.04973 404.726 658.59375 406.375 C 682.15371 384.11704 681.51866 352.14253 688.09766 322.80859 C 675.27168 329.53059 662.39551 333.23108 648.43555 336.70508 C 666.24751 318.07612 668.66252 277.85452 670.97852 253.22656 C 654.31554 266.93954 631.61938 269.2203 611.98242 276.5293 C 613.03542 256.08734 609.89875 235.8158 610.84375 215.46484 C 594.93579 233.56182 568.93977 237.42043 549.38281 250.44141 C 557.90379 225.50545 557.58379 203.05216 545.88281 179.2832 C 539.68483 166.69224 531.9302 154.88073 524.94922 142.71875 C 520.33322 134.67577 516.28592 126.31623 512.21094 117.99023 z M 568.69922 719.05469 C 568.80822 719.51069 568.92191 719.71347 568.50391 720.23047 C 567.45791 721.52147 556.14128 728.17603 553.61328 730.08203 C 541.7363 739.03301 531.43492 751.83593 524.96094 765.25391 L 524.72852 765.74414 L 523.76172 765.77539 C 523.14972 752.70441 523.54528 739.53137 523.36328 726.44141 C 538.84826 729.77339 554.72224 726.02267 568.69922 719.05469 z M 499.21875 725.82227 L 499.62305 726.19727 C 500.24405 729.99126 499.4887 735.05757 499.4707 738.97656 L 499.50781 772.9707 C 497.38781 767.71471 494.57012 763.20014 491.45312 758.49414 C 481.80013 745.57515 484.44325 741.2562 479.65625 727.19922 C 483.98125 728.46922 489.17761 730.52862 493.72461 729.89062 C 496.61461 729.48563 497.58975 728.06626 499.21875 725.82227 z "
     style="fill:#332c64;fill-opacity:1" />
  <path
     fill="#F8FDC6"
     d="M500.561 446.615C501.674 448.109 501.36 460.346 501.42 463.021L498.728 458.362C496.892 455.26 494.838 452.259 492.874 449.234C495.798 448.876 497.967 447.995 500.561 446.615Z"
     id="path21" />
  <path
     fill="#F8FDC6"
     d="M522.426 445.714C524.888 447.461 527.344 448.832 530.046 450.17C528.412 452.485 527.009 454.999 525.538 457.421L522.049 463.395C522.345 457.512 522.337 451.603 522.426 445.714Z"
     id="path22" />
  <path
     fill="#F8FDC6"
     d="M522.807 356.121C525.81 358.203 528.642 359.255 532.141 360.133C530.032 362.705 528.183 365.41 526.326 368.166L522.614 374.17L522.807 356.121Z"
     id="path23" />
  <path
     fill="#026C55"
     d="M506.423 612.44L517.144 612.628C519.35 615.401 520.892 619.71 522.493 622.92C518.316 620.478 510.089 619.059 507.098 615.351C506.199 614.236 506.343 613.786 506.423 612.44Z"
     id="path24" />
  <path
     fill="#F8FDC6"
     d="M523.364 625.348C526.359 628.876 528.951 630.835 533.181 632.721C530.988 635.408 528.994 638.174 527.035 641.035C525.673 643.04 524.581 645.278 523.418 647.405L523.364 625.348Z"
     id="path25" />
  <path
     fill="#F8FDC6"
     d="M500.853 355.473C500.906 355.523 500.973 355.561 501.012 355.622C502.253 357.532 501.497 374.518 501.504 378.008C500.49 375.823 499.381 373.672 498.317 371.51C495.973 367.583 493.361 364.001 490.6 360.367C494.447 359.148 497.566 357.796 500.853 355.473Z"
     id="path26" />
  <path
     fill="#F8FDC6"
     d="M499.911 624.477C500.888 625.894 500.466 644.921 500.507 648.171L497.541 643.11C495.329 639.499 492.586 636.252 489.944 632.953C493.965 630.5 496.92 628.131 499.911 624.477Z"
     id="path27" />
  <path
     fill="#06CA92"
     d="M455.997 728.156C461.416 727.463 467.424 727.851 472.924 727.625Q475.142 735.2 477.11 742.843C470.486 737.451 463.566 732.163 455.997 728.156Z"
     id="path28" />
  <path
     fill="#F8FDC6"
     d="M522.454 534.34C526.83 536.41 531.033 537.166 535.814 537.599C532.812 540.446 530.266 543.587 527.721 546.839C525.86 549.498 524.193 552.334 522.459 555.08L522.454 534.34Z"
     id="path29" />
  <path
     fill="#F8FDC6"
     d="M500.492 534.586C501.428 535.918 501.26 554.437 501.509 558.188L497.062 550.096C494.196 545.641 491.206 541.778 487.39 538.091C492.123 537.521 496.099 536.452 500.492 534.586Z"
     id="path30" />
  <path
     fill="#4FE1B7"
     d="M383.487 276.241C393.573 278.958 403.435 282.479 413.291 285.924C414.119 290.652 415.061 295.388 415.753 300.137C410.312 296.448 405.252 292.022 399.906 288.164C394.663 284.381 387.958 280.814 383.487 276.241Z"
     id="path31" />
  <path
     fill="#089163"
     d="M614.926 342.136C625.478 339.273 639.186 324.921 645.713 316.553C648.406 313.102 650.937 307.918 654.448 305.376C651.246 318.149 644.053 329.182 635.772 339.259C629.344 341.707 622.358 344.255 615.641 345.708L615.014 345.223C614.979 344.195 614.929 343.165 614.926 342.136Z"
     id="path32" />
  <path
     fill="#4FE1B7"
     d="M614.331 355.746C627.107 349.723 641.442 346.837 655.057 343.348C655.976 344.609 656.348 345.099 656.371 346.727C655.339 349.713 652.766 350.882 650.069 352.2C642.137 356.075 622.127 363.524 613.426 365.788C613.626 362.443 614.027 359.085 614.331 355.746Z"
     id="path33" />
  <path
     fill="#F4CC7D"
     d="M507.753 627.118C510.449 629.637 513.231 631.923 516.161 634.166C516.219 643.587 516.613 653.32 515.702 662.705C514.665 673.397 511.701 683.935 512.595 694.773L510.38 695.511C510.817 684.69 508.849 674.771 508.093 664.112C507.235 652.034 507.486 639.246 507.753 627.118Z"
     id="path34" />
  <path
     fill="#4FE1B7"
     d="M616.241 424.766C627.927 419.222 642.161 417.082 654.794 414.683C647.257 428.73 629.307 432.065 615.893 438.494Q616.158 431.632 616.241 424.766Z"
     id="path35" />
  <path
     fill="#4FE1B7"
     d="M611.179 285.927C625.312 280.782 639.941 276.911 654.131 271.837C653.132 273.674 652.158 275.347 650.814 276.954C646.773 279.11 643.724 282.752 639.878 285.224C633.708 289.189 626.734 292.293 620.216 295.649C616.201 297.716 612.253 300.217 608.138 302.046Q609.864 294.025 611.179 285.927Z"
     id="path36" />
  <path
     fill="#089163"
     d="M615.541 410.313C634.469 403.186 649.694 392.947 662.06 376.673C665.365 372.324 667.657 366.936 671.346 362.947C671.445 362.84 671.547 362.737 671.648 362.632C668.446 378.298 660.684 396.013 646.884 405.255C639.294 410.338 624.74 412.742 615.71 416.01L615.541 410.313Z"
     id="path38" />
  <defs
     id="defs39">
    <linearGradient
       id="gradient_0"
       gradientUnits="userSpaceOnUse"
       x1="527.27826"
       y1="427.12033"
       x2="495.72177"
       y2="484.87967">
      <stop
         offset="0"
         stop-color="#F2AB53"
         id="stop38" />
      <stop
         offset="1"
         stop-color="#F5C96A"
         id="stop39" />
    </linearGradient>
  </defs>
  <path
     fill="url(#gradient_0)"
     d="M510.532 421.091L511.36 421.332C511.412 420.908 511.545 418.751 511.743 418.582C511.841 419.399 511.849 420.074 511.822 420.9C511.792 421.839 511.876 422.21 512.26 423.038C512.834 422.174 512.68 422.649 512.726 421.616C513.709 424.399 513.672 428.111 514.394 431.08C515.237 434.544 516.374 437.933 516.893 441.47C518.02 449.154 518.145 465.533 516.883 473.132C515.32 482.54 512.873 491.385 511.973 500.97C511.234 496.415 510.716 491.794 509.834 487.269C508.934 482.649 507.681 478.045 507.055 473.378C506.028 465.734 506.135 449.892 506.812 442.137C507.414 435.234 509.949 428.839 510.532 421.091Z"
     id="path39" />
  <path
     fill="#06CA92"
     d="M608.138 302.046C612.253 300.217 616.201 297.716 620.216 295.649C626.734 292.293 633.708 289.189 639.878 285.224C643.724 282.752 646.773 279.11 650.814 276.954C645.308 288.331 631.464 301.646 622.052 310.137C618.618 313.235 612.689 317.149 610.466 321.093C607.347 323.059 602.897 324 599.366 325.076C602.657 317.514 605.475 309.847 608.138 302.046Z"
     id="path40" />
  <path
     fill="#4FE1B7"
     d="M613.411 641.341C632.453 636.37 651.407 633.175 670.928 630.83C670.381 633.007 667.068 634.804 665.194 635.916C653.41 642.908 640.17 647.955 627.786 653.865C621.724 656.758 615.593 660.925 609.357 663.218C611.252 655.975 612.397 648.744 613.411 641.341Z"
     id="path42" />
  <path
     fill="#06CA92"
     d="M668.947 339.803C667.529 347.411 635.321 372.228 627.777 377.406C622.224 381.218 615.134 386.547 608.771 388.513C611.178 381.19 612.349 373.404 613.426 365.788C622.127 363.524 642.137 356.075 650.069 352.2C652.766 350.882 655.339 349.713 656.371 346.727C656.348 345.099 655.976 344.609 655.057 343.348L668.947 339.803Z"
     id="path43" />
  <path
     fill="#4FE1B7"
     d="M616.569 503.634C612.605 504.525 599.137 508.555 596.338 508.181L596.227 507.355C596.608 506.8 596.73 506.588 597.133 506.106C599.66 503.082 603.889 500.539 607.294 498.628C625.778 488.253 646.888 485.192 667.608 482.77L668.334 483.457C666.746 487.658 635.898 502.061 630.251 505.141C625.359 507.81 620.772 510.966 615.896 513.647C615.958 510.293 616.269 506.972 616.569 503.634Z"
     id="path44" />
  <path
     fill="#EE9D48"
     d="M508.272 293.041L515.894 292.657C514.052 301.333 512.692 309.986 512.291 318.86C512.19 329.902 515.426 339.622 516.675 350.371C517.727 359.417 517.025 369.135 517.029 378.258C517.036 394.147 511.284 404.092 512.726 421.616C512.68 422.649 512.834 422.174 512.26 423.038C511.876 422.21 511.792 421.839 511.822 420.9C511.849 420.074 511.841 419.399 511.743 418.582C511.545 418.751 511.412 420.908 511.36 421.332L510.532 421.091C510.897 408.571 508.061 400.625 506.933 388.926C505.85 377.692 506.797 365.792 506.895 354.488C507.003 341.923 511.954 330.19 511.708 317.424C511.197 309.384 510.425 300.816 508.272 293.041Z"
     id="path45" />
  <path
     fill="#F4CC7D"
     d="M511.545 508.019C512.782 515.465 516.27 523.187 516.648 530.569C516.987 537.176 516.66 543.895 516.602 550.511C516.551 556.439 516.792 562.457 516.416 568.373C515.272 586.404 511.489 593.969 517.144 612.628L506.423 612.44C510.917 597.738 507.947 584.394 507.178 569.569C506.538 557.217 506.305 543.796 506.89 531.448C507.244 523.968 510.858 516.598 511.545 508.019Z"
     id="path46" />
  <path
     fill="#4FE1B7"
     d="M609.41 567.298C628.725 557.893 652.007 555.291 673.018 552.351C672.393 554.799 670.619 555.902 668.525 557.158C662.482 560.784 655.668 563.46 649.264 566.391C638.672 571.24 628.239 576.248 618.255 582.282C614.64 584.468 598.373 596.023 596.095 596.092L595.752 595.87C601.564 586.661 605.531 577.419 609.41 567.298Z"
     id="path47" />
  <path
     fill="#06CA92"
     d="M366.526 269.742C371.985 271.763 378.402 273.502 383.487 276.241C387.958 280.814 394.663 284.381 399.906 288.164C405.252 292.022 410.312 296.448 415.753 300.137C418.182 309.1 421.257 316.467 426.028 324.437C421.361 322.54 416.535 321.387 411.844 319.649C399.823 313.461 372.229 283.1 366.526 269.742Z"
     id="path48" />
  <path
     fill="#089163"
     d="M610.134 478.066C612.94 477.721 616.326 475.47 618.912 474.206C635.463 466.119 649.867 456.988 662.001 442.874C666.162 438.034 672.005 427.358 676.799 424.217C673.731 445.914 661.754 461.745 647.29 477.26C633.283 479.093 617.92 484.099 605.44 490.524C607.273 486.436 608.469 482.196 610.134 478.066Z"
     id="path49" />
  <path
     fill="#089163"
     d="M613.301 547.073C637.862 539.272 657.555 522.393 671.331 500.923C674.444 496.072 677.655 488.1 681.937 484.502C678.912 503.972 666.775 533.729 650.081 545.477C643.718 549.955 633.466 550.863 626.022 552.881Q618.757 554.881 611.678 557.465Q612.641 552.293 613.301 547.073Z"
     id="path50" />
  <path
     fill="#F8FDC6"
     d="M432.604 615.75C454.683 619.772 478.369 629.647 491.583 648.674C498.988 659.337 502.312 671.694 502.738 684.579L502.275 685.983C501.466 685.519 501.258 685.072 500.84 684.276C499.282 681.313 497.878 678.227 495.992 675.454C483.6 657.237 463.597 643.522 446.697 629.743C442.064 625.965 435.457 621.633 432.39 616.482L432.604 615.75Z"
     id="path51" />
  <path
     fill="#F8FDC6"
     d="M595.051 423.217C595.13 424.33 595.172 424.272 594.436 425.127C588.093 432.495 578.625 438.678 570.992 444.723C559.877 453.524 549.283 462.672 539.599 473.052C535.803 477.122 531.752 481.299 528.594 485.889C527.013 488.189 522.022 497.977 520.35 498.904C520.569 485.84 524.982 472.449 531.88 461.4C545.914 438.919 570.231 428.885 595.051 423.217Z"
     id="path52" />
  <path
     fill="#F8FDC6"
     d="M428.013 422.187C452.809 427.948 478.222 440.304 492.095 462.408Q493.398 464.464 494.564 466.6Q495.73 468.737 496.753 470.946Q497.777 473.154 498.653 475.425Q499.529 477.696 500.254 480.02Q500.98 482.343 501.551 484.71Q502.122 487.076 502.537 489.474Q502.952 491.873 503.209 494.293Q503.466 496.714 503.563 499.146C500.996 497.314 497.125 489.611 495.061 486.649C491.01 480.834 485.725 475.544 480.747 470.51C470.475 460.123 459.304 450.384 448.279 440.804C441.75 435.13 433.172 429.076 428.013 422.187Z"
     id="path53" />
  <path
     fill="#F8FDC6"
     d="M520.464 688.926Q520.422 687.555 520.435 686.183Q520.448 684.811 520.516 683.44Q520.583 682.07 520.706 680.703Q520.828 679.337 521.005 677.976Q521.181 676.616 521.412 675.263Q521.643 673.911 521.927 672.568Q522.212 671.226 522.55 669.896Q522.887 668.567 523.278 667.251Q523.669 665.936 524.111 664.638Q524.554 663.339 525.048 662.059Q525.542 660.779 526.087 659.52Q526.632 658.261 527.227 657.024Q527.821 655.788 528.465 654.576Q529.108 653.364 529.799 652.179Q530.491 650.994 531.229 649.837Q531.966 648.68 532.75 647.554C546.708 627.497 570.318 618.952 593.505 614.74C590.353 621.234 571.343 634.169 564.937 639.462C555.904 646.926 546.378 654.558 538.274 663.021C530.601 671.036 526.266 679.683 520.464 688.926Z"
     id="path54" />
  <path
     fill="#F8FDC6"
     d="M595.126 516.715L595.273 517.767C589.949 524.376 581.382 530.08 574.842 535.541C562.919 545.499 550.717 555.85 539.811 566.917C536.273 570.508 533.197 574.153 530.397 578.358C527.714 582.387 525.165 589.137 521.469 592.076C521.292 579.292 525.305 565.894 531.971 555.033C545.797 532.508 570.48 522.631 595.126 516.715Z"
     id="path55" />
  <path
     fill="#F8FDC6"
     d="M595.92 236.582C595.823 240.887 586.613 248.796 583.407 251.872C567.699 266.946 549.04 278.217 534.749 294.842C531.139 299.04 528.254 303.64 525.721 308.555C524.078 311.741 522.634 315.454 520.395 318.245C520.26 308.979 521.418 299.499 524.625 290.766C535.858 260.182 568.868 249.086 595.92 236.582Z"
     id="path56" />
  <path
     fill="#089163"
     d="M615.498 618.907C638.963 608.791 655.88 591.616 670.688 571.308C674.052 566.694 676.571 560.583 680.485 556.513C680.703 556.286 680.929 556.067 681.151 555.844C679.377 580.988 665.787 604.498 647.057 620.883C637.229 629.48 626.336 629.637 614.247 633.01C614.615 626.327 614.394 618.993 615.42 612.411C615.546 614.565 615.486 616.749 615.498 618.907Z"
     id="path57" />
  <path
     fill="#F8FDC6"
     d="M519.978 415.719C519.574 401.972 523.605 387.101 530.744 375.356C543.854 353.788 574.611 340.132 598.508 334.17C590.65 344.43 579.086 353.139 569.072 361.19C559.846 368.608 550.744 376.039 542.366 384.427C536.22 390.58 530.034 396.992 525.711 404.594C523.777 407.995 522.303 412.7 519.978 415.719Z"
     id="path58" />
  <path
     fill="#F8FDC6"
     d="M420.64 331.319C446.632 339.573 480.131 353.248 493.323 378.429C498.593 388.487 502.371 400.697 502.672 412.095C500.108 410.259 491.583 397.654 488.281 394.078C475.485 380.223 461.204 368.488 447.48 355.66C440.423 349.063 434.092 341.48 426.63 335.349C425.107 334.098 423.62 333.294 421.783 332.585C420.988 332.279 421.046 332.039 420.64 331.319Z"
     id="path59" />
  <path
     fill="#06B07D"
     d="M661.498 268.319C659.979 280.895 658.427 293.283 654.448 305.376C650.937 307.918 648.406 313.102 645.713 316.553C639.186 324.921 625.478 339.273 614.926 342.136C614.999 336.297 616.183 326.3 614.291 320.919C612.856 320.36 611.955 320.79 610.466 321.093C612.689 317.149 618.618 313.235 622.052 310.137C631.464 301.646 645.308 288.331 650.814 276.954C652.158 275.347 653.132 273.674 654.131 271.837C656.589 270.696 659.127 269.629 661.498 268.319Z"
     id="path60" />
  <path
     fill="#06CA92"
     d="M353.027 338.311C366.239 342.104 400.319 348.018 409.916 354.521C410.521 355.915 410.519 357.052 410.529 358.534L411.113 367.21C412.393 378.463 414.329 389.368 418.317 400.016C417.532 400.297 417.284 400.297 416.491 399.921C413.366 398.44 409.779 394.861 406.965 392.72C389.115 379.14 374.601 366.933 360.338 349.345C357.876 346.309 353.997 342.137 353.027 338.311Z"
     id="path61" />
  <path
     fill="#4FE1B7"
     d="M373.675 346.93C386.814 349.581 398.505 352.299 410.529 358.534L411.113 367.21C405.876 365.267 400.827 362.064 395.959 359.325Q384.889 352.998 373.675 346.93Z"
     id="path62" />
  <path
     fill="#06CA92"
     d="M346.002 408.835L346.625 409.044C356.475 412.259 403.284 419.946 407.32 425.711C407.427 427.016 407.51 428.284 407.48 429.596C407.526 432.422 407.514 435.266 407.661 438.088C409.501 447.547 408.913 457.458 410.803 467.034C390.193 458.471 369.499 437.707 355.276 420.884C352.176 417.217 348.212 413.093 346.002 408.835Z"
     id="path63" />
  <path
     fill="#4FE1B7"
     d="M366.949 417.167C380.589 421.172 394.279 424.181 407.48 429.596C407.526 432.422 407.514 435.266 407.661 438.088C403.279 436.485 398.932 433.975 394.759 431.858Q380.752 424.706 366.949 417.167Z"
     id="path64" />
  <path
     fill="#06B07D"
     d="M359.794 266.305C362.064 267.409 364.311 268.529 366.526 269.742C372.229 283.1 399.823 313.461 411.844 319.649C409.791 322.479 409.652 341.364 409.476 345.898C403.621 343.613 396.347 342.177 391.098 338.769C387.027 336.125 383.741 331.852 380.881 328.002C366.957 309.262 363.989 288.495 359.794 266.305Z"
     id="path65" />
  <path
     fill="#089163"
     d="M674.126 630.214L675.761 629.937C676.842 631.294 676.477 633.145 676.296 634.818C673.29 662.673 660.519 689.68 639.193 708.005C625.719 708.369 612.424 708.876 599.139 711.359C591.468 712.792 583.999 715.111 576.36 716.651C580.114 712.645 583.892 707.808 588.019 704.245C592.906 704.132 597.987 703.083 602.712 701.867C628.759 695.165 649.663 676.042 663.114 653.268C665.064 649.968 674.946 633.404 674.126 630.214Z"
     id="path66" />
  <path
     fill="#06B07D"
     d="M510.38 695.511L512.595 694.773C513.716 703.001 515.197 711.496 515.52 719.783C515.984 731.678 515.713 743.697 515.759 755.606Q515.993 792.853 515.611 830.098Q515.416 848.697 515.468 867.297C515.491 874.411 515.948 881.791 515.434 888.876C515.279 891.017 514.956 894.112 513.456 895.802C512.617 896.748 512.059 896.638 510.932 896.589C509.984 896.08 509.374 895.639 508.774 894.75C507.605 893.017 507.213 891.365 507.052 889.292C506.654 884.152 507.184 878.672 507.188 873.491L507.075 836.315L507.074 782.966C506.998 762.485 506.736 741.931 507.528 721.462C507.852 713.112 508.855 703.727 510.38 695.511Z"
     id="path67" />
  <path
     fill="#089163"
     d="M340.748 406.636C342.524 407.322 344.262 408.065 346.002 408.835C348.212 413.093 352.176 417.217 355.276 420.884C369.499 437.707 390.193 458.471 410.803 467.034C412.875 473.852 414.901 480.628 417.188 487.382C404.173 479.019 388.748 477.037 373.987 473.852C353.973 456.493 346.191 431.614 340.748 406.636Z"
     id="path68" />
  <path
     fill="#06B07D"
     d="M667.608 482.77C672.911 481.618 678.084 480.85 683.292 479.218L681.937 484.502C677.655 488.1 674.444 496.072 671.331 500.923C657.555 522.393 637.862 539.272 613.301 547.073Q614.549 536.657 615.047 526.178C615.272 522.051 615.185 517.714 615.896 513.647C620.772 510.966 625.359 507.81 630.251 505.141C635.898 502.061 666.746 487.658 668.334 483.457L667.608 482.77Z"
     id="path69" />
  <path
     fill="#089163"
     d="M339.344 548.706L344.36 549.686L343.25 550.082C343.667 555.087 377.648 587.241 383.682 592.353C390.609 598.221 398.078 603.551 405.634 608.575C406.808 616.165 407.001 623.916 408.194 631.531C398.596 628.451 387.492 626.456 378.988 620.909C354.409 604.876 345.082 575.949 339.344 548.706Z"
     id="path70" />
  <path
     fill="#06B07D"
     d="M668.947 339.803L677.344 336.855Q674.736 349.796 671.648 362.632C671.547 362.737 671.445 362.84 671.346 362.947C667.657 366.936 665.365 372.324 662.06 376.673C649.694 392.947 634.469 403.186 615.541 410.313C608.892 412.495 601.979 414.158 595.234 416.043C601.373 407.417 605.234 398.4 608.771 388.513C615.134 386.547 622.224 381.218 627.777 377.406C635.321 372.228 667.529 347.411 668.947 339.803Z"
     id="path71" />
  <path
     fill="#089163"
     d="M335.307 475.569C336.69 475.801 338.028 476.086 339.39 476.418C341.181 479.81 345.344 482.83 348.06 485.639C363.693 501.804 379.279 516.932 397.962 529.591C401.002 531.65 404.641 534.485 408.139 535.674C409.15 536.017 409.314 536.049 410.25 535.609C411.969 540.639 412.424 550.27 413.771 556.287C406.153 552.803 397.41 550.721 389.248 548.887C384.443 547.808 377.765 547.303 373.534 544.975C370.723 543.428 368.053 540.084 365.764 537.823C348.189 520.467 342.031 498.557 335.307 475.569Z"
     id="path72" />
  <path
     fill="#06B07D"
     d="M671.145 412.255C673.988 411.45 676.904 410.992 679.809 410.478C678.977 415.123 677.993 419.651 676.799 424.217C672.005 427.358 666.162 438.034 662.001 442.874C649.867 456.988 635.463 466.119 618.912 474.206C616.326 475.47 612.94 477.721 610.134 478.066C612.974 468.228 613.469 458.558 615.331 448.645C615.429 445.246 615.585 441.881 615.893 438.494C629.307 432.065 647.257 428.73 654.794 414.683Q662.978 413.527 671.145 412.255Z"
     id="path73" />
  <path
     fill="#06CA92"
     d="M654.794 414.683Q662.978 413.527 671.145 412.255L671.795 412.998C670.496 416.579 657.928 422.566 654.191 424.309C647.828 427.276 641.651 429.914 635.866 433.944C629.706 438.236 621.85 445.645 615.331 448.645C615.429 445.246 615.585 441.881 615.893 438.494C629.307 432.065 647.257 428.73 654.794 414.683Z"
     id="path74" />
  <path
     fill="#089163"
     d="M345.581 334.556Q349.321 336.401 353.027 338.311C353.997 342.137 357.876 346.309 360.338 349.345C374.601 366.933 389.115 379.14 406.965 392.72C409.779 394.861 413.366 398.44 416.491 399.921C417.284 400.297 417.532 400.297 418.317 400.016C420.944 403.747 422.88 408.703 424.986 412.798C419.455 411.272 414.055 410.497 408.344 409.956L408.156 416.978C399.765 412.691 385.763 410.56 380.119 406.513C376.302 403.775 372.978 400.082 369.996 396.484C355.181 378.607 349.722 356.849 345.581 334.556Z"
     id="path75" />
  <path
     fill="#06CA92"
     d="M339.39 476.418Q354.129 478.681 368.794 481.379C386.588 484.554 414.044 488.046 425.487 503.996C426.143 504.911 426.964 506.031 427.24 507.131C427.035 507.324 426.541 507.948 426.249 507.914C425.314 507.805 424.314 507.537 423.41 507.283C419.476 506.772 410.708 503.163 407.76 504.169C409.681 514.375 408.983 525.246 410.25 535.609C409.314 536.049 409.15 536.017 408.139 535.674C404.641 534.485 401.002 531.65 397.962 529.591C379.279 516.932 363.693 501.804 348.06 485.639C345.344 482.83 341.181 479.81 339.39 476.418Z"
     id="path76" />
  <path
     fill="#4FE1B7"
     d="M365.125 484.764C369.395 484.871 373.986 486.436 378.144 487.418C392.605 490.832 411.261 494.521 422.189 505.37C422.744 505.921 423.17 506.537 423.41 507.283C419.476 506.772 410.708 503.163 407.76 504.169C405.512 504.281 370.989 486.953 365.125 484.764Z"
     id="path77" />
  <path
     fill="#EE9D48"
     d="M522.352 431.095C529.31 428.604 536.565 423.051 542.728 418.992C566.509 403.329 583.758 383.429 596.556 358.039C600.132 350.946 602.929 343.499 606.499 336.435C606.658 365.438 602.406 395.619 582.575 418.152C571.025 421.601 559.771 425.698 549.679 432.454C545.147 435.488 541.046 439.295 536.458 442.184C532.24 441.611 528.459 441.352 525.663 437.708C524.198 435.798 523.2 433.34 522.352 431.095Z"
     id="path78" />
  <path
     fill="#06B07D"
     d="M673.018 552.351L682.45 550.635C682.02 552.328 681.403 554.124 681.151 555.844C680.929 556.067 680.703 556.286 680.485 556.513C676.571 560.583 674.052 566.694 670.688 571.308C655.88 591.616 638.963 608.791 615.498 618.907C615.486 616.749 615.546 614.565 615.42 612.411L615.527 602.607L584.941 608.876C588.932 604.984 592.258 600.213 595.752 595.87L596.095 596.092C598.373 596.023 614.64 584.468 618.255 582.282C628.239 576.248 638.672 571.24 649.264 566.391C655.668 563.46 662.482 560.784 668.525 557.158C670.619 555.902 672.393 554.799 673.018 552.351Z"
     id="path79" />
  <path
     fill="#06B07D"
     d="M670.928 630.83C671.898 630.482 673.102 630.395 674.126 630.214C674.946 633.404 665.064 649.968 663.114 653.268C649.663 676.042 628.759 695.165 602.712 701.867C597.987 703.083 592.906 704.132 588.019 704.245C598.606 692.229 604.702 678.382 609.357 663.218C615.593 660.925 621.724 656.758 627.786 653.865C640.17 647.955 653.41 642.908 665.194 635.916C667.068 634.804 670.381 633.007 670.928 630.83Z"
     id="path80" />
  <path
     fill="#EE9D48"
     d="M417.612 333.722C419.073 341.607 423.186 349.264 426.933 356.3C441.028 382.769 457.318 401.975 482.059 419.008C486.965 422.386 496.263 429.214 501.627 431.016C500.632 433.682 499.721 436.258 497.805 438.439C495.866 440.647 493.412 441.788 490.484 441.941C484.533 442.251 479.575 436.894 475.159 433.479C469.104 428.796 461.105 425.316 454.003 422.444C447.937 419.991 440.757 418.392 435.95 413.734C432.778 410.66 430.45 406.12 428.55 402.171C418.314 380.898 417.684 356.863 417.612 333.722Z"
     id="path81" />
  <path
     fill="#F4CC7D"
     d="M605.081 514.109C606.058 519.587 584.114 553.587 579.936 559.57C567.244 577.749 551.744 591.803 533.943 604.836C531.056 606.949 528.15 610.159 524.83 611.511C522.236 605.118 521.448 598.941 521.469 592.076C525.165 589.137 527.714 582.387 530.397 578.358C533.197 574.153 536.273 570.508 539.811 566.917C550.717 555.85 562.919 545.499 574.842 535.541C581.382 530.08 589.949 524.376 595.273 517.767L595.126 516.715C598.302 515.587 601.804 514.934 605.081 514.109Z"
     id="path82" />
  <path
     fill="#06CA92"
     d="M343.507 626.484Q360.178 628.696 376.629 632.183Q393.081 635.671 409.215 640.415L410.908 647.566L412.534 654.683C416.981 673.82 424.031 691.814 438.877 705.33C437.055 705.538 435.338 704.719 433.699 703.996C401.631 689.852 377.001 663.169 353.978 637.746C351.482 634.99 344.566 629.281 343.507 626.484Z"
     id="path83" />
  <path
     fill="#4FE1B7"
     d="M412.534 654.683C402.003 651.588 391.414 645.646 381.763 640.47C391.253 642.022 401.976 643.99 410.908 647.566L412.534 654.683Z"
     id="path84" />
  <path
     fill="#F4CC7D"
     d="M417.612 333.722C417.534 332.581 417.544 331.716 417.809 330.601C419.078 330.259 419.505 330.768 420.64 331.319C421.046 332.039 420.988 332.279 421.783 332.585C423.62 333.294 425.107 334.098 426.63 335.349C434.092 341.48 440.423 349.063 447.48 355.66C461.204 368.488 475.485 380.223 488.281 394.078C491.583 397.654 500.108 410.259 502.672 412.095C503.788 417.855 502.935 425.323 501.627 431.016C496.263 429.214 486.965 422.386 482.059 419.008C457.318 401.975 441.028 382.769 426.933 356.3C423.186 349.264 419.073 341.607 417.612 333.722Z"
     id="path85" />
  <path
     fill="#EE9D48"
     d="M497.802 612.778C496.308 615.848 493.993 618.998 491.501 621.347C489.026 623.678 485.658 625.018 482.243 624.704C477.029 624.226 455.159 611.633 450.347 607.931Q447.439 605.663 444.824 603.063Q442.21 600.462 439.926 597.567C425.272 579.101 420.125 553.901 417.853 530.915C417.317 525.499 416.511 519.475 417.11 514.06C421.491 527.254 428.306 539.297 436.055 550.786C450.65 572.428 464.064 586.705 484.727 602.723C489.045 606.07 493.32 609.664 497.802 612.778Z"
     id="path86" />
  <path
     fill="#EE9D48"
     d="M419.531 243.159C432.8 277.089 452.731 307.118 482.118 329.132C487.896 333.461 493.882 337.931 500.393 341.084C499.169 343.967 497.76 346.549 495.624 348.87C493.402 351.284 490.115 353.712 486.645 353.531C486.311 353.514 485.976 353.484 485.645 353.431C481.44 352.759 472.051 344.754 467.712 342.083C460.885 337.879 442.679 331.662 438.527 327.427C435.482 324.32 433.299 320.314 431.322 316.481C419.808 294.157 419.29 267.698 419.531 243.159Z"
     id="path87" />
  <path
     fill="#F4CC7D"
     d="M593.505 614.74C597.176 613.915 600.936 613.341 604.639 612.667C603.753 618.668 599.746 625.461 597.104 630.884C585.439 654.82 567.177 673.119 546.819 689.765C538.254 696.769 528.989 703.554 521.926 712.143C520.95 704.363 520.049 696.782 520.464 688.926C526.266 679.683 530.601 671.036 538.274 663.021C546.378 654.558 555.904 646.926 564.937 639.462C571.343 634.169 590.353 621.234 593.505 614.74Z"
     id="path88" />
  <path
     fill="#06CA92"
     d="M405.634 608.575C398.078 603.551 390.609 598.221 383.682 592.353C377.648 587.241 343.667 555.087 343.25 550.082L344.36 549.686C368.369 554.146 391.893 556.306 414.988 564.832L416.519 569.782L420.445 580.353C425.206 590.655 430.387 600.154 438.053 608.654C427.211 605.793 416.041 604.324 405.122 601.798L405.634 608.575Z"
     id="path89" />
  <path
     fill="#4FE1B7"
     d="M369.261 560.542C385.113 561.831 401.364 564.913 416.519 569.782L420.445 580.353C414.238 579.186 406.603 574.826 400.601 572.35Q385.143 565.885 369.261 560.542Z"
     id="path90" />
  <path
     fill="#F4CC7D"
     d="M417.665 612.704Q425.146 614.169 432.604 615.75L432.39 616.482C435.457 621.633 442.064 625.965 446.697 629.743C463.597 643.522 483.6 657.237 495.992 675.454C497.878 678.227 499.282 681.313 500.84 684.276C501.258 685.072 501.466 685.519 502.275 685.983L502.738 684.579C503.019 693.157 502.229 701.324 500.636 709.749C494.481 705.746 488.688 699.51 482.978 694.78C456.906 673.185 441.128 661.511 425.311 629.985C422.565 624.512 419.063 618.669 417.665 612.704Z"
     id="path91" />
  <path
     fill="#F4CC7D"
     d="M595.051 423.217C598.858 421.952 603.006 421.17 606.906 420.18C591.637 456.451 573.893 482.86 541.334 505.663C535.322 509.873 528.525 515.002 521.752 517.819C520.197 511.726 519.308 505.159 520.35 498.904C522.022 497.977 527.013 488.189 528.594 485.889C531.752 481.299 535.803 477.122 539.599 473.052C549.283 462.672 559.877 453.524 570.992 444.723C578.625 438.678 588.093 432.495 594.436 425.127C595.172 424.272 595.13 424.33 595.051 423.217Z"
     id="path92" />
  <path
     fill="#EE9D48"
     d="M602.943 239.029C605.594 264.467 604.139 305.446 587.464 325.711C585.987 327.506 584.361 329.181 582.294 330.292C573.368 335.09 563.213 337.503 554.47 342.862C549.636 345.825 542.125 352.554 536.47 352.952C533.304 353.174 529.853 351.281 527.659 349.133C525.104 346.631 523.571 343.605 522.607 340.197C526.992 338.437 531.419 335.046 535.403 332.487Q537.73 331.007 540.003 329.445Q542.275 327.882 544.491 326.24Q546.707 324.598 548.862 322.878Q551.018 321.157 553.111 319.361Q555.203 317.566 557.231 315.696Q559.259 313.827 561.218 311.886Q563.178 309.946 565.067 307.937Q566.956 305.928 568.773 303.852Q570.589 301.777 572.331 299.639Q574.072 297.5 575.736 295.301Q577.4 293.101 578.984 290.844Q580.569 288.587 582.072 286.275Q583.575 283.962 584.994 281.598Q586.414 279.233 587.748 276.82Q589.083 274.406 590.33 271.947Q591.578 269.487 592.737 266.985Q596.84 257.929 599.836 248.449C600.745 245.653 601.27 242.377 602.567 239.76C602.689 239.515 602.818 239.273 602.943 239.029Z"
     id="path93" />
  <path
     fill="#F4CC7D"
     d="M598.508 334.17C600.675 333.34 603.656 331.675 605.892 332.297C606.785 333.517 606.528 334.996 606.499 336.435C602.929 343.499 600.132 350.946 596.556 358.039C583.758 383.429 566.509 403.329 542.728 418.992C536.565 423.051 529.31 428.604 522.352 431.095C520.889 425.941 520.03 421.082 519.978 415.719C522.303 412.7 523.777 407.995 525.711 404.594C530.034 396.992 536.22 390.58 542.366 384.427C550.744 376.039 559.846 368.608 569.072 361.19C579.086 353.139 590.65 344.43 598.508 334.17Z"
     id="path94" />
  <path
     fill="#F4CC7D"
     d="M415.515 422.897C415.47 421.494 415.485 420.098 415.507 418.695C419.306 418.731 424.364 420.899 428.013 422.187C433.172 429.076 441.75 435.13 448.279 440.804C459.304 450.384 470.475 460.123 480.747 470.51C485.725 475.544 491.01 480.834 495.061 486.649C497.125 489.611 500.996 497.314 503.563 499.146C504.246 504.824 503.956 511.191 502.514 516.738Q501.825 516.576 501.149 516.369C493.512 513.996 485.914 508.467 479.367 503.879C446.132 480.588 433.989 457.363 415.515 422.897Z"
     id="path95" />
  <path
     fill="#EE9D48"
     d="M415.515 422.897C433.989 457.363 446.132 480.588 479.367 503.879C485.914 508.467 493.512 513.996 501.149 516.369Q501.825 516.576 502.514 516.738C501.373 520.665 499.636 524.597 496.766 527.58C494.388 530.051 491.154 531.668 487.69 531.712C485.148 531.744 482.622 531.084 480.282 530.13C476.215 528.473 472.456 525.607 468.65 523.41C457.878 517.193 446.642 512.024 437.629 503.211C417.378 483.406 415.783 449.614 415.515 422.897Z"
     id="path96" />
  <path
     fill="#EE9D48"
     d="M605.081 514.109L606.601 513.921C609.551 519.222 603.103 556.685 601.203 563.328C595.954 581.685 584.357 602.461 567.03 611.845C561.878 614.635 556.557 617.154 551.359 619.864C547.67 621.787 543.958 624.124 540.072 625.593C533.692 623.578 529.165 619.963 525.983 614.008C525.551 613.199 525.183 612.358 524.83 611.511C528.15 610.159 531.056 606.949 533.943 604.836C551.744 591.803 567.244 577.749 579.936 559.57C584.114 553.587 606.058 519.587 605.081 514.109Z"
     id="path97" />
  <path
     fill="#EE9D48"
     d="M606.906 420.18L607.658 420.47C608.395 424.628 607.675 429.662 607.538 433.898C606.943 452.261 605.59 469.51 597.508 486.391C596.156 489.214 594.773 492.279 592.951 494.819C589.34 499.85 584.629 504.446 579.717 508.194C572.999 513.321 565.211 516.669 557.86 520.747C553.048 523.416 548.362 526.589 543.399 528.949C541.37 529.914 539.184 530.711 536.952 531.033C533.871 531.478 530.967 530.581 528.55 528.635C525.177 525.92 523.326 521.745 521.752 517.819C528.525 515.002 535.322 509.873 541.334 505.663C573.893 482.86 591.637 456.451 606.906 420.18Z"
     id="path98" />
  <path
     fill="#EE9D48"
     d="M495.626 722.871C476.756 719.133 451.889 708.053 439.071 693.488C423.931 676.283 418.774 650.918 415.786 628.794C415.089 623.631 413.922 617.853 414.225 612.664C415.392 611.961 416.361 612.467 417.665 612.704C419.063 618.669 422.565 624.512 425.311 629.985C441.128 661.511 456.906 673.185 482.978 694.78C488.688 699.51 494.481 705.746 500.636 709.749C499.493 714.36 497.717 718.618 495.626 722.871Z"
     id="path99" />
  <path
     fill="#EE9D48"
     d="M604.639 612.667L605.921 612.669C608.755 617.338 603.732 651.214 602.178 657.668C597.127 678.649 584.792 699.169 566.017 710.561C557.633 715.648 537.791 722.317 528.224 719.843C526.178 719.314 524.575 718.187 523.536 716.328C522.823 715.05 522.35 713.543 521.926 712.143C528.989 703.554 538.254 696.769 546.819 689.765C567.177 673.119 585.439 654.82 597.104 630.884C599.746 625.461 603.753 618.668 604.639 612.667Z"
     id="path100" />
  <path
     fill="#F4CC7D"
     d="M595.92 236.582Q599.35 234.55 602.821 232.589L602.943 239.029C602.818 239.273 602.689 239.515 602.567 239.76C601.27 242.377 600.745 245.653 599.836 248.449Q596.84 257.929 592.737 266.985Q591.578 269.487 590.33 271.947Q589.083 274.406 587.748 276.82Q586.414 279.233 584.994 281.598Q583.575 283.962 582.072 286.275Q580.569 288.587 578.984 290.844Q577.4 293.101 575.736 295.301Q574.072 297.5 572.331 299.639Q570.589 301.777 568.773 303.852Q566.956 305.928 565.067 307.937Q563.178 309.946 561.218 311.886Q559.259 313.827 557.231 315.696Q555.203 317.566 553.111 319.362Q551.018 321.157 548.862 322.878Q546.707 324.598 544.491 326.24Q542.275 327.882 540.003 329.445Q537.73 331.007 535.403 332.487C531.419 335.046 526.992 338.437 522.607 340.197C520.865 333.069 519.87 325.588 520.395 318.245C522.634 315.454 524.078 311.741 525.721 308.555C528.254 303.64 531.139 299.04 534.749 294.842C549.04 278.217 567.699 266.946 583.407 251.872C586.613 248.796 595.823 240.887 595.92 236.582Z"
     id="path101" />
  <path
     fill="#089163"
     d="M455.997 728.156C451.576 726.34 447.356 723.88 443.001 721.885C435.247 718.335 427.246 715.752 418.941 713.863Q411.57 712.147 404.077 711.083C399.453 710.442 394.493 710.181 390.021 708.839C378.562 705.398 363.104 685.899 357.582 675.494C350.871 662.848 347.041 648.729 343.893 634.826C343.376 632.542 341.972 628.577 342.656 626.318L343.507 626.484C344.566 629.281 351.482 634.99 353.978 637.746C377.001 663.169 401.631 689.852 433.699 703.996C435.338 704.719 437.055 705.538 438.877 705.33C443.855 708.973 448.868 713.047 454.332 715.912C459.628 718.688 466.268 720.793 471.164 724.075C472.479 724.957 472.62 726.144 472.924 727.625C467.424 727.851 461.416 727.463 455.997 728.156Z"
     id="path102" />
  <path
     fill="#089163"
     d="M661.035 715.331C662.416 715.07 663.456 714.769 664.808 715.344C665.401 719.217 664.188 723.814 663.503 727.657C660.24 745.967 654.638 762.899 643.426 778.027Q642.721 778.96 641.994 779.876Q641.266 780.792 640.517 781.69Q639.768 782.588 638.997 783.468Q638.226 784.348 637.435 785.209Q636.643 786.07 635.831 786.912Q635.019 787.753 634.187 788.575Q633.355 789.397 632.503 790.199Q631.651 791 630.78 791.781Q629.91 792.562 629.02 793.322Q628.131 794.082 627.224 794.82Q626.316 795.558 625.392 796.274Q624.467 796.99 623.525 797.683Q622.583 798.377 621.625 799.048Q620.667 799.718 619.693 800.366Q618.718 801.013 617.729 801.637Q616.74 802.261 615.735 802.86Q614.731 803.46 613.713 804.036Q612.695 804.611 611.663 805.162Q610.631 805.712 609.586 806.238Q608.541 806.764 607.484 807.264Q606.427 807.765 605.358 808.239Q604.289 808.714 603.209 809.163Q602.129 809.612 601.039 810.035Q599.948 810.458 598.848 810.854Q597.747 811.251 596.638 811.62Q595.528 811.99 594.41 812.333Q593.292 812.676 592.166 812.992Q591.039 813.308 589.906 813.597Q588.773 813.886 587.633 814.147Q586.493 814.408 585.347 814.642Q584.201 814.876 583.049 815.082Q581.898 815.289 580.742 815.467C559.699 818.584 545.279 811.883 523.485 820.314L523.407 810.084C530.941 805.7 553.926 799.353 563.227 796.486C596.677 786.174 624.517 770.712 645.239 741.392C650.984 733.263 654.789 723.749 660.669 715.812C660.789 715.65 660.913 715.491 661.035 715.331Z"
     id="path103" />
  <path
     fill="#F4CC7D"
     d="M417.11 514.06C420.667 515.061 424.433 515.896 427.882 517.203C452.346 523.338 477.387 532.893 490.963 555.615C496.756 565.31 501.029 577.117 501.569 588.471C502.797 596.404 501.177 605.529 497.802 612.778C493.32 609.664 489.045 606.07 484.727 602.723C464.064 586.705 450.65 572.428 436.055 550.786C428.306 539.297 421.491 527.254 417.11 514.06Z"
     id="path104" />
  <path
     fill="#F8FDC6"
     d="M427.882 517.203C452.346 523.338 477.387 532.893 490.963 555.615C496.756 565.31 501.029 577.117 501.569 588.471C501.473 590.332 501.594 592.195 501.675 594.055C499.371 590.922 497.809 586.854 495.756 583.49C491.786 576.986 486.702 571.251 481.381 565.827C472.327 556.598 462.582 547.833 452.698 539.509C444.892 532.936 433.984 525.332 427.882 517.203Z"
     id="path105" />
  <path
     fill="#089163"
     d="M498.018 821.22C483.586 816.226 475.36 817.481 460.577 817.159C436.092 816.626 411.876 808.774 394.048 791.432C377.516 775.352 368.784 753.249 363.71 731.154C362.677 726.655 361.149 721.517 361.08 716.922C362.338 716.422 363.047 716.722 364.349 716.92C388.821 744.509 411.644 775.615 446.062 791.574C463.004 799.43 480.957 804.793 497.987 812.313C498.006 810.156 497.963 807.98 498.084 805.827C498.8 810.771 498.196 816.22 498.018 821.22Z"
     id="path106" />
  <path
     fill="#F4CC7D"
     d="M419.728 233.093Q422.675 234.611 425.57 236.226L451.729 247.906C472.371 257.217 490.226 266.855 498.969 289.079C501.739 296.118 503.594 304.205 503.613 311.788C504.538 320.207 504.034 333.395 500.393 341.084C493.882 337.931 487.896 333.461 482.118 329.132C452.731 307.118 432.8 277.089 419.531 243.159C419.462 239.803 419.616 236.447 419.728 233.093Z"
     id="path107" />
  <path
     fill="#F8FDC6"
     d="M503.613 311.788C503.563 312.391 503.5 312.993 503.47 313.598C503.416 314.699 503.526 315.285 502.897 316.231C501.198 315.313 498.47 308.123 497.19 306.023Q494.881 302.172 492.163 298.598Q489.445 295.024 486.352 291.769C476.668 281.444 465.299 272.769 454.563 263.587C447.267 257.348 440.433 250.658 433.395 244.14C430.809 241.745 427.913 239.728 425.45 237.205L425.57 236.226L451.729 247.906C472.371 257.217 490.226 266.855 498.969 289.079C501.739 296.118 503.594 304.205 503.613 311.788Z"
     id="path108" />
  <path
     fill="#06CA92"
     d="M364.349 716.92C389.917 718.226 413.918 719.677 438.086 729.114C442.65 730.896 448.349 732.88 452.005 736.227C471.247 746.222 488.178 763.587 494.846 784.541C496.833 790.786 498.016 797.602 498.025 804.166L498.084 805.827C497.963 807.98 498.006 810.156 497.987 812.313C480.957 804.793 463.004 799.43 446.062 791.574C411.644 775.615 388.821 744.509 364.349 716.92Z"
     id="path109" />
  <path
     fill="#4FE1B7"
     d="M498.025 804.166C496.064 801.475 494.712 797.926 493.197 794.93C490.638 789.867 487.837 785.067 484.438 780.512C467.754 758.154 444.796 745.355 420.137 733.517C414.051 730.595 407.602 728.086 401.717 724.805L401.268 724.55C401.8 724.683 402.337 724.803 402.867 724.942C411.199 727.12 419.863 727.375 428.277 729.282C436.337 731.108 444.009 734.495 452.005 736.227C471.247 746.222 488.178 763.587 494.846 784.541C496.833 790.786 498.016 797.602 498.025 804.166Z"
     id="path110" />
  <path
     fill="#06B07D"
     d="M572.457 729.196C594.866 715.486 635.515 717.074 661.035 715.331C660.913 715.491 660.789 715.65 660.669 715.812C654.789 723.749 650.984 733.263 645.239 741.392C624.517 770.712 596.677 786.174 563.227 796.486C553.926 799.353 530.941 805.7 523.407 810.084L523.275 802.4C522.929 796.221 523.581 790.965 525.616 785.098C533.65 761.936 550.097 740.026 572.457 729.196Z"
     id="path111" />
  <path
     fill="#4FE1B7"
     d="M572.457 729.196C578.156 729.17 583.978 728.174 589.639 727.517Q604.628 725.816 619.596 723.934C626.242 723.095 632.938 723.063 639.57 722.267C617.318 732.086 594.422 740.28 574.43 754.499C565.356 760.953 556.987 768.653 548.77 776.146Q541.438 782.805 534.85 790.201C531.136 794.306 527.544 798.873 523.275 802.4C522.929 796.221 523.581 790.965 525.616 785.098C533.65 761.936 550.097 740.026 572.457 729.196Z"
     id="path112" />
  <path
     fill="#F4CC7D"
     d="M478.615 228.545C473.795 203.09 483.653 186.483 496.064 165.169C501.584 155.689 506.914 146.14 512.286 136.579C517.281 146.151 522.844 155.41 528.351 164.693C540.351 184.922 551.297 204.745 545.525 229.09C545.27 239.222 541.135 251.785 535.194 260.008C531.999 264.43 528.127 268.349 524.902 272.768C522.095 276.615 519.787 280.783 517.456 284.927C513.84 285.052 510.209 285.009 506.59 285.024C503.964 279.82 501.273 274.562 497.701 269.93C494.692 266.027 491.129 262.476 488.393 258.379C482.531 249.602 480.114 238.833 478.615 228.545Z"
     id="path113" />
  <path
     fill="#EE9D48"
     d="M487.827 201.265C492.929 221.192 504.072 244.8 511.891 264.167C521.46 244.064 529.401 223.564 536.538 202.485C537.592 207.264 543.222 225.778 545.525 229.09C545.27 239.222 541.135 251.785 535.194 260.008C531.999 264.43 528.127 268.349 524.902 272.768C522.095 276.615 519.787 280.783 517.456 284.927C513.84 285.052 510.209 285.009 506.59 285.024C503.964 279.82 501.273 274.562 497.701 269.93C494.692 266.027 491.129 262.476 488.393 258.379C482.531 249.602 480.114 238.833 478.615 228.545C482.254 221.849 485.202 208.927 487.827 201.265Z"
     id="path114" />
</svg>
