<?xml version="1.0" encoding="UTF-8" standalone="no"?>
<svg
   width="651.65485"
   height="649.96863"
   version="1.1"
   id="svg58"
   sodipodi:docname="city.svg"
   inkscape:version="1.3.2 (091e20ef0f, 2023-11-25)"
   xmlns:inkscape="http://www.inkscape.org/namespaces/inkscape"
   xmlns:sodipodi="http://sodipodi.sourceforge.net/DTD/sodipodi-0.dtd"
   xmlns="http://www.w3.org/2000/svg"
   xmlns:svg="http://www.w3.org/2000/svg">
  <sodipodi:namedview
     id="namedview58"
     pagecolor="#ffffff"
     bordercolor="#000000"
     borderopacity="0.25"
     inkscape:showpageshadow="2"
     inkscape:pageopacity="0.0"
     inkscape:pagecheckerboard="0"
     inkscape:deskcolor="#d1d1d1"
     inkscape:zoom="0.59614029"
     inkscape:cx="355.62099"
     inkscape:cy="138.39024"
     inkscape:window-width="1920"
     inkscape:window-height="1011"
     inkscape:window-x="0"
     inkscape:window-y="0"
     inkscape:window-maximized="1"
     inkscape:current-layer="svg58" />
  <ellipse
     style="fill:#770f41;stroke-width:7.55078;stroke-linecap:round"
     id="path60"
     cx="325.82742"
     cy="324.98431"
     rx="325.82742"
     ry="324.98431" />
  <path
     id="ellipse1"
     style="fill:#fefefe;fill-opacity:1;stroke-width:7.06925;stroke-linecap:round"
     d="M 120.99414 553.00391 A 305.04874 304.2594 0 0 0 328.00781 634.54883 A 305.04874 304.2594 0 0 0 535.02148 553.00391 L 120.99414 553.00391 z " />
  <path
     fill="#04ae6a"
     d="m 596.32139,365.44533 c 3.641,-1.81 6.481,-4.088 9.508,-6.76 -0.447,5.342 -0.836,16.699 -3.346,21.133 -2.616,-4.639 -4.486,-9.32 -6.162,-14.373 z"
     id="path3" />
  <path
     fill="#1ac580"
     d="m 112.31339,396.85133 c 0.099,-0.979 0.133,-2.007 0.677,-2.86 1.538,-2.41 5.374,-2.981 7.931,-3.596 -0.051,7.129 0.063,14.3 -0.186,21.422 -3.582,-3.958 -6.111,-10.173 -8.422,-14.966 z"
     id="path4" />
  <path
     fill="#f9d56c"
     d="m 120.70739,341.87033 c 20.688,0.044 41.373,0.433 62.06,0.315 -2.828,2.73 -5.741,4.24 -9.417,5.491 -8.902,3.027 -42.723,7.948 -52.642,8.248 z"
     id="path6" />
  <path
     fill="#d26d23"
     d="m 335.18539,263.23433 q 23.016,-0.225 46.032,-0.03 c -0.031,8.391 0.374,17.102 -0.581,25.435 -6.402,-2.94 -12.625,-7.068 -18.833,-10.476 -7.343,-4.032 -21.026,-9.609 -26.618,-14.929 z"
     id="path7" />
  <path
     fill="#e38421"
     d="m 485.30139,272.25033 c 10.809,20.22 20.148,41.235 30.041,61.912 -12.083,0.052 -24.275,0.418 -36.345,0.012 5.81,-0.494 11.754,-0.282 17.585,-0.313 -2.443,-14.522 -5.567,-28.97 -8.244,-43.459 -1.091,-5.907 -2.815,-12.174 -3.037,-18.152 z"
     id="path8" />
  <path
     fill="#e38421"
     d="m 171.96239,273.67133 c 4.887,9.118 9.144,18.65 13.678,27.953 3.446,7.07 7.656,14.293 10.132,21.744 0.806,2.427 1.321,4.862 0.748,7.384 -1.379,1.672 -3.497,1.937 -5.536,2.156 -3.622,0.389 -7.419,0.277 -11.065,0.347 -1.53,-6.139 -1.96,-12.678 -2.914,-18.946 -1.995,-13.117 -5.41,-27.376 -5.043,-40.638 z"
     id="path9" />
  <path
     fill="#04ae6a"
     d="m 94.252392,377.80333 7.873998,0.333 c 4.758,5.054 7.292,12.496 10.187,18.715 2.311,4.793 4.84,11.008 8.422,14.966 0.041,0.567 0.081,1.129 0.094,1.698 0.087,3.679 0.616,29.508 -0.286,31.604 -0.141,0.329 -0.494,0.517 -0.742,0.775 l -0.848,-0.24 c -5.389,-4.916 -14.207,-24.142 -17.923,-31.481 1.577,-0.329 3.071,-0.667 4.448,-1.542 3.183,-2.022 3.67,-5.39 4.455,-8.783 -4.553,-8.959 -10.774998,-17.225 -15.680998,-26.045 z"
     id="path10" />
  <path
     fill="#e38421"
     d="m 499.90539,342.92833 30.799,-0.042 -0.048,19.515 -64.787,-0.46 c -8.582,-0.07 -19.608,0.858 -27.961,-0.366 -0.528,-1.274 -0.454,-2.343 -0.41,-3.686 q 27.104,-0.256 54.207,0.023 c 7.535,0.01 13.95,0.093 19.643,-5.571 -0.054,-3.04 -0.824,-6.029 -0.788,-9.021 -3.548,0.004 -7.139,0.137 -10.655,-0.392 z"
     id="path11" />
  <path
     fill="#f7af37"
     d="m 510.56039,343.32033 c 0.177,0.218 0.349,0.441 0.533,0.653 0.991,1.142 2.487,1.681 3.836,2.287 l 0.653,0.991 c -0.751,1.965 -2.774,3.599 -4.234,5.09 -0.054,-3.04 -0.824,-6.029 -0.788,-9.021 z"
     id="path12" />
  <path
     fill="#f9d56c"
     d="m 277.18839,273.75233 c 1.865,0.22 3.738,0.229 5.283,1.398 1.719,3.036 0.677,8.9 -0.232,12.275 -1.772,6.57 -5.793,12.054 -11.802,15.349 -6.077,3.332 -12.449,6.11 -18.53,9.476 l -23.681,13.139 c -4.388,2.472 -9.03,5.789 -13.812,7.331 -4.801,0.133 -9.63,0 -14.434,-0.025 6.195,-4.568 14.018,-7.839 20.803,-11.484 10.437,-5.607 20.698,-11.552 31.116,-17.203 6.151,-3.336 13.201,-6.516 18.434,-11.22 5.683,-5.11 6.525,-11.837 6.855,-19.036 z"
     id="path13" />
  <path
     fill="#e38421"
     d="m 348.15139,182.46433 q 10.529,19.856 19.808,40.327 l -39.637,-0.021 c 1.116,-3.931 5.068,-8.716 7.161,-12.403 5.11,-9.003 9.579,-17.981 12.668,-27.903 z"
     id="path14" />
  <path
     fill="#f9d56c"
     d="m 324.94439,135.58833 c 2.235,3.691 4.004,7.735 5.9,11.612 -2.802,7.986 -7.58,15.774 -11.448,23.328 -7.051,13.771 -14.01,27.46 -20.328,41.59 -1.552,3.471 -4.161,6.99 -5.258,10.579 q -6.441,0.062 -12.874,-0.27 c 3.338,-7.403 7.376,-14.619 11.032,-21.879 10.911,-21.675 22.36,-43.151 32.976,-64.96 z"
     id="path15" />
  <path
     fill="#f9d56c"
     d="m 437.48939,342.82033 62.416,0.108 c 3.516,0.529 7.107,0.396 10.655,0.392 -0.036,2.992 0.734,5.981 0.788,9.021 -5.693,5.664 -12.108,5.581 -19.643,5.571 q -27.103,-0.279 -54.207,-0.023 c 0.176,-4.998 0.006,-10.064 -0.009,-15.069 z"
     id="path16" />
  <path
     fill="#f9d56c"
     d="m 170.15139,269.03133 1.811,4.64 c -0.367,13.262 3.048,27.521 5.043,40.638 0.954,6.268 1.384,12.807 2.914,18.946 q -19.858,0.13 -39.715,-0.142 c 4.104,-7.597 7.501,-15.65 11.101,-23.499 q 9.229,-20.381 18.846,-40.583 z"
     id="path17" />
  <path
     fill="#f9d56c"
     d="m 255.70339,231.73433 139.113,-0.13 c -0.249,3.065 -0.248,6.09 -0.22,9.162 l -133.135,0.057 c 0.01,3.688 1.226,9.955 -0.755,13.066 -1.215,0.688 -2.399,0.575 -3.748,0.573 l -0.852,-0.352 c -1.338,-4.674 -0.411,-16.895 -0.403,-22.376 z"
     id="path18" />
  <path
     fill="#e38421"
     d="m 182.76739,342.18533 q 18.678,-0.505 37.363,-0.444 l -0.077,20.144 c -33.123,-0.709 -66.234,-0.082 -99.359,-0.198 l 0.014,-5.763 c 9.919,-0.3 43.74,-5.221 52.642,-8.248 3.676,-1.251 6.589,-2.761 9.417,-5.491 z"
     id="path19" />
  <path
     fill="#f9d56c"
     d="m 453.59039,334.24433 c 6.165,-17.443 15.898,-33.64 23.56,-50.431 1.781,-3.902 3.046,-9.309 5.762,-12.646 0.69,-0.848 0.318,-0.619 1.363,-0.748 l 1.026,1.831 c 0.222,5.978 1.946,12.245 3.037,18.152 2.677,14.489 5.801,28.937 8.244,43.459 -5.831,0.031 -11.775,-0.181 -17.585,0.313 -8.442,0.281 -16.956,0.064 -25.407,0.07 z"
     id="path20" />
  <path
     fill="#e38421"
     d="m 394.81639,231.60433 c 0.717,7.611 0.333,15.575 0.321,23.231 l -87.563,-0.114 c -16.835,-0.014 -33.796,0.398 -50.616,-0.259 1.349,0.002 2.533,0.115 3.748,-0.573 1.981,-3.111 0.765,-9.378 0.755,-13.066 l 133.135,-0.057 c -0.028,-3.072 -0.029,-6.097 0.22,-9.162 z"
     id="path22" />
  <path
     fill="#f7af37"
     d="m 330.84439,147.20033 c 6.053,11.432 12.288,23.363 17.307,35.264 -3.089,9.922 -7.558,18.9 -12.668,27.903 -2.093,3.687 -6.045,8.472 -7.161,12.403 l -34.512,-0.073 c 1.097,-3.589 3.706,-7.108 5.258,-10.579 6.318,-14.13 13.277,-27.819 20.328,-41.59 3.868,-7.554 8.646,-15.342 11.448,-23.328 z"
     id="path23" />
  <path
     fill="#fefefe"
     d="m 314.70539,194.78833 c 2.009,-0.161 4.101,-0.231 6.011,0.515 q 0.503,0.201 0.984,0.452 0.48,0.251 0.932,0.55 0.453,0.298 0.873,0.641 0.42,0.342 0.803,0.725 0.383,0.383 0.726,0.803 0.343,0.42 0.641,0.873 0.298,0.452 0.549,0.933 0.252,0.48 0.453,0.983 c 0.946,2.386 0.985,5.124 -0.083,7.478 -1.392,3.067 -3.767,4.365 -6.788,5.501 -1.974,0.254 -4.088,0.429 -6.043,-0.067 -2.321,-0.588 -4.489,-2.404 -5.602,-4.504 q -0.244,-0.465 -0.438,-0.953 -0.194,-0.488 -0.335,-0.995 -0.141,-0.505 -0.227,-1.024 -0.087,-0.518 -0.119,-1.042 -0.031,-0.524 -0.007,-1.049 0.024,-0.525 0.104,-1.044 0.079,-0.519 0.213,-1.027 0.134,-0.508 0.321,-0.999 c 1.287,-3.461 3.815,-5.232 7.032,-6.75 z"
     id="path24" />
  <path
     fill="#f7af37"
     d="m 130.31039,370.79633 69.45,-0.024 c -0.026,28.335 0.509,56.691 0.29,85.019 -10.259,-1.343 -20.688,-1.853 -30.988,-2.937 -12.992,-1.368 -25.932,-3.248 -38.9,-4.821 z"
     id="path27" />
  <path
     fill="#770f41"
     d="m 167.69939,379.35933 c 4.813,-0.226 9.852,1.046 13.412,4.429 2.166,2.058 3.608,4.759 4.297,7.656 1.792,7.54 0.646,24.615 0.655,33.104 l -13.639,0.008 -19.79,0.11 c -0.026,-9.566 -1.971,-30.083 3.073,-37.976 2.872,-4.494 7.033,-6.173 11.992,-7.331 z"
     id="path28" />
  <path
     fill="#e38421"
     d="m 450.18939,371.08533 71.883,0.419 -0.256,76.852 -5.763,0.505 c -22.072,2.259 -44.153,5.132 -66.3,6.528 -0.413,-28.075 0.51,-56.218 0.436,-84.304 z"
     id="path29" />
  <path
     fill="#770f41"
     d="m 482.48539,383.87333 q 0.619,-0.038 1.238,-0.058 c 5.524,-0.164 11.284,1.181 15.337,5.145 8.314,8.132 5.908,24.89 5.854,35.673 l -15.528,-0.072 c -7.641,-0.035 -15.294,0.134 -22.935,0.209 -0.038,-9.719 -1.868,-23.744 3.322,-32.217 2.934,-4.789 7.348,-7.41 12.712,-8.68 z"
     id="path30" />
  <path
     fill="#4fcd94"
     d="m 27.505392,417.40833 c -3.944,-9.327 -6.22,-19.374 -8.251,-29.273 -6.047,-29.469 -8.233,-59.256 -5.375,-89.251 q 0.358,-3.904 0.814,-7.798 0.455,-3.894 1.008,-7.775 0.552,-3.882 1.201,-7.748 0.649,-3.867 1.394,-7.716 0.745,-3.849 1.586,-7.678 0.84,-3.829 1.776,-7.637 0.936,-3.807 1.966,-7.589 1.03,-3.783 2.154,-7.539 1.124,-3.756 2.342,-7.483 1.217,-3.726 2.527,-7.422 1.31,-3.695 2.711,-7.356 1.401,-3.662 2.894,-7.287 1.492,-3.626 3.074,-7.213 1.582,-3.587 3.252,-7.134 1.671,-3.546 3.43,-7.05 1.759,-3.504 3.604,-6.963 1.845,-3.459 3.776,-6.871 1.931,-3.412 3.947,-6.775 2.015,-3.363 4.113,-6.674 2.099,-3.312 4.279,-6.57 2.18,-3.259 4.441,-6.462 2.261,-3.203 4.601,-6.348 2.339,-3.146 4.757,-6.233 2.417,-3.086 4.911,-6.111 2.494,-3.026 5.062,-5.988 2.568,-2.962 5.209,-5.859 2.641,-2.898 5.353998,-5.728 2.712,-2.831 5.494,-5.593 2.782,-2.763 5.632,-5.454994 2.85,-2.692 5.767,-5.312 2.916,-2.621 5.896,-5.167 2.981,-2.547 6.024,-5.019 c 64.984,-53.509 147.285,-76.7890001 230.745,-68.541 q 3.767,0.394 7.523,0.881 3.757,0.486 7.5,1.065 3.743,0.579 7.471,1.251 3.728,0.671 7.438,1.434 3.71,0.763 7.4,1.617 3.69,0.855 7.358,1.8 3.668,0.945 7.311,1.98 3.644,1.035 7.261,2.16 3.617,1.125 7.205,2.338 3.588,1.214 7.145,2.516 3.557,1.301 7.08,2.69 3.524,1.39 7.013,2.865 3.488,1.476 6.939,3.037 3.451,1.561 6.863,3.207 3.411,1.645 6.781,3.375 3.37,1.729 6.696,3.541 3.326,1.812 6.607,3.706 3.28,1.893 6.513,3.867 3.233,1.974 6.416,4.027 3.183,2.053 6.315,4.183 3.131,2.131 6.209,4.339 3.078,2.207 6.101,4.49 3.022,2.282 5.988,4.639 2.965,2.356 5.872,4.785 2.906,2.429 5.752,4.929 2.845,2.5 5.628,5.069 2.784,2.569 5.502,5.206996 2.719,2.636998 5.372,5.339998 2.653,2.703 5.239,5.471 2.585,2.768 5.102,5.599 2.516,2.831 4.962,5.723 2.446,2.892 4.82,5.844 c -7.596,-6.202 -14.614,-13.235 -21.965,-19.74 q -15.739,-13.707994 -32.789,-25.746994 c -14.167,-9.827 -29.414,-17.84 -45.033,-25.099 -54.11,-25.147 -112.69,-36.612 -172.25,-30.655 -17.778,1.778 -35.091,5.471 -52.289,10.279 -60.435,16.894 -109.018,49.591 -148.710998,98.241994 q -2.427,3.029 -4.779,6.116 -2.352,3.088 -4.628,6.232 -2.276,3.143 -4.475,6.341 -2.199,3.199 -4.319,6.45 -2.12,3.25 -4.161,6.552 -2.041,3.301 -4,6.651 -1.96,3.351 -3.837,6.748 -1.878,3.397 -3.672,6.838 -1.794,3.442 -3.504,6.926 -1.709,3.484 -3.334,7.009 -1.624,3.525 -3.162,7.089 -1.539,3.563 -2.989,7.163 -1.451,3.6 -2.814,7.234 -1.363,3.634 -2.637,7.3 -1.274,3.666 -2.458,7.362 -1.184,3.696 -2.278,7.42 -1.094,3.724 -2.097,7.473 -1.003,3.75 -1.914,7.523 -0.911,3.772 -1.73,7.566 -0.82,3.794 -1.546,7.606 -0.727,3.813 -1.36,7.642 -0.633,3.829 -1.173,7.673 -0.541,3.843 -0.987,7.699 -0.446,3.855 -0.798,7.72 -0.352,3.866 -0.61,7.738 -0.259,3.873 -0.422,7.75 -0.164,3.878 -0.233,7.759 -0.069,3.88 -0.044,7.761 0.026,3.882 0.146,7.761 0.119,3.879 0.334,7.755 0.214,3.875 0.523,7.744 0.308,3.869 0.711,7.729 c 1.533,14.998 4.372,30.295 9.017,44.655 1.399,4.326 3.402,8.403 4.847,12.662 -4.174,-2.022 -8.012,-4.984 -12.077,-7.284 z"
     id="path31" />
  <path
     fill="#f7af37"
     d="m 31.297392,429.70833 c 2.019,1.299 4.058,2.534 6.185,3.65 13.615,7.137 29.716,11.288 44.59,14.916 40.387998,9.85 81.993998,14.149 123.399998,16.939 q 50.233,3.704 100.603,3.841 c 67.018,0.653 134.839,-0.86 201.382,-9.362 q 13.789,-1.687 27.482,-4.035 13.692,-2.347 27.256,-5.348 13.564,-3.002 26.969,-6.651 13.404,-3.649 26.618,-7.937 c -1.112,3.255 -2.28,6.333 -3.897,9.376 -11.298,5.89 -22.236,11.752 -34.478,15.565 -16.063,5.002 -32.914,7.586 -49.452,10.503 -37.378,6.593 -74.977,10.225 -112.822,12.888 -94.092,6.62 -197.13,5.347 -290.208,-10.56 -18.829,-3.218 -38.809998,-6.381 -57.064998,-12.102 -5.539,-1.737 -11.024,-3.715 -16.259,-6.237 -3.696,-1.781 -7.924,-4.661 -11.772,-5.788 -3.587,-5.834 -5.994,-13.29 -8.532,-19.658 z"
     id="path32" />
  <path
     fill="#e38421"
     d="m 39.829392,449.36633 c 3.848,1.127 8.076,4.007 11.772,5.788 5.235,2.522 10.72,4.5 16.259,6.237 18.255,5.721 38.235998,8.884 57.064998,12.102 93.078,15.907 196.116,17.18 290.208,10.56 37.845,-2.663 75.444,-6.295 112.822,-12.888 16.538,-2.917 33.389,-5.501 49.452,-10.503 12.242,-3.813 23.18,-9.675 34.478,-15.565 -4.639,10.834 -9.761,21.784 -15.692,31.977 q -22.828,6.343 -45.982,11.371 -23.153,5.027 -46.556,8.723 c -133.78,21.061 -320.035,20.192 -449.856998,-20.147 -4.879,-8.897 -10.458,-18.105 -13.969,-27.655 z"
     id="path33" />
  <defs
     id="defs34">
    <linearGradient
       id="gradient_0"
       gradientUnits="userSpaceOnUse"
       x1="631.35736"
       y1="511.14166"
       x2="398.31061"
       y2="591.73553"
       gradientTransform="translate(-186.82561,-187.23367)">
      <stop
         offset="0"
         stop-color="#F49B23"
         id="stop33" />
      <stop
         offset="1"
         stop-color="#FBB83D"
         id="stop34" />
    </linearGradient>
  </defs>
  <path
     fill="url(#gradient_0)"
     d="m 277.08739,263.19133 58.098,0.043 c 5.592,5.32 19.275,10.897 26.618,14.929 6.208,3.408 12.431,7.536 18.833,10.476 l 65.984,36.554 c -1,3.073 -2.038,6.136 -2.898,9.252 -3.904,-0.084 -10.86,-1.102 -14.181,0.984 -1.845,4.908 -1.902,27.802 -0.168,32.687 3.292,3.129 7.626,2.596 11.869,2.539 l -0.056,32.243 c -4.727,-4.758 -10.001,-8.427 -16.99,-8.585 -6.035,-0.137 -12.411,2.927 -16.581,7.187 q -0.571,0.592 -1.102,1.22 -0.53,0.629 -1.016,1.292 -0.487,0.664 -0.927,1.358 -0.44,0.695 -0.833,1.418 -0.392,0.723 -0.734,1.471 -0.343,0.747 -0.634,1.517 -0.291,0.769 -0.529,1.556 -0.239,0.788 -0.423,1.589 c -1.383,5.927 -0.775,12.57 -0.736,18.633 0.057,8.908 0.235,17.832 0.107,26.739 -14.548,0.409 -29.065,1.022 -43.621,1.17 l 0.12,-35.217 c 0.022,-8.578 0.915,-18.177 -1.088,-26.558 -1.333,-5.577 -3.975,-10.716 -8.014,-14.816 -6.002,-6.092 -14.356,-9.119 -22.835,-9.057 -8.205,0.059 -16.095,3.147 -21.807,9.114 q -0.777,0.823 -1.499,1.695 -0.721,0.872 -1.383,1.79 -0.663,0.918 -1.263,1.877 -0.601,0.96 -1.137,1.957 -0.536,0.996 -1.006,2.026 -0.469,1.03 -0.87,2.089 -0.4,1.059 -0.731,2.141 -0.33,1.083 -0.588,2.185 c -1.996,8.248 -1.232,17.57 -1.254,26.017 l -0.074,34.625 c -16.205,-0.097 -32.34,-0.712 -48.532,-1.311 l 0.292,-27.438 c 0.068,-6.338 0.728,-13.299 -0.563,-19.529 q -0.146,-0.734 -0.342,-1.457 -0.197,-0.722 -0.443,-1.429 -0.247,-0.708 -0.541,-1.396 -0.295,-0.688 -0.637,-1.354 -0.343,-0.666 -0.73,-1.307 -0.388,-0.64 -0.819,-1.252 -0.431,-0.613 -0.904,-1.193 -0.473,-0.581 -0.985,-1.127 c -3.643,-3.834 -9.104,-6.441 -14.421,-6.568 -5.975,-0.143 -11.295,2.902 -15.382,7.059 -0.341,0.347 -0.667,0.708 -0.994,1.068 l -0.067,-30.911 19.847,0.077 c 0.054,-12.569 0.433,-25.253 -0.046,-37.808 -4.674,-0.704 -9.34,-0.727 -14.057,-0.735 4.782,-1.542 9.424,-4.859 13.812,-7.331 l 23.681,-13.139 c 6.081,-3.366 12.453,-6.144 18.53,-9.476 6.009,-3.295 10.03,-8.779 11.802,-15.349 0.909,-3.375 1.951,-9.239 0.232,-12.275 -1.545,-1.169 -3.418,-1.178 -5.283,-1.398 -0.205,-3.487 -0.075,-7.063 -0.101,-10.561 z"
     id="path34"
     style="fill:url(#gradient_0)" />
  <path
     fill="#7f6e4d"
     d="m 273.71639,307.89733 c 2.266,-0.654 4.537,-1.283 6.764,-2.064 -0.092,2.268 0.305,7.234 -0.863,8.978 l -5.877,2.735 c 0.109,-3.188 0.401,-6.485 -0.024,-9.649 z"
     id="path35" />
  <path
     fill="#f9d56c"
     d="m 279.61739,314.81133 1.195,0.65 c 1.086,5.357 0.388,11.842 0.395,17.339 l 0.015,33.343 c -2.378,0.015 -4.809,0.14 -7.181,0.001 q -0.32,-24.299 -0.301,-48.598 z"
     id="path36" />
  <path
     fill="#770f41"
     d="m 273.71639,307.89733 c 0.425,3.164 0.133,6.461 0.024,9.649 q -0.019,24.301 0.301,48.598 c -10.709,-0.311 -21.241,3.728 -30.777,8.168 -0.295,-17.406 -0.082,-34.848 -0.201,-52.26 10.251,-4.807 19.922,-10.378 30.653,-14.155 z"
     id="path37" />
  <path
     fill="#770f41"
     d="m 322.99539,291.38933 q 1.329,-0.09 2.66,-0.121 c 4.377,-0.108 8.567,1.402 11.64,4.555 2.323,2.383 3.76,5.516 4.39,8.761 1.088,5.604 0.516,11.986 0.495,17.693 q -0.095,13.473 0.058,26.946 c -4.908,-2.41 -9.231,-3.495 -14.669,-3.668 -6.984,0.273 -13.187,1.469 -19.912,3.233 l -0.113,-25.276 c -0.017,-5.042 -0.358,-10.295 0.335,-15.29 q 0.27,-2.008 0.903,-3.934 0.632,-1.925 1.604,-3.703 c 2.903,-5.242 7.053,-7.618 12.609,-9.196 z"
     id="path38" />
  <path
     fill="#770f41"
     d="m 383.35039,311.36633 c 7.687,-0.571 17.579,7.034 24.357,10.683 q -0.124,29.545 0.18,59.089 l -8.304,-4.419 -28.388,-15.232 c 0.052,-9.263 -1.779,-33.59 1.538,-40.979 2.206,-4.913 5.835,-7.217 10.617,-9.142 z"
     id="path39" />
  <path
     fill="#fefefe"
     d="m 60.568392,488.08733 c 43.422998,13.89 88.988998,20.984 134.218998,25.768 q 20.514,2.201 41.092,3.69 20.579,1.488 41.196,2.263 20.617,0.775 41.249,0.835 20.632,0.06 41.254,-0.595 20.621,-0.655 41.208,-2.024 20.586,-1.37 41.113,-3.451 20.526,-2.082 40.969,-4.874 20.442,-2.792 40.775,-6.29 c 22.21,-3.994 44.119,-8.414 65.802,-14.732 -9.365,16.297 -21.346,30.765 -33.924,44.639 -17.766,20.575 -40.804,38.543 -63.87,52.777 -5.8,3.579 -16.271,10.615 -22.722,11.554 -5.858,0.852 -12.835,0.151 -18.823,0.148 l -41.474,-0.048 -164.249,-0.267 -37.587,-0.091 c -7.507,-0.022 -17.106,0.98 -24.342,-0.956 -7.244,-1.937 -15.547,-7.233 -22.08,-11 -38.461,-22.183 -78.258998,-58.252 -99.805998,-97.346 z"
     id="path40" />
  <path
     fill="#770f41"
     d="m 472.04039,563.20933 c 1.088,-0.052 2.373,-0.166 3.409,0.234 1.746,0.674 2.603,1.65 3.368,3.341 0.053,0.974 0.001,1.453 -0.456,2.35 -3.275,6.431 -36.321,17.051 -44.338,19.048 -0.877,0.133 -1.687,0.236 -2.578,0.096 -1.522,-0.24 -3.258,-1.374 -3.907,-2.82 -0.296,-0.659 -0.42,-1.533 -0.185,-2.224 0.413,-1.218 1.196,-2.086 2.323,-2.678 5.052,-2.653 11.703,-3.999 17.153,-5.952 q 13.025,-4.77 25.211,-11.395 z"
     id="path41" />
  <path
     fill="#770f41"
     d="m 544.23239,510.89433 c 0.139,-0.012 0.279,-0.027 0.418,-0.036 0.233,-0.015 0.466,-0.023 0.698,-0.037 0.738,-0.043 1.517,-0.122 2.252,-0.009 1.31,0.202 2.189,0.85 2.993,1.87 0.267,0.979 0.32,1.509 0.077,2.524 -1.805,7.549 -28.443,31.031 -35.767,35.605 -1.856,0.061 -3.71,-0.238 -5.044,-1.654 -0.844,-0.896 -1.24,-1.975 -1.131,-3.199 0.045,-0.508 0.387,-1.711 0.591,-2.107 1.205,-2.337 9.113,-7.95 11.537,-10.069 q 7.109,-6.251 13.616,-13.126 c 3.081,-3.23 6.142,-7.154 9.76,-9.762 z"
     id="path42" />
  <path
     fill="#770f41"
     d="m 94.722392,507.26233 c 0.594,-0.013 1.186,-0.022 1.78,0.024 1.507,0.117 2.454,0.951 3.532998,1.921 3.116,2.801 5.859,6.169 8.759,9.204 7.126,7.455 14.612,15.129 22.924,21.266 11.955,8.826 23.451,17.535 36.697,24.409 4.032,2.092 15.329,6.55 17.505,9.85 0.644,0.976 1.046,2.207 0.721,3.376 -0.537,1.929 -2.356,3.086 -3.94,4.08 -27.746,-8.482 -71.79,-42.361 -89.422998,-65.267 -1.409,-1.83 -2.358,-3.205 -2.096,-5.567 0.999,-1.528 2.034,-2.285 3.54,-3.296 z"
     id="path43" />
  <path
     fill="#04ae6a"
     d="m 39.582392,424.69233 c -1.445,-4.259 -3.448,-8.336 -4.847,-12.662 -4.645,-14.36 -7.484,-29.657 -9.017,-44.655 q -0.403,-3.86 -0.711,-7.729 -0.309,-3.869 -0.523,-7.744 -0.215,-3.876 -0.334,-7.755 -0.12,-3.879 -0.146,-7.761 -0.025,-3.881 0.044,-7.761 0.069,-3.881 0.233,-7.759 0.164,-3.877 0.422,-7.75 0.258,-3.873 0.61,-7.738 0.352,-3.865 0.798,-7.72 0.447,-3.856 0.987,-7.699 0.54,-3.844 1.173,-7.673 0.633,-3.829 1.36,-7.642 0.726,-3.812 1.546,-7.606 0.819,-3.794 1.73,-7.567 0.911,-3.772 1.914,-7.522 1.003,-3.749 2.097,-7.473 1.094,-3.724 2.278,-7.42 1.184,-3.696 2.458,-7.362 1.274,-3.666 2.637,-7.3 1.363,-3.634 2.814,-7.234 1.45,-3.6 2.989,-7.164 1.538,-3.563 3.162,-7.088 1.625,-3.525 3.334,-7.009 1.71,-3.484 3.504,-6.926 1.794,-3.442 3.672,-6.838 1.877,-3.397 3.837,-6.748 1.959,-3.35 4,-6.651 2.041,-3.302 4.161,-6.553 2.12,-3.25 4.319,-6.449 2.199,-3.198 4.475,-6.341 2.276,-3.144 4.628,-6.232 2.352,-3.087 4.779,-6.116 C 133.65839,86.394336 182.24139,53.697336 242.67639,36.803336 c 17.198,-4.808 34.511,-8.501 52.289,-10.279 59.56,-5.957 118.14,5.508 172.25,30.655 15.619,7.259 30.866,15.272 45.033,25.099 q 17.05,12.039 32.789,25.746994 c 7.351,6.505 14.369,13.538 21.965,19.74 7.777,8.429 14.499,17.986 20.697,27.618 30.932,48.071 49.655,110.349 48.446,167.671 1.321,35.139 -5.81,72.024 -17.66,105.007 -5.304,-4.414 -9.186,-8.935 -13.085,-14.625 6.051,-2.527 11.017,-5.183 14.943,-10.694 -6.646,-6.789 -13.739,-14.261 -17.86,-22.924 2.51,-4.434 2.899,-15.791 3.346,-21.133 l 4.969,-4.61 -4.271,-4.231 c -10.624,-9.835 -17.199,-21.726 -20.818,-35.738 -0.924,-3.576 -0.846,-7.901 -2.223,-11.217 -1.395,-0.772 -1.955,-0.668 -3.518,-0.661 -2.271,2.275 -7.926,17.652 -9.643,21.486 -4.93,11.012 -10.976,21.073 -17.686,31.081 3.251,4.016 7.012,6.022 11.689,7.902 -5.829,14.786 -14.38,29.836 -25.836,40.886 4.948,6.11 9.309,8.4 16.919,9.966 -3.06,6.024 -6.406,11.85 -10.319,17.366 -1.372,1.933 -9.572,11.991 -9.714,13.212 -0.074,0.631 0.133,1.264 0.199,1.895 -0.419,0.328 -0.529,0.453 -1.093,0.668 -1.028,0.39 -2.329,0.616 -3.278,0.102 -1.385,-5.634 -0.455,-15.704 -0.467,-21.898 l 0.025,-53.517 c 2.515,-0.036 5.295,0.134 7.486,-1.258 0.744,-1.349 0.852,-2.843 0.933,-4.36 0.324,-6.049 1.449,-27.045 -2.344,-31.386 -4.006,-1.118 -9.592,-0.349 -13.815,-0.284 -2.854,-8.4 -6.575,-16.428 -10.07,-24.573 2.023,-1.367 3.408,-3.118 4.878,-5.037 19.291,-25.201 20.834,-58.323 16.92,-88.545 l -0.581,-0.926 0.401,-1.043 c -0.981,-2.417 -1.443,-5.574 -2.132,-8.135 -1.625,-6.05 -3.332,-12.171 -5.634,-18.006 -2.342,-5.935 -10.077,-17.349 -10.868,-21.924 -0.266,-2.764 -0.684,-5.608 -1.46,-8.279 -2.294,-7.906 -6.861,-13.554 -14.048,-17.55 -3.857,-1.13 -7.638,-1.384 -11.632,-1.392 -3.178,-6.433 -7.941,-11.999 -14.534,-15.092 q -0.685,-0.319 -1.386,-0.604 -0.7,-0.284 -1.414,-0.534 -0.713,-0.25 -1.438,-0.465 -0.725,-0.214 -1.46,-0.393 -0.735,-0.179 -1.477,-0.321 -0.743,-0.142 -1.491,-0.247 -0.749,-0.106 -1.502,-0.175 -0.753,-0.068 -1.508,-0.099 -0.756,-0.032 -1.512,-0.026 -0.756,0.006 -1.511,0.049 -0.754,0.043 -1.506,0.123 -0.752,0.08 -1.499,0.197 -0.747,0.117 -1.487,0.271 -0.741,0.153 -1.472,0.343 -0.732,0.19 -1.454,0.415 -0.721,0.226 -1.431,0.487 c -8.204,3.082 -13.756,8.966 -17.308,16.859 -4.8,-0.863 -8.717,-0.858 -13.429,0.301 -37.843,-31.229 -90.099,-45.704994 -138.689,-41.052994 -49.231,4.713994 -100.692,29.974994 -134.677,65.911994 1.21,-5.971 0.213,-11.51 -0.767,-17.427 q -5.675,5.704 -10.756,11.943 c -3.62,4.488 -6.824,10.285 -11.467,13.778 q -0.477,0.363 -0.981,0.689 -0.503,0.325 -1.03,0.611 -0.528,0.286 -1.075,0.531 -0.547,0.245 -1.112,0.447 -0.565,0.202 -1.143,0.361 -0.578,0.158 -1.167,0.271 -0.589,0.114 -1.185,0.182 -0.596,0.068 -1.195,0.09 c -3.932,0.132 -7.451,-1.533 -11.013,-2.946 -1.861,-1.407 -3.396,-3.042 -4.989998,-4.731 -2.181,-3.566 -3.715,-7.197 -3.536,-11.465 0.597,-14.221 40.260998,-50.902 51.551998,-61.435994 -3.92,1.069 -8.355,4.781994 -11.666,7.177994 -24.718,17.883 -43.612998,43.151 -58.609998,69.457 -26.661,46.766 -39.224,97.49 -35.098,151.295 0.977,12.745 2.405,26.048 5.801,38.394 1.561,5.673 3.7,14.01 7.128,18.765 -3.513,6.689 -10.494,15.289 -13.039,21.476 -0.839,2.039 -1.2,4.221 -0.488,6.355 1.092,3.275 3.776,5.044 6.773,6.403 q 0.824,0.373 1.656,0.727 l -5.799,11.922 c -1.213,-0.804 -2.932,-1.686 -3.824,-2.805 z"
     id="path44" />
  <path
     fill="#fefefe"
     d="m 547.23439,208.83733 c 1.686,-5.325 3.476,-10.581 5.78,-15.679 2.096,5.318 3.633,10.89 5.797,16.154 4.646,1.685 9.376,3.304 13.661,5.806 -4.328,1.818 -8.753,3.612 -13.318,4.75 -2.228,5.509 -4.25,11.27 -6.833,16.609 -1.829,-5.31 -3.818,-10.783 -5.005,-16.273 -4.187,-1.412 -8.415,-2.753 -12.564,-4.27 l -0.581,-0.926 0.401,-1.043 z"
     id="path45" />
  <path
     fill="#fefefe"
     d="m 386.08239,61.102336 c 3.054,2.841 4.677,15.563 5.448,19.959 6.239,0.368 12.708,2.425 18.213,5.357 -6.165,2.45 -11.962,4.351 -18.492,5.553 -0.906,6.463 -2.606,12.443994 -4.65,18.614994 -0.601,0.077 -0.521,0.202 -0.945,-0.207 -2.876,-2.777 -4.799,-14.244994 -5.19,-18.323994 -6.204,-0.711 -12.041,-3.18 -17.528,-6.057 5.437,-2.233 10.901,-3.74 16.618,-5.072 1.79,-6.812 3.919,-13.29 6.526,-19.824 z"
     id="path46" />
  <path
     fill="#fefefe"
     d="m 276.84939,38.359336 c 2.943,-0.223 5.99,0.432 8.657,1.675 4.175,1.946 7.645,5.496 9.099,9.909 1.384,4.2 1.036,9.332 -1.173,13.196 -4.784,8.369 -18.418,10.006 -27.112,12.245 -3.538,0.483 -6.392,0.129 -9.58,-1.558 -4.214,-2.23 -7.705,-6.173 -9.02,-10.797 -1.166,-4.099 -0.466,-8.439 1.751,-12.057 5.284,-8.62 18.199,-10.599 27.378,-12.613 z"
     id="path47" />
  <path
     fill="#048055"
     d="m 557.37639,145.32633 c 35.669,38.679 59.044,86.908 71.656,137.686 q 2.81,11.575 4.427,23.376 c 0.767,5.406 1.029,11.464 2.686,16.666 1.321,35.139 -5.81,72.024 -17.66,105.007 -5.304,-4.414 -9.186,-8.935 -13.085,-14.625 6.051,-2.527 11.017,-5.183 14.943,-10.694 -6.646,-6.789 -13.739,-14.261 -17.86,-22.924 2.51,-4.434 2.899,-15.791 3.346,-21.133 l 4.969,-4.61 -4.271,-4.231 c 1.467,-8.052 1.01,-17.371 1.146,-25.583 0.782,-47.169 -7.65,-92.685 -27.048,-135.757 -6.685,-14.844 -15.939,-28.185 -23.031,-42.724 z"
     id="path48" />
  <path
     fill="#fefefe"
     d="m 146.74839,95.525336 c 11.345,-8.297 53.611,-36.51 65.773,-34.795 4.76,0.672 9.603,3.293 12.509,7.167 2.683,3.576 4.165,8.931 3.331,13.357 -0.986,5.234 -4.725,8.794 -9.047,11.541 -8.486,5.395 -17.642,9.711994 -26.136,15.187994 -17.573,11.33 -32.283,24.848 -47.332,39.217 q -5.675,5.704 -10.756,11.943 c -3.62,4.488 -6.824,10.285 -11.467,13.778 q -0.477,0.363 -0.981,0.689 -0.503,0.325 -1.03,0.611 -0.528,0.286 -1.075,0.531 -0.547,0.245 -1.112,0.447 -0.565,0.202 -1.143,0.361 -0.578,0.158 -1.167,0.271 -0.589,0.114 -1.185,0.182 -0.596,0.068 -1.195,0.09 c -3.932,0.132 -7.451,-1.533 -11.013,-2.946 -1.861,-1.407 -3.396,-3.042 -4.989998,-4.731 -2.181,-3.566 -3.715,-7.197 -3.536,-11.465 0.597,-14.221 40.260998,-50.902 51.551998,-61.435994 z"
     id="path49" />
  <path
     fill="#4fcd94"
     d="m 54.303392,380.61433 c -3.428,-4.755 -5.567,-13.092 -7.128,-18.765 -3.396,-12.346 -4.824,-25.649 -5.801,-38.394 -4.126,-53.805 8.437,-104.529 35.098,-151.295 14.997,-26.306 33.891998,-51.574 58.609998,-69.457 3.311,-2.396 7.746,-6.108994 11.666,-7.177994 -11.291,10.533994 -50.954998,47.214994 -51.551998,61.435994 -0.179,4.268 1.355,7.899 3.536,11.465 1.593998,1.689 3.128998,3.324 4.989998,4.731 3.562,1.413 7.081,3.078 11.013,2.946 q 0.599,-0.022 1.195,-0.09 0.596,-0.068 1.185,-0.182 0.589,-0.113 1.167,-0.272 0.578,-0.158 1.143,-0.36 0.565,-0.202 1.112,-0.447 0.547,-0.245 1.075,-0.531 0.527,-0.286 1.03,-0.611 0.504,-0.326 0.981,-0.689 c 4.643,-3.493 7.847,-9.29 11.467,-13.778 q 5.081,-6.239 10.756,-11.943 c 0.98,5.917 1.977,11.456 0.767,17.427 33.985,-35.937 85.446,-61.198 134.677,-65.911994 48.59,-4.652 100.846,9.823994 138.689,41.052994 4.712,-1.159 8.629,-1.164 13.429,-0.301 3.552,-7.893 9.104,-13.777 17.308,-16.859 q 0.71,-0.261 1.431,-0.486 0.722,-0.226 1.454,-0.416 0.731,-0.19 1.472,-0.343 0.74,-0.154 1.487,-0.271 0.747,-0.117 1.499,-0.197 0.752,-0.08 1.506,-0.123 0.755,-0.043 1.511,-0.049 0.756,-0.006 1.512,0.026 0.755,0.031 1.508,0.099 0.753,0.069 1.502,0.175 0.748,0.105 1.491,0.247 0.742,0.142 1.477,0.321 0.735,0.179 1.46,0.393 0.725,0.215 1.438,0.465 0.714,0.25 1.414,0.534 0.701,0.285 1.386,0.604 c 6.593,3.093 11.356,8.659 14.534,15.092 3.994,0.008 7.775,0.262 11.632,1.392 7.187,3.996 11.754,9.644 14.048,17.55 0.776,2.671 1.194,5.515 1.46,8.279 0.791,4.575 8.526,15.989 10.868,21.924 2.302,5.835 4.009,11.956 5.634,18.006 0.689,2.561 1.151,5.718 2.132,8.135 l -0.401,1.043 0.581,0.926 c 3.914,30.222 2.371,63.344 -16.92,88.545 -1.47,1.919 -2.855,3.67 -4.878,5.037 -3.08,-6.589 -24.441,-53.006 -26.493,-53.85 -1.738,-0.716 -3.297,-0.414 -4.958,0.304 -4.003,4.284 -7.194,13.316 -9.814,18.841 -6.84,14.423 -13.158,29.352 -20.53,43.487 -6.701,-4.464 -13.992,-8.196 -21.021,-12.119 q -20.061,-11.082 -40.003,-22.38 -0.268,-10.209 -0.176,-20.421 c 3.304,0.062 9.473,0.915 11.986,-1.562 2.434,-2.4 1.932,-26.329 1.634,-31.059 -0.158,-2.516 -0.492,-5.254 -1.972,-7.358 -5.99,-2.102 -16.503,-0.491 -23.047,-0.504 -12.101,-23.345 -23.482,-47.145 -35.253,-70.669 -4.349,-8.693 -8.695,-19.421 -13.702,-27.47 -0.846,-1.361 -1.505,-2.482 -3.136,-2.966 -0.942,-0.28 -1.779,-0.209 -2.737,-0.129 -1.723,1.444 -2.923,3.347 -4.045,5.275 -5.621,9.651 -10.268,20.076 -15.365,30.02 q -17.019,32.768 -33.302,65.908 l -24.136,-0.102 0.028,40.569 c 7.082,-0.179 14.21,-0.517 21.291,-0.347 -0.005,6.334 0.186,12.743 -0.092,19.068 -0.968,1.596 -1.909,3.102 -3.399,4.264 -6.322,4.929 -14.413,8.484 -21.475,12.353 q -19.316,10.81 -38.907,21.114 c -10.588,-24.583 -22.934,-48.057 -34.437,-72.181 -4.723,10.888 -10.379,21.445 -15.426,32.197 -8.383,17.859 -16.429,35.922 -25.184,53.6 -3.674,-0.11 -13.685,-1.341 -16.387,0.754 -1.332,1.033 -1.387,3.861 -1.388,5.367 -0.004,6.562 -0.687,21.194 0.411,26.978 0.277,1.458 0.533,2.206 1.596,3.237 2.444,0.787 5.039,0.584 7.582,0.577 q -0.026,10.042 -0.176,20.083 c -2.557,0.615 -6.393,1.186 -7.931,3.596 -0.544,0.853 -0.578,1.881 -0.677,2.86 -2.895,-6.219 -5.429,-13.661 -10.187,-18.715 l -7.873998,-0.333 c -3.43,-5.92 -6.913,-11.892 -9.71,-18.144 2.831,2.258 4.9,3.76 8.694,3.317 1.593,-0.186 3.079,-0.749 4.036,-2.119 1.225,-1.755 1.082,-4.227 0.583,-6.211 -0.987,-3.924 -4.926,-7.747 -6.849,-11.353 -6.5,-12.187 -14.138,-27.844 -17.364,-41.276 -4.404,11.751 -8.172,23.794 -13.428,35.208 -2.406,5.224 -7.719,11.648 -9.329,16.663 -0.573,1.785 -0.481,4.305 0.342,6.009 0.589,1.219 1.575,2.07 2.862,2.485 2.663,0.859 5.547,0.124 7.901,-1.204 q 1.169,-0.667 2.308,-1.384 c -2.788,7.259 -6.265,14.018 -9.995,20.82 z"
     id="path50" />
  <path
     fill="#fefefe"
     d="m 269.07339,128.54733 c 0.194,0.117 0.397,0.22 0.583,0.349 1.964,1.36 2.166,3.852 2.667,6.023 1.95,0.311 3.826,0.424 5.23,1.868 -0.269,1.353 -0.247,1.271 -1.375,2.075 -1.139,0.085 -2.82,-0.003 -3.783,0.638 -0.561,0.373 -0.801,2.024 -0.959,2.676 -0.44,1.817 -0.786,2.678 -2.041,4.115 -2.918,-2.144 -1.557,-4.651 -3.503,-6.867 -1.105,-0.252 -2.513,-0.441 -3.534,-0.912 -1.125,-0.519 -1.274,-0.918 -1.634,-1.977 1.735,-1.192 4.447,-1.004 6.548,-1.208 0.424,-2.375 0.602,-4.641 1.801,-6.78 z"
     id="path51" />
  <path
     fill="#1ac580"
     d="m 98.732392,168.42633 c 1.593998,1.689 3.128998,3.324 4.989998,4.731 -3.612,4.623 -7.730998,8.865 -11.942998,12.938 -2.244,-0.421 -4.465,-0.578 -6.737,-0.73 2.632,-5.692 9.039,-12.657 13.69,-16.939 z"
     id="path52" />
  <path
     fill="#fefefe"
     d="m 461.47139,214.11133 c 1.967,1.682 2.639,6.204 3.279,8.695 2.876,1.549 5.757,2.936 8.756,4.233 -3.036,0.926 -5.897,2.049 -8.81,3.307 -0.857,2.749 -1.69,5.364 -2.985,7.946 -1.392,-2.558 -2.367,-5.277 -3.408,-7.991 -3.192,-1.244 -6.479,-2.163 -9.765,-3.123 3.317,-1.122 6.558,-2.373 9.804,-3.685 0.889,-3.212 1.915,-6.278 3.129,-9.382 z"
     id="path53" />
  <path
     fill="#fefefe"
     d="m 123.36839,234.45833 c 0.262,0.123 0.54,0.219 0.788,0.369 2.538,1.538 3.063,6.739 3.622,9.394 2.302,0.198 5.372,0.188 7.462,1.291 1.127,0.594 1.665,1.064 2.059,2.261 -0.068,0.121 -0.118,0.253 -0.202,0.362 -1.423,1.829 -7.452,2.321 -9.827,2.845 -0.438,3.168 -0.573,6.236 -2.053,9.129 l -1.347,-0.111 c -2.558,-1.909 -2.685,-6.178 -3.18,-9.12 -2.558,-0.422 -5.758,-0.574 -7.713,-2.44 -0.706,-0.674 -0.521,-0.822 -0.565,-1.714 2.142,-2.346 5.468,-2.249 8.423,-2.537 0.528,-3.274 1.008,-6.756 2.533,-9.729 z"
     id="path54" />
  <path
     fill="#fefefe"
     d="m 166.46339,179.03933 c 0.083,0.052 0.17,0.097 0.249,0.156 3.403,2.511 3.649,8.939 4.122,12.83 2.51,0.357 5.495,0.576 7.846,1.511 1.516,0.603 2.407,1.255 3.059,2.71 l -0.62,1.073 c -3.087,1.923 -6.322,1.907 -9.857,2.216 -0.704,4.936 -1.517,9.067 -4.256,13.347 -2.713,-3.929 -3.486,-8.341 -4.247,-12.944 -0.293,-0.015 -0.586,-0.026 -0.878,-0.046 -2.923,-0.202 -8.975,-1.384 -10.933,-3.656 l 0.22,-0.955 c 3.366,-2.363 7.859,-2.905 11.806,-3.743 0.645,-4.455 1.194,-8.534 3.489,-12.499 z"
     id="path55" />
  <path
     fill="#fefefe"
     d="m 222.35539,118.15133 c 1.813,2.104 7.22,23.262 8.857,27.876 9.896,2.327 19.602,5.087 29.315,8.085 -9.045,4.318 -19.712,6.652 -29.432,8.933 q -2.826,9.04 -5.287,18.186 c -0.876,3.384 -1.454,7.011 -2.679,10.276 l -0.843,0.076 c -3.175,-9.142 -6.708,-18.919 -8.371,-28.47 -10.361,-2.137 -20.852,-5.332 -30.926,-8.565 10.159,-3.144 20.583,-5.465 30.793,-8.459 2.532,-9.342 5.502,-18.758 8.573,-27.938 z"
     id="path56" />
  <path
     fill="#fefefe"
     d="m 85.042392,185.36533 c 2.272,0.152 4.493,0.309 6.737,0.73 5.149,2.37 9.510998,5.774 11.547998,11.221 q 0.464,1.22 0.749,2.494 0.286,1.274 0.387,2.576 0.102,1.301 0.018,2.604 -0.085,1.302 -0.353,2.58 c -1.737,8.422 -6.994998,16.89 -9.782998,25.154 -2.477,7.341 -3.396,15.839 -6.668,22.79 -2.242,4.762 -5.875,8.652 -10.957,10.349 -4.829,1.612 -10.46,1.213 -14.922,-1.266 q -0.395,-0.219 -0.777,-0.459 -0.383,-0.239 -0.753,-0.498 -0.37,-0.259 -0.726,-0.537 -0.356,-0.277 -0.697,-0.573 -0.341,-0.295 -0.667,-0.608 -0.326,-0.313 -0.635,-0.642 -0.309,-0.329 -0.6,-0.673 -0.292,-0.345 -0.566,-0.704 -0.273,-0.359 -0.528,-0.732 -0.254,-0.373 -0.489,-0.758 -0.236,-0.385 -0.451,-0.782 -0.214,-0.397 -0.409,-0.805 -0.194,-0.407 -0.367,-0.824 -0.173,-0.418 -0.324,-0.843 -0.151,-0.425 -0.28,-0.858 -0.129,-0.432 -0.236,-0.871 c -0.627,-2.484 -0.694,-4.706 -0.302,-7.23 1.724,-11.109 13.587,-43.085 19.257,-52.545 3.033,-5.06 7.249,-6.911 12.794,-8.29 z"
     id="path57" />
  <path
     fill="#fefefe"
     d="m 433.40839,139.46733 c 3.552,-7.893 9.104,-13.777 17.308,-16.859 q 0.71,-0.261 1.431,-0.486 0.722,-0.226 1.454,-0.416 0.731,-0.19 1.472,-0.343 0.74,-0.154 1.487,-0.271 0.747,-0.117 1.499,-0.197 0.752,-0.08 1.506,-0.123 0.755,-0.043 1.511,-0.049 0.756,-0.006 1.512,0.026 0.755,0.031 1.508,0.099 0.753,0.069 1.502,0.175 0.748,0.105 1.491,0.247 0.742,0.142 1.477,0.321 0.735,0.179 1.46,0.393 0.725,0.215 1.438,0.465 0.714,0.25 1.414,0.534 0.701,0.285 1.386,0.604 c 6.593,3.093 11.356,8.659 14.534,15.092 3.994,0.008 7.775,0.262 11.632,1.392 7.187,3.996 11.754,9.644 14.048,17.55 0.776,2.671 1.194,5.515 1.46,8.279 -2.867,1.666 -101.738,0.879 -112.102,0.908 0.281,-4.376 0.631,-8.707 2.081,-12.879 2.51,-7.223 7.392,-11.035 14.062,-14.161 4.712,-1.159 8.629,-1.164 13.429,-0.301 z"
     id="path58" />
</svg>
