<?xml version="1.0" encoding="UTF-8" standalone="no"?>
<svg
   width="277.58279"
   height="261.85825"
   version="1.1"
   id="svg41"
   sodipodi:docname="coins.svg"
   inkscape:version="1.3.2 (091e20ef0f, 2023-11-25)"
   xmlns:inkscape="http://www.inkscape.org/namespaces/inkscape"
   xmlns:sodipodi="http://sodipodi.sourceforge.net/DTD/sodipodi-0.dtd"
   xmlns="http://www.w3.org/2000/svg"
   xmlns:svg="http://www.w3.org/2000/svg">
  <sodipodi:namedview
     id="namedview41"
     pagecolor="#ffffff"
     bordercolor="#000000"
     borderopacity="0.25"
     inkscape:showpageshadow="2"
     inkscape:pageopacity="0.0"
     inkscape:pagecheckerboard="0"
     inkscape:deskcolor="#d1d1d1"
     inkscape:zoom="2.3015135"
     inkscape:cx="385.83306"
     inkscape:cy="154.02908"
     inkscape:window-width="1920"
     inkscape:window-height="1011"
     inkscape:window-x="0"
     inkscape:window-y="0"
     inkscape:window-maximized="1"
     inkscape:current-layer="svg41" />
  <path
     id="path7"
     d="M 141.33525,0.02535013 C 118.09484,0.33255982 95.558915,3.53883 73.020794,11.820271 61.166866,16.176217 49.406412,21.944499 39.909466,30.39449 30.620526,38.659432 24.415601,47.815147 23.528607,60.453084 12.594673,70.501024 3.1874706,79.097153 1.325482,94.580037 L 1.2024351,95.55074 c -0.56499659,5.27195 -1.40015478,10.23546 -1.16015622,15.56445 L 0.091107,111.6816 c 1.2199928,15.12289 -0.81819845,22.73159 10.177734,35.26953 l 0.636719,5.82227 c 0.024,1.522 0.284072,3.18148 -0.544922,4.52148 -5.7619646,6.31595 -7.686498,13.28669 -7.4374998,21.64063 -1.94498813,10.23794 -0.2302849,26.65204 4.3046875,36.08398 3.0429823,3.71995 5.9045023,7.84625 9.3964843,11.15625 15.15991,14.36989 36.782011,23.85993 56.962891,28.79688 5.604964,1.37099 15.478352,2.10178 20.111328,4.05078 17.134891,2.196 33.780851,3.37375 51.052731,2.59375 34.36182,-1.552 80.27458,-11.88252 104.06446,-38.27735 10.75394,-11.93093 12.70905,-24.46464 11.91211,-40.01953 0.84794,-2.089 3.09242,-4.05489 4.73242,-5.58789 9.09094,-8.49494 10.06995,-14.46553 11.37695,-26.23047 0.23679,1.84907 0.29703,3.70807 0.33984,5.56641 v -30.50781 h -6.28711 v -13.50977 h -1.27148 V 69.70699 H 256.38017 V 40.945271 H 179.68876 V 2.3866783 C 174.70939,1.586759 169.73782,0.95117478 164.8372,0.60347512 156.90751,0.14197559 149.08203,-0.07705977 141.33525,0.02535013 Z" />
  <path
     fill="#dfa135"
     d="m 261.85291,110.83865 c 0.954,-1.741 1.938,-4.316 3.747,-5.243 1.575,0.138 1.778,0.611 2.913,1.658 5.461,7.067 10.192,14.754 8.835,24.148 q -0.412,2.676 -1.294,5.237 c -8.261,19.354 -27.102,30.477 -45.89,38.032 -28.816,11.587 -61.297,16.54 -92.252,14.841 -10.569,-0.58 -21.101,-2.188 -31.555,-3.778 -6.913004,-1.052 -19.610004,-2.307 -25.879004,-4.835 -0.56,-0.226 -0.435,-0.095 -0.623,-0.474 1.665,0.99 5.655,1.103 7.701,1.41 18.287004,2.744 36.353004,3.946 54.832004,3.11 35.748,-1.619 82.713,-10.661 107.625,-38.294 9.507,-10.545 12.483,-21.91 11.84,-35.812 z"
     id="path10" />
  <path
     fill="#dfa135"
     d="m 10.360906,157.29365 c 1.265,19.264 3.219,30.236 18.401,43.537 31.092,27.238 85.419004,33.899 125.244004,31.027 27.503,-1.983 58.658,-10.049 81.893,-25.211 3.149,-2.054 6.375,-4.24 9.129,-6.816 2.153,-2.015 4.362,-4.755 6.793,-6.354 -13.577,19.579 -38.604,31.644 -60.977,37.935 -47.845,13.454 -110.809004,10.488 -154.690004,-14.264 -15.964,-9.006 -28.183,-20.25 -33.232,-38.212 -0.249,-8.354 1.677,-15.326 7.439,-21.642 z"
     id="path11" />
  <path
     fill="#cd892a"
     d="m 23.527906,60.452649 c 0.373,2.809 0.5,5.57 0.592,8.398 l -0.585,0.291 c -0.264,8.557 -0.671,17.474 0.766,25.936 5.778,17.247001 20.021,29.316001 35.912,37.313001 3.721,1.872 7.695,3.41 11.284,5.514 9.965,3.618 19.889,6.535 30.235004,8.869 7.807,-1.727 17.878,1.223 25.905,1.701 15.697,0.933 32.367,1.493 47.998,-0.621 5.231,-0.707 22.612,-5.266 26.247,-3.685 16.393,-5.571 31.777,-12.22 46.278,-21.764 q -1.555,1.711 -3.161,3.373 c -26.595,27.443 -68.051,37.727 -105.321,38.265 -39.037,0.564 -94.000004,-7.414 -122.961004,-35.854 -9.576,-9.403 -15.408,-19.013 -15.516,-32.638001 l 0.124,-0.971 c 1.862,-15.483 11.269,-24.079 22.203,-34.127 z"
     id="path16" />
  <path
     fill="#ba5829"
     d="m 24.300906,95.077649 c 5.778,17.247001 20.021,29.316001 35.912,37.313001 3.721,1.872 7.695,3.41 11.284,5.514 -0.73,0.084 -1.372,0.161 -2.103,0.025 -3.647,-0.679 -7.638,-2.602 -10.979,-4.163 -11.152,-5.21 -21.511,-11.202 -28.611,-21.595 -3.172,-4.644 -6.609,-11.374 -5.503,-17.094001 z"
     id="path17" />
  <path
     fill="#8d4019"
     d="m 101.73191,146.77365 c 7.807,-1.727 17.878,1.223 25.905,1.701 15.697,0.933 32.367,1.493 47.998,-0.621 5.231,-0.707 22.612,-5.266 26.247,-3.685 -29.828,9.095 -69.764,9.843 -100.15,2.605 z"
     id="path18" />
  <defs
     id="defs21">
    <linearGradient
       id="gradient_0"
       gradientUnits="userSpaceOnUse"
       x1="619.69977"
       y1="328.97833"
       x2="598.51642"
       y2="425.16141"
       gradientTransform="translate(-238.11171,-256.40384)">
      <stop
         offset="0"
         stop-color="#693B09"
         id="stop20" />
      <stop
         offset="1"
         stop-color="#762E16"
         id="stop21" />
    </linearGradient>
  </defs>
  <path
     fill="#525025"
     d="m 2.921906,178.93565 c 5.049,17.962 17.268,29.206 33.232,38.212 43.881,24.752 106.845004,27.718 154.690004,14.264 22.373,-6.291 47.4,-18.356 60.977,-37.935 3.317,-2.56 5.462,-7.239 8.907,-10.156 0.797,15.555 -1.159,28.087 -11.913,40.018 -23.79,26.395 -69.703,36.726 -104.065,38.278 -17.272,0.78 -33.918,-0.397 -51.053004,-2.593 -4.633,-1.949 -14.505,-2.681 -20.11,-4.052 -20.181,-4.937 -41.803,-14.426 -56.963,-28.796 -3.492,-3.31 -6.353,-7.436 -9.396,-11.156 -4.535,-9.432 -6.25099995,-25.846 -4.306,-36.084 z"
     id="path22" />
  <defs
     id="defs23">
    <linearGradient
       id="gradient_1"
       gradientUnits="userSpaceOnUse"
       x1="617.6264"
       y1="284.70102"
       x2="570.59546"
       y2="405.50327"
       gradientTransform="translate(-238.11171,-256.40384)">
      <stop
         offset="0"
         stop-color="#6A3E09"
         id="stop22" />
      <stop
         offset="1"
         stop-color="#813416"
         id="stop23" />
    </linearGradient>
  </defs>
  <path
     fill="#dfa135"
     d="m 23.527906,60.452649 c 0.887,-12.638 7.091,-21.793 16.38,-30.058 9.497,-8.45 21.259,-14.218 33.113,-18.574 C 103.07191,0.77864916 133.11791,-1.2423508 164.83691,0.60364916 c 17.59,1.24800004 36.116,5.51900004 52.503,12.02399984 2.791,-2.085 5.769,-2.8329998 9.08,-3.6879998 2.197,3.1169998 5.468,6.8179998 6.636,10.4379998 14.494,9.535 32.248,20.718 35.946,38.939 1.767,8.711 0.202,16.751 -4.792,24.149 -15.331,22.716001 -47.817,34.291001 -73.856,39.182001 -45.244,8.499 -105.973004,1.448 -144.481004,-25.125001 -9.592,-6.619 -19.148,-15.859 -21.753,-27.672 -0.092,-2.828 -0.219,-5.589 -0.592,-8.398 z"
     id="path32" />
  <path
     fill="#926818"
     d="m 43.080906,68.801649 c -1.636,-7.891 -0.439,-15.537 4.002,-22.335 11.507,-17.614 38.072,-26.226 57.555004,-30.146 38.028,-7.6509998 88.999,-4.782 121.745,17.332 8.942,6.04 18.154,14.753 20.325,25.776 1.06,5.383 0.772,11.985 -1.923,16.907 0.28,-2.316 0.718,-4.621 0.93,-6.943 0.672,-7.39 -1.832,-13.728 -6.608,-19.251 -17.274,-19.98 -54.241,-28.813 -79.87,-30.535 -33.894,-2.276 -79.733004,2.75 -105.976004,26.056 -7.642,6.788 -9.638,13.094 -10.18,23.139 z"
     id="path34" />
  <path
     fill="#cd892a"
     d="m 43.080906,68.801649 c 0.542,-10.045 2.538,-16.351 10.18,-23.139 26.243,-23.306 72.082004,-28.332 105.976004,-26.056 25.629,1.722 62.596,10.555 79.87,30.535 4.776,5.523 7.28,11.861 6.608,19.251 -0.212,2.322 -0.65,4.627 -0.93,6.943 -0.232,1.735 -0.791,2.978 -1.753,4.425 -10.611,15.96 -37.027,25.064001 -55.079,28.803001 -35.841,7.425 -95.995004,1.485 -126.496004,-18.955001 -6.995,-4.688 -16.728,-13.198 -18.376,-21.807 z"
     id="path35" />
  <path
     fill="#926818"
     d="m 194.92991,52.384649 c -0.028,2.779 -0.658,4.27 -2.695,6.2 -9.723,9.215 -32.211,10.406 -44.782,9.769 -4.992,-0.253 -11.077,-0.983 -14.571,-4.962 -0.92,-1.048 -1.549,-2.096 -1.808,-3.481 7.431,3.24 15.822,4.113 23.858,4.225 13.157,0.183 30.169,-2.207 39.998,-11.751 z"
     id="path36" />
  <path
     fill="#926818"
     d="m 151.50791,79.089649 c 0.453,2.337 0.147,4.506 -1.238,6.492 -4.408,6.324 -15.64,8.775 -22.829,9.824 -10.632,1.552 -31.316004,2.122 -40.221004,-4.931 -1.299,-1.028 -2.669,-2.479 -3.154,-4.092 11.507,4.207 24.960004,4.512 37.032004,3.439 10.059,-0.894 23.518,-2.532 30.41,-10.732 z"
     id="path37" />
  <path
     fill="#dfa135"
     d="m 131.07391,59.910649 c -1.43,-1.004 -3.027,-2.156 -3.429,-3.979 -0.325,-1.472 0.302,-2.896 1.25,-3.988 5.523,-6.362 20.149,-8.457 28.085,-9.192 9.159,-0.848 28.814,-1.065 36.09,5.424 1.437,1.281 1.732,2.341 1.86,4.209 -9.829,9.544 -26.841,11.934 -39.998,11.751 -8.036,-0.112 -16.427,-0.985 -23.858,-4.225 z"
     id="path38" />
  <path
     fill="#dfa135"
     d="m 84.065906,86.382649 c -1.115,-0.857 -2.262,-1.671 -2.783,-3.049 -0.448,-1.188 -0.193,-2.493 0.455,-3.549 2.732,-4.456 10.119,-6.783 14.943,-8.079 12.517004,-3.363 38.630004,-6.033 50.195004,0.936 2.833,1.706 3.778,3.309 4.632,6.448 -6.892,8.2 -20.351,9.838 -30.41,10.732 -12.072,1.073 -25.525004,0.768 -37.032004,-3.439 z"
     id="path39" />
</svg>
