<?xml version="1.0" encoding="UTF-8" standalone="no"?>
<svg
   width="505.40469"
   height="500.98407"
   version="1.1"
   id="svg19"
   sodipodi:docname="delete-button.svg"
   inkscape:version="1.3.2 (091e20ef0f, 2023-11-25)"
   xmlns:inkscape="http://www.inkscape.org/namespaces/inkscape"
   xmlns:sodipodi="http://sodipodi.sourceforge.net/DTD/sodipodi-0.dtd"
   xmlns="http://www.w3.org/2000/svg"
   xmlns:svg="http://www.w3.org/2000/svg">
  <defs
     id="defs19" />
  <sodipodi:namedview
     id="namedview19"
     pagecolor="#ffffff"
     bordercolor="#000000"
     borderopacity="0.25"
     inkscape:showpageshadow="2"
     inkscape:pageopacity="0.0"
     inkscape:pagecheckerboard="0"
     inkscape:deskcolor="#d1d1d1"
     inkscape:zoom="0.70507812"
     inkscape:cx="251.03601"
     inkscape:cy="247.49031"
     inkscape:window-width="1920"
     inkscape:window-height="1011"
     inkscape:window-x="0"
     inkscape:window-y="0"
     inkscape:window-maximized="1"
     inkscape:current-layer="svg19" />
  <path
     fill="#68094c"
     d="m 96.760712,0.44450921 c 2.177,-0.353 4.569998,-0.324 6.776998,-0.407 9.586,-0.36 20.711,1.86499999 28.945,6.94999999 10.018,6.1859998 21.461,19.2329998 30.28,27.6559998 q 28.021,26.683 55.315,54.109 c 11.262,11.167 22.229,22.468001 33.847,33.284001 9.845,-11.421 22.289,-21.869 33.059,-32.511001 l 68.845,-68.51 c 13.498,-13.4199998 26.524,-20.42599979 45.923,-20.26799979 8.834,0.071 17.74,1.91799999 25.506,6.23599999 12.417,6.9049998 26.684,23.3619998 37.229,33.8199998 9.161,9.086 18.52,17.997 27.562,27.2 9.873,10.049 15.584,21.534 15.349,35.840001 -0.153,9.281 -2.308,18.578 -7.324,26.447 -5.092,7.989 -12.437,14.477 -19.073,21.162 q -16.194,16.353 -32.75,32.341 c -21.428,21.092 -42.321,42.718 -63.827,63.737 8.455,8.063 16.422,16.794 24.659,25.1 l 49.547,49.902 c 12.276,12.513 27.246,24.99 37.635,39.044 4.297,5.813 7.004,12.657 8.422,19.729 2.955,14.749 0.797,30.443 -7.743,42.989 -8.151,11.974 -20.534,22.089 -30.745,32.352 -10.717,10.774 -24.518,26.584 -36.568,35.04 -6.233,4.374 -12.786,7.1 -20.246,8.534 -3.238,0.596 -6.62,0.783 -9.91,0.762 -8.714,-0.056 -18.367,-2.593 -25.685,-7.414 -8.812,-5.806 -16.454,-14.227 -23.911,-21.644 l -28.422,-28.525 c -22.484,-22.664 -45.532,-44.758 -67.856,-67.579 -12.097,11.419 -23.601,23.572 -35.352,35.351 q -32.958,32.596 -65.469,65.638 c -13.372,13.458 -25.12,23.997 -45.194,23.937 -25.629998,-0.077 -36.795998,-15.355 -53.412998,-31.872 l -26.919,-26.397 c -14.226,-14.155 -24.66900031,-27.779 -24.60200031,-48.788 0.032,-10.028 2.91300001,-21.961 8.30900001,-30.48 6.7490003,-10.656 24.6890003,-26.429 34.2620003,-36.051 l 78.025998,-77.943 c -24.810998,-23.624 -48.796998,-48.183 -73.061998,-72.369 -11.771,-11.734 -29.729,-27.187 -38.8840003,-40.359 -4.662,-6.708 -7.587,-15.242 -8.70600001,-23.325 C -1.5222883,97.847509 1.9807117,82.600509 11.451712,70.279509 c 7.884,-10.258 18.295,-19.37 27.417,-28.585 9.308,-9.403 24.765,-26.881 35.022,-33.4869998 7.042,-4.535 14.622,-6.715 22.87,-7.76299999 z"
     id="path9" />
  <path
     fill="#fefefd"
     d="m 145.25071,245.21651 c 6.013,6.072 12.666,11.629 18.988,17.384 -27.587,26.599 -54.521,53.947 -81.752998,80.919 l -31.519,31.409 c -5.975,5.928 -12.363,11.671 -17.963,17.943 -2.767,3.098 -5.122,6.25 -6.589,10.185 -1.53,7.489 -1.014,12.863 1.389,20.175 -0.129,-0.117 -0.26,-0.233 -0.387,-0.353 -7.369,-6.914 -11.692,-18.286 -11.973,-28.265 -0.213,-7.559 1.411,-15.867 5.479,-22.327 5.748,-9.127 14.252,-16.83 21.87,-24.399 l 21.409,-21.236 q 20.823,-20.581 41.350998,-41.455 c 13.298,-13.266 26.767,-26.353 39.698,-39.98 z"
     id="path10" />
  <path
     fill="#fefefd"
     d="m 342.54271,265.83251 c 6.756,-6.172 12.322,-13.959 19.766,-19.338 4.555,7.977 15.827,17.595 22.503,24.424 q 27.682,28.51 55.933,56.456 c 8.783,8.767 39.722,37.532 44.28,46.501 4.765,9.378 5.469,21.07 2.648,31.122 -2.084,7.428 -6.187,13.637 -11.932,18.753 q 1.001,-2.32 1.574,-4.781 0.573,-2.461 0.7,-4.985 c 0.47,-9.703 -3.708,-16.339 -9.892,-23.174 -3.748,-4.253 -8.248,-8.069 -12.293,-12.056 l -27.934,-27.664 q -42.39,-42.916 -85.353,-85.258 z"
     id="path11" />
  <path
     fill="#8e5917"
     d="m 473.45171,98.544509 c 4.48,3.664001 8.08,7.755001 11.692,12.260001 1.426,2.07 2.463,4.191 3.516,6.46 -1.138,2.881 -2.352,5.779 -4.397,8.153 -5.965,6.925 -13.327,13.12 -19.831,19.587 l -42.377,42.322 q -22.333,22.615 -44.96,44.935 c -4.599,4.47 -9.646,10.566 -14.786,14.233 -7.444,5.379 -13.01,13.166 -19.766,19.338 -1.777,-1.535 -3.399,-3.393 -5.055,-5.067 l -12.942,-12.984 c 3.391,-4.124 7.573,-7.909 11.332,-11.717 6.386,-6.47 12.72,-13.009 19.206,-19.378 6.618,-3.691 24.047,-23.701 30.639,-30.328 z"
     id="path12" />
  <path
     fill="#d3a444"
     d="m 485.14371,110.80451 c 1.426,2.07 2.463,4.191 3.516,6.46 -1.138,2.881 -2.352,5.779 -4.397,8.153 -5.965,6.925 -13.327,13.12 -19.831,19.587 l -42.377,42.322 q -22.333,22.615 -44.96,44.935 c -4.599,4.47 -9.646,10.566 -14.786,14.233 -7.444,5.379 -13.01,13.166 -19.766,19.338 -1.777,-1.535 -3.399,-3.393 -5.055,-5.067 q 48.186,-50.064 97.387,-99.13 l 30.802,-31.166 c 6.42,-6.379 13.777,-12.657 19.467,-19.665 z"
     id="path13" />
  <path
     fill="#037452"
     d="m 26.414712,403.05651 c 1.013,0.116 1.576,0.561 2.316,1.238 5.272,4.825 10.065,10.422 15.106,15.512 l 30.524,30.654 c 6.578,6.678 13.911,11.323 23.645,11.3 6.835998,-0.016 14.226998,-1.716 20.004998,-5.469 9.993,-6.491 26.952,-25.862 36.361,-35.19 l 98.032,-98.113 c 31.337,30.569 61.551,62.37 92.448,93.394 11.721,11.769 24.825,26.555 37.176,37.016 3.094,2.621 6.51,4.555 10.389,5.78 7.88,2.49 18.449,1.757 25.727,-2.287 8.5,-4.723 43.471,-39.144 47.511,-47.841 3.321,-7.15 0.682,-12.204 2.269,-17.611 0.062,-0.211 0.133,-0.419 0.199,-0.629 6.184,6.835 10.362,13.471 9.892,23.174 q -0.127,2.524 -0.7,4.985 -0.573,2.461 -1.574,4.781 c -5.38,4.001 -10.165,9.605 -14.916,14.371 q -13.461,13.415 -26.702,27.048 c -5.313,5.503 -10.587,11.838 -17.063,15.981 -4.383,2.804 -9.918,4.39 -15.091,4.715 q -1.569,0.105 -3.141,0.08 -1.572,-0.025 -3.137,-0.181 -1.565,-0.156 -3.111,-0.442 -1.546,-0.285 -3.064,-0.698 -1.517,-0.413 -2.995,-0.951 -1.477,-0.537 -2.905,-1.196 -1.428,-0.658 -2.796,-1.433 -1.369,-0.775 -2.668,-1.661 c -9.627,-6.462 -19.391,-18.954 -27.918,-27.38 l -65.513,-65.199 c -10.961,-10.998 -21.521,-22.994 -33.198,-33.212 -11.602,10.749 -22.575,22.362 -33.744,33.567 l -58.73,59.031 q -8.623,8.674 -17.047,17.542 c -5.243,5.521 -10.373,11.702 -16.585,16.142 -7.523,5.378 -18.093,6.646 -27.035998,5.131 -4.6,-0.779 -9.729,-2.447 -13.515,-5.244 -8.586,-6.341 -18.587,-18.165 -26.533,-26.027 -8.18,-8.092 -24.504,-22.023 -30.529,-30.503 -2.403,-7.312 -2.919,-12.686 -1.389,-20.175 z"
     id="path14" />
  <path
     fill="#fefefd"
     d="m 25.154712,133.14751 c -6.644,-7.913 -9.98,-18.014 -10.205,-28.291 -0.308,-14.000001 5.463,-23.925001 14.959,-33.760001 8.049,-8.335 16.496,-16.304 24.619,-24.573 13.927,-14.177 25.991,-31.546 47.712998,-31.829 9.05,-0.118 18.116,2.138 25.726,7.13 8.341,5.472 15.058,13.635 22.041,20.701 5.732,5.8 11.718,11.367 17.502,17.12 q 41.974,42.299001 84.617,83.924001 c 4.497,-3.628 8.525,-8.193 12.593,-12.303 l 21.096,-21.318 61.098,-60.775001 c 8.51,-8.477 18.411,-20.751 28.454,-26.987 9.725,-6.04 22.231,-8.138 33.387,-5.454 4.091,0.984 8.779,2.582 12.235,5.02 11.511,8.12 25.626,23.976 35.911,34.244 8.375,8.362 17.556,16.423 25.524,25.122 1.838,2.007 3.772,4.285 5.101,6.665 4.67,8.368 3.884,20.684001 1.134,29.481001 -1.053,-2.269 -2.09,-4.39 -3.516,-6.46 -3.612,-4.505 -7.212,-8.596 -11.692,-12.260001 l -87.729,87.814001 c -6.592,6.627 -24.021,26.637 -30.639,30.328 4.522,-6.874 9.196,-13.461 12.007,-21.272 4.346,-12.076 4.062,-26.156 -1.559,-37.772 q -0.467,-0.98 -0.982,-1.936 -0.516,-0.955 -1.078,-1.884 -0.562,-0.929 -1.169,-1.829 -0.607,-0.9 -1.258,-1.769 -0.652,-0.868 -1.345,-1.704 -0.693,-0.835 -1.427,-1.635 -0.734,-0.8 -1.507,-1.563 -0.773,-0.763 -1.582,-1.486 -0.81,-0.723 -1.654,-1.406 -0.844,-0.682 -1.722,-1.322 -0.877,-0.64 -1.785,-1.235 -0.907,-0.596 -1.844,-1.146 -0.936,-0.549 -1.898,-1.052 -0.962,-0.503 -1.948,-0.957 -0.986,-0.454 -1.994,-0.859 -1.007,-0.405 -2.033,-0.76 c -17.155,-5.781 -36.576,0.755 -52.079,8.344 -12.903,11.242 -24.207,24.366 -36.356,36.409 -27.614,-29.311 -56.82,-57.239 -85.32,-85.692001 l -32.98,-32.881 c -5.952,-5.919 -11.808,-12.384 -18.278,-17.728 -5.505,-4.548 -10.485,-5.668 -17.528998,-4.949 -3.868,0.395 -7.12,2.413 -10.127,4.778 -9.396,7.389 -17.628,17.674 -26.128,26.153 -10.723,10.697 -23.705,21.579 -33.187,33.234001 -1.242,2.343 -2.463,4.664 -3.511,7.104 -2.782,9.401 -1.929,14.041 0.344,23.276 z"
     id="path15" />
  <path
     fill="#d3a444"
     d="m 288.22671,143.44351 c 2.321,-4.039 7.033,-8.043 10.24,-11.511 6.247,-6.754 13.042,-12.988 19.586,-19.451 l 29.018,-29.171001 25.498,-26.006 c 4.186,-4.216 8.438,-9.174 13.239,-12.645 4.012,-2.901 10.077,-4.321 14.963,-4.469 5.927,-0.18 11.041,1.203 16.083,4.346 8.84,5.512 15.942,14.75 23.336,22.061 q 16.434,16.179 33.262,31.947 l -87.729,87.814001 c -6.592,6.627 -24.021,26.637 -30.639,30.328 4.522,-6.874 9.196,-13.461 12.007,-21.272 4.346,-12.076 4.062,-26.156 -1.559,-37.772 q -0.467,-0.98 -0.982,-1.936 -0.516,-0.955 -1.078,-1.884 -0.562,-0.929 -1.169,-1.829 -0.607,-0.9 -1.258,-1.769 -0.652,-0.868 -1.345,-1.704 -0.693,-0.835 -1.427,-1.635 -0.734,-0.8 -1.507,-1.563 -0.773,-0.763 -1.582,-1.486 -0.81,-0.723 -1.654,-1.406 -0.844,-0.682 -1.722,-1.322 -0.877,-0.64 -1.785,-1.235 -0.907,-0.596 -1.844,-1.146 -0.936,-0.549 -1.898,-1.052 -0.962,-0.503 -1.948,-0.957 -0.986,-0.454 -1.994,-0.859 -1.007,-0.405 -2.033,-0.76 c -17.155,-5.781 -36.576,0.755 -52.079,8.344 z"
     id="path16" />
  <path
     fill="#07ad7c"
     d="m 28.321712,102.76751 c 9.482,-11.655001 22.464,-22.537001 33.187,-33.234001 8.5,-8.479 16.732,-18.764 26.128,-26.153 3.007,-2.365 6.259,-4.383 10.127,-4.778 7.043998,-0.719 12.023998,0.401 17.528998,4.949 6.47,5.344 12.326,11.809 18.278,17.728 l 32.98,32.881 c 28.5,28.453001 57.706,56.381001 85.32,85.692001 12.149,-12.043 23.453,-25.167 36.356,-36.409 15.503,-7.589 34.924,-14.125 52.079,-8.344 q 1.026,0.355 2.033,0.759 1.008,0.406 1.994,0.86 0.986,0.454 1.948,0.957 0.962,0.503 1.898,1.052 0.937,0.55 1.844,1.146 0.908,0.595 1.785,1.235 0.877,0.64 1.722,1.322 0.844,0.683 1.654,1.406 0.809,0.723 1.582,1.486 0.773,0.763 1.507,1.563 0.734,0.8 1.427,1.635 0.693,0.836 1.345,1.704 0.651,0.869 1.258,1.769 0.607,0.9 1.169,1.829 0.562,0.929 1.078,1.884 0.515,0.956 0.982,1.936 c 5.621,11.616 5.905,25.696 1.559,37.772 -2.811,7.811 -7.485,14.398 -12.007,21.272 -6.486,6.369 -12.82,12.908 -19.206,19.378 -3.759,3.808 -7.941,7.593 -11.332,11.717 l 12.942,12.984 c 1.656,1.674 3.278,3.532 5.055,5.067 q 42.963,42.342 85.353,85.258 l 27.934,27.664 c 4.045,3.987 8.545,7.803 12.293,12.056 -0.066,0.21 -0.137,0.418 -0.199,0.629 -1.587,5.407 1.052,10.461 -2.269,17.611 -4.04,8.697 -39.011,43.118 -47.511,47.841 -7.278,4.044 -17.847,4.777 -25.727,2.287 -3.879,-1.225 -7.295,-3.159 -10.389,-5.78 -12.351,-10.461 -25.455,-25.247 -37.176,-37.016 -30.897,-31.024 -61.111,-62.825 -92.448,-93.394 l -98.032,98.113 c -9.409,9.328 -26.368,28.699 -36.361,35.19 -5.778,3.753 -13.169,5.453 -20.004998,5.469 -9.734,0.023 -17.067,-4.622 -23.645,-11.3 l -30.524,-30.654 c -5.041,-5.09 -9.834,-10.687 -15.106,-15.512 -0.74,-0.677 -1.303,-1.122 -2.316,-1.238 1.467,-3.935 3.822,-7.087 6.589,-10.185 5.6,-6.272 11.988,-12.015 17.963,-17.943 l 31.519,-31.409 c 27.231998,-26.972 54.165998,-54.32 81.752998,-80.919 -6.322,-5.755 -12.975,-11.312 -18.988,-17.384 -2.668,-0.775 -5.215,-0.842 -7.964,-0.931 -25.101,-23.382 -48.873998,-48.251 -73.294998,-72.341 l -24.085,-23.661 c -4.938,-4.821 -10.595,-9.622 -14.752,-15.136 -2.273,-9.235 -3.126,-13.875 -0.344,-23.276 1.048,-2.44 2.269,-4.761 3.511,-7.104 z"
     id="path17" />
  <path
     fill="#037452"
     d="m 28.321712,102.76751 c 6.281,4.678 12.008,11.132 17.673,16.583 16.967,16.327 33.215,33.359 49.826,50.043 q 23.159998,23.528 46.993998,46.374 c 11.711,11.206 23.92,22.133 35.275,33.68 -3.17,3.077 -6.494,5.984 -9.67,9.044 -12.755,-12.693 -26.272,-24.529 -39.332,-36.894 q -33.939998,-32.677 -67.294998,-65.952 c -10.097,-10.248 -21.696,-19.965 -30.332,-31.463 -2.795,-3.721 -4.657,-8.193 -5.852,-12.662 -0.173,-0.647 -0.412,-1.105 -0.798,-1.649 1.048,-2.44 2.269,-4.761 3.511,-7.104 z"
     id="path18" />
  <path
     fill="#79df8b"
     d="m 323.49271,134.90551 q 1.393,-0.09 2.789,-0.127 c 10.827,-0.267 20.814,3.872 28.592,11.352 7.825,7.525 12.929,18.139 13.085,29.084 0.065,4.579 -0.76,10.319 -3.12,14.29 -4.521,7.613 -15.227,15.746 -21.733,22.118 -12.63,12.371 -25.28,24.925 -37.646,37.555 13.251,14.806 28.238,28.511 42.311,42.568 10.614,10.602 19.71,20.633 19.594,36.522 -0.075,10.272 -4.127,20.413 -11.528,27.568 -7.535,7.286 -17.279,10.57 -27.67,10.262 -6.726,-0.199 -12.936,-1.814 -18.742,-5.253 -9.899,-5.865 -17.583,-15.726 -25.521,-23.9 q -15.906,-16.06 -31.311,-32.601 c -9.77,10.258 -19.862,20.242 -29.831,30.309 -8.775,8.861 -18.032,20.19 -28.703,26.638 -5.072,3.064 -10.661,4.212 -16.477,4.833 -11.499,0.307 -22.611,-2.241 -31.179,-10.354 -7.185,-6.802 -11.155,-16.641 -11.329,-26.462 -0.13,-7.329 1.387,-14.547 4.865,-21.024 5.174,-9.637 14.324,-17.336 21.828,-25.121 l 33.872,-34.636 -9.596,-9.054 c -8.734,-8.39 -17.143,-17.154 -25.691,-25.736 -6.706,-6.734 -14.948,-13.316 -19.916,-21.455 q -0.642,-1.05 -1.212,-2.142 -0.57,-1.091 -1.065,-2.218 -0.495,-1.128 -0.913,-2.286 -0.418,-1.158 -0.756,-2.341 -0.339,-1.184 -0.597,-2.388 -0.258,-1.204 -0.435,-2.422 -0.176,-1.219 -0.27,-2.446 -0.093,-1.228 -0.104,-2.459 c -0.117,-10.344 3.669,-20.816 10.958,-28.245 6.956,-7.088 15.991,-10.4 25.843,-10.357 6.318,0.028 12.799,1.38 18.251,4.683 9.364,5.673 24.476,22.872 32.983,31.378 9.791,9.791 19.967,19.191 29.752,28.995 q 18.812,-19.471 38.047,-38.525 c 7.783,-7.838 15.792,-17.438 24.792,-23.745 2.609,-1.828 4.639,-2.425 7.783,-2.858 z"
     id="path19" />
</svg>
