<?xml version="1.0" encoding="UTF-8" standalone="no"?>
<svg
   width="1119.1786"
   height="853.37347"
   version="1.1"
   id="svg107"
   sodipodi:docname="granary.svg"
   inkscape:version="1.4 (e7c3feb100, 2024-10-09)"
   xmlns:inkscape="http://www.inkscape.org/namespaces/inkscape"
   xmlns:sodipodi="http://sodipodi.sourceforge.net/DTD/sodipodi-0.dtd"
   xmlns="http://www.w3.org/2000/svg"
   xmlns:svg="http://www.w3.org/2000/svg">
  <sodipodi:namedview
     id="namedview107"
     pagecolor="#ffffff"
     bordercolor="#000000"
     borderopacity="0.25"
     inkscape:showpageshadow="2"
     inkscape:pageopacity="0.0"
     inkscape:pagecheckerboard="0"
     inkscape:deskcolor="#d1d1d1"
     inkscape:zoom="0.39912863"
     inkscape:cx="202.94209"
     inkscape:cy="435.94968"
     inkscape:window-width="1440"
     inkscape:window-height="831"
     inkscape:window-x="0"
     inkscape:window-y="0"
     inkscape:window-maximized="1"
     inkscape:current-layer="svg107" />
  <g
     id="g1"
     transform="matrix(0.77457804,0,0,0.77457804,0,293.78413)">
    <rect
       style="fill:#96b006;stroke-width:9.48831;stroke-linecap:round"
       id="rect6"
       width="807.71704"
       height="807.71704"
       x="-403.85852"
       y="403.85852"
       transform="matrix(0.89442719,-0.4472136,0.89442719,0.4472136,0,0)" />
  </g>
  <path
     id="rect108"
     style="fill:#c1875f;fill-opacity:1;stroke-width:5.568;stroke-linecap:round"
     d="M 501.9685,361.63001 V 657.27454 H 877.78685 V 573.6886 c -5.9021,3.86372 -11.8405,7.51272 -16.1836,9.10156 l -1.6679,-0.71094 c -0.784,-13.666 -0.1704,-27.7082 -0.1504,-41.4082 l 0.1172,-84.91211 c 0,-15.093 0.5,-30.40747 -0.211,-45.48047 6.1627,-3.31922 12.1583,-6.91436 18.0957,-10.60546 v -38.04297 z" />
  <path
     fill="#cd5727"
     d="m 258.10227,413.2481 c 16.514,9.795 32.497,20.438 48.876,30.448 q 78.121,47.871 155.578,96.811 l 62.069,39.142 23.133,14.751 c 3.616,2.292 7.478,5.224 11.368,6.956 0.711,15.073 0.214,30.388 0.21,45.481 l -0.116,84.912 c -0.02,13.7 -0.634,27.741 0.15,41.407 -17.595,-10.417 -34.767,-21.547 -52.409,-31.881 l -35.279,-20.428 c -5.437,-3.193 -12.468,-6.434 -17.023,-10.781 -3.984,1.798 -14.964,5.854 -17.145,8.946 l -2.737,-1.37 -0.926,-0.639 c -5.796,-4.684 -12.384,-8.344 -18.013,-13.201 -1.958,3.669 -0.206,11.453 -0.241,15.623 -13.356,8.717 -26.373,17.987 -39.778,26.606 -2.189,1.11 -4.842,2.129 -6.787,3.598 l -0.467,0.22 c -3.86,-0.861 -48.779,-29.525 -56.585,-34.331 l -0.018,-2.274 c 1.527,-3.021 8.807,-5.564 11.873,-7.415 q -0.037,-6.025 0.154,-12.047 c 3.947,-2.198 8.693,-4.349 13.019,-5.65 1.05,-3.985 -1.01,-9.218 0.799,-12.943 3.45,-1.856 6.904,-3.66 10.441,-5.347 l 1.367,-1.026 c -0.017,-1.128 0.061,-2.52 -0.213,-3.611 -0.774,-3.092 -9.012,-7.192 -11.732,-9.168 -0.229,-8.002 -0.09,-16.013 -0.345,-24.021 -11.515,-6.661 -22.534,-14.298 -33.716,-21.5 l -45.074,-28.635 -0.074,-20.253 c 0.19,-1.566 0.219,-2.68 -0.155,-4.219 -0.109,-12.741 0.953,-25.656 -0.075,-38.36 -0.313,-12.201 -0.1,-24.459 -0.1,-36.667 -0.327,-23.026 -0.021,-46.103 -0.029,-69.134 z"
     id="path3" />
  <path
     fill="#f9e3a4"
     d="m 375.73127,512.9081 c 25.437,6.737 45.536,25.364 61.512,45.501 5.594,7.051 10.706,14.51 16.356,21.503 0.982,1.084 1.366,1.349 1.532,2.845 0.558,5.029 0.034,10.689 -0.02,15.768 l -0.305,32.734 -0.147,53.669 c -0.009,8.036 0.374,16.224 0.055,24.244 -0.012,0.298 -0.037,0.596 -0.055,0.894 -3.984,1.798 -14.964,5.854 -17.145,8.946 l -2.737,-1.37 -0.926,-0.639 c -5.796,-4.684 -12.384,-8.344 -18.013,-13.201 -1.958,3.669 -0.206,11.453 -0.241,15.623 -13.356,8.717 -26.373,17.987 -39.778,26.606 -2.189,1.11 -4.842,2.129 -6.787,3.598 l -0.467,0.22 c -3.86,-0.861 -48.779,-29.525 -56.585,-34.331 l -0.018,-2.274 c 1.527,-3.021 8.807,-5.564 11.873,-7.415 q -0.037,-6.025 0.154,-12.047 c 3.947,-2.198 8.693,-4.349 13.019,-5.65 1.05,-3.985 -1.01,-9.218 0.799,-12.943 3.45,-1.856 6.904,-3.66 10.441,-5.347 l 1.367,-1.026 c -0.017,-1.128 0.061,-2.52 -0.213,-3.611 -0.774,-3.092 -9.012,-7.192 -11.732,-9.168 -0.229,-8.002 -0.09,-16.013 -0.345,-24.021 -0.131,-9.917 -0.918,-93.034 0.437,-95.962 12.384,-8.065 25.295,-15.535 37.969,-23.146 z"
     id="path4" />
  <path
     fill="#c1875f"
     d="m 453.59927,579.9121 c 0.982,1.084 1.366,1.349 1.532,2.845 0.558,5.029 0.034,10.689 -0.02,15.768 l -0.305,32.734 -0.147,53.669 c -0.009,8.036 0.374,16.224 0.055,24.244 -0.012,0.298 -0.037,0.596 -0.055,0.894 -3.984,1.798 -14.964,5.854 -17.145,8.946 l -2.737,-1.37 c -0.521,-29.043 -0.293,-58.183 -0.274,-87.235 0.006,-10.06 1.102,-29.061 -0.315,-38.295 6.326,-4.305 12.865,-8.242 19.411,-12.2 z"
     id="path5" />
  <path
     fill="#c1875f"
     d="m 414.84127,682.3921 c 1.699,4.55 -1.001,18.632 0.997,21.41 -1.958,3.669 -0.206,11.453 -0.241,15.623 -13.356,8.717 -26.373,17.987 -39.778,26.606 l -0.101,-3.553 c 10e-4,-3.661 -0.304,-7.536 0.036,-11.171 0.148,-1.579 0.178,-1.66 1.332,-2.652 0.314,-0.028 0.756,-0.058 1.081,-0.117 2.776,-0.507 10.64,-2.831 12.27,-5.155 -0.148,-2.966 -1.065,-11.885 0.345,-14.231 3.249,-1.23 9.916,-2.991 11.885,-6.027 -0.166,-0.697 -0.175,-0.671 -0.287,-1.514 -0.405,-3.043 -1.03,-9.895 0.811,-12.403 3.979,-1.319 8.01,-4.633 11.65,-6.816 z"
     id="path6" />
  <path
     fill="#2a5603"
     d="m 355.71727,654.1981 c -0.6,-13.505 0.005,-27.333 0.004,-40.863 -10e-4,-14.594 -0.599,-29.444 0.103,-43.993 0.101,-2.099 0.207,-4.206 1.035,-6.164 1.467,-3.469 4.658,-6.021 8.143,-7.283 3.474,-1.258 7.91,-1.245 11.247,0.41 14.635,7.343 28.255,20.132 37.903,33.351 q 0.183,17.098 0.543,34.193 c 0.001,14.398 0.29,28.855 -0.005,43.245 -12.599,-7.836 -25.366,-15.421 -38.059,-23.104 -4.329,-0.321 -16.203,7.934 -20.914,10.208 z"
     id="path7" />
  <path
     fill="#c1875f"
     d="m 355.71727,654.1981 c -0.6,-13.505 0.005,-27.333 0.004,-40.863 -10e-4,-14.594 -0.599,-29.444 0.103,-43.993 0.101,-2.099 0.207,-4.206 1.035,-6.164 1.467,-3.469 4.658,-6.021 8.143,-7.283 3.474,-1.258 7.91,-1.245 11.247,0.41 -0.981,9.634 -0.03,20.2 0.074,29.917 l 0.43,57.38 -0.122,0.388 c -4.329,-0.321 -16.203,7.934 -20.914,10.208 z"
     id="path8" />
  <path
     fill="#873129"
     d="m 414.69527,623.8491 c 0.001,14.398 0.29,28.855 -0.005,43.245 -12.599,-7.836 -25.366,-15.421 -38.059,-23.104 l 0.122,-0.388 c 9.525,-3.527 29.207,-13.752 37.942,-19.753 z"
     id="path9" />
  <path
     fill="#873129"
     d="m 865.69225,406.3631 c 1.194,6.519 0.255,18.806 0.236,25.878 -0.059,20.858 -0.539,42.097 0.6,62.918 -10.334,13.804 -15.297,27.676 -17.666,44.668 -0.655,4.701 -1.425,10.039 -0.74,14.776 0.054,0.376 0.14,0.746 0.222,1.116 1.961,8.532 4.982,18.346 10.938,25.011 -12.582,8.084 -25.537,15.562 -38.24098,23.449 -9.096,5.647 -18.363,12.375 -28.04,16.94 l 0.141,32.934 c -1.305,0.956 -2.595,1.94 -3.951,2.821 -4.027,2.464 -9.482,7.905 -14.09,8.447 -1.227,-0.468 -1.621,-0.899 -2.393,-1.951 -6.492,3.215 -12.837,8.382 -19.076,12.218 -13.657,8.396 -28.038,16.234 -41.167,25.427 -4.612,4.181 -10.364,6.816 -15.48,10.284 -2.498,1.831 -4.967,3.805 -7.546,5.512 -6.431,-3.606 -12.796,-8.024 -19.501,-11.017 -5.759,4.714 -13.23,8.417 -19.518,12.499 -19.559,12.699 -39.223,24.968 -59.08,37.192 -7.983,4.915 -22.137,15.395 -30.302,18.382 l -1.668,-0.711 c -0.784,-13.666 -0.17,-27.707 -0.15,-41.407 l 0.116,-84.912 c 0.004,-15.093 0.501,-30.408 -0.21,-45.481 14.352,-7.73 27.887,-16.809 41.565,-25.651 l 55.749,-35.818 q 105.313,-65.685 209.25198,-133.524 z"
     id="path10" />
  <path
     fill="#873129"
     d="m 793.36227,525.8211 c -1.344,31.677 0.24,63.582 -0.361,95.298 l 0.141,32.934 c -1.305,0.956 -2.595,1.94 -3.951,2.821 -4.027,2.464 -9.482,7.905 -14.09,8.447 -1.227,-0.468 -1.621,-0.899 -2.393,-1.951 -6.492,3.215 -12.837,8.382 -19.076,12.218 -13.657,8.396 -28.038,16.234 -41.167,25.427 -0.419,-7.013 -0.184,-14.159 -0.199,-21.187 -0.015,-6.99 -0.319,-14.161 0.316,-21.119 0.33,-7.242 0.084,-14.567 0.007,-21.813 -0.342,-8.384 -0.01,-16.895 0.027,-25.289 0.043,-9.803 -0.154,-19.675 0.326,-29.465 2.889,-1.916 3.981,-7.264 6.333,-10.104 5.708,-10.805 19.935,-26.718 31.687,-31.276 q 0.55,-0.217 1.109,-0.406 0.56,-0.189 1.128,-0.351 0.569,-0.162 1.144,-0.296 0.576,-0.133 1.157,-0.238 0.582,-0.105 1.168,-0.182 0.585,-0.076 1.174,-0.124 0.589,-0.048 1.18,-0.066 0.59,-0.019 1.181,-0.009 0.591,0.011 1.181,0.05 0.589,0.039 1.176,0.108 0.587,0.068 1.17,0.165 0.583,0.097 1.16,0.222 0.577,0.126 1.148,0.28 0.57,0.153 1.133,0.335 0.562,0.181 1.115,0.39 0.552,0.209 1.094,0.445 l 0.281,0.83 c 7.189,-3.803 18.261,-10.176 23.701,-16.094 z"
     id="path11" />
  <path
     fill="#22939e"
     d="m 793.36227,525.8211 c -1.344,31.677 0.24,63.582 -0.361,95.298 l 0.141,32.934 c -1.305,0.956 -2.595,1.94 -3.951,2.821 -4.027,2.464 -9.482,7.905 -14.09,8.447 -1.227,-0.468 -1.621,-0.899 -2.393,-1.951 0.797,-18.883 -0.649,-38.138 -1,-57.048 -0.369,-19.94 0.255,-40.134 -0.691,-60.029 -0.076,-1.604 -0.054,-2.714 -1.133,-3.929 -2.206,2.558 -6.244,4.261 -9.237,5.829 -9.608,4.762 -18.89,10.356 -28.052,15.913 -4.267,2.588 -8.741,6.063 -13.32,7.932 5.708,-10.805 19.935,-26.718 31.687,-31.276 q 0.55,-0.217 1.109,-0.406 0.56,-0.189 1.128,-0.351 0.569,-0.162 1.144,-0.296 0.576,-0.133 1.157,-0.238 0.582,-0.105 1.168,-0.182 0.585,-0.076 1.174,-0.124 0.589,-0.048 1.18,-0.066 0.59,-0.019 1.181,-0.009 0.591,0.011 1.181,0.05 0.589,0.039 1.176,0.108 0.587,0.068 1.17,0.165 0.583,0.097 1.16,0.222 0.577,0.126 1.148,0.28 0.57,0.153 1.133,0.335 0.562,0.181 1.115,0.39 0.552,0.209 1.094,0.445 l 0.281,0.83 c 7.189,-3.803 18.261,-10.176 23.701,-16.094 z"
     id="path12" />
  <path
     fill="#246a58"
     d="m 719.27527,572.0381 c 4.579,-1.869 9.053,-5.344 13.32,-7.932 9.162,-5.557 18.444,-11.151 28.052,-15.913 0.127,19.159 0.911,38.549 0.273,57.684 -11.133,6.317 -21.928,13.531 -32.545,20.678 -5.069,3.412 -10.282,7.708 -15.786,10.341 -0.342,-8.384 -0.01,-16.895 0.027,-25.289 0.043,-9.803 -0.154,-19.675 0.326,-29.465 2.889,-1.916 3.981,-7.264 6.333,-10.104 z"
     id="path13" />
  <path
     fill="#081627"
     d="m 760.92027,605.8771 c -0.169,5.631 -1.723,14.91 1.481,19.693 -4.082,3.47 -9.095,6.253 -13.597,9.179 l -22.377,14.728 c -4.616,3.028 -9.476,5.857 -13.845,9.232 0.33,-7.242 0.084,-14.567 0.007,-21.813 5.504,-2.633 10.717,-6.929 15.786,-10.341 10.617,-7.147 21.412,-14.361 32.545,-20.678 z"
     id="path14" />
  <path
     fill="#dde2d6"
     d="m 667.34827,581.8421 c 0.091,-0.556 0.094,-0.764 0.365,-1.339 2.54,-5.402 9.325,-12.978 12.941,-18.338 3.976,-5.893 7.414,-12.129 11.463,-17.984 11.417,-16.514 27.929,-33.926 48.119,-38.724 11.268,-2.678 18.917,0.81 28.572,6.17 4.165,2.312 8.374,4.584 12.431,7.081 3.159,1.597 10.224,4.318 12.123,7.113 -5.44,5.918 -16.512,12.291 -23.701,16.094 l -0.281,-0.83 q -0.542,-0.236 -1.095,-0.445 -0.552,-0.209 -1.114,-0.39 -0.563,-0.182 -1.133,-0.335 -0.571,-0.154 -1.148,-0.28 -0.577,-0.125 -1.16,-0.222 -0.583,-0.097 -1.17,-0.165 -0.587,-0.069 -1.176,-0.108 -0.59,-0.039 -1.181,-0.05 -0.591,-0.01 -1.181,0.009 -0.591,0.018 -1.18,0.066 -0.589,0.048 -1.174,0.124 -0.586,0.077 -1.168,0.182 -0.581,0.105 -1.157,0.238 -0.575,0.134 -1.144,0.296 -0.568,0.162 -1.128,0.351 -0.559,0.189 -1.109,0.406 c -11.752,4.558 -25.979,20.471 -31.687,31.276 -2.352,2.84 -3.444,8.188 -6.333,10.104 -6.151,3.521 -16.796,10.606 -22.853,13.01 l -0.216,0.11 c -7.842,-3.319 -15.526,-8.582 -22.525,-13.42 z"
     id="path15" />
  <path
     fill="#c1875f"
     d="m 690.08927,595.1521 c 0.079,-0.305 0.153,-0.611 0.238,-0.914 1.296,-4.635 4.788,-9.732 7.238,-13.916 12.904,-22.037 29.466,-42.939 52.382,-55.117 8.654,-4.599 21.002,-9.295 30.906,-6.292 -1.022,3.243 -9.385,20.384 -11.473,22.172 q -0.542,-0.236 -1.095,-0.445 -0.552,-0.209 -1.114,-0.39 -0.563,-0.182 -1.133,-0.335 -0.571,-0.154 -1.148,-0.28 -0.577,-0.125 -1.16,-0.222 -0.583,-0.097 -1.17,-0.165 -0.587,-0.069 -1.176,-0.108 -0.59,-0.039 -1.181,-0.05 -0.591,-0.01 -1.181,0.009 -0.591,0.018 -1.18,0.066 -0.589,0.048 -1.174,0.124 -0.586,0.077 -1.168,0.182 -0.581,0.105 -1.157,0.238 -0.575,0.134 -1.144,0.296 -0.568,0.162 -1.128,0.351 -0.559,0.189 -1.109,0.406 c -11.752,4.558 -25.979,20.471 -31.687,31.276 -2.352,2.84 -3.444,8.188 -6.333,10.104 -6.151,3.521 -16.796,10.606 -22.853,13.01 z"
     id="path16" />
  <path
     fill="#22939e"
     d="m 690.08927,595.1521 c 6.057,-2.404 16.702,-9.489 22.853,-13.01 -0.48,9.79 -0.283,19.662 -0.326,29.465 -0.037,8.394 -0.369,16.905 -0.027,25.289 0.077,7.246 0.323,14.571 -0.007,21.813 -0.635,6.958 -0.331,14.129 -0.316,21.119 0.015,7.028 -0.22,14.174 0.199,21.187 -4.612,4.181 -10.364,6.816 -15.48,10.284 -2.498,1.831 -4.967,3.805 -7.546,5.512 l 0.106,-83.426 c -0.028,-9.029 -1.285,-30.124 0.328,-38.123 z"
     id="path17" />
  <path
     fill="#4fabb7"
     d="m 667.34827,581.8421 c 6.999,4.838 14.683,10.101 22.525,13.42 -1.613,7.999 -0.356,29.094 -0.328,38.123 l -0.106,83.426 c -6.431,-3.606 -12.796,-8.024 -19.501,-11.017 -0.764,-0.915 -1.049,-1.603 -1.155,-2.813 -0.874,-9.974 -0.137,-20.512 -0.21,-30.554 l -0.575,-66.028 c -0.072,-7.814 0.776,-16.925 -0.65,-24.557 z"
     id="path18" />
  <path
     fill="#96b006"
     d="m 866.52825,495.1591 c 1.932,-1.687 3.641,-3.386 5.004,-5.579 4.826,-7.762 8.776,-24.963 12.592,-34.488 4.178,-10.429 20.315,-40.701 27.763,-47.55 l 0.483,0.248 c 19.492,23.178 34.237,44.32 44.261,73.232 2.247,6.478 4.973,14.253 4.319,21.216 -0.895,9.517 -6.248,19.921 -10.674,28.243 -2.996,4.966 -6.581,12.736 -11.171,16.233 -1.782,1.357 -3.992,2.392 -5.947,3.497 -0.517,0.292 -1.777,0.963 -1.892,1.588 -0.429,2.326 0.227,5.329 -0.123,7.868 -0.431,2.144 -0.784,4.339 -1.364,6.447 q -2.614,6.551 -5.614,12.934 l -1.552,3.178 -20.088,26.026 -4.794,-0.245 c -2.511,-0.466 -4.967,-1.193 -7.429,-1.861 -7.651,-4.502 -15.342,-9.213 -21.794,-15.383 -3.275,-3.131 -6.104,-6.748 -9.226,-10.033 -5.956,-6.665 -8.977,-16.479 -10.938,-25.011 -0.082,-0.37 -0.168,-0.74 -0.222,-1.116 -0.685,-4.737 0.085,-10.075 0.74,-14.776 2.369,-16.992 7.332,-30.864 17.666,-44.668 z"
     id="path22"
     style="fill:#7f9606;fill-opacity:1" />
  <path
     fill="#2a5603"
     d="m 920.91325,523.1571 c -2.227,-38.546 -5.465,-76.885 -8.543,-115.367 19.492,23.178 34.237,44.32 44.261,73.232 2.247,6.478 4.973,14.253 4.319,21.216 -0.895,9.517 -6.248,19.921 -10.674,28.243 -2.996,4.966 -6.581,12.736 -11.171,16.233 -1.782,1.357 -3.992,2.392 -5.947,3.497 -0.517,0.292 -1.777,0.963 -1.892,1.588 -0.429,2.326 0.227,5.329 -0.123,7.868 -0.431,2.144 -0.784,4.339 -1.364,6.447 q -2.614,6.551 -5.614,12.934 l -1.552,3.178 -20.088,26.026 -4.794,-0.245 c 0.014,-9.967 -0.1,-19.734 -1.071,-29.658 l -0.696,-7.123 c 11.671,-7.336 22.507,-17.604 33.071,-26.453 -1.083,-8.457 -5.374,-13.901 -8.122,-21.616 z"
     id="path23" />
  <path
     fill="#517003"
     d="m 880.98525,477.0461 c 5.57,5.535 9.854,12.4 14.946,18.383 8.355,9.82 16.225,17.245 24.262,27.87 l 0.72,-0.142 c 2.748,7.715 7.039,13.159 8.122,21.616 -10.564,8.849 -21.4,19.117 -33.071,26.453 -1.815,-14.774 -3.752,-29.628 -6.483,-44.263 -3.092,-16.571 -7.058,-33.093 -8.496,-49.917 z"
     id="path24" />
  <path
     fill="#517003"
     d="m 848.34425,555.7191 c 6.847,2.517 13.354,5.577 19.852,8.871 6.197,3.143 22.492,12.884 28.464,13.759 0.971,9.924 1.085,19.691 1.071,29.658 -2.511,-0.466 -4.967,-1.193 -7.429,-1.861 -7.651,-4.502 -15.342,-9.213 -21.794,-15.383 -3.275,-3.131 -6.104,-6.748 -9.226,-10.033 -5.956,-6.665 -8.977,-16.479 -10.938,-25.011 z"
     id="path25" />
  <path
     fill="#2a5603"
     d="m 184.73627,424.8521 c 10.999,-19.405 21.289,-36.529 34.171,-54.887 1.502,-2.14 3.835,-6.916 6.084,-8.086 l 0.852,0.426 c 4.773,6.254 9.414,13.365 14.966,18.924 l -0.006,21.719 c 5.776,3.283 11.405,7.325 17.299,10.3 0.008,23.031 -0.298,46.108 0.029,69.134 0,12.208 -0.213,24.466 0.1,36.667 -6.119,4.439 -13.376,10.802 -20.495,13.361 -3.481,1.187 -8.387,3.139 -12.038,1.881 -3.857,-1.669 -7.641,-3.54 -11.444,-5.33 3.972,-8.423 6.651,-17.531 5.976,-26.904 l -1.309,-6.915 c -6.409,-21.719 -18.109,-54.28 -34.185,-70.29 z"
     id="path26" />
  <path
     fill="#96b006"
     d="m 184.73627,424.8521 c 10.999,-19.405 21.289,-36.529 34.171,-54.887 1.502,-2.14 3.835,-6.916 6.084,-8.086 l 0.852,0.426 c 0.826,44.435 2.009,88.831 1.92,133.28 l -0.111,0.878 c -2.557,0.927 -6.219,-0.585 -8.731,-1.321 -6.409,-21.719 -18.109,-54.28 -34.185,-70.29 z"
     id="path27"
     style="fill:#517003;fill-opacity:1" />
  <path
     fill="#517003"
     d="m 218.92127,495.1421 c 2.512,0.736 6.174,2.248 8.731,1.321 0.183,12.501 -1.213,25.324 -1.954,37.828 -3.857,-1.669 -7.641,-3.54 -11.444,-5.33 3.972,-8.423 6.651,-17.531 5.976,-26.904 z"
     id="path28" />
  <path
     fill="#2a5603"
     d="m 179.02715,419.30796 c -2.453,2.021 -4.496,4.42 -6.879,6.477 -16.076,16.01 -27.776,48.571 -34.185,70.29 l -1.309,6.915 c -0.675,9.373 2.004,18.481 5.976,26.904 2.612,5.029 5.403,9.524 8.822,14.042 1.436,1.897 3.739,4.075 4.883,6.09 2.37,2.359 15.019,11.925 15.676,13.305 3.205,1.988 6.212,1.66 9.731,2.276 -0.826,-12.457 0.213,-25.427 -1.637,-37.752 l 0.12,-0.58 c -0.089,-12.585 -1.205,-25.182 -1.421,-37.779 -0.342,-19.863 0.296,-39.829 0.448,-59.699 0.025,-3.505 0.096,-6.995 -0.225,-10.489 z"
     id="path29-6"
     style="fill:#517003;fill-opacity:1" />
  <path
     fill="#2a5603"
     d="m 177.85727,418.3751 c 2.453,2.021 4.496,4.42 6.879,6.477 16.076,16.01 27.776,48.571 34.185,70.29 l 1.309,6.915 c 0.675,9.373 -2.004,18.481 -5.976,26.904 -2.612,5.029 -5.403,9.524 -8.822,14.042 -1.436,1.897 -3.739,4.075 -4.883,6.09 -2.37,2.359 -15.019,11.925 -15.676,13.305 -3.205,1.988 -6.212,1.66 -9.731,2.276 0.826,-12.457 -0.213,-25.427 1.637,-37.752 l -0.12,-0.58 c 0.089,-12.585 1.205,-25.182 1.421,-37.779 0.342,-19.863 -0.296,-39.829 -0.448,-59.699 -0.025,-3.505 -0.096,-6.995 0.225,-10.489 z"
     id="path29" />
  <path
     fill="#cd5727"
     d="m 433.85127,717.0031 0.926,0.639 2.737,1.37 c 3.935,1.766 7.376,3.687 9.587,7.591 1.343,2.002 2.006,4.201 3.22,6.206 1.735,6.052 2.877,11.793 -0.22,17.69 -2.507,4.771 -7.298,7.964 -12.378,9.463 -5.288,1.562 -11.554,1.344 -16.405,-1.452 l -0.63,-0.369 c -2.046,-1.255 -3.619,-3.299 -5.135,-5.122 -0.303,-2.728 -1.697,-5.969 -2.277,-8.764 -0.042,-3.408 -0.015,-6.786 0.144,-10.191 -0.422,-0.895 -0.886,-1.852 -1.068,-2.832 -0.307,-1.646 0.186,-3.352 1.137,-4.696 3.919,-5.535 14.01,-8.359 20.362,-9.533 z"
     id="path30" />
  <path
     fill="#f79624"
     d="m 433.85127,717.0031 0.926,0.639 2.737,1.37 c 3.935,1.766 7.376,3.687 9.587,7.591 0.768,3.185 0.914,5.549 -0.876,8.425 -2.609,4.191 -7.336,6.434 -12.037,7.371 -1.474,0.294 -2.833,0.338 -4.325,0.226 -6.614,-1.343 -11.66,-3.684 -16.443,-8.561 -0.422,-0.895 -0.886,-1.852 -1.068,-2.832 -0.307,-1.646 0.186,-3.352 1.137,-4.696 3.919,-5.535 14.01,-8.359 20.362,-9.533 z"
     id="path31" />
  <path
     fill="#d27720"
     d="m 208.09927,586.2651 c 1.514,0.479 2.617,0.572 4.199,0.502 1.105,0.467 2.206,0.981 3.342,1.368 6.132,3.129 15.348,8.959 20.404,13.577 -0.18,0.146 -0.359,0.294 -0.54,0.438 -7.558,6.013 -26.938,9.393 -30.597,17.706 -1.805,4.101 -1.328,8.819 -2.737,12.953 -3.13,-2.061 -5.938,-4.641 -8.786,-7.072 -1.305,-2.141 -5.047,-4.513 -6.962,-6.467 -0.307,-5.873 0.105,-11.763 -0.285,-17.652 l -0.111,-1.143 c 1.933,-5.322 16.979,-11.456 22.073,-14.21 z"
     id="path32" />
  <path
     fill="#f79624"
     d="m 208.09927,586.2651 c 1.514,0.479 2.617,0.572 4.199,0.502 1.105,0.467 2.206,0.981 3.342,1.368 0.753,7.262 -0.785,13.904 -5.472,19.667 -1.35,1.661 -3.069,3.043 -5.286,3.187 -6.455,0.421 -13.142,-7.938 -18.856,-10.514 1.933,-5.322 16.979,-11.456 22.073,-14.21 z"
     id="path33" />
  <path
     fill="#f79624"
     d="m 950.27625,530.4811 c 3.23,2.054 7.003,3.249 10.12,5.376 0.772,2.444 2.507,4.034 3.501,6.332 4.888,5.261 8.726,9.625 10.991,16.61 -5.046,1.617 -9.956,3.965 -14.901,5.89 -1.455,0.924 -2.709,1.961 -4.01,3.087 -2.639,-1.112 -5.038,-2.645 -7.607,-3.889 -5.552,-2.688 -11.188,-3.447 -17.227,-4.22 0.35,-2.539 -0.306,-5.542 0.123,-7.868 0.115,-0.625 1.375,-1.296 1.892,-1.588 1.955,-1.105 4.165,-2.14 5.947,-3.497 4.59,-3.497 8.175,-11.267 11.171,-16.233 z"
     id="path34" />
  <path
     fill="#d27720"
     d="m 963.89725,542.1891 c 4.888,5.261 8.726,9.625 10.991,16.61 -5.046,1.617 -9.956,3.965 -14.901,5.89 1.06,-1.949 2.035,-3.871 2.678,-6.004 0.725,-2.404 1.348,-10.47 2.864,-11.716 l 0.858,0.048 -0.12,-0.892 c -1.009,-1.098 -1.542,-2.078 -2.152,-3.44 z"
     id="path35" />
  <path
     fill="#cd5727"
     d="m 236.04427,601.7121 c 0.341,5.674 0.084,11.373 0.462,17.036 -6.779,4.203 -25.985,13.708 -33.572,15.369 l -0.764,-1.308 c 1.409,-4.134 0.932,-8.852 2.737,-12.953 3.659,-8.313 23.039,-11.693 30.597,-17.706 0.181,-0.144 0.36,-0.292 0.54,-0.438 z"
     id="path36" />
  <path
     fill="#873129"
     d="m 175.14227,564.6741 c 3.519,-0.616 6.526,-0.288 9.731,-2.276 -0.267,4.194 -0.595,8.41 -0.645,12.613 l 0.078,4.275 0.545,5.617 c 0.525,3.66 0.473,7.368 0.517,11.058 -4.318,0.575 -8.631,1.233 -12.991,1.35 -0.258,-2.86 -0.589,-5.731 -0.685,-8.601 q 0.111,-9.62 -0.01,-19.239 l 0.092,-4.77 0.286,-1.142 z"
     id="path37" />
  <path
     fill="#873129"
     d="m 225.69827,534.2911 c 3.651,1.258 8.557,-0.694 12.038,-1.881 -0.124,4.63 -0.069,9.132 0.349,13.744 0.069,1.448 0.094,2.915 0.245,4.355 l 0.245,3.384 c -0.405,2.637 -0.05,5.057 0.287,7.672 -4.856,1.751 -8.5,2.399 -13.666,2.173 -0.405,-7.261 -0.035,-14.601 -0.107,-21.876 0.077,-2.546 0.329,-5.043 0.609,-7.571 z"
     id="path38" />
  <path
     fill="#d27720"
     d="m 171.77427,564.7011 -0.092,4.77 q 0.121,9.619 0.01,19.239 c -4.994,-0.39 -9.947,-2.517 -14.744,-3.904 -3.753,-1.085 -7.606,-1.837 -11.4313,-2.621 -0.3554,-1.111 -0.2079,-1.63 0.1243,-2.733 1.3679,-1.684 3.59,-2.408 5.544,-3.248 2.286,-0.983 3.742,-2.044 5.569,-3.712 3.959,-5.182 10.347,-4.001 15.02,-7.791 z"
     id="path39" />
  <path
     fill="#f79624"
     d="m 171.77427,564.7011 -0.092,4.77 c -0.698,3.02 -0.526,6.171 -0.529,9.253 -4.511,0.389 -9.955,1.633 -13.869,-1.083 -0.917,-1.785 -0.597,-3.17 -0.53,-5.149 3.959,-5.182 10.347,-4.001 15.02,-7.791 z"
     id="path40" />
  <path
     fill="#d27720"
     d="m 931.14325,559.6671 c 6.039,0.773 11.675,1.532 17.227,4.22 2.569,1.244 4.968,2.777 7.607,3.889 -1.958,4.492 -3.768,8.96 -4.814,13.763 q -0.997,-0.196 -1.965,-0.504 c -8.518,-2.783 -15.275,-6.868 -19.419,-14.921 0.58,-2.108 0.933,-4.303 1.364,-6.447 z"
     id="path41" />
  <path
     fill="#cd5727"
     d="m 959.98725,564.6891 c 4.945,-1.925 9.855,-4.273 14.901,-5.89 0.55,3.381 0.582,6.96 1.243,10.273 0.096,1.644 0.436,3.31 -0.464,4.773 -5.952,3.381 -17.608,5.866 -24.504,7.694 1.046,-4.803 2.856,-9.271 4.814,-13.763 1.301,-1.126 2.555,-2.163 4.01,-3.087 z"
     id="path42" />
  <path
     fill="#873129"
     d="m 890.30225,606.1461 c 2.462,0.668 4.918,1.395 7.429,1.861 l 4.794,0.245 c 1.104,3.594 0.716,7.758 0.675,11.496 l 0.04,6.855 c -4.608,0.539 -8.349,0.258 -12.888,-0.68 -0.199,-3.056 -0.109,-6.175 -0.136,-9.241 z"
     id="path43" />
  <path
     fill="#c1875f"
     d="m 311.98027,715.5181 c 7.806,4.806 52.725,33.47 56.585,34.331 l -2.02,2.951 c -3.978,-2.709 -8.339,-4.98 -12.436,-7.519 -14.002,-8.679 -28.185,-17.071 -42.073,-25.926 z"
     id="path44" />
  <path
     fill="#d27720"
     d="m 193.83427,579.6011 c 4.01,-0.72 13.823,-3.424 17.024,-0.419 1.052,0.988 0.972,1.937 1.109,3.268 -0.746,1.585 -1.328,1.864 -2.722,2.869 l 0.293,0.477 c 0.279,0.037 0.56,0.063 0.839,0.11 0.947,0.16 1.223,0.265 1.921,0.861 -1.582,0.07 -2.685,-0.023 -4.199,-0.502 0.326,-0.621 0.173,-0.238 0.343,-1.191 -4.183,-1.55 -18.331,-0.28 -23.591,-0.171 l -0.545,-5.617 c 1.935,1.16 7.368,0.807 9.528,0.315 z"
     id="path45" />
  <path
     fill="#873129"
     d="m 202.93427,634.1171 c 7.587,-1.661 26.793,-11.166 33.572,-15.369 l 0.51,2.21 c -2.549,5.41 -9.142,8.67 -14.537,10.641 -5.483,2.004 -13.85,4.609 -19.545,2.518 z"
     id="path46" />
  <path
     fill="#d27720"
     d="m 238.08527,546.1541 c 3.635,-1.043 9.478,-3.656 12.978,-1.565 1.093,0.653 1.975,1.729 2.757,2.707 l -2.205,0.447 c -2.74,2.339 -8.756,7.764 -12.463,7.589 -0.294,-0.525 -0.491,-0.835 -0.577,-1.439 l -0.245,-3.384 c -0.151,-1.44 -0.176,-2.907 -0.245,-4.355 z"
     id="path47" />
  <path
     fill="#f79624"
     d="m 184.22827,575.0111 c 3.374,0.757 5.658,2.078 8.244,4.366 l 1.362,0.224 c -2.16,0.492 -7.593,0.845 -9.528,-0.315 z"
     id="path48" />
  <path
     fill="#d27720"
     d="m 283.73727,620.7111 c 3.655,1.045 21.786,11.822 23.043,14.641 0.123,0.275 0.169,0.578 0.253,0.866 -0.682,5.883 0.011,11.867 -0.706,17.714 -0.07,1.652 -0.052,3.364 -0.335,4.992 -8.519,4.044 -24.794,14.853 -34.071,11.424 -0.463,-0.171 -0.676,-0.313 -1.134,-0.563 l -0.303,-0.32 c -2.774,-1.608 -4.874,-3.805 -7.045,-6.131 -4.035,-6.536 -5.76,-12.168 -5.869,-19.818 -0.457,-2.51 -0.376,-5.235 -0.482,-7.787 0.598,-2.363 2.686,-3.499 4.668,-4.666 6.061,-3.571 15.173,-8.632 21.981,-10.352 z"
     id="path49" />
  <path
     fill="#f79624"
     d="m 283.73727,620.7111 c 3.655,1.045 21.786,11.822 23.043,14.641 0.123,0.275 0.169,0.578 0.253,0.866 -5.926,5.477 -17.817,8.656 -25.64,10.573 -0.801,-0.007 -1.593,-0.019 -2.393,-0.071 -9.505,-0.612 -15.65,-3.833 -21.912,-10.991 0.598,-2.363 2.686,-3.499 4.668,-4.666 6.061,-3.571 15.173,-8.632 21.981,-10.352 z"
     id="path50" />
  <path
     fill="#cd5727"
     d="m 306.07727,649.3601 0.25,4.572 c -0.07,1.652 -0.052,3.364 -0.335,4.992 -8.519,4.044 -24.794,14.853 -34.071,11.424 -0.463,-0.171 -0.676,-0.313 -1.134,-0.563 3.303,-2.942 8.07,-4.886 11.977,-6.969 7.908,-4.215 15.998,-8.25 23.313,-13.456 z"
     id="path51" />
  <path
     fill="#f79624"
     d="m 533.81627,799.8981 c 2.204,-5.202 5.159,-9.625 9.801,-12.97 3.601,-2.595 7.903,-4.107 12.355,-3.298 6.529,1.186 10.645,5.509 14.187,10.73 2.505,2.619 3.902,6.063 5.419,9.316 1.452,5.577 2.175,9.838 -0.875,15.162 -3.375,5.892 -9.727,9.77 -16.209,11.337 -5.515,1.333 -10.698,0.773 -16.234,-0.096 l -4.95,-2.062 c -1.508,-1.294 -2.702,-3.282 -3.616,-5.052 -3.837,-7.431 -2.353,-15.521 0.122,-23.067 z"
     id="path52" />
  <path
     fill="#cd5727"
     d="m 570.15927,794.3601 c 2.505,2.619 3.902,6.063 5.419,9.316 1.452,5.577 2.175,9.838 -0.875,15.162 -3.375,5.892 -9.727,9.77 -16.209,11.337 -5.515,1.333 -10.698,0.773 -16.234,-0.096 l -4.95,-2.062 c 9.337,-4.603 8.31,-9.864 14.259,-16.437 0.653,0.07 1.248,0.128 1.906,0.063 5.065,-0.499 10.469,-2.562 13.795,-6.535 2.833,-3.384 3.272,-6.471 2.889,-10.748 z"
     id="path53" />
  <path
     fill="#d27720"
     d="m 537.31027,828.0171 c -1.508,-1.294 -2.702,-3.282 -3.616,-5.052 -3.837,-7.431 -2.353,-15.521 0.122,-23.067 0.712,3.612 1.865,6.369 5.094,8.419 3.565,2.263 8.52,2.862 12.659,3.263 -5.949,6.573 -4.922,11.834 -14.259,16.437 z"
     id="path54" />
  <path
     fill="#f79624"
     d="m 652.17627,736.2401 0.313,-1.282 c 0.273,-1.146 0.513,-2.305 0.895,-3.42 1.69,-4.926 6.017,-9.35 10.746,-11.428 5.37,-2.361 12.526,-1.936 17.868,0.418 2.729,1.202 6.212,3.535 7.363,6.388 q 4.277,8.801 8.43,17.662 c 0.514,3.296 0.467,5.095 -1.504,7.878 -4.1,5.789 -12.45,8.899 -19.262,9.858 -7.193,1.014 -12.884,-0.857 -19.88,-1.822 l -1.484,-0.947 c -0.399,-0.43 -0.741,-0.874 -1.073,-1.358 -4.345,-6.334 -3.704,-14.731 -2.412,-21.947 z"
     id="path55" />
  <path
     fill="#cd5727"
     d="m 689.36127,726.9161 q 4.277,8.801 8.43,17.662 c 0.514,3.296 0.467,5.095 -1.504,7.878 -4.1,5.789 -12.45,8.899 -19.262,9.858 -7.193,1.014 -12.884,-0.857 -19.88,-1.822 l -1.484,-0.947 c 1.19,0.064 2.403,0.146 3.594,0.085 7.496,-0.386 11.957,-9.459 16.194,-14.468 3.232,-1.251 6.304,-2.574 8.897,-4.962 4.046,-3.725 4.848,-8.069 5.015,-13.284 z"
     id="path56" />
  <path
     fill="#d27720"
     d="m 652.17627,736.2401 c 3.379,4.829 7.185,7.485 13.131,8.481 3.315,0.556 6.793,0.602 10.142,0.441 -4.237,5.009 -8.698,14.082 -16.194,14.468 -1.191,0.061 -2.404,-0.021 -3.594,-0.085 -0.399,-0.43 -0.741,-0.874 -1.073,-1.358 -4.345,-6.334 -3.704,-14.731 -2.412,-21.947 z"
     id="path57" />
  <path
     fill="#f79624"
     d="m 470.66827,766.0961 c 1.504,-4.752 4.82,-9.245 8.789,-12.244 3.466,-2.62 7.499,-4.145 11.874,-3.454 5.558,0.878 10.924,5.367 14.161,9.813 2.122,2.299 3.49,5.131 4.999,7.852 1.065,7.394 0.92,13.648 -3.755,19.921 -3.235,4.34 -7.764,7.704 -13.223,8.453 -5.27,0.723 -10.061,-1.386 -14.739,-3.529 q -3.293,-0.702 -6.609,-1.28 c -1.856,-2.345 -3.425,-5.323 -4.219,-8.207 -1.607,-5.838 -0.205,-12.135 2.722,-17.325 z"
     id="path58" />
  <path
     fill="#cd5727"
     d="m 505.49227,760.2111 c 2.122,2.299 3.49,5.131 4.999,7.852 1.065,7.394 0.92,13.648 -3.755,19.921 -3.235,4.34 -7.764,7.704 -13.223,8.453 -5.27,0.723 -10.061,-1.386 -14.739,-3.529 -0.357,-6.068 1.447,-10.441 5.052,-15.172 2.754,0.055 5.334,0.087 8.06,-0.383 q 0.974,-0.169 1.933,-0.407 c 4.372,-1.118 9.205,-3.291 11.489,-7.375 1.894,-3.384 1.203,-5.883 0.184,-9.36 z"
     id="path59" />
  <path
     fill="#d27720"
     d="m 470.66827,766.0961 c 1.198,3.873 2.859,7.032 6.568,9.023 4.627,2.484 9.629,1.997 14.65,2.234 -2.726,0.47 -5.306,0.438 -8.06,0.383 -3.605,4.731 -5.409,9.104 -5.052,15.172 q -3.293,-0.702 -6.609,-1.28 c -1.856,-2.345 -3.425,-5.323 -4.219,-8.207 -1.607,-5.838 -0.205,-12.135 2.722,-17.325 z"
     id="path60" />
  <path
     fill="#f79624"
     d="m 593.78127,769.6541 c 1.06,-5.158 2.201,-8.887 6.545,-12.343 4.293,-3.415 9.58,-4.632 14.976,-3.878 5.669,0.793 11.028,3.612 14.46,8.226 1.743,2.26 3.413,4.775 5.512,6.713 2.193,5.29 3.376,9.544 1.135,15.17 -2.125,5.337 -6.58,9.285 -11.875,11.35 -6.891,2.687 -14.672,2.213 -21.617,-0.011 l -3.686,-0.353 c -0.728,-0.771 -1.418,-1.528 -2.028,-2.399 -4.727,-6.736 -4.731,-14.712 -3.422,-22.475 z"
     id="path61" />
  <path
     fill="#cd5727"
     d="m 629.76227,761.6591 c 1.743,2.26 3.413,4.775 5.512,6.713 2.193,5.29 3.376,9.544 1.135,15.17 -2.125,5.337 -6.58,9.285 -11.875,11.35 -6.891,2.687 -14.672,2.213 -21.617,-0.011 4.345,-4.737 7.928,-10.27 12.16,-15.152 3.968,-1.703 8.104,-3.432 11.089,-6.677 3.013,-3.275 3.686,-7.087 3.596,-11.393 z"
     id="path62" />
  <path
     fill="#d27720"
     d="m 593.78127,769.6541 c 3.11,4.632 6.084,8.529 11.876,9.743 3.041,0.638 6.328,0.486 9.42,0.332 -4.232,4.882 -7.815,10.415 -12.16,15.152 l -3.686,-0.353 c -0.728,-0.771 -1.418,-1.528 -2.028,-2.399 -4.727,-6.736 -4.731,-14.712 -3.422,-22.475 z"
     id="path63" />
  <path
     fill="#f79624"
     d="m 820.56727,632.0421 c 1.737,-3.017 3.545,-7.25 7.106,-8.347 4.95498,-1.527 16.96598,-0.922 21.28798,1.761 3.311,2.054 5.738,5.765 7.57,9.131 2.411,4.297 4.337,8.684 5.842,13.379 0.231,3.539 0.56,7.153 0.478,10.699 -2.999,0.058 -5.882,0.252 -8.83,0.837 -4.036,0.8 -15.92,5.189 -19.296,2.352 -0.171,-0.144 -0.319,-0.313 -0.479,-0.47 -4.63798,-1.984 -9.53998,-3.908 -13.96098,-6.327 -1.242,-0.68 -2.245,-1.673 -3.476,-2.375 l -0.634,-0.355 c -0.471,-0.43 -0.557,-0.376 -0.719,-0.961 -1.051,-3.789 3.193,-15.85 5.111,-19.324 z"
     id="path64" />
  <path
     fill="#cd5727"
     d="m 856.53125,634.5871 c 2.411,4.297 4.337,8.684 5.842,13.379 0.231,3.539 0.56,7.153 0.478,10.699 -2.999,0.058 -5.882,0.252 -8.83,0.837 -4.036,0.8 -15.92,5.189 -19.296,2.352 -0.171,-0.144 -0.319,-0.313 -0.479,-0.47 0.799,-5.325 2.671,-10.685 4.571,-15.717 5.068,-4.927 12.099,-6.935 17.714,-11.08 z"
     id="path65" />
  <path
     fill="#d27720"
     d="m 816.17527,652.3271 c -0.471,-0.43 -0.557,-0.376 -0.719,-0.961 -1.051,-3.789 3.193,-15.85 5.111,-19.324 4.032,4.247 12.50898,12.592 18.24998,13.625 -1.9,5.032 -3.772,10.392 -4.571,15.717 -4.63798,-1.984 -9.53998,-3.908 -13.96098,-6.327 -1.242,-0.68 -2.245,-1.673 -3.476,-2.375 z"
     id="path66" />
  <path
     fill="#d27720"
     d="m 224.73927,545.9801 0.057,8.483 c -7.37,-0.945 -16.527,-0.889 -23.459,-3.353 0.748,-0.432 21.002,-4.701 23.402,-5.13 z"
     id="path67" />
  <path
     fill="#9fd0d6"
     d="m 556.77727,0 c 16.047,9.9099 32.586,19.021 48.805,28.6458 q 32.906,19.7759 65.318,40.3523 c 9.825,6.238 21.408,11.43 30.406,18.72 11.988,9.713 20.43,27.355 31.322,38.624 5.553,5.746 13.209,9.765 19.576,14.604 6.185,4.702 11.882,10.294 17.496,15.658 1.598,5.904 0.486,28.502 0.54,36.202 0.156,2.144 0.51,4.44 0.083,6.558 0.042,3.421 -0.069,6.942 0.34,10.338 5.392,1.351 29.411,21.276 34.796,26.193 5.018,3.56 10.176,8.851 13.789,13.831 0.035,5.252 0.97,36.447 -0.529,38.702 -0.024,1.442 0.089,2.985 -0.346,4.371 -0.387,9.743 -0.054,19.594 -0.659,29.307 20.34898,12.022 39.10298,26.459 59.20198,38.886 -5.436,4.705 -12.329,8.372 -18.409,12.262 l -36.92498,23.457 -126.919,79.791 c -35.007,21.845 -69.374,44.68 -104.459,66.41 -10.222,6.331 -20.19,13.917 -30.727,19.614 -1.336,12.702 0.1,26.026 -0.351,38.83 -3.89,-1.732 -7.752,-4.664 -11.368,-6.956 l -23.133,-14.751 -62.069,-39.142 q -77.457,-48.94 -155.578,-96.811 c -16.379,-10.01 -32.362,-20.653 -48.876,-30.448 -5.894,-2.975 -11.523,-7.017 -17.299,-10.3 l 0.006,-21.719 c 0.006,-5.724 0.13,-11.478 -0.135,-17.196 13.838,-10.125 28.515,-19.326 42.733,-28.936 5.363,-3.625 10.983,-6.922 16.066,-10.941 -1.089,-7.862 -0.441,-22.708 -0.017,-30.984 l -0.008,-4.732 c -0.963,-5.473 -0.551,-29.198 0.121,-35.191 4.826,-3.66 9.171,-7.881 14.285,-11.165 10.529,-7.803 21.421,-15.081 31.916,-22.945 l 0.065,8.172 c 1.036,-8.915 -0.261,-18.582 -0.322,-27.614 1.796,-1.871 3.465,-3.845 5.15,-5.815 -1.524,-1.878 -1.04,-30.831 -0.709,-35.273 4.573,-3.748 8.908,-7.792 13.482,-11.552 5.232,-4.3 10.898,-8.034 15.343,-13.194 8.728,-10.131 16.347,-21.47 24.609,-32.016 3.395,-4.333 6.791,-8.948 10.816,-12.717 7.081,-6.633 22.308,-14.672 31.193,-20.1 l 44.21,-27.5078 42.578,-26.2854 c 8.176,-5.1184 15.984,-10.8388 24.592,-15.2369 z"
     id="path68" />
  <path
     fill="#f9e3a4"
     d="m 818.37327,292.7991 c -0.387,9.743 -0.054,19.594 -0.659,29.307 20.34898,12.022 39.10298,26.459 59.20198,38.886 -5.436,4.705 -12.329,8.372 -18.409,12.262 l -36.92498,23.457 -126.919,79.791 c -35.007,21.845 -69.374,44.68 -104.459,66.41 -10.222,6.331 -20.19,13.917 -30.727,19.614 -1.336,12.702 0.1,26.026 -0.351,38.83 -3.89,-1.732 -7.752,-4.664 -11.368,-6.956 l -23.133,-14.751 -62.069,-39.142 q -77.457,-48.94 -155.578,-96.811 c -16.379,-10.01 -32.362,-20.653 -48.876,-30.448 -5.894,-2.975 -11.523,-7.017 -17.299,-10.3 l 0.006,-21.719 c 0.006,-5.724 0.13,-11.478 -0.135,-17.196 13.838,-10.125 28.515,-19.326 42.733,-28.936 5.363,-3.625 10.983,-6.922 16.066,-10.941 -1.089,-7.862 -0.441,-22.708 -0.017,-30.984 20.047,12.945 40.625,24.901 60.857,37.514 21.037,13.116 41.733,27.014 63.401,39.097 l 2.932,-0.781 q 20.228,12.494 40.258,25.302 l 6.963,4.278 c 5.918,3.613 12.524,7.078 17.977,11.325 16.843,9.592 33.316,19.996 49.727,30.306 6.16,3.87 12.213,8.121 18.492,11.776 l 1.458,-0.949 c 0.279,0.094 0.554,0.204 0.838,0.283 3.855,1.067 50.319,-28.984 57.155,-33.159 9.208,-5.626 18.014,-11.862 27.208,-17.493 28.933,-17.72 58.246,-35.151 86.726,-53.587 9.231,-5.976 17.728,-13.019 27.018,-18.912 19.076,-12.1 38.656,-23.541 57.907,-35.373 z"
     id="path69" />
  <path
     fill="#f79624"
     d="m 299.45627,293.1721 c 20.047,12.945 40.625,24.901 60.857,37.514 21.037,13.116 41.733,27.014 63.401,39.097 l 2.932,-0.781 q 20.228,12.494 40.258,25.302 l 6.963,4.278 c 5.918,3.613 12.524,7.078 17.977,11.325 16.843,9.592 33.316,19.996 49.727,30.306 6.16,3.87 12.213,8.121 18.492,11.776 -1.085,14.242 -0.209,29.142 -0.223,43.462 -0.006,5.814 -0.882,23.92 0.252,28.378 -0.568,0.688 -0.174,0.379 -1.339,0.684 -3.556,-1.382 -7.013,-4.3 -10.252,-6.371 q -8.901,-5.695 -17.932,-11.182 -47.931,-28.908 -95.078,-59.078 l -96.213,-59.287 c -13.123,-8.172 -26.94,-15.867 -39.521,-24.824 0.043,-13.121 0.554,-26.53 -0.284,-39.615 -1.089,-7.862 -0.441,-22.708 -0.017,-30.984 z"
     id="path70" />
  <path
     fill="#03363f"
     d="m 454.91427,414.7191 c 1.391,-0.184 2.768,-0.196 4.026,0.489 4.243,2.308 6.904,8.27 8.138,12.783 1.072,3.925 2.387,18.491 0.627,21.613 l -1.703,-0.679 c -5.22,-3.167 -10.441,-6.292 -15.432,-9.813 0.012,-5.827 -0.849,-12.203 0.076,-17.937 0.536,-3.321 1.57,-4.524 4.268,-6.456 z"
     id="path71" />
  <path
     fill="#03363f"
     d="m 336.69827,342.1851 c 3.009,-0.12 4.72,0.595 6.892,2.704 7.383,7.165 6.948,19.7 6.727,29.181 -0.029,1.244 0.069,2.002 -0.879,2.89 l -1.486,-0.731 c -5.256,-3.304 -10.432,-6.753 -15.638,-10.137 0.075,-4.632 -0.414,-9.345 -0.128,-13.961 0.278,-4.51 1.165,-6.922 4.512,-9.946 z"
     id="path72" />
  <path
     fill="#03363f"
     d="m 396.34327,379.1441 c 0.896,0.057 1.83,0.104 2.698,0.349 3.1,0.876 5.53,3.902 7.039,6.581 3.38,6.001 4.831,19.035 2.945,25.609 -0.916,0.28 -1.701,-0.405 -2.543,-0.824 -4.962,-2.882 -9.833,-5.833 -14.631,-8.982 0.063,-4.309 -0.251,-8.718 0.064,-13.011 0.32,-4.358 1.141,-6.81 4.428,-9.722 z"
     id="path73" />
  <path
     fill="#03363f"
     d="m 518.79727,452.1851 c 0.234,0.02 0.469,0.03 0.701,0.061 2.644,0.363 4.514,1.814 6.115,3.892 5.645,7.326 5.3,19.48 4.366,28.292 l -0.522,0.417 -1.866,-0.771 c -4.617,-2.337 -9.65,-4.642 -13.503,-8.165 -0.017,-5.18 -0.752,-11.042 0.037,-16.144 0.567,-3.659 1.762,-5.376 4.672,-7.582 z"
     id="path74" />
  <path
     fill="#d27720"
     d="m 818.37327,292.7991 c -0.387,9.743 -0.054,19.594 -0.659,29.307 q -0.165,20.27 -0.018,40.541 c -9.196,4.924 -17.593,10.792 -26.405,16.337 l -53.567,33.421 c -7.408,4.576 -14.769,9.96 -22.515,13.871 q -52.503,31.217 -103.838,64.319 -17.662,11.193 -35.111,22.715 c -5.195,3.381 -10.905,6.391 -15.731,10.253 l -0.437,0.266 c -1.134,-4.458 -0.258,-22.564 -0.252,-28.378 0.014,-14.32 -0.862,-29.22 0.223,-43.462 l 1.458,-0.949 c 0.279,0.094 0.554,0.204 0.838,0.283 3.855,1.067 50.319,-28.984 57.155,-33.159 9.208,-5.626 18.014,-11.862 27.208,-17.493 28.933,-17.72 58.246,-35.151 86.726,-53.587 9.231,-5.976 17.728,-13.019 27.018,-18.912 19.076,-12.1 38.656,-23.541 57.907,-35.373 z"
     id="path75" />
  <path
     fill="#03363f"
     d="m 773.42327,337.1831 c 2.378,0.172 3.801,0.726 5.44,2.504 4.898,5.313 3.506,15.771 3.415,22.507 -3.926,2.705 -8.215,5.041 -12.3,7.509 l -5.653,3.195 c -0.732,-7.458 -1.713,-16.737 -0.031,-24.016 1.296,-5.608 4.347,-8.848 9.129,-11.699 z"
     id="path76" />
  <path
     fill="#03363f"
     d="m 655.51927,410.5851 c 1.765,0.348 3.016,0.947 4.28,2.267 4.986,5.208 3.519,16.28 3.381,22.965 -3.855,2.863 -8.053,5.354 -12.092,7.955 -1.403,0.843 -3.221,2.401 -4.902,2.212 -0.099,-0.163 -0.213,-0.317 -0.295,-0.488 -2.047,-4.249 -0.892,-18.436 0.465,-23.137 1.574,-5.453 4.158,-9.124 9.163,-11.774 z"
     id="path77" />
  <path
     fill="#03363f"
     d="m 595.81327,448.0911 c 0.167,0 0.334,-0.002 0.502,0 2.598,0.036 4.566,0.787 6.355,2.726 4.426,4.799 2.975,15.506 2.928,21.769 -3.305,2.401 -7.085,4.367 -10.6,6.458 -2.341,1.502 -4.789,2.836 -7.207,4.209 -0.03,-6.131 -0.421,-12.35 -0.106,-18.47 0.355,-6.885 3.022,-12.147 8.128,-16.692 z"
     id="path78" />
  <path
     fill="#03363f"
     d="m 714.52027,377.2251 c 2.3,-0.073 3.914,0.303 5.587,1.987 4.549,4.58 3.609,15.331 3.781,21.375 -3.654,2.385 -7.594,4.408 -11.405,6.533 -2.02,1.305 -4.242,2.348 -6.375,3.458 -0.504,-6.763 -1.498,-14.351 -0.189,-21.063 1.081,-5.538 3.946,-9.258 8.601,-12.29 z"
     id="path79" />
  <path
     fill="#229d8e"
     d="m 556.77727,0 c 16.047,9.9099 32.586,19.021 48.805,28.6458 q 32.906,19.7759 65.318,40.3523 c 9.825,6.238 21.408,11.43 30.406,18.72 11.988,9.713 20.43,27.355 31.322,38.624 5.553,5.746 13.209,9.765 19.576,14.604 6.185,4.702 11.882,10.294 17.496,15.658 l -139.489,85.763 c -15.904,9.656 -31.548,19.666 -47.355,29.47 -6.819,4.23 -17.641,9.771 -23.422,14.942 -14.491,-9.574 -29.862,-18.259 -44.683,-27.339 l -87.529,-53.914 c -20.085,-12.423 -39.94,-24.959 -60.283,-36.981 -5.491,-3.245 -10.918,-7.939 -16.985,-9.936 4.573,-3.748 8.908,-7.792 13.482,-11.552 5.232,-4.3 10.898,-8.034 15.343,-13.194 8.728,-10.131 16.347,-21.47 24.609,-32.016 3.395,-4.333 6.791,-8.948 10.816,-12.717 7.081,-6.633 22.308,-14.672 31.193,-20.1 l 44.21,-27.5078 42.578,-26.2854 c 8.176,-5.1184 15.984,-10.8388 24.592,-15.2369 z"
     id="path80" />
  <path
     fill="#f9e3a4"
     d="m 555.90027,15.414 c 10.237,8.0805 24.222,14.6207 35.533,21.4683 l 77.824,47.7158 c 3.254,2.006 15.889,8.67 17.506,10.631 0.96,1.164 0.765,1.542 0.627,2.962 -0.134,3.374 -0.169,6.827 -0.527,10.183 l -0.064,3.046 c 8.365,9.101 15.598,19.788 23.106,29.621 4.279,5.604 9.368,11.08 13.06,17.051 l -154.946,95.185 c -4.053,-4.205 -8.048,-8.448 -12.772,-11.909 -0.304,0.026 -0.614,0.146 -0.912,0.08 -1.845,-0.404 -28.474,-17.713 -31.683,-19.682 q -27.086,-16.975 -54.419,-33.548 c -13.313,-7.952 -27.6,-15.354 -40.116,-24.479 l -0.042,-7.129 c -5.712,3.868 -13.724,8.684 -20.362,10.625 l -10.396,-5.925 q 15.487,-20.393 30.618,-41.05 c -0.396,-7.263 -0.061,-14.61 -0.375,-21.894 0.328,-1.275 1.342,-2.083 2.342,-2.858 5.939,-4.599 12.648,-8.495 18.957,-12.584 q 17.178,-11.362 34.698,-22.19 36.002,-22.9311 72.343,-45.3201 z"
     id="path81" />
  <path
     fill="#cd5727"
     d="m 681.11427,102.2911 c 1.214,-1.584 4.498,-3.255 6.276,-4.1 -0.134,3.374 -0.169,6.827 -0.527,10.183 l -0.064,3.046 c 8.365,9.101 15.598,19.788 23.106,29.621 4.279,5.604 9.368,11.08 13.06,17.051 l -154.946,95.185 c -4.053,-4.205 -8.048,-8.448 -12.772,-11.909 l -0.095,-0.639 c -0.603,-8.323 -1.806,-49.685 -0.279,-55.603 l -0.879,-1.674 c 0.756,-0.946 1.428,-1.628 2.426,-2.329 15.265,-10.716 31.861,-19.974 47.555,-30.075 q 18.505,-12.033 37.339,-23.544 c 5.195,-3.225 10.532,-7.218 16,-9.893 7.086,-5.815 15.902,-10.63 23.8,-15.32 z"
     id="path82" />
  <path
     fill="#246a58"
     d="m 686.79927,111.4201 c 8.365,9.101 15.598,19.788 23.106,29.621 4.279,5.604 9.368,11.08 13.06,17.051 l -154.946,95.185 c -4.053,-4.205 -8.048,-8.448 -12.772,-11.909 l -0.095,-0.639 c 27.766,-15.263 54.581,-32.455 81.664,-48.896 16.528,-10.034 33.805,-19.145 49.849,-29.927 -0.477,-16.778 -0.011,-33.694 0.134,-50.486 z"
     id="path83" />
  <path
     fill="#c1875f"
     d="m 681.11427,102.2911 c 1.214,-1.584 4.498,-3.255 6.276,-4.1 -0.134,3.374 -0.169,6.827 -0.527,10.183 -0.001,-1.906 0.345,-3.741 -0.61,-5.412 -1.54,-0.26 -3.285,0.901 -4.659,1.575 -12.036,7.317 -23.313,15.948 -35.513,22.977 -7.166,5.057 -89.048,57.25 -91.208,57.612 l -0.879,-1.674 c 0.756,-0.946 1.428,-1.628 2.426,-2.329 15.265,-10.716 31.861,-19.974 47.555,-30.075 q 18.505,-12.033 37.339,-23.544 c 5.195,-3.225 10.532,-7.218 16,-9.893 7.086,-5.815 15.902,-10.63 23.8,-15.32 z"
     id="path84" />
  <path
     fill="#f79624"
     d="m 427.56027,98.3661 c 5.892,6.465 15.226,11.682 22.46,16.62 17.596,12.011 35.385,23.575 53.291,35.109 17.008,10.956 33.614,22.478 50.683,33.357 l 0.879,1.674 c -1.527,5.918 -0.324,47.28 0.279,55.603 l 0.095,0.639 c -0.304,0.026 -0.614,0.146 -0.912,0.08 -1.845,-0.404 -28.474,-17.713 -31.683,-19.682 q -27.086,-16.975 -54.419,-33.548 c -13.313,-7.952 -27.6,-15.354 -40.116,-24.479 l -0.042,-7.129 c -5.712,3.868 -13.724,8.684 -20.362,10.625 l -10.396,-5.925 q 15.487,-20.393 30.618,-41.05 c -0.396,-7.263 -0.061,-14.61 -0.375,-21.894 z"
     id="path85" />
  <path
     fill="#246a58"
     d="m 397.31727,161.3101 q 15.487,-20.393 30.618,-41.05 c 0.339,12.01 0.626,24.355 0.14,36.35 -5.712,3.868 -13.724,8.684 -20.362,10.625 z"
     id="path86" />
  <path
     fill="#c1875f"
     d="m 553.72027,143.6411 c 3.432,0.092 16.812,9.712 20.863,12.082 -5.443,4.365 -11.568,7.744 -17.542,11.318 -2.098,-0.256 -17.204,-10.708 -20.844,-12.583 6.122,-3.11 11.844,-6.976 17.523,-10.817 z"
     id="path87" />
  <path
     fill="#c1875f"
     d="m 649.11227,88.6271 q 8.201,4.688 16.26,9.614 c -5.649,3.42 -11.04,7.443 -16.474,11.201 -4.601,-4.283 -11.281,-7.544 -16.75,-10.601 z"
     id="path88" />
  <path
     fill="#c1875f"
     d="m 554.30227,29.651 c 5.304,3.4633 10.945,6.5617 16.376,9.8348 -5.185,3.2828 -10.189,6.7332 -15.159,10.3321 -5.545,-1.7817 -11.89,-6.9553 -16.822,-10.1849 5.13,-3.4693 10.232,-6.8951 15.605,-9.982 z"
     id="path89" />
  <path
     fill="#c1875f"
     d="m 462.51927,88.1841 c 4.212,-0.048 11.791,6.027 15.53,8.395 -5.311,3.517 -10.616,6.999 -16.081,10.273 -2.787,0.077 -12.367,-7.397 -15.086,-9.263 q 7.539,-5.168 15.637,-9.405 z"
     id="path90" />
  <path
     fill="#c1875f"
     d="m 620.15527,109.2201 c 5.177,3.184 10.162,6.41 15.605,9.149 -5.375,3.213 -10.734,6.246 -15.724,10.053 -5.225,-3.03 -10.349,-6.263 -15.503,-9.413 4.918,-3.782 10.15,-6.882 15.622,-9.789 z"
     id="path91" />
  <path
     fill="#c1875f"
     d="m 588.46527,127.6271 c 2.808,0.256 13.321,8.332 16.021,10.575 q -7.073,3.974 -14.056,8.104 l -0.6,0.409 c -3.171,-0.156 -12.433,-7.656 -15.426,-9.748 z"
     id="path92" />
  <path
     fill="#c1875f"
     d="m 523.14827,48.6241 c 4.715,3.0638 9.44,6.0956 13.984,9.4101 -0.111,0.0908 -0.223,0.1805 -0.333,0.2729 -4.573,3.813 -10.07,6.496 -15.018,9.809 q -7.508,-4.375 -15.112,-8.582 c 5.702,-3.259 11.13,-7.1086 16.479,-10.91 z"
     id="path93" />
  <path
     fill="#c1875f"
     d="m 519.52027,126.6661 c 2.719,0.084 12.253,7.821 15.043,9.857 -4.159,3.546 -8.902,6.657 -13.583,9.462 l -15.662,-9.993 c 4.551,-3.355 9.435,-6.29 14.202,-9.326 z"
     id="path94" />
  <path
     fill="#c1875f"
     d="m 587.26727,48.6674 c 3.705,0.9442 12.457,7.6023 16.024,9.9607 -4.263,3.317 -9.16,6.063 -13.657,9.082 q -7.894,-5.083 -15.693,-10.3089 c 4.231,-3.1483 8.891,-5.8723 13.326,-8.7338 z"
     id="path95" />
  <path
     fill="#c1875f"
     d="m 618.91727,68.2931 c 4.029,1.082 12.124,7.714 16.124,10.411 -4.46,2.834 -9.112,5.327 -13.554,8.223 -4.376,-1.678 -11.426,-7.503 -16.483,-10.076 4.278,-3.364 9.191,-5.877 13.913,-8.558 z"
     id="path96" />
  <path
     fill="#c1875f"
     d="m 491.71827,68.1671 c 4.434,3.433 9.576,6.256 14.336,9.236 l -15.513,9.379 c -4.877,-2.017 -9.906,-5.706 -14.461,-8.452 q 7.728,-5.222 15.638,-10.163 z"
     id="path97" />
  <path
     fill="#c1875f"
     d="m 489.60327,107.6371 c 3.22,0.318 11.47,6.91 15.3,8.669 q -7.225,4.667 -14.318,9.531 c -3.077,-0.87 -11.953,-7.435 -15.341,-9.559 4.916,-2.715 9.742,-5.43 14.359,-8.641 z"
     id="path98" />
  <path
     fill="#246a58"
     d="m 299.56927,253.2491 c 4.826,-3.66 9.171,-7.881 14.285,-11.165 23.801,13.732 46.66,29.016 69.902,43.66 l 109.758,68.789 q 23.692,14.884 47.653,29.333 c 5.256,3.174 12.968,8.781 18.473,10.656 0.721,6.648 0.252,13.644 0.159,20.331 8.906,-4.651 20.612,-13.434 29.619,-19.021 l 88.411,-55.912 88.608,-56.225 c 17.585,-11.098 36.077,-21.666 52.811,-33.969 0.035,5.252 0.97,36.447 -0.529,38.702 -0.024,1.442 0.089,2.985 -0.346,4.371 -19.251,11.832 -38.831,23.273 -57.907,35.373 -9.29,5.893 -17.787,12.936 -27.018,18.912 -28.48,18.436 -57.793,35.867 -86.726,53.587 -9.194,5.631 -18,11.867 -27.208,17.493 -6.836,4.175 -53.3,34.226 -57.155,33.159 -0.284,-0.079 -0.559,-0.189 -0.838,-0.283 l -1.458,0.949 c -6.279,-3.655 -12.332,-7.906 -18.492,-11.776 -16.411,-10.31 -32.884,-20.714 -49.727,-30.306 -5.453,-4.247 -12.059,-7.712 -17.977,-11.325 l -6.963,-4.278 q -20.03,-12.808 -40.258,-25.302 l -2.932,0.781 c -21.668,-12.083 -42.364,-25.981 -63.401,-39.097 -20.232,-12.613 -40.81,-24.569 -60.857,-37.514 l -0.008,-4.732 c -0.963,-5.473 -0.551,-29.198 0.121,-35.191 z"
     id="path99" />
  <path
     fill="#4fabb7"
     d="m 299.56927,253.2491 c 4.826,-3.66 9.171,-7.881 14.285,-11.165 23.801,13.732 46.66,29.016 69.902,43.66 l 109.758,68.789 q 23.692,14.884 47.653,29.333 c 5.256,3.174 12.968,8.781 18.473,10.656 0.721,6.648 0.252,13.644 0.159,20.331 l -0.124,0.482 c -7.025,-2.814 -13.993,-8.282 -20.429,-12.309 q -21.073,-12.974 -41.959,-26.244 l -130.295,-81.157 -46.676,-29.726 c -6.845,-4.274 -13.642,-8.832 -20.747,-12.65 z"
     id="path100" />
  <defs
     id="defs101">
    <linearGradient
       id="gradient_0"
       gradientUnits="userSpaceOnUse"
       x1="648.43799"
       y1="416.0694"
       x2="642.53003"
       y2="405.87537"
       gradientTransform="translate(47.22827,-41.7489)">
      <stop
         offset="0"
         stop-color="#C9883F"
         id="stop100" />
      <stop
         offset="1"
         stop-color="#E9A14F"
         id="stop101" />
    </linearGradient>
  </defs>
  <path
     fill="url(#gradient_0)"
     d="m 818.71927,288.4281 c -0.024,1.442 0.089,2.985 -0.346,4.371 -19.251,11.832 -38.831,23.273 -57.907,35.373 -9.29,5.893 -17.787,12.936 -27.018,18.912 -28.48,18.436 -57.793,35.867 -86.726,53.587 -9.194,5.631 -18,11.867 -27.208,17.493 -6.836,4.175 -53.3,34.226 -57.155,33.159 -0.284,-0.079 -0.559,-0.189 -0.838,-0.283 6.917,-5.377 14.81,-10.002 22.211,-14.71 l 38.976,-24.624 141.346,-89.389 c 18.076,-11.406 37.216,-21.558 54.665,-33.889 z"
     id="path101"
     style="fill:url(#gradient_0)" />
  <path
     fill="#f7c15e"
     d="m 299.44827,288.4401 127.198,80.562 -2.932,0.781 c -21.668,-12.083 -42.364,-25.981 -63.401,-39.097 -20.232,-12.613 -40.81,-24.569 -60.857,-37.514 z"
     id="path102" />
  <path
     fill="#246a58"
     d="m 769.70027,156.6041 c 1.598,5.904 0.486,28.502 0.54,36.202 0.156,2.144 0.51,4.44 0.083,6.558 l -140.79,88.404 q -24.134,15.351 -48.57,30.217 c -6.936,4.166 -14.046,8.844 -21.31,12.38 v 0.431 c -5.547,-2.593 -11.069,-6.926 -16.342,-10.145 l -37.625,-22.879 -119.058,-72.812 c -13.724,-8.394 -27.258,-17.086 -41.115,-25.263 1.796,-1.871 3.465,-3.845 5.15,-5.815 -1.524,-1.878 -1.04,-30.831 -0.709,-35.273 6.067,1.997 11.494,6.691 16.985,9.936 20.343,12.022 40.198,24.558 60.283,36.981 l 87.529,53.914 c 14.821,9.08 30.192,17.765 44.683,27.339 5.781,-5.171 16.603,-10.712 23.422,-14.942 15.807,-9.804 31.451,-19.814 47.355,-29.47 z"
     id="path103" />
  <path
     fill="#f7c15e"
     d="m 770.24027,192.8061 c 0.156,2.144 0.51,4.44 0.083,6.558 l -140.79,88.404 q -24.134,15.351 -48.57,30.217 c -6.936,4.166 -14.046,8.844 -21.31,12.38 v 0.431 c -5.547,-2.593 -11.069,-6.926 -16.342,-10.145 l -37.625,-22.879 -119.058,-72.812 c -13.724,-8.394 -27.258,-17.086 -41.115,-25.263 1.796,-1.871 3.465,-3.845 5.15,-5.815 42.754,27.557 86.611,53.388 129.729,80.354 l 54.802,33.679 c 6.792,4.149 17.639,11.702 24.372,14.771 l 0.209,0.764 c 0.677,0.031 1.093,-0.03 1.683,-0.384 6.409,-3.84 12.561,-8.183 18.914,-12.13 l 53.963,-33.406 z"
     id="path104" />
  <path
     fill="#f79624"
     d="m 345.51327,199.6971 c 13.857,8.177 27.391,16.869 41.115,25.263 l 119.058,72.812 37.625,22.879 c 5.273,3.219 10.795,7.552 16.342,10.145 0.578,14.099 -0.117,28.231 0.386,42.335 -16.532,-10.545 -33.505,-20.37 -50.249,-30.568 l -115.582,-70.853 q -15.947,-9.891 -32.037,-19.547 c -5.438,-3.264 -11.929,-6.294 -16.719,-10.443 0.257,-4.792 0.275,-9.611 0.383,-14.409 1.036,-8.915 -0.261,-18.582 -0.322,-27.614 z"
     id="path105" />
  <path
     fill="#cd5727"
     d="m 770.32327,199.3641 c 0.042,3.421 -0.069,6.942 0.34,10.338 l 0.145,8.359 -0.049,21.802 c -6.57,5.56 -15.062,10.009 -22.395,14.572 q -21.364,13.156 -42.564,26.575 -62.323,39.929 -125.103,79.135 c -3.69,2.268 -17.771,12.079 -20.658,12.986 -0.503,-14.104 0.192,-28.236 -0.386,-42.335 v -0.431 c 7.264,-3.536 14.374,-8.214 21.31,-12.38 q 24.436,-14.866 48.57,-30.217 z"
     id="path106" />
  <path
     fill="#22939e"
     d="m 770.66327,209.7021 c 5.392,1.351 29.411,21.276 34.796,26.193 5.018,3.56 10.176,8.851 13.789,13.831 -16.734,12.303 -35.226,22.871 -52.811,33.969 l -88.608,56.225 -88.411,55.912 c -9.007,5.587 -20.713,14.37 -29.619,19.021 0.093,-6.687 0.562,-13.683 -0.159,-20.331 14.651,-7.639 28.598,-17.197 42.5,-26.113 l 50.685,-32.013 q 62.618,-38.757 124.366,-78.887 c 4.814,-3.086 26.112,-15.451 28.281,-18.421 l -0.269,-0.985 c -5.249,-2.737 -10.232,-6.165 -15.405,-9.075 -6.297,-3.543 -13.213,-6.624 -18.99,-10.967 z"
     id="path107" />
</svg>
