<?xml version="1.0" encoding="UTF-8" standalone="no"?>
<svg
   width="980.98859"
   height="745.67249"
   version="1.1"
   id="svg44"
   sodipodi:docname="house.svg"
   inkscape:version="1.3.2 (091e20ef0f, 2023-11-25)"
   xmlns:inkscape="http://www.inkscape.org/namespaces/inkscape"
   xmlns:sodipodi="http://sodipodi.sourceforge.net/DTD/sodipodi-0.dtd"
   xmlns="http://www.w3.org/2000/svg"
   xmlns:svg="http://www.w3.org/2000/svg">
  <defs
     id="defs44" />
  <sodipodi:namedview
     id="namedview44"
     pagecolor="#ffffff"
     bordercolor="#000000"
     borderopacity="0.25"
     inkscape:showpageshadow="2"
     inkscape:pageopacity="0.0"
     inkscape:pagecheckerboard="0"
     inkscape:deskcolor="#d1d1d1"
     inkscape:zoom="0.75928504"
     inkscape:cx="499.8123"
     inkscape:cy="458.98442"
     inkscape:window-width="1440"
     inkscape:window-height="831"
     inkscape:window-x="0"
     inkscape:window-y="0"
     inkscape:window-maximized="1"
     inkscape:current-layer="svg44" />
  <path
     id="path2-3"
     d="M 491.68854,307.42912 162.93474,453.86971 54.200544,502.34749 C 36.490459,510.24277 16.737055,517.60147 0,526.79917 c 33.553027,13.83498 65.882853,30.08972 99.33979,44.08889 l 66.98123,29.89301 c 9.72199,4.34703 20.38397,10.31704 30.68996,13.33642 17.49114,8.36285 35.42639,16.06018 53.18588,23.96587 14.94701,6.65743 29.82691,13.65997 44.99493,19.89857 20.16474,9.17039 40.38678,18.23875 60.66614,27.20657 12.70859,5.66649 25.36786,11.71954 38.28837,16.96714 l 97.09709,43.51684 c 44.82565,-20.56902 90.17604,-40.30915 135.27187,-60.41009 L 870.37555,576.55382 c 11.54794,-5.14089 107.08815,-46.35199 110.61305,-49.99001 -0.074,-0.10128 -0.1351,-0.21078 -0.2211,-0.30656 -2.1493,-2.3186 -93.41546,-42.61375 -98.47863,-43.54146 -0.19035,-0.28114 -0.49883,-0.92511 -0.75371,-1.12083 -2.877,-2.2143 -93.05921,-42.06274 -98.47553,-43.29512 l -0.5127,-0.7527 c -18.5763,-9.49393 -38.67896,-17.4396 -57.85393,-25.98994 -9.8132,-4.3766 -30.33875,-15.10543 -39.82649,-17.02327 l -0.59251,-0.84165 c -10.64833,-5.4576 -90.94391,-41.68372 -96.81463,-42.3563 -3.6385,-4.85811 -81.35194,-35.69021 -95.77083,-43.90686 z m 389.90957,176.81533 c -0.51156,0.50236 -4.53981,2.43962 -10.4121,5.11696 5.86545,-2.6744 9.90085,-4.61496 10.4121,-5.11696 z"
     style="fill:#96b006;fill-opacity:1;stroke-width:2.89917" />
  <path
     fill="#dde2d6"
     d="m 432.60521,0 33.804,21.4652 c -11.692,5.4427 -22.797,13.3139 -33.52,20.4525 -8.499,-6.6388 -24.049,-15.2958 -33.769,-20.8409 10.945,-7.3358 22.289,-14.1305 33.485,-21.0768 z"
     id="path2" />
  <path
     fill="#f8c25e"
     d="m 466.40921,21.4652 -0.043,30.3586 c -0.038,6.015 0.959,19.085 -0.92,24.297 -0.691,1.918 -2.021,3.612 -3.462,5.024 -7.55,7.398 -19.07,12.824 -28.892,16.458 -1.238,-18.422 1.255,-37.249 -0.203,-55.6851 10.723,-7.1386 21.828,-15.0098 33.52,-20.4525 z"
     id="path3" />
  <path
     fill="#f9e3a3"
     d="m 399.12021,21.0768 c 9.72,5.5451 25.27,14.2021 33.769,20.8409 1.458,18.4361 -1.035,37.2631 0.203,55.6851 -7.009,-1.36 -28.774,-16.258 -34.054,-21.686 -0.306,-7.363 -0.338,-14.757 -0.494,-22.125 -0.018,-4.351 -0.856,-30.6396 0.576,-32.715 z"
     id="path4" />
  <path
     fill="#dde2d6"
     d="m 466.36621,51.8238 c 10.325,6.483 21.18,12.651 31.113,19.703 -0.27,8.73 0.009,17.488 -0.335,26.207 l -5.579,3.501 c -14.693,8.496 -28.645,18.415 -42.888,27.646 -4.808,3.116 -10.325,7.571 -15.549,9.781 l -0.256,0.631 c -17.143,-11.309 -34.143,-22.735 -51.683,-33.432 -2.8,-2.126 -5.87,-3.894 -8.865,-5.731 q 0.094,-14.263 -0.052,-28.525 c 2.151,-3 21.619,-14.502 26.272,-17.813 0.156,7.368 0.188,14.762 0.494,22.125 5.28,5.428 27.045,20.326 34.054,21.686 9.822,-3.634 21.342,-9.06 28.892,-16.458 1.441,-1.412 2.771,-3.106 3.462,-5.024 1.879,-5.212 0.882,-18.282 0.92,-24.297 z"
     id="path5" />
  <path
     fill="#f9e3a3"
     d="m 372.27221,71.6048 c 19.22,14.886 41.281,26.003 60.776,40.539 0.426,8.753 0.328,17.755 0.08,26.518 l -0.256,0.631 c -17.143,-11.309 -34.143,-22.735 -51.683,-33.432 -2.8,-2.126 -5.87,-3.894 -8.865,-5.731 q 0.094,-14.263 -0.052,-28.525 z"
     id="path6" />
  <path
     fill="#f8c25e"
     d="m 497.47921,71.5268 c -0.27,8.73 0.009,17.488 -0.335,26.207 l -5.579,3.501 c -14.693,8.496 -28.645,18.415 -42.888,27.646 -4.808,3.116 -10.325,7.571 -15.549,9.781 0.248,-8.763 0.346,-17.765 -0.08,-26.518 5.811,-3.456 11.414,-7.382 17.14,-10.997 q 23.55,-14.962 47.291,-29.62 z"
     id="path7" />
  <path
     fill="#d27620"
     d="m 491.12621,129.1718 c 5.285,-1.922 22.132,-15.054 28.209,-19.236 20.052,-13.799 40.416,-27.106 60.393,-41.028 3.899,5.733 8.822,10.982 13.093,16.473 -17.714,11.28 -35.05,23.086 -52.58,34.644 l -121.219,80.212 -37.893,25.622 c -5.341,3.613 -10.621,7.561 -16.116,10.914 -4.015,-5.347 -8.246,-10.528 -12.262,-15.877 5.782,-3.697 24.879,-15.246 28.43,-19.241 -0.727,-31.857 0.019,-63.918 0.008,-95.794 17.54,10.697 34.54,22.123 51.683,33.432 l 0.256,-0.631 c 5.224,-2.21 10.741,-6.665 15.549,-9.781 14.243,-9.231 28.195,-19.15 42.888,-27.646 -0.108,9.283 -0.673,18.667 -0.439,27.937 z"
     id="path8" />
  <path
     fill="#f89624"
     d="m 491.56521,101.2348 c -0.108,9.283 -0.673,18.667 -0.439,27.937 -8.136,6.123 -17.253,11.413 -25.793,17.005 -10.799,7.071 -21.383,14.503 -32.309,21.373 -5.815,3.846 -49.387,33.599 -51.843,34.105 -0.727,-31.857 0.019,-63.918 0.008,-95.794 17.54,10.697 34.54,22.123 51.683,33.432 l 0.256,-0.631 c 5.224,-2.21 10.741,-6.665 15.549,-9.781 14.243,-9.231 28.195,-19.15 42.888,-27.646 z"
     id="path9" />
  <path
     fill="#cc5627"
     d="m 592.82121,85.3808 c 10.445,14.603 19.133,30.877 28.663,46.109 l 60.678,97.668 17.096,27.911 c 3.325,5.503 9.549,16.791 13.609,21.144 0.568,7.343 0.076,14.942 -0.002,22.314 -8.326,6.218 -18.116,10.844 -26.071,17.459 -2.683,1.693 -5.293,3.367 -7.771,5.355 q -19.151,12.902 -38.612,25.329 l -89.868,58.049 -50.947,33.441 c -8.275,5.386 -16.608,11.544 -25.375,16.015 -2.219,-5.392 -5.83,-10.86 -8.715,-15.966 l -18.839,-32.91 -64.989,-113.142 -18.387,-31.391 c -3.274,-5.562 -6.953,-11.135 -9.734,-16.955 -5.952,6.704 -12.802,12.779 -19.09,19.185 -13.993,14.258 -28.048,28.744 -41.422,43.582 -8.292,8.773 -17.58,20.573 -28.498,26.005 l -0.626,-1.839 q -4.195,-9.305 -8.728,-18.451 c 12.107,-12.454 25.565,-23.632 37.955,-35.829 l 33.535,-32.757 c 8.503,-8.383 16.851,-17.211 26.068,-24.811 4.016,5.349 8.247,10.53 12.262,15.877 5.495,-3.353 10.775,-7.301 16.116,-10.914 l 37.893,-25.622 121.219,-80.212 c 17.53,-11.558 34.866,-23.364 52.58,-34.644 z"
     id="path13" />
  <path
     fill="#873129"
     d="m 263.92121,332.7438 c 5.962,-5.186 10.687,-12.505 16.094,-18.341 9.112,-9.835 65.103,-67.856 72.572,-69.515 l 0.97,0.923 c -5.952,6.704 -12.802,12.779 -19.09,19.185 -13.993,14.258 -28.048,28.744 -41.422,43.582 -8.292,8.773 -17.58,20.573 -28.498,26.005 z"
     id="path14" />
  <path
     fill="#f9e3a3"
     d="m 529.70321,227.1488 c 6.046,3.866 42.23,25.696 44.056,29.25 l -0.279,0.258 c -13.092,9.352 -26.631,18.093 -39.825,27.31 -4.989,-4.331 -11.718,-7.676 -17.372,-11.183 q -14.33,-8.782 -28.223,-18.24 c 13.078,-10.041 27.909,-18.249 41.643,-27.395 z"
     id="path15" />
  <path
     fill="#f89624"
     d="m 488.06021,254.5438 q 13.893,9.458 28.223,18.24 c 5.654,3.507 12.383,6.852 17.372,11.183 13.194,-9.217 26.733,-17.958 39.825,-27.31 -0.346,19.029 0.054,38.114 0.034,57.149 -8.576,6.775 -18.023,12.642 -27.082,18.755 -4.207,2.839 -8.921,5.677 -12.637,9.121 -3.573,-0.81 -39.489,-23.612 -45.76,-27.597 z"
     id="path16" />
  <path
     fill="#873129"
     d="m 344.39994,584.61432 c -0.386,3.324 -0.507,7.167 -1.689,10.318 -0.663,1.765 -1.692,3.466 -3.606,4.061 -1.73,0.537 -3.368,0.065 -4.912,-0.721 -2.335,-2.879 -0.936,-9.755 -0.778,-13.401 l 2.963,0.249 c 2.709,0.37 5.344,-0.086 8.022,-0.506 z"
     id="path18" />
  <path
     fill="#cc5627"
     d="m 400.20321,611.9958 4.219,-0.263 c 0.123,3.928 0.23,7.839 0.653,11.748 0.58,6.011 1.111,12.062 2.052,18.03 -2.709,0.37 -5.962,1.187 -8.618,0.341 0.093,-5.211 0.419,-10.426 0.669,-15.632 0.715,-4.696 0.87,-9.483 1.025,-14.224 z"
     id="path19" />
  <path
     fill="#873129"
     d="m 745.88921,475.2118 c 1.462,-0.171 1.562,-0.204 2.759,0.749 0.33,0.263 0.74,0.671 1.052,0.973 l 1.035,4.938 c 0.915,4.47 4.151,7.898 5.08,12.208 0.308,1.427 0.037,2.294 -0.704,3.539 -2.543,2.063 -5.874,2.405 -9.076,2.214 -1.676,-0.1 -3.281,-0.403 -4.341,-1.823 -2.338,-3.132 2.63,-10.336 3.372,-13.768 0.612,-2.83 0.554,-6.122 0.823,-9.03 z"
     id="path20" />
  <path
     fill="#dde2d6"
     d="m 400.20321,611.9958 c -1.969,-0.25 -4.042,-0.576 -5.913,-1.242 -3.723,-1.327 -7.236,-3.97 -8.94,-7.601 -1.822,-3.885 -1.166,-8.514 0.404,-12.365 q 0.166,-0.414 0.353,-0.818 0.188,-0.405 0.396,-0.799 0.208,-0.394 0.436,-0.777 0.229,-0.383 0.476,-0.754 0.248,-0.371 0.515,-0.728 0.267,-0.357 0.552,-0.7 0.285,-0.343 0.587,-0.671 0.302,-0.327 0.621,-0.639 0.319,-0.311 0.654,-0.606 0.334,-0.295 0.684,-0.572 0.349,-0.276 0.713,-0.535 0.363,-0.258 0.739,-0.497 0.377,-0.239 0.765,-0.459 0.388,-0.219 0.787,-0.418 0.399,-0.199 0.808,-0.377 0.409,-0.178 0.826,-0.334 c 4.784,-1.802 10.577,-1.586 15.211,0.571 3.473,1.617 6.287,4.387 7.427,8.101 1.276,4.153 0.326,8.878 -1.652,12.657 -2.62,5.004 -6.997,7.688 -12.23,9.3 z"
     id="path21" />
  <path
     fill="#f9e3a3"
     d="m 745.88921,475.2118 c -0.244,-0.023 -0.489,-0.037 -0.731,-0.068 -3.757,-0.48 -8.511,-3.936 -10.587,-6.941 -2.519,-3.647 -3.624,-8.175 -2.795,-12.554 0.916,-4.84 3.956,-9.25 8.078,-11.927 q 0.366,-0.238 0.743,-0.457 0.377,-0.22 0.765,-0.419 0.388,-0.2 0.786,-0.379 0.397,-0.179 0.804,-0.338 0.406,-0.159 0.82,-0.296 0.414,-0.138 0.835,-0.254 0.42,-0.116 0.846,-0.21 0.426,-0.095 0.856,-0.167 0.431,-0.073 0.864,-0.123 0.433,-0.05 0.869,-0.078 0.435,-0.028 0.871,-0.033 0.437,-0.006 0.872,0.011 0.436,0.017 0.871,0.056 0.434,0.039 0.866,0.101 0.432,0.061 0.86,0.145 0.429,0.084 0.852,0.189 c 5.142,1.27 9.846,4.525 12.441,9.193 q 0.216,0.393 0.411,0.798 0.196,0.403 0.37,0.817 0.174,0.414 0.327,0.836 0.153,0.422 0.284,0.851 0.131,0.429 0.24,0.864 0.108,0.436 0.194,0.876 0.087,0.441 0.15,0.885 0.064,0.444 0.104,0.891 0.041,0.447 0.058,0.895 0.018,0.449 0.012,0.897 -0.005,0.449 -0.034,0.897 -0.028,0.448 -0.08,0.894 -0.051,0.446 -0.126,0.888 -0.074,0.443 -0.171,0.881 -0.097,0.438 -0.216,0.871 -0.12,0.432 -0.261,0.858 -0.284,0.851 -0.652,1.669 -0.368,0.818 -0.817,1.595 -0.449,0.777 -0.973,1.505 -0.525,0.728 -1.12,1.399 -0.596,0.671 -1.255,1.279 -0.66,0.608 -1.378,1.146 -0.717,0.539 -1.486,1.002 -0.768,0.463 -1.579,0.847 c -2.567,1.223 -5.147,1.839 -7.977,1.93 -0.312,-0.302 -0.722,-0.71 -1.052,-0.973 -1.197,-0.953 -1.297,-0.92 -2.759,-0.749 z"
     id="path22" />
  <path
     fill="#873129"
     d="m 728.01321,488.3868 c 0.128,4.474 0.125,8.995 0.449,13.458 -14.542,10.539 -30.113,19.769 -45.243,29.43 l -54.407,35.499 c -11.312,7.356 -23.355,14.098 -33.964,22.447 -18.413,-11.471 -37.144,-22.399 -55.64,-33.724 0.014,-3.997 0.02,-7.971 0.365,-11.957 3.737,3.195 51.261,31.186 55.147,32.662 3.777,-3.375 8.709,-6.004 12.983,-8.764 l 24.196,-15.613 q 30.444,-19.6 60.514,-39.77 c 11.902,-7.848 24.073,-15.261 35.6,-23.668 z"
     id="path23" />
  <path
     fill="#cc5627"
     d="m 250.19421,378.9618 c 1.751,0.539 3.584,1.026 5.026,2.206 9.296,7.602 21.248,31.134 27.013,42.031 3.525,6.663 6.495,13.629 10.015,20.265 1.315,5.627 2.408,10.822 2.612,16.63 -0.353,3.868 -0.798,7.726 -1.931,11.456 -4.419,11.665 -11.405,21.775 -23.128,26.971 -4.071,1.805 -8.366,2.814 -12.716,3.675 l 0.042,18.632 q 0.164,10.261 0.164,20.489 l -11.661,0.347 c 0.435,-7.454 0.361,-14.927 0.319,-22.389 0.045,-5.381 -0.023,-10.788 0.393,-16.155 2.29,-1.145 3.928,-3.184 5.372,-5.253 17.447,-24.998 10.368,-69.571 3.992,-97.866 -1.549,-6.873 -4.242,-13.593 -5.427,-20.506 -0.03,-0.177 -0.056,-0.355 -0.085,-0.533 z"
     id="path24" />
  <path
     fill="#d27620"
     d="m 211.49721,441.2338 c 2.384,-10.988 7.556,-21.342 13.102,-31.054 5.088,-8.911 15.701,-28.511 25.595,-31.218 0.029,0.178 0.055,0.356 0.085,0.533 1.185,6.913 3.878,13.633 5.427,20.506 6.376,28.295 13.455,72.868 -3.992,97.866 -1.444,2.069 -3.082,4.108 -5.372,5.253 -10.623,-1.872 -19.735,-5.03 -26.543,-13.88 -10.641,-13.83 -10.465,-31.578 -8.302,-48.006 z"
     id="path26" />
  <path
     fill="#cc5627"
     d="m 675.32821,453.5068 c 1.41,0.996 2.877,1.926 4.315,2.882 10.013,6.732 20.278,13.115 30.43,19.637 5.95,3.821 12.638,7.689 17.94,12.361 -11.527,8.407 -23.698,15.82 -35.6,23.668 q -30.07,20.17 -60.514,39.77 l -24.196,15.613 c -4.274,2.76 -9.206,5.389 -12.983,8.764 -3.886,-1.476 -51.41,-29.467 -55.147,-32.662 l -0.379,-0.56 c 5.911,-4.644 12.865,-8.025 18.679,-12.79 1.575,-1.29 1.606,-1.68 1.829,-3.597 0.126,0.607 0.331,1.205 0.507,1.8 2.778,0.064 46.791,-29.779 51.36,-33.162 20.945,-14.38 42.892,-27.203 63.759,-41.724 z"
     id="path27" />
  <path
     fill="#f8c25e"
     d="m 679.02321,323.3408 c 1.275,4.472 0.637,10.55 0.708,15.222 0.245,16.361 -0.434,32.873 0.309,49.197 0.004,22.813 0.552,45.851 -0.397,68.629 -1.438,-0.956 -2.905,-1.886 -4.315,-2.882 -20.867,14.521 -42.814,27.344 -63.759,41.724 -4.569,3.383 -48.582,33.226 -51.36,33.162 -0.176,-0.595 -0.381,-1.193 -0.507,-1.8 -0.223,1.917 -0.254,2.307 -1.829,3.597 -5.814,4.765 -12.768,8.146 -18.679,12.79 -9.626,6.686 -19.858,13.199 -29.997,19.071 -0.565,0.351 -1.4,0.715 -1.784,1.257 -7.359,3.592 -14.31,9.133 -21.176,13.64 -3.832,2.515 -8.292,4.785 -11.857,7.618 l -0.401,0.164 c 0.588,-5.527 0.4,-11.181 0.392,-16.733 q -0.38,-37.995 -0.322,-75.991 c -0.007,-11.871 -0.534,-23.999 0.172,-35.831 8.767,-4.471 17.1,-10.629 25.375,-16.015 l 50.947,-33.441 89.868,-58.049 q 19.461,-12.427 38.612,-25.329 z"
     id="path28" />
  <path
     fill="#d27620"
     d="m 673.92821,340.2438 c 1.052,7.28 0.173,18.333 0.163,26.08 l -0.087,58.19 c -17.118,12.321 -35.373,23.11 -52.669,35.231 -1.239,-7.053 -0.26,-18.758 -0.236,-26.181 l 0.116,-59.681 c 17.744,-10.625 36.002,-21.471 52.713,-33.639 z"
     id="path29" />
  <path
     fill="#d27620"
     d="m 551.00621,424.1068 0.76,0.72 -0.206,78.935 c -6.131,4.743 -13.101,8.773 -19.608,12.998 l -35.993,23.44 c -0.025,-0.022 -0.056,-0.04 -0.074,-0.068 -1.34,-2.016 -0.728,-74.08 -0.606,-81.126 18.735,-10.093 37.203,-23.84 55.727,-34.899 z"
     id="path30" />
  <path
     fill="#873129"
     d="m 611.56821,384.9798 10e-4,110.251 c -4.569,3.383 -48.582,33.226 -51.36,33.162 -0.176,-0.595 -0.381,-1.193 -0.507,-1.8 -0.859,-36.082 -0.084,-72.372 0.085,-108.475 z"
     id="path31" />
  <path
     fill="#f9e3a3"
     d="m 353.55721,245.8108 c 2.781,5.82 6.46,11.393 9.734,16.955 l 18.387,31.391 64.989,113.142 18.839,32.91 c 2.885,5.106 6.496,10.574 8.715,15.966 -0.706,11.832 -0.179,23.96 -0.172,35.831 q -0.058,37.997 0.322,75.991 c 0.008,5.552 0.196,11.206 -0.392,16.733 -1.889,-0.205 -3.24,-0.972 -4.865,-1.901 -6.986,-3.996 -13.661,-8.822 -20.485,-13.12 -24.738,-15.58 -49.212,-32.078 -74.513,-46.681 -16.917,-10.814 -33.788,-22.041 -51.12,-32.162 -9.692,-6.817 -20.133,-12.828 -30.067,-19.316 1.133,-3.73 1.578,-7.588 1.931,-11.456 -0.204,-5.808 -1.297,-11.003 -2.612,-16.63 1.488,-6.984 0.278,-23.343 0.355,-31.337 q 0.595,-46.209 0.377,-92.421 l 0.065,-11.128 c 13.374,-14.838 27.429,-29.324 41.422,-43.582 6.288,-6.406 13.138,-12.481 19.09,-19.185 z"
     id="path32" />
  <path
     fill="#873129"
     d="m 359.05021,404.4608 c 0.273,0.419 0.656,0.784 0.818,1.256 0.485,1.41 0.368,61.019 -0.065,66.48 l -0.586,0.312 -1.349,-0.842 c -1.027,-15.849 -0.295,-32.053 -0.228,-47.939 0.025,-5.811 0.36,-11.825 -0.099,-17.611 0.408,-0.651 0.963,-1.12 1.509,-1.656 z"
     id="path33" />
  <path
     fill="#873129"
     d="m 449.86621,461.2408 c 0.884,1.311 0.938,2.392 1.028,3.955 0.787,13.587 -0.025,27.656 0.011,41.289 0.015,5.934 0.906,19.604 0,24.72 -0.034,0.191 -0.09,0.377 -0.135,0.565 -1.248,-0.134 -0.671,0.077 -1.724,-0.654 -1.438,-16.121 -0.475,-33.002 -0.449,-49.21 0.01,-5.953 0.676,-12.69 -0.35,-18.512 0.4,-0.793 1.056,-1.466 1.619,-2.153 z"
     id="path34" />
  <path
     fill="#c18860"
     d="m 402.31921,437.1058 c 0.937,-1.339 2.105,-1.546 3.584,-1.998 4.096,1.587 8.068,4.67 11.863,6.976 l 22.239,13.48 c 2.909,1.798 6.579,4.719 9.861,5.677 -0.563,0.687 -1.219,1.36 -1.619,2.153 l -2.334,-0.104 c -13.676,-8.242 -27.043,-16.962 -40.985,-24.762 z"
     id="path35" />
  <path
     fill="#c18860"
     d="m 310.52421,383.8538 c -0.339,-2.086 -0.973,-4.279 -0.295,-6.331 0.402,-0.429 0.716,-1.054 1.352,-1.053 3.259,0.002 40.713,24.31 47.469,27.991 -0.546,0.536 -1.101,1.005 -1.509,1.656 -1.323,0.068 -2.668,0.017 -3.993,0.015 -1.336,-2.024 -34.297,-22.162 -38.638,-24.965 -1.369,-0.573 -2.603,-1.493 -4.049,-1.058 -0.418,1.285 -0.368,2.417 -0.337,3.745 z"
     id="path36" />
  <path
     fill="#cc5627"
     d="m 340.65521,299.7268 c 13.313,7.866 27.82,14.752 40.422,23.657 0.844,1.306 0.568,3.448 0.566,4.987 -5.591,-4.338 -12.344,-7.68 -18.474,-11.229 -5.706,-3.303 -11.406,-6.969 -17.314,-9.873 -0.471,11.541 -0.19,23.203 -0.023,34.754 7.064,5.79 32.14,17.285 35.314,21.163 0.122,0.149 0.367,1.43 0.38,1.515 0.129,0.904 0.075,1.908 0.082,2.825 -4.806,-0.936 -34.632,-19.211 -40.716,-22.763 -0.451,-14.989 -0.251,-30.041 -0.237,-45.036 z"
     id="path37" />
  <path
     fill="#256a58"
     d="m 402.31921,437.1058 2.609,1.422 0.5,0.75 c 0.557,0.828 1.163,1.534 1.835,2.27 q 0.125,30.013 0.819,60.019 c 12.192,7.639 24.682,14.837 36.755,22.657 0.166,-14.228 -0.26,-28.496 -0.319,-42.73 -0.024,-5.64 -0.606,-11.928 0.214,-17.457 0.369,-0.248 0.77,-0.582 1.181,-0.747 l 2.334,0.104 c 1.026,5.822 0.36,12.559 0.35,18.512 -0.026,16.208 -0.989,33.089 0.449,49.21 -15.232,-9.801 -30.905,-18.915 -46.456,-28.201 0.003,-21.855 0.709,-43.989 -0.271,-65.809 z"
     id="path38" />
  <path
     fill="#256a58"
     d="m 310.52421,383.8538 c -0.031,-1.328 -0.081,-2.46 0.337,-3.745 1.446,-0.435 2.68,0.485 4.049,1.058 1.855,19.676 0.251,39.777 1.054,59.533 12.431,7.403 25.016,14.675 37.106,22.626 0.055,-7.673 -0.78,-54.609 0.478,-57.194 1.325,0.002 2.67,0.053 3.993,-0.015 0.459,5.786 0.124,11.8 0.099,17.611 -0.067,15.886 -0.799,32.09 0.228,47.939 l -4.489,-3.052 c -14.392,-8.578 -28.226,-18.03 -42.698,-26.509 z"
     id="path39" />
  <path
     fill="#f89624"
     d="m 345.85521,307.2688 c 5.908,2.904 11.608,6.57 17.314,9.873 6.13,3.549 12.883,6.891 18.474,11.229 0.854,5.818 1.2,33.602 -0.035,39.155 -0.007,-0.917 0.047,-1.921 -0.082,-2.825 -0.013,-0.085 -0.258,-1.366 -0.38,-1.515 -3.174,-3.878 -28.25,-15.373 -35.314,-21.163 -0.167,-11.551 -0.448,-23.213 0.023,-34.754 z"
     id="path40" />
  <path
     fill="#519894"
     d="m 314.91021,381.1668 c 4.341,2.803 37.302,22.941 38.638,24.965 -1.258,2.585 -0.423,49.521 -0.478,57.194 -12.09,-7.951 -24.675,-15.223 -37.106,-22.626 -0.803,-19.756 0.801,-39.857 -1.054,-59.533 z"
     id="path41" />
  <path
     fill="#519894"
     d="m 404.92821,438.5278 c 13.942,7.8 27.309,16.52 40.985,24.762 -0.411,0.165 -0.812,0.499 -1.181,0.747 -0.82,5.529 -0.238,11.817 -0.214,17.457 0.059,14.234 0.485,28.502 0.319,42.73 -12.073,-7.82 -24.563,-15.018 -36.755,-22.657 q -0.694,-30.006 -0.819,-60.019 c -0.672,-0.736 -1.278,-1.442 -1.835,-2.27 z"
     id="path42" />
  <path
     id="path43"
     style="fill:#f8c25e;fill-opacity:1;stroke-width:0.890338"
     d="m 239.7078,419.67257 -19.17968,8.54297 c 4.81719,6.48391 9.28845,13.21526 12.20703,17.53515 3.73445,5.52756 6.99498,11.36475 10.72265,16.86914 0.75265,-6.21621 -1.71355,-20.39431 -2.3164,-27.37695 -0.43094,-5.19413 -0.98448,-10.37776 -1.4336,-15.57031 z m -63.84961,28.4414 -12.92382,5.75586 -108.734379,48.47852 c -13.723529,6.11804 -28.635837,11.93661 -42.458985,18.51562 0.664202,3.80871 1.113814,7.6958 1.441406,11.61328 28.88027,12.49287 57.116629,26.25848 86.158208,38.41016 l 66.98046,29.89453 c 9.72198,4.34703 20.38348,10.31656 30.68946,13.33594 17.49112,8.36284 35.42607,16.05916 53.18554,23.96484 14.947,6.65743 29.82809,13.65985 44.9961,19.89844 20.16472,9.17038 40.38667,18.23922 60.66601,27.20703 12.70858,5.66649 25.36857,11.7192 38.28907,16.9668 l 63.97461,28.67383 c 0.11382,-0.086 0.25777,-0.18403 0.36914,-0.26953 L 480.54374,713.696 c 27.39124,-20.88446 54.70791,-41.97392 82.4707,-62.38671 14.66264,-10.78063 29.95761,-20.67998 44.38282,-31.77539 -0.75584,-2.46162 -1.65444,-4.83192 -2.60547,-7.22657 -4.35927,-3.48061 -32.26183,-19.09246 -36.99805,-20.03711 l -45.56836,36.49024 c -29.34198,23.56548 -46.62125,41.75961 -88.42187,38.25976 -23.61912,-1.97791 -43.68631,-11.56701 -64.48438,-21.66406 l -31.875,-15.66992 -2.54687,-1.06445 -129.54297,-63.9336 -41.51172,-19.95898 c -6.85903,-3.27376 -13.99196,-6.28869 -20.65235,-9.91407 -3.22183,-1.75337 -6.09489,-3.75116 -8.49414,-6.49804 -0.29058,-0.33229 -0.57254,-0.6714 -0.8457,-1.01758 -0.27315,-0.34618 -0.53801,-0.69824 -0.79297,-1.05664 -0.255,-0.35897 -0.50017,-0.72309 -0.73633,-1.09375 -0.2362,-0.37125 -0.4631,-0.74767 -0.67968,-1.12891 -0.21664,-0.38182 -0.42213,-0.76835 -0.61914,-1.16015 -0.19641,-0.39186 -0.38252,-0.78871 -0.5586,-1.18946 -0.17612,-0.40133 -0.34242,-0.80637 -0.49804,-1.21484 -0.15508,-0.4091 -0.29968,-0.82062 -0.4336,-1.23633 -0.13397,-0.4163 -0.25704,-0.83602 -0.36914,-1.25781 -0.11209,-0.42179 -0.21257,-0.84673 -0.30273,-1.27344 -0.0908,-0.42724 -0.17016,-0.85468 -0.23828,-1.28515 -0.0676,-0.43053 -0.12588,-0.86323 -0.17188,-1.29688 -0.046,-0.43364 -0.0804,-0.86761 -0.10351,-1.30273 -0.0233,-0.43513 -0.0346,-0.87126 -0.0352,-1.30664 -8.7e-4,-0.43598 0.01,-0.87158 0.0312,-1.30665 0.0217,-0.43507 0.0535,-0.86914 0.0977,-1.30273 0.46042,-4.43178 2.15635,-8.8582 4.9668,-12.39258 4.80037,-6.03498 12.37126,-10.59093 18.58594,-15.16406 6.29845,-4.55548 12.48609,-9.24814 18.5625,-14.07813 0.81902,-6.553 2.83626,-12.93947 5.30273,-19.13867 z" />
  <path
     fill="#f89624"
     d="m 333.44594,492.74732 c 2.039,-0.204 3.588,-0.307 5.58,0.217 13.154,7.19 22.32,36.055 26.493,50.293 1.101,3.754 2,7.527 2.447,11.417 -0.2,8.627 -2.913,16.217 -9.223,22.292 -4.468,4.301 -9.216,4.876 -14.343,7.648 -2.678,0.42 -5.313,0.876 -8.022,0.506 l -2.963,-0.249 c -0.041,-0.015 -0.08,-0.037 -0.122,-0.047 -5.864,-1.364 -11.236,-2.713 -16.24,-6.262 -6.717,-4.763 -9.907,-11.547 -11.2,-19.413 -0.254,-5.585 1.405,-11.41 2.893,-16.732 q 3.752,-12.634 8.66,-24.866 c 3.243,-8.807 8.177,-16.456 14.256,-23.547 0.384,-0.542 1.219,-0.906 1.784,-1.257 z"
     id="path25" />
</svg>
