<?xml version="1.0" encoding="UTF-8" standalone="no"?>
<svg
   width="1024"
   height="1024"
   version="1.1"
   id="svg81"
   sodipodi:docname="housing.svg"
   inkscape:version="1.3.2 (091e20ef0f, 2023-11-25)"
   xmlns:inkscape="http://www.inkscape.org/namespaces/inkscape"
   xmlns:sodipodi="http://sodipodi.sourceforge.net/DTD/sodipodi-0.dtd"
   xmlns="http://www.w3.org/2000/svg"
   xmlns:svg="http://www.w3.org/2000/svg">
  <sodipodi:namedview
     id="namedview81"
     pagecolor="#ffffff"
     bordercolor="#000000"
     borderopacity="0.25"
     inkscape:showpageshadow="2"
     inkscape:pageopacity="0.0"
     inkscape:pagecheckerboard="0"
     inkscape:deskcolor="#d1d1d1"
     inkscape:zoom="0.70507812"
     inkscape:cx="470.86981"
     inkscape:cy="526.89197"
     inkscape:window-width="1920"
     inkscape:window-height="1011"
     inkscape:window-x="0"
     inkscape:window-y="0"
     inkscape:window-maximized="1"
     inkscape:current-layer="svg81" />
  <path
     fill="#3a1457"
     d="m 565.72892,135.13678 c 1.65079,0.0856 2.87229,0.24489 4.41981,0.83646 -9.46659,7.51928 -13.05731,13.0883 -15.54162,25.12475 -2.97407,-4.22803 -5.7608,-8.60063 -9.69819,-12.00695 -5.59263,-2.22613 -10.57745,-2.40168 -16.4961,-2.47249 1.52687,-1.01054 3.06702,-2.03878 4.66765,-2.92835 5.86407,-3.25879 11.4139,-2.71148 17.58334,-0.79072 4.93466,-3.92118 8.67882,-6.55153 15.06511,-7.7627 z"
     id="path2"
     style="stroke-width:1.47523" />
  <path
     fill="#3a1457"
     d="m 622.84121,121.84786 c 4.42719,-0.50158 8.64784,-0.23604 13.07798,0.062 -2.47546,1.27903 -5.05712,2.5374 -7.34521,4.13361 -7.88513,5.50411 -11.29146,11.74583 -12.92897,21.00589 -1.92076,-3.17914 -4.02149,-6.2196 -6.12665,-9.27629 -4.99368,-5.19283 -11.15722,-6.66511 -17.90347,-8.20526 1.23035,-0.76565 2.47692,-1.53572 3.78103,-2.17155 5.89357,-2.87376 11.36227,-2.05648 17.27944,0.16965 3.31338,-2.26153 6.52645,-4.04509 10.16585,-5.71801 z"
     id="path3"
     style="stroke-width:1.47523" />
  <path
     fill="#3a1457"
     d="m 607.92068,67.994359 c 4.51274,-0.212434 9.03287,0.734669 13.47628,1.432456 -6.03224,2.525603 -11.78123,5.093989 -16.53445,9.763112 -8.01938,7.879237 -6.20189,14.86448 -7.0413,24.772163 -0.15933,1.8765 -0.2744,2.90179 -1.70684,4.20885 -6.40844,-2.05205 -7.4824,-14.244878 -21.50601,-18.229491 l -1.04004,-0.286196 c -8.16395,-0.983982 -15.88977,0.843835 -23.68197,3.078818 4.9273,-6.448257 10.9743,-12.150045 19.24005,-13.693143 7.61073,-1.420652 13.75509,1.175763 19.94666,5.254791 1.19494,-2.676078 2.47545,-5.55869 4.17492,-7.963325 3.76481,-5.327077 8.4708,-7.154895 14.6727,-8.338035 z"
     id="path4"
     style="stroke-width:1.47523" />
  <path
     fill="#3a1457"
     d="m 184.2417,328.58598 76.93357,-0.25522 c 10.31632,0.0105 20.97195,-0.6786 31.24697,-0.15637 2.12139,0.10767 4.86238,0.39093 6.71233,1.56375 1.58144,1.00316 2.58018,2.17892 2.79262,4.09967 0.21981,1.98714 -0.36438,4.08199 -1.74669,5.53215 -2.11696,2.2217 -5.80357,1.90748 -8.6493,2.03582 -13.7846,0.0105 -110.72091,1.31001 -115.30447,-1.26281 -1.757,-0.98545 -2.74541,-3.6335 -2.93571,-5.47164 0.42782,-1.46639 0.73024,-2.21138 1.83667,-3.32813 2.56543,-2.58904 5.6826,-2.65691 9.11401,-2.75722 z"
     id="path5"
     style="stroke-width:1.47523" />
  <path
     fill="#3a1457"
     d="m 145.2217,383.16234 c 5.34626,-0.0604 22.37786,-1.549 26.50262,1.0061 1.99746,1.23773 3.86954,3.48305 3.89609,5.94964 0.0192,1.77766 -0.68893,3.31191 -2.0904,4.40506 -4.30179,3.35763 -87.478558,1.61243 -99.045888,1.6021 -7.72285,-0.0693 -18.5806,1.77914 -25.77828,-0.62698 -1.96059,-0.655 -4.15131,-2.01516 -4.80336,-4.09083 -0.51929,-1.64931 -0.43372,-3.13192 0.62845,-4.53929 1.68767,-2.23794 5.45837,-3.05818 8.08281,-3.35764 10.6099,-1.2156 22.3513,-0.12245 33.07776,-0.0811 z"
     id="path6"
     style="stroke-width:1.47523" />
  <path
     fill="#3a1457"
     d="m 797.65376,262.84503 c 30.97553,-0.68156 62.06023,-0.0207 93.05056,-0.0443 11.5083,-0.009 34.9483,-1.29083 45.0537,0.23162 2.2645,0.34225 4.5289,1.52391 5.6664,3.59367 0.8925,1.62424 0.8969,3.53023 0.06,5.1825 -1.0164,2.00928 -2.6038,2.55217 -4.5526,3.25585 l -98.83049,0.24193 c -8.97533,0.0384 -33.67079,1.49738 -41.2594,-0.49125 -2.35301,-0.61664 -3.60548,-1.49589 -4.7901,-3.68366 -0.16965,-1.95174 -0.23456,-3.61138 0.88072,-5.37429 1.13298,-1.79093 2.84573,-2.30284 4.72076,-2.91211 z"
     id="path7"
     style="stroke-width:1.47523" />
  <path
     fill="#3a1457"
     d="m 312.3158,143.33467 c 0.25521,-0.0354 0.50896,-0.0797 0.76565,-0.10326 q 1.66849,-0.16523 3.34288,-0.25227 1.6744,-0.087 3.35026,-0.0929 1.67734,-0.007 3.35174,0.0649 1.67439,0.0723 3.34437,0.22424 1.66996,0.15195 3.3296,0.38208 1.66111,0.23162 3.30896,0.53994 1.64783,0.3098 3.27945,0.69631 1.63013,0.38799 3.24108,0.85121 1.61096,0.4647 3.19832,1.00464 1.58736,0.53994 3.14668,1.15363 1.5608,0.61518 3.08914,1.30264 1.52982,0.68746 3.02424,1.4472 1.49441,0.75975 2.95046,1.58883 1.45754,0.83055 2.87377,1.7275 1.41475,0.89842 2.78672,1.86175 1.37197,0.96333 2.69673,1.99157 c 16.45773,12.88323 25.51126,30.22316 28.12833,50.7378 3.63941,-0.44995 7.33635,-0.90285 11.00821,-0.93825 10.32518,-0.10031 20.0588,4.70305 27.23729,11.92728 10.03898,10.1039 13.08682,21.84677 13.0219,35.78333 6.90854,0.0811 21.58714,-2.39726 26.98946,1.76143 1.58293,1.22001 2.38545,2.4061 2.4725,4.45226 0.0811,1.91338 -0.60781,3.58925 -2.1037,4.80779 -2.15236,1.75554 -5.23414,2.22466 -7.91022,2.43267 -12.29608,0.95595 -28.2493,-0.16671 -41.08089,-0.0782 l -110.23998,0.15637 q -54.12346,0.2803 -108.24545,-0.17259 c -14.87776,-0.10475 -30.08597,0.78039 -44.91947,-0.20802 -1.95026,-0.12982 -4.43898,-0.16965 -6.04551,-1.39704 -1.44131,-1.10053 -1.85438,-2.75279 -1.89569,-4.46702 -0.0486,-2.03436 0.94859,-3.99199 2.35743,-5.40526 1.8647,-1.87061 3.76923,-2.40022 6.34942,-2.30137 l 7.69041,0.30685 c 1.26722,-4.00822 2.89883,-8.04151 5.17955,-11.58946 6.01159,-9.35743 15.19936,-14.26405 25.77237,-16.56837 4.99073,-9.11106 10.90642,-17.0862 19.55721,-23.04614 9.3943,-6.47187 20.75658,-9.65248 32.09228,-7.56502 3.2293,-9.2158 7.33783,-17.8651 13.34795,-25.616 12.48787,-16.10368 30.173,-24.8946 50.15655,-27.40103 z"
     id="path9"
     style="stroke-width:1.47523" />
  <defs
     id="defs10">
    <linearGradient
       id="gradient_0"
       gradientUnits="userSpaceOnUse"
       x1="417.77698"
       y1="387.63361"
       x2="332.96173"
       y2="302.62708"
       gradientTransform="matrix(1.4752361,0,0,1.4752361,-245.45771,-259.67328)">
      <stop
         offset="0"
         stop-color="#EDD0E4"
         id="stop9" />
      <stop
         offset="1"
         stop-color="white"
         id="stop10" />
    </linearGradient>
  </defs>
  <path
     fill="url(#gradient_0)"
     d="m 313.40453,155.14688 c 0.14162,-0.0192 0.28176,-0.0472 0.42338,-0.056 17.14225,-1.19642 32.67502,3.65711 45.51695,15.20968 17.09208,15.37639 21.28175,33.44065 22.43391,55.54707 5.83013,-3.31781 11.19409,-5.70327 18.08049,-5.97175 7.86597,-0.30686 15.26132,2.70262 20.86869,8.17722 8.08135,7.89105 10.39304,17.02423 10.32961,27.89672 L 301.48609,255.7964 179.00756,255.66067 c 1.06954,-2.70705 2.36922,-5.37134 4.17934,-7.6668 5.94372,-7.54288 14.01474,-9.56248 23.06827,-10.68513 3.90347,-10.18356 8.50031,-18.78419 18.37259,-24.42992 11.08345,-6.33761 22.16542,-5.59409 33.95847,-2.35005 2.72181,-12.06447 5.74014,-23.1199 13.52496,-33.01873 10.18503,-12.9511 25.06426,-20.53381 41.29334,-22.3631 z"
     id="path10"
     style="fill:url(#gradient_0);stroke-width:1.47523" />
  <path
     fill="#3a1457"
     d="m 772.59097,85.092348 c 14.36584,-1.554899 29.79239,2.913591 42.33485,9.690826 21.2552,11.484716 33.09249,28.455826 39.90218,51.156766 12.57345,0.82613 23.68202,3.82086 33.88032,11.54372 13.0883,9.91211 18.8933,23.03286 21.1386,38.91672 8.4723,0.009 19.2843,-1.52391 27.3273,1.32329 2.2674,0.80401 3.4299,1.68325 4.5024,3.81497 -0.3098,2.43119 -1.251,3.51106 -2.7557,5.31379 -9.0978,3.65565 -128.72029,1.89273 -148.57843,1.90306 l -105.95,-0.1003 c -18.62043,-0.059 -38.15698,1.0061 -56.67562,-0.66092 -2.15826,-0.19324 -4.39326,-0.32306 -6.04109,-1.92959 -1.27608,-1.24364 -1.88682,-3.03752 -2.03583,-4.7783 -0.53698,-6.30958 5.52181,-15.65667 9.6864,-20.06616 5.69736,-6.03372 13.07502,-9.14499 21.29503,-9.46659 2.50938,-6.68872 5.61771,-12.69293 10.46386,-18.01558 11.59979,-12.74162 26.36837,-16.32644 42.94264,-17.10832 3.74268,-9.114 8.20232,-17.71168 14.56797,-25.28997 14.08702,-16.771959 32.52158,-24.415158 53.99512,-26.247401 z"
     id="path11"
     style="stroke-width:1.47523" />
  <defs
     id="defs12">
    <linearGradient
       id="gradient_1"
       gradientUnits="userSpaceOnUse"
       x1="677.8811"
       y1="266.9646"
       x2="744.63605"
       y2="335.58093"
       gradientTransform="matrix(1.4752361,0,0,1.4752361,-245.45771,-259.67328)">
      <stop
         offset="0"
         stop-color="#EEE1E7"
         id="stop11" />
      <stop
         offset="1"
         stop-color="#FCDFF5"
         id="stop12" />
    </linearGradient>
  </defs>
  <path
     fill="url(#gradient_1)"
     d="m 784.79559,97.06684 c 19.04088,2.835403 35.57976,11.55552 47.25182,27.14877 7.74204,10.33993 11.99367,22.24656 14.38355,34.84803 12.46575,-2.27334 23.5669,-0.85712 34.17976,6.48513 9.3943,6.49842 15.7762,17.63203 17.6158,28.80694 q 0.1239,0.76713 0.2227,1.53867 -64.17863,0.39094 -128.35878,0.0604 c -18.88893,-0.11802 -38.01093,0.33931 -56.87035,-0.52961 4.73255,-3.33403 13.37154,-3.74709 19.00546,-4.79157 23.50199,-4.3549 51.53443,-11.5747 68.19427,-29.86468 7.40127,-8.12707 11.93171,-18.467 11.13951,-29.60356 -1.19052,-16.71 -15.58292,-24.09651 -26.76374,-34.098607 z"
     id="path12"
     style="fill:url(#gradient_1);stroke-width:1.47523" />
  <path
     fill="#fafbfc"
     d="m 713.98869,149.24152 c 3.77955,-17.13045 10.31779,-30.53149 24.91083,-41.03222 q 1.22888,-0.88367 2.49757,-1.70685 1.27019,-0.82466 2.57872,-1.58588 1.30706,-0.76122 2.651,-1.45901 1.34247,-0.69778 2.71738,-1.32919 1.37492,-0.63287 2.77934,-1.19789 1.40296,-0.56501 2.83247,-1.062166 1.4295,-0.497156 2.88113,-0.924974 1.45311,-0.426343 2.92244,-0.78335 1.47082,-0.357008 2.95785,-0.643204 1.48556,-0.286195 2.9844,-0.500105 1.49736,-0.213909 3.00506,-0.355531 1.50622,-0.141623 3.01833,-0.209484 1.51212,-0.06934 3.02571,-0.06491 1.51212,0.0044 3.02423,0.08114 1.51212,0.07671 3.01686,0.227186 1.50622,0.148999 3.00358,0.371759 c 11.18082,10.002099 25.57322,17.388609 26.76374,34.098609 0.7922,11.13656 -3.73824,21.47649 -11.13951,29.60356 -16.65984,18.28998 -44.69228,25.50978 -68.19427,29.86468 -5.63392,1.04447 -14.27291,1.45754 -19.00546,4.79157 -26.42444,1.19198 -53.48469,0.66975 -79.95043,0.37176 1.86765,-3.67481 4.0982,-6.90558 7.54436,-9.28071 5.49083,-3.78251 11.85499,-3.05374 18.01853,-1.88831 3.03457,-12.37575 7.6196,-22.57406 18.75321,-29.82337 10.89904,-7.09588 23.92242,-8.18756 36.40293,-5.56311 z"
     id="path13"
     style="stroke-width:1.47523" />
  <path
     id="path15"
     style="stroke-width:1.47523;fill:#3a1457;fill-opacity:1"
     d="M 696.02734 274.96875 C 675.54814 274.86124 654.48363 275.09498 649.28711 275.43945 C 645.88079 275.66516 642.70751 275.96309 639.6582 277.59766 C 634.78993 280.20586 631.02304 283.86065 629.3457 289.22461 C 627.63295 294.70658 628.52313 300.63437 631.27148 305.61328 C 634.07443 310.69399 638.08073 314.05112 643.11719 316.77734 C 643.17127 333.79271 643.07305 350.8079 642.82227 367.82227 C 625.90427 354.13799 609.15005 340.25641 592.56055 326.17578 C 585.29353 320.05652 578.32643 313.19809 570.66406 307.60547 C 567.68261 305.42803 564.13011 303.02236 560.49219 302.20508 C 548.98241 299.61752 524.17849 302.17565 511.17578 302.33203 C 500.34902 302.46185 488.19784 299.24084 478.06445 300.33398 C 472.28891 300.958 465.95491 305.75581 461.54102 309.36719 C 449.66833 319.08013 438.37358 329.68831 426.85938 339.83203 L 375.04297 385.13086 L 265.72656 480.01562 L 200.26172 536.25391 C 192.1317 543.31734 180.94237 551.04083 174.56641 559.66211 C 170.55378 565.08801 169.66856 573.08774 170.83398 579.55664 C 172.46707 588.62049 177.88266 597.05758 185.59961 602.125 C 191.62594 606.0816 199.22392 607.80625 206.32422 606.26758 C 220.43483 603.20941 234.92887 585.33468 246.48438 576.57031 L 246.40234 791.77344 C 225.1678 779.14985 206.27047 774.06969 181.5957 780.25977 C 158.95822 785.93795 142.77231 800.57529 131.07812 820.31836 L 129.84766 822.41602 C 111.20953 814.84217 92.603934 813.40354 73.757812 821.41406 C 56.909159 828.57485 43.167887 841.45098 36.246094 858.53125 C 34.822485 862.04526 33.648011 865.73057 32.669922 869.39062 L 29.662109 869.38086 L 29.662109 891.72656 C 71.094651 891.54909 112.49813 890.81095 153.9375 890.20508 L 739.61328 887.36914 C 813.14045 887.35734 886.84127 889.2556 960.3418 888.18164 C 969.52519 887.25961 979.14283 887.82048 988.38672 887.86328 C 988.00752 881.78827 986.71487 875.72198 986.07617 869.64844 C 976.50478 846.65249 962.71541 830.35013 939.26953 820.71094 C 922.03285 813.62538 906.72795 814.8822 888.63867 814.55469 C 887.41567 803.19391 888.04817 791.52235 888.07617 780.09961 L 888.21289 723.61328 C 917.82086 722.52456 945.41875 708.55762 965.55273 687.06641 C 984.75292 666.57245 995.91886 638.68292 994.81836 610.49414 C 994.76136 608.8409 994.66217 607.19032 994.52344 605.54297 C 994.38477 603.89464 994.20755 602.2508 993.98828 600.61133 C 993.76895 598.97185 993.50898 597.34055 993.20898 595.71484 C 992.90905 594.08815 992.56912 592.46934 992.18945 590.85938 C 991.80985 589.2494 991.39093 587.64987 990.93359 586.06055 C 990.47533 584.47222 989.97843 582.89482 989.44336 581.33008 C 988.90736 579.76535 988.33439 578.21493 987.72266 576.67773 C 987.11092 575.14152 986.4609 573.62193 985.77344 572.11719 C 985.08697 570.61245 984.36473 569.1246 983.60547 567.65625 C 982.84527 566.18691 982.04786 564.73859 981.2168 563.30859 C 980.38573 561.8786 979.52001 560.46875 978.61914 559.08203 C 977.71927 557.69433 976.78609 556.32977 975.81836 554.98828 C 974.85056 553.64681 973.85003 552.33137 972.81836 551.03906 C 971.78569 549.74774 970.72351 548.48042 969.62891 547.24023 C 968.53424 546.00006 967.40946 544.78959 966.25586 543.60547 C 965.10119 542.42036 963.9177 541.26477 962.70703 540.13867 C 959.84663 537.50242 956.77773 535.11317 953.67383 532.77344 C 963.08262 508.89972 964.0281 485.94129 953.59961 462.04102 C 947.58512 448.25347 937.53039 435.37748 925.5957 426.2207 C 933.5797 406.56762 935.71874 387.25591 927.34375 367.21484 C 921.28946 352.72951 910.48338 340.12907 895.6543 334.28125 C 894.94323 333.99996 894.22682 333.73707 893.50195 333.49219 C 892.77815 333.24631 892.04817 333.01905 891.3125 332.81055 C 890.57683 332.60106 889.83531 332.41039 889.08984 332.23828 C 888.34438 332.06519 887.59615 331.91112 886.84375 331.77539 C 886.09142 331.63967 885.33544 331.52315 884.57617 331.42578 C 883.81791 331.32739 883.05712 331.24843 882.29492 331.1875 C 881.53272 331.12749 880.77006 331.0851 880.00586 331.0625 C 879.24073 331.0389 878.47709 331.03505 877.71289 331.05078 C 876.94776 331.0656 876.18312 331.09928 875.41992 331.15234 C 874.65772 331.20545 873.89503 331.27866 873.13477 331.36914 C 872.37555 331.45962 871.61957 331.56746 870.86523 331.69531 C 870.11189 331.82317 869.36073 331.96954 868.61328 332.13477 C 867.86682 332.29999 867.1263 332.48393 866.38867 332.68555 C 865.65105 332.88716 864.9182 333.1077 864.19141 333.3457 C 863.46461 333.58371 862.74331 333.83889 862.0293 334.11328 C 861.3143 334.38669 860.60747 334.67752 859.9082 334.98633 C 845.42289 341.40508 833.77614 355.70017 828.26172 370.33008 C 822.3947 385.88937 822.03809 405.43955 829.10742 420.67578 C 830.21187 423.05681 831.40985 425.38918 832.70117 427.67383 C 814.6561 440.72228 802.06703 458.72088 798.58398 481.01758 C 797.69149 486.72674 797.49965 492.45497 797.61328 498.22461 C 776.17517 481.21613 755.21649 463.63373 734.74023 445.47852 L 734.59766 316.81055 C 740.90723 314.03857 746.80782 310.95659 749.62109 304.22656 C 749.91712 303.49976 750.17424 302.76019 750.39453 302.00586 C 750.61484 301.25251 750.79491 300.48787 750.93555 299.71484 C 751.07721 298.94281 751.1793 298.16568 751.24023 297.38281 C 751.30017 296.59897 751.32045 295.81412 751.30078 295.0293 C 751.28111 294.24447 751.22043 293.46447 751.11914 292.68555 C 751.01881 291.90663 750.87823 291.13331 750.69727 290.36914 C 750.51729 289.60497 750.29772 288.85287 750.03906 288.11133 C 749.78138 287.36977 749.48575 286.6427 749.15234 285.93164 C 747.15636 281.74934 743.68843 278.12 739.25977 276.54297 C 736.4015 275.52505 716.50655 275.07626 696.02734 274.96875 z " />
  <path
     fill="#f5ce6b"
     d="m 652.46986,321.12718 c 0.0325,-1.53572 0.23751,-2.8059 0.61517,-4.29293 4.18967,-2.49168 34.31843,-0.59747 40.8906,-0.43963 l -0.21833,5.21792 q -13.09568,-0.15786 -26.18987,0.0162 z"
     id="path16"
     style="stroke-width:1.47523" />
  <path
     fill="#ae583c"
     d="m 543.45286,828.94478 26.14266,0.20211 -0.11364,9.64804 c -10.35173,0.004 -20.79788,0.30686 -31.1378,-0.0738 -0.17408,-3.22486 0.10474,-6.53677 0.21833,-9.76754 z"
     id="path17"
     style="stroke-width:1.47523" />
  <path
     fill="#fafbfc"
     d="m 874.06062,697.12358 c 1.8692,0.48093 2.5168,0.42339 3.7707,1.85142 1.2348,15.48113 0.3807,31.69693 0.419,47.24886 0.038,15.21117 1.0533,31.08175 -0.4662,46.19998 -1.6375,-1.52982 -2.8796,-3.36502 -4.2265,-5.15005 z"
     id="path18"
     style="stroke-width:1.47523" />
  <path
     fill="#c97a3a"
     d="m 537.65665,816.37577 c 7.3216,-0.64468 24.07438,-3.33551 29.8042,1.92666 2.95932,2.71591 2.25711,7.21096 2.13467,10.84446 l -26.14266,-0.20211 -4.89042,0.009 -0.56353,-0.53698 c -1.07545,-3.88872 -0.78188,-8.08725 -0.80548,-12.09841 z"
     id="path19"
     style="stroke-width:1.47523" />
  <path
     fill="#d89c4f"
     d="m 537.19343,816.31824 0.46322,0.0575 c 1.29968,0.15195 3.6999,0.0162 4.54078,1.03562 2.23941,2.7159 1.06217,8.1492 1.25543,11.53339 l -4.89042,0.009 -0.56353,-0.53698 c -1.07545,-3.88872 -0.78188,-8.08725 -0.80548,-12.09841 z"
     id="path20"
     style="stroke-width:1.47523" />
  <path
     fill="#ae583c"
     d="m 585.38055,862.18481 c 0.0265,3.94477 0.32012,7.85858 -0.92203,11.64846 -3.61728,3.26322 -35.714,1.73783 -42.91757,1.70242 -0.004,-3.18798 -0.1254,-6.37891 -0.20211,-9.56542 5.18693,-2.1627 26.03792,-0.26998 33.92453,-1.08283 3.46386,-0.35848 6.83182,-1.59621 10.11718,-2.70263 z"
     id="path21"
     style="stroke-width:1.47523" />
  <path
     fill="#c97a3a"
     d="m 508.79808,828.52581 q 14.60042,-0.17703 29.20083,-0.10919 l 0.56353,0.53699 c -0.11363,3.23077 -0.3924,6.54267 -0.21833,9.76754 h -47.21198 c 0.3747,-3.16143 1.14183,-6.32581 1.75848,-9.45037 5.22086,-0.0236 10.78693,0.31865 15.90747,-0.74499 z"
     id="path22"
     style="stroke-width:1.47523" />
  <path
     fill="#09ac73"
     d="m 831.90431,650.95753 c 0.52076,-0.86891 1.28641,-2.77786 2.26007,-3.07733 3.40337,-1.04742 14.94561,2.61264 19.14561,3.13192 5.44952,0.67566 11.01116,0.6314 16.49609,0.6668 l -0.0399,27.67249 c -8.69357,-7.7745 -21.36733,-22.32622 -31.44172,-27.13845 -1.95911,-0.93677 -4.28556,-1.06659 -6.42023,-1.25543 z"
     id="path23"
     style="stroke-width:1.47523" />
  <path
     fill="#c97a3a"
     d="m 535.37889,849.56416 c 7.804,-0.53698 41.09565,-2.51086 46.04654,1.47376 2.91212,2.34415 3.66892,6.21518 3.88725,9.76459 0.0281,0.46028 0.0443,0.92202 0.0679,1.3823 -3.28536,1.10642 -6.65332,2.34415 -10.11718,2.70263 -7.88661,0.81285 -28.7376,-1.07987 -33.92453,1.08283 -0.25374,-0.35112 -0.14015,-0.85565 -0.18441,-1.28641 -2.42381,-0.52372 -5.0335,-0.36882 -7.51042,-0.37914 l -0.16966,-14.81875 z"
     id="path24"
     style="stroke-width:1.47523" />
  <path
     fill="#d89c4f"
     d="m 533.47436,849.48597 1.90453,0.0782 c 2.56395,0.17113 3.67038,-0.17407 5.62064,1.57998 1.74226,4.01707 1.07841,9.32202 0.1549,13.53972 -2.4238,-0.52371 -5.0335,-0.36881 -7.51042,-0.37914 z"
     id="path25"
     style="stroke-width:1.47523" />
  <path
     fill="#d89c4f"
     d="m 699.29828,286.23932 c 8.61686,-0.15342 34.40399,-3.28093 40.39197,3.70875 1.78503,2.08303 2.06238,4.46996 1.64636,7.08113 -0.6137,3.85774 -3.19978,6.19894 -6.31991,8.27607 -0.36439,0.24341 -0.73319,0.4765 -1.09905,0.71402 -15.98861,0.16965 -32.09524,0.50453 -48.07795,0.0974 5.61328,-3.81792 9.74246,-5.31528 13.8982,-11.0687 0.1431,-2.96818 -0.16228,-5.85964 -0.43962,-8.80864 z"
     id="path26"
     style="stroke-width:1.47523" />
  <path
     fill="#fafbfc"
     d="m 652.46986,321.12718 15.09757,0.50158 c 0.15637,5.35069 1.6257,19.93635 -0.61665,24.10388 -1.68915,1.0194 -1.82487,0.88073 -2.35596,2.74689 0.79221,1.12119 0.73173,1.24953 2.05501,1.8765 1.06217,9.4725 1.67882,27.56627 -0.15342,36.77322 q -7.00738,-6.17091 -14.32897,-11.96565 z"
     id="path27"
     style="stroke-width:1.47523" />
  <path
     fill="#d89c4f"
     d="m 491.13213,838.72118 c -11.10116,-0.0295 -81.31797,1.76143 -85.27751,-1.21855 -3.34436,-2.51823 -3.82381,-6.00716 -4.28704,-9.92244 10.16881,2.37808 24.98166,0.89104 35.65352,0.88957 l 71.57698,0.0561 c -5.12054,1.06365 -10.68661,0.72139 -15.90747,0.745 -0.61665,3.12455 -1.38378,6.28893 -1.75848,9.45036 z"
     id="path28"
     style="stroke-width:1.47523" />
  <path
     fill="#09ac73"
     d="m 782.08411,647.73415 c 17.7412,10.72644 32.69861,17.90051 53.84612,16.58756 q 8.80274,8.04298 17.49482,16.20694 c -10.13634,4.92434 -39.84612,-2.00189 -52.11566,-3.13783 l -0.75532,-0.0649 c -8.31295,-8.44276 -14.14162,-18.63517 -18.46996,-29.59175 z"
     id="path29"
     style="stroke-width:1.47523" />
  <path
     fill="#068a6a"
     d="m 909.67142,823.70327 c 18.7325,-0.28324 38.0611,9.44742 51.2467,22.37786 9.4076,9.22466 15.3085,20.34793 18.2266,33.1279 l -8.5372,-0.12097 c -9.6245,-2.32349 -16.2261,-19.72686 -28.5695,-22.83961 -0.056,-0.23456 -0.087,-0.47945 -0.1711,-0.70663 -5.6088,-15.20821 -18.4227,-24.60694 -32.1955,-31.83855 z"
     id="path30"
     style="stroke-width:1.47523" />
  <path
     fill="#fafbfc"
     d="m 647.21359,306.00897 c -1.00315,-0.51487 -2.01074,-1.01644 -2.96227,-1.62277 -2.6333,-1.68029 -4.6942,-3.90347 -5.16628,-7.08703 -0.44404,-3.00359 0.17113,-6.00569 2.1981,-8.31001 1.51507,-1.72307 4.23393,-2.5138 6.41285,-2.83245 5.6295,-0.82318 11.94204,0 17.66006,0.0399 l 33.94223,0.0428 c 0.27734,2.94901 0.58272,5.84046 0.43962,8.80864 -4.15574,5.75342 -8.28492,7.25079 -13.8982,11.06871 -11.67797,-0.007 -27.35678,2.42823 -38.62611,-0.10767 z"
     id="path31"
     style="stroke-width:1.47523" />
  <path
     fill="#f9dd91"
     d="m 648.80833,296.46123 c 16.86047,-0.68893 34.06467,-1.32771 50.92957,-1.41328 -4.15574,5.75343 -8.28492,7.25079 -13.8982,11.06871 -11.67797,-0.007 -27.35678,2.42824 -38.62611,-0.10767 1.45311,-2.81033 1.34984,-6.42761 1.59474,-9.54774 z"
     id="path32"
     style="stroke-width:1.47523" />
  <path
     fill="#05857b"
     d="m 800.55407,677.32591 0.75532,0.0649 c 12.26954,1.13593 41.97932,8.06217 52.11566,3.13783 4.30917,3.1983 8.26871,7.02359 12.28725,10.58776 -0.49862,7.64468 -0.26407,15.39115 -0.26997,23.05205 -27.12664,-5.00401 -46.45076,-16.56838 -64.88826,-36.84255 z"
     id="path33"
     style="stroke-width:1.47523" />
  <path
     fill="#fafbfc"
     d="m 401.56758,827.58019 c 0.54879,-2.88851 1.15807,-5.7962 3.21455,-8.03561 1.8706,-2.03731 4.41538,-2.71591 7.07966,-2.99473 13.09419,-1.36607 27.55593,-0.16818 40.79175,-0.17408 l 84.53989,-0.0575 c 0.0236,4.01116 -0.26997,8.20969 0.80548,12.09841 q -14.60041,-0.0678 -29.20083,0.10919 l -71.57698,-0.0561 c -10.67186,10e-4 -25.48471,1.48851 -35.65352,-0.88958 z"
     id="path34"
     style="stroke-width:1.47523" />
  <path
     fill="#c97a3a"
     d="m 533.64401,864.30472 c 2.47692,0.0105 5.08662,-0.14458 7.51042,0.37914 0.0443,0.43076 -0.0693,0.93529 0.18441,1.28641 0.0767,3.18651 0.19916,6.37744 0.20211,9.56542 -48.8849,-0.89546 -97.86421,0.74499 -146.76977,0.0147 -0.0871,-0.0604 -0.1726,-0.12096 -0.25964,-0.17998 -4.9509,-3.34878 -6.85395,-5.84341 -9.28809,-11.22802 q 49.10324,0.65648 98.21089,0.45732 c 15.70242,0.009 34.79788,1.28198 50.20967,-0.29504 z"
     id="path35"
     style="stroke-width:1.47523" />
  <path
     fill="#fafbfc"
     d="m 385.22345,864.14244 c -0.0502,-4.29294 -0.42487,-8.66996 1.21854,-12.70768 0.51338,-0.46175 0.93088,-1.05922 1.54015,-1.38377 3.4196,-1.81601 129.44902,-0.13277 145.49222,-0.56502 l 0.16965,14.81875 c -15.41179,1.57702 -34.50725,0.3039 -50.20967,0.29505 q -49.10765,0.19916 -98.21089,-0.45733 z"
     id="path36"
     style="stroke-width:1.47523" />
  <path
     fill="#2fc889"
     d="m 595.9034,849.72496 115.86948,-0.0399 c 22.63602,-0.0413 46.81514,-1.90158 69.17382,1.64045 -3.247,2.94458 -10.75889,3.97872 -15.09019,5.00549 -33.18987,7.8689 -65.18774,8.12855 -99.09456,8.15805 q -35.05309,-0.0753 -70.1047,0.22128 c 0.29358,-5.11022 -0.16227,-9.91063 -0.75385,-14.98544 z"
     id="path37"
     style="stroke-width:1.47523" />
  <path
     fill="#fafbfc"
     d="m 845.416,431.466 c -4.24573,-7.84384 -7.80842,-15.56964 -9.44742,-24.39598 q -0.27586,-1.43098 -0.48092,-2.87524 -0.20506,-1.44278 -0.3393,-2.89441 -0.13278,-1.45164 -0.19474,-2.90769 -0.062,-1.45606 -0.0531,-2.91359 0.0105,-1.45901 0.0914,-2.9136 0.0827,-1.45605 0.23605,-2.90473 0.15343,-1.45016 0.37766,-2.88999 0.22423,-1.44131 0.51928,-2.86787 0.29653,-1.42802 0.66091,-2.83982 0.36586,-1.41033 0.79958,-2.80295 0.43519,-1.39115 0.93825,-2.75869 0.50157,-1.36903 1.07102,-2.71149 0.56943,-1.34099 1.20379,-2.65395 0.63582,-1.31148 1.33361,-2.59198 0.69926,-1.27903 1.46048,-2.52267 0.75975,-1.24362 1.58146,-2.44741 c 7.28472,-10.56712 17.26617,-17.38418 29.94291,-19.70325 -15.00762,16.10515 -30.73068,31.64676 -29.84849,55.48805 0.50157,13.56628 6.40989,24.61728 13.10157,36.07101 -18.5806,12.74456 -34.82885,26.66636 -39.28702,50.03558 -3.04193,15.94141 2.10369,28.52369 8.93403,42.64908 -5.82423,3.85184 -11.70304,7.66385 -17.13044,12.06891 -5.18546,4.21032 -9.92096,8.95469 -15.21264,13.03666 l -7.24341,-5.84489 c 7.76417,-8.15363 15.38524,-15.31 24.62022,-21.85857 -4.87566,-13.14878 -7.6845,-25.86385 -5.14267,-39.90072 4.11591,-22.72896 18.95678,-40.36835 37.50788,-53.1498 z"
     id="path38"
     style="stroke-width:1.47523" />
  <defs
     id="defs39">
    <linearGradient
       id="gradient_2"
       gradientUnits="userSpaceOnUse"
       x1="515.35114"
       y1="688.42627"
       x2="543.88214"
       y2="696.94183"
       gradientTransform="matrix(1.4752361,0,0,1.4752361,-245.45771,-259.67328)">
      <stop
         offset="0"
         stop-color="#0B6068"
         id="stop38" />
      <stop
         offset="1"
         stop-color="#07716B"
         id="stop39" />
    </linearGradient>
  </defs>
  <path
     fill="url(#gradient_2)"
     d="m 521.94244,700.40303 c 4.89041,-2.27186 9.83392,-3.2942 15.09904,-1.5136 3.7294,1.26133 7.01032,4.03626 8.72307,7.6019 0.88661,1.84552 1.15511,3.87102 1.43984,5.87735 1.33508,0.42634 0.75237,0.5001 1.7629,0.0959 0.6845,30.81916 -0.47208,61.62209 -0.50748,92.43387 -8.7629,-0.0192 -17.57302,0.15638 -26.33002,-0.0664 -0.55911,-26.03792 0.0428,-52.15254 -0.09,-78.20522 -3.63794,-3.83266 -6.31696,-8.10642 -6.33025,-13.5766 -0.0118,-5.34035 2.61708,-9.01369 6.23288,-12.64719 z"
     id="path39"
     style="fill:url(#gradient_2);stroke-width:1.47523" />
  <path
     fill="#161c55"
     d="m 521.94244,700.40303 c 4.89041,-2.27186 9.83392,-3.2942 15.09904,-1.5136 3.7294,1.26133 7.01032,4.03626 8.72307,7.6019 0.88661,1.84552 1.15511,3.87102 1.43984,5.87735 -0.33341,5.26953 -1.23773,9.18038 -5.49969,12.66784 -3.68071,3.01244 -9.10958,3.84004 -13.69904,3.13783 -2.02697,-0.30832 -4.01117,-0.94268 -5.96585,-1.54752 -3.63795,-3.83266 -6.31697,-8.10642 -6.33025,-13.57661 -0.0118,-5.34034 2.61707,-9.01368 6.23288,-12.64719 z"
     id="path40"
     style="stroke-width:1.47523" />
  <path
     fill="#fafbfc"
     d="m 529.87773,702.97731 c 1.43983,0.12392 2.94014,0.22867 4.34752,0.5665 2.67313,0.64172 5.17071,2.77787 6.39516,5.20905 1.27754,2.54184 1.3041,5.52181 0.20948,8.13446 -1.59179,3.79726 -4.38736,5.37428 -8.04594,6.82444 -1.43835,-0.0929 -2.93424,-0.16522 -4.34753,-0.46765 -2.68787,-0.57681 -5.24888,-2.69673 -6.5294,-5.09104 -1.2805,-2.39579 -1.42506,-5.13087 -0.51485,-7.6845 1.51212,-4.24868 4.55405,-5.80653 8.48556,-7.49126 z"
     id="path41"
     style="stroke-width:1.47523" />
  <path
     fill="#025d5e"
     d="m 436.53659,617.16431 c 7.56059,-1.01793 15.53276,-0.62993 23.15678,-0.62404 l 37.72179,0.0767 c 11.11148,0.0118 23.11991,-1.2864 34.10008,-0.0738 3.68072,0.40568 7.46323,1.21116 10.42403,3.55678 3.97428,3.15112 6.74477,8.26428 7.12834,13.32435 0.67122,8.87501 0.10182,18.14688 0.0738,27.0691 l -0.17407,51.9711 c -1.01053,0.40421 -0.42782,0.33045 -1.7629,-0.0959 -0.28473,-2.00632 -0.55322,-4.03182 -1.43984,-5.87734 -1.71275,-3.56565 -4.99367,-6.34057 -8.72307,-7.6019 -5.26512,-1.7806 -10.20863,-0.75826 -15.09904,1.5136 0.45732,-13.02192 2.0963,-46.62337 -0.4647,-57.77763 -5.39346,-23.49609 -32.38733,-15.10051 -49.92642,-16.50346 -3.88577,-0.31128 -7.66238,-2.1214 -11.40062,-3.14816 -2.80443,-0.77155 -5.82719,-0.86744 -8.31001,-2.48135 l 0.28472,-1.07839 c 1.75258,-1.30707 4.00084,-1.3705 6.106,-1.68768 -1.00759,-0.7922 -18.53044,-0.51928 -21.69482,-0.56206 z"
     id="path42"
     style="stroke-width:1.47523" />
  <path
     fill="#fafbfc"
     d="m 271.42963,591.67222 c 2.27039,7.88219 1.11528,44.17152 1.19347,54.40524 l -0.0708,192.52717 -14.22275,0.0649 0.0561,-237.39058 c 4.70305,-2.53887 8.87355,-6.28008 13.04404,-9.60674 z"
     id="path43"
     style="stroke-width:1.47523" />
  <path
     fill="#fafbfc"
     d="m 136.57681,841.23498 c 3.2706,-10.62908 7.65943,-19.659 15.15068,-27.99703 12.42444,-13.82886 28.9043,-21.90579 47.48638,-22.80125 18.35341,-0.88515 34.05878,5.36985 47.61472,17.56858 l -0.0354,11.6942 c -5.78882,-3.26027 -11.25163,-7.22275 -17.21453,-10.13488 -11.96711,-5.84783 -27.314,-6.58692 -40.06299,-2.97997 -15.45899,4.37408 -27.87311,15.61242 -35.50008,29.55931 -5.71211,10.44762 -8.20232,21.66237 -10.55826,33.20904 -8.73636,-12.8198 -19.1707,-21.59155 -34.83624,-24.28682 -11.688288,-2.01074 -24.767728,0.88072 -34.411348,7.83794 -8.21559,5.92749 -12.92012,13.67101 -16.47839,22.90747 l -13.37744,-0.0531 c 1.37491,-6.75954 3.47123,-12.98502 7.07818,-18.90368 7.96037,-13.05731 21.19915,-22.07543 35.98396,-25.62338 17.938868,-4.30473 33.824218,0.75828 49.160768,10.00358 z"
     id="path44"
     style="stroke-width:1.47523" />
  <path
     fill="#05857b"
     d="m 780.9467,851.32559 c 11.93614,1.75258 25.42127,10.31338 32.68977,19.88029 1.99008,2.62002 3.23961,5.6295 4.50979,8.63751 -22.25689,-0.84974 -44.54623,-0.47946 -66.81493,-0.81876 q -77.69626,-1.10348 -155.40137,-1.18314 c 0.10919,-4.23393 -0.15933,-9.01074 0.72729,-13.13108 q 35.05161,-0.29652 70.1047,-0.22128 c 33.90682,-0.0295 65.90469,-0.28916 99.09456,-8.15806 4.3313,-1.02677 11.84319,-2.06091 15.09019,-5.00548 z"
     id="path45"
     style="stroke-width:1.47523" />
  <defs
     id="defs46">
    <linearGradient
       id="gradient_3"
       gradientUnits="userSpaceOnUse"
       x1="359.24954"
       y1="769.08588"
       x2="359.27219"
       y2="752.91699"
       gradientTransform="matrix(1.4752361,0,0,1.4752361,-245.45771,-259.67328)">
      <stop
         offset="0"
         stop-color="#0B9672"
         id="stop45" />
      <stop
         offset="1"
         stop-color="#15C397"
         id="stop46" />
    </linearGradient>
  </defs>
  <path
     fill="url(#gradient_3)"
     d="m 226.57507,849.9669 c 17.09799,-0.77892 34.46005,-0.19768 51.57868,-0.1372 q 48.02632,0.32603 96.05263,0.11211 c -0.11949,10.04931 -0.2862,17.93592 4.32983,27.13549 l -33.67817,-0.0722 -153.26671,-0.5134 c 1.93697,-3.74562 4.10114,-7.44698 6.78165,-10.71316 7.31865,-8.91927 16.60674,-14.59894 28.20209,-15.81158 z"
     id="path46"
     style="fill:url(#gradient_3);stroke-width:1.47523" />
  <defs
     id="defs48">
    <linearGradient
       id="gradient_4"
       gradientUnits="userSpaceOnUse"
       x1="693.11633"
       y1="711.7597"
       x2="804.36029"
       y2="751.15918"
       gradientTransform="matrix(1.4752361,0,0,1.4752361,-245.45771,-259.67328)">
      <stop
         offset="0"
         stop-color="#03A381"
         id="stop47" />
      <stop
         offset="1"
         stop-color="#22CB85"
         id="stop48" />
    </linearGradient>
  </defs>
  <path
     fill="url(#gradient_4)"
     d="m 774.65187,792.8369 c 10.96986,-11.37111 26.22823,-18.56437 42.08996,-18.84466 q 1.61538,-0.0133 3.22929,0.0517 1.61392,0.0649 3.22192,0.20652 1.60948,0.14164 3.21012,0.36144 1.60062,0.21981 3.18798,0.51485 1.58736,0.29654 3.15995,0.66828 1.57113,0.37325 3.12308,0.82024 1.55195,0.447 3.08178,0.96776 1.52834,0.52223 3.03012,1.11675 1.5018,0.59305 2.97408,1.25985 1.47081,0.66533 2.90917,1.40147 1.43835,0.73615 2.83835,1.54015 1.40148,0.80401 2.76164,1.6744 1.36017,0.87039 2.67755,1.80569 1.31739,0.93529 2.58757,1.93256 1.27018,0.99725 2.49167,2.055 1.2215,1.05627 2.38989,2.17155 c 9.56983,9.30873 16.23943,21.18734 20.36713,33.8006 8.3483,-1.89862 17.0817,-3.99051 25.6883,-2.63772 13.7728,7.23161 26.5867,16.63034 32.1955,31.83855 0.084,0.22719 0.1151,0.47208 0.1711,0.70664 -27.6946,-5.06005 -52.8591,-0.74205 -80.52867,-0.53698 -4.63076,-11.59094 -9.64509,-22.77027 -17.5435,-32.56289 -12.34774,-15.31 -28.94562,-25.467 -48.671,-27.52497 -5.67228,-0.59156 -11.52602,0.0384 -17.14224,-0.6845 -2.17893,-0.28177 -2.21286,-0.44257 -3.50074,-2.10221 z"
     id="path48"
     style="fill:url(#gradient_4);stroke-width:1.47523" />
  <path
     fill="#05857b"
     d="m 511.73085,315.24099 c 7.33046,-0.54879 14.93234,-0.63583 22.27311,-0.24488 23.11401,20.06615 45.90199,40.79617 69.79491,59.92999 33.59997,26.90682 68.23999,52.52431 101.63492,79.69816 17.88871,14.55615 35.0339,30.15825 52.38711,45.35318 10.87396,9.52117 22.59914,18.6278 33.00104,28.61368 -3.58631,3.45796 -6.94099,7.09589 -10.30305,10.7707 -17.01981,-15.52981 -35.80251,-29.50767 -53.62779,-44.13022 -24.73529,-20.29186 -49.02505,-41.24612 -73.5125,-61.84485 l -77.50006,-64.91482 c -21.03687,-17.87396 -42.01324,-36.7791 -64.14769,-53.23094 z"
     id="path49"
     style="stroke-width:1.47523" />
  <path
     fill="#05857b"
     d="m 961.06712,554.86508 c 16.4917,17.76332 23.6008,41.1163 22.5874,65.16856 -1.0519,24.95804 -13.7743,48.5633 -32.0687,65.20544 -18.2354,16.58755 -39.0112,25.01263 -63.357,27.48808 -0.015,-7.11507 0.2788,-14.38209 -0.2936,-21.4706 6.0146,-6.05731 22.4679,-24.18354 28.5385,-27.50282 0.7465,0.39537 0.8114,0.61074 1.5564,0.52223 4.0392,-0.47945 10.539,-8.39261 13.314,-11.33277 28.6387,-30.34265 30.9224,-58.56244 29.723,-98.07812 z"
     id="path50"
     style="stroke-width:1.47523" />
  <path
     fill="#c97a3a"
     d="m 693.97563,316.39462 30.55067,0.0679 c -0.2744,39.92874 0.6137,80.08467 -0.68599,119.97947 -6.36859,-6.07944 -13.05879,-11.67354 -19.8375,-17.28681 -3.29125,-2.72476 -7.98988,-5.80358 -10.6276,-9.05205 -9.04762,-7.5237 -18.31949,-14.89546 -26.8788,-22.97386 1.83224,-9.20694 1.21559,-27.30071 0.15342,-36.77321 -1.32328,-0.62698 -1.2628,-0.75532 -2.05501,-1.8765 0.53109,-1.86617 0.66681,-1.72749 2.35596,-2.74689 2.24235,-4.16753 0.77302,-18.7532 0.61665,-24.10388 q 13.09419,-0.17408 26.18987,-0.0163 z"
     id="path51"
     style="stroke-width:1.47523" />
  <path
     fill="#3a1457"
     d="m 693.88416,345.45382 c 6.61201,-0.19178 15.30411,-1.40885 21.35552,1.54163 l 0.44553,1.17724 c -4.4449,3.73825 -16.76459,2.4961 -22.23181,2.09483 -8.8765,-0.43077 -17.93592,-0.55616 -26.80357,0.0885 -1.32328,-0.62698 -1.2628,-0.75532 -2.05501,-1.8765 0.53109,-1.86617 0.66681,-1.72749 2.35596,-2.74689 8.97386,0.0236 17.96984,0.19473 26.93338,-0.27882 z"
     id="path52"
     style="stroke-width:1.47523" />
  <path
     fill="#f9dd91"
     d="m 667.56743,321.62876 q 13.09419,-0.17408 26.18987,-0.0163 c 0.031,7.93677 -0.0767,15.90894 0.12686,23.84129 -8.96354,0.47355 -17.95952,0.30242 -26.93338,0.27882 2.24235,-4.16754 0.77302,-18.7532 0.61665,-24.10388 z"
     id="path53"
     style="stroke-width:1.47523" />
  <path
     fill="#f9dd91"
     d="m 666.64983,350.35603 c 8.86765,-0.64467 17.92707,-0.51928 26.80357,-0.0885 0.0472,7.64762 1.61095,55.95865 -0.0782,59.83558 -9.04763,-7.52371 -18.31949,-14.89547 -26.8788,-22.97386 1.83224,-9.20695 1.21558,-27.30072 0.15341,-36.77322 z"
     id="path54"
     style="stroke-width:1.47523" />
  <path
     fill="#025d5e"
     d="m 511.73085,315.24099 0.31718,-0.7863 c 15.03266,-0.93235 31.33254,-0.70369 46.40061,-0.17408 17.30598,10.57155 34.52346,28.86152 50.83221,41.92474 q 71.85728,57.02672 140.89685,117.4347 14.87629,12.81095 29.96205,25.37406 c 7.32897,6.02192 14.96332,11.76648 21.83054,18.31801 -3.67776,3.72202 -7.26996,7.76416 -11.14835,11.259 -10.4019,-9.98588 -22.12708,-19.09251 -33.00104,-28.61368 -17.35321,-15.19493 -34.4984,-30.79703 -52.38711,-45.35318 -33.39493,-27.17385 -68.03495,-52.79134 -101.63492,-79.69816 -23.89292,-19.13382 -46.6809,-39.86384 -69.79491,-59.92999 -7.34077,-0.39095 -14.94265,-0.30391 -22.27311,0.24488 z"
     id="path55"
     style="stroke-width:1.47523" />
  <defs
     id="defs57">
    <linearGradient
       id="gradient_5"
       gradientUnits="userSpaceOnUse"
       x1="263.92911"
       y1="735.37927"
       x2="278.06668"
       y2="771.49677"
       gradientTransform="matrix(1.4752361,0,0,1.4752361,-245.45771,-259.67328)">
      <stop
         offset="0"
         stop-color="#04A075"
         id="stop56" />
      <stop
         offset="1"
         stop-color="#11D79F"
         id="stop57" />
    </linearGradient>
  </defs>
  <path
     fill="url(#gradient_5)"
     d="m 143.45732,869.35298 c 2.35594,-11.54667 4.84615,-22.76142 10.55826,-33.20904 7.62698,-13.94689 20.04109,-25.18523 35.50008,-29.55931 12.749,-3.60695 28.09588,-2.86786 40.06299,2.97997 5.96291,2.91213 11.42571,6.87461 17.21453,10.13488 -0.0295,6.24763 0.0236,12.50853 -0.10182,18.7532 -20.87754,-0.0325 -39.01262,-0.70664 -54.8006,15.19198 -6.21664,6.25943 -9.86048,13.66069 -12.82718,21.86152 l -121.332278,0.30539 c 3.55827,-9.23646 8.26281,-16.97998 16.47839,-22.90747 9.64363,-6.95722 22.72306,-9.84868 34.411358,-7.83794 15.66554,2.69527 26.09988,11.46702 34.83623,24.28682 z"
     id="path57"
     style="fill:url(#gradient_5);stroke-width:1.47523" />
  <path
     fill="#05857b"
     d="m 774.65187,792.8369 c 1.28788,1.65964 1.32181,1.82045 3.50074,2.10221 5.61622,0.72287 11.46996,0.0929 17.14224,0.68451 19.72538,2.05796 36.32326,12.21497 48.671,27.52496 7.89841,9.79262 12.91274,20.97196 17.5435,32.56289 27.66957,-0.20506 52.83407,-4.52307 80.52867,0.53698 12.3434,3.11275 18.945,20.51612 28.5695,22.83961 l -141.29077,0.80548 c -1.17429,-4.34751 -2.56691,-8.35573 -4.95237,-12.2179 -10.56122,-17.09946 -30.98143,-24.80315 -49.61514,-29.21263 -0.13573,-15.20526 0.28472,-30.42232 -0.0974,-45.62611 z"
     id="path58"
     style="stroke-width:1.47523" />
  <path
     fill="#c97a3a"
     d="m 725.61649,573.43683 c 12.84341,8.98271 26.57785,21.6963 38.24993,32.35193 q 1.08429,116.59823 0.3275,233.19943 l -38.65561,0.19031 -0.18883,-164.94174 c -0.0384,-33.55572 -0.65501,-67.25897 0.26701,-100.79993 z"
     id="path59"
     style="stroke-width:1.47523" />
  <path
     fill="#d89c4f"
     d="m 680.41674,710.01272 c 4.20884,-5.68999 7.56353,-12.11316 11.27965,-18.1395 6.64152,-10.76923 14.36437,-21.59304 23.34562,-30.57133 0.2021,59.19975 1.19346,118.51752 0.24635,177.70252 L 581.35905,838.7787 c 0.10627,-7.72875 0.90874,-16.10957 -1.37197,-23.56837 28.64319,-13.41136 84.0265,-49.13421 98.85558,-77.00585 1.32918,-2.49905 1.53719,-3.8902 0.71401,-6.59136 -0.64763,-18.67944 -0.39536,-38.39744 0.54878,-57.05622 1.24658,11.46848 0.32456,23.88702 0.31129,35.45582 z"
     id="path60"
     style="stroke-width:1.47523" />
  <path
     fill="#09ac73"
     d="m 876.76332,342.69956 c 11.3578,0.0738 20.6194,3.5922 28.7287,11.72812 10.784,10.81644 16.1435,26.54393 16.0049,41.65182 -0.1137,12.451 -4.2163,22.54457 -10.368,33.15299 17.5612,10.49483 30.682,29.31146 35.7228,49.00587 5.3448,20.87901 2.2999,38.92706 -7.8202,57.65518 8.0519,5.77998 15.3985,11.557 22.0356,18.97154 1.1994,39.51568 -1.0843,67.73547 -29.723,98.07812 -2.775,2.94016 -9.2748,10.85332 -13.314,11.33277 -0.745,0.0885 -0.8099,-0.12686 -1.5564,-0.52223 1.1462,-1.2451 1.7717,-2.13615 2.3751,-3.72055 -0.2301,-1.66997 -0.7804,-3.96544 -2.0801,-5.20168 -0.863,-0.82171 -1.7334,-1.42508 -2.9372,-1.49295 -5.0482,-0.28767 -26.6398,21.745 -32.2781,26.07923 -0.4824,-8.70389 -0.1151,-17.4904 0.01,-26.20462 8.3439,-1.21854 15.8027,-6.49546 22.0179,-11.96564 12.8316,-11.29736 23.5698,-26.7003 24.4653,-44.24675 q 0.072,-1.29969 0.078,-2.60085 0.01,-1.30263 -0.05,-2.60231 -0.058,-1.30116 -0.1815,-2.59642 -0.1224,-1.29673 -0.3098,-2.58461 -0.1873,-1.28789 -0.4381,-2.56544 -0.2508,-1.27755 -0.5665,-2.54036 -0.3143,-1.2628 -0.6919,-2.50789 -0.3777,-1.24658 -0.8158,-2.47103 -0.4396,-1.22592 -0.9397,-2.42824 -0.5002,-1.20231 -1.0578,-2.37808 -0.5591,-1.17428 -1.1772,-2.32054 -0.6167,-1.14627 -1.2894,-2.26006 -0.6742,-1.11528 -1.4015,-2.19368 -0.7287,-1.0784 -1.5091,-2.11992 -0.7819,-1.04151 -1.6139,-2.0432 -0.8321,-1.00021 -1.7128,-1.95912 c -18.0082,-19.67816 -40.0748,-21.35256 -65.05938,-22.40293 17.41664,-6.03961 39.07608,-6.15321 52.35028,-20.66806 8.3837,-9.16859 13.4467,-20.671 12.8714,-33.21641 -0.9633,-20.97786 -14.6462,-37.1435 -29.3602,-50.6183 13.8333,-21.53256 12.7299,-49.70071 0.9339,-71.99448 -3.4255,-6.47482 -8.608,-9.38398 -9.3398,-17.22929 z"
     id="path61"
     style="stroke-width:1.47523" />
  <path
     fill="#d89c4f"
     d="m 258.35167,566.16391 q 82.16769,-72.30132 165.06564,-143.76472 c 20.50874,-17.46532 40.47311,-36.38079 61.86698,-52.70281 35.93823,29.55488 70.73905,60.52157 106.49287,90.28888 q 45.95067,37.8944 90.92618,76.94242 c 10.79431,9.42381 22.04742,18.52602 32.42423,28.40273 q 0.40274,28.08554 0.31569,56.17256 c 10e-4,9.73804 0.73173,20.37006 -0.39093,30.01516 -1.42655,-15.99746 -0.33193,-32.83138 -0.30685,-48.91441 -7.65648,-7.50304 -16.65984,-13.80231 -24.83707,-20.7433 L 639.3019,538.04887 546.87836,457.88748 c -20.25648,-17.48893 -40.20462,-35.10472 -61.02758,-51.93717 -12.22233,8.51064 -30.54918,25.87121 -41.81852,36.43539 -31.56268,26.23117 -62.30807,53.36962 -93.45768,80.08171 -26.57344,22.78798 -53.75172,45.0906 -79.14495,69.20481 -4.1705,3.32665 -8.34099,7.06786 -13.04404,9.60674 q -0.12686,-17.55679 -0.0339,-35.11505 z"
     id="path62"
     style="stroke-width:1.47523" />
  <path
     fill="#05857b"
     d="m 420.27359,804.95744 0.18145,-115.3015 c 0.0265,-17.24847 -1.25247,-39.91695 0.46913,-56.5886 0.34963,-3.38418 1.34984,-6.17237 3.39451,-8.91042 3.0921,-4.14246 7.18882,-6.22107 12.21791,-6.99261 3.16438,0.0428 20.68723,-0.23014 21.69482,0.56206 -2.10516,0.31717 -4.35342,0.38061 -6.106,1.68767 l -0.28473,1.0784 c 2.48282,1.6139 5.50559,1.70979 8.31001,2.48134 3.73825,1.02676 7.51486,2.83689 11.40063,3.14816 17.53908,1.40295 44.53296,-6.99262 49.92642,16.50346 2.561,11.15426 0.92202,44.75572 0.4647,57.77763 -3.61581,3.63351 -6.24468,7.30685 -6.23288,12.64719 0.0133,5.47019 2.6923,9.74395 6.33025,13.57661 0.13277,26.05267 -0.46913,52.1673 0.09,78.20522 -33.9024,-0.6432 -67.93609,0.15932 -101.8562,0.12539 z"
     id="path63"
     style="stroke-width:1.47523" />
  <path
     fill="#2fc889"
     d="m 875.11692,342.87069 1.6464,-0.17113 c 0.7317,7.84531 5.9142,10.75447 9.3397,17.22929 11.796,22.29377 12.8995,50.46192 -0.9338,71.99448 14.714,13.4748 28.3968,29.64044 29.3601,50.6183 0.5754,12.54541 -4.4877,24.04782 -12.8714,33.21641 -13.2742,14.51485 -34.93361,14.62845 -52.35025,20.66806 24.98465,1.05037 47.05115,2.72477 65.05935,22.40293 q 0.8808,0.95891 1.7128,1.95912 0.832,1.00169 1.6139,2.0432 0.7804,1.04152 1.5092,2.11992 0.7273,1.0784 1.4014,2.19368 0.6728,1.11379 1.2894,2.26006 0.6181,1.14626 1.1772,2.32054 0.5577,1.17577 1.0578,2.37808 0.5001,1.20232 0.9397,2.42824 0.4381,1.22445 0.8158,2.47103 0.3777,1.24509 0.6919,2.50789 0.3157,1.26281 0.5665,2.54036 0.2508,1.27755 0.4381,2.56544 0.1874,1.28788 0.3098,2.58461 0.124,1.29526 0.1815,2.59642 0.058,1.29968 0.05,2.60231 -0.01,1.30116 -0.078,2.60085 c -0.8954,17.54645 -11.6337,32.94939 -24.4653,44.24675 -6.2152,5.47018 -13.674,10.7471 -22.0179,11.96564 0,-6.5943 2.1273,-20.33465 -1.5357,-25.85941 -0.9427,-1.42066 -2.1627,-2.6392 -3.9714,-2.73803 -1.7363,-0.0929 -3.1806,0.48681 -4.32682,1.81601 -3.91232,4.5393 -2.01517,18.99809 -1.92075,25.24718 -5.48494,-0.0354 -11.04658,0.009 -16.49609,-0.6668 -4.2,-0.51928 -15.74225,-4.17934 -19.14562,-3.13192 -0.97366,0.29947 -1.73931,2.20842 -2.26007,3.07733 -1.49589,2.19073 -2.11106,2.741 -2.24678,5.45396 1.2038,3.25732 3.88135,5.47902 6.2727,7.91022 -21.14751,1.31295 -36.10492,-5.86112 -53.84611,-16.58756 -5.04826,-11.09673 -6.63415,-22.96796 -6.87608,-35.04424 5.72391,2.64363 11.0569,4.46702 17.48007,4.39178 9.17302,-0.10767 18.7001,-4.15574 25.03919,-10.81348 4.97154,-5.22087 7.63582,-11.97892 7.42487,-19.19725 -0.53994,-18.40063 -17.1275,-23.50789 -28.81579,-34.23285 l -0.66239,-0.61813 c 5.29168,-4.08197 10.02718,-8.82634 15.21264,-13.03666 5.42739,-4.40506 11.30621,-8.21707 17.13044,-12.06891 -6.83035,-14.12539 -11.97596,-26.70767 -8.93403,-42.64908 4.45817,-23.36922 20.70641,-37.29102 39.28701,-50.03558 -6.69167,-11.45373 -12.59999,-22.50473 -13.10156,-36.07101 -0.8822,-23.84129 14.84086,-39.3829 29.84847,-55.48805 z"
     id="path64"
     style="stroke-width:1.47523" />
  <defs
     id="defs65">
    <linearGradient
       id="gradient_6"
       gradientUnits="userSpaceOnUse"
       x1="668.40649"
       y1="653.11115"
       x2="360.01117"
       y2="458.45639"
       gradientTransform="matrix(1.4752361,0,0,1.4752361,-245.45771,-259.67328)">
      <stop
         offset="0"
         stop-color="#007272"
         id="stop64" />
      <stop
         offset="1"
         stop-color="#00A793"
         id="stop65" />
    </linearGradient>
  </defs>
  <path
     fill="url(#gradient_6)"
     d="m 478.16775,312.00874 c 7.51633,-0.16965 11.92876,0.93531 18.19852,5.28135 11.16901,7.74204 21.53402,17.79283 31.92263,26.60588 l 52.22779,43.89714 122.9034,102.92723 c 28.02063,23.84571 56.9987,46.51567 84.94115,70.45433 6.32138,5.41706 13.87902,10.04635 19.76669,15.82781 3.09062,3.03455 5.52033,6.80674 5.33003,11.2944 -0.21686,5.09989 -2.91064,9.67164 -6.82149,12.84046 -4.96564,4.02297 -11.77534,5.98503 -18.12181,5.28725 -4.82402,-0.5311 -8.2746,-2.81919 -12.11906,-5.58525 -12.65458,-9.10368 -24.36057,-20.05731 -36.31589,-30.06974 q -33.5867,-27.75657 -66.50513,-56.30239 L 545.13905,405.00174 c -8.48261,-7.31422 -49.50008,-44.4828 -54.95698,-46.90071 -6.09419,-2.70116 -11.90663,1.84552 -16.39872,5.29166 -17.61432,13.5176 -34.31694,28.8276 -51.27774,43.20082 -52.67183,44.6377 -103.76221,91.07961 -156.30569,135.825 q -17.20568,14.50453 -34.16352,29.29524 c -8.0784,7.0531 -16.04173,14.77744 -24.86658,20.88639 -2.29399,1.58883 -5.28136,1.79241 -7.97513,1.37788 -5.24152,-0.80548 -9.42824,-4.51128 -12.40821,-8.70832 -1.86765,-2.63183 -2.90179,-5.48641 -3.85627,-8.54014 q 0.0368,-1.76734 0.1726,-3.52877 c 0.29505,-3.49189 1.84847,-5.58525 4.22803,-8.06807 7.91759,-8.26722 17.29272,-15.60063 25.96415,-23.0845 l 46.04655,-39.88743 q 82.38899,-72.94305 166.53204,-143.85766 c 7.04868,-8.757 24.60547,-22.08723 33.88322,-30.3279 5.77703,-5.42592 11.70305,-11.74583 18.41095,-15.96649 z"
     id="path65"
     style="fill:url(#gradient_6);stroke-width:1.47523" />
  <path
     fill="#71d7d0"
     d="m 471.37281,324.04225 c 5.52476,-3.83414 10.15554,-6.53678 16.6746,-8.33213 -37.86489,29.77321 -73.07139,61.82862 -109.17633,93.63176 Q 314.77797,466.22846 249.21552,521.41262 L 202.84,560.52261 c -6.0647,5.08809 -13.01306,12.42886 -19.90979,16.20695 q 0.0368,-1.76734 0.1726,-3.52877 c 0.29505,-3.49189 1.84847,-5.58525 4.22803,-8.06807 7.91759,-8.26722 17.29272,-15.60063 25.96415,-23.0845 l 46.04655,-39.88743 q 82.38899,-72.94305 166.53204,-143.85766 c 7.04868,-8.757 24.60547,-22.08723 33.88322,-30.3279 2.29253,-0.21243 3.96987,-0.68598 6.05438,-1.69653 1.86912,-0.90578 3.58187,-1.61242 5.56163,-2.23645 z"
     id="path66"
     style="stroke-width:1.47523" />
  <path
     fill="#09ac73"
     d="m 459.7568,327.97523 c 2.29253,-0.21243 3.96987,-0.68598 6.05438,-1.69653 1.86912,-0.90578 3.58187,-1.61242 5.56163,-2.23645 -8.52687,7.07228 -36.83074,32.08343 -45.49923,34.26088 7.04868,-8.757 24.60547,-22.08723 33.88322,-30.3279 z"
     id="path67"
     style="stroke-width:1.47523" />
  <path
     fill="#f5ce6b"
     d="m 485.85078,405.95031 c 20.82296,16.83245 40.7711,34.44824 61.02758,51.93717 l 92.42354,80.16139 50.60651,43.81155 c 8.17723,6.94099 17.18059,13.24026 24.83707,20.7433 -0.0251,16.08303 -1.1197,32.91695 0.30685,48.91441 l -0.0105,9.78376 c -8.98125,8.97829 -16.7041,19.8021 -23.34562,30.57133 -3.71612,6.02634 -7.07081,12.44951 -11.27965,18.1395 0.0132,-11.5688 0.93529,-23.98734 -0.31129,-35.45582 -0.94414,18.65878 -1.19641,38.37678 -0.54877,57.05622 0.82318,2.70116 0.61516,4.09231 -0.71402,6.59136 -14.82908,27.87164 -70.21239,63.59449 -98.85558,77.00585 -0.80252,-2.14204 -2.29104,-4.41685 -3.83266,-6.09714 -4.32834,-4.71633 -10.06997,-5.43478 -16.08155,-5.83752 l 0.44847,-115.53017 c 0.0399,-17.43729 1.71422,-40.67225 -0.72286,-57.51208 -0.85859,-5.92898 -2.57134,-11.00231 -6.55743,-15.61833 -5.52919,-6.40253 -12.97323,-8.9178 -21.16079,-9.46512 1.4177,-0.49272 1.48998,-0.5237 2.39283,-1.58292 0.11949,-11.80041 -55.18415,-54.59554 -60.19111,-69.29332 q -1.58145,-0.49568 -3.11717,-1.11528 -1.5372,-0.6196 -3.01833,-1.36016 -1.48262,-0.74057 -2.90032,-1.59768 -1.4177,-0.85712 -2.76311,-1.82488 -1.34395,-0.96627 -2.60823,-2.03877 -1.2628,-1.07102 -2.43709,-2.24089 -1.17281,-1.16985 -2.24973,-2.42823 -1.07692,-1.25985 -2.0491,-2.60084 c -6.60758,-9.22466 -8.90305,-20.83624 -6.97934,-31.94919 2.01369,-11.63224 8.26426,-20.5707 17.73529,-27.31843 -1.19937,-5.08956 -15.251,-14.15636 -19.86259,-17.41368 11.26934,-10.56418 29.59619,-27.92475 41.81852,-36.43539 z"
     id="path68"
     style="stroke-width:1.47523" />
  <path
     fill="#3a1457"
     d="m 463.89485,459.79938 c 10.50958,-6.02781 22.08133,-8.52982 34.02631,-5.43034 10.70874,2.77934 19.3256,10.24404 24.66448,19.78439 q 0.52813,0.9235 1.00759,1.87355 0.48092,0.95005 0.91317,1.92224 0.43224,0.97217 0.8158,1.96501 0.38209,0.99283 0.71549,2.00485 0.33193,1.01053 0.6137,2.03729 0.28029,1.0253 0.51043,2.06534 0.22867,1.03857 0.40569,2.08893 0.17703,1.04889 0.30242,2.10516 0.12392,1.05775 0.19474,2.11992 0.0708,1.0607 0.0871,2.12581 0.0177,1.06365 -0.0178,2.12729 -0.0368,1.06364 -0.12687,2.12434 -0.0885,1.0607 -0.23161,2.11402 -0.14162,1.05479 -0.33783,2.10074 -0.19472,1.04741 -0.44257,2.08155 -0.24784,1.03562 -0.54731,2.05648 -0.26702,0.94858 -0.58272,1.88387 -0.3157,0.93384 -0.67713,1.85143 -0.36291,0.91612 -0.77155,1.81454 -0.40865,0.89695 -0.86154,1.77324 -0.45289,0.8748 -0.95153,1.72602 -0.49715,0.85268 -1.03561,1.67735 -0.53994,0.82465 -1.12119,1.62276 -0.58124,0.79663 -1.20231,1.56227 -0.62108,0.76565 -1.27903,1.50032 -0.65943,0.73318 -1.35426,1.43244 -0.69484,0.69927 -1.42508,1.36312 -0.73024,0.66239 -1.49147,1.28788 -0.7627,0.62551 -1.55637,1.21117 -0.79369,0.58567 -1.61539,1.13151 -0.82171,0.54437 -1.66997,1.04594 -0.84825,0.50306 -1.7216,0.96186 c -9.93276,5.17217 -22.0651,5.85373 -32.84908,3.36206 q -1.58145,-0.49568 -3.11718,-1.11528 -1.53719,-0.6196 -3.01833,-1.36016 -1.48261,-0.74057 -2.90031,-1.59768 -1.4177,-0.85712 -2.76311,-1.82488 -1.34395,-0.96627 -2.60823,-2.03877 -1.2628,-1.07102 -2.43709,-2.24089 -1.17281,-1.16985 -2.24973,-2.42823 -1.07692,-1.25985 -2.0491,-2.60084 c -6.60758,-9.22466 -8.90305,-20.83624 -6.97934,-31.94919 2.01369,-11.63224 8.26426,-20.5707 17.73529,-27.31843 z"
     id="path69"
     style="stroke-width:1.47523" />
  <path
     fill="#fafbfc"
     d="m 462.843,517.2318 c -3.85332,-4.17639 -6.47481,-8.85288 -7.83056,-14.4042 -2.204,-9.02993 -0.87629,-18.77238 4.24426,-26.59261 q 0.44995,-0.68008 0.93382,-1.33804 0.4824,-0.65648 0.99727,-1.28935 0.51485,-0.63288 1.06068,-1.24068 0.54585,-0.60632 1.11972,-1.18609 0.57534,-0.5783 1.17724,-1.12856 0.60189,-0.55026 1.23034,-1.07102 0.62845,-0.51928 1.28198,-1.00906 0.65353,-0.4883 1.33066,-0.94415 0.67566,-0.45584 1.37344,-0.87777 0.69926,-0.42191 1.41624,-0.8099 0.71844,-0.38651 1.45457,-0.73761 0.73614,-0.35259 1.49,-0.66681 0.75237,-0.3157 1.51949,-0.59305 0.76712,-0.27735 1.54605,-0.51633 0.7804,-0.24046 1.57113,-0.44109 0.79071,-0.20064 1.5903,-0.36291 c 9.87523,-2.01075 18.2649,0.62107 26.37722,6.1296 7.44257,7.27144 12.43181,15.23477 12.71211,25.96711 0.23752,9.11844 -3.07882,18.22654 -9.6392,24.64235 -6.16353,6.02634 -14.57975,8.98124 -23.13317,8.83371 -9.26153,-0.15786 -17.18945,-4.07313 -23.82359,-10.36354 z"
     id="path70"
     style="stroke-width:1.47523" />
  <path
     fill="#3a1457"
     d="m 582.91985,602.69224 c 15.73782,-0.953 31.9123,-0.25227 47.69291,-0.27735 12.94224,-0.0221 36.08576,-1.76733 48.08089,1.25247 3.12751,5.04826 1.26724,60.48616 1.4118,70.88954 -0.94414,18.65878 -1.19641,38.37678 -0.54878,57.05622 -11.73108,0.43816 -92.92071,1.46197 -96.26359,-0.22718 -2.79262,-11.77976 -1.20084,-35.90873 -1.17871,-49.31568 0.0443,-26.31082 -0.74352,-53.13062 0.80548,-79.37802 z"
     id="path71"
     style="stroke-width:1.47523" />
  <path
     fill="#71d7d0"
     d="m 631.3135,673.38113 40.07036,0.0354 -0.005,49.44991 -39.80334,0.009 q 0.19915,-24.74856 -0.26259,-49.49417 z"
     id="path72"
     style="stroke-width:1.47523" />
  <path
     fill="#bfe9ed"
     d="m 590.92006,673.42392 40.39344,-0.0428 q 0.46174,24.74561 0.26259,49.49417 l -40.73718,0.0147 z"
     id="path73"
     style="stroke-width:1.47523" />
  <path
     fill="#71d7d0"
     d="m 631.25449,610.8857 40.02168,-0.0841 -0.0265,54.51588 -39.79892,-0.0604 c 0.14901,-18.00821 0.83794,-36.39555 -0.1962,-54.3713 z"
     id="path74"
     style="stroke-width:1.47523" />
  <path
     fill="#bfe9ed"
     d="m 591.14871,610.99339 c 13.33024,-0.43225 26.76375,-0.0989 40.10578,-0.10767 1.03413,17.97575 0.34521,36.3631 0.1962,54.3713 l -40.41114,0.0207 z"
     id="path75"
     style="stroke-width:1.47523" />
  <path
     fill="#f9dd91"
     d="m 444.03226,442.3857 c 4.61159,3.25732 18.66322,12.32412 19.86259,17.41368 -9.47103,6.74773 -15.7216,15.68619 -17.73529,27.31843 -1.92371,11.11295 0.37176,22.72453 6.97934,31.94919 q 0.97218,1.34099 2.0491,2.60084 1.07692,1.25838 2.24973,2.42823 1.17429,1.16987 2.43709,2.24089 1.26428,1.0725 2.60823,2.03877 1.34541,0.96776 2.76311,1.82488 1.4177,0.85711 2.90031,1.59768 1.48114,0.74056 3.01833,1.36016 1.53573,0.6196 3.11718,1.11528 c 5.00695,14.69778 60.3106,57.49291 60.19111,69.29332 -0.90285,1.05922 -0.97513,1.0902 -2.39283,1.58292 q -31.0847,0.11212 -62.16941,-0.14014 c -12.43623,-0.0945 -26.68702,-1.68176 -38.79871,0.6491 -5.44362,1.04742 -10.59809,4.38146 -14.4278,8.30558 -3.81349,3.90791 -6.60906,8.70832 -7.50601,14.12687 -2.44446,14.77006 -1.00464,43.10935 -1.04594,59.07731 -0.0988,39.56878 -0.71992,79.35737 0.41012,118.8996 -6.64447,1.77471 -12.20463,4.26638 -15.74519,10.59663 -3.09801,5.54246 -3.02129,12.13677 -1.29379,18.09672 0.38061,1.30853 0.8512,2.58904 1.33803,3.86216 l -120.28927,-0.0192 0.0708,-192.52717 c -0.0782,-10.23372 1.07693,-46.52305 -1.19347,-54.40524 25.39324,-24.11421 52.57152,-46.41683 79.14495,-69.20481 31.14962,-26.71209 61.89501,-53.85054 93.45768,-80.08171 z"
     id="path76"
     style="stroke-width:1.47523" />
  <path
     fill="#3a1457"
     d="m 292.84564,603.66884 q 4.1218,-0.0796 8.24362,-0.10475 c 10.14667,-0.0443 88.27075,-1.38673 91.5679,0.61222 0.60484,0.36586 1.00464,0.99284 1.50622,1.48999 1.00906,6.80527 0.69336,121.39867 -0.52962,126.38348 -14.79366,1.60358 -30.84128,0.4057 -45.76034,0.39389 -17.87101,-0.0132 -36.69651,1.20084 -54.43327,-0.6786 l -0.51633,-0.37767 -1.03709,0.0767 c -0.10767,-0.26849 -0.24489,-0.52518 -0.32308,-0.80253 -1.70094,-5.97765 -0.13572,-34.77574 -0.11363,-43.19934 0.0664,-26.0748 -0.96923,-52.55086 0.17554,-78.57402 0.10323,-2.35596 -0.0192,-3.23668 1.22003,-5.2194 z"
     id="path77"
     style="stroke-width:1.47523" />
  <path
     fill="#71d7d0"
     d="m 335.38407,672.90315 c 16.60821,-0.10615 33.24445,0.30095 49.86004,0.30391 l 0.0457,51.06972 c -23.73507,-0.16375 -47.55866,0.46913 -71.27308,-0.12245 9.95341,-0.91612 20.24171,-0.49863 30.24529,-0.53551 l -0.1195,-50.07689 c -2.97702,-0.0133 -5.80801,-0.23161 -8.75847,-0.63878 z"
     id="path78"
     style="stroke-width:1.47523" />
  <path
     fill="#bfe9ed"
     d="m 300.63488,673.13329 c 11.54224,-0.44848 23.19366,-0.18294 34.74919,-0.23014 2.95046,0.40717 5.78145,0.6255 8.75847,0.63878 l 0.1195,50.07689 c -10.00358,0.0368 -20.29188,-0.38061 -30.24529,0.53551 l -13.45121,0.0841 c -0.37028,-16.99914 0.0339,-34.09713 0.0693,-51.10513 z"
     id="path79"
     style="stroke-width:1.47523" />
  <path
     fill="#71d7d0"
     d="m 300.50064,611.84755 c 9.7454,-1.16396 20.13992,-0.47945 29.97237,-0.43519 l 54.69438,0.33783 v 53.40798 c -21.15047,-0.0163 -42.67711,0.86891 -63.78774,-0.037 7.42487,-1.16101 15.59915,-0.53551 23.1258,-0.54879 l -0.3452,-52.44317 c -14.54878,-0.27145 -29.11527,0.26259 -43.65961,-0.28177 z"
     id="path80"
     style="stroke-width:1.47523" />
  <path
     fill="#bfe9ed"
     d="m 300.50064,611.84755 c 14.54434,0.54436 29.11083,0.0105 43.65961,0.28177 l 0.3452,52.44317 c -7.52665,0.0133 -15.70093,-0.61222 -23.1258,0.54879 l -20.88935,0.12245 z"
     id="path81"
     style="stroke-width:1.47523" />
</svg>
