<?xml version="1.0" encoding="UTF-8" standalone="no"?>
<svg
   width="1024"
   height="1023"
   version="1.1"
   id="svg46"
   sodipodi:docname="industry.svg"
   inkscape:version="1.3.2 (091e20ef0f, 2023-11-25)"
   xmlns:inkscape="http://www.inkscape.org/namespaces/inkscape"
   xmlns:sodipodi="http://sodipodi.sourceforge.net/DTD/sodipodi-0.dtd"
   xmlns="http://www.w3.org/2000/svg"
   xmlns:svg="http://www.w3.org/2000/svg">
  <defs
     id="defs46" />
  <sodipodi:namedview
     id="namedview46"
     pagecolor="#ffffff"
     bordercolor="#000000"
     borderopacity="0.25"
     inkscape:showpageshadow="2"
     inkscape:pageopacity="0.0"
     inkscape:pagecheckerboard="0"
     inkscape:deskcolor="#d1d1d1"
     inkscape:zoom="0.70507812"
     inkscape:cx="512"
     inkscape:cy="511.29086"
     inkscape:window-width="1920"
     inkscape:window-height="1011"
     inkscape:window-x="0"
     inkscape:window-y="0"
     inkscape:window-maximized="1"
     inkscape:current-layer="svg46" />
  <path
     fill="#CB177D"
     d="M744.961 177.901C746.634 178.008 748.114 178.02 749.477 179.134C752.095 181.274 751.856 185.655 752.103 188.72C754.764 188.863 757.877 188.945 760.245 190.279C761.746 191.125 763.171 192.487 763.412 194.273C763.593 195.609 763.091 196.797 762.231 197.788C759.575 200.851 755.764 200.904 752.036 201.126C752.067 202.854 752.146 204.628 752.001 206.351C751.771 209.079 750.659 210.363 748.639 212.098C746.718 212.141 745.046 212.052 743.532 210.714C741.042 208.515 741.125 204.243 740.915 201.18C738.252 200.852 734.607 200.822 732.286 199.397C731.054 198.641 730.174 197.453 729.948 196.009C729.701 194.425 730.25 192.856 731.238 191.634C733.17 189.244 735.966 188.897 738.835 188.67C741.725 188.442 739.645 182.323 744.961 177.901Z"
     id="path2" />
  <path
     fill="#CB177D"
     d="M186.948 681.004Q188.085 680.941 189.222 680.984C191.011 681.064 192.543 681.665 193.724 683.053C196.09 685.833 195.406 690.525 195.217 693.896C198.485 694.179 201.898 694.134 204.697 696.045C206.276 697.124 207.741 698.794 207.952 700.778C208.144 702.591 207.618 703.998 206.411 705.35C203.725 708.359 199.134 707.972 195.501 708.013C195.519 710.369 195.733 713.129 195.016 715.384C194.284 717.688 192.777 718.632 190.753 719.698C190.155 719.764 189.56 719.819 188.958 719.846C186.963 719.935 185.279 719.594 183.82 718.116C181.473 715.737 181.993 710.976 182.019 707.925C178.729 707.914 175.243 708.191 172.519 706.053C171.09 704.932 170.099 703.419 170.007 701.555C169.916 699.705 170.782 697.955 172.125 696.723C175.271 693.838 178.634 694.253 182.564 694.504C182.473 691.833 182.108 688.703 182.703 686.097C183.291 683.526 184.808 682.354 186.948 681.004Z"
     id="path3" />
  <path
     fill="#CB177D"
     d="M244.151 187.955C246.385 188.352 248.286 188.769 249.807 190.582C252.758 194.098 251.645 200.67 251.435 204.973C255.938 204.865 261.395 204.175 265.041 207.465C266.236 208.543 267.121 210.117 267.108 211.763C267.091 213.931 266.059 215.84 264.461 217.262C261.286 220.089 255.462 219.134 251.469 219.039C251.687 222.772 252.516 227.822 250.634 231.228C249.298 233.644 247.224 234.376 244.724 235.196C243.007 234.792 241.37 234.362 240.024 233.156C236.813 230.279 237.904 222.934 237.997 218.967C232.976 219.077 227.244 219.687 223.261 215.956C222.152 214.918 221.317 213.521 221.369 211.955C221.414 210.612 222.17 209.346 223.081 208.399C226.992 204.332 232.893 204.909 238.023 204.976C237.846 201.295 237.134 196.474 238.467 193.001C239.556 190.163 241.463 189.081 244.151 187.955Z"
     id="path4" />
  <path
     fill="#CB177D"
     d="M826.366 660.519C828.877 659.991 831.783 659.615 834.104 661.008C836.189 662.259 837.135 664.399 837.597 666.703C838.2 669.716 837.874 672.998 837.694 676.048C842.606 675.951 848.332 675.37 852.205 679.103C853.268 680.126 854.115 681.427 854.251 682.93C854.394 684.508 853.578 686.013 852.495 687.1C848.941 690.668 843.828 690.284 839.226 690.131L837.734 690.072C837.936 694.758 838.48 699.528 834.971 703.255C833.866 704.428 832.388 705.309 830.753 705.422C828.909 705.55 827.204 704.666 825.948 703.373C822.437 699.758 822.856 694.66 822.936 690.027C818.685 690.177 811.828 691.258 808.52 688.069C807.928 687.498 807.475 686.956 807.025 686.277C807.986 681.376 810.423 678.891 814.12 675.82C814.426 675.47 814.727 675.115 815.043 674.775C817.83 671.772 820.149 668.639 822.539 665.319C823.903 663.804 825.116 662.129 826.366 660.519Z"
     id="path5" />
  <path
     fill="#7A0B54"
     d="M814.12 675.82C814.426 675.47 814.727 675.115 815.043 674.775C817.83 671.772 820.149 668.639 822.539 665.319L822.457 675.77C819.686 675.775 816.888 675.712 814.12 675.82Z"
     id="path6" />
  <path
     id="path8"
     d="M 487.08594 184.98242 C 481.89757 184.96555 476.73989 185.23527 472.08789 186.38477 C 471.36456 186.56077 470.6475 186.761 469.9375 186.98633 C 469.22817 187.21099 468.5286 187.46038 467.83594 187.73438 C 467.14394 188.00771 466.46106 188.30629 465.78906 188.62695 C 465.11706 188.94762 464.45726 189.29025 463.80859 189.65625 C 463.16059 190.02225 462.52563 190.41031 461.9043 190.82031 C 461.2823 191.23031 460.67532 191.66128 460.08398 192.11328 C 459.49198 192.56461 458.91675 193.03534 458.35742 193.52734 C 457.79809 194.01868 457.25642 194.52993 456.73242 195.05859 C 456.17976 195.61926 455.64553 196.19764 455.13086 196.79297 C 454.61619 197.38897 454.12244 198.00091 453.64844 198.62891 C 453.17444 199.25757 452.72106 199.90059 452.28906 200.55859 C 451.85773 201.21659 451.44788 201.88693 451.06055 202.57227 C 450.67321 203.2576 450.31008 203.95473 449.96875 204.66406 C 449.62742 205.37406 449.30896 206.09422 449.01562 206.82422 C 448.72229 207.55488 448.45236 208.29497 448.20703 209.04297 C 447.96236 209.79097 447.74349 210.54593 447.54883 211.30859 C 445.54583 219.40059 446.46952 228.82845 446.47852 237.14844 L 446.5 272.61914 L 446.06055 272.80078 C 439.65055 275.38178 432.79582 276.89611 426.29883 279.28711 C 411.45584 284.7511 393.54505 293.76498 380.41406 302.54297 L 351.81836 275.52734 C 345.61037 269.65335 339.27007 262.20261 331.83008 257.97461 C 327.14008 255.30861 322.21046 254.24636 316.85547 254.44336 C 312.36147 254.60836 307.56754 255.72939 303.68555 258.02539 C 294.65656 263.36539 280.37641 279.41918 272.60742 287.32617 C 266.32443 293.71917 259.7317 299.94799 253.7207 306.58398 C 247.11471 313.87698 243.87909 321.35959 244.37109 331.26758 C 244.64009 336.65857 245.87271 341.73965 248.5957 346.43164 C 254.5067 356.61863 282.95649 382.55859 293.02148 392.26758 C 283.17049 410.41556 270.84556 435.46019 267.72656 455.95117 L 231.71484 455.92383 C 222.50885 455.92683 212.02507 454.94456 203.08008 457.22656 C 202.36941 457.40923 201.66608 457.61508 200.96875 457.84375 C 200.27142 458.07308 199.58301 458.32494 198.90234 458.59961 C 198.22168 458.87361 197.55 459.16961 196.88867 459.48828 C 196.22801 459.80761 195.57812 460.14843 194.93945 460.50977 C 194.30079 460.8711 193.67455 461.25358 193.06055 461.65625 C 192.44721 462.05958 191.849 462.48183 191.26367 462.92383 C 190.67767 463.36649 190.10611 463.82859 189.55078 464.30859 C 188.99612 464.78859 188.45821 465.28545 187.93555 465.80078 C 180.22955 473.38577 178.29202 482.52524 178.29102 492.99023 L 178.4043 529.35742 C 178.3743 539.73441 177.0583 551.97265 179.6543 562.05664 C 179.84896 562.79664 180.06917 563.52924 180.3125 564.25391 C 180.5565 564.97924 180.8239 565.69501 181.11523 566.40234 C 181.40723 567.10901 181.72255 567.80424 182.06055 568.49023 C 182.39921 569.17623 182.76053 569.85167 183.14453 570.51367 C 183.52786 571.17567 183.93204 571.82237 184.35938 572.45703 C 184.78604 573.0917 185.23446 573.71241 185.70312 574.31641 C 186.17246 574.92107 186.66192 575.50808 187.16992 576.08008 C 187.67792 576.65141 188.20271 577.20552 188.74805 577.74219 C 189.29605 578.28685 189.86203 578.8136 190.44336 579.32227 C 191.02536 579.83093 191.62171 580.3223 192.23438 580.79297 C 192.84771 581.26297 193.47519 581.71258 194.11719 582.14258 C 194.75919 582.57258 195.41532 582.97985 196.08398 583.36719 C 196.75198 583.75519 197.43105 584.1228 198.12305 584.4668 C 198.81505 584.8108 199.5178 585.13102 200.23047 585.42969 C 200.94313 585.72835 201.66453 586.00515 202.39453 586.25781 C 203.1252 586.51048 203.86276 586.73869 204.60742 586.94336 C 213.46141 589.30436 223.83442 588.39367 232.94141 588.38867 C 245.67006 588.38134 258.39835 588.2849 271.125 588.10156 C 277.90899 610.40354 285.44626 626.27624 296.78125 646.44922 L 273.24023 670.41016 C 265.88924 677.86115 256.71246 685.59407 251.60547 694.78906 C 248.57347 700.24806 247.20364 706.21627 247.30664 712.44727 C 247.44664 720.85826 250.30986 728.12476 255.25586 734.84375 C 264.88383 744.71172 274.56171 754.53148 284.29102 764.30078 C 291.73899 771.84675 299.51342 781.71092 308.77539 786.96289 C 313.06239 789.39389 318.32052 790.49334 323.22852 790.52734 C 325.55849 790.54434 327.91919 790.41523 330.24219 790.24023 C 334.91117 788.82825 338.81369 787.11242 342.80469 784.27344 C 348.95467 779.89744 354.30036 773.81114 359.65234 768.49414 C 370.29432 757.92216 380.87597 746.8462 392.25195 737.07422 C 397.99461 740.27422 403.88947 743.15976 409.93945 745.73242 C 415.99011 748.30575 422.16057 750.5508 428.44922 752.4668 C 435.6472 754.64678 443.2073 756.20603 450.2793 758.70703 C 450.7693 773.22601 450.36184 787.83054 450.08984 802.35352 C 449.96984 808.7595 449.31878 815.63233 449.80078 821.98633 C 449.92078 823.56833 450.38509 825.10738 450.87109 826.60938 C 453.05809 832.13135 455.2168 836.64139 459.4668 840.90039 C 463.43377 843.87439 467.38433 846.39928 472.36133 847.36328 C 481.3843 849.11228 494.0668 848.07153 503.50977 848.14453 C 517.68871 848.25353 538.54756 849.62309 552.14453 847.62109 C 557.00753 846.90509 561.16655 844.42281 564.93555 841.38281 L 569.60938 836.33398 C 572.54335 832.00201 574.63305 827.37949 575.62305 822.22852 C 577.23305 813.84952 576.30227 804.4418 576.19727 795.92383 L 575.95312 759.15234 C 595.20309 754.30537 612.91712 746.99061 630.66406 738.18164 C 642.10103 748.64461 652.80503 760.00531 663.875 770.86328 C 668.96897 775.85928 674.08273 781.65927 680.0957 785.57227 C 684.0417 788.14024 687.91736 789.48416 692.56836 790.16016 C 695.59036 790.33516 698.53183 790.42542 701.54883 790.10742 C 706.5998 789.57542 711.13295 788.14949 715.41992 785.35352 C 722.57389 780.68852 728.50317 773.73433 734.61914 767.81836 C 747.22411 755.62539 760.71591 743.39089 771.79688 729.79492 C 776.87387 720.51493 779.33281 711.63782 776.25781 701.17383 C 775.19081 697.54483 772.8782 694.09111 770.5332 691.16211 C 763.99721 683.00012 755.33057 675.63446 747.89258 668.23047 C 740.92259 661.29148 734.13338 653.37731 726.52539 647.19531 C 738.48738 629.29633 746.92355 610.45009 753.56055 590.03711 L 789.66211 590.13477 C 799.6261 590.16977 810.58551 591.26264 820.3125 588.80664 C 821.1025 588.60731 821.88482 588.38219 822.66016 588.13086 C 823.43482 587.88019 824.20037 587.60345 824.95703 587.30078 C 825.7137 586.99878 826.45998 586.67036 827.19531 586.31836 C 827.92998 585.96636 828.65133 585.59141 829.36133 585.19141 C 830.07133 584.79207 830.76789 584.36854 831.44922 583.92188 C 832.13122 583.47588 832.79727 583.00824 833.44727 582.51758 C 834.09793 582.02691 834.73099 581.51509 835.34766 580.98242 C 835.96432 580.44976 836.56325 579.89688 837.14258 579.32422 C 846.66857 569.96223 847.96566 558.80125 847.97266 546.07227 L 847.9043 515.5 C 847.9733 499.36402 850.59535 480.36347 838.19336 467.77148 C 829.70437 459.15149 819.85232 457.41878 808.23633 457.42578 L 756.44922 457.54688 C 749.84423 434.2899 741.8743 413.04021 730.07031 391.86523 C 738.6413 383.84424 746.85793 375.41204 755.16992 367.12305 C 762.17091 360.14005 771.19866 352.77184 776.22266 344.21484 C 778.66365 340.05785 779.7845 335.57996 779.9375 330.79297 C 780.2685 320.44598 776.20265 312.93293 769.22266 305.58594 C 763.11466 299.15594 756.79396 292.92185 750.66797 286.50586 C 743.48398 278.98187 731.98974 264.93246 723.21875 259.98047 C 718.68575 257.42047 712.9874 256.19956 707.81641 256.10156 C 691.16242 255.78656 681.7851 266.83881 670.78711 277.5918 C 662.55712 285.75912 654.1616 293.75232 645.59961 301.57031 C 628.19863 290.19632 597.6677 274.10781 577.01172 271.75781 L 577.05469 238.92773 C 577.08569 230.49774 577.95297 221.25776 576.04297 213.00977 C 574.48897 206.30377 571.25276 199.90314 566.38477 194.99414 C 558.51077 187.05415 548.84452 184.98077 538.01953 185.00977 L 502.27148 185.29688 C 497.49399 185.30287 492.27431 184.9993 487.08594 184.98242 z M 771.79688 729.79492 C 772.32662 729.62701 773.22098 728.90754 774.38867 727.76758 C 773.22139 728.90706 772.3265 729.62705 771.79688 729.79492 z M 202.49023 321.45312 C 196.44026 331.63609 190.56928 341.91567 185.61328 352.68164 C 190.56928 341.91565 196.44024 331.63611 202.49023 321.45312 z M 814.11914 675.82031 C 812.27013 677.35624 810.73851 678.74496 809.54688 680.36328 C 810.73806 678.74552 812.27064 677.35581 814.11914 675.82031 z "
     style="fill:#3b1559;fill-opacity:1" />
  <path
     fill="#A4E3A1"
     d="M280.428 472.356C282.151 472.692 283.603 473.195 284.497 474.847C285.093 475.949 285.107 477.271 285.153 478.493C284.094 479.527 283.03 480.678 281.566 481.094C276.47 482.539 270.313 481.975 265.063 481.955C255.259 481.919 214.791 480.457 207.941 483.082C202.777 485.061 198.783 489.528 194.955 493.348C194.923 487.815 195.372 483.093 199.251 478.726Q199.697 478.227 200.182 477.765Q200.666 477.302 201.185 476.879Q201.704 476.457 202.255 476.076Q202.806 475.696 203.385 475.36Q203.965 475.024 204.569 474.735Q205.173 474.446 205.797 474.206Q206.422 473.965 207.064 473.775Q207.706 473.584 208.361 473.445C215.339 472.021 223.47 472.796 230.635 472.774C247.189 472.726 263.902 473.164 280.428 472.356Z"
     id="path9" />
  <path
     fill="#A4E3A1"
     d="M261.213 328.841C261.597 326.856 261.978 324.898 262.87 323.065C263.955 320.836 265.477 318.718 267.101 316.85C273.572 309.408 281.231 302.554 288.206 295.546C294.787 288.936 301.282 281.489 308.411 275.527C310.216 274.017 312.349 272.511 314.622 271.811C317.52 270.919 320.636 271.482 323.273 272.885C327.51 275.14 331.01 279.05 334.501 282.292Q344.537 291.588 354.475 300.989C359.904 306.173 365.968 313.536 372.558 317.113C376.386 319.19 381.254 319.577 385.44 318.378C392.195 316.441 398.535 310.924 404.779 307.637C420.197 299.521 435.456 293.045 452.25 288.369L452.44 297.71C439.124 301.661 425.707 307.953 413.364 314.295C404.102 319.054 394.167 326.857 383.839 328.772C378.631 329.737 373.025 328.542 368.427 326.01C361.09 321.97 354.453 314.349 348.316 308.636C338.015 299.046 327.712 289.154 316.844 280.218C308.135 289.015 272.947 325.395 264.876 328.845L261.213 328.841Z"
     id="path10" />
  <path
     fill="#A4E3A1"
     d="M475.378 202.998C484.963 200.697 507.571 202.17 518.568 202.148C526.464 202.133 535.01 201.241 542.807 202.185C545.885 202.558 548.796 203.292 551.481 204.895C555.712 207.42 558.528 211.604 559.613 216.379C560.984 222.412 560.289 229.378 560.246 235.546L560.099 261.788C560.08 266.361 559.68 271.285 560.711 275.758C561.438 278.91 563.157 282.114 565.862 283.983C570.621 287.272 588.26 291.951 595.259 294.604Q603.841 297.856 612.089 301.881Q620.336 305.906 628.18 310.67C633.716 313.967 641.262 320.461 647.999 319.112C650.427 318.626 652.712 317.467 654.705 316.021C659.779 312.338 664.185 307.093 668.629 302.673C674.186 297.145 679.921 291.801 685.454 286.247C689.441 282.246 693.573 277.222 698.587 274.499C703.404 271.883 709.95 271.404 714.724 274.432C720.263 277.945 735.143 295.227 740.994 301.222C746.658 307.026 753.303 312.532 758.363 318.823C760.266 321.187 761.921 323.789 762.583 326.789C763.453 330.725 762.407 334.73 760.22 338.056C759.04 339.85 757.621 341.392 756.135 342.931C756.309 337.298 757.615 332.493 754.324 327.431C749.481 319.982 740.495 312.929 734.231 306.448C727.867 299.865 721.829 292.171 714.826 286.315C712.766 284.592 710.02 282.662 707.305 282.225C704.77 281.816 702.311 282.597 700.175 283.947C695.822 286.699 692.122 291.091 688.483 294.702Q678.932 304.07 669.282 313.336C664.971 317.508 660.622 322.448 655.624 325.744C651.198 328.663 645.683 329.938 640.457 328.877C633.446 327.454 625.495 320.573 619.236 316.931Q611.254 312.257 602.809 308.483Q593.815 304.442 584.573 301.004C576.88 298.192 566.483 296.49 559.979 291.703C557.383 289.792 554.724 287.196 553.521 284.143C547.945 269.991 556.096 226.185 549.148 216.037C547.625 213.813 545.3 212.133 542.665 211.503C538.243 210.444 532.731 211 528.165 210.997L494.135 211.012C488.325 211.021 481.92 211.644 476.2 210.685C475.505 210.244 474.899 209.884 474.525 209.106C473.573 207.122 474.648 204.859 475.378 202.998Z"
     id="path11" />
  <path
     fill="#08C17B"
     d="M452.25 288.369C452.536 288.263 452.826 288.167 453.107 288.05C457.31 286.303 460.806 282.587 462.274 278.291C463.999 273.243 463.334 267.38 463.303 262.115L463.096 234.951C463.008 229.557 462.552 223.978 462.977 218.609C463.159 216.306 463.675 214.047 464.689 211.962C466.889 207.438 470.706 204.606 475.378 202.998C474.648 204.859 473.573 207.122 474.525 209.106C474.899 209.884 475.505 210.244 476.2 210.685C481.92 211.644 488.325 211.021 494.135 211.012L528.165 210.997C532.731 211 538.243 210.444 542.665 211.503C545.3 212.133 547.625 213.813 549.148 216.037C556.096 226.185 547.945 269.991 553.521 284.143C554.724 287.196 557.383 289.792 559.979 291.703C566.483 296.49 576.88 298.192 584.573 301.004Q593.815 304.442 602.809 308.483Q611.254 312.257 619.236 316.931C625.495 320.573 633.446 327.454 640.457 328.877C645.683 329.938 651.198 328.663 655.624 325.744C660.622 322.448 664.971 317.508 669.282 313.336Q678.932 304.07 688.483 294.702C692.122 291.091 695.822 286.699 700.175 283.947C702.311 282.597 704.77 281.816 707.305 282.225C710.02 282.662 712.766 284.592 714.826 286.315C721.829 292.171 727.867 299.865 734.231 306.448C740.495 312.929 749.481 319.982 754.324 327.431C757.615 332.493 756.309 337.298 756.135 342.931C747.046 352.213 737.391 360.974 728.079 370.035C723.091 374.889 716.683 380.086 713.206 386.155C712.144 388.008 711.911 390.155 711.931 392.256Q711.943 393.193 712 394.128L712.8 396.857C722.148 411.968 729.98 426.692 735.35 443.671C737.727 451.186 738.458 460.668 742.243 467.455C743.701 470.071 746.954 472.584 749.874 473.274C756.388 474.813 764.56 473.842 771.25 473.793L802.757 473.704C807.418 473.702 812.675 473.165 817.18 474.397C821.389 475.548 824.907 478.26 827.342 481.851C828.893 484.136 829.863 486.742 830.427 489.434C830.59 505.238 830.911 521.245 830.408 537.038C830.658 546.888 832.529 559.36 825.057 567.14C817.29 575.227 804.503 573.546 794.288 573.508L764.548 573.38C759.538 573.356 753.99 572.831 749.061 573.624C746.033 574.111 742.715 575.345 740.476 577.516C737.38 580.518 736.314 585.678 735.106 589.686C729.388 608.65 720.371 628.064 708.538 644.077C708.03 649.789 708.851 653.272 712.706 657.794C716.394 662.118 720.977 665.975 725.068 669.95C731.183 675.89 737.124 682.008 743.327 687.857C747.946 692.212 753.479 696.476 757.042 701.728C759.332 705.105 760.625 709.139 760.368 713.239C760.227 715.505 759.535 717.556 758.733 719.66C755.325 725.964 742.407 736.909 736.879 742.38C729.49 749.695 722.3 757.241 714.796 764.435C712.436 766.776 710.156 768.988 707.43 770.904C705.741 771.792 703.948 772.455 702.064 772.781C697.954 773.492 693.017 773.249 689.346 771.076C683.812 767.798 678.755 761.464 674.214 756.868C662.666 745.182 647.75 728.765 634.496 719.681C628.813 722.3 623.503 725.876 617.88 728.678C604.395 735.398 577.607 745.885 563.463 747.955C561.991 748.17 561.638 748.082 560.747 749.327Q560.982 771.299 560.992 793.272C561.036 801.111 561.643 809.31 560.987 817.108C559.866 822.93 557.155 828.03 552.087 831.375C549.665 832.973 547.388 833.525 544.54 833.862C534.989 834.992 524.585 834.119 514.95 834.11C504.126 834.1 485.037 835.492 474.935 833.116C471.304 832.262 468.586 829.457 466.816 826.291C465.469 823.882 464.842 821.457 464.363 818.76C465.105 794.842 464.445 770.688 464.506 746.743C437.033 742.712 411.6 732.006 387.771 718.188C382.278 722.479 377.407 727.809 372.459 732.703L348.291 756.736C343.695 761.352 339.044 766.809 333.637 770.481C331.294 772.072 328.579 772.806 325.779 773.057C320.215 773.557 316.823 771.938 312.71 768.453C306.249 762.979 300.551 756.404 294.506 750.455C285.872 741.958 274.417 732.466 267.552 722.668C265.313 719.472 264.234 717.331 263.93 713.393C263.637 709.599 264.177 706.06 266.099 702.736C270.389 695.319 278.315 689.051 284.364 682.99C295.598 671.734 307.143 660.659 317.459 648.54C313.851 641.449 309.423 634.723 305.64 627.711C296.25 610.302 288.256 590.837 284.013 571.48L237.091 571.537C229.219 571.584 219.681 572.702 211.983 571.182C207.837 570.364 204.121 568.454 201.156 565.419C195.135 559.254 194.999 551.671 195.012 543.613L194.955 493.348C198.783 489.528 202.777 485.061 207.941 483.082C214.791 480.457 255.259 481.919 265.063 481.955C270.313 481.975 276.47 482.539 281.566 481.094C283.03 480.678 284.094 479.527 285.153 478.493C285.107 477.271 285.093 475.949 284.497 474.847C283.603 473.195 282.151 472.692 280.428 472.356C280.95 468.031 282.891 463.169 284.088 458.946C290.895 434.941 299.685 411.514 314.001 390.881C306.461 383.785 299.504 375.975 292.26 368.575C284.533 360.682 276.428 353.085 268.926 344.987C264.277 339.968 260.939 336.071 261.213 328.841L264.876 328.845C272.947 325.395 308.135 289.015 316.844 280.218C327.712 289.154 338.015 299.046 348.316 308.636C354.453 314.349 361.09 321.97 368.427 326.01C373.025 328.542 378.631 329.737 383.839 328.772C394.167 326.857 404.102 319.054 413.364 314.295C425.707 307.953 439.124 301.661 452.44 297.71L452.25 288.369Z"
     id="path15" />
  <path
     fill="#60D895"
     d="M707.791 402.013C706.848 400.432 706.019 398.276 706.26 396.396C706.438 394.999 707.03 394.502 708.034 393.601C709.873 393.243 710.288 393.504 712 394.128L712.8 396.857C710.813 398.384 709.358 400.088 707.791 402.013Z"
     id="path16" />
  <path
     fill="#089B55"
     d="M704.08 764.181C707.62 763.983 711.293 763.758 714.796 764.435C712.436 766.776 710.156 768.988 707.43 770.904C706.615 768.701 706.09 765.375 704.08 764.181Z"
     id="path17" />
  <path
     fill="#3B1559"
     d="M669.891 700.264C670.956 700.49 671.269 700.663 672.115 701.377C677.113 705.594 681.72 711.139 686.359 715.798C693.491 722.962 701.668 730.073 707.991 737.944C709.108 739.335 709.628 739.883 709.688 741.648C706.402 740.826 674.032 707.783 670.522 703.225C669.51 701.911 669.653 701.849 669.891 700.264Z"
     id="path18" />
  <path
     fill="#3B1559"
     d="M761.895 529.223L788.889 529.174C793.815 529.176 799.68 528.683 804.495 529.693C805.812 529.969 806.195 530.239 806.895 531.358C806.464 532.562 806.153 532.571 805.167 533.314C799.305 533.251 763.304 533.808 760.552 532.437C759.868 532.095 759.961 531.777 759.759 531.111C760.432 529.743 760.474 529.821 761.895 529.223Z"
     id="path19" />
  <path
     fill="#089B55"
     d="M499.276 236.193C505.438 236.201 533.141 235.015 537.109 237.696C538.202 238.434 538.23 238.968 538.424 240.152C537.926 241.594 537.406 242.209 536.377 243.279C530.919 243.612 501.264 244.378 497.935 241.689C496.878 240.835 496.929 240.553 496.868 239.296C497.585 238.073 498.194 237.149 499.276 236.193Z"
     id="path20" />
  <path
     fill="#60D895"
     d="M830.427 489.434C830.59 505.238 830.911 521.245 830.408 537.038C829.353 540.443 827.233 543.573 825.13 546.42C823.356 542.672 824.49 500.089 824.532 492.23C825.27 492.115 826.012 492.004 826.745 491.86C828.7 491.477 829.311 491.095 830.427 489.434Z"
     id="path21" />
  <path
     fill="#0D8B7E"
     d="M288.849 317.804C294.075 321.491 302.891 331.657 307.574 336.53C312.872 342.042 318.545 347.296 323.598 353.027C324.934 354.542 325.717 355.391 325.581 357.515C324.887 358.818 323.929 359.274 322.702 359.982C312.884 353.916 294.352 331.727 284.914 322.271C286.068 320.656 287.492 319.248 288.849 317.804Z"
     id="path22" />
  <path
     fill="#089B55"
     d="M210.703 527.059C219.078 526.746 227.544 527.004 235.93 526.944C244.548 526.882 253.277 526.512 261.886 526.812C264.338 526.898 266.326 526.872 268.109 528.768C268.601 530.072 268.691 530.829 268.266 532.188C267.818 533.62 266.862 534.298 265.631 535.017C258.626 535.022 212.689 535.892 209.702 534.305C208.439 533.634 207.925 532.386 207.735 531.08C208.378 529.29 209.351 528.367 210.703 527.059Z"
     id="path23" />
  <path
     fill="#089B55"
     d="M493.678 757.437C495.377 757.528 496.391 757.631 497.848 758.646C498.359 759.334 498.703 759.883 498.857 760.743C499.538 764.542 499.036 769.094 499.022 772.969L498.998 798.008C511.147 798.592 523.44 798.314 535.606 798.313C535.676 800.298 535.818 802.216 535.366 804.169L534.555 804.561C526.98 804.553 498.231 806.086 493.25 803.293C492.193 802.7 492.083 802.322 491.814 801.167C491.087 798.049 491.237 765.532 491.808 761.848C492.073 760.138 492.74 758.87 493.678 757.437Z"
     id="path24" />
  <path
     fill="#60D895"
     d="M560.637 747.185L560.747 749.327Q560.982 771.299 560.992 793.272C561.036 801.111 561.643 809.31 560.987 817.108C560.434 817.648 560.581 817.453 560.198 817.986C557.533 821.693 553.639 825.829 549.037 827.042C547.488 827.451 546.814 827.025 545.557 826.251C545.869 825.176 546.675 824.742 547.484 823.986C550.092 821.55 552.599 818.75 553.415 815.18C554.502 810.418 553.561 803.75 553.537 798.746C553.468 783.898 553.068 768.953 553.535 754.115C555.574 750.892 557.17 748.929 560.637 747.185Z"
     id="path25" />
  <path
     fill="#A4E3A1"
     d="M705.182 646.075C706.283 645.261 707.239 644.565 708.538 644.077C708.03 649.789 708.851 653.272 712.706 657.794C716.394 662.118 720.977 665.975 725.068 669.95C731.183 675.89 737.124 682.008 743.327 687.857C747.946 692.212 753.479 696.476 757.042 701.728C759.332 705.105 760.625 709.139 760.368 713.239C760.227 715.505 759.535 717.556 758.733 719.66C755.889 715.699 754.265 710.737 751.047 707.159C746.894 702.541 741.746 698.506 737.242 694.193C730.338 687.581 723.723 680.673 716.795 674.083C712.155 669.67 705.937 664.907 702.491 659.482C700.964 657.078 700.177 653.867 700.973 651.077C701.692 648.561 702.998 647.386 705.182 646.075Z"
     id="path26" />
  <path
     fill="#089B55"
     d="M452.502 298.213Q454.507 297.752 456.477 297.157C475.344 291.284 472.744 267.414 474.593 251.658C475.03 247.936 475.42 243.569 477.408 240.301C478.073 239.207 478.515 238.816 479.75 238.579C480.114 238.814 480.397 238.964 480.683 239.323C483.475 242.821 481.612 281.255 480.739 287.745C478.184 306.759 473.168 308.64 458.988 319.525L459.129 320.228L452.963 322.257C451.773 314.605 452.48 305.956 452.502 298.213Z"
     id="path27" />
  <path
     fill="#A4E3A1"
     d="M712.8 396.857C722.148 411.968 729.98 426.692 735.35 443.671C737.727 451.186 738.458 460.668 742.243 467.455C743.701 470.071 746.954 472.584 749.874 473.274C756.388 474.813 764.56 473.842 771.25 473.793L802.757 473.704C807.418 473.702 812.675 473.165 817.18 474.397C821.389 475.548 824.907 478.26 827.342 481.851C828.893 484.136 829.863 486.742 830.427 489.434C829.311 491.095 828.7 491.477 826.745 491.86C826.012 492.004 825.27 492.115 824.532 492.23C824.381 491.924 824.236 491.616 824.081 491.313C822.382 487.992 819.793 485.778 816.273 484.589C811.284 482.903 805.309 483.455 800.085 483.47C789.304 483.5 753.976 485.068 745.849 482.235C740.925 480.519 737.104 477.345 734.595 472.778C729.648 463.774 728.045 448.573 724.387 438.04C720.002 425.413 713.338 414.098 707.791 402.013C709.358 400.088 710.813 398.384 712.8 396.857Z"
     id="path28" />
  <path
     fill="#089B55"
     d="M261.213 328.841L264.876 328.845C276.852 339.746 288.458 351.221 299.913 362.667C305.557 368.307 310.865 374.637 317.023 379.718C322.97 384.624 330.241 387.125 336.368 391.601C323.121 408.791 314.433 428.694 307.586 449.144C304.916 457.119 302.789 467.05 298.518 474.252C297.008 476.797 294.915 478.238 291.92 478.522C289.74 478.729 287.341 478.633 285.153 478.493C285.107 477.271 285.093 475.949 284.497 474.847C283.603 473.195 282.151 472.692 280.428 472.356C280.95 468.031 282.891 463.169 284.088 458.946C290.895 434.941 299.685 411.514 314.001 390.881C306.461 383.785 299.504 375.975 292.26 368.575C284.533 360.682 276.428 353.085 268.926 344.987C264.277 339.968 260.939 336.071 261.213 328.841Z"
     id="path29" />
  <path
     fill="#089B55"
     d="M830.408 537.038C830.658 546.888 832.529 559.36 825.057 567.14C817.29 575.227 804.503 573.546 794.288 573.508L764.548 573.38C759.538 573.356 753.99 572.831 749.061 573.624C746.033 574.111 742.715 575.345 740.476 577.516C737.38 580.518 736.314 585.678 735.106 589.686C729.388 608.65 720.371 628.064 708.538 644.077C707.239 644.565 706.283 645.261 705.182 646.075C703.897 644.255 703.064 642.787 702.897 640.529C702.414 634.01 711.042 623.725 713.997 616.913C720.48 601.973 718.377 572.478 727.137 562.512C729.674 559.626 733.463 557.673 737.193 556.879C743.267 555.586 750.463 556.313 756.669 556.336L789.615 556.48C795.975 556.509 802.538 556.85 808.877 556.384C817.051 555.782 820.069 552.309 825.13 546.42C827.233 543.573 829.353 540.443 830.408 537.038Z"
     id="path30" />
  <path
     fill="#089B55"
     d="M624.62 702.234C629.152 703.301 633.023 704.543 637.007 707.024C643.238 710.904 648.624 716.56 654.252 721.299C665.326 730.626 676.751 739.701 687.419 749.485C692.6 754.237 697.783 761.001 704.08 764.181C706.09 765.375 706.615 768.701 707.43 770.904C705.741 771.792 703.948 772.455 702.064 772.781C697.954 773.492 693.017 773.249 689.346 771.076C683.812 767.798 678.755 761.464 674.214 756.868C662.666 745.182 647.75 728.765 634.496 719.681C628.813 722.3 623.503 725.876 617.88 728.678C604.395 735.398 577.607 745.885 563.463 747.955C561.991 748.17 561.638 748.082 560.747 749.327L560.637 747.185C560.366 741.535 558.85 732.302 562.735 727.674C565.672 724.175 574.91 722.344 579.271 720.946C587.745 718.23 596.42 715.14 604.491 711.385C611.033 708.341 617.621 704.025 624.62 702.234Z"
     id="path31" />
  <path
     fill="#089B55"
     d="M195.012 543.613C199.019 547.34 202.865 550.676 208.322 552.03C217.066 554.199 234.301 552.949 243.934 552.917C263.332 552.853 282.784 553.015 302.175 552.579C302.26 552.754 302.349 552.928 302.431 553.105C305.956 560.682 308.621 574.406 311.789 583.305C320.874 608.82 334.849 631.352 351.197 652.819C339.006 665.398 326.258 677.502 313.858 689.884C309.128 694.607 302.824 699.604 299.268 705.239C303.006 713.66 324.306 739.088 331.574 744.706C339.867 736.818 348.761 729.487 357.4 721.981L392.854 690.571C419.315 707.835 451.208 716.106 481.965 721.571C479.256 727.368 475.949 733.385 474.593 739.676C472.773 748.122 473.899 758.422 473.924 767.1L474.074 819.367C470.854 819.013 467.601 818.482 464.363 818.76C465.105 794.842 464.445 770.688 464.506 746.743C437.033 742.712 411.6 732.006 387.771 718.188C382.278 722.479 377.407 727.809 372.459 732.703L348.291 756.736C343.695 761.352 339.044 766.809 333.637 770.481C331.294 772.072 328.579 772.806 325.779 773.057C320.215 773.557 316.823 771.938 312.71 768.453C306.249 762.979 300.551 756.404 294.506 750.455C285.872 741.958 274.417 732.466 267.552 722.668C265.313 719.472 264.234 717.331 263.93 713.393C263.637 709.599 264.177 706.06 266.099 702.736C270.389 695.319 278.315 689.051 284.364 682.99C295.598 671.734 307.143 660.659 317.459 648.54C313.851 641.449 309.423 634.723 305.64 627.711C296.25 610.302 288.256 590.837 284.013 571.48L237.091 571.537C229.219 571.584 219.681 572.702 211.983 571.182C207.837 570.364 204.121 568.454 201.156 565.419C195.135 559.254 194.999 551.671 195.012 543.613Z"
     id="path32" />
  <path
     fill="#08C17B"
     d="M285.899 708.5C286.684 708.659 286.63 708.632 287.498 708.895C289.747 709.575 291.563 711.33 293.215 712.927C298.32 717.863 322.265 744.855 325.27 750.458C323.522 752.33 321.513 753.848 319.504 755.421C318.424 755.768 316.834 756.299 315.698 755.991C311.095 754.739 286.782 729.128 283.368 723.892C281.502 721.032 280.313 718.236 281.129 714.773C281.82 711.838 283.436 710.1 285.899 708.5Z"
     id="path33" />
  <path
     fill="#3B1559"
     d="M459.129 320.228C470.015 317.743 480.846 315.12 491.958 313.846Q493.987 313.612 496.021 313.42Q498.054 313.229 500.091 313.08Q502.128 312.932 504.168 312.826Q506.208 312.721 508.25 312.658Q510.291 312.596 512.333 312.576Q514.376 312.557 516.418 312.58Q518.461 312.604 520.502 312.67Q522.544 312.737 524.583 312.847Q526.623 312.956 528.66 313.109Q530.696 313.261 532.729 313.457Q534.763 313.652 536.791 313.89Q538.82 314.129 540.843 314.41Q542.866 314.69 544.883 315.014Q546.9 315.337 548.909 315.703Q550.918 316.069 552.92 316.478Q554.921 316.886 556.913 317.336Q558.906 317.786 560.888 318.278Q562.87 318.771 564.842 319.304Q566.813 319.838 568.773 320.414Q570.733 320.989 572.68 321.605Q574.628 322.222 576.562 322.879Q578.495 323.536 580.415 324.234Q582.335 324.932 584.239 325.67Q586.143 326.409 588.032 327.187Q589.92 327.965 591.792 328.783Q593.664 329.601 595.518 330.458Q597.372 331.315 599.207 332.211Q601.043 333.107 602.859 334.041Q604.675 334.976 606.471 335.948Q608.267 336.921 610.043 337.931Q611.818 338.941 613.571 339.989Q615.325 341.036 617.056 342.12C662.908 370.961 694.04 416.452 706.012 469.173Q706.539 471.53 707.008 473.898Q707.476 476.267 707.887 478.647Q708.297 481.026 708.649 483.415Q709.001 485.804 709.294 488.201Q709.588 490.598 709.822 493.002Q710.056 495.405 710.231 497.813Q710.406 500.222 710.522 502.634Q710.638 505.046 710.695 507.46Q710.751 509.874 710.748 512.289Q710.746 514.703 710.684 517.117Q710.622 519.531 710.5 521.943Q710.379 524.355 710.199 526.763Q710.018 529.171 709.779 531.574Q709.539 533.977 709.24 536.373Q708.942 538.769 708.585 541.157Q708.227 543.545 707.812 545.924Q707.396 548.303 706.922 550.671Q706.447 553.038 705.915 555.394Q705.383 557.749 704.793 560.091Q704.203 562.432 703.556 564.759Q702.909 567.085 702.205 569.395Q701.501 571.705 700.74 573.997Q699.98 576.289 699.163 578.561Q698.346 580.834 697.474 583.085Q696.602 585.337 695.674 587.567Q694.747 589.796 693.765 592.003Q692.784 594.209 691.748 596.39Q690.712 598.571 689.623 600.727Q688.534 602.882 687.393 605.01Q686.251 607.138 685.058 609.237Q683.864 611.336 682.62 613.406Q681.375 615.475 680.08 617.513Q678.757 619.577 677.383 621.608Q676.01 623.639 674.587 625.635Q673.164 627.632 671.692 629.592Q670.22 631.553 668.7 633.477Q667.181 635.401 665.614 637.287Q664.047 639.173 662.435 641.019Q660.822 642.866 659.164 644.672Q657.507 646.479 655.805 648.244Q654.104 650.009 652.359 651.732Q650.615 653.454 648.828 655.133Q647.042 656.812 645.214 658.447Q643.387 660.082 641.52 661.671Q639.653 663.26 637.747 664.802Q635.842 666.345 633.899 667.84Q631.956 669.336 629.977 670.782Q627.997 672.229 625.983 673.627Q623.969 675.025 621.921 676.372Q619.873 677.72 617.792 679.017Q615.711 680.314 613.599 681.559Q611.487 682.804 609.345 683.997Q607.203 685.19 605.033 686.329Q602.862 687.469 600.664 688.555Q598.466 689.641 596.241 690.672Q594.017 691.703 591.768 692.679Q589.519 693.656 587.247 694.576Q584.974 695.497 582.68 696.361Q580.386 697.226 578.071 698.033Q575.756 698.841 573.422 699.591Q571.088 700.341 568.736 701.034Q566.384 701.726 564.016 702.361Q561.648 702.995 559.265 703.571Q556.882 704.147 554.485 704.664C502.318 716.425 448.841 705.454 404.077 676.95Q402.065 675.667 400.085 674.335Q398.106 673.003 396.16 671.623Q394.213 670.242 392.302 668.814Q390.39 667.386 388.515 665.912Q386.639 664.437 384.8 662.916Q382.961 661.396 381.161 659.83Q379.36 658.265 377.598 656.655Q375.837 655.046 374.116 653.394Q372.394 651.741 370.714 650.047Q369.034 648.353 367.396 646.618Q365.759 644.882 364.164 643.107Q362.57 641.332 361.02 639.518Q359.47 637.704 357.965 635.853Q356.46 634.001 355.001 632.113Q353.542 630.225 352.13 628.301Q350.719 626.378 349.355 624.42Q347.991 622.462 346.676 620.471Q345.36 618.48 344.095 616.458Q342.829 614.435 341.613 612.382Q340.398 610.329 339.234 608.246Q338.069 606.163 336.957 604.053Q335.844 601.942 334.784 599.804Q333.723 597.667 332.716 595.504Q331.709 593.341 330.755 591.154Q329.802 588.966 328.903 586.756Q328.003 584.546 327.159 582.315Q326.314 580.083 325.525 577.831Q324.736 575.58 324.002 573.309Q323.269 571.039 322.592 568.751Q321.914 566.463 321.294 564.159Q320.673 561.855 320.11 559.536Q319.546 557.218 319.04 554.886Q318.518 552.478 318.056 550.058Q317.593 547.638 317.19 545.208Q316.787 542.777 316.444 540.337Q316.101 537.897 315.817 535.45Q315.534 533.003 315.311 530.549Q315.088 528.095 314.925 525.637Q314.763 523.178 314.66 520.717Q314.558 518.255 314.516 515.792Q314.474 513.328 314.493 510.864Q314.512 508.401 314.591 505.938Q314.67 503.476 314.809 501.016Q314.949 498.556 315.149 496.1Q315.349 493.645 315.609 491.195Q315.869 488.745 316.189 486.302Q316.51 483.859 316.89 481.424Q317.27 478.99 317.71 476.566Q318.149 474.142 318.649 471.729Q319.148 469.316 319.706 466.917Q320.264 464.517 320.881 462.132Q321.498 459.746 322.174 457.377Q322.849 455.008 323.582 452.655Q324.316 450.303 325.107 447.97Q325.898 445.637 326.746 443.323Q327.594 441.01 328.498 438.718Q329.402 436.426 330.363 434.158Q331.323 431.889 332.339 429.644Q333.355 427.4 334.426 425.181Q335.497 422.962 336.622 420.77Q337.746 418.578 338.925 416.414Q340.103 414.25 341.334 412.116Q342.565 409.982 343.848 407.878Q345.132 405.775 346.466 403.704Q348.415 400.683 350.47 397.735Q352.526 394.786 354.687 391.913Q356.847 389.04 359.11 386.247Q361.372 383.453 363.734 380.743Q366.095 378.033 368.552 375.409Q371.009 372.785 373.559 370.252Q376.109 367.718 378.749 365.278Q381.388 362.838 384.113 360.494Q386.839 358.15 389.647 355.905Q392.455 353.661 395.341 351.519Q398.228 349.377 401.19 347.34Q404.152 345.303 407.185 343.374Q410.218 341.445 413.319 339.626Q416.419 337.808 419.583 336.101Q422.747 334.395 425.97 332.804Q429.194 331.212 432.472 329.738C438.622 327.008 445.73 323.712 452.324 322.378C452.537 322.335 452.75 322.297 452.963 322.257L459.129 320.228Z"
     id="path34" />
  <path
     fill="#0D8B7E"
     d="M508.441 324.225Q509.425 324.184 510.41 324.159Q512.624 324.124 514.839 324.142Q517.053 324.161 519.267 324.233Q521.48 324.306 523.691 324.432Q525.902 324.558 528.109 324.738Q530.317 324.917 532.519 325.151Q534.721 325.384 536.917 325.671Q539.113 325.957 541.301 326.297Q543.49 326.637 545.669 327.03Q547.849 327.423 550.018 327.868Q552.187 328.314 554.345 328.812Q556.503 329.31 558.648 329.861Q560.793 330.411 562.924 331.013Q565.055 331.616 567.171 332.27Q569.287 332.924 571.386 333.629Q573.486 334.334 575.567 335.089Q577.649 335.845 579.712 336.651Q581.774 337.457 583.817 338.313Q585.859 339.169 587.88 340.074Q589.901 340.98 591.9 341.934Q593.898 342.888 595.873 343.89Q597.848 344.892 599.798 345.942Q601.748 346.992 603.672 348.089Q605.595 349.186 607.492 350.329Q609.389 351.473 611.257 352.662Q613.125 353.851 614.964 355.085Q616.803 356.319 618.612 357.597Q620.42 358.875 622.197 360.197Q623.974 361.519 625.718 362.883Q627.462 364.248 629.173 365.654Q630.884 367.061 632.56 368.508Q634.236 369.956 635.876 371.444Q637.516 372.932 639.12 374.459Q640.832 376.073 642.503 377.729Q644.173 379.385 645.803 381.082Q647.432 382.78 649.018 384.517Q650.605 386.254 652.148 388.03Q653.691 389.806 655.189 391.62Q656.687 393.434 658.14 395.284Q659.592 397.135 660.999 399.021Q662.405 400.907 663.764 402.828Q665.122 404.748 666.433 406.702Q667.744 408.655 669.005 410.641Q670.267 412.627 671.479 414.643Q672.691 416.66 673.852 418.706Q675.014 420.751 676.124 422.826Q677.234 424.9 678.292 427.001Q679.35 429.102 680.356 431.229Q681.362 433.356 682.314 435.507Q683.267 437.658 684.165 439.832Q685.064 442.007 685.908 444.202Q686.753 446.398 687.542 448.614Q688.332 450.831 689.066 453.066Q689.8 455.301 690.478 457.554Q691.157 459.806 691.779 462.075Q692.401 464.344 692.966 466.628Q693.532 468.911 694.04 471.208Q694.549 473.505 695 475.814Q695.451 478.123 695.845 480.443Q696.239 482.762 696.575 485.09Q696.911 487.419 697.188 489.755Q697.466 492.091 697.686 494.434Q697.906 496.776 698.067 499.123Q698.228 501.47 698.331 503.82Q698.434 506.171 698.479 508.523Q698.527 510.789 698.518 513.056Q698.51 515.322 698.445 517.588Q698.381 519.854 698.261 522.117Q698.141 524.381 697.965 526.641Q697.789 528.9 697.557 531.155Q697.325 533.41 697.037 535.658Q696.75 537.907 696.407 540.147Q696.064 542.388 695.666 544.619Q695.268 546.851 694.815 549.072Q694.362 551.292 693.855 553.502Q693.347 555.711 692.785 557.906Q692.223 560.102 691.607 562.284Q690.991 564.465 690.321 566.63Q689.651 568.796 688.928 570.944Q688.205 573.092 687.43 575.222Q686.654 577.352 685.826 579.462Q684.998 581.572 684.118 583.661Q683.238 585.75 682.306 587.816Q681.375 589.883 680.393 591.925Q679.411 593.968 678.379 595.986Q677.347 598.004 676.265 599.996Q675.184 601.988 674.053 603.953Q672.923 605.917 671.744 607.854Q670.566 609.79 669.34 611.696Q668.114 613.603 666.841 615.478Q665.568 617.354 664.25 619.197Q662.931 621.041 661.567 622.851Q660.203 624.662 658.795 626.438Q657.387 628.214 655.936 629.956Q654.484 631.696 652.99 633.401Q651.496 635.106 649.961 636.773Q648.425 638.44 646.849 640.069Q645.281 641.718 643.673 643.328Q642.065 644.938 640.418 646.508Q638.77 648.077 637.084 649.606Q635.398 651.134 633.675 652.62Q631.951 654.105 630.191 655.548Q628.432 656.99 626.636 658.389Q624.841 659.787 623.012 661.141Q621.183 662.494 619.321 663.802Q617.458 665.109 615.564 666.37Q613.67 667.631 611.745 668.845Q609.82 670.058 607.866 671.224Q605.911 672.389 603.928 673.505Q601.946 674.622 599.936 675.689Q597.926 676.756 595.89 677.772Q593.854 678.789 591.794 679.755Q589.733 680.72 587.65 681.635Q585.566 682.549 583.46 683.411Q581.354 684.274 579.228 685.084Q577.101 685.893 574.955 686.65Q572.809 687.407 570.645 688.11Q568.481 688.813 566.3 689.462Q564.119 690.111 561.923 690.706Q559.726 691.301 557.516 691.841Q555.305 692.381 553.082 692.867Q550.859 693.352 548.624 693.781Q546.39 694.211 544.145 694.585Q541.901 694.959 539.648 695.278Q537.395 695.596 535.134 695.858Q532.874 696.12 530.608 696.326Q528.342 696.532 526.071 696.682Q523.8 696.832 521.527 696.925Q519.253 697.018 516.978 697.055Q514.724 697.103 512.47 697.097Q510.216 697.091 507.962 697.031Q505.709 696.972 503.458 696.858Q501.206 696.743 498.958 696.575Q496.71 696.407 494.467 696.185Q492.224 695.963 489.986 695.688Q487.749 695.412 485.519 695.083Q483.289 694.753 481.067 694.37Q478.846 693.987 476.634 693.551Q474.423 693.115 472.222 692.626Q470.021 692.137 467.833 691.596Q465.645 691.054 463.47 690.46Q461.296 689.866 459.136 689.22Q456.977 688.574 454.833 687.876Q452.689 687.178 450.563 686.429Q448.437 685.68 446.329 684.881Q444.222 684.081 442.134 683.231Q440.046 682.381 437.979 681.481Q435.913 680.581 433.868 679.631Q431.823 678.682 429.802 677.684Q427.781 676.685 425.784 675.639Q423.788 674.593 421.817 673.499Q419.846 672.405 417.902 671.264Q415.957 670.123 414.041 668.935Q412.125 667.748 410.238 666.515Q408.351 665.282 406.494 664.004Q404.637 662.726 402.811 661.404Q400.985 660.082 399.192 658.716Q397.398 657.35 395.638 655.942Q393.878 654.534 392.152 653.084Q390.426 651.634 388.735 650.142Q387.044 648.651 385.39 647.12Q383.731 645.58 382.11 644Q380.49 642.42 378.909 640.8Q377.327 639.181 375.786 637.523Q374.245 635.865 372.745 634.169Q371.246 632.474 369.788 630.742Q368.33 629.011 366.915 627.244Q365.501 625.477 364.13 623.676Q362.759 621.875 361.433 620.04Q360.106 618.206 358.826 616.34Q357.545 614.473 356.31 612.576Q355.076 610.679 353.888 608.752Q352.701 606.825 351.561 604.869Q350.421 602.914 349.33 600.931Q348.239 598.948 347.196 596.938Q346.154 594.929 345.161 592.895Q344.169 590.861 343.226 588.803Q342.284 586.745 341.392 584.664Q340.501 582.584 339.661 580.482Q338.82 578.38 338.032 576.258Q337.244 574.136 336.508 571.996Q335.772 569.855 335.089 567.697Q334.406 565.539 333.776 563.365Q333.147 561.191 332.57 559.002Q331.994 556.813 331.472 554.61Q330.95 552.408 330.482 550.193Q330.014 547.979 329.6 545.753Q329.187 543.528 328.828 541.293Q328.47 539.058 328.166 536.815Q327.863 534.572 327.614 532.322Q327.366 530.072 327.173 527.817Q326.98 525.562 326.842 523.302Q326.705 521.043 326.623 518.781C324.613 470.963 342.942 420.915 375.456 385.849C410.894 347.629 456.225 326.231 508.441 324.225Z"
     id="path35" />
  <path
     fill="#3B1559"
     d="M501.898 344.207C542.813 341.078 586.575 355.405 618.005 381.563C652.613 410.367 675.355 450.783 679.326 495.893C683.081 538.548 670.36 583.888 642.632 616.807C611.732 653.492 572.486 674.316 524.625 678.47C478.485 680.236 437.981 669.06 402.284 638.635Q400.757 637.331 399.261 635.989Q397.766 634.648 396.305 633.271Q394.843 631.893 393.415 630.48Q391.988 629.067 390.596 627.619Q389.203 626.172 387.847 624.69Q386.49 623.209 385.17 621.695Q383.851 620.181 382.568 618.635Q381.286 617.089 380.042 615.512Q378.798 613.935 377.593 612.328Q376.388 610.721 375.223 609.084Q374.058 607.448 372.933 605.784Q371.809 604.12 370.725 602.429Q369.642 600.738 368.6 599.02Q367.558 597.303 366.559 595.561Q365.559 593.818 364.603 592.052Q363.647 590.286 362.734 588.496Q361.821 586.707 360.953 584.896Q360.084 583.085 359.26 581.253Q358.437 579.421 357.658 577.57Q356.879 575.718 356.146 573.848Q355.413 571.978 354.726 570.091Q354.039 568.203 353.398 566.3Q352.758 564.396 352.164 562.477Q351.57 560.558 351.024 558.625Q350.478 556.693 349.979 554.747Q349.48 552.801 349.029 550.844Q348.578 548.887 348.175 546.919Q347.772 544.951 347.417 542.974Q347.063 540.997 346.757 539.012Q346.451 537.027 346.194 535.035Q345.937 533.043 345.728 531.045Q345.52 529.047 345.361 527.045Q345.195 524.927 345.082 522.806Q344.968 520.685 344.907 518.561Q344.847 516.438 344.838 514.314Q344.83 512.19 344.875 510.066Q344.919 507.942 345.016 505.82Q345.113 503.698 345.263 501.579Q345.413 499.46 345.615 497.345Q345.817 495.231 346.072 493.122Q346.326 491.013 346.633 488.911Q346.939 486.809 347.298 484.715Q347.657 482.621 348.067 480.537Q348.478 478.453 348.94 476.379Q349.402 474.306 349.915 472.245Q350.428 470.183 350.992 468.135Q351.557 466.087 352.171 464.054Q352.786 462.021 353.451 460.003Q354.116 457.986 354.831 455.985Q355.546 453.985 356.31 452.003Q357.074 450.021 357.887 448.058Q358.7 446.096 359.561 444.154Q360.423 442.212 361.332 440.292Q362.241 438.373 363.198 436.476Q364.154 434.579 365.158 432.707Q366.161 430.834 367.21 428.987Q368.26 427.14 369.354 425.32Q370.449 423.5 371.589 421.707Q372.729 419.914 373.912 418.15Q375.096 416.387 376.323 414.652Q377.55 412.918 378.82 411.215Q380.089 409.512 381.401 407.841Q382.712 406.17 384.065 404.532Q385.417 402.894 386.81 401.29C416.174 367.185 457.295 347.694 501.898 344.207Z"
     id="path36" />
  <path
     fill="#F2AA39"
     d="M502.024 356.29C502.834 356.201 503.641 356.155 504.454 356.115Q506.321 356.021 508.191 355.973Q510.06 355.924 511.93 355.922Q513.799 355.919 515.669 355.963Q517.538 356.006 519.406 356.096Q521.273 356.185 523.138 356.32Q525.003 356.455 526.864 356.636Q528.725 356.817 530.581 357.043Q532.437 357.27 534.287 357.542Q536.137 357.814 537.98 358.131Q539.822 358.448 541.657 358.81Q543.491 359.173 545.316 359.58Q547.141 359.987 548.955 360.439Q550.77 360.891 552.572 361.387Q554.375 361.883 556.165 362.424Q557.955 362.964 559.731 363.548Q561.507 364.132 563.269 364.76Q565.03 365.387 566.776 366.058Q568.521 366.728 570.249 367.441Q571.978 368.154 573.688 368.91Q575.399 369.665 577.09 370.462Q578.781 371.259 580.453 372.098Q582.124 372.936 583.774 373.815Q585.425 374.694 587.053 375.613Q588.681 376.533 590.286 377.492Q591.891 378.451 593.472 379.449Q595.053 380.447 596.609 381.484Q598.166 382.52 599.696 383.595Q601.226 384.669 602.73 385.781Q604.233 386.892 605.709 388.041Q607.184 389.189 608.631 390.373Q610.079 391.557 611.496 392.776Q612.914 393.995 614.301 395.249C644.898 422.992 664.626 460.647 666.547 502.273C668.557 545.837 654.587 584.371 625.1 616.514Q623.856 617.863 622.58 619.182Q621.303 620.501 619.995 621.789Q618.687 623.076 617.348 624.332Q616.01 625.587 614.641 626.81Q613.272 628.032 611.874 629.221Q610.476 630.41 609.049 631.565Q607.622 632.72 606.168 633.839Q604.714 634.959 603.233 636.043Q601.752 637.128 600.245 638.176Q598.739 639.224 597.207 640.235Q595.675 641.246 594.12 642.219Q592.564 643.193 590.985 644.129Q589.406 645.064 587.805 645.961Q586.203 646.858 584.581 647.716Q582.958 648.574 581.316 649.393Q579.673 650.211 578.01 650.989Q576.348 651.767 574.668 652.505Q572.987 653.243 571.289 653.94Q569.591 654.636 567.877 655.292Q566.162 655.947 564.433 656.561Q562.703 657.174 560.959 657.745Q559.215 658.317 557.457 658.846Q555.7 659.375 553.93 659.861Q552.16 660.347 550.379 660.79Q548.598 661.233 546.807 661.633Q545.015 662.033 543.215 662.389Q541.414 662.745 539.606 663.057Q537.797 663.37 535.982 663.638Q534.166 663.907 532.344 664.131Q530.523 664.355 528.696 664.535Q526.87 664.715 525.039 664.851Q523.209 664.987 521.376 665.078L520.948 665.116C481.762 668.302 440.979 653.151 411.325 627.732Q409.902 626.535 408.51 625.303Q407.117 624.071 405.756 622.804Q404.395 621.537 403.066 620.237Q401.737 618.937 400.441 617.604Q399.144 616.27 397.882 614.905Q396.62 613.54 395.392 612.143Q394.164 610.747 392.972 609.32Q391.78 607.894 390.623 606.438Q389.467 604.981 388.348 603.497Q387.228 602.012 386.146 600.5Q385.064 598.988 384.02 597.449Q382.977 595.91 381.972 594.346Q380.967 592.781 380.001 591.192Q379.036 589.603 378.111 587.99Q377.185 586.378 376.301 584.742Q375.416 583.107 374.573 581.45Q373.729 579.793 372.927 578.115Q372.126 576.437 371.366 574.74Q370.607 573.043 369.89 571.327Q369.174 569.612 368.5 567.878Q367.826 566.145 367.197 564.396Q366.567 562.646 365.981 560.882Q365.395 559.117 364.853 557.338Q364.312 555.56 363.815 553.768Q363.318 551.976 362.866 550.172Q362.414 548.369 362.008 546.554Q361.601 544.74 361.24 542.916Q360.879 541.092 360.564 539.26Q360.249 537.427 359.979 535.587Q359.71 533.748 359.487 531.902Q359.264 530.056 359.087 528.205Q358.91 526.354 358.78 524.499Q358.621 522.554 358.511 520.606Q358.4 518.658 358.338 516.707Q358.277 514.757 358.263 512.806Q358.25 510.854 358.286 508.904Q358.321 506.952 358.406 505.003Q358.49 503.053 358.623 501.107Q358.755 499.16 358.937 497.217Q359.118 495.274 359.348 493.336Q359.578 491.399 359.855 489.467Q360.133 487.536 360.46 485.612Q360.786 483.688 361.16 481.773Q361.534 479.858 361.955 477.952Q362.377 476.047 362.846 474.153Q363.315 472.259 363.831 470.377Q364.347 468.495 364.91 466.627Q365.473 464.758 366.082 462.905Q366.692 461.051 367.347 459.213Q368.002 457.375 368.703 455.554Q369.404 453.733 370.151 451.93Q370.897 450.127 371.688 448.343Q372.479 446.559 373.314 444.796Q374.149 443.032 375.028 441.29Q375.907 439.548 376.829 437.828Q377.751 436.108 378.716 434.412Q379.681 432.716 380.688 431.045Q381.694 429.373 382.743 427.727Q383.791 426.081 384.88 424.462Q385.968 422.843 387.097 421.251Q388.226 419.659 389.395 418.096Q390.563 416.533 391.77 415Q392.977 413.467 394.221 411.964Q395.466 410.461 396.748 408.99C422.792 378.988 462.456 359.122 502.024 356.29Z"
     id="path37" />
  <path
     fill="#3B1559"
     d="M432.311 601.077C433.626 600.005 433.852 599.467 435.673 599.697C436.907 599.853 438.378 600.488 439.111 601.51C440.151 602.961 440.032 604.929 439.624 606.578C438.574 610.814 434.701 617.393 430.762 619.437C429.609 620.036 428.207 620.329 426.962 619.816C425.809 619.341 424.761 618.194 424.404 616.998C423.554 614.155 425.942 610.999 427.35 608.734C429.124 606.258 430.705 603.664 432.311 601.077Z"
     id="path38" />
  <path
     fill="#FEFFFE"
     d="M446.28 609.867C451.337 610.862 456.746 614.995 461.362 617.36C467.737 620.625 474.758 623.603 481.689 625.431C485.001 626.305 492.258 627.118 494.252 630.241C494.939 631.319 495.259 632.39 494.896 633.656C494.314 635.683 492.89 636.779 491.149 637.781C490.849 637.761 490.548 637.747 490.247 637.722C480.49 636.924 448.31 624.837 442.651 617.37C442.071 616.606 441.669 615.641 441.853 614.68C442.29 612.403 444.538 611.149 446.28 609.867Z"
     id="path39" />
  <path
     fill="#FEFFFE"
     d="M427.35 608.734C425.233 607.214 423.318 605.502 421.462 603.674C408.284 590.694 398.57 573.507 392.133 556.264C391.296 554.023 389.429 550.413 389.692 548.055C389.82 546.908 390.051 545.989 391.044 545.294C392.025 544.607 393.48 544.561 394.637 544.637C396.795 544.778 398.136 545.82 399.14 547.707C401.953 552.994 403.13 559.371 405.712 564.874C412.114 578.514 422.366 589.947 432.311 601.077C430.705 603.664 429.124 606.258 427.35 608.734Z"
     id="path40" />
  <path
     fill="#FEFFFE"
     d="M507.318 368.217C523.515 367.386 540.068 370.035 555.474 374.888Q557.114 375.42 558.74 375.991Q560.366 376.562 561.978 377.173Q563.59 377.783 565.186 378.432Q566.783 379.081 568.364 379.769Q569.944 380.456 571.508 381.181Q573.071 381.907 574.617 382.669Q576.162 383.432 577.689 384.232Q579.216 385.032 580.723 385.868Q582.23 386.705 583.716 387.578Q585.203 388.45 586.667 389.358Q588.132 390.267 589.575 391.21Q591.017 392.153 592.437 393.131Q593.856 394.109 595.252 395.12Q596.647 396.132 598.017 397.177Q599.388 398.222 600.733 399.3Q602.078 400.378 603.396 401.488Q604.715 402.598 606.006 403.74Q607.298 404.881 608.561 406.054Q609.825 407.226 611.059 408.429Q612.294 409.631 613.5 410.863Q614.705 412.095 615.88 413.356Q617.056 414.616 618.2 415.905Q619.345 417.193 620.458 418.509Q621.571 419.825 622.652 421.167Q623.734 422.51 624.782 423.878Q625.83 425.246 626.846 426.639Q627.861 428.032 628.842 429.449Q629.823 430.866 630.77 432.306Q631.717 433.746 632.628 435.209Q633.54 436.672 634.416 438.156Q635.292 439.64 636.132 441.145Q636.972 442.65 637.776 444.175C654.54 476.601 658.813 518.084 647.578 553.023C645.268 560.206 635.923 585.552 629.308 587.908C628.155 588.318 626.661 588.058 625.605 587.506C624.463 586.91 623.543 585.91 623.198 584.652C622.781 583.134 623.325 582.07 624.073 580.804C637.789 557.586 645.184 531.515 643.945 504.501C642.281 468.225 626.127 435.234 599.346 410.946C588.575 400.748 575.314 392.845 561.526 387.491C527.506 374.281 490.787 374.396 457.271 389.364C424.51 403.994 399.838 433.711 389.385 467.757C388.084 471.995 386.777 476.345 385.922 480.696C385.084 484.955 385.097 490.911 383.244 494.79C382.71 495.907 381.978 496.712 380.715 496.974C379.223 497.284 377.643 496.85 376.459 495.915C375.324 495.019 374.674 493.987 374.552 492.513C374.189 488.109 375.523 483.039 376.423 478.714C381.286 455.333 392.305 431.254 408.452 413.425C434.127 385.076 469.4 370.163 507.318 368.217Z"
     id="path41" />
  <path
     fill="#3B1559"
     d="M506.277 413.706C506.346 413.698 506.415 413.687 506.484 413.682C531.053 411.838 556.678 420.73 575.457 436.491Q576.411 437.28 577.346 438.093Q578.28 438.906 579.193 439.742Q580.107 440.578 581 441.436Q581.892 442.294 582.763 443.175Q583.634 444.055 584.482 444.957Q585.331 445.859 586.157 446.782Q586.983 447.705 587.785 448.648Q588.588 449.591 589.367 450.554Q590.145 451.516 590.9 452.498Q591.654 453.48 592.384 454.481Q593.114 455.481 593.818 456.5Q594.523 457.518 595.202 458.554Q595.881 459.589 596.534 460.642Q597.186 461.694 597.813 462.762Q598.439 463.831 599.039 464.914Q599.638 465.998 600.211 467.096Q600.783 468.194 601.328 469.306Q601.872 470.418 602.389 471.544Q602.906 472.669 603.394 473.807Q603.883 474.945 604.343 476.094Q604.803 477.244 605.234 478.405Q605.665 479.566 606.067 480.737Q606.469 481.908 606.842 483.089Q607.215 484.27 607.558 485.46Q607.901 486.65 608.214 487.848Q608.528 489.046 608.811 490.252Q609.094 491.457 609.348 492.669Q609.601 493.882 609.824 495.1Q610.046 496.318 610.239 497.541Q610.431 498.764 610.593 499.992Q610.755 501.22 610.886 502.451Q611.017 503.683 611.117 504.917Q611.223 506.138 611.299 507.362Q611.375 508.585 611.421 509.81Q611.466 511.036 611.481 512.261Q611.496 513.487 611.48 514.713Q611.465 515.939 611.419 517.164Q611.372 518.389 611.296 519.612Q611.219 520.836 611.112 522.057Q611.005 523.278 610.868 524.497Q610.731 525.715 610.563 526.929Q610.395 528.144 610.198 529.353Q610 530.563 609.772 531.768Q609.544 532.972 609.286 534.171Q609.028 535.369 608.741 536.561Q608.453 537.753 608.136 538.937Q607.819 540.121 607.473 541.297Q607.126 542.473 606.751 543.64Q606.375 544.807 605.971 545.964Q605.566 547.121 605.133 548.268Q604.7 549.415 604.238 550.551Q603.776 551.686 603.287 552.81Q602.797 553.934 602.279 555.045Q601.762 556.156 601.217 557.255Q600.672 558.353 600.099 559.437Q599.527 560.521 598.928 561.591Q598.329 562.66 597.703 563.715Q597.078 564.769 596.427 565.807Q595.775 566.846 595.098 567.868Q594.421 568.89 593.718 569.894Q593.016 570.899 592.289 571.886Q591.562 572.873 590.81 573.841Q590.058 574.81 589.283 575.759Q588.508 576.709 587.709 577.639Q586.903 578.576 586.075 579.493Q585.247 580.41 584.397 581.307Q583.547 582.204 582.676 583.081Q581.805 583.957 580.913 584.812Q580.021 585.667 579.108 586.501Q578.196 587.334 577.264 588.145Q576.332 588.956 575.38 589.745Q574.429 590.533 573.458 591.299Q572.488 592.064 571.5 592.806Q570.512 593.548 569.506 594.266Q568.5 594.984 567.477 595.677Q566.455 596.37 565.415 597.039Q564.376 597.708 563.321 598.351Q562.266 598.995 561.196 599.612Q560.126 600.23 559.041 600.822Q557.956 601.414 556.858 601.98Q555.759 602.545 554.647 603.084Q553.535 603.624 552.411 604.136Q551.286 604.648 550.149 605.133Q549.013 605.618 547.865 606.075Q546.717 606.532 545.558 606.962Q544.4 607.392 543.231 607.794Q542.062 608.195 540.885 608.569Q539.707 608.942 538.52 609.287Q537.333 609.632 536.139 609.948Q534.944 610.265 533.743 610.552Q532.541 610.84 531.332 611.098Q530.124 611.357 528.91 611.586Q527.696 611.816 526.476 612.016Q525.257 612.216 524.033 612.386Q522.809 612.557 521.581 612.698Q520.354 612.839 519.123 612.951C494.285 615.133 468.455 606.423 449.408 590.463Q448.443 589.661 447.498 588.835Q446.553 588.009 445.629 587.16Q444.704 586.311 443.801 585.44Q442.898 584.568 442.016 583.675Q441.134 582.782 440.274 581.868Q439.415 580.953 438.578 580.018Q437.741 579.083 436.927 578.128Q436.113 577.172 435.323 576.197Q434.533 575.222 433.767 574.228Q433.001 573.234 432.259 572.221Q431.518 571.208 430.801 570.178Q430.085 569.147 429.394 568.1Q428.703 567.052 428.038 565.988Q427.373 564.923 426.734 563.843Q426.095 562.763 425.483 561.667Q424.871 560.572 424.285 559.461Q423.7 558.351 423.142 557.227Q422.585 556.102 422.054 554.965Q421.524 553.827 421.022 552.677Q420.52 551.527 420.046 550.365Q419.573 549.202 419.128 548.029Q418.682 546.855 418.266 545.671Q417.85 544.487 417.463 543.294Q417.076 542.1 416.718 540.897Q416.36 539.694 416.032 538.482Q415.704 537.271 415.405 536.052Q415.107 534.833 414.838 533.607Q414.57 532.381 414.331 531.149Q414.093 529.917 413.885 528.679Q413.677 527.441 413.499 526.199Q413.321 524.956 413.174 523.71Q413.027 522.464 412.91 521.214Q412.811 520 412.741 518.784Q412.671 517.568 412.631 516.351Q412.591 515.134 412.58 513.916Q412.57 512.698 412.589 511.481Q412.608 510.263 412.657 509.046Q412.706 507.829 412.784 506.614Q412.863 505.399 412.971 504.186Q413.079 502.973 413.216 501.762Q413.354 500.552 413.521 499.346Q413.688 498.14 413.884 496.938Q414.08 495.736 414.305 494.539Q414.531 493.342 414.785 492.151Q415.04 490.96 415.323 489.776Q415.607 488.591 415.919 487.414Q416.231 486.237 416.572 485.068Q416.912 483.899 417.281 482.738Q417.651 481.577 418.048 480.426Q418.445 479.275 418.87 478.134Q419.295 476.992 419.748 475.862Q420.201 474.731 420.681 473.612Q421.161 472.493 421.669 471.386Q422.176 470.279 422.71 469.184Q423.244 468.09 423.805 467.008Q424.365 465.927 424.952 464.86Q425.539 463.793 426.151 462.74Q426.764 461.688 427.402 460.65Q428.04 459.613 428.703 458.591Q429.366 457.57 430.054 456.565Q430.742 455.56 431.454 454.572Q432.166 453.584 432.901 452.613Q433.637 451.643 434.397 450.691Q435.156 449.738 435.938 448.805C454.29 427.268 478.243 415.947 506.277 413.706Z"
     id="path42" />
  <path
     fill="#0D8B7E"
     d="M438.905 559.594L439.534 559.274C438.933 558.125 438.308 557.049 437.602 555.961C446.888 562.956 453.384 571.058 465.108 574.343C467.002 574.873 469.429 575.565 471.376 575.2C471.827 575.115 472.067 574.969 472.473 574.775C479.247 577.775 485.397 581.45 492.654 583.341Q494.22 583.751 495.802 584.092Q497.384 584.433 498.98 584.705Q500.575 584.978 502.181 585.18Q503.787 585.383 505.4 585.515Q507.013 585.648 508.631 585.711Q510.248 585.773 511.867 585.765Q513.485 585.757 515.102 585.679Q516.718 585.601 518.33 585.452Q519.942 585.304 521.546 585.085Q523.15 584.867 524.742 584.579Q526.335 584.291 527.914 583.935Q529.493 583.578 531.054 583.153Q532.616 582.728 534.158 582.235Q535.7 581.743 537.219 581.184Q538.738 580.625 540.231 580Q541.724 579.376 543.189 578.687C547.244 576.745 551.139 574.049 555.025 571.77C563.861 574.189 571.657 567.567 579.491 568.855C572.775 577.258 563.968 583.901 554.699 589.235C534.745 600.719 511.958 604.546 489.597 598.339C469.345 592.717 449.368 577.979 438.905 559.594Z"
     id="path43" />
  <path
     fill="#1AA390"
     d="M438.905 559.594C426.384 540.764 422.381 517.064 426.814 494.996Q427.021 493.939 427.255 492.887Q427.489 491.835 427.749 490.789Q428.009 489.743 428.294 488.704Q428.58 487.665 428.892 486.634Q429.203 485.602 429.54 484.579Q429.878 483.555 430.24 482.541Q430.603 481.526 430.99 480.52Q431.378 479.515 431.791 478.52Q432.203 477.524 432.641 476.539Q433.078 475.554 433.539 474.581Q434.001 473.607 434.487 472.645Q434.972 471.683 435.482 470.734Q435.992 469.784 436.525 468.848Q437.058 467.911 437.614 466.988Q438.17 466.066 438.749 465.157Q439.328 464.248 439.929 463.354Q440.531 462.46 441.154 461.581Q441.778 460.702 442.423 459.839Q443.068 458.976 443.734 458.129Q444.401 457.282 445.088 456.452Q445.775 455.623 446.483 454.81Q447.191 453.997 447.919 453.203Q448.647 452.408 449.394 451.632Q450.141 450.856 450.908 450.098Q451.674 449.341 452.459 448.603Q453.244 447.865 454.047 447.146Q454.851 446.428 455.671 445.73Q456.492 445.032 457.33 444.354Q458.168 443.677 459.023 443.02Q459.877 442.364 460.748 441.729Q461.618 441.094 462.505 440.481Q463.391 439.868 464.292 439.277Q465.182 438.691 466.086 438.128Q466.991 437.564 467.909 437.023Q468.827 436.482 469.758 435.964Q470.689 435.446 471.633 434.951Q472.576 434.456 473.532 433.984Q474.487 433.512 475.454 433.065Q476.421 432.617 477.399 432.193Q478.377 431.77 479.365 431.37Q480.353 430.971 481.35 430.596Q482.348 430.221 483.354 429.871Q484.36 429.521 485.375 429.196Q486.39 428.871 487.412 428.571Q488.435 428.271 489.465 427.997Q490.494 427.722 491.53 427.473Q492.566 427.224 493.608 427.001Q494.65 426.778 495.697 426.58Q496.745 426.383 497.796 426.211Q498.848 426.04 499.904 425.895Q500.959 425.749 502.018 425.63Q503.077 425.511 504.138 425.418Q505.2 425.325 506.263 425.258Q507.327 425.191 508.392 425.151Q509.457 425.11 510.522 425.096Q511.588 425.082 512.653 425.094Q513.719 425.107 514.783 425.145Q515.848 425.184 516.912 425.249Q517.975 425.314 519.037 425.405Q520.099 425.496 521.158 425.613Q522.217 425.731 523.273 425.874Q524.329 426.018 525.381 426.188Q526.433 426.357 527.48 426.553Q528.528 426.749 529.57 426.97C553.024 432.024 573.835 447.264 586.623 467.451C598.798 486.67 602.458 511.074 597.361 533.172C594.311 546.391 587.963 558.337 579.491 568.855C571.657 567.567 563.861 574.189 555.025 571.77C570.597 559.648 581.937 542.567 584.295 522.655C586.607 503.14 581.545 482.692 569.245 467.267Q568.141 465.873 566.969 464.535Q565.798 463.198 564.562 461.919Q563.327 460.64 562.03 459.423Q560.734 458.206 559.379 457.055Q558.024 455.903 556.614 454.819Q555.205 453.735 553.744 452.722Q552.282 451.708 550.773 450.768Q549.264 449.827 547.711 448.961Q546.158 448.096 544.564 447.307Q542.97 446.519 541.339 445.81Q539.709 445.101 538.045 444.472Q536.382 443.844 534.69 443.298Q532.997 442.752 531.281 442.289Q529.564 441.827 527.826 441.449Q526.088 441.071 524.334 440.779Q522.58 440.487 520.814 440.281C501.588 438.207 481.53 442.925 466.426 455.24C451.352 467.53 441.26 485.018 439.288 504.459Q439.084 506.292 438.971 508.132Q438.857 509.973 438.835 511.817Q438.812 513.66 438.881 515.503Q438.949 517.346 439.109 519.183Q439.268 521.02 439.518 522.847Q439.767 524.674 440.107 526.486Q440.446 528.299 440.875 530.092Q441.303 531.886 441.82 533.656Q442.336 535.426 442.939 537.169Q443.542 538.911 444.23 540.622Q444.918 542.333 445.69 544.008Q446.462 545.682 447.315 547.317Q448.169 548.952 449.102 550.542Q450.035 552.133 451.045 553.675Q452.055 555.218 453.141 556.709Q454.226 558.199 455.383 559.635C460.343 565.677 466.038 570.39 472.473 574.775C472.067 574.969 471.827 575.115 471.376 575.2C469.429 575.565 467.002 574.873 465.108 574.343C453.384 571.058 446.888 562.956 437.602 555.961C438.308 557.049 438.933 558.125 439.534 559.274L438.905 559.594Z"
     id="path44" />
  <path
     fill="#3B1559"
     d="M472.473 574.775C466.038 570.39 460.343 565.677 455.383 559.635Q454.226 558.199 453.141 556.709Q452.055 555.218 451.045 553.675Q450.035 552.133 449.102 550.542Q448.169 548.952 447.315 547.317Q446.462 545.682 445.69 544.008Q444.918 542.333 444.23 540.622Q443.542 538.911 442.939 537.169Q442.336 535.426 441.82 533.656Q441.303 531.886 440.875 530.092Q440.446 528.299 440.107 526.486Q439.767 524.674 439.518 522.847Q439.268 521.02 439.109 519.183Q438.949 517.346 438.881 515.503Q438.812 513.66 438.835 511.817Q438.857 509.973 438.971 508.132Q439.084 506.292 439.288 504.459C441.26 485.018 451.352 467.53 466.426 455.24C481.53 442.925 501.588 438.207 520.814 440.281Q522.58 440.487 524.334 440.779Q526.088 441.071 527.826 441.449Q529.563 441.827 531.281 442.289Q532.997 442.752 534.69 443.298Q536.382 443.844 538.045 444.472Q539.709 445.101 541.339 445.81Q542.97 446.519 544.564 447.307Q546.158 448.096 547.711 448.961Q549.264 449.827 550.773 450.768Q552.282 451.708 553.744 452.722Q555.205 453.735 556.614 454.819Q558.024 455.903 559.379 457.055Q560.734 458.206 562.03 459.423Q563.327 460.64 564.562 461.919Q565.798 463.198 566.969 464.535Q568.141 465.873 569.245 467.267C581.545 482.692 586.607 503.14 584.295 522.655C581.937 542.567 570.597 559.648 555.025 571.77C551.139 574.049 547.244 576.745 543.189 578.687Q541.724 579.376 540.231 580Q538.738 580.625 537.219 581.184Q535.7 581.743 534.158 582.235Q532.616 582.728 531.054 583.153Q529.493 583.578 527.914 583.935Q526.335 584.291 524.742 584.579Q523.15 584.867 521.546 585.085Q519.942 585.304 518.33 585.452Q516.718 585.601 515.102 585.679Q513.485 585.757 511.867 585.765Q510.248 585.773 508.631 585.711Q507.013 585.648 505.4 585.515Q503.787 585.383 502.181 585.18Q500.575 584.978 498.98 584.705Q497.384 584.433 495.802 584.092Q494.22 583.751 492.654 583.341C485.397 581.45 479.247 577.775 472.473 574.775Z"
     id="path45" />
  <path
     fill="#F2AA39"
     d="M504.866 451.675C519.213 449.252 536.386 454.771 547.986 463.086Q549.163 463.94 550.298 464.849Q551.432 465.759 552.522 466.723Q553.611 467.686 554.652 468.701Q555.694 469.716 556.685 470.78Q557.676 471.844 558.615 472.955Q559.553 474.066 560.437 475.221Q561.32 476.376 562.147 477.572Q562.974 478.769 563.742 480.003Q564.51 481.238 565.218 482.509Q565.925 483.779 566.57 485.083Q567.215 486.386 567.797 487.719Q568.378 489.052 568.894 490.412Q569.411 491.771 569.86 493.154Q570.31 494.537 570.693 495.94Q571.075 497.343 571.39 498.763Q571.704 500.183 571.949 501.616C574.66 518.207 571.11 535.163 561.246 548.87C551.325 562.655 536.66 570.704 520.09 573.404C503.677 575.238 487.782 571.574 474.457 561.626C461.626 552.046 453.244 536.706 450.974 520.945Q450.765 519.464 450.629 517.975Q450.493 516.486 450.431 514.992Q450.368 513.498 450.38 512.003Q450.391 510.508 450.476 509.015Q450.561 507.522 450.719 506.035Q450.878 504.548 451.109 503.071Q451.34 501.594 451.644 500.13Q451.948 498.666 452.324 497.218Q452.699 495.771 453.145 494.344Q453.592 492.917 454.108 491.513Q454.624 490.11 455.209 488.734Q455.793 487.357 456.445 486.012Q457.097 484.666 457.814 483.354Q458.531 482.042 459.312 480.767Q460.093 479.491 460.936 478.256Q461.778 477.021 462.681 475.829C473.224 461.835 487.641 454.076 504.866 451.675Z"
     id="path46" />
</svg>
