<?xml version="1.0" encoding="UTF-8" standalone="no"?>
<svg
   width="1183.8381"
   height="961.00629"
   version="1.1"
   id="svg75"
   sodipodi:docname="inspector.svg"
   inkscape:version="1.3.2 (091e20ef0f, 2023-11-25)"
   xmlns:inkscape="http://www.inkscape.org/namespaces/inkscape"
   xmlns:sodipodi="http://sodipodi.sourceforge.net/DTD/sodipodi-0.dtd"
   xmlns="http://www.w3.org/2000/svg"
   xmlns:svg="http://www.w3.org/2000/svg">
  <defs
     id="defs75" />
  <sodipodi:namedview
     id="namedview75"
     pagecolor="#ffffff"
     bordercolor="#000000"
     borderopacity="0.25"
     inkscape:showpageshadow="2"
     inkscape:pageopacity="0.0"
     inkscape:pagecheckerboard="0"
     inkscape:deskcolor="#d1d1d1"
     inkscape:zoom="0.49395158"
     inkscape:cx="483.85309"
     inkscape:cy="452.4735"
     inkscape:window-width="1440"
     inkscape:window-height="831"
     inkscape:window-x="0"
     inkscape:window-y="0"
     inkscape:window-maximized="1"
     inkscape:current-layer="svg75" />
  <rect
     style="fill:#96b006;stroke-width:7.77404;stroke-linecap:round"
     id="rect1"
     width="661.78564"
     height="661.78564"
     x="-743.54492"
     y="743.54492"
     transform="matrix(0.89442719,-0.4472136,0.89442719,0.4472136,0,0)" />
  <path
     id="path1"
     style="fill:#c18860;fill-opacity:1"
     d="M 586.75455,146.58768 V 393.80643 L 815.18814,250.64432 V 146.58768 Z" />
  <path
     fill="#f9e3a3"
     d="m 734.04219,199.8519 c 6.486,3.452 12.833,7.183 19.223,10.809 2.615,1.483 5.934,2.863 8.235,4.742 -8.994,5.839 -18.008,11.98 -27.444,17.074 z"
     id="path2" />
  <path
     fill="#f9e3a3"
     d="m 652.60419,261.1009 c 8.694,4.548 17.668,9.464 25.941,14.732 -5.594,2.696 -10.934,6.405 -16.183,9.727 q -11.473,7.377 -23.21,14.327 c 0.819,-7.72 3.014,-26.947 5.948,-33.281 2.34,-1.99 5,-3.718 7.504,-5.505 z"
     id="path3" />
  <path
     fill="#f8c25e"
     d="m 652.13819,217.7849 c 9.075,5.161 18.042,10.645 27.229,15.595 0.373,8.37 0.187,16.812 0.197,25.192 0.007,5.378 0.446,11.197 -0.265,16.499 l -0.754,0.762 c -8.273,-5.268 -17.247,-10.184 -25.941,-14.732 -0.103,-9.107 -0.017,-18.221 -0.027,-27.329 -0.005,-5.254 0.287,-10.778 -0.439,-15.987 z"
     id="path5" />
  <path
     fill="#f9e3a3"
     d="m 588.83819,0 q 16.431,11.2029 33.349,21.6557 c 7.282,4.5518 14.935,8.867 21.924,13.8253 1.519,7.0642 0.221,20.0569 0.496,27.8289 l -0.237,0.35 c -4.266,2.034 -8.229,5.112 -12.15,7.749 -6.377,-5.155 -12.243,-11.688 -18.055,-17.493 l -9.215,-8.759 c -2.781,-3.644 -4.262,-7.3355 -5.769,-11.6063 -3.359,1.1982 -6.498,2.7572 -9.689,4.3379 -7.343,3.9078 -13.623,9.7044 -19.953,15.0424 l -18.376,15.685 c -3.026,2.588 -6.059,5.613 -9.373,7.81 -1.857,-0.652 -3.475,-1.39 -5.17,-2.393 -0.076,-2.338 -0.003,-4.7 0,-7.04 0.355,-11.027 -0.741,-22.5079 0.446,-33.448 17.433,-10.8057 34.122,-23.1582 51.772,-33.5449 z"
     id="path22" />
  <path
     fill="#d27620"
     d="m 644.11119,35.481 c 1.519,7.0642 0.221,20.0569 0.496,27.8289 l -0.237,0.35 c -4.266,2.034 -8.229,5.112 -12.15,7.749 -6.377,-5.155 -12.243,-11.688 -18.055,-17.493 q 14.909,-9.3213 29.946,-18.4349 z"
     id="path23" />
  <path
     fill="#f8c25e"
     d="m 536.62019,66.9929 c 0.355,-11.027 -0.741,-22.5079 0.446,-33.448 10.428,6.3591 21.604,13.943 32.473,19.386 l -18.376,15.685 c -3.026,2.588 -6.059,5.613 -9.373,7.81 -1.857,-0.652 -3.475,-1.39 -5.17,-2.393 -0.076,-2.338 -0.003,-4.7 0,-7.04 z"
     id="path24" />
  <path
     fill="#f8c25e"
     d="m 669.72319,47.2409 c 20.233,13.496 41.351,25.763 61.403,39.489 1.334,8.424 0.284,23.362 0.214,32.481 -2.79,1.196 -5.177,2.61 -7.575,4.469 -5.743,6.28 -11.328,12.773 -17.212,18.915 l -0.684,-0.514 c -19.881,-19.68 -40.307,-38.885 -60.441,-58.314 -4.485,-4.023 -8.748,-8.301 -13.208,-12.358 3.921,-2.637 7.884,-5.715 12.15,-7.749 l 0.237,-0.35 c 8.442,-5.23 16.617,-10.953 25.116,-16.069 z"
     id="path31" />
  <path
     fill="#d27620"
     d="m 731.12619,86.7299 c 1.334,8.424 0.284,23.362 0.214,32.481 -2.79,1.196 -5.177,2.61 -7.575,4.469 -5.743,6.28 -11.328,12.773 -17.212,18.915 l -0.684,-0.514 c 1.073,-7.471 -1.429,-36.152 0.206,-39.602 8.469,-5.015 16.72,-10.503 25.051,-15.749 z"
     id="path32" />
  <path
     fill="#f9e3a3"
     d="m 669.72319,47.2409 c 20.233,13.496 41.351,25.763 61.403,39.489 -8.331,5.246 -16.582,10.734 -25.051,15.749 -10.824,-7.236 -22.198,-13.876 -33.183,-20.895 -9.175,-5.862 -18.38,-12.563 -27.975,-17.671 0.281,4.883 2.257,15.636 0.511,19.854 -4.485,-4.023 -8.748,-8.301 -13.208,-12.358 3.921,-2.637 7.884,-5.715 12.15,-7.749 l 0.237,-0.35 c 8.442,-5.23 16.617,-10.953 25.116,-16.069 z"
     id="path33" />
  <path
     fill="#f9e3a3"
     d="m 751.31919,107.0359 q 21.174,13.52 42.602,26.632 c 6.286,3.925 13.207,7.604 19.076,12.083 q -15.417,10.159 -31.119,19.871 c -6.018,3.717 -13.117,7.19 -18.464,11.741 0.262,6.169 1.375,33.134 -0.486,37.011 l -1.428,1.029 c -2.301,-1.879 -5.62,-3.259 -8.235,-4.742 -6.39,-3.626 -12.737,-7.357 -19.223,-10.809 l -0.177,-0.69 c 0.595,-7.031 0.354,-14.384 0.054,-21.435 -0.136,-3.193 -0.805,-6.286 -0.552,-9.486 -8.551,-8.939 -17.738,-17.249 -26.814,-25.646 5.884,-6.142 11.469,-12.635 17.212,-18.915 2.398,-1.859 4.785,-3.273 7.575,-4.469 6.952,-3.111 13.604,-8.016 19.979,-12.175 z"
     id="path39" />
  <path
     fill="#f8c25e"
     d="m 723.76519,123.6799 q 11.991,7.098 24.061,14.058 c 4.463,2.581 9.231,5.002 13.494,7.888 -8.675,5.365 -17.356,10.804 -26.443,15.45 9.627,5.244 18.939,11.02 28.537,16.287 0.262,6.169 1.375,33.134 -0.486,37.011 l -1.428,1.029 c -2.301,-1.879 -5.62,-3.259 -8.235,-4.742 -6.39,-3.626 -12.737,-7.357 -19.223,-10.809 l -0.177,-0.69 c 0.595,-7.031 0.354,-14.384 0.054,-21.435 -0.136,-3.193 -0.805,-6.286 -0.552,-9.486 -8.551,-8.939 -17.738,-17.249 -26.814,-25.646 5.884,-6.142 11.469,-12.635 17.212,-18.915 z"
     id="path40" />
  <path
     fill="#cc5627"
     d="m 763.48519,282.4009 q -0.071,17.162 0.094,34.322 c -35.027,22.78 -70.825,44.392 -105.983,66.964 q -24.044,15.605 -48.259,30.945 c -6.391,4.075 -12.664,8.928 -19.286,12.55 0.166,-10.17 -1.138,-26.708 0.322,-35.956 l 0.216,-0.418 c 6.42,-2.249 23.596,-14.812 30.625,-19.092 47.823,-29.116 94.344,-60.357 142.271,-89.315 z"
     id="path41" />
  <path
     fill="#873129"
     d="m 589.49219,37.8885 c 3.191,-1.5807 6.33,-3.1397 9.689,-4.3379 1.507,4.2708 2.988,7.9623 5.769,11.6063 l 9.215,8.759 c 5.812,5.805 11.678,12.338 18.055,17.493 4.46,4.057 8.723,8.335 13.208,12.358 20.134,19.429 40.56,38.634 60.441,58.314 l 0.684,0.514 c 9.076,8.397 18.263,16.707 26.814,25.646 -0.253,3.2 0.416,6.293 0.552,9.486 0.3,7.051 0.541,14.404 -0.054,21.435 l -0.266,0.069 c -4.395,4.164 -11.45,7.437 -16.655,10.629 -12.584,7.716 -25.339,15.259 -37.577,23.52 -9.187,-4.95 -18.154,-10.434 -27.229,-15.595 0.726,5.209 0.434,10.733 0.439,15.987 0.01,9.108 -0.076,18.222 0.027,27.329 -2.504,1.787 -5.164,3.515 -7.504,5.505 -0.347,-3.274 2.174,-8.285 1.004,-11.134 -8.613,-5.55 -17.529,-10.894 -25.779,-16.969 q -10.151,6.612 -20.156,13.443 c -3.224,2.185 -6.707,5.137 -10.206,6.751 -0.473,-7.256 -0.183,-14.792 -0.138,-22.069 l 0.208,-37.923 c 0.037,-49.199 0.754,-98.535 -0.149,-147.718 -0.449,-4.2955 -0.301,-8.7749 -0.392,-13.0984 z"
     id="path48" />
  <path
     fill="#f9e3a3"
     d="m 707.32819,182.6329 c 8.686,5.616 17.336,11.385 26.271,16.598 -4.395,4.164 -11.45,7.437 -16.655,10.629 -12.584,7.716 -25.339,15.259 -37.577,23.52 -9.187,-4.95 -18.154,-10.434 -27.229,-15.595 2.759,-3.662 46.873,-29.977 55.19,-35.152 z"
     id="path49" />
  <path
     fill="#d27620"
     d="m 590.05119,427.1819 c 6.622,-3.622 12.895,-8.475 19.286,-12.55 q 24.215,-15.339 48.259,-30.945 c 35.158,-22.572 70.956,-44.184 105.983,-66.964 l -0.127,122.867 0.068,26.673 c 0.008,5.106 -0.472,10.912 0.447,15.914 q -58.107,35.905 -115.608,72.774 l -40.126,25.347 c -6.172,3.947 -12.169,8.525 -18.538,12.122 0.553,-40.175 -0.019,-80.454 -0.038,-120.641 l -0.096,-26.771 c -0.032,-5.663 -0.644,-12.28 0.49,-17.826 z"
     id="path50" />
  <path
     fill="#cc5627"
     d="m 676.56819,388.2149 c 7.148,-1.577 14,-2.298 20.488,1.974 5.308,3.495 8.334,9.583 9.439,15.698 1.266,7.003 0.574,14.95 0.564,22.07 l 0.082,36.478 c -0.329,6.164 -0.137,12.416 0.083,18.585 -5.444,-3.487 -11.074,-6.828 -16.169,-10.817 0.638,-1.839 0.416,-53.431 0.041,-59.045 -0.248,-3.712 -0.934,-6.944 -2.075,-10.481 -2.56,-6.144 -7.116,-10.644 -12.453,-14.462 z"
     id="path51" />
  <path
     fill="#873129"
     d="m 676.56819,388.2149 c 5.337,3.818 9.893,8.318 12.453,14.462 1.141,3.537 1.827,6.769 2.075,10.481 0.375,5.614 0.597,57.206 -0.041,59.045 -4.134,3.592 -9.044,6.606 -13.578,9.671 -12.024,8.128 -24.455,15.614 -36.498,23.708 l 0.114,-71.489 -0.211,-3.515 c 0.66,-4.644 1.681,-8.924 3.519,-13.255 6.091,-14.35 18.046,-23.309 32.167,-29.108 z"
     id="path52" />
  <path
     fill="#f89624"
     d="m 420.71219,283.3989 119.224,75.763 35.658,22.785 c 4.675,2.983 9.754,7.12 14.779,9.279 -1.46,9.248 -0.156,25.786 -0.322,35.956 -1.134,5.546 -0.522,12.163 -0.49,17.826 l 0.096,26.771 c 0.019,40.187 0.591,80.466 0.038,120.641 l -72.353,-46.248 c -7.318,-4.776 -14.376,-9.941 -21.755,-14.625 l -43.166,-27.712 c -11.332,-7.132 -23.125,-13.759 -33.768,-21.908 l -0.307,-5.338 2.178,-158.465 z"
     id="path53" />
  <path
     fill="#d27620"
     d="m 491.63019,473.5529 q 3.656,2.226 7.273,4.515 c 12.129,8.32 24.97,15.506 37.137,23.719 0.032,5.42 1.193,21.439 -0.665,25.81 -0.401,0.943 -0.617,0.774 -1.51,1.106 -3.578,-0.682 -59.601,-36.536 -65.098,-40.811 7.785,-3.49 15.646,-9.641 22.863,-14.339 z"
     id="path54" />
  <path
     fill="#873129"
     d="m 468.76719,487.8919 q -0.087,-23.24 0.138,-46.479 c 0.037,-8.359 -0.444,-17.075 0.325,-25.39 q 0.25,-2.983 0.866,-5.913 0.617,-2.929 1.591,-5.76 c 1.993,-5.642 5.45,-11.512 11.145,-13.998 6.109,-2.667 13.031,-0.822 18.934,1.477 15.261,7.35 24.107,21.336 29.632,36.986 1.973,5.587 3.546,11.484 4.258,17.375 0.855,7.081 0.47,14.457 0.46,21.586 l -0.076,34.011 c -12.167,-8.213 -25.008,-15.399 -37.137,-23.719 q -3.617,-2.289 -7.273,-4.515 c -7.217,4.698 -15.078,10.849 -22.863,14.339 z"
     id="path55" />
  <path
     fill="#d27620"
     d="m 420.71219,283.3989 119.224,75.763 35.658,22.785 c 4.675,2.983 9.754,7.12 14.779,9.279 -1.46,9.248 -0.156,25.786 -0.322,35.956 -3.673,-2.987 -8.368,-5.402 -12.413,-7.922 l -25.783,-16.073 q -40.843,-25.774 -81.354,-52.065 c -11.782,-7.527 -23.667,-14.859 -35.272,-22.66 -4.95,-3.328 -10.103,-6.535 -14.705,-10.338 z"
     id="path56" />
  <path
     fill="#f9e3a3"
     d="m 569.53919,52.9309 c 6.33,-5.338 12.61,-11.1346 19.953,-15.0424 0.091,4.3235 -0.057,8.8029 0.392,13.0984 0.903,49.183 0.186,98.519 0.149,147.718 l -0.208,37.923 c -0.045,7.277 -0.335,14.813 0.138,22.069 3.499,-1.614 6.982,-4.566 10.206,-6.751 q 10.005,-6.831 20.156,-13.443 c 8.25,6.075 17.166,11.419 25.779,16.969 -5.16,3.981 -11.044,7.243 -16.588,10.673 q -13.127,8.09 -26.135,16.369 c -4.364,2.772 -9.073,5.465 -13.069,8.739 0.95,23.257 0.016,47.878 -0.027,71.305 -0.016,9.246 -0.609,19.076 0.304,28.25 l -0.216,0.418 c -5.025,-2.159 -10.104,-6.296 -14.779,-9.279 l -35.658,-22.785 -119.224,-75.763 c -6.232,-4.364 -12.925,-8.21 -19.349,-12.294 q -17.067,-11.043 -34.314,-21.802 c -0.014,-35.064 0.637,-70.175 0.01,-105.231 5.407,-4.528 12.504,-8.174 18.494,-11.955 q 20.363,-12.67 40.537,-25.637 c 7.659,5.487 15.745,10.352 23.846,15.149 0.612,-11.818 -0.057,-23.892 0.071,-35.748 19.138,-12.623 38.666,-24.656 57.907,-37.125 9.384,5.799 19.332,11.349 28.08,18.054 l 0.626,0.183 c -0.003,2.34 -0.076,4.702 0,7.04 1.695,1.003 3.313,1.741 5.17,2.393 3.314,-2.197 6.347,-5.222 9.373,-7.81 z"
     id="path57" />
  <path
     fill="#d27620"
     d="m 450.45619,123.0989 c 0.308,9.995 -0.129,20.019 0.305,30.003 -2.74,2.795 -6.007,5.101 -9.249,7.282 -3.13,-1.202 -6.536,-4.066 -9.367,-5.976 -5.222,-3.524 -10.376,-7.048 -15.993,-9.93 q 17.23,-10.565 34.304,-21.379 z"
     id="path58" />
  <path
     fill="#f89624"
     d="m 533.06919,222.8519 c -0.024,8.923 -0.922,21.128 0.149,29.653 l -0.472,0.747 c -0.182,2.523 0.351,6.013 -0.197,8.376 -7.71,4.855 -15.435,9.544 -23.49,13.811 -1.266,-2.706 -1.683,-31.642 -1.898,-36.969 8.773,-4.862 17.186,-10.605 25.908,-15.618 z"
     id="path59" />
  <path
     fill="#f89624"
     d="m 447.12519,163.7649 c 1.492,3.736 0.221,28.518 0.699,35.09 2.026,1.863 4.007,3.812 6.228,5.442 -0.026,1.799 0.065,3.692 -0.304,5.453 -2.282,-2.282 -2.764,-4.355 -3.417,-7.451 -8.598,5.174 -17.573,9.682 -26.214,14.771 0.264,-9.819 -1.46,-27.118 -3.003,-36.936 8.171,-6.051 17.342,-11.053 26.011,-16.369 z"
     id="path60" />
  <path
     fill="#d27620"
     d="m 535.99419,66.8099 0.626,0.183 c -0.003,2.34 -0.076,4.702 0,7.04 1.695,1.003 3.313,1.741 5.17,2.393 l -5.101,4.286 c -7.058,7.551 -15.802,14.067 -23.751,20.718 -10.989,9.196 -21.872,18.656 -33.146,27.492 -0.365,-8.691 0.812,-17.543 0.054,-26.207 17.688,-12.755 36.912,-25.637 56.148,-35.905 z"
     id="path61" />
  <path
     fill="#f9e3a3"
     d="m 536.62019,74.0329 c 1.695,1.003 3.313,1.741 5.17,2.393 l -5.101,4.286 z"
     id="path62" />
  <path
     fill="#cc5627"
     d="m 569.53919,52.9309 c 6.33,-5.338 12.61,-11.1346 19.953,-15.0424 0.091,4.3235 -0.057,8.8029 0.392,13.0984 0.903,49.183 0.186,98.519 0.149,147.718 l -0.208,37.923 c -0.045,7.277 -0.335,14.813 0.138,22.069 -10.934,-6.866 -21.606,-14.192 -32.346,-21.359 -8.005,5.16 -15.979,10.705 -24.399,15.167 -1.071,-8.525 -0.173,-20.73 -0.149,-29.653 -6.954,-5.167 -14.642,-9.527 -21.999,-14.099 q -16.098,-10.06 -32.012,-20.41 -11.942,7.924 -24.051,15.591 l -0.955,0.363 c -2.221,-1.63 -4.202,-3.579 -6.228,-5.442 -0.478,-6.572 0.793,-31.354 -0.699,-35.09 -1.9,-1.064 -3.748,-2.254 -5.613,-3.381 3.242,-2.181 6.509,-4.487 9.249,-7.282 q 14.655,-11.922 29.031,-24.18 c 11.274,-8.836 22.157,-18.296 33.146,-27.492 7.949,-6.651 16.693,-13.167 23.751,-20.718 l 5.101,-4.286 c 3.314,-2.197 6.347,-5.222 9.373,-7.81 z"
     id="path63" />
  <path
     fill="#d27620"
     d="m 400.39219,521.0429 c 4.226,-11.121 7.485,-22.679 12.188,-33.616 1.557,-3.62 3.801,-6.745 5.478,-10.223 0.099,-0.204 0.192,-0.41 0.288,-0.615 l 0.307,5.338 c 10.643,8.149 22.436,14.776 33.768,21.908 l 43.166,27.712 c 7.379,4.684 14.437,9.849 21.755,14.625 l 72.353,46.248 c -0.515,15.313 -0.185,30.782 -0.092,46.109 l -0.11,0.68 c -0.005,13.489 0.701,27.386 -0.129,40.824 1.127,31.285 -0.889,62.719 0.095,94.001 l -0.255,1.154 c -9.433,-4.15 -23.545,-14.513 -32.831,-20.276 -16.609,-10.308 -35.202,-20.365 -50.952,-31.703 -3.916,2.089 -7.536,5.163 -10.953,7.99 l -0.921,0.235 c -4.892,-0.944 -44.072,-26.533 -50.804,-30.847 -0.486,-6.883 1.179,-16.618 -0.345,-22.923 q -27.305,-17.538 -55.35,-33.868 0.013,-6.153 0.222,-12.302 c 1.146,-9.081 0.058,-24.854 -0.131,-34.776 l -0.103,-45.154 c 0.739,-7.305 7.358,-17.726 10.494,-24.638 1.18,-1.921 2.063,-3.775 2.862,-5.883 z"
     id="path68" />
  <path
     fill="#f89624"
     d="m 448.72519,636.4329 q 13.255,9.11 26.705,17.93 c 6.506,4.22 15.234,8.392 20.582,14.004 l -1.764,2.341 c -0.374,-10e-4 -0.761,0.093 -1.123,-0.003 -1.053,-0.278 -45.039,-28.226 -49.716,-31.496 1.844,-0.724 3.585,-1.816 5.316,-2.776 z"
     id="path69" />
  <path
     fill="#873129"
     d="m 496.01219,668.3669 c 3.191,-1.243 6.583,-4.556 9.157,-6.874 -0.464,20.562 0.547,41.149 0.252,61.716 -3.916,2.089 -7.536,5.163 -10.953,7.99 0.376,-3.968 0.131,-8.127 0.127,-12.119 l 0.048,-31.951 c 0.005,-5.216 0.626,-11.329 -0.395,-16.421 z"
     id="path70" />
  <path
     fill="#f89624"
     d="m 400.39219,521.0429 c 9.738,5.057 19.095,11.261 28.399,17.091 l 45.951,29.233 c 22.546,14.507 45.593,28.313 68.222,42.708 l 27.975,17.992 c 5.905,3.781 12.207,8.152 18.554,11.142 -0.005,13.489 0.701,27.386 -0.129,40.824 -6.576,-2.432 -13.448,-7.635 -19.354,-11.418 l -21.458,-13.529 -114.925,-73.647 c -10.21,-6.614 -20.663,-12.929 -30.938,-19.454 -5.267,-3.345 -10.791,-6.501 -15.653,-10.421 0.739,-7.305 7.358,-17.726 10.494,-24.638 1.18,-1.921 2.063,-3.775 2.862,-5.883 z"
     id="path71" />
  <path
     fill="#d27620"
     d="m 400.39219,521.0429 c 4.226,-11.121 7.485,-22.679 12.188,-33.616 1.557,-3.62 3.801,-6.745 5.478,-10.223 0.099,-0.204 0.192,-0.41 0.288,-0.615 l 0.307,5.338 c 10.643,8.149 22.436,14.776 33.768,21.908 l 43.166,27.712 c 7.379,4.684 14.437,9.849 21.755,14.625 l 72.353,46.248 c -0.515,15.313 -0.185,30.782 -0.092,46.109 l -0.11,0.68 c -6.347,-2.99 -12.649,-7.361 -18.554,-11.142 l -27.975,-17.992 c -22.629,-14.395 -45.676,-28.201 -68.222,-42.708 l -45.951,-29.233 c -9.304,-5.83 -18.661,-12.034 -28.399,-17.091 z"
     id="path72" />
  <path
     fill="#cc5627"
     d="m 763.96719,482.1769 q 4.913,12.024 9.964,23.99 c 1.719,4.076 3.326,8.597 5.524,12.417 1.89,4.592 4.227,9.368 5.738,14.079 2.665,6.763 5.351,13.984 8.769,20.381 0.518,31.917 -0.012,63.871 0.618,95.773 -6.508,5.647 -18.658,11.799 -26.409,16.524 -9.907,6.039 -19.622,12.841 -29.788,18.394 l 0.183,5.792 c -17.634,9.737 -34.555,21.216 -51.685,31.856 -7.75,4.814 -19.758,11.063 -26.469,16.417 -2.877,-0.27 -5.671,-2.426 -8.098,-3.894 -6.074,5.234 -14.215,9.354 -21.041,13.66 l -41.814,26.468 c -0.984,-31.282 1.032,-62.716 -0.095,-94.001 0.83,-13.438 0.124,-27.335 0.129,-40.824 l 0.11,-0.68 c -0.093,-15.327 -0.423,-30.796 0.092,-46.109 6.369,-3.597 12.366,-8.175 18.538,-12.122 l 40.126,-25.347 q 57.501,-36.869 115.608,-72.774 z"
     id="path73" />
  <path
     fill="#f9e3a3"
     d="m 663.90219,633.7509 c 2.767,-2.237 5.149,-7.268 7.516,-10.164 6.545,-8.007 16.161,-14.478 25.157,-19.388 6.949,-3.793 14.955,-7.164 22.899,-4.852 4.392,2.777 8.286,5.803 11.975,9.466 -13.834,-2.786 -23.858,1.361 -35.395,8.987 q -1.643,1.107 -3.23,2.291 -1.588,1.185 -3.117,2.444 -1.529,1.259 -2.996,2.591 -1.466,1.331 -2.867,2.731 -1.401,1.4 -2.733,2.866 -1.333,1.466 -2.593,2.995 -1.26,1.528 -2.445,3.115 -1.186,1.587 -2.293,3.229 -1.108,1.642 -2.136,3.335 -1.027,1.694 -1.972,3.434 -0.946,1.741 -1.806,3.525 -0.86,1.785 -1.634,3.608 -0.774,1.823 -1.459,3.682 -0.685,1.858 -1.28,3.748 -0.595,1.889 -1.099,3.805 -0.504,1.915 -0.915,3.853 c -1.598,7.814 -1.255,15.952 -1.232,23.886 0.042,14.865 0.805,30.024 0.165,44.862 -2.877,-0.27 -5.671,-2.426 -8.098,-3.894 -0.605,-11.692 -0.199,-23.636 -0.236,-35.355 -0.038,-12.367 -1.391,-26.955 1.133,-38.953 1.968,-9.353 6.161,-17.538 10.691,-25.847 z"
     id="path74" />
  <path
     fill="#c18860"
     d="m 660.41219,737.7999 c 0.64,-14.838 -0.123,-29.997 -0.165,-44.862 -0.023,-7.934 -0.366,-16.072 1.232,-23.886 q 0.411,-1.938 0.915,-3.853 0.504,-1.916 1.099,-3.805 0.595,-1.89 1.28,-3.748 0.685,-1.859 1.459,-3.682 0.774,-1.823 1.634,-3.608 0.86,-1.784 1.805,-3.525 0.946,-1.74 1.973,-3.434 1.028,-1.693 2.136,-3.335 1.107,-1.642 2.293,-3.229 1.185,-1.587 2.445,-3.115 1.26,-1.529 2.593,-2.995 1.332,-1.466 2.733,-2.866 1.401,-1.4 2.867,-2.731 1.467,-1.332 2.996,-2.591 1.529,-1.259 3.117,-2.444 1.587,-1.184 3.23,-2.291 c 11.537,-7.626 21.561,-11.773 35.395,-8.987 5.334,5.153 6.911,12.282 7.052,19.423 0.261,13.227 -0.217,26.513 -0.241,39.746 -0.009,5.202 -0.27,10.571 0.123,15.753 l 0.183,5.792 c -17.634,9.737 -34.555,21.216 -51.685,31.856 -7.75,4.814 -19.758,11.063 -26.469,16.417 z"
     id="path75" />
</svg>
