<?xml version="1.0" encoding="UTF-8" standalone="no"?>
<svg
   width="656.37531"
   height="654.67688"
   version="1.1"
   id="svg59"
   sodipodi:docname="kingdoms.svg"
   inkscape:version="1.3.2 (091e20ef0f, 2023-11-25)"
   xmlns:inkscape="http://www.inkscape.org/namespaces/inkscape"
   xmlns:sodipodi="http://sodipodi.sourceforge.net/DTD/sodipodi-0.dtd"
   xmlns="http://www.w3.org/2000/svg"
   xmlns:svg="http://www.w3.org/2000/svg">
  <sodipodi:namedview
     id="namedview59"
     pagecolor="#ffffff"
     bordercolor="#000000"
     borderopacity="0.25"
     inkscape:showpageshadow="2"
     inkscape:pageopacity="0.0"
     inkscape:pagecheckerboard="0"
     inkscape:deskcolor="#d1d1d1"
     inkscape:zoom="0.99713105"
     inkscape:cx="326.93797"
     inkscape:cy="317.41064"
     inkscape:window-width="1920"
     inkscape:window-height="1011"
     inkscape:window-x="0"
     inkscape:window-y="0"
     inkscape:window-maximized="1"
     inkscape:current-layer="svg59" />
  <ellipse
     style="fill:#770f41;stroke-width:7.60548;stroke-linecap:round"
     id="path60"
     cx="328.18765"
     cy="327.33844"
     rx="328.18765"
     ry="327.33844" />
  <path
     fill="#187f6c"
     d="m 102.0806,463.96565 c 2.202,-0.115 5.226,-0.666 7.253,0.243 l 0.204,0.838 -1.416,1.902 -0.998,0.99 -1.05,-0.02 c -1.552,-1.135 -2.726,-2.517 -3.993,-3.953 z"
     id="path3" />
  <path
     fill="#0eac8e"
     d="m 536.7666,419.18965 -2.784,-3.351 c 3.082,0.352 6.172,0.505 9.268,0.677 l 0.161,0.923 c -0.832,1.105 -1.039,1.415 -2.473,1.721 -1.181,0.251 -2.931,0.007 -4.172,0.03 z"
     id="path4" />
  <path
     fill="#a10c54"
     d="m 560.2186,448.11365 5.999,-0.242 -3.719,6.822 -0.542,0.078 c -0.572,-1.802 -0.988,-3.536 -2.499,-4.796 -0.661,-0.552 -0.873,-0.574 -1.264,-1.371 z"
     id="path5" />
  <path
     fill="#7e1274"
     d="m 548.9706,469.57065 c -1.138,-1.459 -2.947,-3.321 -3.177,-5.214 -0.107,-0.886 0.293,-1.119 0.764,-1.807 1.663,-0.935 3.369,-1.07 5.236,-1.332 -0.664,2.859 -1.698,5.644 -2.823,8.353 z"
     id="path6" />
  <path
     fill="#f7fbf6"
     d="m 437.6176,431.43665 c -1.038,1.452 -1.989,2.968 -2.951,4.471 -0.93,1.453 -1.418,2.216 -2.967,3.042 -1.533,-0.352 -1.887,-1.238 -2.868,-2.431 l -2.711,-3.061 c 3.928,-0.482 7.688,-0.896 11.497,-2.021 z"
     id="path7" />
  <path
     fill="#d1306b"
     d="m 387.4446,491.43965 c 8.726,0.124 17.801,-0.256 26.471,0.618 0.057,1.324 -0.618,2.395 -1.146,3.589 -2.075,1.175 -19.018,0.862 -22.695,0.917 z"
     id="path8" />
  <path
     fill="#f86c72"
     d="m 396.0646,387.80165 c 2.365,5.435 -3.72,32.138 -4.429,39.235 l -24.097,0.037 c 9.246,-13.211 18.913,-26.321 28.526,-39.272 z"
     id="path9" />
  <path
     fill="#ee4873"
     d="m 396.0646,387.80165 0.462,-0.744 c 2.419,0.75 25.601,34.974 29.269,39.916 l -34.16,0.063 c 0.709,-7.097 6.794,-33.8 4.429,-39.235 z"
     id="path10" />
  <path
     fill="#d1306b"
     d="m 375.5576,433.68865 42.256,-0.229 c 3.402,3.967 6.468,8.215 9.598,12.398 -1.674,2.602 -3.217,5.548 -5.129,7.962 -0.894,1.128 -1.039,1.02 -2.421,1.181 q -21.347,0.137 -42.693,-0.171 c -3.544,-4.02 -6.605,-8.481 -9.764,-12.807 2.767,-2.733 5.066,-5.935 8.153,-8.334 z"
     id="path11" />
  <defs
     id="defs12">
    <linearGradient
       id="gradient_0"
       gradientUnits="userSpaceOnUse"
       x1="609.00336"
       y1="568.81421"
       x2="607.27356"
       y2="622.99792"
       gradientTransform="translate(-185.7634,-194.55035)">
      <stop
         offset="0"
         stop-color="#DA81A7"
         id="stop11" />
      <stop
         offset="1"
         stop-color="#E5B1C1"
         id="stop12" />
    </linearGradient>
  </defs>
  <path
     fill="url(#gradient_0)"
     d="m 398.3606,372.75965 25.497,9.192 c 8.565,3.143 17.816,7.251 26.876,8.596 -5.094,7.378 -11.76,15.359 -15.407,23.491 0.275,1.063 0.584,1.206 1.576,1.743 2.855,1.546 9.357,0.697 12.621,0.636 -3.894,4.961 -7.651,10.386 -11.906,15.019 -4.013,-7.412 -9.793,-14.389 -14.764,-21.206 q -13.369,-18.103 -26.48,-36.394 l -0.241,-0.508 z"
     id="path12"
     style="fill:url(#gradient_0)" />
  <path
     fill="#d1306b"
     d="m 365.5126,461.94165 q 28.506,0.361 57.013,0.203 c 2.675,3.456 5.242,7.008 7.859,10.509 -1.664,2.403 -3.523,4.674 -5.327,6.973 -1.255,1.858 -3.009,3.602 -4.466,5.323 l -37.269,-0.007 c -5.686,-7.668 -11.211,-16.12 -17.81,-23.001 z"
     id="path13" />
  <path
     fill="#f7fbf6"
     d="m 309.9506,317.81265 c 3.497,0.833 28.338,18.863 34.034,22.325 -8.683,5.831 -17.669,11.287 -26.53,16.849 -4.064,-6.241 -8.585,-12.218 -12.952,-18.251 -3.208,3.81 -5.975,8.111 -8.862,12.173 -4.346,6.102 -8.894,12.149 -12.762,18.566 -6.653,-5.462 -14.416,-9.634 -21.407,-14.69 16.389,-11.996 31.924,-25.179 48.479,-36.972 z"
     id="path14" />
  <path
     fill="#f86c72"
     d="m 304.6596,351.29065 c 2.837,2.294 12.176,17.601 15.162,21.824 7.917,11.195 16.125,22.204 24.159,33.318 q -19.242,-0.603 -38.494,-0.475 c -13.315,-0.003 -26.685,-0.139 -39.991,0.295 12.497,-18.683 26.668,-36.261 39.164,-54.962 z"
     id="path15" />
  <path
     fill="#f7fbf6"
     d="m 380.9896,330.41465 c 25.363,16.872 50.207,34.666 75.049,52.299 -1.733,2.601 -3.388,5.371 -5.305,7.834 -9.06,-1.345 -18.311,-5.453 -26.876,-8.596 l -25.497,-9.192 c -6.862,-1.948 -13.984,-6.435 -20.397,-9.644 -10.402,-5.203 -21.042,-10.179 -31.224,-15.79 z"
     id="path16" />
  <path
     fill="#eea340"
     d="m 156.9486,345.84765 c 0.625,-0.93 0.865,-1.789 1.988,-2.058 4.538,6.175 8.155,13.46 12.019,20.088 9.481,16.261 18.602,32.973 28.916,48.722 -2.664,0.064 -9.033,-0.529 -10.983,1.28 -0.105,0.098 -0.18,0.224 -0.27,0.336 1.457,6.499 21.505,35.585 25.972,43.762 -6.169,-10e-4 -12.354,-0.094 -18.521,0.008 5.347,11.681 14.649,21.973 21.135,33.13 -7.22,-0.545 -14.525,-1.182 -21.692,-2.209 -0.869,-4.249 -6.301,-13.965 -8.289,-18.456 -2.833,-6.399 -5.157,-12.941 -7.31,-19.596 -11.074,-34.243 -17.264,-68.535 -21.865,-104.114 l 1.278,-0.145 0.22,-0.425 -0.757,-0.867 c -0.637,0.152 -1.223,0.334 -1.841,0.544 z"
     id="path17" />
  <path
     fill="#e098b3"
     d="m 320.3856,360.53665 c 8.479,-4.682 17.312,-9.739 26.354,-13.211 10.182,5.611 20.822,10.587 31.224,15.79 6.413,3.209 13.535,7.696 20.397,9.644 l -2.228,0.569 0.241,0.508 c -2.816,5.765 -7.288,11.242 -11.001,16.481 -9.266,13.076 -19.212,25.762 -27.971,39.179 q -5.606,-8.147 -11.573,-16.032 c 1.988,0.025 4.215,0.187 6.16,-0.25 1.555,-0.349 2.428,-1.119 3.222,-2.493 -0.039,-3.823 -30.095,-42.999 -34.825,-50.185 z"
     id="path18" />
  <path
     fill="#d1306b"
     d="m 272.7546,413.49465 64.007,-0.038 c 10.271,12.143 18.858,25.803 28.428,38.508 q -13.286,-0.393 -26.578,-0.426 c -30.815,-0.025 -61.666,0.263 -92.475,-0.197 6.687,-12.052 17.906,-27.021 26.618,-37.847 z"
     id="path19" />
  <path
     fill="#eea340"
     d="m 446.6536,410.40265 c 4.423,-6.766 44.247,-65.851 45.835,-66.746 l 0.689,0.661 c -1.424,9.097 -3.356,18.122 -4.957,27.19 -4.369,24.744 -8.833,49.497 -12.87,74.294 -2.437,14.968 -5.136,30.142 -6.232,45.272 -15.158,1.656 -30.385,3.461 -45.597,4.504 7.3,-8.739 13.78,-18.041 20.535,-27.193 2.454,-3.324 6.399,-7.394 7.981,-11.145 0.313,-0.741 0.08,-0.84 -0.202,-1.522 -4.792,-1.88 -15.773,-0.714 -21.285,-0.626 7.689,-11.431 16.478,-22.345 24.609,-33.487 2.286,-3.132 5.781,-6.712 7.23,-10.235 l -0.34,-0.76 c -4.987,-0.715 -10.358,-0.266 -15.396,-0.207 z"
     id="path20" />
  <path
     fill="#d1306b"
     d="m 258.2896,458.81965 c 32.343,0.256 64.696,-0.154 97.038,0.298 9.214,12.465 17.495,26 27.459,37.857 l -23.513,0.264 q -62.714,0.289 -125.319,-3.425 11.765,-17.777 24.335,-34.994 z"
     id="path21" />
  <path
     fill="#187f6c"
     d="m 76.961603,331.05565 q 26.730997,22.441 53.964997,44.269 c -1.267,2.306 -2.451,4.746 -3.901,6.939 q -5.158,8.517 -10.102,17.16 c -2.917,4.528 -9.214,12.54 -10.233,17.64 -0.243,1.218 -0.143,1.672 0.556,2.666 3.322,0.905 7.742,0.253 11.211,0.13 -6.593,12.929 -15.226,24.699 -22.181997,37.414 -17.652,-27.993 -33.215,-63.816 -37.817,-96.759 3.492,-3.769 6.152,-9.761 8.848,-14.248 3.09,-5.145 6.389,-10.175 9.655,-15.211 z"
     id="path22" />
  <path
     fill="#0eac8e"
     d="m 116.9236,399.42365 c -5.771,-6.697 -9.984,-9.651 -18.620997,-11.985 -2.404,-0.649 -4.785,-1.145 -6.964,-2.386 l -0.214,-0.809 0.791,-1.169 c 8.07,-4.484 26.245997,-2.923 35.109997,-0.811 q -5.158,8.517 -10.102,17.16 z"
     id="path23" />
  <path
     fill="#e098b3"
     d="m 233.0646,348.58865 q 15.171,7.276 30.136,14.966 c 5.952,2.524 12.3,4.843 17.908,8.05 -5.47,7.679 -25.897,33.791 -28.104,39.846 1.103,1.382 2.464,1.8 4.202,1.999 2.067,0.237 4.222,0.142 6.302,0.125 -4.395,5.982 -29.299,37.711 -28.097,42.746 0.13,0.546 0.188,0.59 0.693,0.853 3.289,1.713 10.064,0.815 13.787,0.768 -8.073,10.873 -15.594,22.096 -23.102,33.361 -6.099,-8.616 -11.844,-17.302 -17.199,-26.399 4.041,0.098 12.764,1.27 15.794,-1.323 0.636,-2.501 -1.195,-5.656 -2.445,-7.768 -7.165,-12.112 -16.079,-23.343 -22.34,-35.992 2.708,0.105 5.774,0.557 8.376,-0.278 0.912,-1.009 1.098,-1.257 1.123,-2.704 0.084,-4.907 -10.594,-18.089 -13.239,-23.506 -1.86,-2.866 -3.469,-5.96 -5.163,-8.93 13.909,-11.81 27.295,-24.173 41.368,-35.814 z"
     id="path24" />
  <path
     fill="#f7fbf6"
     d="m 233.0646,348.58865 q 15.171,7.276 30.136,14.966 c 0.245,1.682 0.569,2.113 1.946,3.136 3.692,2.745 8.24,4.113 11.564,7.341 -6.298,-1.683 -12.433,-4.479 -18.488,-6.909 -8.392,-3.368 -16.877,-6.63 -25.091,-10.412 -12.053,12.225 -23.69,24.941 -36.272,36.622 -1.86,-2.866 -3.469,-5.96 -5.163,-8.93 13.909,-11.81 27.295,-24.173 41.368,-35.814 z"
     id="path25" />
  <path
     fill="#d98931"
     d="m 156.9486,345.84765 c 0.618,-0.21 1.204,-0.392 1.841,-0.544 l 0.757,0.867 -0.22,0.425 -1.278,0.145 c 4.601,35.579 10.791,69.871 21.865,104.114 2.153,6.655 4.477,13.197 7.31,19.596 1.988,4.491 7.42,14.207 8.289,18.456 -12.255,-0.528 -25.739,-3.014 -38.064,-4.531 -16.263,-2.002 -33.381,-3.192 -49.378,-6.717 4.381,-6.526 9.153,-12.937 12.861,-19.872 -5.684,-0.362 -11.5,-0.198 -17.204,-0.267 4.116,-7.339 26.093,-38.867 25.977,-43.612 -2.394,-1.928 -9.881,-1.018 -13.001,-0.978 6.295,-9.295 11.844,-19.155 17.547,-28.819 4.297,-7.283 8.841,-14.431 13.11,-21.722 3.217,-5.497 6.068,-11.228 9.588,-16.541 z"
     id="path26" />
  <path
     fill="#d98931"
     d="m 493.1776,344.31765 c 15.115,22.287 30.638,44.2 46.076,66.258 -5.229,-0.141 -12.742,-1.287 -17.567,0.832 -0.391,0.462 -0.764,0.613 -0.649,1.272 0.352,2.03 28.431,38.629 31.75,42.875 -8.172,-0.049 -16.415,-0.327 -24.579,-0.062 6.32,8.558 13.644,16.524 19.452,25.436 -26.058,3.794 -52.375,7.185 -78.542,10.145 1.096,-15.13 3.795,-30.304 6.232,-45.272 4.037,-24.797 8.501,-49.55 12.87,-74.294 1.601,-9.068 3.533,-18.093 4.957,-27.19 z"
     id="path27" />
  <path
     fill="#4dba99"
     d="M 42.455603,197.89065 C 79.148603,122.39465 141.7996,61.295646 221.8776,33.567646 q 3.699,-1.31 7.429,-2.528 3.73,-1.218 7.49,-2.342 3.76,-1.125 7.546,-2.155 3.787,-1.03 7.597,-1.965 3.811,-0.936 7.645,-1.776 3.833,-0.84 7.686,-1.584 3.852,-0.744 7.723,-1.392 3.87,-0.648 7.755,-1.199 3.885,-0.551 7.783,-1.005 3.898,-0.453 7.806,-0.81 3.907,-0.357 7.823,-0.616 3.916,-0.259 7.836,-0.42 3.921,-0.161 7.845,-0.224 3.923,-0.064 7.847,-0.029 3.924,0.034 7.846,0.167 3.922,0.132 7.839,0.363 3.917,0.23 7.828,0.558 3.91,0.328 7.811,0.753 3.901,0.425 7.79,0.948 3.889,0.522 7.764,1.142 3.875,0.619 7.733,1.335 3.859,0.716 7.698,1.528 3.839,0.812 7.657,1.719 3.817,0.907 7.611,1.91 3.794,1.002 7.562,2.099 3.768,1.096 7.507,2.287 3.739,1.19 7.447,2.473 3.709,1.284 7.384,2.659 3.675,1.375 7.315,2.842 3.639,1.467 7.241,3.024 3.602,1.557 7.164,3.203 3.562,1.646 7.082,3.381 2.793,1.376 5.558,2.808 2.765,1.432 5.501,2.919 2.736,1.487 5.441,3.028 2.706,1.541 5.38,3.136 2.674,1.595 5.316,3.243 2.642,1.648 5.25,3.348 2.609,1.701 5.183,3.453 2.574,1.752 5.112,3.556 2.539,1.803 5.041,3.656 2.501,1.854 4.966,3.757 2.464,1.903 4.89,3.856 2.426,1.952 4.812,3.952 2.387,2 4.733,4.047 2.346,2.048 4.65,4.142 2.305,2.093 4.567,4.233004 2.262,2.139 4.481,4.324 2.22,2.184 4.395,4.412 2.175,2.228 4.305,4.499 2.13,2.271 4.214,4.585 2.084,2.313 4.122,4.667 2.038,2.355 4.028,4.749 1.99,2.395 3.932,4.829 1.942,2.434 3.835,4.906 1.893,2.472 3.737,4.982 1.843,2.509 3.636,5.055 1.792,2.546 3.534,5.127 1.741,2.581 3.431,5.197 1.69,2.615 3.327,5.264 1.637,2.649 3.221,5.329 1.584,2.681 3.114,5.393 1.53,2.712 3.005,5.454 1.476,2.742 2.896,5.513 c 4.964,9.748 9.964,19.885 13.52,30.248 0.322,0.938 0.633,1.878 0.881,2.838 -4.09,-4.473 -10.505,-20.394 -14.321,-26.976 q -6.175,-10.578 -13.062,-20.706 -6.887,-10.129 -14.453,-19.761 c -36.43,-47.112 -91.843,-79.918004 -147.226,-99.806004 -11.886,-4.268 -28.512,-9.88 -40.83,-11.457 -0.126,-0.067 -0.249,-0.142 -0.38,-0.2 -7.251,-3.258 -33.474,-6.183 -42.504,-6.669 -14.413,-0.776 -59.049,-0.835 -71.128,2.96 -15.859,1.823 -32.155,7.107 -47.244,12.19 -64.813,21.837 -117.191,58.989004 -159.797997,112.570004 -7.857,9.88 -14.594,20.43 -21.184,31.174 -0.882,1.438 -2.29,4.369 -3.536,5.346 -0.447,0.351 -1.317,0.627 -1.86,0.807 z"
     id="path28" />
  <path
     fill="#187f6c"
     d="m 390.0896,39.712646 c 12.318,1.577 28.944,7.189 40.83,11.457 55.383,19.888 110.796,52.694004 147.226,99.806004 q 7.566,9.632 14.453,19.761 6.887,10.128 13.062,20.706 c 3.816,6.582 10.231,22.503 14.321,26.976 2.808,3.733 7.034,19.604 8.516,24.776 21.211,74.051 13.738,158.069 -23.853,225.791 -3.874,1.363 -7.94,2.236 -11.923,3.226 4.143,-11.24 8.296,-22.459 11.813,-33.916 19.893,-64.793 18.12,-139.161 -7.202,-202.289 -3.219,-8.025 -6.503,-16.635 -10.751,-24.17 -0.755,-1.34 -1.062,-2.231 -2.533,-2.68 -2.251,-2.399 -13.04,-26.497 -15.738,-31.547 -4.491,-8.409 -9.796,-16.394 -15.242,-24.208 -29.916,-42.917 -73.944,-78.288004 -121.93,-99.042004 -8.573,-3.708 -17.47,-6.727 -26.346,-9.614 -4.469,-1.453 -9.578,-2.567 -13.802,-4.59 -0.302,-0.145 -0.601,-0.296 -0.901,-0.443 z"
     id="path29" />
  <defs
     id="defs30">
    <linearGradient
       id="gradient_1"
       gradientUnits="userSpaceOnUse"
       x1="403.34723"
       y1="589.50421"
       x2="271.42807"
       y2="307.07837"
       gradientTransform="translate(-185.7634,-194.55035)">
      <stop
         offset="0"
         stop-color="#377D78"
         id="stop29" />
      <stop
         offset="1"
         stop-color="#108B72"
         id="stop30" />
    </linearGradient>
  </defs>
  <path
     fill="url(#gradient_1)"
     d="m 42.455603,197.89065 c 0.543,-0.18 1.413,-0.456 1.86,-0.807 1.246,-0.977 2.654,-3.908 3.536,-5.346 6.59,-10.744 13.327,-21.294 21.184,-31.174 C 111.6426,106.98265 164.0206,69.830646 228.8336,47.993646 c 15.089,-5.083 31.385,-10.367 47.244,-12.19 -53.646,14.985 -103.098,41.696 -139.619,84.573004 -3.669,4.308 -14.939,17.907 -16.875,22.452 -0.3,0.703 -0.272,1.23 -0.265,1.969 -2.356,3.018 -4.627,6.034 -6.735,9.231 -4.928,3.787 -8.766,11.61 -12.411,16.718 -11.450997,5.799 -27.513997,46.794 -31.685997,59.511 -0.924,2.818 -1.821,5.631 -2.286,8.566 -3.132,0.935 -5.023,1.474 -6.884,4.233 l -0.5,0.076 c -1.23,1.239 -1.851,3.003 -2.53,4.59 -22.909,53.57 -25.834,117.863 -10.887,173.867 4.483,16.796 11.046,32.683 17.562,48.75 -5.502,-1.522 -11.121,-2.276 -16.77,-2.994 -8.724,-16.428 -15.158,-34.298 -20.36,-52.126 q -0.817,-2.766 -1.582,-5.547 -0.765,-2.781 -1.478,-5.576 -0.713,-2.795 -1.374,-5.603 -0.66,-2.807 -1.268,-5.627 -0.608,-2.819 -1.164,-5.65 -0.555,-2.83 -1.057,-5.671 -0.502,-2.84 -0.951,-5.689 -0.449,-2.849 -0.845,-5.706 -0.396,-2.857 -0.738,-5.722 -0.342,-2.864 -0.631,-5.733 -0.288,-2.87 -0.523,-5.745 -0.235,-2.875 -0.417,-5.754 -0.181,-2.878 -0.308,-5.76 -0.127,-2.881 -0.201,-5.765 -0.073,-2.883 -0.093,-5.767 -0.019,-2.885 0.015,-5.769 0.035,-2.884 0.123,-5.767 0.088,-2.883 0.23,-5.764 0.143,-2.881 0.339,-5.758 0.196,-2.878 0.445,-5.752 0.25,-2.873 0.554,-5.742 0.303,-2.868 0.66,-5.73 0.357,-2.862 0.767,-5.717 0.411,-2.855 0.875,-5.702 0.463,-2.847 0.98,-5.685 0.517,-2.837 1.087,-5.665 0.57,-2.827 1.192,-5.644 0.623,-2.816 1.298,-5.62 0.675,-2.805 1.403,-5.596 0.727,-2.791 1.506,-5.568 0.78,-2.777 1.611,-5.539 0.831,-2.762 1.714,-5.508 c 3.973,-12.121 8.303,-24.273 14.455,-35.488 z"
     id="path30"
     style="fill:url(#gradient_1)" />
  <path
     fill="#d98931"
     d="m 51.515603,477.93465 c 9.023,1.797 18.128,3.257 27.195,4.819 l 6.786,1.047 c 94.292997,14.776 189.886997,24.925 285.449997,22.935 q 29.626,-0.705 59.175,-2.942 29.55,-2.238 58.944,-6.002 35.381,-4.13 70.345,-10.945 c 4.11,-1.743 9.562,-2.306 13.961,-3.208 8.901,-2.365 18.195,-3.879 27.223,-5.749 -8.457,12.584 -16.279,25.511 -25.388,37.667 q -2.646,3.535 -5.393,6.992 -2.748,3.457 -5.595,6.832 -2.848,3.375 -5.792,6.666 -2.945,3.291 -5.984,6.494 -3.039,3.203 -6.17,6.317 -3.131,3.113 -6.352,6.134 -3.221,3.021 -6.529,5.947 -3.307,2.925 -6.698,5.753 -3.392,2.828 -6.864,5.556 -3.473,2.728 -7.023,5.353 -3.55,2.625 -7.176,5.146 -3.626,2.521 -7.323,4.935 -3.698,2.414 -7.464,4.719 -3.766,2.305 -7.598,4.499 -3.832,2.195 -7.726,4.276 -3.895,2.082 -7.848,4.049 c -72.516,36.335 -162.986,44.354 -240.156,18.611 q -2.772,-0.937 -5.526,-1.925 -2.754,-0.988 -5.489,-2.026 -2.736,-1.038 -5.452,-2.127 -2.716,-1.088 -5.412,-2.225 -2.695,-1.138 -5.37,-2.325 -2.674,-1.187 -5.326,-2.423 -2.652,-1.236 -5.281,-2.52 -2.629,-1.284 -5.234,-2.616 -2.605,-1.332 -5.185,-2.712 -2.581,-1.38 -5.135,-2.806 -2.554,-1.427 -5.082,-2.901 -2.528,-1.473 -5.029,-2.992 -2.5,-1.52 -4.972,-3.085 -2.472,-1.565 -4.915,-3.175 -2.444,-1.61 -4.857,-3.264 -2.413,-1.655 -4.795,-3.353 -2.383,-1.699 -4.733,-3.441 -2.351,-1.742 -4.67,-3.527 -2.318,-1.784 -4.604,-3.611 -2.285,-1.827 -4.537,-3.696 -2.251,-1.868 -4.468,-3.778 -2.217,-1.909 -4.399,-3.859 -2.181,-1.95 -4.327,-3.939 -2.145,-1.99 -4.254,-4.018 -2.109,-2.028 -4.18,-4.095 -2.071,-2.067 -4.104,-4.171 -2.032997,-2.105 -4.026997,-4.246 -1.994,-2.141 -3.948,-4.319 -1.954,-2.177 -3.868,-4.39 -1.914,-2.213 -3.788,-4.46 -1.873,-2.248 -3.705,-4.53 -1.831,-2.281 -3.621,-4.596 c -9.545,-12.19 -18.777,-24.857 -25.707,-38.75 z"
     id="path31" />
  <defs
     id="defs32">
    <linearGradient
       id="gradient_2"
       gradientUnits="userSpaceOnUse"
       x1="312.97162"
       y1="710.80255"
       x2="299.45407"
       y2="721.31158"
       gradientTransform="translate(-185.7634,-194.55035)">
      <stop
         offset="0"
         stop-color="#EDDBD3"
         id="stop31" />
      <stop
         offset="1"
         stop-color="#F8FFFF"
         id="stop32" />
    </linearGradient>
  </defs>
  <path
     fill="url(#gradient_2)"
     d="m 78.710603,482.75365 6.786,1.047 c 3.776,5.555 8.665,10.692 13.091,15.733 q 10.476997,12.12 21.862997,23.391 11.386,11.271 23.612,21.625 c 2.531,2.125 5.669,5.268 8.586,6.667 l 4.491,3.475 c 0.116,0.214 0.226,0.431 0.349,0.641 0.489,0.828 1.017,1.388 1.691,2.059 -0.103,1.392 -0.428,1.742 -1.207,2.927 l -1.015,0.395 c -1.607,-0.991 -2.876,-2.23 -4.785,-2.544 -4.398,-2.098 -10.103,-7.586 -13.963,-10.877 -24.753,-21.101 -40.000997,-38.52 -59.498997,-64.539 z"
     id="path32"
     style="fill:url(#gradient_2)" />
  <path
     fill="#eea340"
     d="m 539.2806,514.30065 c 5.087,-1.042 10.801,-2.622 15.972,-2.654 -40.415,54.259 -120.049,92.9 -185.957,102.498 -61.03,8.887 -118.375,1.285 -173.039,-27.814 -4.821,-2.566 -22.047,-11.381 -25.309,-14.513 -0.18,-0.172 -0.287,-0.408 -0.43,-0.612 -6.159,-3.268 -13.296,-8.23 -18.345,-13.036 1.909,0.314 3.178,1.553 4.785,2.544 l 1.015,-0.395 c 0.779,-1.185 1.104,-1.535 1.207,-2.927 -0.674,-0.671 -1.202,-1.231 -1.691,-2.059 -0.123,-0.21 -0.233,-0.427 -0.349,-0.641 q 7.993,5.407 15.842,11.022 c 3.348,0.928 14.138,8.36 18.112,10.574 5.234,2.915 10.61,5.355 16.049,7.852 40.784,18.726 87.351,26.465 132.074,23.536 21.799,-1.428 44.055,-5.077 65.05,-11.16 48.111,-13.94 100.658,-43.35 134.017,-81.229 z"
     id="path33" />
  <path
     fill="#e7c1b4"
     d="m 157.1396,554.69165 q 7.993,5.407 15.842,11.022 l -0.84,0.235 c -2.76,-1.735 -5.541,-3.444 -8.275,-5.218 -0.546,1.648 -0.909,2.781 -0.671,4.519 1.344,2.658 7.145,3.205 7.322,5.956 -6.159,-3.268 -13.296,-8.23 -18.345,-13.036 1.909,0.314 3.178,1.553 4.785,2.544 l 1.015,-0.395 c 0.779,-1.185 1.104,-1.535 1.207,-2.927 -0.674,-0.671 -1.202,-1.231 -1.691,-2.059 -0.123,-0.21 -0.233,-0.427 -0.349,-0.641 z"
     id="path34" />
  <path
     fill="#d98931"
     d="m 152.6486,551.21665 c 4.081,-0.022 22.655,4.916 28.472,5.997 23.408,4.349 46.833,8.098 70.657,9.064 18.956,0.77 38.119,0.909 57.052,-0.505 56.973,-4.255 112.017,-19.742 166.915,-34.545 20.771,-5.6 41.764,-10.354 62.539,-15.941 -33.359,37.879 -85.906,67.289 -134.017,81.229 -20.995,6.083 -43.251,9.732 -65.05,11.16 -44.723,2.929 -91.29,-4.81 -132.074,-23.536 -5.439,-2.497 -10.815,-4.937 -16.049,-7.852 -3.974,-2.214 -14.764,-9.646 -18.112,-10.574 q -7.849,-5.615 -15.842,-11.022 z"
     id="path35" />
  <path
     fill="#eea340"
     d="m 573.3716,483.63865 0.523,0.651 c -2.316,7.243 -13.792,21.1 -18.642,27.357 -5.171,0.032 -10.885,1.612 -15.972,2.654 l -0.997,0.986 c -20.775,5.587 -41.768,10.341 -62.539,15.941 -54.898,14.803 -109.942,30.29 -166.915,34.545 -18.933,1.414 -38.096,1.275 -57.052,0.505 -23.824,-0.966 -47.249,-4.715 -70.657,-9.064 -5.817,-1.081 -24.391,-6.019 -28.472,-5.997 -2.917,-1.399 -6.055,-4.542 -8.586,-6.667 q -12.226,-10.354 -23.612,-21.625 -11.386,-11.271 -21.862997,-23.391 c -4.426,-5.041 -9.315,-10.178 -13.091,-15.733 94.292997,14.776 189.886997,24.925 285.449997,22.935 q 29.626,-0.705 59.175,-2.942 29.55,-2.238 58.944,-6.002 35.381,-4.13 70.345,-10.945 c 4.11,-1.743 9.562,-2.306 13.961,-3.208 z"
     id="path36" />
  <path
     fill="#e9cc4d"
     d="m 573.3716,483.63865 0.523,0.651 c -2.316,7.243 -13.792,21.1 -18.642,27.357 -5.171,0.032 -10.885,1.612 -15.972,2.654 7.105,-9.758 13.47,-16.682 20.13,-27.454 4.11,-1.743 9.562,-2.306 13.961,-3.208 z"
     id="path37" />
  <path
     fill="#0eac8e"
     d="m 276.0776,35.803646 c 12.079,-3.795 56.715,-3.736 71.128,-2.96 9.03,0.486 35.253,3.411 42.504,6.669 0.131,0.058 0.254,0.133 0.38,0.2 0.3,0.147 0.599,0.298 0.901,0.443 4.224,2.023 9.333,3.137 13.802,4.59 8.876,2.887 17.773,5.906 26.346,9.614 47.986,20.754 92.014,56.125004 121.93,99.042004 5.446,7.814 10.751,15.799 15.242,24.208 2.698,5.05 13.487,29.148 15.738,31.547 20.319,49.974 23.476,111.143 10.578,163.425 l -0.517,2.258 c -1.317,4.873 -2.426,9.938 -4.04,14.714 -4.411,17.878 -12.12,37.422 -21.31,53.419 -4.942,-0.058 -9.719,-0.359 -14.494,1.184 l -17.499,-24.967 c 1.241,-0.023 2.991,0.221 4.172,-0.03 1.434,-0.306 1.641,-0.616 2.473,-1.721 l -0.161,-0.923 c 0.742,-0.045 1.76,-0.024 2.454,-0.271 1.162,-0.414 1.941,-1.058 2.323,-2.26 1.48,-4.654 -6.784,-14.993 -9.243,-18.882 -11.89,-15.902 -22.446,-33.317 -33.395,-49.893 -3.063,-4.636 -7.046,-12.345 -10.545,-16.078 -0.938,-1.001 -1.482,-1.057 -2.79,-1.005 -3.764,3.769 -6.669,9.275 -9.629,13.738 l -20.566,31.352 c -19.586,-12.898 -38.55,-27.021 -57.854,-40.373 -7.387,-5.109 -14.602,-10.843 -22.41,-15.28 -9.591,5.026 -18.935,10.78 -28.399,16.067 -14.709,-9.249 -28.028,-20.71 -42.774,-29.833 -8.136,4.354 -15.724,11.525 -23.004,17.272 q -17.258,13.729 -34.867,27.005 c -6.391,-4.149 -12.874,-8.465 -19.673,-11.91 -7.827,4.901 -14.911,11.806 -21.918,17.823 -8.334,7.157 -16.878,14.1 -24.926,21.579 -3.311,-6.598 -22.737,-42.229 -27.315,-44.361 -4.681,2.222 -23.898,37.235 -27.793,44.119 q -27.234,-21.828 -53.964997,-44.269 c -3.266,5.036 -6.565,10.066 -9.655,15.211 -2.696,4.487 -5.356,10.479 -8.848,14.248 -7.382,-37.778 -7.576,-79.819 0.858,-117.458 1.861,-2.759 3.752,-3.298 6.884,-4.233 0.465,-2.935 1.362,-5.748 2.286,-8.566 4.172,-12.717 20.235,-53.712 31.685997,-59.511 3.645,-5.108 7.483,-12.931 12.411,-16.718 2.108,-3.197 4.379,-6.213 6.735,-9.231 -0.007,-0.739 -0.035,-1.266 0.265,-1.969 1.936,-4.545 13.206,-18.144 16.875,-22.452 36.521,-42.877004 85.973,-69.588004 139.619,-84.573004 z"
     id="path38" />
  <path
     fill="#f7fbf6"
     d="m 550.6656,279.79065 c 1.322,0.078 2.672,0.119 3.747,1.032 0.952,0.809 1.418,1.822 1.319,3.077 -0.127,1.593 -1.243,2.686 -2.306,3.744 -1.392,-0.056 -2.934,-0.039 -4.025,-1.059 -0.952,-0.888 -1.334,-1.787 -1.235,-3.087 0.123,-1.627 1.4,-2.67 2.5,-3.707 z"
     id="path39" />
  <path
     fill="#f7fbf6"
     d="m 232.3116,275.79265 c 1.332,0.242 3.068,0.526 3.995,1.654 0.825,1.005 1.202,1.89 1.006,3.208 -0.221,1.484 -1.473,2.397 -2.553,3.273 -1.426,-0.213 -3.042,-0.371 -4.099,-1.476 -0.803,-0.84 -1.051,-1.799 -0.911,-2.94 0.194,-1.578 1.492,-2.678 2.562,-3.719 z"
     id="path40" />
  <path
     fill="#f7fbf6"
     d="m 462.2216,279.34265 c 1.42,-0.018 3.016,-0.121 4.176,0.865 0.651,0.553 1.107,1.189 1.234,2.028 0.314,2.061 -0.637,3.261 -1.803,4.801 -1.507,0.087 -3.207,0.268 -4.45,-0.792 -0.942,-0.804 -1.333,-1.763 -1.3,-2.995 0.044,-1.637 1.12,-2.759 2.143,-3.907 z"
     id="path41" />
  <path
     fill="#f7fbf6"
     d="m 416.7706,145.82765 c 1.215,0.268 2.507,0.561 3.473,1.392 0.881,0.759 1.469,1.865 1.416,3.046 -0.09,2.026 -1.427,3.068 -2.911,4.17 -1.518,-0.342 -3.289,-0.643 -4.377,-1.874 -0.833,-0.942 -1.129,-1.958 -0.813,-3.187 0.412,-1.601 1.971,-2.619 3.212,-3.547 z"
     id="path42" />
  <path
     fill="#f7fbf6"
     d="m 81.768603,303.92065 c 1.399,-0.06 2.962,-0.206 4.158,0.686 1.056,0.788 1.606,1.717 1.667,3.044 0.077,1.686 -0.985,2.99 -1.936,4.26 -1.601,0.158 -3.174,0.4 -4.522,-0.713 -0.958,-0.79 -1.522,-1.968 -1.454,-3.216 0.096,-1.794 0.952,-2.765 2.087,-4.061 z"
     id="path43" />
  <path
     fill="#f7fbf6"
     d="m 137.5956,271.28565 c 1.569,0.049 2.977,0.011 4.25,1.09 0.923,0.783 1.518,2.064 1.392,3.284 -0.183,1.773 -1.131,2.725 -2.321,3.945 -1.353,0.002 -2.838,-0.046 -3.995,-0.83 -0.997,-0.677 -1.683,-1.688 -1.753,-2.909 -0.119,-2.079 1.087,-3.231 2.427,-4.58 z"
     id="path44" />
  <path
     fill="#f7fbf6"
     d="m 292.0956,193.29965 c 1.877,0.044 3.514,0.245 4.855,1.712 0.827,0.905 1.02,2.24 0.798,3.403 -0.298,1.558 -1.437,2.476 -2.575,3.433 -1.209,-0.048 -2.493,-0.127 -3.54,-0.802 -1.009,-0.649 -1.685,-1.703 -1.784,-2.905 -0.171,-2.095 0.947,-3.395 2.246,-4.841 z"
     id="path45" />
  <path
     fill="#f7fbf6"
     d="m 484.1026,179.77365 c 1.647,0.022 3.507,0.167 4.723,1.433 0.876,0.911 1.174,1.951 1.03,3.193 -0.182,1.567 -1.405,2.614 -2.471,3.635 -1.639,-0.059 -3.294,0.043 -4.578,-1.199 -0.879,-0.849 -1.243,-1.867 -1.144,-3.083 0.14,-1.719 1.297,-2.827 2.44,-3.979 z"
     id="path46" />
  <path
     fill="#f7fbf6"
     d="m 210.9086,180.88665 c 0.563,0.036 1.098,0.118 1.645,0.258 1.987,0.506 3.578,1.493 4.577,3.333 0.877,1.614 0.881,3.535 0.235,5.23 -0.922,2.42 -2.482,3.423 -4.745,4.476 -1.057,-0.07 -2.127,-0.166 -3.14,-0.499 -1.494,-0.492 -3.026,-1.814 -3.665,-3.267 -0.695,-1.579 -0.731,-3.177 -0.115,-4.795 0.982,-2.577 2.841,-3.582 5.208,-4.736 z"
     id="path47" />
  <path
     fill="#f7fbf6"
     d="m 178.7896,306.95465 c 1.006,-0.039 2.048,-0.087 3.04,0.11 q 0.366,0.075 0.723,0.185 0.356,0.111 0.701,0.255 0.344,0.145 0.672,0.323 0.328,0.178 0.638,0.388 0.309,0.209 0.596,0.448 0.287,0.239 0.55,0.505 0.262,0.265 0.497,0.556 0.235,0.29 0.44,0.602 0.168,0.256 0.31,0.528 0.142,0.272 0.256,0.557 0.115,0.285 0.2,0.579 0.086,0.295 0.142,0.596 0.056,0.302 0.081,0.608 0.026,0.305 0.021,0.612 -0.005,0.307 -0.04,0.612 -0.035,0.304 -0.1,0.604 c -0.615,2.795 -2.401,4.124 -4.738,5.522 -1.039,0.071 -2.118,0.158 -3.15,-0.023 -1.903,-0.333 -3.764,-1.441 -4.84,-3.063 -1.035,-1.56 -1.246,-3.495 -0.748,-5.281 0.748,-2.685 2.476,-3.828 4.749,-5.223 z"
     id="path48" />
  <path
     fill="#f7fbf6"
     d="m 347.8056,277.95565 c 1.177,-0.072 2.417,-0.183 3.586,0.002 q 0.388,0.06 0.767,0.162 0.379,0.101 0.745,0.243 0.367,0.142 0.715,0.323 0.349,0.181 0.676,0.398 0.327,0.217 0.628,0.469 0.302,0.251 0.574,0.534 0.273,0.282 0.514,0.592 0.24,0.311 0.446,0.645 c 0.855,1.413 1.073,3.046 0.669,4.64 -0.675,2.665 -2.19,3.993 -4.448,5.397 -1.161,0.092 -2.361,0.205 -3.514,-0.007 -1.863,-0.343 -3.708,-1.49 -4.765,-3.071 -0.972,-1.456 -1.251,-3.177 -0.904,-4.883 0.55,-2.709 2.113,-3.961 4.311,-5.444 z"
     id="path49" />
  <path
     fill="#f7fbf6"
     d="m 311.7516,124.96065 c 1.35,-0.019 2.823,-0.104 4.142,0.207 2.186,0.516 4.233,2.122 5.337,4.061 1.142,2.005 1.254,4.413 0.538,6.582 -1.061,3.212 -3.149,4.553 -6.092,5.917 -1.363,0.07 -2.868,10e-4 -4.194,-0.351 -2.416,-0.64 -4.605,-2.463 -5.695,-4.705 q -0.172,-0.355 -0.307,-0.725 -0.136,-0.371 -0.233,-0.753 -0.096,-0.383 -0.154,-0.773 -0.058,-0.39 -0.075,-0.784 -0.018,-0.394 0.004,-0.788 0.023,-0.394 0.085,-0.783 0.062,-0.39 0.164,-0.771 0.101,-0.381 0.241,-0.75 c 1.111,-3.015 3.447,-4.34 6.239,-5.584 z"
     id="path50" />
  <path
     fill="#f7fbf6"
     d="m 519.0206,238.96365 c 1.513,0.054 2.91,0.202 4.335,0.754 2.46,0.953 4.458,2.874 5.382,5.357 q 0.167,0.458 0.285,0.93 0.119,0.473 0.188,0.955 0.068,0.482 0.087,0.969 0.019,0.487 -0.013,0.973 -0.032,0.486 -0.113,0.967 -0.082,0.48 -0.213,0.949 -0.131,0.469 -0.31,0.923 -0.179,0.453 -0.404,0.885 c -1.525,2.984 -3.95,4.354 -7.021,5.362 -1.721,-0.06 -3.299,-0.146 -4.886,-0.882 -2.342,-1.085 -4.261,-3.049 -5.109,-5.505 q -0.159,-0.458 -0.268,-0.931 -0.11,-0.473 -0.17,-0.954 -0.06,-0.481 -0.07,-0.967 -0.009,-0.485 0.032,-0.968 0.041,-0.483 0.133,-0.96 0.091,-0.476 0.232,-0.941 0.14,-0.464 0.329,-0.911 0.188,-0.447 0.422,-0.872 c 1.579,-2.935 4.09,-4.195 7.152,-5.133 z"
     id="path51" />
  <path
     fill="#f7fbf6"
     d="m 287.3166,80.120646 c 1.568,-0.1 2.975,-0.144 4.47,0.422 1.523,0.576 2.764,1.684 3.331,3.232 0.643,1.752 0.372,3.775 -0.518,5.391 -0.686,1.244 -1.669,2.196 -2.974,2.764 -4.497,1.958 -13.621,3.073 -18.848,4.442 -8.146,2.133 -16.037,5.140004 -24.079,7.622004 -1.72,0.21 -3.075,0.319 -4.649,-0.54 -1.423,-0.777 -3.392,-3.277 -3.782,-4.833004 -0.391,-1.557 -0.172,-2.822 0.709,-4.139 4.988,-7.456 37.001,-12.864 46.34,-14.361 z"
     id="path52" />
  <path
     fill="#f7fbf6"
     d="m 120.0446,187.95565 q 0.814,-0.041 1.628,-0.059 c 2.191,-0.034 4.944,0.266 6.48,2.072 1.085,1.277 1.623,2.847 1.452,4.529 -0.244,2.414 -1.702,4.705 -2.987,6.695 -7.114,11.021 -12.909,23.196 -17.518,35.479 -1.705,4.543 -3.212,11.889 -7.152,14.916 -0.525,0.082 -1.049,0.176 -1.578,0.221 -1.919997,0.163 -4.153997,-0.431 -5.502997,-1.869 -1.579,-1.681 -1.9,-4.299 -1.757,-6.5 0.656,-10.073 19.531997,-49.263 26.934997,-55.484 z"
     id="path53" />
  <path
     fill="#f7fbf6"
     d="m 100.1726,170.74665 c 2.596,0.759 5.283,1.627 6.721,4.124 0.835,1.45 1.177,3.312 0.539,4.888 -1.823,4.507 -5.253,8.963 -7.748997,13.177 -6.579,11.107 -13.249,23.173 -16.921,35.591 -1.209,4.089 -3.058,13.237 -7.463,15.087 -1.491,0.626 -2.915,0.631 -4.391,0.001 -2.302,-0.982 -3.623,-2.601 -4.708,-4.791 0.465,-2.935 1.362,-5.748 2.286,-8.566 4.172,-12.717 20.235,-53.712 31.685997,-59.511 z"
     id="path54" />
  <path
     fill="#f7fbf6"
     d="m 224.0996,98.946646 c 1.022,-0.05 2.127,-0.117 3.136,0.078 1.6,0.308 3.38,1.805004 4.268,3.121004 0.95,1.407 1.139,2.92 0.756,4.556 -0.314,1.343 -1.057,2.497 -2.18,3.287 -4.271,3.008 -9.699,5.012 -14.318,7.523 -9.041,4.916 -18.22,10.447 -26.6,16.432 -10.261,7.328 -20.108,16.045 -29.055,24.926 -5.444,5.404 -11.06,14.294 -17.424,18.065 -1.55,0.075 -2.953,0.087 -4.429,-0.469 -1.668,-0.628 -3.031,-1.853 -3.648,-3.56 -0.686,-1.898 -0.222,-3.919 0.612,-5.684 2.34,-4.949 7.242,-9.392 11.016,-13.317 q 3.326,-3.5 6.787,-6.867 3.461,-3.366 7.053,-6.594 3.591,-3.227 7.307,-6.31 3.716,-3.083 7.551,-6.017 3.834,-2.935 7.781,-5.715 3.948,-2.781 8.002,-5.404 4.054,-2.623 8.208,-5.084 4.154,-2.461 8.402,-4.756 c 5.409,-2.961 10.963,-6.129 16.775,-8.211004 z"
     id="path55" />
  <path
     fill="#187f6c"
     d="m 566.7816,322.97865 c 2.315,5.109 4.007,10.573 6.24,15.745 5.53,12.809 12.676,23.275 21.605,33.858 l -0.517,2.258 c -1.317,4.873 -2.426,9.938 -4.04,14.714 -4.411,17.878 -12.12,37.422 -21.31,53.419 -4.942,-0.058 -9.719,-0.359 -14.494,1.184 l -17.499,-24.967 c 1.241,-0.023 2.991,0.221 4.172,-0.03 1.434,-0.306 1.641,-0.616 2.473,-1.721 l -0.161,-0.923 c 0.742,-0.045 1.76,-0.024 2.454,-0.271 1.162,-0.414 1.941,-1.058 2.323,-2.26 1.48,-4.654 -6.784,-14.993 -9.243,-18.882 5.963,-5.579 11.367,-13.445 15.224,-20.614 q -7.833,-0.286 -15.619,-1.188 c 14.242,-14.629 22.548,-30.887 28.392,-50.322 z"
     id="path56" />
  <path
     fill="#0eac8e"
     d="m 579.5246,374.97565 c 4.628,0.008 10.108,-1.466 14.585,-0.136 -1.317,4.873 -2.426,9.938 -4.04,14.714 -3.89,-4.547 -7.206,-9.624 -10.545,-14.578 z"
     id="path57" />
  <path
     fill="#f7fbf6"
     d="m 119.3186,144.79765 c 8.074,-8.732 16.163,-17.434 25.144,-25.254 45.712,-39.804004 106.75,-65.011004 167.474,-67.402004 62.183,-2.449 125.931,19.031 176.214,55.092004 7.131,5.114 20.073,14.434 25.712,20.61 0.392,0.429 0.463,0.598 0.719,1.048 -2.274,-0.785 -13.327,-10.458 -16.252,-12.627 -11.206,-8.311 -23.409,-15.707 -35.769,-22.165004 q -3.578,-1.88 -7.209,-3.654 -3.631,-1.775 -7.312,-3.443 -3.681,-1.668 -7.41,-3.229 -3.728,-1.56 -7.5,-3.011 -3.772,-1.451 -7.585,-2.792 -3.812,-1.34 -7.662,-2.569 -3.851,-1.229 -7.735,-2.346 -3.884,-1.116 -7.799,-2.119 -3.915,-1.002 -7.858,-1.891 -3.943,-0.888 -7.91,-1.661 -3.967,-0.773 -7.954,-1.43 -3.988,-0.658 -7.993,-1.199 -4.005,-0.54 -8.025,-0.964 -4.019,-0.424 -8.049,-0.731 -4.03,-0.307 -8.067,-0.496 -4.037,-0.189 -8.078,-0.261 -4.041,-0.072 -8.082,-0.026 -4.041,0.047 -8.079,0.21 -4.039,0.164 -8.07,0.445 -4.032,0.282 -8.054,0.68 -4.022,0.399 -8.03,0.914 -4.009,0.516 -8,1.148 -3.992,0.632 -7.964,1.38 -3.972,0.748 -7.92,1.611 -3.948,0.864 -7.87,1.842 -3.921,0.978 -7.812,2.07 -3.891,1.091 -7.749,2.296 -3.858,1.205 -7.679,2.521 -3.821,1.317 -7.602,2.744 -3.782,1.427 -7.52,2.964 -3.738,1.536 -7.429,3.181 -3.692,1.645 -7.334,3.397 c -33.861,16.445004 -61.453,38.848004 -85.79,67.405004 -2.438,2.862 -5.539,6.424 -9.769,4.948 -2.076,-0.724 -3.561,-2.633 -4.357,-4.613 -0.456,-1.134 -0.603,-2.184 -0.721,-3.392 2.108,-3.197 4.379,-6.213 6.735,-9.231 z"
     id="path58" />
  <path
     fill="#e9cc4d"
     d="m 400.9596,182.12865 c 9.299,-1.108 19.32,2.175 26.698,7.765 8.82,6.683 14.506,16.314 15.878,27.319 q 0.128,1.046 0.203,2.098 0.076,1.051 0.1,2.105 0.023,1.054 -0.006,2.108 -0.029,1.053 -0.11,2.104 -0.081,1.051 -0.214,2.097 -0.133,1.046 -0.318,2.083 -0.184,1.038 -0.42,2.066 -0.236,1.027 -0.523,2.041 -0.287,1.015 -0.623,2.014 -0.337,0.999 -0.722,1.98 -0.386,0.981 -0.82,1.941 -0.434,0.961 -0.915,1.899 -0.481,0.938 -1.007,1.851 -0.527,0.913 -1.099,1.799 -0.571,0.886 -1.186,1.742 -0.615,0.856 -1.271,1.681 c -7.142,8.944 -17.567,13.259 -28.72,14.433 -9.359,0.82 -19.268,-2.491 -26.637,-8.213 q -0.791,-0.618 -1.551,-1.273 -0.76,-0.656 -1.487,-1.348 -0.726,-0.692 -1.418,-1.419 -0.692,-0.727 -1.347,-1.487 -0.656,-0.76 -1.273,-1.551 -0.617,-0.791 -1.195,-1.612 -0.578,-0.821 -1.115,-1.669 -0.537,-0.848 -1.031,-1.721 -0.495,-0.873 -0.946,-1.77 -0.451,-0.896 -0.857,-1.814 -0.407,-0.917 -0.768,-1.854 -0.361,-0.936 -0.676,-1.889 -0.314,-0.953 -0.582,-1.92 -0.267,-0.968 -0.487,-1.947 -0.22,-0.979 -0.391,-1.968 -0.171,-0.989 -0.294,-1.985 c -1.388,-11.045 1.447,-21.868 8.365,-30.632 7.402,-9.377 17.139,-13.661 28.765,-15.054 z"
     id="path59" />
</svg>
