<?xml version="1.0" encoding="UTF-8" standalone="no"?>
<svg
   width="1024"
   height="1023"
   version="1.1"
   id="svg83"
   sodipodi:docname="military.svg"
   inkscape:version="1.3.2 (091e20ef0f, 2023-11-25)"
   xmlns:inkscape="http://www.inkscape.org/namespaces/inkscape"
   xmlns:sodipodi="http://sodipodi.sourceforge.net/DTD/sodipodi-0.dtd"
   xmlns="http://www.w3.org/2000/svg"
   xmlns:svg="http://www.w3.org/2000/svg">
  <sodipodi:namedview
     id="namedview83"
     pagecolor="#ffffff"
     bordercolor="#000000"
     borderopacity="0.25"
     inkscape:showpageshadow="2"
     inkscape:pageopacity="0.0"
     inkscape:pagecheckerboard="0"
     inkscape:deskcolor="#d1d1d1"
     inkscape:zoom="0.70507812"
     inkscape:cx="512"
     inkscape:cy="511.29086"
     inkscape:window-width="1920"
     inkscape:window-height="1011"
     inkscape:window-x="0"
     inkscape:window-y="0"
     inkscape:window-maximized="1"
     inkscape:current-layer="svg83" />
  <path
     fill="#FEFDFE"
     d="M769.283 750.857C769.867 751.437 769.966 752.007 770.293 752.774C773.563 760.436 775.686 762.325 783.367 765.343Q781.023 765.989 778.767 766.898C774.1 768.816 771.296 772.116 769.422 776.713Q768.88 775.505 768.306 774.312C765.359 768.221 761.138 766.649 755.093 764.568C762.375 760.506 766.655 759.259 769.283 750.857Z"
     id="path2" />
  <path
     fill="#FEFDFE"
     d="M229.729 285.793C230.296 286.317 230.094 286.054 230.496 286.746C234.933 294.368 237.294 296.455 245.393 299.964C237.534 302.921 234.021 305.418 230.387 313.111L230.021 313.128C228.957 311.314 228.239 309.26 227.094 307.509C224.256 303.17 219.681 301.455 214.925 300.197C215.276 300.066 215.624 299.928 215.969 299.783C223.403 296.648 226.667 293.193 229.729 285.793Z"
     id="path3" />
  <path
     fill="#FEFDFE"
     d="M232.127 728.799C233.758 732.78 234.427 736.715 236.877 740.398C241.35 747.121 249.399 749.039 256.79 750.593C252.817 751.835 248.737 753.066 245.052 755.036C237.156 759.257 234.61 766.066 232.207 774.111C230.33 770.038 229.513 765.929 227.018 762.053C222.654 755.273 215.698 752.686 208.212 751.048C212.371 750.013 216.742 749.001 220.542 746.956C227.879 743.009 229.89 736.248 232.127 728.799Z"
     id="path4" />
  <path
     fill="#FEFDFE"
     d="M797.946 249.253C799.353 252.843 800.897 256.442 802.754 259.824C808.51 270.31 816.34 273.327 827.204 276.484C821.509 278.22 815.401 280.158 810.502 283.655C803.922 288.35 798.13 302.928 797.905 303.054C796.673 299.169 794.545 294.764 792.451 291.276C786.719 281.726 777.745 279.02 767.575 276.543C772.42 275.254 777.293 273.757 781.77 271.464C790.485 267.001 795.086 258.272 797.946 249.253Z"
     id="path5" />
  <path
     fill="#0F3A5A"
     d="M484.111 170.375C473.755 159.506 455.447 143.18 455.497 127.245C455.513 121.944 457.699 116.277 461.591 112.622C464.095 110.27 466.926 108.213 469.299 105.728C479.288 95.2704 497.062 71.7751 512.88 72.1132C523.374 72.3375 535.488 84.9169 542.036 92.1128C545.907 96.3666 549.573 100.868 553.588 104.981C561.807 113.402 569.717 116.816 569.067 130.368C568.366 144.986 551.079 160.463 541.453 170.728C542.658 193.861 545.053 216.957 545.986 240.085Q549.465 240.652 552.928 241.304Q556.392 241.956 559.839 242.692Q563.285 243.429 566.713 244.249Q570.141 245.069 573.547 245.973Q576.954 246.877 580.337 247.864Q583.721 248.85 587.079 249.92Q590.438 250.989 593.769 252.14Q597.1 253.29 600.402 254.522Q603.704 255.754 606.976 257.066Q610.247 258.379 613.485 259.77Q616.723 261.162 619.926 262.633Q623.129 264.103 626.295 265.651Q629.461 267.2 632.589 268.825Q635.716 270.45 638.803 272.151Q641.89 273.852 644.934 275.628Q647.979 277.404 650.979 279.254Q653.979 281.103 656.932 283.026Q659.886 284.948 662.792 286.943Q665.699 288.937 668.555 291.001Q671.412 293.066 674.217 295.199Q677.022 297.333 679.774 299.535Q682.526 301.736 685.224 304.005Q687.922 306.273 690.563 308.606Q693.204 310.94 695.788 313.337Q698.372 315.734 700.896 318.194Q703.42 320.653 705.884 323.174Q708.347 325.695 710.748 328.275Q713.15 330.855 715.487 333.492Q717.824 336.13 720.097 338.825Q722.369 341.519 724.575 344.268Q726.78 347.017 728.918 349.819Q731.056 352.621 733.125 355.474Q735.193 358.264 737.191 361.104Q739.189 363.945 741.116 366.833Q743.043 369.722 744.899 372.657Q746.755 375.592 748.537 378.572Q750.32 381.553 752.028 384.576Q753.737 387.599 755.37 390.663Q757.004 393.728 758.562 396.832Q760.119 399.935 761.599 403.077Q763.08 406.218 764.482 409.395Q765.885 412.571 767.209 415.782Q768.532 418.992 769.777 422.234Q771.021 425.476 772.185 428.748Q773.349 432.02 774.431 435.319Q775.514 438.619 776.515 441.944Q777.516 445.269 778.435 448.618Q779.354 451.967 780.19 455.337Q781.026 458.708 781.779 462.098Q782.531 465.488 783.2 468.896Q783.869 472.303 784.453 475.726Q785.038 479.149 785.538 482.586Q786.038 486.022 786.453 489.47Q786.868 492.918 787.197 496.375Q787.527 499.832 787.772 503.296Q788.016 506.759 788.175 510.228Q788.335 513.697 788.408 517.169Q788.481 520.641 788.469 524.114Q788.457 527.586 788.359 531.058Q788.261 534.529 788.078 537.997Q787.895 541.464 787.626 544.927Q787.357 548.389 787.003 551.843Q786.648 555.298 786.209 558.742Q785.77 562.187 785.246 565.62C772.625 645.464 727.263 715.078 662.2 762.368C649.555 771.56 636.179 779.499 622.682 787.352C615.402 791.587 608.136 796.059 600.566 799.761C600.602 806.336 601.696 816.118 600.082 822.272C598.501 828.295 568.908 871.42 563.523 879.832C557.176 888.367 551.583 897.599 545.622 906.417C536.914 919.301 527.813 932.07 519.408 945.137C516.966 948.395 514.748 951.774 512.531 955.187L505.281 944.386C491.025 922.517 475.983 901.032 461.235 879.487C449.528 861.495 436.897 844.01 425.559 825.797C425.472 815.922 425.164 805.807 425.697 795.946C414.529 790.993 403.945 784.821 393.295 778.857C327.28 741.894 281.081 694.251 253.697 622.996Q252.491 619.805 251.363 616.586Q250.234 613.367 249.184 610.122Q248.134 606.876 247.162 603.606Q246.191 600.337 245.299 597.044Q244.406 593.752 243.594 590.439Q242.782 587.126 242.05 583.794Q241.318 580.463 240.667 577.114Q240.015 573.766 239.445 570.403Q238.875 567.04 238.386 563.664Q237.898 560.288 237.491 556.901Q237.084 553.514 236.759 550.119Q236.434 546.723 236.191 543.321Q235.949 539.918 235.788 536.511Q235.628 533.104 235.55 529.693Q235.472 526.283 235.476 522.872Q235.481 519.461 235.567 516.051Q235.654 512.641 235.824 509.234Q235.993 505.827 236.244 502.425Q236.496 499.024 236.83 495.629Q237.164 492.234 237.579 488.848Q237.995 485.463 238.492 482.088Q238.99 478.713 239.569 475.352Q240.148 471.99 240.808 468.644Q241.468 465.297 242.208 461.967Q242.949 458.637 243.77 455.327Q244.591 452.016 245.491 448.726Q246.392 445.436 247.372 442.168Q248.352 438.901 249.411 435.658Q250.47 432.416 251.606 429.2Q252.743 425.984 253.957 422.796Q255.171 419.608 256.462 416.451Q257.753 413.293 259.12 410.168C289.946 341.039 346 283.996 417.279 256.891C437.554 249.181 457.716 243.975 478.926 239.732C480.245 216.567 482.528 193.514 484.111 170.375Z"
     id="path8" />
  <path
     fill="#11835F"
     d="M468.665 397.944L468.484 405.008L461.766 405.077C461.834 404.903 461.893 404.725 461.971 404.555C463.399 401.44 465.497 399.209 468.665 397.944Z"
     id="path9" />
  <path
     fill="#900A55"
     d="M525.978 182.163L530.389 179.967C530.547 185.277 530.708 190.579 531.399 195.854L526.613 198.053C525.834 192.802 525.962 187.457 525.978 182.163Z"
     id="path10" />
  <path
     fill="#900A55"
     d="M529.998 245.579L533.963 243.898C534.228 254.567 533.722 266.362 535.602 276.861L526.26 280.507C526.005 275.898 526.107 271.364 526.685 266.779C527.311 261.81 530.937 249.649 529.998 245.579Z"
     id="path11" />
  <path
     fill="#900A55"
     d="M524.5 206.077L531.482 203.079C531.586 214.251 533.3 225.34 533.571 236.489C531.433 237.504 529.307 238.572 527.132 239.503C524.615 228.983 524.573 216.894 524.5 206.077Z"
     id="path12" />
  <path
     fill="#0F8B54"
     d="M554.824 388.16L555.612 388.692C559.366 391.256 562.42 394.568 566.545 396.624C572.552 399.619 585.78 401.702 589.854 405.345C578.477 405.872 566.869 405.431 555.468 405.43C555.404 399.679 555.064 393.908 554.824 388.16Z"
     id="path13" />
  <path
     fill="#900A55"
     d="M529.879 328.547L537.41 325.471C537.597 336.575 537.42 349.854 538.993 360.753L530.871 364.194C529.531 358.388 530.003 336.047 529.879 328.547Z"
     id="path14" />
  <path
     fill="#E433A1"
     d="M494.61 179.975C497.427 181.31 500.371 182.444 503.245 183.653C502.801 191.956 502.867 200.369 502.928 208.684L491.92 213.682C492.452 202.494 493.367 191.108 494.61 179.975Z"
     id="path15" />
  <path
     fill="#E433A1"
     d="M499.576 385.129C500.968 390.226 500.031 400.412 499.973 406.019L482.975 406.085L483.155 391.77C488.451 389.29 494.139 387.308 499.576 385.129Z"
     id="path16" />
  <path
     fill="#FBB932"
     d="M377.881 376.514C383.656 373.094 389.379 371.906 396.01 373.594C405.778 376.081 413.517 384.081 418.347 392.622C420.791 396.945 422.331 401.402 423.2 406.291L416.961 406.481Q416.901 404.997 416.676 403.529Q416.451 402.062 416.064 400.628Q415.677 399.194 415.133 397.813Q414.589 396.431 413.894 395.119C409.912 387.69 403.354 383.734 395.589 381.326C394.915 380.78 394.205 380.238 393.433 379.833C389.3 377.664 384.747 377.643 380.335 378.807C378.897 378.206 378.748 377.764 377.881 376.514Z"
     id="path17" />
  <path
     fill="#AE4F31"
     d="M643.399 376.328C647.968 379.875 650.226 383.454 651.247 389.174C650.901 391.702 650.866 393.285 648.751 394.897C641.64 395.938 635.501 378.288 617.605 394.967C617.6 394.722 617.582 394.477 617.589 394.232C617.693 390.573 623.042 386.127 625.598 383.772C623.984 383.43 622.608 382.865 621.101 382.202C629.789 375.903 637.284 379.146 643.399 376.328Z"
     id="path18" />
  <path
     fill="#E07F27"
     d="M643.399 376.328C647.968 379.875 650.226 383.454 651.247 389.174C648.252 387.32 645.232 385.434 641.96 384.099C636.543 381.889 631.044 381.435 625.598 383.772C623.984 383.43 622.608 382.865 621.101 382.202C629.789 375.903 637.284 379.146 643.399 376.328Z"
     id="path19" />
  <path
     fill="#0AB083"
     d="M631.27 409.386C629.293 407.369 626.033 405.896 625.514 403.024C625.923 401.763 626.355 400.918 627.313 399.977C633.736 393.666 639.879 404.878 648.652 404.708C652.33 404.637 655.561 402.202 657.925 399.599C658.42 400.081 659.16 400.464 659.135 401.212C658.987 405.643 649.983 413.699 646.578 416.32C642.531 419.436 636.915 420.008 631.961 420.182C631.976 416.508 631.756 413.029 631.27 409.386Z"
     id="path20" />
  <path
     fill="#E433A1"
     d="M491.538 220.413L502.528 215.72C502.359 225.401 500.986 241.051 502.255 250.224L489.307 255.579C489.769 243.855 490.862 232.131 491.538 220.413Z"
     id="path21" />
  <path
     fill="#900A55"
     d="M524.522 288.216C528.312 286.639 532.182 285.157 535.903 283.427C536.19 295.035 536.297 306.748 537.108 318.33C533.398 319.863 529.329 321.203 525.781 323.044C523.251 312.263 524.452 299.316 524.522 288.216Z"
     id="path22" />
  <path
     fill="#900A55"
     d="M528.004 373.051Q533.819 370.658 539.554 368.079C540.26 379.15 541.172 390.49 541.08 401.583C536.547 403.289 532.003 404.382 527.257 405.312Q527.798 389.185 528.004 373.051Z"
     id="path23" />
  <path
     fill="#B30665"
     d="M503.245 183.653C511.456 185.533 518.024 184.835 525.978 182.163C525.962 187.457 525.834 192.802 526.613 198.053Q514.71 203.235 502.928 208.684C502.867 200.369 502.801 191.956 503.245 183.653Z"
     id="path24" />
  <path
     fill="#E433A1"
     d="M501.526 257.555C503.25 262.817 501.467 283.565 501.574 290.645C496.813 292.967 491.796 294.955 486.937 297.075C487.562 285.718 488.365 274.343 488.594 262.97L501.526 257.555Z"
     id="path25" />
  <path
     fill="#FBB932"
     d="M602.689 406.113C601.403 405.991 600.348 406.217 599.456 405.232C599.135 400.366 601.662 395.556 604.047 391.434C608.797 383.228 616.149 376.647 625.48 374.303C631.732 372.733 637.765 372.999 643.399 376.328C637.284 379.146 629.789 375.903 621.101 382.202C622.608 382.865 623.984 383.43 625.598 383.772C623.042 386.127 617.693 390.573 617.589 394.232C617.582 394.477 617.6 394.722 617.605 394.967C614.944 398.534 613.023 401.781 611.584 406.003C608.644 406.021 605.615 405.89 602.689 406.113Z"
     id="path26" />
  <path
     fill="#D36D2E"
     d="M621.101 382.202C622.608 382.865 623.984 383.43 625.598 383.772C623.042 386.127 617.693 390.573 617.589 394.232C617.582 394.477 617.6 394.722 617.605 394.967C614.944 398.534 613.023 401.781 611.584 406.003C608.644 406.021 605.615 405.89 602.689 406.113C602.747 405.853 602.799 405.592 602.863 405.334C605.336 395.345 612.321 387.247 621.101 382.202Z"
     id="path27" />
  <path
     fill="#E433A1"
     d="M486.511 303.952Q493.466 301.461 500.307 298.672C500.077 309.297 499.135 323.699 500.332 333.941Q492.609 337.299 484.817 340.493C485.251 328.312 485.919 316.127 486.511 303.952Z"
     id="path28" />
  <path
     fill="#E433A1"
     d="M484.491 348.202Q492.309 344.972 500.054 341.57C500.059 353.393 499.174 365.963 500.314 377.7C494.632 379.806 489.079 382.192 483.508 384.571C483.363 372.448 484.252 360.323 484.491 348.202Z"
     id="path29" />
  <path
     fill="#AE4F31"
     d="M516.03 457.479L531.124 457.454L531.182 495.719C526.316 496.751 521.352 498.072 516.415 498.655C515.642 485.013 516.047 471.148 516.03 457.479Z"
     id="path30" />
  <path
     fill="#D36D2E"
     d="M377.881 376.514C378.748 377.764 378.897 378.206 380.335 378.807C384.747 377.643 389.3 377.664 393.433 379.833C394.205 380.238 394.915 380.78 395.589 381.326C403.354 383.734 409.912 387.69 413.894 395.119Q414.589 396.431 415.133 397.813Q415.677 399.194 416.064 400.628Q416.451 402.062 416.676 403.529Q416.901 404.997 416.961 406.481L409.914 406.529C409.313 403.576 408.556 400.584 407.011 397.971C404.682 394.034 401.044 390.476 396.442 389.471C385.679 387.122 386.973 396.915 380.768 400.329C379.772 400.877 378.531 401.264 377.403 400.852C374.482 399.786 371.9 394.96 370.795 392.257C370.275 389.147 370.74 386.921 371.695 383.954C373.291 380.818 375.147 378.721 377.881 376.514Z"
     id="path31" />
  <path
     fill="#E07F27"
     d="M377.881 376.514C378.748 377.764 378.897 378.206 380.335 378.807C384.747 377.643 389.3 377.664 393.433 379.833C394.205 380.238 394.915 380.78 395.589 381.326C388.953 381.224 383.035 382.349 376.696 384.342C375.873 384.6 376.21 384.512 375.21 384.588L373.516 385.302C373.788 385.506 374.081 385.683 374.331 385.913C375.246 386.753 375.31 387.093 375.322 388.241C374.014 389.788 372.689 391.437 370.795 392.257C370.275 389.147 370.74 386.921 371.695 383.954C373.291 380.818 375.147 378.721 377.881 376.514Z"
     id="path32" />
  <path
     fill="#FBA020"
     d="M377.881 376.514C378.748 377.764 378.897 378.206 380.335 378.807C377.46 380.139 375.117 382.274 372.689 384.273L371.695 383.954C373.291 380.818 375.147 378.721 377.881 376.514Z"
     id="path33" />
  <path
     fill="#E07F27"
     d="M439.911 457.444L459.489 457.419C459.505 467.126 459.169 476.969 459.635 486.658C459.638 489.533 459.497 492.522 459.732 495.383C455.84 493.69 451.632 492.482 447.613 491.106L439.953 488.464L439.884 481.549L439.911 457.444Z"
     id="path34" />
  <path
     fill="#FBA020"
     d="M439.884 481.549C444.986 483.09 455.821 484.79 459.635 486.658C459.638 489.533 459.497 492.522 459.732 495.383C455.84 493.69 451.632 492.482 447.613 491.106L439.953 488.464L439.884 481.549Z"
     id="path35" />
  <path
     fill="#AE4F31"
     d="M492.975 457.592L508.503 457.608L508.472 552.268L508.357 582.888C508.328 588.619 508.548 594.482 508.11 600.19C506.923 582.747 508.07 564.653 508.172 547.149C508.285 531.677 507.708 516.18 508.278 500.716Q500.606 499.564 492.96 498.246L492.975 457.592Z"
     id="path36" />
  <path
     fill="#B30665"
     d="M499.576 385.129Q513.896 379.339 528.004 373.051Q527.798 389.185 527.257 405.312C518.197 406.253 509.071 406.039 499.973 406.019C500.031 400.412 500.968 390.226 499.576 385.129Z"
     id="path37" />
  <path
     fill="#B30665"
     d="M502.528 215.72C509.731 212.276 517.17 209.245 524.5 206.077C524.573 216.894 524.615 228.983 527.132 239.503Q514.648 244.759 502.255 250.224C500.986 241.051 502.359 225.401 502.528 215.72Z"
     id="path38" />
  <path
     fill="#11835F"
     d="M553.124 368.976L553.722 369.2C559.255 371.251 565.112 372.425 570.634 374.557C579.2 377.864 587.213 382.522 595.35 386.734C592.705 392.758 590.75 398.799 589.854 405.345C585.78 401.702 572.552 399.619 566.545 396.624C562.42 394.568 559.366 391.256 555.612 388.692L554.824 388.16C554.133 381.783 553.673 375.367 553.124 368.976Z"
     id="path39" />
  <path
     fill="#B30665"
     d="M529.998 245.579C530.937 249.649 527.311 261.81 526.685 266.779C526.107 271.364 526.005 275.898 526.26 280.507C517.926 283.616 509.762 287.175 501.574 290.645C501.467 283.565 503.25 262.817 501.526 257.555C510.485 252.921 520.581 249.216 529.998 245.579Z"
     id="path40" />
  <path
     fill="#B30665"
     d="M500.307 298.672C508.243 294.956 516.471 291.691 524.522 288.216C524.452 299.316 523.251 312.263 525.781 323.044C517.156 326.315 508.888 330.488 500.332 333.941C499.135 323.699 500.077 309.297 500.307 298.672Z"
     id="path41" />
  <path
     fill="#0F8B54"
     d="M430.25 393.716C442.421 384.982 456.132 375.261 470.459 370.64Q469.423 384.283 468.665 397.944C465.497 399.209 463.399 401.44 461.971 404.555C461.893 404.725 461.834 404.903 461.766 405.077C452.634 404.885 443.392 405.315 434.251 405.487C433.103 401.52 431.613 397.616 430.25 393.716Z"
     id="path42" />
  <path
     fill="#0E594D"
     d="M407.931 734.22C413.832 736.844 419.359 740.334 425.102 743.289C425.092 755.963 425.262 768.666 425.055 781.337C414.51 775.736 402.335 770.134 393.295 762.27L394.497 761.289L396.748 761.588L396.842 760.382C396.142 757.168 396.289 753.676 396.895 750.451C398.209 743.459 402.146 738.165 407.931 734.22Z"
     id="path43" />
  <path
     fill="#D36D2E"
     d="M459.489 457.419L485.007 457.445L485.039 494.257L485.007 503.297L459.926 495.709L459.732 495.383C459.497 492.522 459.638 489.533 459.635 486.658C459.169 476.969 459.505 467.126 459.489 457.419Z"
     id="path44" />
  <path
     fill="#E07F27"
     d="M459.635 486.658C466.253 488.658 478.75 493.357 485.039 494.257L485.007 503.297L459.926 495.709L459.732 495.383C459.497 492.522 459.638 489.533 459.635 486.658Z"
     id="path45" />
  <path
     fill="#B30665"
     d="M500.054 341.57C508.246 336.987 520.996 332.298 529.879 328.547C530.003 336.047 529.531 358.388 530.871 364.194Q515.738 371.276 500.314 377.7C499.174 365.963 500.059 353.393 500.054 341.57Z"
     id="path46" />
  <path
     fill="#FBA020"
     d="M500.063 822.678C505.534 836.327 512.104 852.942 511.531 867.777C511.496 876.134 510.48 903.56 511.908 910.081C511.725 914.061 512.437 924.157 511.393 927.348C509.749 925.122 508.279 922.809 506.801 920.471Q502.899 914.734 499.093 908.934C499.992 907.418 501.115 906.037 502.183 904.636Q499.632 896.74 496.725 888.969C495.849 873.62 495.586 836.426 500.063 822.678Z"
     id="path47" />
  <path
     fill="#FEE862"
     d="M502.183 904.636C503.364 907.941 507.909 917.756 506.801 920.471Q502.899 914.734 499.093 908.934C499.992 907.418 501.115 906.037 502.183 904.636Z"
     id="path48" />
  <path
     fill="#FEE862"
     d="M403.478 414.658L620.947 414.632L620.931 420.953C586.724 420.248 552.384 421.293 518.167 421.393L403.504 420.972L403.478 414.658Z"
     id="path49" />
  <path
     fill="#0AB083"
     d="M393.295 762.27C361.568 743.327 333.236 720.677 310.223 691.554C276.723 649.162 257.437 601.235 252.65 547.29C251.622 535.699 250.566 522.842 251.926 511.279C252.048 513.184 252.116 515.03 252.041 516.938C252.361 517.548 252.426 518.078 253.122 518.325C254.214 518.713 255.388 518.544 256.522 518.475Q256.43 521.677 256.417 524.88Q256.405 528.083 256.471 531.285Q256.538 534.487 256.683 537.687Q256.829 540.887 257.053 544.082Q257.278 547.277 257.581 550.466Q257.885 553.654 258.267 556.835Q258.649 560.015 259.109 563.184Q259.57 566.354 260.108 569.512Q260.647 572.669 261.264 575.812Q261.88 578.955 262.574 582.082Q263.268 585.209 264.039 588.318Q264.81 591.427 265.658 594.516Q266.505 597.604 267.429 600.671Q268.353 603.738 269.352 606.782Q270.351 609.825 271.425 612.842Q272.499 615.86 273.647 618.85Q274.795 621.84 276.017 624.801Q277.239 627.762 278.533 630.692Q279.828 633.622 281.194 636.518Q282.561 639.415 283.999 642.278Q285.436 645.14 286.944 647.966Q288.452 650.792 290.029 653.579Q291.607 656.367 293.252 659.115Q294.898 661.863 296.611 664.569Q298.324 667.276 300.104 669.939Q301.883 672.602 303.728 675.221Q305.572 677.839 307.481 680.412Q309.39 682.984 311.362 685.508Q313.333 688.032 315.367 690.507Q317.4 692.982 319.494 695.405Q321.588 697.829 323.742 700.2Q325.895 702.572 328.106 704.889C345.389 723.119 364.618 737.996 385.28 752.158C389.13 754.797 392.909 757.956 396.842 760.382L396.748 761.588L394.497 761.289L393.295 762.27Z"
     id="path50" />
  <path
     fill="#11DF9C"
     d="M545.907 255.167C596.168 265.087 642.156 286.401 680.771 320.241C688.283 326.824 696.031 333.704 702.566 341.275C701.058 342.979 699.063 344.801 697.965 346.784C686.655 337.861 676.138 327.983 664.702 319.199C629.904 292.473 590.41 274.614 546.883 268.417Q546.353 261.795 545.907 255.167Z"
     id="path51" />
  <path
     fill="#D36D2E"
     d="M492.96 498.246Q500.606 499.564 508.278 500.716C507.708 516.18 508.285 531.677 508.172 547.149C505.21 547.243 502.672 548.007 499.924 549.047Q498.836 630.239 499.171 711.434L499.229 768.076C499.209 777.645 498.466 787.815 499.151 797.32C499.351 800.088 501.608 802.062 501.764 805.043C498.891 800.6 494.148 793.261 493.441 788.057C492.118 778.309 493.015 767.586 493.017 757.72L493.125 696.213L492.96 498.246Z"
     id="path52" />
  <path
     fill="#D36D2E"
     d="M620.511 433.889C620.487 431.354 620.001 427.466 620.876 425.15C621.066 431.806 620.895 438.457 620.912 445.114L403.547 445.427L403.549 434.007C404.956 434.483 498.617 434.393 505.615 433.895C506.348 434.873 507.102 435.909 508.018 436.726C509.634 438.167 512.02 439.12 514.198 438.783C517.692 438.243 519.629 436.221 521.689 433.538C525.511 434.802 556.889 433.757 564.214 433.738L620.511 433.889Z"
     id="path53" />
  <path
     fill="#FBB932"
     d="M439.953 488.464L447.613 491.106Q446.695 601.327 446.977 711.552L447.12 792.062C447.08 802.953 447.335 813.927 446.944 824.81C446.87 826.876 446.77 828.521 445.892 830.427C443.395 826.95 441.22 823.241 438.98 819.596C440.526 808.469 439.497 795.591 439.5 784.235L439.5 715.764L439.953 488.464Z"
     id="path54" />
  <path
     fill="#FBA020"
     d="M403.504 420.972L518.167 421.393C552.384 421.293 586.724 420.248 620.931 420.953L620.876 425.15C620.001 427.466 620.487 431.354 620.511 433.889L564.214 433.738C556.889 433.757 525.511 434.802 521.689 433.538C519.629 436.221 517.692 438.243 514.198 438.783C512.02 439.12 509.634 438.167 508.018 436.726C507.102 435.909 506.348 434.873 505.615 433.895C498.617 434.393 404.956 434.483 403.549 434.007L403.504 420.972Z"
     id="path55" />
  <path
     fill="#0F3A5A"
     d="M505.615 433.895C505.401 432.302 505.183 430.715 505.5 429.12C505.955 426.836 507.308 424.707 509.256 423.415Q509.614 423.182 509.992 422.985Q510.371 422.788 510.767 422.63Q511.164 422.471 511.574 422.352Q511.984 422.234 512.403 422.156Q512.823 422.078 513.248 422.042Q513.674 422.006 514.1 422.012Q514.527 422.018 514.951 422.066Q515.376 422.113 515.793 422.203C517.969 422.66 519.988 423.962 521.151 425.877C522.786 428.572 522.489 430.615 521.689 433.538C519.629 436.221 517.692 438.243 514.198 438.783C512.02 439.12 509.634 438.167 508.018 436.726C507.102 435.909 506.348 434.873 505.615 433.895Z"
     id="path56" />
  <path
     fill="#11835F"
     d="M631.961 430.23C640.508 436.038 646.491 445.482 653.951 452.565L654 452.789C648.24 462.316 643.368 475.617 638.808 485.961L613.149 543.449C610.918 548.439 601.915 565.856 601.231 569.689C600.458 556.98 600.954 543.986 600.954 531.246L601.006 457.678C606.679 457.764 625.576 459.655 629.195 456.052C633.56 451.705 631.959 436.47 631.961 430.23Z"
     id="path57" />
  <path
     fill="#983236"
     d="M544.346 457.394C558.489 456.729 572.799 457.067 586.964 456.979C586.421 488.305 587.006 519.706 587.024 551.04L586.955 717.282L586.881 785.134C586.863 794.263 587.827 808.639 586.338 817.213C585.572 821.625 580.861 826.896 578.325 830.503C576.91 823.424 577.914 811.328 577.925 803.689L578.183 738.347L578.173 621.389C578.496 566.809 579.184 512.068 577.97 457.502C574.407 457.65 570.821 457.588 567.255 457.603C559.644 457.599 551.938 457.926 544.346 457.394Z"
     id="path58" />
  <path
     fill="#11DF9C"
     d="M251.926 511.279C251.828 503.938 252.765 496.396 253.628 489.114C259.393 440.456 280.106 391.834 310.646 353.552Q312.267 351.53 313.927 349.539Q315.586 347.548 317.283 345.589Q318.98 343.63 320.715 341.704Q322.449 339.778 324.22 337.886Q325.991 335.993 327.797 334.135Q329.604 332.276 331.446 330.453Q333.288 328.629 335.164 326.842Q337.04 325.054 338.95 323.302Q340.86 321.55 342.804 319.835Q344.747 318.12 346.723 316.443Q348.698 314.765 350.706 313.126Q352.713 311.486 354.752 309.885Q356.79 308.285 358.859 306.723Q360.927 305.161 363.025 303.64Q365.123 302.118 367.25 300.637Q369.377 299.155 371.531 297.715Q373.686 296.274 375.868 294.875Q378.049 293.476 380.258 292.119Q382.466 290.762 384.699 289.448Q386.933 288.133 389.191 286.861Q391.45 285.59 393.732 284.361Q396.014 283.133 398.32 281.949Q400.625 280.764 402.952 279.624Q405.28 278.484 407.629 277.388Q409.978 276.293 412.347 275.242Q414.717 274.192 417.106 273.187Q419.495 272.182 421.902 271.223Q424.31 270.264 426.736 269.351Q429.162 268.438 431.604 267.571Q434.047 266.705 436.506 265.885Q438.965 265.066 441.439 264.293Q443.913 263.521 446.401 262.796C456.627 259.745 467.417 256.431 478.042 255.233C477.981 259.455 477.567 263.699 477.276 267.911C461.434 269.232 446.35 273.933 431.523 279.414C382.601 297.501 349.607 323.213 316.073 362.942C291.632 391.897 270.344 432.879 262.165 470.048C258.636 486.084 257.282 502.112 256.522 518.475C255.388 518.544 254.214 518.713 253.122 518.325C252.426 518.078 252.361 517.548 252.041 516.938C252.116 515.03 252.048 513.184 251.926 511.279Z"
     id="path59" />
  <path
     fill="#E07F27"
     d="M511.834 85.9795C514.777 85.9094 517.424 87.8167 519.772 89.4317C526.77 94.2443 551.987 118.716 553.201 126.688C554.308 133.962 550.44 141.742 546.113 147.34C538.154 157.639 527.612 169.437 514.083 171.127C510.706 171.131 507.44 170.654 504.286 169.409C493.814 165.276 478.238 147.948 473.848 137.669C471.981 133.299 470.573 127.546 472.542 123.016C476.241 114.505 492.479 98.4285 499.773 92.8917C503.589 89.9947 507.402 87.7888 511.834 85.9795Z"
     id="path60" />
  <path
     fill="#FBB932"
     d="M495.619 103.706C495.788 103.427 495.951 103.146 496.126 102.871C498.265 99.5096 502.178 97.1403 506.022 96.3171C512.685 94.8902 519.476 97.1639 524.949 100.938C531.023 105.126 536.655 111.256 538.079 118.694C539.127 124.168 537.817 129.774 534.659 134.348C530.418 140.491 522.758 144.181 515.512 145.318Q514.689 145.448 513.86 145.538Q513.032 145.628 512.2 145.677Q511.368 145.725 510.535 145.733Q509.701 145.741 508.869 145.708Q508.036 145.674 507.206 145.6Q506.376 145.526 505.551 145.411Q504.725 145.296 503.906 145.14Q503.088 144.985 502.278 144.789Q501.468 144.594 500.668 144.358Q499.869 144.123 499.082 143.849Q498.295 143.574 497.523 143.261Q496.75 142.948 495.994 142.598Q495.238 142.248 494.5 141.86Q493.762 141.473 493.044 141.05Q492.326 140.627 491.63 140.169Q490.934 139.711 490.261 139.219C486.185 136.233 482.651 132.111 481.893 126.963C481.112 121.66 483.714 115.944 487 111.879C488.088 110.533 488.799 109.886 490.515 109.592C492.308 108.332 494.288 105.499 495.619 103.706Z"
     id="path61" />
  <path
     fill="#FEFDFE"
     d="M495.619 103.706C498.512 102.919 502.67 101.619 505.413 103.338C506.106 103.773 506.451 104.358 506.617 105.173C507.234 108.216 504.247 112.18 502.362 114.255C500.144 116.696 497.471 118.966 494.674 120.709C492.561 119.037 489.505 116.867 489.122 113.99C488.886 112.211 489.5 111.271 490.375 109.829L490.515 109.592C492.308 108.332 494.288 105.499 495.619 103.706Z"
     id="path62" />
  <path
     fill="#0AB083"
     d="M546.883 268.417C590.41 274.614 629.904 292.473 664.702 319.199C676.138 327.983 686.655 337.861 697.965 346.784C699.063 344.801 701.058 342.979 702.566 341.275C709.933 348.832 716.461 357.777 722.562 366.381C754.473 411.381 774.761 467.306 773.978 522.904C773.466 559.192 766.299 593.196 752.294 626.635C748.754 635.088 744.199 643.111 740.657 651.488C740.798 648.082 752.95 621.453 755.001 615.408C765.312 585.018 769.83 555.058 769.986 522.986Q769.932 509.957 768.574 496.998C763.388 448.339 737.208 378.149 698.366 346.762C693.267 350.798 686.904 361.794 683.132 367.387C677.423 360.423 670.833 354.024 664.272 347.869C631.438 317.072 592.626 299.337 548.53 291.421C548.119 283.75 547.327 276.09 546.883 268.417Z"
     id="path63" />
  <path
     fill="#11835F"
     d="M698.366 346.762C737.208 378.149 763.388 448.339 768.574 496.998Q769.932 509.957 769.986 522.986C759.777 520.464 750.058 517.06 739.991 514.179C739.163 501.547 738.109 488.89 735.813 476.427C730.275 446.367 717.815 416.132 700.81 390.751C695.368 382.629 689.235 375.016 683.132 367.387C686.904 361.794 693.267 350.798 698.366 346.762Z"
     id="path64" />
  <path
     fill="#F1D292"
     d="M447.613 491.106C451.632 492.482 455.84 493.69 459.732 495.383L459.926 495.709L459.762 745.231L459.576 800.006C459.544 807.589 458.501 817.678 459.934 825.021C460.339 827.094 461.54 829.286 462.535 831.143C468.862 842.953 476.323 854.318 483.142 865.864C487.576 873.374 491.647 881.948 496.725 888.969Q499.632 896.74 502.183 904.636C501.115 906.037 499.992 907.418 499.093 908.934Q471.672 870.236 445.892 830.427C446.77 828.521 446.87 826.876 446.944 824.81C447.335 813.927 447.08 802.953 447.12 792.062L446.977 711.552Q446.695 601.324 447.613 491.106Z"
     id="path65" />
  <path
     fill="#0AB083"
     d="M548.852 297.583C598.98 307.874 646.047 332 678.455 372.507C675.532 376.324 665.009 389.65 661.282 391.17C660.979 389.881 660.856 388.581 660.712 387.268C659.459 380.001 655.867 374.047 649.806 369.766C642.458 364.575 633.706 363.478 625.027 365.114C611.692 367.626 602.817 375.847 595.35 386.734C587.213 382.522 579.2 377.864 570.634 374.557C565.112 372.425 559.255 371.251 553.722 369.2L553.124 368.976L550.361 324.7C549.778 315.691 548.954 306.609 548.852 297.583Z"
     id="path66" />
  <path
     fill="#0AB083"
     d="M678.455 372.507C681.144 376.079 684.089 379.436 686.845 382.954C714.184 416.858 732.21 468.32 733.114 511.809C723.068 504.971 711.923 499.777 701.874 492.783C684.581 480.746 669.821 466.552 654 452.789L653.951 452.565C646.491 445.482 640.508 436.038 631.961 430.23L631.961 420.182C636.915 420.008 642.531 419.436 646.578 416.32C649.983 413.699 658.987 405.643 659.135 401.212C659.16 400.464 658.42 400.081 657.925 399.599C659.834 395.351 660.594 391.904 660.712 387.268C660.856 388.581 660.979 389.881 661.282 391.17C665.009 389.65 675.532 376.324 678.455 372.507Z"
     id="path67" />
  <path
     fill="#0F8B54"
     d="M678.455 372.507C681.144 376.079 684.089 379.436 686.845 382.954C678.329 397.078 672.056 412.844 665.289 427.868C661.609 436.039 657.164 444.258 653.951 452.565C646.491 445.482 640.508 436.038 631.961 430.23L631.961 420.182C636.915 420.008 642.531 419.436 646.578 416.32C649.983 413.699 658.987 405.643 659.135 401.212C659.16 400.464 658.42 400.081 657.925 399.599C659.834 395.351 660.594 391.904 660.712 387.268C660.856 388.581 660.979 389.881 661.282 391.17C665.009 389.65 675.532 376.324 678.455 372.507Z"
     id="path68" />
  <path
     fill="#AE4F31"
     d="M539.371 457.412C541.01 457.314 542.702 457.397 544.346 457.394C551.938 457.926 559.644 457.599 567.255 457.603C570.821 457.588 574.407 457.65 577.97 457.502C579.184 512.068 578.496 566.809 578.173 621.389L578.183 738.347L577.925 803.689C577.914 811.328 576.91 823.424 578.325 830.503C565.198 852.645 550.057 873.941 535.641 895.272C528.154 906.352 521.284 918.494 512.794 928.791C511.729 928.406 511.903 928.29 511.393 927.348C512.437 924.157 511.725 914.061 511.908 910.081C522.585 882.42 540.581 858.6 555.377 833.055C559.132 826.571 564.412 819.646 566.724 812.483C568.634 806.564 567.515 790.322 567.513 783.317L567.513 736.29L567.574 572.828C567.57 543.358 567.246 513.858 567.603 484.392C558.814 490.959 549.241 494.751 539.452 499.456L539.371 457.412Z"
     id="path69" />
  <defs
     id="defs70">
    <linearGradient
       id="gradient_0"
       gradientUnits="userSpaceOnUse"
       x1="531.36676"
       y1="662.8576"
       x2="499.06534"
       y2="662.52228">
      <stop
         offset="0"
         stop-color="#C16330"
         id="stop69" />
      <stop
         offset="1"
         stop-color="#F78A32"
         id="stop70" />
    </linearGradient>
  </defs>
  <path
     fill="url(#gradient_0)"
     d="M516.415 498.655C521.352 498.072 526.316 496.751 531.182 495.719Q531.757 604.579 530.995 713.437Q530.953 740.127 531.196 766.817C531.264 774.734 532.361 786.584 530.937 794.152C530.01 799.078 525.118 805.392 522.758 809.958C519.092 817.05 515.653 824.278 512.125 831.441C510.16 825.379 502.354 808.763 501.764 805.043C501.608 802.062 499.351 800.088 499.151 797.32C498.466 787.815 499.209 777.645 499.229 768.076L499.171 711.434Q498.836 630.235 499.924 549.047C502.672 548.007 505.21 547.243 508.172 547.149C508.07 564.653 506.923 582.747 508.11 600.19C508.959 611.986 508.107 627.606 508.114 639.799L508.257 724.144L508.426 746.527C508.432 749.756 508.03 753.141 508.285 756.344C508.392 757.696 508.622 759.476 509.498 760.58C510.384 761.695 511.287 762.076 512.697 762.158C514.053 762.237 515.102 761.798 516.118 760.932C516.999 759.312 516.99 757.376 517.037 755.566C517.305 745.201 516.909 734.77 516.894 724.396L516.691 652.281L516.415 498.655Z"
     id="path70" />
  <path
     fill="#11835F"
     d="M256.522 518.475L283.998 518.461Q283.977 521.456 284.029 524.45Q284.082 527.445 284.207 530.437Q284.333 533.43 284.531 536.418Q284.73 539.407 285.002 542.389Q285.273 545.372 285.618 548.347Q285.963 551.322 286.38 554.288Q286.797 557.254 287.287 560.209Q287.777 563.163 288.339 566.105Q288.901 569.047 289.534 571.974Q290.168 574.901 290.873 577.812Q291.578 580.723 292.354 583.616Q293.13 586.509 293.977 589.382Q294.823 592.254 295.74 595.106Q296.657 597.957 297.643 600.785Q298.629 603.613 299.684 606.416Q300.739 609.219 301.862 611.996Q302.986 614.772 304.176 617.52Q305.367 620.268 306.625 622.986Q307.883 625.704 309.207 628.391Q310.53 631.078 311.92 633.731Q313.309 636.384 314.762 639.003Q316.216 641.621 317.733 644.204Q319.251 646.786 320.831 649.33Q322.411 651.875 324.053 654.38Q325.694 656.885 327.397 659.349Q329.099 661.813 330.862 664.234Q332.624 666.656 334.445 669.034Q336.266 671.412 338.145 673.744Q340.024 676.077 341.959 678.363Q343.894 680.648 345.885 682.886Q347.875 685.124 349.92 687.313Q351.964 689.501 354.062 691.639C369.992 707.863 388.785 722.037 407.931 734.22C402.146 738.165 398.209 743.459 396.895 750.451C396.289 753.676 396.142 757.168 396.842 760.382C392.909 757.956 389.13 754.797 385.28 752.158C364.618 737.996 345.389 723.119 328.106 704.889Q325.895 702.572 323.742 700.2Q321.588 697.829 319.494 695.405Q317.4 692.982 315.367 690.507Q313.333 688.032 311.362 685.508Q309.39 682.984 307.481 680.412Q305.572 677.839 303.728 675.221Q301.883 672.602 300.104 669.939Q298.324 667.276 296.611 664.569Q294.898 661.863 293.252 659.115Q291.607 656.367 290.029 653.579Q288.452 650.792 286.944 647.966Q285.436 645.14 283.999 642.278Q282.561 639.415 281.195 636.519Q279.828 633.622 278.533 630.692Q277.239 627.762 276.017 624.801Q274.795 621.84 273.647 618.85Q272.499 615.86 271.425 612.842Q270.351 609.825 269.352 606.782Q268.353 603.738 267.429 600.672Q266.505 597.604 265.658 594.516Q264.81 591.427 264.039 588.318Q263.268 585.209 262.574 582.082Q261.88 578.955 261.264 575.812Q260.647 572.669 260.108 569.512Q259.57 566.354 259.109 563.184Q258.649 560.015 258.267 556.835Q257.885 553.654 257.581 550.466Q257.278 547.277 257.053 544.082Q256.829 540.887 256.683 537.687Q256.538 534.487 256.471 531.285Q256.405 528.083 256.417 524.88Q256.43 521.677 256.522 518.475Z"
     id="path71" />
  <path
     fill="#0AB083"
     d="M256.522 518.475C257.282 502.112 258.636 486.084 262.165 470.048C270.344 432.879 291.632 391.897 316.073 362.942C349.607 323.213 382.601 297.501 431.523 279.414C446.35 273.933 461.434 269.232 477.276 267.911C476.775 275.676 476.223 283.466 476 291.244Q473.147 291.792 470.309 292.409Q467.47 293.027 464.648 293.715Q461.826 294.403 459.021 295.16Q456.216 295.917 453.432 296.744Q450.647 297.57 447.883 298.465Q445.119 299.36 442.378 300.322Q439.638 301.285 436.922 302.315Q434.205 303.345 431.516 304.442Q428.826 305.539 426.164 306.702Q423.502 307.865 420.869 309.093Q418.237 310.322 415.635 311.615Q413.034 312.908 410.465 314.265Q407.897 315.621 405.363 317.041Q402.828 318.461 400.33 319.943Q397.831 321.425 395.37 322.968Q392.909 324.511 390.487 326.115Q388.064 327.718 385.682 329.381Q383.301 331.044 380.96 332.765Q378.62 334.486 376.323 336.265Q374.026 338.043 371.774 339.878Q369.522 341.712 367.315 343.602Q365.109 345.492 362.95 347.435Q360.791 349.379 358.681 351.375Q356.57 353.371 354.51 355.419Q352.449 357.467 350.44 359.565Q348.431 361.663 346.474 363.809Q344.517 365.956 342.614 368.151Q340.711 370.346 338.862 372.587Q337.014 374.828 335.221 377.114Q333.429 379.399 331.693 381.729Q329.957 384.058 328.28 386.43Q326.602 388.802 324.984 391.214Q323.132 393.962 321.357 396.759Q319.581 399.557 317.883 402.403Q316.185 405.248 314.566 408.139Q312.947 411.03 311.408 413.964Q309.869 416.899 308.411 419.874Q306.953 422.85 305.578 425.865Q304.202 428.879 302.91 431.93Q301.618 434.982 300.41 438.067Q299.203 441.153 298.08 444.271Q296.958 447.388 295.921 450.535Q294.885 453.683 293.936 456.857Q292.986 460.032 292.124 463.232Q291.262 466.431 290.489 469.653Q289.715 472.875 289.031 476.117Q288.346 479.359 287.751 482.619Q287.155 485.878 286.65 489.153C285.23 498.906 285.258 508.756 283.998 518.461L256.522 518.475Z"
     id="path72" />
  <path
     fill="#FBB932"
     d="M459.926 495.709L485.007 503.297L484.937 707.293L484.851 762.87C484.836 771.726 483.743 782.126 485.385 790.792C486.397 796.134 490.768 802.348 493.217 807.258Q497.009 814.804 500.063 822.678C495.586 836.426 495.849 873.62 496.725 888.969C491.647 881.948 487.576 873.374 483.142 865.864C476.323 854.318 468.862 842.953 462.535 831.143C461.54 829.286 460.339 827.094 459.934 825.021C458.501 817.678 459.544 807.589 459.576 800.006L459.762 745.231L459.926 495.709Z"
     id="path73" />
  <path
     fill="#0E594D"
     d="M739.991 514.179C750.058 517.06 759.777 520.464 769.986 522.986C769.83 555.058 765.312 585.018 755.001 615.408C752.95 621.453 740.798 648.082 740.657 651.488C740.649 651.56 740.657 651.636 740.634 651.705C738.256 658.706 731.459 667.357 727.292 673.623C695.511 721.428 650.123 756.673 600.528 784.66L600.548 743.69C607.783 740.003 614.536 734.932 621.155 730.255C637.06 719.013 652.27 707.354 666.068 693.566C702.038 657.624 727.929 610.458 736.558 560.173C739.176 544.914 739.992 529.631 739.991 514.179Z"
     id="path74" />
  <path
     fill="#D36D2E"
     d="M539.452 499.456C549.241 494.751 558.814 490.959 567.603 484.392C567.246 513.858 567.57 543.358 567.574 572.828L567.513 736.29L567.513 783.317C567.515 790.322 568.634 806.564 566.724 812.483C564.412 819.646 559.132 826.571 555.377 833.055C540.581 858.6 522.585 882.42 511.908 910.081C510.48 903.56 511.496 876.134 511.531 867.777C511.606 868.059 511.712 868.335 511.755 868.624C511.929 869.811 511.669 869.881 512.289 871.059C513.041 868.51 513.01 865.145 513.323 862.474Q514.199 854.66 515.736 846.948C519.318 829.619 530.112 812.31 539.282 797.358L539.452 499.456Z"
     id="path75" />
  <path
     fill="#0F8B54"
     d="M654 452.789C669.821 466.552 684.581 480.746 701.874 492.783C711.923 499.777 723.068 504.971 733.114 511.809C736.076 574.368 710.084 635.243 668.419 681.044C649.328 702.031 625.617 721.306 600.937 735.313C599.813 698.419 600.828 661.23 600.905 624.306L600.935 588.206C600.939 582.188 600.416 575.626 601.231 569.689C601.915 565.856 610.918 548.439 613.149 543.449L638.808 485.961C643.368 475.617 648.24 462.316 654 452.789Z"
     id="path76" />
  <path
     fill="#11DF9C"
     d="M694.359 536.009C696.755 535.805 698.799 535.617 700.778 537.208C702.001 538.191 702.73 539.534 702.702 541.137C702.661 543.578 700.982 545.318 699.228 546.76C698.591 546.862 697.891 547.006 697.241 547.014C695.609 547.035 694.157 546.585 692.981 545.428C691.815 544.281 691.353 542.755 691.445 541.158C691.581 538.802 692.717 537.575 694.359 536.009Z"
     id="path77" />
  <path
     fill="#11DF9C"
     d="M639.39 630.105C640.628 630.044 641.928 629.94 643.159 630.11Q643.562 630.169 643.957 630.271Q644.351 630.374 644.732 630.517Q645.114 630.661 645.478 630.844Q645.841 631.028 646.184 631.249Q646.526 631.471 646.842 631.727Q647.159 631.984 647.446 632.273Q647.734 632.562 647.989 632.88Q648.244 633.198 648.463 633.541C649.641 635.38 649.904 637.567 649.32 639.658C648.43 642.846 646.334 644.496 643.533 645.998C642.213 646.06 640.854 646.155 639.571 645.779C637.44 645.156 635.573 643.508 634.544 641.558C633.514 639.605 633.25 637.373 633.991 635.272C634.956 632.54 636.865 631.261 639.39 630.105Z"
     id="path78" />
  <path
     fill="#11DF9C"
     d="M677.045 569.09C680.082 568.927 682.933 569.026 685.792 570.181Q686.527 570.476 687.228 570.844Q687.929 571.212 688.588 571.65Q689.247 572.089 689.859 572.592Q690.47 573.096 691.026 573.659Q691.582 574.222 692.078 574.84Q692.573 575.457 693.003 576.122Q693.433 576.787 693.792 577.493Q694.152 578.198 694.437 578.937Q694.732 579.686 694.95 580.461Q695.168 581.236 695.307 582.029Q695.446 582.823 695.503 583.626Q695.561 584.429 695.537 585.234Q695.513 586.038 695.408 586.837Q695.303 587.635 695.118 588.418Q694.933 589.202 694.669 589.963Q694.406 590.724 694.067 591.454C691.761 596.319 687.909 598.558 683.061 600.269C679.302 600.732 675.778 600.435 672.361 598.684Q671.637 598.308 670.956 597.86Q670.275 597.411 669.644 596.895Q669.013 596.379 668.438 595.8Q667.864 595.221 667.352 594.587Q666.84 593.952 666.397 593.267Q665.953 592.583 665.582 591.857Q665.212 591.13 664.918 590.37Q664.625 589.609 664.411 588.822Q664.19 588.046 664.049 587.253Q663.907 586.459 663.846 585.655Q663.784 584.851 663.804 584.045Q663.823 583.238 663.924 582.438Q664.024 581.638 664.204 580.852Q664.384 580.066 664.641 579.302Q664.899 578.538 665.232 577.804Q665.565 577.069 665.97 576.372C668.494 572.117 672.385 570.174 677.045 569.09Z"
     id="path79" />
  <path
     fill="#0AB083"
     d="M425.037 735.918C419.56 732.716 414.042 729.504 408.698 726.084C352.043 689.823 311.321 638.795 296.926 572.262C283.777 511.484 294.632 450.872 328.394 398.622C354.199 358.686 392.753 326.106 437.199 308.85C449.703 303.995 462.472 300.615 475.572 297.807C475.443 306.795 474.462 315.842 473.755 324.805Q471.862 347.705 470.459 370.64C456.132 375.261 442.421 384.982 430.25 393.716Q428.409 389.809 426.216 386.089C420.16 375.909 410.533 367.24 398.821 364.412C390.39 362.376 380.707 363.351 373.321 368.098Q372.772 368.454 372.241 368.836Q371.711 369.217 371.199 369.625Q370.687 370.032 370.196 370.464Q369.705 370.896 369.236 371.351Q368.766 371.806 368.319 372.284Q367.873 372.761 367.45 373.26Q367.027 373.759 366.628 374.277Q366.23 374.796 365.858 375.334Q365.485 375.871 365.14 376.426Q364.794 376.981 364.475 377.552Q364.157 378.124 363.867 378.71Q363.577 379.296 363.316 379.895Q363.054 380.495 362.823 381.106Q362.591 381.718 362.389 382.34Q362.187 382.962 362.016 383.593Q361.845 384.224 361.705 384.863C360.462 390.612 361.106 396.753 364.455 401.698Q364.703 402.066 364.971 402.421Q365.238 402.776 365.523 403.117Q365.808 403.458 366.11 403.784Q366.412 404.11 366.73 404.42Q367.049 404.73 367.383 405.023Q367.717 405.316 368.065 405.591Q368.414 405.867 368.776 406.124Q369.138 406.381 369.513 406.62Q369.888 406.858 370.275 407.077Q370.662 407.296 371.059 407.494Q371.457 407.693 371.864 407.871Q372.271 408.049 372.687 408.205Q373.103 408.362 373.526 408.497Q373.949 408.633 374.379 408.746Q374.808 408.859 375.243 408.95Q375.678 409.041 376.117 409.11C380.843 409.875 386.381 408.8 390.229 405.853C391.75 404.689 392.874 403.105 394.495 402.046C395.436 401.432 394.962 401.549 396.103 401.794C396.875 404.256 394.18 408.536 393.963 411.279C393.53 416.744 394.013 422.703 393.984 428.217C393.946 435.634 393.13 444.058 394.143 451.374C394.447 453.571 395.034 455.346 396.56 456.969C400.289 458.704 419.763 457.301 425.013 457.168L425.037 735.918Z"
     id="path80" />
  <path
     fill="#11DF9C"
     d="M331.002 468.983C332.141 468.958 333.455 468.869 334.548 469.241C336.412 469.877 337.869 471.052 338.798 472.807C339.6 474.322 339.721 476.087 339.218 477.718C338.443 480.226 336.759 481.349 334.534 482.51C333.576 482.523 332.614 482.563 331.672 482.353C329.634 481.897 327.651 480.522 326.652 478.668C325.833 477.15 325.656 475.408 326.192 473.764C327 471.288 328.809 470.143 331.002 468.983Z"
     id="path81" />
  <path
     fill="#11DF9C"
     d="M373.893 562.069C375.802 562.092 377.49 562.217 379.24 563.05C382.034 564.378 384.019 566.93 384.879 569.875C385.825 573.115 385.411 576.772 383.614 579.645C381.86 582.448 379.586 583.509 376.487 584.294C374.262 584.283 372.097 584.228 370.093 583.155Q369.597 582.895 369.131 582.585Q368.665 582.275 368.233 581.918Q367.802 581.562 367.409 581.162Q367.016 580.763 366.667 580.326Q366.317 579.889 366.015 579.418Q365.712 578.947 365.459 578.447Q365.207 577.947 365.007 577.424Q364.808 576.901 364.663 576.36Q364.511 575.809 364.414 575.245Q364.318 574.681 364.278 574.111Q364.237 573.54 364.254 572.969Q364.271 572.397 364.344 571.83Q364.418 571.263 364.547 570.706Q364.677 570.148 364.861 569.607Q365.045 569.065 365.282 568.545Q365.519 568.024 365.806 567.53C367.704 564.294 370.379 562.969 373.893 562.069Z"
     id="path82" />
  <path
     fill="#11DF9C"
     d="M375.423 620.568C378.898 620.38 382.109 620.672 385.173 622.458C388.603 624.456 390.887 627.684 391.802 631.534C392.781 635.652 392.134 640.288 389.826 643.864C387.213 647.914 383.685 649.481 379.16 650.508C376.135 650.623 373.153 650.197 370.419 648.834Q369.751 648.507 369.122 648.112Q368.492 647.718 367.906 647.26Q367.321 646.802 366.786 646.286Q366.251 645.77 365.772 645.201Q365.294 644.632 364.877 644.017Q364.461 643.401 364.11 642.746Q363.76 642.09 363.479 641.402Q363.199 640.714 362.991 640C361.809 635.94 362.593 631.443 364.775 627.859C367.301 623.711 370.843 621.73 375.423 620.568Z"
     id="path83" />
</svg>
