<?xml version="1.0" encoding="UTF-8" standalone="no"?>
<svg
   width="380.67053"
   height="582.24371"
   version="1.1"
   id="svg35"
   sodipodi:docname="people.svg"
   inkscape:version="1.3.2 (091e20ef0f, 2023-11-25)"
   xmlns:inkscape="http://www.inkscape.org/namespaces/inkscape"
   xmlns:sodipodi="http://sodipodi.sourceforge.net/DTD/sodipodi-0.dtd"
   xmlns="http://www.w3.org/2000/svg"
   xmlns:svg="http://www.w3.org/2000/svg">
  <defs
     id="defs35" />
  <sodipodi:namedview
     id="namedview35"
     pagecolor="#ffffff"
     bordercolor="#000000"
     borderopacity="0.25"
     inkscape:showpageshadow="2"
     inkscape:pageopacity="0.0"
     inkscape:pagecheckerboard="0"
     inkscape:deskcolor="#d1d1d1"
     inkscape:zoom="0.72851562"
     inkscape:cx="190.79893"
     inkscape:cy="158.54155"
     inkscape:window-width="1920"
     inkscape:window-height="1011"
     inkscape:window-x="0"
     inkscape:window-y="0"
     inkscape:window-maximized="1"
     inkscape:current-layer="svg35" />
  <path
     fill="#703922"
     d="m 156.46454,6.239125 c 4.71,-0.859 9.446,-2.844 14.169,-3.918 q 3.032,-0.676 6.1,-1.156 3.069,-0.48 6.162,-0.763 3.093,-0.282 6.198,-0.366 3.105,-0.085 6.209,0.03 3.104,0.115 6.194,0.428 3.09,0.313 6.154,0.823 3.064,0.511 6.089,1.216 3.024,0.705 5.998,1.603 c 3.777,1.131 7.362,2.647 10.994,4.174 q 1.057,0.454 2.102,0.934 1.045,0.481 2.078,0.986 1.033,0.506 2.054,1.038 1.02,0.531 2.027,1.087 1.007,0.556 1.999,1.138 0.993,0.581 1.971,1.186 0.978,0.605 1.941,1.235 0.963,0.629 1.91,1.282 0.947,0.653 1.878,1.329 0.93,0.677 1.844,1.376 0.913,0.699 1.809,1.42 0.896,0.721 1.774,1.465 0.878,0.743 1.737,1.508 0.859,0.764 1.7,1.55 0.84,0.786 1.66,1.592 0.82,0.806 1.621,1.633 0.8,0.826 1.58,1.672 0.779,0.846 1.537,1.711 0.759,0.865 1.496,1.748 0.736,0.883 1.451,1.785 0.715,0.901 1.407,1.819 0.692,0.919 1.362,1.855 0.669,0.935 1.315,1.887 0.646,0.952 1.268,1.919 0.623,0.968 1.221,1.95 0.598,0.983 1.172,1.98 0.573,0.997 1.122,2.008 0.549,1.011 1.073,2.035 0.524,1.024 1.022,2.061 0.498,1.036 0.971,2.085 0.472,1.049 0.919,2.109 0.446,1.06 0.866,2.131 c 7.571,19.124 5.63,38.993 5.583,59.081995 6.572,1.055 12.206,3.157 16.313,8.727 5.228,7.093 6.36,16.972 4.919,25.473 q -0.434,2.469 -1.177,4.862 -0.744,2.393 -1.786,4.673 c -2.978,4.573 -5.768,8.17 -10.35,11.257 -4.276,0.945 -8.355,1.359 -12.733,1.43 -2.238,10.26 -4.927,20.323 -10.322,29.454 q -1.749,2.963 -3.719,5.784 -1.97,2.821 -4.151,5.482 -2.18,2.662 -4.558,5.149 -2.378,2.487 -4.939,4.784 c -2.044,1.843 -8.357,6.146 -9.061,8.494 0.386,13.371 -0.077,26.765 0.383,40.123 2.687,0.999 5.404,1.93 7.97,3.215 l -43.349,43.642 c -5.538,5.528 -10.82,11.364 -16.49,16.75 -1.038,0.755 -2.289,2.059 -3.564,2.125 -21.648,-20.317 -43.522,-41.283 -63.556,-63.195 2.082,-1.08 4.313,-1.969 6.453,-2.935 0.375,-13.574 0.08,-27.234 0.091,-40.817 -1.229,-1.805 -3.513,-3.334 -5.168,-4.729 -15.018,-12.656 -24.694,-33.259 -26.33,-52.648 -7.403997,0.179 -12.196997,-0.239 -18.850997,-3.824 -3.054,-2.576 -5.225,-5.084 -7.097,-8.611 -1.96,-5.159 -3.197,-10.092 -3.187,-15.65 0.015,-7.913 2.259,-16.621 8.145,-22.222 4.754,-4.523 9.916,-5.301 16.174,-5.019 -0.075,-18.937 -1.412,-38.604995 4.500997,-56.848995 7.776,-23.993 23.869,-42.07 46.209,-53.55 3.102,-1.47 6.323,-2.725 9.493,-4.042 z"
     id="path30" />
  <path
     fill="#3e1205"
     d="m 156.46454,6.239125 c 4.71,-0.859 9.446,-2.844 14.169,-3.918 q 3.032,-0.676 6.1,-1.156 3.069,-0.48 6.162,-0.763 3.093,-0.282 6.198,-0.366 3.105,-0.085 6.209,0.03 3.104,0.115 6.194,0.428 3.09,0.313 6.154,0.823 3.064,0.511 6.089,1.216 3.024,0.705 5.998,1.603 c 3.777,1.131 7.362,2.647 10.994,4.174 q 1.057,0.454 2.102,0.934 1.045,0.481 2.078,0.986 1.033,0.506 2.054,1.038 1.02,0.531 2.027,1.087 1.007,0.556 1.999,1.138 0.993,0.581 1.971,1.186 0.978,0.605 1.941,1.235 0.963,0.629 1.91,1.282 0.947,0.653 1.878,1.329 0.93,0.677 1.844,1.376 0.913,0.699 1.809,1.42 0.896,0.721 1.774,1.465 0.878,0.743 1.737,1.508 0.859,0.764 1.7,1.55 0.84,0.786 1.66,1.592 0.82,0.806 1.621,1.633 0.8,0.826 1.58,1.672 0.779,0.846 1.537,1.711 0.759,0.865 1.496,1.748 0.736,0.883 1.451,1.785 0.715,0.901 1.407,1.819 0.692,0.919 1.362,1.855 0.669,0.935 1.315,1.887 0.646,0.952 1.268,1.919 0.623,0.968 1.221,1.95 0.598,0.983 1.172,1.98 0.573,0.997 1.122,2.008 0.549,1.011 1.073,2.035 0.524,1.024 1.022,2.061 0.498,1.036 0.971,2.085 0.472,1.049 0.919,2.109 0.446,1.06 0.866,2.131 c 7.571,19.124 5.63,38.993 5.583,59.081995 l -6.559,2.876 c 0.403,-8.981 1.08,-18.366 0.348,-27.329995 -0.878,-10.759 -5.625,-19.392 -13.728,-26.37 -25.38,0.902 -50.875,0.41 -76.27,0.385 l -76.03,0.012 c -13.232,13.972 -13.639,31.38 -13.717,49.553995 -0.004,1.093 0.307,3.235 -0.555997,3.855 l -3.428,-1.208 c -0.075,-18.937 -1.412,-38.604995 4.500997,-56.848995 7.776,-23.993 23.869,-42.07 46.209,-53.55 3.102,-1.47 6.323,-2.725 9.493,-4.042 z"
     id="path31" />
  <path
     fill="#864929"
     d="m 113.96254,68.479125 76.03,-0.012 0.268,183.735005 c -22.065,0.18499 -39.662,-6.045 -57.685,-18.819 -1.229,-1.805 -3.513,-3.334 -5.168,-4.729 -15.018,-12.656 -24.694,-33.25901 -26.33,-52.64801 -7.403997,0.179 -12.196997,-0.239 -18.850997,-3.82399 -3.054,-2.576 -5.225,-5.084 -7.097,-8.611 -1.96,-5.159 -3.197,-10.092 -3.187,-15.65 0.015,-7.913 2.259,-16.621 8.145,-22.222 4.754,-4.523 9.916,-5.301 16.174,-5.019 l 3.428,1.208 c 0.862997,-0.62 0.551997,-2.762 0.555997,-3.855 0.078,-18.174005 0.485,-35.582005 13.717,-49.554005 z"
     id="path32" />
  <path
     fill="#552a20"
     d="m 126.03154,277.13513 c 20.034,21.912 41.908,42.878 63.556,63.195 1.275,-0.066 2.526,-1.37 3.564,-2.125 5.67,-5.386 10.952,-11.222 16.49,-16.75 l 43.349,-43.642 q 22.013,10.101 43.872,20.533 c 7.261,3.47799 14.442,7.26099 21.795,10.529 11.744,5.69799 24.184,10.98299 35.062,18.215 9.998,8.504 16.821,17.544 22.056,29.562 0.856,3.083 1.883,6.082 2.946,9.099 1.164,7.751 1.652,15.359 1.712,23.2 l 0.237,147.698 c -16.98,7.609 -33.99,15.178 -51.44,21.65499 -9.645,3.28201 -19.328,6.59501 -29.201,9.13401 -33.257,8.90999 -79.061,16.83 -113.613,14.34199 -37.152,-1.519 -67.661,-5.058 -103.729997,-13.91099 -10.422,-2.632 -21.353,-5.14701 -31.255,-9.369 -6.676,-3.079 -13.807,-5.44001 -20.612,-8.27 -10.305,-4.285 -20.431,-8.992 -30.75399986,-13.231 l 0.068,-149.432 c -0.408,-8.723 0.06,-16.882 2.22599996,-25.372 0.537,-2.019 1.375,-4.039 2.058,-6.02 q 0.847,-2.048 1.828,-4.036 0.981,-1.987 2.092,-3.905 1.111,-1.918 2.3469999,-3.757 1.237,-1.84 2.592,-3.593 1.356,-1.753 2.826,-3.412 1.47,-1.659 3.047,-3.217 1.576,-1.557 3.253,-3.006 1.677,-1.45 3.447,-2.784 c 10.954,-6.763 23.601,-12.509 35.282,-17.977 l 2.562,-1.493 c 20.955,-10.254 41.348997,-21.658 62.337997,-31.86 z"
     id="path33" />
  <path
     fill="#3e1205"
     d="m 299.50154,421.04813 28.762,0.065 c 1.011,14.744 0.384,29.885 0.411,44.676 q -0.184,46.261 0.556,92.515 c -9.645,3.282 -19.328,6.595 -29.201,9.134 -1.432,-4.064 -0.381,-40.381 -0.369,-47.093 z"
     id="path34" />
  <path
     fill="#3e1205"
     d="m 51.359543,422.54012 31.346,0.016 -0.019,145.313 c -10.422,-2.632 -21.353,-5.147 -31.255,-9.369 0.276,-45.308 -0.701,-90.668 -0.072,-135.96 z"
     id="path35" />
</svg>
