<?xml version="1.0" encoding="UTF-8" standalone="no"?>
<svg
   width="1024"
   height="1024"
   version="1.1"
   id="svg61"
   sodipodi:docname="religion.svg"
   inkscape:version="1.3.2 (091e20ef0f, 2023-11-25)"
   xmlns:inkscape="http://www.inkscape.org/namespaces/inkscape"
   xmlns:sodipodi="http://sodipodi.sourceforge.net/DTD/sodipodi-0.dtd"
   xmlns="http://www.w3.org/2000/svg"
   xmlns:svg="http://www.w3.org/2000/svg">
  <defs
     id="defs61" />
  <sodipodi:namedview
     id="namedview61"
     pagecolor="#ffffff"
     bordercolor="#000000"
     borderopacity="0.25"
     inkscape:showpageshadow="2"
     inkscape:pageopacity="0.0"
     inkscape:pagecheckerboard="0"
     inkscape:deskcolor="#d1d1d1"
     inkscape:zoom="0.70507812"
     inkscape:cx="512"
     inkscape:cy="511.29086"
     inkscape:window-width="1920"
     inkscape:window-height="1011"
     inkscape:window-x="0"
     inkscape:window-y="0"
     inkscape:window-maximized="1"
     inkscape:current-layer="svg61" />
  <path
     fill="#FDFEFD"
     d="M204.534 691.014C205.825 690.986 207.148 690.936 208.407 691.266C210.529 691.822 212.473 693.292 213.535 695.217C214.661 697.259 214.79 699.534 214.056 701.735C213.066 704.709 211.122 705.969 208.432 707.312C207.212 707.344 206.017 707.354 204.829 707.036Q204.417 706.927 204.019 706.776Q203.62 706.626 203.239 706.437Q202.858 706.247 202.497 706.02Q202.137 705.793 201.801 705.531Q201.466 705.269 201.158 704.974Q200.851 704.68 200.575 704.355Q200.298 704.031 200.056 703.681Q199.814 703.331 199.608 702.958C198.487 700.909 198.361 698.506 199.129 696.314C200.087 693.582 202.04 692.243 204.534 691.014Z"
     id="path2" />
  <path
     fill="#FDFEFD"
     d="M839.595 621.079C840.943 620.971 842.385 620.801 843.728 621.008C845.961 621.353 848.074 622.69 849.366 624.538C850.693 626.439 851.088 628.815 850.581 631.065C849.852 634.305 847.802 636.249 845.135 638.014C843.785 638.342 842.23 638.455 840.863 638.173C838.629 637.712 836.607 636.443 835.391 634.49C833.988 632.239 833.743 629.555 834.438 627.022C835.24 624.094 837.095 622.592 839.595 621.079Z"
     id="path3" />
  <path
     fill="#FDFEFD"
     d="M258.631 278.567C260.126 278.351 261.889 278.23 263.377 278.541C265.802 279.049 268.076 280.86 269.254 283.017Q269.455 283.389 269.617 283.781Q269.779 284.172 269.9 284.577Q270.021 284.983 270.1 285.399Q270.179 285.815 270.214 286.237Q270.25 286.659 270.242 287.082Q270.234 287.505 270.183 287.925Q270.132 288.346 270.038 288.758Q269.944 289.171 269.808 289.572C268.818 292.483 266.886 293.878 264.239 295.212C263.34 295.337 262.41 295.471 261.501 295.449C259.013 295.387 256.347 294.231 254.783 292.268C253.303 290.41 252.829 288.054 253.19 285.735C253.738 282.211 255.83 280.489 258.631 278.567Z"
     id="path4" />
  <path
     fill="#FDFEFD"
     d="M203.569 404.113C204.93 404.094 206.44 404.202 207.754 404.582C209.898 405.203 211.729 406.934 212.724 408.896C213.893 411.201 213.918 413.942 212.96 416.322C211.717 419.411 209.445 420.898 206.471 422.107C205.131 422.085 203.93 421.974 202.648 421.549Q202.183 421.39 201.736 421.184Q201.289 420.978 200.866 420.727Q200.442 420.476 200.047 420.184Q199.651 419.891 199.288 419.56Q198.924 419.229 198.596 418.862Q198.268 418.495 197.98 418.097Q197.691 417.698 197.444 417.272Q197.198 416.847 196.996 416.398C195.994 414.124 195.921 411.391 196.995 409.127C198.378 406.212 200.632 405.064 203.569 404.113Z"
     id="path5" />
  <path
     fill="#FDFEFD"
     d="M798.841 328.546C800.465 328.286 802.309 328.128 803.927 328.517Q804.388 328.629 804.834 328.789Q805.281 328.949 805.708 329.154Q806.135 329.36 806.538 329.609Q806.942 329.859 807.316 330.149Q807.692 330.439 808.034 330.767Q808.377 331.094 808.683 331.456Q808.989 331.818 809.256 332.21Q809.523 332.602 809.747 333.02C810.847 335.113 810.977 337.609 810.261 339.845C809.264 342.957 807.226 344.446 804.478 345.971C803.332 346.04 802.133 346.138 800.99 346.009C798.422 345.718 795.85 343.902 794.461 341.771Q794.226 341.408 794.029 341.023Q793.833 340.639 793.676 340.236Q793.519 339.833 793.404 339.417Q793.288 339 793.216 338.574Q793.143 338.148 793.114 337.717Q793.085 337.285 793.1 336.854Q793.115 336.422 793.173 335.993Q793.232 335.565 793.333 335.145C794.079 331.953 796.158 330.188 798.841 328.546Z"
     id="path6" />
  <path
     fill="#FDFEFD"
     d="M166.893 509.857C167.804 509.879 168.908 509.811 169.741 510.259C173.182 512.109 172.272 520.181 173.236 523.605C175.599 526.404 181.834 525.128 185.243 526.014C186.698 526.392 187.415 527.013 188.215 528.281C188.487 529.628 188.507 530.179 187.958 531.448C185.327 533.947 180.73 533.259 177.34 533.796C169.612 535.021 173.752 545.172 170.08 550.115C168.582 550.151 167.652 550.187 166.302 549.405C163.468 546.088 165.202 541.742 164.27 537.809C162.586 530.706 153.976 535.41 149.871 532.231C148.668 531.299 148.748 530.922 148.595 529.502C150.999 522.513 159.194 528.387 162.926 524.202C166.334 520.381 162.65 514.178 166.893 509.857Z"
     id="path7" />
  <path
     fill="#FDFEFD"
     d="M850.491 465.945C851.697 465.9 853.069 465.761 854.205 466.243C858.783 468.183 855.425 477.097 857.302 481.009C859.663 485.931 866.92 482.401 870.887 484.198C872.051 484.726 873.274 485.7 873.642 487.005C874.045 488.433 873.857 488.878 873.345 490.188C870.202 493.146 861.707 492.298 857.51 492.525C856.505 497.705 857.859 504.962 854.792 509.258C853.762 509.438 852.658 509.548 851.633 509.263C846.021 507.701 849.944 497.799 847.452 493.933C845.41 490.764 837.816 492.395 834.405 491.452C832.435 490.907 831.707 489.519 830.841 487.851C830.855 487.068 830.67 486.503 831.212 485.872C833.526 483.178 839.53 483.6 842.79 483.453C844.248 483.387 845.978 483.292 847.214 482.394C848.995 481.102 847.951 471.201 848.557 468.731C848.818 467.666 849.773 466.737 850.491 465.945Z"
     id="path8" />
  <path
     fill="#FDFEFD"
     d="M725.828 202.465C727.162 202.74 728.532 202.946 729.525 203.988C732.25 206.85 730.385 211.961 730.727 215.498C731.518 223.676 743.067 218.274 747.781 222.197C748.397 223.339 748.818 224.362 748.425 225.689C746.918 230.777 736.857 227.471 733.178 229.505C728.874 231.885 731.817 240.537 730.078 244.494C729.377 246.089 728.283 246.559 726.805 247.262C718.623 243.752 725.118 236.965 722.236 231.613C719.875 227.228 710.718 229.648 706.524 228.004C705.191 227.481 704.314 226.552 703.952 225.144C703.773 224.447 703.954 223.262 704.369 222.706C706.792 219.458 717.107 220.157 721.096 219.515C722.689 214.884 721.798 210.645 722.825 206.099C723.274 204.109 724.206 203.466 725.828 202.465Z"
     id="path9" />
  <path
     fill="#FDFEFD"
     d="M302.462 196.939C303.629 196.916 305.078 196.776 306.131 197.36C310.091 199.557 307.338 208.135 308.73 211.812C311.097 218.063 319.954 214.27 324.497 216.547C325.615 217.107 326.461 217.914 326.734 219.193C326.979 220.339 326.856 221.39 326.053 222.278C323.785 224.787 316.509 224.158 313.245 224.659C304.883 225.942 310.031 236.894 305.983 242.306C304.472 242.459 303.771 242.444 302.316 241.85C298.806 238.471 301.214 232.246 299.675 227.903C297.039 220.463 288.804 226.186 283.818 223.307C282.731 222.679 282.018 221.794 281.823 220.517C281.619 219.19 281.91 218.661 282.549 217.589C286.155 215.059 291.23 216.334 295.388 215.74C302.572 214.713 298.626 201.914 302.462 196.939Z"
     id="path10" />
  <path
     fill="#10AE8D"
     d="M514.542 125.913C521.997 136.577 528.076 148.035 535.907 158.505C525.385 162.425 518.627 166.441 512.398 176.005C505.767 168.747 501.239 163.463 492.024 159.426C500.945 149.339 507.571 137.376 514.542 125.913Z"
     id="path11" />
  <path
     fill="#47C4B3"
     d="M424.085 236.561C425.189 239.65 421.046 253.196 420.101 257.115C410.157 259.162 399.294 264.926 390.303 269.628Q386.245 271.724 382.256 273.947Q378.266 276.17 374.349 278.518Q370.431 280.866 366.59 283.336Q362.748 285.806 358.987 288.396Q355.225 290.986 351.547 293.694Q347.868 296.401 344.277 299.223Q340.687 302.045 337.186 304.979Q333.686 307.913 330.28 310.955Q326.874 313.998 323.566 317.147Q320.257 320.295 317.05 323.547Q313.842 326.798 310.739 330.149Q307.636 333.5 304.64 336.947Q301.644 340.394 298.758 343.933Q295.872 347.473 293.099 351.102Q290.326 354.731 287.669 358.446Q285.012 362.16 282.473 365.957Q280.647 368.68 278.89 371.448Q277.133 374.216 275.446 377.027Q273.759 379.838 272.142 382.69Q270.525 385.542 268.98 388.433Q267.435 391.325 265.963 394.254Q264.491 397.183 263.092 400.148Q261.693 403.113 260.369 406.112Q259.045 409.111 257.796 412.142Q256.547 415.174 255.374 418.235Q254.201 421.296 253.104 424.386Q252.008 427.476 250.99 430.592Q249.971 433.708 249.03 436.848Q248.09 439.989 247.228 443.152Q246.366 446.315 245.583 449.499Q244.8 452.682 244.097 455.884Q243.394 459.087 242.771 462.305Q242.148 465.524 241.606 468.757Q241.064 471.99 240.602 475.236Q240.141 478.482 239.76 481.738Q239.38 484.995 239.081 488.259Q238.782 491.524 238.565 494.795Q238.348 498.066 238.212 501.342Q238.076 504.618 238.022 507.896Q237.969 511.174 237.997 514.452Q238.025 517.73 238.135 521.007Q238.244 524.283 238.436 527.556Q238.628 530.829 238.901 534.096Q239.174 537.363 239.529 540.622Q239.883 543.881 240.319 547.13Q240.755 550.38 241.272 553.617Q241.789 556.854 242.387 560.078Q242.984 563.301 243.662 566.509C249.832 596.287 260.69 623.428 275.588 649.857C278.785 655.529 281.816 661.597 285.715 666.819C283.178 673.291 282.519 679.584 281.942 686.453C281.875 687.248 281.917 686.952 281.569 687.791Q278.213 683.499 275.026 679.08Q271.839 674.661 268.827 670.122Q265.814 665.582 262.98 660.929Q260.147 656.276 257.496 651.516Q254.845 646.756 252.382 641.896Q249.919 637.037 247.646 632.085Q245.373 627.134 243.295 622.097Q241.217 617.061 239.336 611.948C213.879 542.587 215.729 461.878 246.895 394.595Q248.241 391.709 249.648 388.853Q251.055 385.996 252.523 383.17Q253.99 380.343 255.517 377.549Q257.044 374.755 258.629 371.993Q260.215 369.231 261.859 366.504Q263.503 363.777 265.204 361.085Q266.905 358.393 268.663 355.738Q270.421 353.083 272.234 350.465Q274.048 347.848 275.917 345.269Q277.786 342.691 279.708 340.153Q281.631 337.614 283.608 335.117Q285.584 332.62 287.613 330.166Q289.641 327.711 291.722 325.3Q293.802 322.889 295.933 320.523Q298.064 318.157 300.244 315.836Q302.424 313.515 304.654 311.241Q306.883 308.967 309.16 306.741Q311.436 304.514 313.76 302.337Q316.083 300.159 318.452 298.031Q320.822 295.904 323.235 293.826Q325.649 291.749 328.106 289.724Q330.563 287.698 333.062 285.725Q335.562 283.752 338.102 281.832Q340.643 279.912 343.224 278.047Q345.805 276.181 348.424 274.371Q351.044 272.56 353.701 270.806Q356.359 269.051 359.053 267.354Q361.747 265.656 364.476 264.015Q367.206 262.375 369.969 260.793Q372.733 259.211 375.529 257.687Q378.326 256.164 381.154 254.7Q383.982 253.236 386.84 251.833C398.952 245.858 411.431 241.22 424.085 236.561Z"
     id="path12" />
  <path
     fill="#47C4B3"
     d="M600.062 233.167Q603.569 234.407 607.045 235.734Q610.521 237.061 613.962 238.474Q617.404 239.887 620.81 241.384Q624.215 242.882 627.583 244.463Q630.95 246.044 634.277 247.709Q637.605 249.373 640.89 251.119Q644.174 252.866 647.415 254.693Q650.656 256.52 653.85 258.427Q657.045 260.333 660.191 262.319Q663.337 264.304 666.433 266.367Q669.529 268.43 672.573 270.569Q675.617 272.708 678.607 274.921Q681.597 277.135 684.532 279.422Q687.466 281.709 690.343 284.068Q693.219 286.427 696.037 288.857Q698.854 291.286 701.611 293.785Q704.367 296.283 707.06 298.85Q709.754 301.416 712.383 304.048Q715.012 306.68 717.576 309.376Q720.139 312.073 722.634 314.832Q725.13 317.591 727.556 320.411Q729.983 323.231 732.338 326.111Q734.694 328.99 736.978 331.927Q739.262 334.864 741.472 337.856Q743.682 340.849 745.818 343.895Q747.953 346.942 750.012 350.04Q752.072 353.138 754.054 356.287Q756.035 359.435 757.939 362.632Q759.842 365.828 761.666 369.071Q763.489 372.314 765.232 375.601Q766.974 378.888 768.635 382.217Q770.295 385.546 771.873 388.915Q773.454 392.207 774.954 395.537Q776.453 398.867 777.871 402.233Q779.288 405.598 780.622 408.998Q781.956 412.398 783.206 415.829Q784.456 419.261 785.622 422.722Q786.787 426.183 787.867 429.672Q788.947 433.16 789.94 436.675Q790.934 440.189 791.841 443.727Q792.748 447.264 793.567 450.823Q794.387 454.382 795.119 457.96Q795.85 461.538 796.494 465.133Q797.137 468.727 797.692 472.337Q798.247 475.947 798.713 479.569Q799.179 483.191 799.556 486.824Q799.933 490.456 800.22 494.097Q800.508 497.738 800.705 501.384Q800.903 505.031 801.011 508.681Q801.119 512.332 801.137 515.984Q801.155 519.636 801.083 523.287Q801.011 526.938 800.85 530.587Q800.688 534.235 800.437 537.879Q800.186 541.522 799.845 545.158Q799.504 548.794 799.074 552.421Q798.644 556.047 798.124 559.662Q797.605 563.277 796.997 566.878Q796.389 570.479 795.693 574.065Q794.996 577.65 794.212 581.216Q793.428 584.783 792.556 588.33Q791.684 591.876 790.725 595.4Q789.766 598.924 788.721 602.423Q787.676 605.922 786.545 609.395Q785.414 612.867 784.198 616.311C775.462 640.595 763.339 665.448 748.098 686.332C745.42 685.558 742.513 685.334 739.754 684.943C739.816 678.905 738.901 673.593 737.056 667.865C745.316 658.857 757.013 634.312 762.156 622.557C791.229 556.106 789.432 479.599 763.119 412.652Q761.975 409.803 760.772 406.979Q759.569 404.154 758.307 401.356Q757.044 398.557 755.724 395.786Q754.403 393.015 753.024 390.272Q751.646 387.529 750.21 384.815Q748.774 382.102 747.281 379.419Q745.789 376.736 744.24 374.085Q742.692 371.434 741.088 368.817Q739.484 366.199 737.826 363.615Q736.167 361.032 734.455 358.484Q732.743 355.935 730.978 353.424Q729.212 350.912 727.395 348.438Q725.577 345.964 723.708 343.529Q721.839 341.093 719.919 338.698Q717.999 336.302 716.029 333.948Q714.059 331.593 712.04 329.28Q710.021 326.967 707.955 324.697Q705.888 322.427 703.774 320.201Q701.66 317.975 699.499 315.794Q697.339 313.612 695.133 311.477Q692.928 309.341 690.678 307.253Q688.428 305.164 686.135 303.123Q683.841 301.082 681.506 299.09Q679.17 297.097 676.793 295.154Q674.416 293.211 671.999 291.319Q669.582 289.426 667.125 287.585Q664.669 285.743 662.175 283.954Q659.68 282.164 657.148 280.427Q654.617 278.691 652.05 277.008Q649.482 275.324 646.88 273.695Q644.278 272.066 641.642 270.492Q639.006 268.918 636.338 267.4C626.209 261.653 615.492 257.004 604.826 252.36C602.638 246.998 600.343 238.882 600.062 233.167Z"
     id="path13" />
  <path
     fill="#10AE8D"
     d="M604.826 252.36C615.492 257.004 626.209 261.653 636.338 267.4Q639.006 268.918 641.642 270.492Q644.278 272.066 646.88 273.695Q649.482 275.324 652.05 277.008Q654.617 278.691 657.148 280.427Q659.68 282.164 662.175 283.954Q664.669 285.743 667.125 287.585Q669.582 289.426 671.999 291.319Q674.416 293.211 676.793 295.154Q679.17 297.097 681.506 299.09Q683.841 301.082 686.135 303.123Q688.428 305.164 690.678 307.253Q692.928 309.341 695.133 311.477Q697.339 313.612 699.499 315.794Q701.66 317.975 703.774 320.201Q705.888 322.427 707.955 324.697Q710.021 326.967 712.04 329.28Q714.059 331.593 716.029 333.948Q717.999 336.302 719.919 338.698Q721.839 341.093 723.708 343.529Q725.577 345.964 727.395 348.438Q729.212 350.912 730.978 353.424Q732.743 355.935 734.455 358.484Q736.167 361.032 737.826 363.615Q739.484 366.199 741.088 368.817Q742.692 371.434 744.24 374.085Q745.789 376.736 747.281 379.419Q748.774 382.102 750.21 384.815Q751.646 387.529 753.024 390.272Q754.403 393.015 755.724 395.786Q757.044 398.557 758.307 401.356Q759.569 404.154 760.772 406.979Q761.975 409.803 763.119 412.652C789.432 479.599 791.229 556.106 762.156 622.557C757.013 634.312 745.316 658.857 737.056 667.865C732.729 658.44 726.5 652.734 717.771 647.351C719.341 643.286 722.093 639.317 724.1 635.411Q729.551 624.767 733.8 613.589C738.357 601.755 742.423 589.608 744.877 577.154C745.965 571.631 746.078 565.549 747.439 560.195C747.505 559.939 747.576 559.684 747.644 559.428L748.743 555.23C748.566 550.605 749.561 545.337 749.909 540.668C750.833 528.281 751.602 514.846 749.792 502.553C750.206 502.258 750.163 502.303 750.618 501.894C751.828 500.806 752.995 499.332 752.833 497.6C752.622 495.336 750.914 493.864 749.344 492.437C749.391 492.196 749.446 491.957 749.485 491.716C750.053 488.151 748.047 482.511 747.179 478.928C743.731 464.683 732.341 423.659 724.14 412.778C728.056 401.385 728.806 391.037 723.387 379.935C718.418 369.752 710.211 363.85 699.688 360.26C697.199 355.041 691.632 349.732 687.727 345.434C666.304 321.857 641.861 301.396 613.638 286.487C612.67 277.012 607.302 262.208 604.826 252.36Z"
     id="path14" />
  <path
     fill="#FDFEFD"
     d="M748.743 555.23C750.489 553.896 752.782 552.409 755.108 552.961C756.36 553.258 757.271 554.163 757.792 555.311C758.655 557.208 758.449 559.71 757.517 561.541C757.026 562.504 756.32 563.265 755.276 563.623C753.61 564.195 752.178 563.417 750.823 562.529C749.518 561.673 748.583 560.659 747.644 559.428L748.743 555.23Z"
     id="path15" />
  <path
     fill="#791348"
     d="M424.085 236.561L424.534 236.341C426.551 232.827 429.093 217.232 430.297 212.393C434.827 194.188 443.48 173.043 460.431 163.034C470.439 157.124 480.945 156.621 492.024 159.426C501.239 163.463 505.767 168.747 512.398 176.005C518.627 166.441 525.385 162.425 535.907 158.505C547.749 157.112 558.424 158.745 568.019 166.303C583.314 178.348 590.746 198.635 595.482 216.893C596.677 221.496 597.877 229.174 600.062 233.167C600.343 238.882 602.638 246.998 604.826 252.36C607.302 262.208 612.67 277.012 613.638 286.487C641.861 301.396 666.304 321.857 687.727 345.434C691.632 349.732 697.199 355.041 699.688 360.26C710.211 363.85 718.418 369.752 723.387 379.935C728.806 391.037 728.056 401.385 724.14 412.778C732.341 423.659 743.731 464.683 747.179 478.928C748.047 482.511 750.053 488.151 749.485 491.716C749.446 491.957 749.391 492.196 749.344 492.437C750.914 493.864 752.622 495.336 752.833 497.6C752.995 499.332 751.828 500.806 750.618 501.894C750.163 502.303 750.206 502.258 749.792 502.553C751.602 514.846 750.833 528.281 749.909 540.668C749.561 545.337 748.566 550.605 748.743 555.23L747.644 559.428C747.576 559.684 747.505 559.939 747.439 560.195C746.078 565.549 745.965 571.631 744.877 577.154C742.423 589.608 738.357 601.755 733.8 613.589Q729.551 624.767 724.1 635.411C722.093 639.317 719.341 643.286 717.771 647.351C726.5 652.734 732.729 658.44 737.056 667.865C738.901 673.593 739.816 678.905 739.754 684.943C742.513 685.334 745.42 685.558 748.098 686.332C760.488 690.76 769.94 696.605 775.68 708.887C780.554 719.315 780.62 731.424 776.657 742.154C774.726 747.381 771.435 753.364 767.23 757.089C760.379 763.157 751.854 767.499 743.986 772.11Q730.558 779.98 717.217 787.998L685.462 807.428C681.057 810.076 676.587 813.126 671.966 815.357C675.894 817.375 691.949 818.753 697.272 819.715C720.97 823.996 801.86 838.698 809.551 862.741C809.785 863.472 809.963 864.209 810.143 864.956C808.55 871.816 804.625 875.849 798.75 879.491C775.862 893.68 729.601 900.66 702.649 904.49Q683.422 907.158 664.127 909.287Q644.833 911.416 625.486 913.004Q606.14 914.592 586.756 915.638Q567.373 916.684 547.968 917.187Q528.562 917.69 509.151 917.65Q489.739 917.61 470.337 917.027Q450.934 916.444 431.555 915.318Q412.176 914.193 392.836 912.525C352.26 909.151 311.402 904.494 271.752 894.946C256.675 891.315 223.046 882.771 214.961 869.379C213.356 866.719 212.827 863.798 213.724 860.794C215.852 853.667 223.914 848.862 230.163 845.707C257.193 832.06 293.33 825.391 323.01 820.317C332.419 818.708 342.463 817.991 351.684 815.65C323.563 798.913 295.574 781.658 267.739 764.447C257.206 757.934 249.989 750.344 247.174 737.986Q246.941 736.986 246.759 735.975Q246.576 734.964 246.444 733.945Q246.312 732.927 246.23 731.902Q246.149 730.878 246.119 729.852Q246.089 728.825 246.11 727.798Q246.131 726.771 246.203 725.746Q246.275 724.722 246.398 723.702Q246.521 722.682 246.695 721.669Q246.868 720.657 247.092 719.654Q247.316 718.652 247.59 717.662Q247.863 716.672 248.186 715.696Q248.508 714.721 248.879 713.763Q249.249 712.805 249.667 711.866Q250.085 710.928 250.549 710.012Q251.013 709.095 251.522 708.203Q252.031 707.311 252.584 706.445C259.367 695.881 269.599 690.478 281.569 687.791C281.917 686.952 281.875 687.248 281.942 686.453C282.519 679.584 283.178 673.291 285.715 666.819C281.816 661.597 278.785 655.529 275.588 649.857C260.69 623.428 249.832 596.287 243.662 566.509Q242.984 563.301 242.387 560.078Q241.789 556.854 241.272 553.617Q240.755 550.38 240.319 547.13Q239.883 543.881 239.529 540.622Q239.174 537.363 238.901 534.096Q238.628 530.829 238.436 527.556Q238.244 524.283 238.135 521.007Q238.025 517.73 237.997 514.452Q237.969 511.173 238.022 507.896Q238.076 504.618 238.212 501.342Q238.348 498.066 238.565 494.795Q238.782 491.524 239.081 488.259Q239.38 484.994 239.76 481.738Q240.141 478.482 240.602 475.236Q241.064 471.99 241.606 468.757Q242.148 465.524 242.771 462.305Q243.394 459.087 244.097 455.884Q244.8 452.682 245.583 449.499Q246.366 446.315 247.228 443.152Q248.09 439.989 249.03 436.848Q249.971 433.708 250.99 430.592Q252.008 427.476 253.104 424.386Q254.201 421.296 255.374 418.235Q256.547 415.174 257.796 412.142Q259.045 409.111 260.369 406.112Q261.693 403.113 263.092 400.148Q264.491 397.183 265.963 394.254Q267.435 391.325 268.98 388.433Q270.525 385.542 272.142 382.69Q273.759 379.837 275.446 377.027Q277.133 374.216 278.89 371.448Q280.647 368.68 282.473 365.957Q285.012 362.16 287.669 358.446Q290.326 354.731 293.099 351.102Q295.872 347.473 298.758 343.933Q301.644 340.394 304.64 336.947Q307.636 333.5 310.739 330.149Q313.842 326.798 317.05 323.547Q320.257 320.295 323.566 317.147Q326.874 313.998 330.28 310.955Q333.686 307.913 337.186 304.979Q340.686 302.045 344.277 299.223Q347.868 296.401 351.547 293.694Q355.225 290.986 358.987 288.396Q362.748 285.806 366.59 283.336Q370.431 280.866 374.349 278.518Q378.266 276.17 382.256 273.947Q386.245 271.724 390.303 269.628C399.294 264.926 410.157 259.162 420.101 257.115C421.046 253.196 425.189 239.65 424.085 236.561Z"
     id="path16" />
  <path
     fill="#F5AC7B"
     d="M525.523 231.163C529.835 228.369 534.495 227.006 539.609 228.208C545.145 229.509 549.83 233.593 552.65 238.431C558.564 248.576 561.344 261.663 564.826 272.876C571.951 295.827 578.817 318.696 584.997 341.924C584.464 341.796 584.479 341.904 584.173 341.481C582.915 339.745 579.341 324.076 578.473 320.913C574.046 304.77 568.949 288.917 563.992 272.938C561.031 263.389 558.514 253.221 554.527 244.069C553.053 240.685 550.369 235.068 547.261 233.016C546.37 232.427 546.182 232.511 545.214 232.74C544.563 234.003 544.804 234.282 545.083 235.7L544.659 236.679Q544.085 235.884 543.457 235.132C541.385 232.62 538.275 230.447 534.927 230.222C531.531 229.994 529.318 231.293 526.803 233.39C526.99 232.711 527.335 232.028 527.608 231.377L525.523 231.163Z"
     id="path17" />
  <path
     fill="#DB8032"
     d="M520.058 190.811C526.086 200.753 523.365 212.999 525.495 223.831C522.707 225.621 520.124 227.031 517.569 229.198C517.453 216.836 515.654 202.506 520.058 190.811Z"
     id="path18" />
  <path
     fill="#DB8032"
     d="M503.487 188.834C508.828 201.002 507.034 217.375 507.1 230.513C504.639 227.91 502.205 226.075 499.045 224.339C499.161 212.302 499.747 200.372 503.487 188.834Z"
     id="path19" />
  <path
     fill="#DB8032"
     d="M578.23 210.931Q583.956 234.436 590.356 257.767C593.586 269.804 596.649 282.017 600.432 293.89C598.638 294.065 596.789 294.16 595.024 294.529C593.064 284.563 590.281 274.706 587.898 264.83Q583.507 246.896 580.349 228.705C579.329 222.995 577.574 216.714 578.23 210.931Z"
     id="path20" />
  <path
     fill="#DB8032"
     d="M505.265 239.971C506.523 243.002 507.383 245.807 507.77 249.089C508.678 256.793 508.013 264.952 507.795 272.705Q507.261 291.098 506.977 309.496L501.393 309.446C502.149 297.321 501.649 285.026 501.526 272.881C501.454 265.856 501.156 258.695 502.226 251.731C502.842 247.722 504.082 243.842 505.265 239.971Z"
     id="path21" />
  <path
     fill="#FDFEFD"
     d="M333.128 377.111C343.324 379.313 349.726 387.022 355.167 395.403C359.611 402.25 363.244 409.618 366.936 416.886C363.175 430.204 357.996 443.238 352.615 455.976C352.215 455.483 351.868 455.076 351.62 454.482C348.759 447.642 346.99 439.59 344.713 432.481C340.44 419.135 335.266 405.571 332.243 391.895C331.457 388.338 329.819 381.25 331.253 377.818L333.128 377.111Z"
     id="path22" />
  <path
     fill="#FDFEFD"
     d="M684.541 376.556C689.373 381.267 691.063 386.651 691.165 393.293C691.312 402.785 687.329 412.387 684.822 421.435Q681.752 432.667 679.577 444.105C678.657 449.104 677.51 467.251 675.734 470.399C668.177 453.541 661.814 436.033 655.216 418.784C661.95 402.963 667.934 384.407 684.541 376.556Z"
     id="path23" />
  <path
     fill="#E4BEBC"
     d="M326.539 521.162C326.337 494.157 328.585 466.66 324.068 439.922C322.966 433.396 321.301 426.856 319.304 420.547C317.076 413.508 313.707 406.311 313.211 398.891C312.827 393.139 314.412 387.252 318.36 382.939C322.4 378.526 327.352 377.252 333.128 377.111L331.253 377.818C329.819 381.25 331.457 388.338 332.243 391.895C335.266 405.571 340.44 419.135 344.713 432.481C346.99 439.59 348.759 447.642 351.62 454.482C351.868 455.076 352.215 455.483 352.615 455.976C344.816 477.99 335.121 499.434 326.539 521.162Z"
     id="path24" />
  <path
     fill="#089D81"
     d="M435.506 790.27C448.318 790.242 464.465 794.911 477.826 796.421C511.512 800.228 552.628 798.497 585.869 791.948C583.37 798.549 582.16 803.77 583.24 810.85C579.932 811.104 576.66 811.393 573.376 811.87C528.318 817.996 489.321 815.846 444.328 810.237C443.685 809.556 443.674 809.74 443.474 809.038L441.218 801.057C440.056 797.071 436.951 795.01 435.108 791.481L435.506 790.27Z"
     id="path25" />
  <path
     fill="#E4BEBC"
     d="M684.541 376.556C690.105 374.844 695.733 374.512 701.032 377.327C706.188 380.066 710 385.634 711.482 391.217C713.985 400.655 707.874 412.608 705.967 421.815Q703.183 435.506 701.42 449.365C698.325 474.321 697.596 500.062 697.426 525.196C692.362 510.865 686.082 496.802 680.568 482.617C679.006 478.598 676.982 474.505 675.734 470.399C677.51 467.251 678.657 449.104 679.577 444.105Q681.752 432.667 684.822 421.435C687.329 412.387 691.312 402.785 691.165 393.293C691.063 386.651 689.373 381.267 684.541 376.556Z"
     id="path26" />
  <path
     fill="#089D81"
     d="M613.638 286.487C641.861 301.396 666.304 321.857 687.727 345.434C691.632 349.732 697.199 355.041 699.688 360.26C694.881 359.415 690.332 359.328 685.54 360.302C669.749 363.509 659.958 375.563 651.606 388.356C644.356 368.32 638.827 345.786 632.985 325.197C631.085 318.499 629.511 311.513 627.209 304.957C624.447 297.09 615.336 293.609 613.638 286.487Z"
     id="path27" />
  <path
     fill="#F5AC7B"
     d="M526.803 233.39C529.318 231.293 531.531 229.994 534.927 230.222C538.275 230.447 541.385 232.62 543.457 235.132Q544.085 235.884 544.659 236.679L545.083 235.7C547.64 240.726 547.793 244.002 546.657 249.37C545.565 254.524 550.189 262.184 551.21 267.409C551.587 269.338 551.308 271.704 551.236 273.671C552.915 275.558 554.021 277.42 554.921 279.783C556.651 284.321 562.817 310.531 562.729 314.528C562.696 316.004 562.178 317.507 561.757 318.91C561.577 319.037 561.398 319.167 561.217 319.292C558.651 321.065 556.96 321.529 553.886 321.526C552.823 320.703 552.538 320.143 551.135 320.188C550.827 322.583 554.937 330.416 555.917 333.258C557.195 336.968 561.339 350.897 559.241 354.162C557.335 340.704 555.038 325.566 544.512 315.831C536.35 308.282 527.359 309.097 517.171 309.471Q517.368 293.562 516.569 277.672C516.096 268.464 514.159 255.857 515.777 246.89C516.861 240.879 520.412 234.582 525.523 231.163L527.608 231.377C527.335 232.028 526.99 232.711 526.803 233.39Z"
     id="path28" />
  <path
     fill="#FDFEFD"
     d="M526.803 233.39C529.318 231.293 531.531 229.994 534.927 230.222C538.275 230.447 541.385 232.62 543.457 235.132Q544.085 235.884 544.659 236.679C544.761 236.881 544.867 237.08 544.965 237.284C546.728 240.937 547.53 245.834 545.984 249.682C544.833 252.55 542.466 254.693 539.614 255.813C536.816 256.912 533.575 256.936 530.846 255.616C528.029 254.253 526.011 251.553 525.071 248.612C523.443 243.523 524.323 237.99 526.803 233.39Z"
     id="path29" />
  <path
     fill="#DB8032"
     d="M724.154 684.509C723.861 690.751 722.681 697.843 717.927 702.356C713.552 706.508 707.268 709.553 702.078 712.628Q690.476 719.46 678.943 726.41L626.568 757.976C618.05 763.15 609.721 768.69 601.047 773.598C598.938 774.791 596.831 775.903 594.48 776.544C585.906 775.063 578.574 771.809 573.357 764.587Q572.973 764.056 572.616 763.507Q572.258 762.958 571.929 762.392Q571.599 761.826 571.298 761.245Q570.997 760.663 570.725 760.067Q570.453 759.471 570.211 758.862Q569.969 758.254 569.757 757.634Q569.545 757.014 569.365 756.384Q569.184 755.755 569.035 755.117Q568.886 754.479 568.768 753.834Q568.651 753.19 568.566 752.541Q568.48 751.891 568.428 751.238Q568.375 750.585 568.354 749.931Q568.334 749.276 568.346 748.621Q568.358 747.966 568.402 747.312Q568.446 746.659 568.523 746.008Q568.6 745.358 568.709 744.712C570.197 735.57 576.139 728.833 583.562 723.775C586.635 721.68 589.857 719.786 593.1 717.968C592.971 723.892 592.687 729.717 595.322 735.217C597.78 740.348 602.296 744.745 607.731 746.575C611.491 747.84 616.132 748.031 619.933 746.841C629.305 743.905 638.911 736.426 647.252 731.232Q673.981 714.742 700.999 698.732L716.365 689.26C718.682 687.812 721.008 685.955 723.48 684.812C723.703 684.708 723.929 684.61 724.154 684.509Z"
     id="path30" />
  <path
     fill="#DB8032"
     d="M298.377 683.098L299.153 683.46C303.166 685.367 307.047 688.038 310.849 690.342C321.163 696.59 331.232 703.192 341.389 709.686C355.106 718.455 369.405 726.485 383.433 734.749C390.375 738.838 397.622 744.438 405.174 747.119C408.593 748.333 412.051 748.279 415.49 747.163C422.222 744.981 428.338 739.488 431.291 733.087C433.473 728.354 433.841 723.744 432.698 718.72C438.165 721.879 443.858 724.882 449.108 728.381C454.783 732.163 459.371 738.063 460.585 744.885C461.871 752.104 458.901 759.915 454.616 765.682C450.341 771.436 444.203 775.507 437.012 776.479C434.118 776.871 430.101 777.079 427.364 775.974C419.702 772.882 412.245 767.415 405.153 763.133Q382.967 749.814 360.955 736.21L328.101 715.993C321.623 712.003 314.66 708.21 308.678 703.524C302.119 698.385 299.396 691.048 298.377 683.098Z"
     id="path31" />
  <path
     fill="#DB8032"
     d="M261.766 729.44L262.436 729.739C272.033 734.112 281.653 741.563 290.655 747.21C308.239 758.242 326.022 768.969 343.529 780.122C351.489 785.193 361.353 793.105 370.206 796.034C374.036 797.301 378.969 796.948 382.726 795.593C388.591 793.478 393.442 788.405 395.996 782.788C398.555 777.162 398.224 771.63 397.783 765.666C403.243 769 408.92 771.981 414.419 775.253C420.954 779.142 425.938 784.612 427.736 792.188Q427.891 792.861 428.013 793.541Q428.134 794.221 428.221 794.906Q428.308 795.592 428.361 796.28Q428.413 796.969 428.432 797.659Q428.45 798.35 428.433 799.04Q428.416 799.731 428.365 800.42Q428.314 801.109 428.228 801.794Q428.143 802.479 428.023 803.16Q427.903 803.84 427.749 804.513Q427.595 805.187 427.408 805.852Q427.22 806.516 427 807.171Q426.779 807.826 426.526 808.468Q426.273 809.111 425.988 809.74Q425.703 810.369 425.387 810.984Q425.071 811.598 424.725 812.195Q424.378 812.793 424.002 813.372Q423.64 813.942 423.249 814.492Q422.859 815.043 422.442 815.574Q422.026 816.105 421.583 816.615Q421.141 817.125 420.673 817.612Q420.206 818.099 419.716 818.563Q419.225 819.027 418.712 819.466Q418.199 819.905 417.665 820.318Q417.132 820.731 416.578 821.117Q416.024 821.503 415.452 821.861Q414.88 822.22 414.291 822.55Q413.702 822.879 413.098 823.18Q412.493 823.48 411.875 823.75Q411.256 824.02 410.625 824.26Q409.994 824.499 409.351 824.707Q408.709 824.915 408.057 825.091Q407.406 825.266 406.746 825.41C402.93 826.208 397.923 826.313 394.293 824.81C387.854 822.146 382.181 817.859 376.373 814.076Q367.62 808.462 358.775 802.994C332.189 786.395 305.263 770.192 279.031 753.046C268.501 746.164 264.391 741.979 261.766 729.44Z"
     id="path32" />
  <path
     fill="#DB8032"
     d="M625.201 765.023C624.402 770.815 623.833 776.866 625.854 782.485C627.531 787.147 630.871 791.426 635.448 793.508C640.275 795.705 646.023 795.463 650.977 793.834C661.437 790.396 671.884 782.762 681.324 777.139C698.397 766.97 715.288 756.791 732.735 747.26C741.924 742.239 751.257 736.978 761.032 733.167L761.487 732.993C759.324 742.659 754.8 747.07 746.711 752.181C735.537 759.242 724.05 765.821 712.808 772.775C694.224 784.27 675.922 796.056 657.097 807.189C647.227 813.026 636.264 821.205 625.528 824.93C622.033 826.143 617.293 825.778 613.752 824.95C606.892 823.347 601.369 818.815 597.844 812.802C594.125 806.461 592.883 798.596 594.923 791.486C598.899 777.627 614.066 772.144 625.201 765.023Z"
     id="path33" />
  <path
     fill="#F5AC7B"
     d="M520.058 190.811C523.313 183.391 528.163 176.957 536.033 173.983C541.57 171.891 547.789 171.915 553.2 174.375C564.169 179.36 572.294 193.206 576.2 204.072C577.004 206.31 577.618 208.634 578.23 210.931C577.574 216.714 579.329 222.995 580.349 228.705Q583.507 246.896 587.898 264.83C590.281 274.706 593.064 284.563 595.024 294.529C588.967 296.174 585.244 298.981 580.872 303.319C575.553 287.994 571.263 272.2 566.49 256.689C562.882 244.967 558.561 230.274 546.71 224.32C539.865 220.881 532.512 221.512 525.495 223.831C523.365 212.999 526.086 200.753 520.058 190.811Z"
     id="path34" />
  <path
     fill="#FDFEFD"
     d="M540.463 181.053C543.607 180.803 546.636 180.915 549.182 183.026C553.658 186.736 553.679 194.533 554.179 199.854C552.689 203.742 551.121 205.355 547.396 207.269C545.958 207.491 544.336 207.582 542.91 207.227C539.957 206.491 537.544 204.119 536.11 201.517C533.92 197.544 533.168 192.094 534.513 187.73C535.564 184.323 537.368 182.655 540.463 181.053Z"
     id="path35" />
  <path
     fill="#F5AC7B"
     d="M426.66 294.818C431.779 274.077 436.158 253.063 440.971 232.242C443.025 223.355 444.59 214.053 447.373 205.375C450.744 194.867 459.35 179.797 469.628 174.773C475.52 171.892 482.092 172.167 488.151 174.341C495.365 176.929 500.22 182.093 503.487 188.834C499.747 200.372 499.161 212.302 499.045 224.339C498.499 224.102 497.969 223.881 497.401 223.698C490.469 221.462 483.092 221.402 476.567 225.009C471.848 227.617 468.352 231.717 465.701 236.336C460.376 245.613 457.985 256.555 454.895 266.716L444.568 300.539C438.732 295.849 434.15 294.051 426.66 294.818Z"
     id="path36" />
  <path
     fill="#FDFEFD"
     d="M475.547 180.531C476.653 180.567 477.85 180.569 478.908 180.925C481.034 181.642 482.59 183.425 483.453 185.446C484.962 188.983 484.535 193.383 483.074 196.859C481.801 199.889 480.061 201.798 477.026 203.045C475.899 203.013 474.715 203.003 473.619 202.711Q473.264 202.616 472.92 202.486Q472.576 202.355 472.246 202.191Q471.917 202.027 471.606 201.831Q471.295 201.635 471.005 201.409Q470.715 201.182 470.449 200.928Q470.183 200.674 469.943 200.395Q469.704 200.115 469.494 199.813Q469.284 199.511 469.105 199.19C467.354 196.112 467.579 192.14 468.618 188.866C469.893 184.848 471.774 182.387 475.547 180.531Z"
     id="path37" />
  <path
     fill="#F5AC7B"
     d="M437.777 346.071C439.887 336.646 443.137 327.272 445.854 317.988Q455.306 285.56 465.645 253.404C468.584 244.14 471.425 234.748 480.834 230.121C485.1 228.023 490.066 227.576 494.546 229.293C499.651 231.25 503.002 235.138 505.265 239.971C504.082 243.842 502.842 247.722 502.226 251.731C501.156 258.695 501.454 265.856 501.526 272.881C501.649 285.026 502.149 297.321 501.393 309.446C493.476 309.359 486.99 310.301 480.983 316.057C471.032 325.594 467.734 342.19 465.295 355.228C464.699 352.762 465.357 350.117 465.713 347.636C463.887 343.731 446.561 341.081 441.678 338.844L440.768 338.42C440.149 340.521 439.6 343.784 438.256 345.496C438.102 345.692 437.937 345.879 437.777 346.071Z"
     id="path38" />
  <path
     fill="#FDFEFD"
     d="M481.425 232.091C483.142 231.905 485.07 231.731 486.776 232.026C489.431 232.484 491.947 233.998 493.474 236.234C495.699 239.493 495.655 243.547 494.782 247.257C493.745 251.662 491.517 255.445 487.702 257.907C486.149 258.323 484.414 258.566 482.809 258.336C480.157 257.955 477.85 256.669 476.318 254.443C474.07 251.178 473.867 246.781 474.613 243.005C475.524 238.393 477.555 234.781 481.425 232.091Z"
     id="path39" />
  <path
     fill="#07746B"
     d="M475.161 743.901C490.227 744.119 505.14 745.414 520.258 745.107C531.795 744.873 543.114 743.286 554.602 742.467C553.437 754.911 556.007 766.685 564.069 776.547C568.339 781.77 573.723 785.339 579.937 787.869C581.954 788.69 584.532 789.383 586.196 790.758C586.083 791.771 586.276 791.407 585.869 791.948C552.628 798.497 511.512 800.228 477.826 796.421C464.465 794.911 448.318 790.242 435.506 790.27L436.997 787.478C440.342 786.08 446.152 786.841 449.897 786.253C457.422 785.071 463.488 779.88 467.729 773.816C474.153 764.63 477.127 755.006 475.161 743.901Z"
     id="path40" />
  <path
     fill="#FDFEFD"
     d="M493.029 759.8C494.17 761.708 494.626 763.759 496.476 765.144C496.617 765.25 496.764 765.347 496.906 765.451C497.169 765.642 497.426 765.841 497.691 766.03C497.877 766.163 498.069 766.288 498.258 766.417C497.984 767.699 497.223 768.069 496.22 768.881C494.824 770.012 494.226 770.854 493.387 772.486L493.113 773.033C491.831 769.756 490.459 768.868 488.018 766.541C488.52 765.449 490.291 765.18 491.414 764.76C492.048 763.142 492.517 761.46 493.029 759.8Z"
     id="path41" />
  <path
     fill="#F6B638"
     d="M593.1 717.968C614.385 705.744 635.349 692.535 656.259 679.663C666.043 673.641 675.864 666.717 686.178 661.664C689.372 660.099 692.726 658.755 696.303 658.475Q696.938 658.425 697.575 658.407Q698.212 658.39 698.849 658.404Q699.486 658.419 700.122 658.466Q700.758 658.513 701.39 658.592Q702.022 658.671 702.65 658.782Q703.277 658.893 703.899 659.035Q704.52 659.178 705.133 659.352Q705.746 659.526 706.349 659.73Q706.953 659.935 707.545 660.17Q708.138 660.405 708.717 660.67Q709.297 660.935 709.862 661.228Q710.428 661.522 710.978 661.844Q711.528 662.166 712.061 662.516Q712.594 662.865 713.108 663.241Q713.622 663.617 714.117 664.019Q714.612 664.421 715.086 664.847C721.075 670.138 723.626 676.718 724.154 684.509C723.929 684.61 723.703 684.708 723.48 684.812C721.008 685.955 718.682 687.812 716.365 689.26L700.999 698.732Q673.981 714.742 647.252 731.232C638.911 736.426 629.305 743.905 619.933 746.841C616.132 748.031 611.491 747.84 607.731 746.575C602.296 744.745 597.78 740.348 595.322 735.217C592.687 729.717 592.971 723.892 593.1 717.968Z"
     id="path42" />
  <path
     fill="#F6B638"
     d="M298.377 683.098C298.449 675.589 300.465 669.491 306.049 664.181C311.3 659.188 318.518 656.124 325.815 656.497C329.186 656.669 332.875 658.873 335.796 660.44C357.007 671.821 377.351 685.302 398.023 697.66L420.939 711.336C424.735 713.6 429.394 715.822 432.698 718.72C433.841 723.744 433.473 728.354 431.291 733.087C428.338 739.488 422.222 744.981 415.49 747.163C412.051 748.279 408.593 748.333 405.174 747.119C397.622 744.438 390.375 738.838 383.433 734.749C369.405 726.485 355.106 718.455 341.389 709.686C331.232 703.192 321.163 696.59 310.849 690.342C307.047 688.038 303.166 685.367 299.153 683.46L298.377 683.098Z"
     id="path43" />
  <path
     fill="#10AE8D"
     d="M512.153 662.782C522.452 679.595 536.508 690.453 552.78 701.05C559.645 705.52 566.547 709.922 573.831 713.687C570.563 716.372 567.212 718.998 564.077 721.836C559.165 728.072 556.053 734.635 554.602 742.467C543.114 743.286 531.795 744.873 520.258 745.107C505.14 745.414 490.227 744.119 475.161 743.901C473.398 739.911 471.528 736.412 468.468 733.235C463.368 727.942 450.37 722.581 448.368 720.223C448.125 719.937 448.09 719.525 447.952 719.176C472.855 696.447 491.46 694.134 512.153 662.782Z"
     id="path44" />
  <path
     fill="#089D81"
     d="M447.952 719.176C465.469 720.234 482.453 724.77 500.049 725.723Q510.782 726.235 521.523 725.925Q532.264 725.614 542.95 724.482C549.967 723.726 557.053 722.248 564.077 721.836C559.165 728.072 556.053 734.635 554.602 742.467C543.114 743.286 531.795 744.873 520.258 745.107C505.14 745.414 490.227 744.119 475.161 743.901C473.398 739.911 471.528 736.412 468.468 733.235C463.368 727.942 450.37 722.581 448.368 720.223C448.125 719.937 448.09 719.525 447.952 719.176Z"
     id="path45" />
  <path
     fill="#F6B638"
     d="M625.201 765.023C634.044 759.038 643.632 753.728 652.782 748.177L697.726 720.939C705.926 716.077 721.355 705.756 729.305 702.614C732.074 701.52 735.547 701.416 738.483 701.7Q739.148 701.767 739.81 701.867Q740.471 701.967 741.127 702.101Q741.782 702.234 742.43 702.401Q743.078 702.567 743.717 702.767Q744.355 702.966 744.983 703.197Q745.61 703.428 746.226 703.691Q746.841 703.954 747.442 704.248Q748.043 704.541 748.628 704.865Q749.214 705.189 749.782 705.542Q750.35 705.895 750.9 706.276Q751.449 706.657 751.979 707.066Q752.509 707.474 753.017 707.909Q753.525 708.344 754.011 708.805Q754.496 709.265 754.958 709.749Q755.42 710.233 755.856 710.74Q756.293 711.247 756.703 711.775C761.515 718.079 762.461 725.388 761.487 732.993L761.032 733.167C751.257 736.978 741.924 742.239 732.735 747.26C715.288 756.791 698.397 766.97 681.324 777.139C671.884 782.762 661.437 790.396 650.977 793.834C646.023 795.463 640.275 795.705 635.448 793.508C630.871 791.426 627.531 787.147 625.854 782.485C623.833 776.866 624.402 770.815 625.201 765.023Z"
     id="path46" />
  <path
     fill="#F6B638"
     d="M261.766 729.44C262.094 721.547 264.657 714.829 270.552 709.404Q271.045 708.942 271.56 708.506Q272.075 708.07 272.612 707.661Q273.149 707.251 273.706 706.869Q274.262 706.488 274.838 706.134Q275.413 705.781 276.005 705.457Q276.598 705.133 277.206 704.84Q277.814 704.546 278.436 704.284Q279.058 704.022 279.692 703.791Q280.327 703.56 280.972 703.362Q281.617 703.164 282.272 702.998Q282.926 702.833 283.588 702.701Q284.25 702.568 284.918 702.47Q285.586 702.371 286.258 702.306Q286.93 702.241 287.604 702.211Q288.279 702.18 288.954 702.183Q289.629 702.187 290.303 702.224C292.554 702.357 294.461 702.844 296.495 703.814C314.92 712.601 332.379 724.977 349.739 735.683L378.63 753.46C385.035 757.392 391.727 761.22 397.783 765.666C398.224 771.63 398.555 777.162 395.996 782.788C393.442 788.405 388.591 793.478 382.726 795.593C378.969 796.948 374.036 797.301 370.206 796.034C361.353 793.105 351.489 785.193 343.529 780.122C326.022 768.969 308.239 758.242 290.655 747.21C281.653 741.563 272.033 734.112 262.436 729.739L261.766 729.44Z"
     id="path47" />
  <path
     fill="#089D81"
     d="M724.14 412.778C732.341 423.659 743.731 464.683 747.179 478.928C748.047 482.511 750.053 488.151 749.485 491.716C749.446 491.957 749.391 492.196 749.344 492.437C750.914 493.864 752.622 495.336 752.833 497.6C752.995 499.332 751.828 500.806 750.618 501.894C750.163 502.303 750.206 502.258 749.792 502.553C751.602 514.846 750.833 528.281 749.909 540.668C749.561 545.337 748.566 550.605 748.743 555.23L747.644 559.428C747.576 559.684 747.505 559.939 747.439 560.195C746.078 565.549 745.965 571.631 744.877 577.154C742.423 589.608 738.357 601.755 733.8 613.589Q729.551 624.767 724.1 635.411C722.093 639.317 719.341 643.286 717.771 647.351C709.702 643.581 703.049 642.906 694.274 643.064L691.82 633.145C702.121 619.397 708.721 604.101 712.009 587.231C715.449 569.578 714.728 551.288 714.717 533.381C714.691 493.064 713.533 452.037 724.14 412.778Z"
     id="path48" />
  <path
     fill="#FDFEFD"
     d="M749.792 502.553C747.618 502.665 745.754 502.844 744.018 501.264C743.055 500.388 742.451 499.093 742.45 497.787C742.448 496.457 743.058 495.131 743.997 494.201C745.567 492.646 747.236 492.463 749.344 492.437C750.914 493.864 752.622 495.336 752.833 497.6C752.995 499.332 751.828 500.806 750.618 501.894C750.163 502.303 750.206 502.258 749.792 502.553Z"
     id="path49" />
  <path
     fill="#DB8032"
     d="M492.781 315.454C497.682 314.707 527.225 314.597 531.541 315.4L527.975 315.633L514.09 315.657C515.952 320.937 518.101 326.304 519.411 331.748C522.911 346.291 524.246 361.379 525.687 376.242C529.85 419.157 530.752 465.872 529.514 509.045C528.772 534.888 525.655 566.885 531.334 591.787C537.36 618.215 552.632 642.934 577.609 655.025C594.76 663.328 614.448 662.973 632.214 656.755C647.302 651.474 662.271 641.746 673.739 630.66C676.865 639.598 678.675 649.317 680.91 658.525Q638.931 683.477 597.58 709.458C594.663 708.529 591.643 707.842 588.866 706.527C581.515 703.043 575.197 697.408 568.413 692.938C537.165 672.344 525.234 663.899 512.22 627.108C503.464 651.19 493.106 668.259 471.784 683.271C465.376 687.783 458.552 691.682 452.103 696.135C445.201 700.901 438.653 706.581 432.05 711.779C420.619 703.799 407.873 697.071 395.864 689.957Q368.54 673.629 341.387 657.02C344.902 648.54 347.405 639.172 349.693 630.283C352.63 630.948 356.086 634.809 358.665 636.609C374.189 647.441 391.305 657.968 410.438 660.248C428.964 662.455 446.887 656.684 461.388 645.071C479.115 630.876 489.916 608.268 494.291 586.356C498.39 565.823 496.152 543.613 495.548 522.787Q494.549 489.25 494.464 455.698C494.582 423.076 495.635 390.719 498.91 358.248C500.347 343.999 502.983 329.94 504.56 315.724C500.621 315.741 496.712 315.753 492.781 315.454Z"
     id="path50" />
  <path
     fill="#10AE8D"
     d="M285.715 666.819C281.816 661.597 278.785 655.529 275.588 649.857C260.69 623.428 249.832 596.287 243.662 566.509Q242.984 563.301 242.387 560.078Q241.789 556.854 241.272 553.617Q240.755 550.38 240.319 547.13Q239.883 543.881 239.529 540.622Q239.174 537.363 238.901 534.096Q238.628 530.829 238.436 527.556Q238.244 524.283 238.135 521.007Q238.025 517.73 237.997 514.452Q237.969 511.173 238.022 507.896Q238.076 504.618 238.212 501.342Q238.348 498.066 238.565 494.795Q238.782 491.524 239.081 488.259Q239.38 484.994 239.76 481.738Q240.141 478.482 240.602 475.236Q241.064 471.99 241.606 468.757Q242.148 465.524 242.771 462.305Q243.394 459.087 244.097 455.884Q244.8 452.682 245.583 449.499Q246.366 446.315 247.228 443.152Q248.09 439.989 249.03 436.848Q249.971 433.708 250.99 430.592Q252.008 427.476 253.104 424.386Q254.201 421.296 255.374 418.235Q256.547 415.174 257.796 412.142Q259.045 409.111 260.369 406.112Q261.693 403.113 263.092 400.148Q264.491 397.183 265.963 394.254Q267.435 391.325 268.98 388.433Q270.525 385.542 272.142 382.69Q273.759 379.837 275.446 377.027Q277.133 374.216 278.89 371.448Q280.647 368.68 282.473 365.957Q285.012 362.16 287.669 358.446Q290.326 354.731 293.099 351.102Q295.872 347.473 298.758 343.933Q301.644 340.394 304.64 336.947Q307.636 333.5 310.739 330.149Q313.842 326.798 317.05 323.547Q320.257 320.295 323.566 317.147Q326.874 313.998 330.28 310.955Q333.686 307.913 337.186 304.979Q340.686 302.045 344.277 299.223Q347.868 296.401 351.547 293.694Q355.225 290.986 358.987 288.396Q362.748 285.806 366.59 283.336Q370.431 280.866 374.349 278.518Q378.266 276.17 382.256 273.947Q386.245 271.724 390.303 269.628C399.294 264.926 410.157 259.162 420.101 257.115C417.723 268.821 414.467 280.399 411.48 291.963C407.24 295.573 402.66 299.286 399.926 304.245C395.859 311.62 394.223 321.112 391.814 329.198L372.988 394.251C363.609 380.5 355.583 366.075 337.794 362.629Q336.992 362.479 336.183 362.368Q335.375 362.258 334.562 362.186Q333.749 362.115 332.934 362.083Q332.118 362.051 331.302 362.059Q330.486 362.067 329.672 362.115Q328.857 362.163 328.046 362.25Q327.234 362.337 326.428 362.464Q325.622 362.59 324.823 362.756Q324.024 362.921 323.234 363.125Q322.444 363.33 321.665 363.572Q320.886 363.815 320.119 364.095Q319.353 364.375 318.601 364.692Q317.849 365.009 317.113 365.362Q316.377 365.715 315.66 366.103Q314.942 366.492 314.244 366.915Q313.546 367.338 312.87 367.794C304.989 373.162 300.202 381.786 298.523 391.059C296.057 404.673 302.531 416.709 306.177 429.398Q307.845 435.286 308.973 441.301Q310.102 447.316 310.682 453.409C311.844 465.802 311.529 478.348 311.558 490.783L311.547 546.633C311.528 559.247 310.898 572.173 312.699 584.685C314.813 599.368 319.874 615.776 328.547 627.977C329.974 629.983 331.567 631.902 333.19 633.752Q331.374 638.573 329.498 643.37C319.002 641.583 308.681 642.76 299.824 649.092C293.387 653.693 289.38 659.95 285.715 666.819Z"
     id="path51" />
  <path
     fill="#FDFEFD"
     d="M367.074 321.796C368.944 324.409 369.914 325.876 372.892 327.272C373.688 327.645 373.385 327.335 373.771 328.116C372.741 328.481 371.614 328.824 370.628 329.283C368.65 330.205 368.326 332.183 367.789 334.098L367.596 334.808C365.994 332.306 365.893 330.109 362.876 328.691C361.984 328.272 361.332 327.954 360.581 327.283C363.951 326.088 364.886 325.525 366.721 322.407L367.074 321.796Z"
     id="path52" />
  <path
     fill="#FDFEFD"
     d="M277.424 457.486C278.316 458.553 279.062 460.393 279.745 461.641C280.902 462.227 281.958 462.664 282.759 463.731C282.159 465.8 278.952 468.13 277.765 470.451C277.662 470.654 277.564 470.86 277.463 471.065C276.624 469.069 275.865 466.461 273.846 465.389C272.744 464.804 271.532 464.314 270.394 463.793C273.992 462.142 275.316 462.021 277.129 458.132L277.424 457.486Z"
     id="path53" />
  <path
     fill="#FDFEFD"
     d="M276.517 509.816Q276.88 510.962 277.272 512.099C279.155 517.541 280.441 517.391 285.331 519.781L285.331 519.784C283.723 519.969 281.924 520.159 280.507 521.011C277.802 522.638 277.394 526.91 276.813 529.71C276.414 528.672 276.122 527.562 275.805 526.497C275.47 525.371 275.2 524.157 274.603 523.134C273.021 520.421 269.509 520.154 266.719 519.538C268.803 519.037 271.57 518.622 273.365 517.387C275.815 515.701 276.019 512.497 276.517 509.816Z"
     id="path54" />
  <path
     fill="#FDFEFD"
     d="M296.209 607.375C297.435 609.457 297.588 612.709 299.019 614.484C300.581 616.421 303.275 616.584 305.566 617.013C303.619 617.588 301.408 618.099 299.805 619.402C297.289 621.446 297.101 624.581 296.687 627.561L296.456 627.538C295.365 625.675 295.303 623.45 294.447 621.498C293.261 618.793 289.305 617.962 286.749 617.097C288.708 616.729 291.144 616.439 292.822 615.275C295.26 613.582 295.599 610.06 296.209 607.375Z"
     id="path55" />
  <path
     fill="#F6B638"
     d="M349.693 630.283C337.465 619.545 329.446 596.96 327.687 581.167C326.734 572.607 326.452 562.888 328.937 554.585C333.798 538.346 342.765 519.409 349.359 503.492C363.577 469.171 376.952 436.34 386.738 400.392C390.402 386.932 408.961 316.032 414.487 309.473C418.306 304.94 424.16 300.966 430.225 300.728C435.417 300.525 439.149 302.981 442.758 306.374C435.388 328.739 429.468 351.547 423.192 374.227L410.101 419.957L402.087 448.558C401.085 452.017 399.171 455.735 398.703 459.24C398.491 460.827 398.946 461.6 399.918 462.795C401.437 463.378 401.728 463.501 403.316 463.239C404.284 462.431 404.877 461.73 405.299 460.549C405.993 458.601 406.194 456.445 406.724 454.443C408.345 448.312 410.389 442.217 412.107 436.095L428.64 377.21C431.521 367.058 434.041 356.495 437.593 346.575L437.777 346.071C437.937 345.879 438.102 345.692 438.256 345.496C439.6 343.784 440.149 340.521 440.768 338.42L441.678 338.844C446.561 341.081 463.887 343.731 465.713 347.636C465.357 350.117 464.699 352.762 465.295 355.228Q459.377 400.608 451.793 445.74C450.086 456.154 447.809 466.651 446.361 477.079C446.035 479.423 445.778 481.546 447.281 483.524C448.135 483.923 448.549 484.139 449.521 484.02C451.152 483.82 451.809 482.196 452.135 480.777C454.497 470.468 455.552 459.342 457.208 448.859Q462.596 414.915 467.571 380.908C469.476 367.716 470.63 353.746 474.281 340.913C476.238 334.033 479.208 327.084 483.681 321.432C486.077 318.403 488.829 315.915 492.781 315.454C496.712 315.753 500.621 315.741 504.56 315.724C502.983 329.94 500.347 343.999 498.91 358.248C495.635 390.719 494.582 423.076 494.464 455.698Q494.549 489.25 495.548 522.787C496.152 543.613 498.39 565.823 494.291 586.356C489.916 608.268 479.115 630.876 461.388 645.071C446.887 656.684 428.964 662.455 410.438 660.248C391.305 657.968 374.189 647.441 358.665 636.609C356.086 634.809 352.63 630.948 349.693 630.283Z"
     id="path56" />
  <path
     fill="#FDFEFD"
     d="M426.21 307.992C426.963 307.974 427.74 307.932 428.491 308.027C430.172 308.239 431.923 309.077 432.793 310.584C433.737 312.218 433.583 314.26 433.107 316.013C431.917 320.391 429.376 323.682 425.5 325.939C424.737 325.893 423.956 325.867 423.205 325.707C421.386 325.318 419.546 324.309 418.602 322.654C417.673 321.027 417.722 319.021 418.207 317.267C419.444 312.788 422.227 310.113 426.21 307.992Z"
     id="path57" />
  <path
     fill="#FDFEFD"
     d="M414.732 346.879C415.395 347.04 416.057 347.232 416.69 347.488C418.312 348.146 419.519 349.569 420.173 351.168C421.35 354.048 420.742 357.576 419.571 360.356C417.923 364.266 415.761 366.549 411.813 368.073C411.517 367.985 411.22 367.902 410.926 367.808C408.979 367.181 407.505 365.857 406.615 364.017C405.405 361.516 405.787 358.412 406.687 355.88C408.173 351.702 410.717 348.704 414.732 346.879Z"
     id="path58" />
  <path
     fill="#FDFEFD"
     d="M489.002 325.002C490.415 325.034 492.002 324.997 493.297 325.629C495.127 326.524 496.166 328.287 496.742 330.178C498.075 334.559 496.979 340.597 494.848 344.566C493.521 347.038 492.138 347.848 489.525 348.701C486.594 348.104 484.23 347.332 482.544 344.67C480.666 341.704 480.691 338.121 481.592 334.826C482.782 330.475 485.075 327.187 489.002 325.002Z"
     id="path59" />
  <path
     fill="#F6B638"
     d="M545.083 235.7C544.804 234.282 544.563 234.003 545.214 232.74C546.182 232.511 546.37 232.427 547.261 233.016C550.369 235.068 553.053 240.685 554.527 244.069C558.514 253.221 561.031 263.389 563.992 272.938C568.949 288.917 574.046 304.77 578.473 320.913C579.341 324.076 582.915 339.745 584.173 341.481C584.479 341.904 584.464 341.796 584.997 341.924C588.062 349.879 589.6 358.926 591.958 367.166Q600.888 397.939 609.303 428.857C611.165 435.842 613.134 442.771 615.099 449.724C615.896 452.545 616.447 455.557 617.584 458.264C618.324 460.027 619.012 460.772 620.783 461.486C622.291 461.261 622.752 460.829 623.845 459.853C624.511 458.478 624.212 457.186 623.842 455.762C620.237 441.9 615.624 428.081 611.663 414.291L591.187 340.995C589.213 333.965 583.643 317.492 583.092 311.013C583.07 310.755 583.056 310.497 583.038 310.238C587.042 305.377 592.043 300.444 598.695 299.925C602.689 299.613 606.297 301.206 609.173 303.93C611.347 305.988 612.709 309.233 613.733 312.02C616.386 319.245 617.938 327.123 620.013 334.549C623.357 346.514 627.035 358.381 630.354 370.353C636.078 391.001 641.789 411.916 649.38 431.968C658.404 455.803 668.809 479.055 677.954 502.839C686.499 525.06 696.118 547.825 696.099 572.047C696.082 594.48 688.122 613.723 673.739 630.66C662.271 641.746 647.302 651.474 632.214 656.755C614.448 662.973 594.76 663.328 577.609 655.025C552.632 642.934 537.36 618.215 531.334 591.787C525.655 566.885 528.772 534.888 529.514 509.045C530.752 465.872 529.85 419.157 525.687 376.242C524.246 361.379 522.911 346.291 519.411 331.748C518.101 326.304 515.952 320.937 514.09 315.657L527.975 315.633L531.541 315.4C537.352 316.667 541.728 320.707 544.866 325.597C552.738 337.866 554.807 365.72 556.983 380.604L566.573 443.387C568.204 454.035 569.698 468.545 572.391 478.592C572.963 480.728 573.623 482.396 575.31 483.859C576.596 484.092 576.625 483.994 577.792 483.369C578.991 481.602 578.386 479.206 578.156 477.192C576.586 463.505 573.722 449.804 571.553 436.177Q564.922 395.241 559.241 354.162C561.339 350.897 557.195 336.968 555.917 333.258C554.937 330.416 550.827 322.583 551.135 320.188C552.538 320.143 552.823 320.703 553.886 321.526C556.96 321.529 558.651 321.065 561.217 319.292C561.398 319.167 561.577 319.037 561.757 318.91C562.178 317.507 562.696 316.004 562.729 314.528C562.817 310.531 556.651 284.321 554.921 279.783C554.021 277.42 552.915 275.558 551.236 273.671C551.308 271.704 551.587 269.338 551.21 267.409C550.189 262.184 545.565 254.524 546.657 249.37C547.793 244.002 547.64 240.726 545.083 235.7Z"
     id="path60" />
  <path
     fill="#EA9C29"
     d="M583.038 310.238C587.042 305.377 592.043 300.444 598.695 299.925C602.689 299.613 606.297 301.206 609.173 303.93C611.347 305.988 612.709 309.233 613.733 312.02C616.386 319.245 617.938 327.123 620.013 334.549C623.357 346.514 627.035 358.381 630.354 370.353C636.078 391.001 641.789 411.916 649.38 431.968C658.404 455.803 668.809 479.055 677.954 502.839C686.499 525.06 696.118 547.825 696.099 572.047C696.082 594.48 688.122 613.723 673.739 630.66C662.271 641.746 647.302 651.474 632.214 656.755C614.448 662.973 594.76 663.328 577.609 655.025C552.632 642.934 537.36 618.215 531.334 591.787C525.655 566.885 528.772 534.888 529.514 509.045C530.752 465.872 529.85 419.157 525.687 376.242C524.246 361.379 522.911 346.291 519.411 331.748C518.101 326.304 515.952 320.937 514.09 315.657L527.975 315.633C533.639 336.168 534.843 357.357 537.085 378.435C539.864 404.566 542.803 430.694 544.401 456.932Q545.728 479.335 546.814 501.751C548.243 534.286 548.608 568.442 566.407 597.027C576.229 612.801 590.621 625.98 609.118 630.245C622.407 633.309 635.105 631.768 646.75 624.437C661.183 615.351 670.138 598.63 673.863 582.382C677.491 566.555 676.22 550.052 673.073 534.261C664.046 488.971 643.106 447.233 631.309 402.723C626.195 383.429 621.969 363.872 616.985 344.528C614.17 333.603 611.861 319.578 605.807 310.003C605.422 309.74 605.039 309.474 604.64 309.232C596.654 304.384 591.637 308.091 583.705 310.075L583.038 310.238Z"
     id="path61" />
</svg>
