<?xml version="1.0" encoding="UTF-8" standalone="no"?>
<svg
   width="719.18066"
   height="627.78149"
   version="1.1"
   id="svg62"
   sodipodi:docname="road-button.svg"
   inkscape:version="1.3.2 (091e20ef0f, 2023-11-25)"
   xmlns:inkscape="http://www.inkscape.org/namespaces/inkscape"
   xmlns:sodipodi="http://sodipodi.sourceforge.net/DTD/sodipodi-0.dtd"
   xmlns="http://www.w3.org/2000/svg"
   xmlns:svg="http://www.w3.org/2000/svg">
  <sodipodi:namedview
     id="namedview62"
     pagecolor="#ffffff"
     bordercolor="#000000"
     borderopacity="0.25"
     inkscape:showpageshadow="2"
     inkscape:pageopacity="0.0"
     inkscape:pagecheckerboard="0"
     inkscape:deskcolor="#d1d1d1"
     inkscape:zoom="0.70507812"
     inkscape:cx="365.9169"
     inkscape:cy="299.96676"
     inkscape:window-width="1920"
     inkscape:window-height="1011"
     inkscape:window-x="0"
     inkscape:window-y="0"
     inkscape:window-maximized="1"
     inkscape:current-layer="svg62" />
  <path
     fill="#600f43"
     d="m 646.2021,280.20751 c 5.675,-0.351 27.419,-0.981 32.353,-0.185 1.433,0.231 2.748,1.224 3.387,2.519 0.627,1.273 0.646,2.699 0.213,4.026 -0.61,1.867 -1.863,2.687 -3.52,3.506 -5.113,0.182 -30.177,1.425 -33.407,0.234 -1.251,-0.461 -2.227,-1.343 -2.747,-2.572 -0.614,-1.452 -0.469,-3.084 0.129,-4.516 0.723,-1.731 1.988,-2.327 3.592,-3.012 z"
     id="path2" />
  <path
     fill="#600f43"
     d="m 691.6011,298.76751 c 4.902,-0.137 16.457,-1.786 20.046,1.469 0.841,0.763 1.192,1.789 1.212,2.899 0.029,1.669 -0.443,2.986 -1.641,4.187 -3.208,3.214 -22.24,1.778 -27.074,1.746 -4.705,-0.005 -16.891,1.633 -20.309,-1.31 -0.944,-0.814 -1.568,-2.34 -1.552,-3.6 0.019,-1.494 0.416,-2.365 1.507,-3.385 3.491,-3.265 22.5,-1.976 27.811,-2.006 z"
     id="path3" />
  <path
     fill="#600f43"
     d="m 21.722096,300.73751 c 6.777,-0.15 41.745,-1.56 45.389,1.114 1.375,1.009 2.563,2.392 2.643,4.175 0.062,1.374 -0.537,2.615 -1.415,3.631 -1.576,1.826 -3.233,1.914 -5.484,2.088 -6.168,0.12 -42.766,1.451 -46.129,-1.369 -0.967,-0.811 -1.566,-2.125 -1.654,-3.37 -0.107,-1.524 0.452,-2.811 1.36,-3.985 1.487,-1.926 3.025,-2.053 5.29,-2.284 z"
     id="path4" />
  <path
     fill="#7e143d"
     d="m 75.036096,459.76851 c 6.384,7.086 13.125,12.553 22.404,15.217 0.745,13.944 5.903004,27.457 16.450004,36.932 6.341,5.695 13.482,7.106 19.63,11.681 -0.588,0.056 -1.177,0.111 -1.768,0.13 -16.633,0.543 -44.593004,-5.992 -56.812004,-17.537 -5.975,-5.645 -9.954,-13.099 -10.072,-21.454 -0.125,-8.848 4.146,-18.585 10.168,-24.969 z"
     id="path5"
     style="fill:#7e143d;fill-opacity:0.73394763" />
  <path
     fill="#7e143d"
     d="m 655.7051,459.46551 c 6.135,8.189 9.828,17.031 8.402,27.441 -1.256,9.174 -6.982,17.491 -14.355,22.92 -10.722,7.894 -24.02,9.498 -36.915,10.401 -4.623,0.324 -9.858,0.801 -14.45,0.057 -0.584,-0.094 -1.154,-0.249 -1.723,-0.407 -0.08,-0.022 -0.161,-0.042 -0.242,-0.064 8.217,-2.966 15.645,-6.097 21.837,-12.467 9.33,-9.598 12.016,-20.755 11.866,-33.763 10.724,-2.326 17.987,-6.143 25.58,-14.118 z"
     id="path6"
     style="fill:#7e143d;fill-opacity:0.73394763" />
  <path
     fill="#f6f6f8"
     d="m 623.8971,199.27751 c 5.946,-5.866 12.249,-9.882 20.953,-9.716 8.112,0.156 15.939,3.992 21.415,9.898 3.215,3.468 5.46,7.781 7.122,12.175 2.886,-1.845 5.765,-3.2 9.255,-2.353 3.464,0.841 6.098,3.791 7.873,6.732 0.94,1.555 1.696,3.311 2.447,4.962 4.798,-2.381 9.581,-4.184 14.968,-2.52 4.151,1.282 7.52,4.383 9.425,8.257 2.091,4.252 2.436,9.359 0.774,13.812 q -0.274,0.741 -0.623,1.449 -0.35,0.707 -0.772,1.375 -0.422,0.667 -0.912,1.286 -0.489,0.62 -1.041,1.184 -0.552,0.565 -1.161,1.068 -0.608,0.504 -1.265,0.941 -0.658,0.437 -1.358,0.802 -0.7,0.366 -1.434,0.656 c -1.745,0.703 -3.536,1.068 -5.409,1.217 -8.003,0.635 -16.402,0.105 -24.439,0.073 l -44.677,-0.069 -11.897,-0.056 c -9.683,-0.408 -20.934,2.078 -29.439,-3.588 -4.057,-2.702 -6.942,-6.775 -7.847,-11.592 -0.852,-4.539 0.008,-9.366 2.745,-13.133 q 0.471,-0.647 1.006,-1.243 0.534,-0.596 1.127,-1.135 0.592,-0.538 1.236,-1.014 0.644,-0.476 1.333,-0.884 0.689,-0.407 1.416,-0.743 0.727,-0.336 1.484,-0.596 0.757,-0.26 1.537,-0.442 0.78,-0.182 1.574,-0.284 c 6.298,-0.842 11.272,1.884 16.077,5.569 0.159,-2.595 0.611,-5.125 1.042,-7.685 1.626,-5.598 3.793,-9.863 7.465,-14.403 z"
     id="path7" />
  <path
     fill="#f6f6f8"
     d="m 27.363096,262.24951 c 0.532,-5.543 1.667,-10.708 4.46,-15.586 3.744,-6.539 9.991,-11.13 17.233,-13.096 q 0.728,-0.198 1.466,-0.359 0.737,-0.162 1.481,-0.287 0.745,-0.125 1.494,-0.213 0.75,-0.088 1.503,-0.14 0.753,-0.051 1.508,-0.064 0.754,-0.014 1.509,0.009 0.754,0.024 1.507,0.084 0.752,0.061 1.5,0.159 0.749,0.098 1.491,0.232 0.743,0.135 1.478,0.306 0.735,0.171 1.461,0.378 0.726,0.207 1.441,0.45 0.714,0.242 1.416,0.52 0.702,0.278 1.389,0.59 0.688,0.312 1.359,0.657 0.671,0.346 1.324,0.724 c 8.108,4.694 11.825,11.443 14.157,20.253 q 0.993,-0.79 2.121,-1.372 c 3.372,-1.78 6.438,-0.914 9.878,0.186 6.680004,4.775 3.342004,10.135 10.117004,9.641 7.908,0.154 20.151,-1.791 26.256,4.338 2.933,2.944 4.428,7.131 4.236,11.259 -0.18,3.871 -1.869,7.82 -4.775,10.426 -6.069,5.444 -18.473,3.562 -26.231,3.589 l -9.558004,-0.015 -53.982,0.046 c -8.557,0.018 -25.24,1.34 -32.95,-0.979 -4.2090002,-1.265 -7.7980002,-4.093 -9.8040002,-8.025 -2.123,-4.161 -2.414,-9.331 -0.888,-13.734 q 0.146,-0.426 0.313,-0.845 0.168,-0.418 0.356,-0.827 0.189,-0.41 0.398,-0.809 0.209,-0.399 0.439,-0.787 0.229,-0.388 0.478,-0.763 0.248,-0.376 0.516,-0.739 0.267,-0.362 0.553,-0.711 0.286,-0.348 0.589,-0.682 0.303,-0.333 0.623,-0.651 0.319,-0.318 0.655,-0.618 0.335,-0.301 0.685,-0.585 0.351,-0.283 0.715,-0.548 0.364,-0.266 0.742,-0.512 0.377,-0.246 0.766,-0.473 0.39,-0.227 0.79,-0.433 0.401,-0.207 0.8110002,-0.393 c 5.756,-2.628 11.279,-1.702 16.974,0.399 z"
     id="path8" />
  <path
     fill="#600f43"
     d="m 98.539096,255.68051 c 0.276,-6.751 1.436,-13.646 2.311004,-20.358 5.136,-39.379 17.564,-76.379 38.17,-110.42 5.861,-9.682 12.711,-18.66 19.859,-27.418998 q 1.712,-2.098 3.466,-4.16 1.754,-2.063 3.55,-4.089 1.796,-2.026 3.634,-4.014 1.837,-1.989 3.714,-3.94 1.878,-1.951 3.795,-3.862 1.918,-1.912 3.873,-3.784 1.956,-1.873 3.95,-3.704 1.994,-1.832 4.026,-3.622 2.031,-1.791 4.098,-3.539 2.067,-1.748 4.17,-3.454 2.103,-1.706 4.24,-3.368 2.137,-1.662 4.308,-3.28 2.171,-1.618 4.374,-3.192 2.204,-1.573 4.439,-3.101 2.236,-1.527 4.502,-3.009 2.266,-1.481 4.562,-2.916 2.296,-1.435 4.621,-2.823 2.325,-1.387 4.678,-2.727 2.353,-1.339 4.733,-2.63 2.38,-1.291 4.786,-2.533 2.406,-1.243 4.836,-2.435 2.431,-1.192 4.886,-2.335 2.455,-1.142 4.932,-2.234 2.478,-1.092 4.977,-2.133 2.5,-1.041 5.02,-2.03 2.52,-0.989 5.06,-1.927 2.541,-0.937 5.099,-1.823 2.559,-0.885 5.135,-1.718 2.577,-0.832 5.169,-1.612 2.593,-0.78 5.202,-1.5059995 2.608,-0.727 5.231,-1.399 2.622,-0.673 5.258,-1.292 3.155,-0.753 6.328,-1.429 3.172,-0.676 6.36,-1.274 3.188,-0.599 6.39,-1.12 3.202,-0.521 6.415,-0.965 3.213,-0.443 6.436,-0.808 3.223,-0.365 6.455,-0.652 3.231,-0.286 6.468,-0.494 3.237,-0.208 6.478,-0.338 3.241,-0.129 6.484,-0.18 3.244,-0.051 6.487,-0.022 3.244,0.028 6.486,0.135 3.242,0.106 6.48,0.292 3.239,0.186 6.472,0.45 3.233,0.264 6.459,0.607 3.225,0.342 6.441,0.763 3.217,0.421 6.422,0.92 3.205,0.499 6.397,1.075 3.192,0.577 6.369,1.231 3.178,0.654 6.338,1.385 3.16,0.73 6.302,1.538 3.142,0.807 6.263,1.6909995 3.121,0.883 6.22,1.842 3.098,0.959 6.173,1.993 3.074,1.034 6.123,2.143 3.048,1.108 6.069,2.29 3.021,1.182 6.012,2.437 2.991,1.255 5.951,2.583 2.959,1.327 5.886,2.726 2.927,1.399 5.819,2.868 2.891,1.47 5.747,3.009 2.855,1.539 5.672,3.148 2.817,1.608 5.594,3.284 2.412,1.479 4.792,3.009 2.381,1.529 4.729,3.108 2.348,1.578 4.663,3.205 2.314,1.627 4.595,3.302 2.28,1.675 4.525,3.397 2.245,1.722 4.454,3.491 2.208,1.768 4.38,3.582 2.171,1.814 4.304,3.673 2.133,1.859 4.227,3.762 2.094,1.903 4.148,3.849 2.054,1.946 4.067,3.934 2.013,1.988 3.984,4.018 1.971,2.03 3.899,4.101 1.929,2.07 3.813,4.18 1.885,2.111 3.726,4.259 1.84,2.149 3.635,4.336 1.796,2.187 3.545,4.410998 1.75,2.224 3.452,4.483 1.703,2.26 3.358,4.555 1.656,2.294 3.263,4.623 1.607,2.328 3.165,4.69 1.559,2.362 3.067,4.755 1.509,2.394 2.968,4.818 1.459,2.424 2.866,4.879 1.408,2.454 2.765,4.937 1.356,2.483 2.661,4.994 1.304,2.511 2.556,5.048 1.252,2.537 2.451,5.1 1.198,2.563 2.344,5.15 1.145,2.588 2.236,5.198 1.091,2.611 2.127,5.244 1.037,2.632 2.018,5.286 c 2.844,7.661 5.992,15.522 7.915,23.48 -3.672,4.54 -5.839,8.805 -7.465,14.403 -0.171,-0.171 -0.349,-0.334 -0.511,-0.513 -1.939,-2.144 -4.891,-16.151 -5.968,-19.729 -3.169,-10.532 -6.866,-21.022 -11.423,-31.04 q -1.708,-3.779 -3.536,-7.5 -1.829,-3.722 -3.777,-7.382 -1.947,-3.661 -4.012,-7.257 -2.065,-3.596 -4.244,-7.124 -2.179,-3.528 -4.471,-6.984 -2.292,-3.455 -4.694,-6.835 -2.402,-3.38 -4.911,-6.681 -2.51,-3.301 -5.125,-6.52 -2.614,-3.218 -5.331,-6.350997 -2.717,-3.132 -5.534,-6.175 -2.816,-3.044 -5.729,-5.995 -2.914,-2.951001 -5.92,-5.806 -3.007,-2.856 -6.104,-5.613 -3.097,-2.758 -6.281,-5.414 -3.185,-2.656 -6.453,-5.208 -3.268,-2.552001 -6.617,-4.998 -3.348,-2.445 -6.774,-4.781 -3.426,-2.337 -6.925,-4.562 -3.499,-2.224 -7.068,-4.335 -3.57,-2.111 -7.205,-4.106 -3.635,-1.995 -7.333,-3.872 -3.697,-1.876 -7.453,-3.633 -3.757,-1.756 -7.567,-3.391 -3.811,-1.635 -7.673,-3.146 -3.861,-1.511 -7.769,-2.897 -3.909,-1.386 -7.859,-2.645 -3.951,-1.259 -7.94,-2.391 -3.99,-1.131 -8.013,-2.133 -4.024,-1.002 -8.078,-1.875 -4.054,-0.872 -8.134,-1.613 -4.08,-0.741 -8.181,-1.35 -4.102,-0.609 -8.221,-1.086 c -69.226,-8.0900005 -137.008,13.762 -191.249,56.722 -52.484,41.567997 -83.994,106.006997 -91.562,171.861997 -0.476,4.144 -1.163,21.746 -2.131,23.998 -6.775,0.494 -3.437,-4.866 -10.117004,-9.641 z"
     id="path9" />
  <path
     fill="#7e143d"
     d="m 85.052096,604.15051 c 15.607004,-0.75 31.548004,0.031 47.184004,0.18 l 75.747,0.222 q 129.477,-0.864 258.957,-0.4 61.493,0.526 122.988,0.321 c 17.519,-0.023 35.192,0.519 52.696,-0.039 0.562,2.517 15.367,19.68 18.236,23.347 l -593.658004,-0.193 c 6.536,-7.388 11.461,-15.976 17.85,-23.438 z"
     id="path10"
     style="fill:#7e143d;fill-opacity:0.73394763" />
  <path
     fill="#600f43"
     d="m 108.6561,265.32151 c 0.968,-2.252 1.655,-19.854 2.131,-23.998 7.568,-65.855 39.078,-130.294 91.562,-171.861998 54.241,-42.96 122.023,-64.8119995 191.249,-56.722 q 4.119,0.477 8.221,1.086 4.101,0.609 8.181,1.35 4.08,0.741 8.134,1.613 4.054,0.873 8.078,1.875 4.023,1.002 8.013,2.133 3.989,1.132 7.94,2.391 3.95,1.259 7.859,2.645 3.908,1.386 7.769,2.897 3.862,1.511 7.673,3.146 3.81,1.635 7.567,3.391 3.756,1.757 7.453,3.633 3.698,1.877 7.333,3.872 3.635,1.995 7.205,4.106 3.569,2.111 7.068,4.335 3.499,2.225 6.925,4.562 3.426,2.336 6.774,4.781 3.349,2.446 6.617,4.998 3.268,2.552 6.453,5.208 3.184,2.656 6.281,5.414 3.097,2.757 6.104,5.613 3.006,2.855 5.92,5.806 2.913,2.951 5.729,5.995 2.817,3.043 5.534,6.175 2.717,3.132998 5.331,6.350998 2.615,3.219 5.125,6.52 2.509,3.301 4.911,6.681 2.402,3.38 4.694,6.835 2.292,3.456 4.471,6.984 2.179,3.528 4.244,7.124 2.065,3.596 4.012,7.257 1.948,3.66 3.777,7.382 1.828,3.721 3.536,7.5 c 4.557,10.018 8.254,20.508 11.423,31.04 1.077,3.578 4.029,17.585 5.968,19.729 0.162,0.179 0.34,0.342 0.511,0.513 -0.431,2.56 -0.883,5.09 -1.042,7.685 -4.805,-3.685 -9.779,-6.411 -16.077,-5.569 q -0.794,0.102 -1.574,0.284 -0.78,0.182 -1.537,0.442 -0.757,0.26 -1.484,0.596 -0.727,0.335 -1.416,0.743 -0.689,0.408 -1.333,0.884 -0.644,0.475 -1.236,1.014 -0.593,0.539 -1.127,1.135 -0.535,0.596 -1.006,1.243 c -2.737,3.767 -3.597,8.594 -2.745,13.133 0.905,4.817 3.79,8.89 7.847,11.592 8.505,5.666 19.756,3.18 29.439,3.588 l 11.897,0.056 q 0.428,6.032 0.582,12.076 0.154,6.045 0.033,12.09 -0.121,6.046 -0.516,12.08 -0.396,6.033 -1.065,12.043 -0.668,6.01 -1.61,11.982 -0.941,5.973 -2.153,11.897 -1.211,5.925 -2.69,11.787 -1.48,5.863 -3.224,11.653 l 23.276,-0.154 c 14.859,-0.081 27.754,-0.365 39.116,10.788 7.752,7.61 12.375,18.913 12.413,29.745 0.034,9.636 -3.147,18.875 -10.021,25.757 -6.229,6.236 -13.666,9.29 -22.188,10.98 0.079,15.601 -1.464,23.77 -11.286,36.235 -7.593,7.975 -14.856,11.792 -25.58,14.118 0.15,13.008 -2.536,24.165 -11.866,33.763 -6.192,6.37 -13.62,9.501 -21.837,12.467 q -3.993,1.032 -8.024,1.905 17.634,21.837 35.677,43.337 c 6.117,7.211 19.583,22.056 23.781,29.589 0.681,1.224 0.913,2.746 0.774,4.133 -0.177,1.752 -1.261,2.991 -2.635,3.972 -1.05,0.75 -2.171,1.233 -3.371,1.685 -17.504,0.558 -35.177,0.016 -52.696,0.039 q -61.495,0.205 -122.988,-0.321 -129.48,-0.463 -258.957,0.4 l -75.747,-0.222 c -15.636,-0.149 -31.577,-0.93 -47.184004,-0.18 -0.126,-0.055 -0.254,-0.103 -0.377,-0.164 -1.759,-0.874 -3.568,-2.253 -4.057,-4.258 -0.382,-1.57 0.044,-3.196 0.861,-4.547 3.765,-6.225 9.26,-11.708 13.843,-17.374 q 9.426004,-11.864 19.121004,-23.509 c 8.467,-10.047 17.078,-19.816 24.699,-30.537 -1.864,-0.159 -3.751,-0.132 -5.622,-0.163 -6.148,-4.575 -13.289,-5.986 -19.63,-11.681 -10.547,-9.475 -15.705004,-22.988 -16.450004,-36.932 -9.279,-2.664 -16.02,-8.131 -22.404,-15.217 -7.727,-10.494 -10.259,-22.129 -10.981,-34.979 q -1.508,-0.193 -2.996,-0.498 -1.489,-0.305 -2.951,-0.721 -1.462,-0.416 -2.888,-0.941 -1.426,-0.524 -2.809,-1.155 -1.383,-0.63 -2.715,-1.362 -1.332,-0.732 -2.605,-1.562 -1.273,-0.83 -2.48,-1.753 -1.207,-0.924 -2.342,-1.935 -0.646,-0.59 -1.261,-1.211 -0.616,-0.621 -1.2,-1.272 -0.585,-0.651 -1.136,-1.33 -0.551,-0.679 -1.068,-1.385 -0.517,-0.705 -0.999,-1.436 -0.481,-0.73 -0.926,-1.483 -0.444,-0.753 -0.851,-1.528 -0.407,-0.774 -0.775,-1.567 -0.368,-0.794 -0.696,-1.605 -0.329,-0.81 -0.616,-1.636 -0.288,-0.826 -0.535,-1.665 -0.246,-0.84 -0.451,-1.69 -0.204,-0.851 -0.367,-1.71 -0.162,-0.859 -0.281,-1.726 -0.12,-0.866 -0.196,-1.738 -0.077,-0.871 -0.11,-1.745 c -0.524,-11.163 2.972,-23.062 10.663,-31.347 10.925,-11.77 25.434,-11.336 40.253,-11.331 8.739,0.003 17.491,0.16 26.223004,-0.198 q -1.95,-5.832 -3.145,-11.864 l -35.522004,-0.002 c -6.67,0.037 -13.609,0.584 -20.24,0.044 -1.749,-0.142 -3.892,-0.455 -5.344,-1.543 -1.063,-0.796 -1.731,-1.756 -1.88,-3.107 -0.156,-1.425 0.297,-2.618 1.179,-3.713 1.23,-1.525 3.704,-2.121 5.541,-2.36 5.712,-0.743 12.1,-0.141 17.89,-0.117 11.997,0.051 24.084,0.167 36.069004,-0.367 -2.134,-9.665 -3.877004,-19.383 -3.904004,-29.312 l 9.558004,0.015 c 7.758,-0.027 20.162,1.855 26.231,-3.589 2.906,-2.606 4.595,-6.555 4.775,-10.426 0.192,-4.128 -1.303,-8.315 -4.236,-11.259 -6.105,-6.129 -18.348,-4.184 -26.256,-4.338 z"
     id="path11" />
  <path
     fill="#eefeed"
     d="m 446.8081,87.642513 6.686,-0.09 c -0.028,4.396 0.45,33.645997 -0.638,35.591997 -0.216,0.387 -0.594,0.656 -0.891,0.985 -1.719,0.708 -3.611,0.492 -5.381,0.036 0.402,-12.138 0.16,-24.372997 0.224,-36.522997 z"
     id="path12" />
  <path
     fill="#eefeed"
     d="m 230.0971,87.962513 c 2.638,-0.103001 5.275,-0.057 7.914,-0.027 l 0.421,0.209 c 0.128,16.671997 -0.37,33.345997 -0.39,50.019997 l -8.213,0.014 c -0.095,-16.728 0.237,-33.484 0.268,-50.215997 z"
     id="path13" />
  <path
     fill="#eefeed"
     d="m 366.2301,174.10851 c 2.81,1.37 5.516,2.955 8.242,4.483 -1.767,1.246 -3.515,2.523 -5.359,3.653 l -3.187,-3.371 c -25.787,14.739 -55.612,37.297 -63.705,67.45 -2.741,10.211 -1.544,25.421 -1.572,36.155 l -0.056,41.821 c 0.048,6.547 1.257,15.452 -0.728,21.566 -0.605,-0.206 -1.276,-0.243 -1.622,-0.835 -0.841,-1.434 -1.302,-95.925 0.939,-104.742 1.593,-6.265 4.97,-12.149 8.491,-17.516 14.686,-22.386 36.119,-35.413 58.557,-48.664 z"
     id="path14" />
  <path
     fill="#edae44"
     d="m 453.4941,87.552512 23.951,-0.023 c -0.196,4.339 -0.206,8.663 -0.194,13.004998 -2.908,0.01 -5.901,-0.146 -8.773,0.353 -1.662,0.812 -3.056,1.558 -3.628,3.486 -0.368,1.244 -0.13,2.418 0.513,3.521 0.469,0.805 1.005,1.266 1.724,1.821 3.254,0.509 6.572,0.292 9.853,0.219 0.024,7.802 0.958,20.801 -0.213,28.041 l -38.156,-0.013 c 0.029,-3.562 -1.216,-9.097 0.47,-12.256 0.412,-0.772 2.021,-0.874 2.853,-1.081 l 4.69,-0.46 c 1.77,0.456 3.662,0.672 5.381,-0.036 0.297,-0.329 0.675,-0.598 0.891,-0.985 1.088,-1.946 0.61,-31.195998 0.638,-35.591998 z"
     id="path15" />
  <defs
     id="defs16">
    <linearGradient
       id="gradient_0"
       gradientUnits="userSpaceOnUse"
       x1="556.0484"
       y1="352.40326"
       x2="547.00928"
       y2="296.0499"
       gradientTransform="translate(-146.3959,-210.98649)">
      <stop
         offset="0"
         stop-color="#F29F10"
         id="stop15" />
      <stop
         offset="1"
         stop-color="#EB871A"
         id="stop16" />
    </linearGradient>
  </defs>
  <path
     fill="url(#gradient_0)"
     d="m 343.5821,87.826512 c 17.478,-0.577999 35.096,-0.353 52.586,-0.307 -0.045,4.833 -1.162,32.839998 0.714,35.196998 1.692,1 3.146,1.458 5.103,1.708 5.289,0.675 11.078,0.243 16.421,0.231 7.817,-0.018 15.677,0.148 23.488,-0.03 -0.832,0.207 -2.441,0.309 -2.853,1.081 -1.686,3.159 -0.441,8.694 -0.47,12.256 l 38.156,0.013 -0.18,0.526 -98.449,0.014 c 0.47,-9.548 0.04,-19.38 0.044,-28.955 2.941,0.101 6.02,0.487 8.811,-0.628 1.848,-0.738 3.061,-1.553 3.863,-3.422 -0.204,-1.285 -0.413,-1.923 -1.458,-2.777 -3.088,-2.523 -7.529,-1.844 -11.21,-1.702 l 0.042,-13.144997 c -10.877,0.3 -21.782,0.185 -32.663,0.217 z"
     id="path16"
     style="fill:url(#gradient_0)" />
  <path
     fill="#d47127"
     d="m 477.4451,87.529513 26.22,0.042 0.021,50.933998 -27.139,-0.004 0.18,-0.526 c 1.171,-7.24 0.237,-20.239 0.213,-28.041 -3.281,0.073 -6.599,0.29 -9.853,-0.219 -0.719,-0.555 -1.255,-1.016 -1.724,-1.821 -0.643,-1.103 -0.881,-2.277 -0.513,-3.521 0.572,-1.928 1.966,-2.674 3.628,-3.486 2.872,-0.499 5.865,-0.343 8.773,-0.353 -0.012,-4.341998 -0.002,-8.665998 0.194,-13.004997 z"
     id="path17" />
  <path
     fill="#7e143d"
     d="m 468.4781,100.88751 0.757,0.042 c 5.989,0.308 22.698,-2.186998 26.573,2.048 0.925,1.012 1.019,1.337 1.046,2.618 -1.164,2.05 -2.763,2.989 -5.022,3.61 -7.251,1.991 -16.962,-0.333 -24.745,0.51 -0.719,-0.555 -1.255,-1.016 -1.724,-1.821 -0.643,-1.103 -0.881,-2.277 -0.513,-3.521 0.572,-1.928 1.966,-2.674 3.628,-3.486 z"
     id="path18" />
  <path
     fill="#087c38"
     d="m 107.1121,467.52151 c 10.905,3.31 63.865,1.914 78.988,1.86 -5.359,6.895 -11.287,13.505 -16.874,20.229 -5.899,7.102 -11.652,14.645 -18.212,21.146 q -1.297,0.049 -2.595,0.031 c -12.085,-0.089 -22.041,-1.78 -30.767,-10.791 -9.359,-9.666 -10.819,-19.565 -10.54,-32.475 z"
     id="path19" />
  <path
     fill="#087c38"
     d="m 542.7641,465.82351 c 8.212,-1.332 18.001,-0.436 26.365,-0.455 q 26.064,-0.153 52.128,0.048 c 0.241,13.009 0.598,25.409 -9.052,35.436 -8.204,8.526 -18.926,11.384 -30.423,11.764 -5.684,-6.062 -10.8,-12.734 -16.051,-19.176 q -11.276,-13.981 -22.967,-27.617 z"
     id="path20" />
  <path
     fill="#f6f6f8"
     d="m 296.5321,355.20851 c 0.925,0.246 0.452,0.043 1.382,0.693 -0.209,1.182 -0.657,1.811 -1.352,2.756 -14.288,19.439 -29.209,38.451 -43.686,57.757 q -49.092,65.54 -97.278,131.751 c -11.305,15.618 -23.1,30.914 -33.997,46.817 l -25.622004,-0.148 -1.073,-0.127 c 0.012,-0.146 0.003,-0.294 0.034,-0.437 0.125,-0.567 186.624004,-226.399 201.592004,-239.062 z"
     id="path21" />
  <path
     fill="#f6f6f8"
     d="m 432.6091,352.94051 c 0.254,0.02 0.509,0.032 0.762,0.06 1.201,0.134 2.09,0.227 2.98,1.129 5.537,5.616 11.485,14.635 16.774,20.983 l 45.069,53.732 138.123,166.198 -27.504,-0.005 c -14.6,-18.958 -28.042,-38.956 -42.16,-58.285 l -77.366,-105.565 -40.097,-55.141 c -5.49,-7.634 -11.779,-15.016 -16.581,-23.106 z"
     id="path22" />
  <path
     fill="#efb943"
     d="m 374.4721,178.59151 c 24.326,13.346 48.371,31.978 56.527,59.68 4.794,16.28 2.825,39.553 2.85,56.751 0.024,16.406 0.469,32.942 -0.068,49.337 l -10.06,-0.027 0.374,-51.656 c 0.04,-10.913 0.898,-22.585 -0.239,-33.412 -1.925,-18.334 -11.925,-35.193 -24.625,-48.186 q -3.615,-3.637 -7.516,-6.967 -3.9,-3.33 -8.059,-6.33 -4.16,-3 -8.55,-5.651 -4.391,-2.65 -8.983,-4.933 c -18.637,11.406 -35.188,23.994 -47.276,42.607 -3.065,4.721 -6.176,9.907 -7.507,15.436 -1.777,7.378 -0.358,24.867 -0.327,33.099 q 0.061,33.574 -0.263,67.147 c -3.567,-0.018 -7.381,-0.29 -10.885,0.379 1.985,-6.114 0.776,-15.019 0.728,-21.566 l 0.056,-41.821 c 0.028,-10.734 -1.169,-25.944 1.572,-36.155 8.093,-30.153 37.918,-52.711 63.705,-67.45 l 3.187,3.371 c 1.844,-1.13 3.592,-2.407 5.359,-3.653 z"
     id="path23" />
  <path
     fill="#edae44"
     d="m 309.4561,355.18351 8.118,-0.123 c -9.465,13.799 -17.801,28.545 -26.668,42.751 l -48.37,76.401 c -12.357,19.367 -24.875,38.764 -37.612,57.881 l -28.244,42.669 c -3.842,5.932 -10.102,13.469 -12.054,20.217 l -30.362,0.074 c 8.018,-12.71 17.392,-24.885 26.161,-37.106 l 55.927,-76.542 c 31.01,-42.026 60.949,-85.07 93.104,-126.222 z"
     id="path24" />
  <path
     fill="#edae44"
     d="m 367.9281,354.93651 c 17.906,-1.152 36.324,-0.373 54.293,-0.416 23.605,30.179 45.565,62.67 67.819,93.934 21.608,30.355 44.074,60.208 65.985,90.358 13.263,18.25 26.987,38.73 41.034,56.207 -9.949,-0.014 -20.036,0.283 -29.972,-0.063 -0.728,-3.357 -14.79,-22.837 -17.52,-26.934 -37.137,-55.73 -72.691,-112.416 -108.973,-168.685 q -8.24,-12.929 -15.981,-26.162 c -3.504,-6.061 -6.725,-12.88 -11.168,-18.298 l -28.684,0.217 c -5.57,0.038 -11.287,0.337 -16.833,-0.158 z"
     id="path25" />
  <path
     fill="#12934f"
     d="m 359.7711,202.48451 c 0.449,0.06 0.152,-0.02 0.745,0.54 0.942,15.17 0.066,31.76 0.047,47.102 l -0.207,94.973 q -19.401,-0.134 -38.802,0.061 c -0.639,-0.246 -0.264,-0.032 -0.909,-0.922 -0.428,-6.861 -0.008,-13.854 0.006,-20.736 l 0.083,-39.558 c 0.035,-7.365 -0.743,-32.203 0.662,-37.841 3.782,-15.167 25.478,-35.633 38.375,-43.619 z"
     id="path26" />
  <path
     fill="#efb943"
     d="m 238.0111,87.935513 c 5.278,-0.685 10.868,-0.327 16.199,-0.344 l 29.855,-0.074 c -0.039,4.180999 -1.012,33.266997 0.583,34.871997 1.365,1.374 3.9,1.74 5.735,1.986 5.987,0.802 12.611,0.218 18.684,0.215 8.116,-0.004 16.627,0.488 24.689,-0.191 1.306,-0.11 2.4,-0.367 3.63,-0.782 0.316,-0.107 0.635,-0.203 0.95,-0.31 0.208,-0.071 0.414,-0.149 0.62,-0.224 0.579,-11.058 -1.105,-23.806997 0.39,-34.567997 1.163,-0.92 2.82,-0.673 4.236,-0.689 l 1.945,0.277 c 10.881,-0.032 21.786,0.083 32.663,-0.217 l -0.042,13.144997 c 3.681,-0.142 8.122,-0.821 11.21,1.702 1.045,0.854 1.254,1.492 1.458,2.777 -0.802,1.869 -2.015,2.684 -3.863,3.422 -2.791,1.115 -5.87,0.729 -8.811,0.628 -0.004,9.575 0.426,19.407 -0.044,28.955 l -85.995,-0.092 c -14.787,-0.036 -29.896,0.547 -44.641,-0.324 -3.04,0.346 -6.349,0.092 -9.42,0.065 0.02,-16.674 0.518,-33.348 0.39,-50.019997 z"
     id="path27" />
  <path
     fill="#7e143d"
     d="m 378.1481,101.03151 c 3.681,-0.142 8.122,-0.821 11.21,1.702 1.045,0.854 1.254,1.492 1.458,2.777 -0.802,1.869 -2.015,2.684 -3.863,3.422 -2.791,1.115 -5.87,0.729 -8.811,0.628 -3.821,-0.111 -11.281,1.376 -14.428,-0.921 -1,-0.731 -1.534,-1.622 -1.635,-2.871 -0.099,-1.237 0.24,-2.388 1.16,-3.249 2.837,-2.653998 11.121,-1.549 14.909,-1.488 z"
     id="path28" />
  <path
     fill="#7e143d"
     d="m 263.0321,101.07451 c 3.008,-0.13 10.63,-1.291998 12.985,0.757 0.959,0.835 1.374,2.208 1.305,3.447 -0.074,1.318 -0.688,2.73 -1.699,3.6 -2.34,2.012 -9.665,1.046 -12.68,0.962 -3.073,0.025 -8.822,0.798 -11.498,-0.657 -1.223,-0.664 -1.845,-1.414 -2.18,-2.773 -0.29,-1.174 -0.048,-2.735 0.701,-3.682 2.158,-2.726 9.836,-1.66 13.066,-1.654 z"
     id="path29" />
  <path
     fill="#f6f6f8"
     d="m 343.5821,87.826512 1.945,0.277 -0.056,23.872998 c -0.01,4.162 0.358,8.608 -0.218,12.724 -0.218,1.551 -0.673,3.39 -1.79,4.55 -0.509,0.529 -0.985,0.406 -1.669,0.475 -1.216,-0.664 -2.017,-1.171 -2.564,-2.506 -0.466,-1.136 -0.318,-2.928 -0.274,-4.136 0.579,-11.058 -1.105,-23.806998 0.39,-34.567998 1.163,-0.92 2.82,-0.673 4.236,-0.689 z"
     id="path30" />
  <path
     fill="#edae44"
     d="m 238.4321,88.144512 c 8.194,-0.017 16.396,0.047 24.589,-0.061 l 0.011,12.990998 c -3.23,-0.006 -10.908,-1.072 -13.066,1.654 -0.749,0.947 -0.991,2.508 -0.701,3.682 0.335,1.359 0.957,2.109 2.18,2.773 2.676,1.455 8.425,0.682 11.498,0.657 l 0.065,27.978 c -5.131,-0.019 -10.45,-0.329 -15.546,0.281 -3.04,0.346 -6.349,0.092 -9.42,0.065 0.02,-16.674 0.518,-33.348 0.39,-50.019998 z"
     id="path31" />
  <path
     fill="#12934f"
     d="m 369.5351,199.17451 c 7.361,4.063 17.826,13.314 23.654,19.258 8.606,8.777 15.781,18.98 19.28,30.871 3.952,13.431 2.185,31.281 2.202,45.355 q 0.116,25.17 -0.036,50.339 c -14.997,-0.19 -30.016,0.01 -45.015,0.048 q 0.671,-72.936 -0.085,-145.871 z"
     id="path32" />
  <path
     fill="#12934f"
     d="m 496.0001,411.03651 c 16.496,0.465 33.11,-0.067 49.621,-0.088 l 90.072,0.024 28.869,-0.26 c 3.684,-0.038 8.484,-0.681 12.025,0.105 -5.947,4.181 -11.597,4.588 -18.587,4.632 0.353,14.683 1.132,28.153 -9.723,39.605 -6.522,6.88 -15.162,10.127 -24.557,10.343 q -1.231,0.027 -2.463,0.019 -26.064,-0.201 -52.128,-0.048 c -8.364,0.019 -18.153,-0.877 -26.365,0.455 -8.681,-9.174 -16.85,-19.213 -25.055,-28.834 -7.286,-8.543 -14.962,-16.993 -21.709,-25.953 z"
     id="path33" />
  <path
     fill="#f6f6f8"
     d="m 565.4761,420.13151 c 8.646,-0.446 53.622,-1.022 58.729,0.571 1.57,0.49 3.539,1.395 4.188,3.035 0.517,1.303 0.013,2.551 -0.547,3.734 -1.032,2.176 -2.148,2.924 -4.366,3.751 -10.759,0.313 -21.557,-0.107 -32.32,-0.106 -6.685,0 -19.85,1.374 -25.753,-0.237 -1.771,-0.483 -3.559,-1.371 -4.343,-3.151 -0.541,-1.229 -0.442,-2.815 0.02,-4.055 0.748,-2.012 2.547,-2.763 4.392,-3.542 z"
     id="path34" />
  <path
     fill="#12934f"
     d="m 66.355096,414.63551 c 1.515,-0.098 2.941,-0.357 4.427,-0.663 8.97,-1.846 18.929,-1.027 28.09,-1.055 q 19.963004,0.007 39.920004,-0.468 c 8.966,-0.272 17.844,-2.249 26.821,-1.76 -2.621,0.065 -4.852,0.334 -7.416,0.932 8.682,-0.948 13.12,0.659 21.202,0.771 18.386,0.253 36.925,0.458 55.304,-0.101 -7.381,9.129 -15.217,17.885 -22.826,26.823 -8.587,10.085 -16.984,20.36 -25.777,30.267 -15.123,0.054 -68.083,1.45 -78.988,-1.86 -1.866,-0.817 -4.03,-1.059 -6.021,-1.493 -6.194004,-1.35 -11.169004,-3.843 -15.611004,-8.398 -11.445,-11.737 -11.921,-27.301 -11.674,-42.677 -2.504,0.018 -4.958,-0.128 -7.451,-0.318 z"
     id="path35" />
  <path
     fill="#f6f6f8"
     d="m 111.1931,428.73051 c 7.462,-0.051 18.301,-1.084 25.369,0.35 2.231,0.453 3.771,1.195 5.006,3.155 0.243,1.25 0.269,2.117 -0.174,3.305 -0.625,1.68 -1.863,2.271 -3.369,2.976 -7.181,0.156 -19.455,1.323 -26.015,-0.154 -1.748,-0.394 -3.824,-1.219 -4.651,-2.95 -0.603,-1.259 -0.299,-2.855 0.299,-4.064 0.746,-1.507 2.069,-2.07 3.535,-2.618 z"
     id="path36" />
  <defs
     id="defs37">
    <linearGradient
       id="gradient_1"
       gradientUnits="userSpaceOnUse"
       x1="579.91528"
       y1="434.66617"
       x2="675.88965"
       y2="480.74017"
       gradientTransform="translate(-146.3959,-210.98649)">
      <stop
         offset="0"
         stop-color="#B9552A"
         id="stop36" />
      <stop
         offset="1"
         stop-color="#B76F3A"
         id="stop37" />
    </linearGradient>
  </defs>
  <path
     fill="url(#gradient_1)"
     d="m 469.0231,148.00851 25.625,-0.015 q 0.619,64.957 0.412,129.916 c -0.032,22.676 0.414,45.529 -0.348,68.19 -8.492,0.048 -17.08,0.374 -25.562,0.083 q -11.917,0.029 -23.83,0.336 c -0.708,-1.082 -1.472,-2.123 -2.228,-3.171 l 0.137,-58.834 c 0.03,-14.048 0.873,-28.337 -1.489,-42.224 1.43,-1.877 2.026,-4.763 2.624,-7.035 3.48,-13.223 3.205,-25.421 2.916,-38.896 -0.345,-16.102 -1.46,-32.319 -1.304,-48.408 z"
     id="path37"
     style="fill:url(#gradient_1)" />
  <path
     fill="#edae44"
     d="m 445.9761,147.95051 23.047,0.058 0.127,198.174 q -11.917,0.029 -23.83,0.336 c -0.708,-1.082 -1.472,-2.123 -2.228,-3.171 l 0.137,-58.834 c 0.03,-14.048 0.873,-28.337 -1.489,-42.224 1.43,-1.877 2.026,-4.763 2.624,-7.035 3.48,-13.223 3.205,-25.421 2.916,-38.896 -0.345,-16.102 -1.46,-32.319 -1.304,-48.408 z"
     id="path38" />
  <path
     fill="#600f43"
     d="m 454.6931,204.02651 c 0.595,0.086 0.903,0.119 1.521,0.27 1.72,0.42 3.073,1.181 3.941,2.82 0.646,1.22 0.722,2.595 0.273,3.888 -0.767,2.203 -2.26,2.95 -4.239,3.884 -1.052,-0.137 -2.168,-0.254 -3.159,-0.651 -1.422,-0.571 -2.785,-1.74 -3.285,-3.225 -0.464,-1.381 -0.412,-2.265 0.205,-3.587 0.899,-1.924 2.861,-2.765 4.743,-3.399 z"
     id="path39" />
  <path
     fill="#29b747"
     d="m 450.7321,356.54851 c 18.879,-0.717 37.826,-0.508 56.717,-0.53 l 87.372,-0.016 47.73,0.009 c 6.961,0.001 14.75,-0.78 21.615,0.101 6.142,0.789 11.523,3.334 16.058,7.518 6.243,5.759 9.54,13.606 9.84,22.048 0.265,7.441 -1.82,15.271 -7.149,20.696 q -1.363,1.394 -2.958,2.514 -1.596,1.121 -3.37,1.929 c -3.541,-0.786 -8.341,-0.143 -12.025,-0.105 l -28.869,0.26 -90.072,-0.024 c -16.511,0.021 -33.125,0.553 -49.621,0.088 l -27.455,-32.133 c -6.118,-7.198 -12.798,-14.323 -17.813,-22.355 z"
     id="path40" />
  <path
     fill="#f6f6f8"
     d="m 508.3251,392.55951 c 6.958,-0.11 14.521,-0.81 21.416,-0.093 2.049,0.213 4.093,0.972 5.272,2.772 0.779,1.189 0.827,2.44 0.539,3.792 -0.432,2.019 -1.906,3.18 -3.572,4.185 -6.071,0.185 -12.418,0.632 -18.472,0.215 -2.666,-0.184 -6.49,-0.731 -8.178,-3.102 -0.746,-1.048 -0.827,-2.333 -0.595,-3.558 0.407,-2.148 1.891,-3.09 3.59,-4.211 z"
     id="path41" />
  <path
     fill="#f6f6f8"
     d="m 608.4011,380.54151 8.454,-0.122 c 4.996,-0.067 16.674,-1.52 19.99,2.555 0.904,1.111 0.898,2.713 0.607,4.047 -0.404,1.848 -1.494,2.76 -2.986,3.793 -6.569,0.433 -21.551,1.51 -27.187,-1.202 -1.543,-0.743 -2.083,-1.519 -2.676,-3.085 0.295,-2.758 1.768,-4.231 3.798,-5.986 z"
     id="path42" />
  <path
     fill="#29b747"
     d="m 66.355096,414.63551 q -0.631,-0.014 -1.261,-0.057 -0.63,-0.043 -1.258,-0.116 -0.627,-0.073 -1.25,-0.175 -0.623,-0.102 -1.241,-0.233 -0.618,-0.131 -1.229,-0.291 -0.611,-0.16 -1.214,-0.348 -0.602,-0.188 -1.196,-0.405 -0.593,-0.216 -1.175,-0.46 -0.583,-0.244 -1.153,-0.515 -0.571,-0.271 -1.128,-0.568 -0.557,-0.298 -1.1,-0.621 -0.542,-0.323 -1.069,-0.671 -0.527,-0.348 -1.037,-0.721 -0.51,-0.372 -1.002,-0.768 -0.492,-0.396 -0.964,-0.815 -0.473,-0.419 -0.926,-0.859 c -5.068,-4.955 -7.994,-11.362 -8.072,-18.484 -0.096,-8.798 3.436,-17.908 9.674,-24.145 4.049,-4.048 8.605,-6.35 14.245,-7.118 9.693,-1.318 20.178,-0.575 29.996,-0.597 l 60.267004,0.154 q 43.606,0.204 87.207,-0.419 c 14.153,-0.221 28.248,-1.088 42.414,-0.994 -15.651,19.458 -32.77,38.044 -49.18,56.882 -18.379,0.559 -36.918,0.354 -55.304,0.101 -8.082,-0.112 -12.52,-1.719 -21.202,-0.771 2.564,-0.598 4.795,-0.867 7.416,-0.932 -8.977,-0.489 -17.855,1.488 -26.821,1.76 q -19.957,0.475 -39.920004,0.468 c -9.161,0.028 -19.12,-0.791 -28.09,1.055 -1.486,0.306 -2.912,0.565 -4.427,0.663 z"
     id="path43" />
  <path
     fill="#f6f6f8"
     d="m 75.443096,381.56351 c 5.048,-0.107 10.117,-0.292 15.165,-0.24 2.849,0.029 6.844,0.072 8.903,2.387 0.834004,0.937 1.036004,2.048 0.884004,3.275 -0.266,2.154 -1.531004,3.078 -3.165004,4.266 -0.145,0.016 -0.289,0.035 -0.435,0.048 -5.186,0.47 -19.816,1.895 -23.531,-2.007 -0.885,-0.929 -1.189,-2.147 -1.077,-3.405 0.191,-2.154 1.663,-3.162 3.256,-4.324 z"
     id="path44" />
  <path
     fill="#f6f6f8"
     d="m 140.6731,399.73951 27.023,-0.014 c 3.517,-0.024 7.801,-0.798 11.187,-0.049 1.942,0.429 4.362,1.619 5.262,3.514 0.562,1.181 0.705,2.357 0.114,3.568 -0.891,1.826 -2.5,2.566 -4.308,3.196 -6.653,0.142 -35.597,1.018 -40.085,-0.65 -1.765,-0.656 -4.072,-2.081 -4.586,-4.035 -0.252,-0.957 -0.133,-1.818 0.412,-2.631 1.112,-1.657 3.116,-2.495 4.981,-2.899 z"
     id="path45" />
  <path
     fill="#efb943"
     d="m 236.8801,147.79151 209.096,0.159 c -0.156,16.089 0.959,32.306 1.304,48.408 0.289,13.475 0.564,25.673 -2.916,38.896 -0.598,2.272 -1.194,5.158 -2.624,7.035 -1.583,-6.951 -3.907,-13.905 -7.137,-20.269 -11.047,-21.761 -31.695,-37.979 -52.393,-50.146 -4.862,-2.859 -10.121,-6.108 -15.49,-7.834 -18.164,8.376 -36.766,20.363 -51.033,34.465 -10.678,10.555 -21.76,25.351 -25.796,40.03 -2.188,7.959 -1.116,27.531 -1.151,36.519 l -0.196,70.469 c -17.266,-0.104 -34.493,0.881 -51.753,0.932 z"
     id="path46" />
  <path
     fill="#7e143d"
     d="m 426.6321,157.49251 c 0.796,0.126 0.914,0.13 1.762,0.34 1.673,0.413 3.099,1.391 3.854,2.985 0.623,1.315 0.557,2.542 0.107,3.892 -0.701,2.107 -2.482,3.056 -4.349,3.964 -0.593,-0.087 -1.284,-0.156 -1.859,-0.351 -1.665,-0.564 -3.048,-1.708 -3.698,-3.375 -0.502,-1.289 -0.425,-2.687 0.097,-3.949 0.819,-1.982 2.233,-2.712 4.086,-3.506 z"
     id="path47" />
  <path
     fill="#7e143d"
     d="m 310.6251,165.92751 c 0.775,0.009 1.521,0.03 2.279,0.213 1.54,0.373 3.124,1.206 3.865,2.687 0.624,1.246 0.792,2.477 0.349,3.822 -0.677,2.054 -2.163,2.952 -3.922,3.968 -0.606,0.005 -1.251,0.031 -1.857,-0.041 -1.772,-0.211 -3.277,-0.906 -4.256,-2.457 -0.734,-1.162 -0.855,-2.537 -0.49,-3.841 0.613,-2.19 2.184,-3.228 4.032,-4.351 z"
     id="path48" />
  <path
     fill="#7e143d"
     d="m 268.1501,237.51851 c 0.621,-0.027 1.343,-0.095 1.968,-0.01 1.711,0.233 3.298,0.97 4.289,2.446 0.748,1.114 0.948,2.51 0.688,3.81 -0.458,2.294 -1.87,3.425 -3.7,4.708 -0.177,0.008 -0.355,0.023 -0.532,0.023 -2.024,-0.001 -3.933,-0.495 -5.224,-2.163 -0.866,-1.118 -1.144,-2.514 -0.952,-3.89 0.33,-2.379 1.647,-3.515 3.463,-4.924 z"
     id="path49" />
  <path
     fill="#600f43"
     d="m 259.0161,260.03351 c 2.309,0.122 4.468,0.27 6.176,2.016 0.931,0.95 1.461,2.211 1.332,3.558 -0.216,2.249 -1.649,3.538 -3.274,4.911 -0.972,0.084 -1.976,0.184 -2.952,0.108 q -0.288,-0.022 -0.572,-0.074 -0.284,-0.053 -0.561,-0.135 -0.277,-0.083 -0.544,-0.194 -0.267,-0.111 -0.52,-0.25 -0.254,-0.139 -0.491,-0.304 -0.237,-0.165 -0.456,-0.354 -0.218,-0.189 -0.415,-0.401 -0.197,-0.211 -0.371,-0.442 c -0.828,-1.109 -0.994,-2.263 -0.824,-3.605 0.28,-2.216 1.807,-3.556 3.472,-4.834 z"
     id="path50" />
  <path
     fill="#7e143d"
     d="m 268.0451,182.51051 c 0.668,-0.056 1.395,-0.147 2.07,-0.114 1.829,0.087 3.381,0.686 4.625,2.049 1.004,1.099 1.423,2.432 1.309,3.901 -0.183,2.365 -1.45,3.57 -3.124,5.102 -0.497,0.035 -0.994,0.077 -1.493,0.082 -1.869,0.018 -3.632,-0.582 -4.944,-1.958 -1.095,-1.149 -1.599,-2.68 -1.426,-4.26 0.237,-2.167 1.433,-3.413 2.983,-4.802 z"
     id="path51" />
  <path
     fill="#efd091"
     d="m 317.5741,355.06051 c 16.655,-0.131 33.751,-1.021 50.354,-0.124 5.546,0.495 11.263,0.196 16.833,0.158 l 28.684,-0.217 c 4.443,5.418 7.664,12.237 11.168,18.298 q 7.741,13.233 15.981,26.162 c 36.282,56.269 71.836,112.955 108.973,168.685 2.73,4.097 16.792,23.577 17.52,26.934 l -402.461,0.023 c 1.952,-6.748 8.212,-14.285 12.054,-20.217 l 28.244,-42.669 c 12.737,-19.117 25.255,-38.514 37.612,-57.881 l 48.37,-76.401 c 8.867,-14.206 17.203,-28.952 26.668,-42.751 z"
     id="path52" />
  <path
     fill="#edae44"
     d="m 375.3621,387.59751 1.32,-0.184 c 0.556,5.492 0.672,11.108 0.968,16.623 q -12.031,-0.083 -24.061,0.133 c 0.03,-5.36 0.35,-10.924 1.108,-16.228 6.771,0.021 13.95,0.453 20.665,-0.344 z"
     id="path53" />
  <path
     fill="#f6f6f8"
     d="m 484.8211,545.66751 c 6.173,-0.207 12.348,-0.005 18.523,-0.064 5.653,-0.054 12.658,-1.101 18.15,0.276 1.788,0.448 3.729,1.412 4.584,3.15 0.772,1.571 0.941,3.73 0.328,5.392 -0.697,1.889 -2.408,2.768 -4.135,3.516 -8.068,0.288 -35.704,1.924 -40.999,-2.972 -0.924,-0.855 -1.381,-1.766 -1.302,-3.052 0.134,-2.166 3.141,-5.084 4.851,-6.246 z"
     id="path54" />
  <path
     fill="#f6f6f8"
     d="m 203.8631,545.69351 c 7.821,-0.113 15.659,0.159 23.483,0.155 5.207,-0.002 10.706,-0.531 15.866,-0.012 1.664,0.168 3.433,0.551 4.916,1.35 1.546,0.833 3.001,2.171 3.306,3.985 0.274,1.63 -0.424,3.275 -1.43,4.524 -1.112,1.379 -2.134,1.619 -3.776,1.822 -7.823,0.586 -39.417,2.107 -44.955,-0.967 -1.351,-0.75 -2.512,-1.96 -2.777,-3.542 -0.259,-1.546 0.344,-3.56 1.165,-4.872 0.983,-1.571 2.501,-2.01 4.202,-2.443 z"
     id="path56" />
  <path
     fill="#edae44"
     d="m 350.5391,457.50951 c 9.856,-0.014 19.74,0.124 29.592,-0.191 0.644,8.036 1.683,16.722 1.399,24.767 -10.802,-0.214 -21.66,0.013 -32.467,0.04 -0.322,-7.939 0.585,-16.705 1.476,-24.616 z"
     id="path57" />
  <path
     fill="#14bb8c"
     d="m 108.6561,265.32151 c 0.968,-2.252 1.655,-19.854 2.131,-23.998 7.568,-65.855 39.078,-130.294 91.562,-171.861998 54.241,-42.96 122.023,-64.8119995 191.249,-56.722 q 4.119,0.477 8.221,1.086 4.101,0.609 8.181,1.35 4.08,0.741 8.134,1.613 4.054,0.873 8.078,1.875 4.023,1.002 8.013,2.133 3.989,1.132 7.94,2.391 3.95,1.259 7.859,2.645 3.908,1.386 7.769,2.897 3.862,1.511 7.673,3.146 3.81,1.635 7.567,3.391 3.756,1.757 7.453,3.633 3.698,1.877 7.333,3.872 3.635,1.995 7.205,4.106 3.569,2.111 7.068,4.335 3.499,2.225 6.925,4.562 3.426,2.336 6.774,4.781 3.349,2.446 6.617,4.998 3.268,2.552 6.453,5.208 3.184,2.656 6.281,5.414 3.097,2.757 6.104,5.613 3.006,2.855 5.92,5.806 2.913,2.951 5.729,5.995 2.817,3.043 5.534,6.175 2.717,3.132998 5.331,6.350998 2.615,3.219 5.125,6.52 2.509,3.301 4.911,6.681 2.402,3.38 4.694,6.835 2.292,3.456 4.471,6.984 2.179,3.528 4.244,7.124 2.065,3.596 4.012,7.257 1.948,3.66 3.777,7.382 1.828,3.721 3.536,7.5 c 4.557,10.018 8.254,20.508 11.423,31.04 1.077,3.578 4.029,17.585 5.968,19.729 0.162,0.179 0.34,0.342 0.511,0.513 -0.431,2.56 -0.883,5.09 -1.042,7.685 -4.805,-3.685 -9.779,-6.411 -16.077,-5.569 q -0.794,0.102 -1.574,0.284 -0.78,0.182 -1.537,0.442 -0.757,0.26 -1.484,0.596 -0.727,0.335 -1.416,0.743 -0.689,0.408 -1.333,0.884 -0.644,0.475 -1.236,1.014 -0.593,0.539 -1.127,1.135 -0.535,0.596 -1.006,1.243 c -2.737,3.767 -3.597,8.594 -2.745,13.133 0.905,4.817 3.79,8.89 7.847,11.592 8.505,5.666 19.756,3.18 29.439,3.588 2.277,35.736 -1.088,61.095 -9.855,95.716 -36.374,0.11 -72.89,0.764 -109.247,-0.021 l 0.089,-198.103 c 2.505,0.092 6.139,0.734 8.107,-1.126 0.706,-0.667 0.867,-1.039 1.064,-2.01 1.04,-5.126 0.314,-11.739 0.319,-17.028 l -0.012,-37.530998 c -0.017,-3.55 -0.022,-7.415 -1.015,-10.848 -2.054,-0.958 -4.282,-1.183 -6.522,-1.335 -10.846,-0.74 -22.125,-0.108 -33.023,-0.08 -9.06,0.023 -18.416,-0.54 -27.446,0.024 -2.106,0.131 -4.433,0.436 -6.416,1.177 -0.544,0.203 -0.96,0.486 -1.433,0.815 -1.89,6.149 -0.447,27.711998 -0.495,35.595998 q -15.854,-0.167 -31.708,-0.007 c -0.047,-7.61 1.302,-29.711998 -0.861,-35.787998 -1.533,-1.369 -4.716,-1.558 -6.699,-1.719 -8.613,-0.697 -17.798,-0.03 -26.457,0.018 -11.104,0.062 -22.396,-0.37 -33.467,0.187 -2.401,0.121 -6.103,0.399 -7.96,1.985 -2,6.444 -0.651,27.107998 -0.748,35.221998 q -18.033,-0.092 -36.066,0.024 -0.164,-10.238 0.147,-20.471998 c 0.086,-3.632 0.608,-7.712 0.105,-11.298 -0.209,-1.485 -0.732,-2.974 -1.86,-4.011 -1.463,-1.346 -3.594,-1.72 -5.503,-1.888 -8.908,-0.784 -20.428,0.201 -29.711,0.255 -10.015,0.059 -21.363,-0.943 -31.218,0.177 -1.106,0.126 -1.993,0.238 -2.85,0.998 -1.032,2.211 -1.472,4.481 -1.658,6.899 -0.451,5.877 -0.796,55.396998 0.266,57.627998 1.497,3.141 5.595,3.28 6.42,4.481 0.297,0.434 0.194,180.645 0.082,198.934 q -55.042,-0.397 -110.086,-0.193 c -3.931,-17.371 -7.539,-34.45 -9.282,-52.195 7.758,-0.027 20.162,1.855 26.231,-3.589 2.906,-2.606 4.595,-6.555 4.775,-10.426 0.192,-4.128 -1.303,-8.315 -4.236,-11.259 -6.105,-6.129 -18.348,-4.184 -26.256,-4.338 z"
     id="path60" />
  <path
     fill="#f6f6f8"
     d="m 175.9881,191.82351 c 1.514,0.119 2.968,0.254 4.264,1.133 1.116,0.757 1.326,1.803 1.578,3.022 0.295,1.424 0.618,2.84 0.927,4.26 1.744,1.383 4.815,0.76 6.872,2.048 1.124,0.703 1.656,1.68 1.814,2.978 0.641,5.264 -5.669,3.35 -8.245,5.046 -0.314,0.207 -1.638,6.408 -3.692,8.54 -1.606,0.125 -3.281,0.143 -4.553,-1.053 -1.793,-1.684 -1.661,-5.357 -1.85,-7.652 -1.454,-0.206 -2.936,-0.394 -4.368,-0.723 -1.747,-0.401 -3.574,-1.439 -4.321,-3.169 -0.456,-1.056 -0.236,-2.107 0.476,-2.988 1.739,-2.152 5.197,-2.183 7.694,-2.348 0.528,-3.726 0.797,-6.184 3.404,-9.094 z"
     id="path61" />
  <path
     fill="#f6f6f8"
     d="m 539.0801,185.92251 c 1.948,0.139 3.957,0.555 5.222,2.183 1.946,2.503 1.143,6.609 0.9,9.532 3.287,-0.079 6.25,-0.363 9.216,1.339 1.496,0.859 2.31,1.713 2.797,3.395 -0.139,1.284 -0.412,1.913 -1.397,2.797 -2.88,2.583 -7.165,2.034 -10.723,2.002 0.083,3.816 0.457,6.534 -1.903,9.761 -1.995,0.603 -3.41,0.711 -5.333,-0.109 -2.446,-2.395 -2.13,-5.976 -2.346,-9.179 -2.195,-0.098 -4.816,-0.126 -6.839,-1.053 -1.815,-0.833 -2.816,-2.063 -3.466,-3.906 0.18,-1.454 0.301,-2.192 1.359,-3.266 2.255,-2.286 6.07,-1.967 9.005,-1.971 -0.062,-1.999 -0.216,-4.098 -0.024,-6.089 0.256,-2.637 1.515,-3.88 3.532,-5.436 z"
     id="path62" />
</svg>
