<?xml version="1.0" encoding="UTF-8" standalone="no"?>
<svg
   width="1024"
   height="1024"
   version="1.1"
   id="svg53"
   sodipodi:docname="science.svg"
   inkscape:version="1.3.2 (091e20ef0f, 2023-11-25)"
   xmlns:inkscape="http://www.inkscape.org/namespaces/inkscape"
   xmlns:sodipodi="http://sodipodi.sourceforge.net/DTD/sodipodi-0.dtd"
   xmlns="http://www.w3.org/2000/svg"
   xmlns:svg="http://www.w3.org/2000/svg">
  <sodipodi:namedview
     id="namedview53"
     pagecolor="#ffffff"
     bordercolor="#000000"
     borderopacity="0.25"
     inkscape:showpageshadow="2"
     inkscape:pageopacity="0.0"
     inkscape:pagecheckerboard="0"
     inkscape:deskcolor="#d1d1d1"
     inkscape:zoom="0.70507812"
     inkscape:cx="512"
     inkscape:cy="511.29086"
     inkscape:window-width="1920"
     inkscape:window-height="1011"
     inkscape:window-x="0"
     inkscape:window-y="0"
     inkscape:window-maximized="1"
     inkscape:current-layer="svg53" />
  <path
     fill="#FEFEFE"
     d="M321.687 174.796C323.267 176.458 324.072 179.075 325.055 181.136C328.527 188.41 335.011 191.081 341.745 194.591C330.058 199.929 327.551 201.951 322.279 213.758C320.431 212.084 319.899 209.315 318.709 207.158C315.119 200.647 308.55 197.708 302.348 194.25C313.752 188.72 316.582 186.727 321.687 174.796Z"
     id="path2" />
  <path
     fill="#FEFEFE"
     d="M737.707 280.022C738.097 280.929 738.38 281.818 738.571 282.787C739.01 285.016 738.845 287.427 737.431 289.296C736.227 290.888 734.326 291.75 732.374 291.959C730.009 292.212 727.548 291.466 725.798 289.838Q725.551 289.612 725.329 289.362Q725.107 289.112 724.911 288.84Q724.716 288.568 724.55 288.277Q724.385 287.986 724.25 287.68Q724.115 287.373 724.013 287.055Q723.91 286.736 723.841 286.408Q723.773 286.081 723.738 285.748Q723.704 285.415 723.704 285.08C723.689 282.944 724.462 280.491 726.079 279.03C728.241 277.077 730.992 276.955 733.751 277.011C734.864 277.894 736.418 279.499 737.707 280.022Z"
     id="path5" />
  <path
     fill="#FEFEFE"
     d="M693.916 335.051C695.884 335.059 698.205 335.315 699.7 336.735C702.448 339.344 701.505 345.811 701.518 349.335C704.136 349.408 706.979 349.247 709.56 349.557C711.654 349.808 714.076 351.28 715.283 353C716.141 354.222 716.481 355.726 716.029 357.179C713.834 364.241 707.116 359.479 703.155 362.265C699.687 364.704 702.328 369.007 701.107 372.177C700.262 374.37 698.969 375.223 696.976 376.336C695.099 376.291 693.205 376.232 691.714 374.907C688.673 372.203 689.687 366.122 689.784 362.532C685.903 362.364 682.071 362.564 678.551 360.681C676.874 359.784 675.338 358.372 674.95 356.427C674.685 355.096 675.359 353.808 676.243 352.863C679.695 349.174 684.959 349.595 689.56 349.546C689.573 346.565 689.289 343.116 689.951 340.22C690.561 337.549 691.655 336.481 693.916 335.051Z"
     id="path8" />
  <path
     fill="#FEFEFE"
     d="M256.567 371.909C257.794 372.033 259.085 372.152 260.116 372.897C261.081 373.594 261.628 374.634 261.599 375.829C261.547 377.949 260.256 379.114 258.822 380.456C257.055 380.227 255.239 379.88 254.155 378.311C253.435 377.268 253.256 376.285 253.604 375.055C254.049 373.483 255.298 372.759 256.567 371.909Z"
     id="path10" />
  <path
     fill="#FEFEFE"
     d="M282.065 435.011C283.623 434.939 285.126 434.904 286.641 435.341Q287.107 435.478 287.558 435.661Q288.008 435.843 288.438 436.069Q288.868 436.296 289.274 436.563Q289.679 436.831 290.056 437.138Q290.433 437.444 290.778 437.786Q291.123 438.129 291.432 438.504Q291.741 438.878 292.012 439.282Q292.283 439.686 292.512 440.114Q292.726 440.525 292.896 440.957Q293.066 441.388 293.189 441.835Q293.313 442.282 293.389 442.739Q293.465 443.196 293.492 443.659Q293.52 444.122 293.499 444.585Q293.478 445.048 293.408 445.506Q293.339 445.964 293.222 446.413Q293.105 446.861 292.941 447.295C291.757 450.471 289.431 451.922 286.502 453.305C284.78 453.493 283.169 453.568 281.486 453.069C279.051 452.348 276.944 450.609 275.884 448.288C274.852 446.032 274.836 443.463 275.708 441.154C276.896 438.007 279.118 436.382 282.065 435.011Z"
     id="path11" />
  <path
     fill="#203759"
     d="M432.191 200.6C431.979 189.465 430.148 175.476 438.646 166.796C442.3 163.064 447.229 160.446 452.319 159.336C461.25 157.389 478.62 158.39 488.203 158.359L563.559 158.415C572.182 158.507 579.191 161.111 585.29 167.256C594.89 176.928 591.979 190.453 592.449 202.693C591.271 212.939 587.819 218.518 580.064 225.091C580.147 227.551 580.108 230.106 580.324 232.553Q580.521 242.644 580.425 252.737C583.603 254.499 586.434 256.174 587.486 259.892C588.15 262.242 587.882 264.84 587.653 267.237C598.245 266.983 614.851 264.216 623.1 272.17C625.632 274.61 627.707 277.717 628.719 281.103C631.27 289.644 630.034 306.097 630.013 315.31C629.993 324.052 630.695 334.936 623.835 341.589C620.626 344.701 616.565 346.235 612.312 347.307C612.395 354.444 610.506 357.338 609.746 363.641C609.044 369.456 609.541 375.709 609.637 381.564C609.89 397.009 609.509 409.052 621.281 420.632C628.108 427.347 637.108 432.024 644.949 437.483C654.055 443.824 662.799 451.074 671.142 458.388Q673.695 460.602 676.19 462.882Q678.685 465.161 681.12 467.505Q683.554 469.849 685.927 472.256Q688.299 474.662 690.608 477.13Q692.917 479.598 695.161 482.125Q697.405 484.652 699.583 487.236Q701.76 489.821 703.87 492.461Q705.979 495.102 708.018 497.796Q710.058 500.491 712.027 503.238Q713.996 505.984 715.892 508.782Q717.789 511.579 719.612 514.424Q721.435 517.27 723.183 520.162Q724.931 523.055 726.603 525.991Q728.276 528.928 729.871 531.908Q731.466 534.887 732.983 537.907Q734.5 540.927 735.937 543.985Q737.375 547.044 738.733 550.139Q740.09 553.234 741.366 556.363Q742.643 559.492 743.837 562.653Q745.031 565.815 746.143 569.006Q747.255 572.198 748.282 575.417Q749.31 578.637 750.254 581.882Q751.198 585.127 752.057 588.395Q752.916 591.664 753.689 594.954Q754.462 598.244 755.15 601.552Q755.837 604.861 756.438 608.187Q757.039 611.513 757.553 614.853Q758.067 618.193 758.493 621.546Q758.92 624.898 759.259 628.26Q759.599 631.623 759.85 634.993Q760.101 638.363 760.265 641.739Q760.429 645.114 760.504 648.493Q760.691 665.622 758.657 682.631C757.809 689.401 756.422 696.244 755.826 703.023C753.741 711.08 752.062 719.178 749.721 727.18C743.602 748.104 734.654 767.166 723.781 786.016C703.04 816.255 679.497 842.918 648.351 862.846C641.259 865.809 634.789 870.92 627.896 874.427Q620.118 878.447 612.081 881.921Q604.044 885.395 595.786 888.306Q587.528 891.216 579.089 893.549Q570.65 895.883 562.07 897.628C497.85 910.29 431.099 898.857 376.433 862.292C371.789 858.55 366.774 855.289 362.136 851.509C345.813 838.202 330.283 822.593 317.788 805.605C311.395 796.913 305.954 786.102 299.867 778.161L299.296 777.428C295.446 769.518 290.853 762.008 287.179 753.983C278.277 734.536 272.99 714.676 268.225 693.941C265.373 678.412 263.489 662.953 263.467 647.137C263.361 571.997 297.688 504.908 354.52 456.644C362.077 450.226 369.769 443.89 377.934 438.255C386.679 432.219 396.869 427.004 404.354 419.395C408.037 415.652 412.265 410.386 413.766 405.268C415.796 398.348 414.576 371.029 414.56 362.405C413.617 361.82 412.739 361.24 411.944 360.459C407.602 356.195 407.483 350.052 407.545 344.389C405.798 343.331 404.151 342.243 402.666 340.828C400.985 339.226 399.722 337.322 399.047 335.091C396.825 327.747 397.817 304.074 397.802 295.194C397.789 286.523 397.289 278.123 404.072 271.601C406.048 269.701 408.474 267.945 411.122 267.141C418.421 264.926 430.725 266.392 438.497 266.546L438.559 259.044C440.162 256.74 442.041 255.296 444.37 253.764Q444.437 243.522 444.37 233.28L444.329 225.909C435.039 217.211 432.734 213.405 432.191 200.6Z"
     id="path12" />
  <path
     fill="#CD7945"
     d="M457.023 254.755L455.87 254.326C454.689 251.304 455.051 232.287 455.367 228.42L456.46 227.739C458.01 233.432 458.179 248.661 457.023 254.755Z"
     id="path13" />
  <path
     fill="#129D69"
     d="M453.981 350.111C448.313 350.092 428.449 351.038 424.257 350.081C422.733 349.733 422.125 349.244 421.299 347.947C421.398 346.547 421.463 346.469 422.354 345.375C426.54 343.484 447.961 344.5 454.388 344.424C454.166 346.334 453.957 348.187 453.981 350.111Z"
     id="path14" />
  <path
     fill="#884A3F"
     d="M541.976 260.981C547.358 261.008 571.148 260.071 574.426 261.859C575.887 264.309 575.563 267.12 575.507 269.874C556.406 269.692 536.98 270.834 517.927 269.906C525.739 269.074 534.131 269.652 542.008 269.697L541.976 260.981Z"
     id="path15" />
  <path
     fill="#E2F3F7"
     d="M363.446 527.7L363.76 527.548C371.001 529.311 380.897 527.741 388.51 528.1C386.304 532.073 383.476 536.273 381.855 540.505L381.481 540.459C375.129 538.534 362.582 540.122 355.635 540.745C358.075 536.301 360.785 532.013 363.446 527.7Z"
     id="path16" />
  <path
     fill="#E9A558"
     d="M456.46 227.739C464.5 228.458 472.848 227.963 480.93 227.942C480.689 236.794 481.064 245.638 480.907 254.482C473.05 254.415 464.833 253.934 457.023 254.755C458.179 248.661 458.01 233.432 456.46 227.739Z"
     id="path17" />
  <path
     fill="#884A3F"
     d="M541.591 227.938L568.883 227.891Q568.623 241.162 568.801 254.434C559.736 254.444 550.661 254.359 541.598 254.466Q541.467 241.202 541.591 227.938Z"
     id="path18" />
  <path
     fill="#129D69"
     d="M461.817 344.338C473.919 344.966 486.145 344.78 498.265 344.926Q530.787 345.576 563.315 345.336C573.336 345.301 583.526 344.773 593.522 345.052C595.107 345.097 596.557 345.217 598 345.919C598.297 346.74 598.376 347.848 597.979 348.687C597.446 349.811 596.637 350.374 595.422 350.543C592.837 350.904 589.769 350.328 587.11 350.328L562.832 350.487C547.632 350.592 532.425 351.01 517.227 350.944C498.873 350.864 480.328 350.317 461.993 350.99L461.817 344.338Z"
     id="path19" />
  <path
     fill="#CD7945"
     d="M459.632 260.67Q484.384 260.523 509.135 260.825C520.061 260.888 531.062 260.638 541.976 260.981L542.008 269.697C534.131 269.652 525.739 269.074 517.927 269.906C498.604 270.339 479.14 270.095 459.809 269.923C456.413 269.954 453.072 269.883 449.683 269.656C449.506 267.532 448.947 264.437 450.3 262.602C452.036 260.247 457.018 260.75 459.632 260.67Z"
     id="path20" />
  <path
     fill="#E9A558"
     d="M459.633 261.045L480.855 261.031L480.879 269.609C473.88 269.474 466.872 269.753 459.887 269.61C459.484 266.762 459.598 263.914 459.633 261.045Z"
     id="path21" />
  <path
     fill="#884A3F"
     d="M548.485 169.536C556.413 169.453 569.896 167.539 575.793 173.62C582.053 180.074 581.056 192.646 580.673 201.083C580.419 206.704 578.479 211.723 574.19 215.518C567.991 221.002 558.968 218.949 551.391 219.109C554.574 213.12 556.454 207.095 556.995 200.309C557.903 188.921 556.08 178.369 548.485 169.536Z"
     id="path22" />
  <path
     fill="#CD7945"
     d="M480.93 227.942L541.591 227.938Q541.467 241.202 541.598 254.466L480.907 254.482C481.064 245.638 480.689 236.794 480.93 227.942Z"
     id="path23" />
  <path
     fill="#0F7960"
     d="M731.909 570.302C735.539 576.615 737.311 584.721 739.145 591.773C749.286 630.771 749.594 674.434 739.066 713.4C737.11 720.638 734.934 728.644 731.811 735.432C723.766 736.926 712.133 754.489 702.328 756.447C720.44 720.13 730.146 681.155 728.954 640.497C728.69 631.491 727.504 622.558 726.696 613.593C727.673 611.42 730.844 576.497 731.909 570.302Z"
     id="path24" />
  <path
     fill="#0F7960"
     d="M570.354 275.965C577.224 275.215 600.816 274.97 607.008 276.165C609.265 276.6 611.499 277.481 613.272 278.969C616.298 281.509 617.394 285.272 617.632 289.09C618.007 295.107 617.531 301.235 617.604 307.269C617.678 313.361 618.419 319.983 617.82 326.014C617.668 327.545 617.317 329.499 616.211 330.667C614.488 332.486 612.132 332.839 609.741 332.993C602.319 333.473 594.629 332.985 587.171 332.921L543.737 332.602L463.157 331.652C448.504 331.588 433.839 332.285 419.19 331.921C416.868 331.863 414.267 332.145 412.524 330.367C410.654 328.459 410.077 325.519 409.874 322.955C412.871 322.642 418.156 326.767 421.528 327.649C424.003 328.297 426.861 328.199 429.407 328.222C460.858 328.498 492.261 326.621 523.669 325.25Q537.185 324.677 550.706 324.246C556.194 324.088 561.883 324.26 567.323 323.579C571.606 323.042 575.973 322.264 578.661 318.535C582.171 313.664 581.757 295.649 580.588 289.41C579.373 282.925 575.482 279.541 570.354 275.965Z"
     id="path25" />
  <path
     fill="#35CCAD"
     d="M584.128 364.952C588.286 364.907 592.448 364.952 596.606 364.954C596.914 376.686 596.074 388.622 596.862 400.306C598.456 423.952 618.234 435.325 635.478 447.417Q648.509 456.486 660.534 466.852C688.173 490.958 708.533 517.886 724.285 550.902C726.951 556.491 731.479 564.102 731.909 570.302C730.844 576.497 727.673 611.42 726.696 613.593C723.895 598.772 720.384 583.677 714.995 569.563C701.087 533.135 674.781 499.05 644.837 474.335C631.08 462.981 614.677 453.839 602.098 441.283C586.191 425.404 583.859 410.906 584.001 389.315L584.128 364.952Z"
     id="path26" />
  <path
     fill="#CD7945"
     d="M551.391 219.109C524.361 219.896 497.13 219.103 470.083 219.19C461.846 219.217 453.347 220.121 447.097 213.615C440.863 207.126 441.397 197.502 441.439 189.134C441.468 183.374 442.407 177.966 446.772 173.82C449.648 171.089 452.82 169.988 456.686 169.462C466.417 168.14 478.051 169.237 487.971 169.272Q518.229 169.203 548.485 169.536C556.08 178.369 557.903 188.921 556.995 200.309C556.454 207.095 554.574 213.12 551.391 219.109Z"
     id="path27" />
  <path
     fill="#E2F3F7"
     d="M458.967 177.154C462.358 176.873 513.655 177.552 513.884 177.646C515.066 178.127 515.057 178.713 515.446 179.825C515.267 180.647 515.337 181.093 514.671 181.686C512.291 183.805 489.315 182.907 484.75 182.929C479.061 183.021 472.846 182.116 467.255 183.039C451.199 185.69 457.721 198.478 451.194 202.531C450.747 202.48 450.417 202.471 449.984 202.274C448.721 201.7 447.994 200.762 447.512 199.5C446.234 196.158 447.654 189.769 449.073 186.501C451.147 181.727 454.212 179.069 458.967 177.154Z"
     id="path28" />
  <path
     fill="#129D69"
     d="M702.328 756.447C712.133 754.489 723.766 736.926 731.811 735.432C713.656 790.428 670.115 837.227 618.779 863.08Q616.161 864.393 613.513 865.642Q610.864 866.891 608.185 868.075Q605.506 869.258 602.799 870.375Q600.092 871.493 597.358 872.543Q594.624 873.594 591.866 874.577Q589.107 875.56 586.325 876.475Q583.543 877.39 580.74 878.236Q577.936 879.083 575.112 879.86Q572.289 880.638 569.447 881.345Q566.605 882.053 563.747 882.691Q560.889 883.329 558.016 883.897Q555.143 884.464 552.257 884.961Q549.37 885.458 546.473 885.884Q543.576 886.309 540.669 886.664Q537.761 887.018 534.847 887.302Q531.932 887.585 529.011 887.796Q526.09 888.007 523.164 888.147Q520.239 888.287 517.312 888.355Q514.384 888.422 511.455 888.418Q508.527 888.414 505.599 888.338Q502.671 888.262 499.747 888.114Q496.822 887.966 493.901 887.747Q490.981 887.527 488.067 887.236Q485.153 886.945 482.247 886.582Q479.341 886.219 476.444 885.785Q473.548 885.351 470.664 884.847Q467.779 884.342 464.907 883.766Q462.036 883.191 459.179 882.545Q456.323 881.899 453.483 881.183Q450.643 880.467 447.822 879.682Q445.001 878.896 442.2 878.042Q439.398 877.188 436.619 876.265C396.735 863.035 362.373 838.361 335.704 806.11C330.109 799.344 323.468 791.466 319.522 783.626C319.412 783.408 319.307 783.188 319.2 782.969C323.288 784.91 330.718 796.141 334.199 800.131C361.037 830.888 393.041 852.999 433.667 860.916C440.872 862.321 458.797 865.644 465.088 863.714C468.037 863.813 471.292 864.757 474.214 865.276C478.581 866.051 482.882 866.605 487.296 867.027C513.016 869.485 539.978 868.43 565.086 862C603.379 852.195 641.553 831.175 668.801 802.327C682.026 788.325 692.56 772.975 702.328 756.447Z"
     id="path29" />
  <path
     fill="#129D69"
     d="M409.874 322.955C410.238 319.962 409.857 316.607 409.807 313.58C409.669 305.333 409.182 296.734 409.74 288.522C409.997 284.741 410.787 280.966 413.879 278.472C415.993 276.766 418.351 275.925 421.033 275.65C428.507 274.884 436.519 275.437 444.039 275.476L486.284 275.641L538.856 275.554C549.276 275.535 559.974 275.093 570.354 275.965C575.482 279.541 579.373 282.925 580.588 289.41C581.757 295.649 582.171 313.664 578.661 318.535C575.973 322.264 571.606 323.042 567.323 323.579C561.883 324.26 556.194 324.088 550.706 324.246Q537.185 324.677 523.669 325.25C492.261 326.621 460.858 328.498 429.407 328.222C426.861 328.199 424.003 328.297 421.528 327.649C418.156 326.767 412.871 322.642 409.874 322.955Z"
     id="path30" />
  <path
     fill="#FEFEFE"
     d="M430.658 280.046C431.697 279.948 432.795 279.814 433.834 279.948C435.466 280.158 436.794 281.072 437.764 282.363C440.096 285.466 439.947 307.964 438.995 312.428C438.474 314.871 436.539 315.95 434.562 317.102C433.531 317.215 432.425 317.366 431.398 317.166C429.765 316.848 428.395 315.852 427.531 314.441C424.699 309.815 425.281 291.049 426.527 285.476C427.144 282.717 428.356 281.572 430.658 280.046Z"
     id="path31" />
  <path
     fill="#35CCAD"
     d="M427.958 364.594L444.052 364.581L444.079 389.685C444.078 395.445 444.448 401.451 443.547 407.145C441.615 419.357 432.364 432.411 423.794 440.95C415.606 449.11 405.23 454.918 395.693 461.36Q387.217 467.171 379.418 473.865C326.468 519.032 294.161 579.666 293.676 649.912C293.287 706.27 317.418 763.423 357.077 803.312C387.994 834.409 423.433 851.785 465.088 863.714C458.797 865.644 440.872 862.321 433.667 860.916C393.041 852.999 361.037 830.888 334.199 800.131C330.718 796.141 323.288 784.91 319.2 782.969C284.498 731.013 269 666.423 281.246 604.733C292.366 548.711 323.609 500.382 367.298 464.091C374.559 458.06 381.95 452.044 389.82 446.815C404.397 437.131 423.966 426.071 427.683 407.198C428.654 402.266 428.067 396.536 428.047 391.502L427.958 364.594Z"
     id="path32" />
  <path
     fill="#129D69"
     d="M543.508 364.485C550.741 364.471 565.643 363.5 572.034 364.83Q571.961 379.02 571.484 393.203C571.355 418.214 574.945 433.206 593.195 451.549C602.774 461.176 614.634 468.231 625.383 476.445C646.332 492.454 676.112 521.693 687.271 545.526C654.332 558.447 615.368 572.802 579.584 572.535C562.684 572.409 545.717 569.268 529.386 565.107C521.546 563.109 507.134 560.084 500.12 556.634C499.854 556.503 499.604 556.341 499.346 556.195L499.574 555.741C498.624 555.261 499.043 555.581 498.322 554.771C508.231 554.346 520.501 556.626 530.739 557.165C564.588 558.948 598.18 553.847 628.586 538.373C624.114 529.963 617.85 522.177 611.981 514.709C600.576 500.197 588.517 486.541 576.282 472.739C568.317 463.755 559.599 454.401 553.451 444.045C549.035 436.606 545.775 428.027 544.299 419.493C541.666 404.276 543.644 380.727 543.508 364.485Z"
     id="path33" />
  <path
     fill="#12C263"
     d="M572.034 364.83Q571.961 379.02 571.484 393.203C568.482 390.564 564.941 383.101 562.272 379.429C558.574 374.345 554.404 369.667 550.229 364.977C557.412 365.077 564.887 365.524 572.034 364.83Z"
     id="path34" />
  <path
     fill="#12C263"
     d="M454.388 344.424C457.314 343.297 458.899 343.065 461.817 344.338L461.993 350.99L461.974 364.712Q502.742 364.876 543.508 364.485C543.644 380.727 541.666 404.276 544.299 419.493C545.775 428.027 549.035 436.606 553.451 444.045C559.599 454.401 568.317 463.755 576.282 472.739C588.517 486.541 600.576 500.197 611.981 514.709C617.85 522.177 624.114 529.963 628.586 538.373C598.18 553.847 564.588 558.948 530.739 557.165C520.501 556.626 508.231 554.346 498.322 554.771C499.043 555.581 498.624 555.261 499.574 555.741L499.346 556.195C485.301 552.099 471.521 546.822 457.622 542.24C435.497 534.946 412.396 529.25 389.078 528.007L388.51 528.1C380.897 527.741 371.001 529.311 363.76 527.548L363.446 527.7C357.851 527.815 351.959 528.99 346.386 529.737C357.163 513.904 371.444 498.366 385.892 485.805C406.787 467.639 441.891 452.479 448.443 423.254C449.403 418.975 448.954 414.098 448.929 409.717L448.751 381.754C448.714 376.328 448.11 370.264 449.143 364.959C450.541 364.291 452.426 364.555 453.948 364.592L453.981 350.111C453.957 348.187 454.166 346.334 454.388 344.424Z"
     id="path35" />
  <path
     fill="#129D69"
     d="M444.188 498.608C447.751 498.181 450.685 498.084 453.898 499.921C456.761 501.557 458.756 504.276 459.627 507.439C460.632 511.083 460.194 515.169 458.189 518.404C455.986 521.957 452.958 523.437 449.028 524.443C446.969 524.476 444.979 524.362 443.002 523.736C439.43 522.606 436.439 520.306 434.864 516.86Q434.596 516.274 434.389 515.663Q434.183 515.053 434.04 514.424Q433.898 513.796 433.821 513.156Q433.744 512.516 433.733 511.872Q433.722 511.227 433.778 510.585Q433.833 509.943 433.955 509.31Q434.076 508.677 434.262 508.06Q434.448 507.443 434.696 506.848C436.506 502.415 440 500.355 444.188 498.608Z"
     id="path36" />
  <path
     fill="#FEFEFE"
     d="M454.388 344.424C457.314 343.297 458.899 343.065 461.817 344.338L461.993 350.99L461.974 364.712C461.917 372.037 462.841 409.968 461.286 413.807C460.579 415.555 459.426 416.304 457.727 416.918C456.562 416.785 455.838 416.757 454.998 415.789C454.216 414.888 453.866 413.309 453.766 412.15C453.35 407.338 453.846 402.143 453.863 397.292L453.948 364.592L453.981 350.111C453.957 348.187 454.166 346.334 454.388 344.424Z"
     id="path37" />
  <path
     fill="#129D69"
     d="M505.805 391.705C510.582 391.506 514.903 391.906 519.023 394.625C523.108 397.322 525.829 401.716 526.786 406.484C527.846 411.764 527.026 417.379 523.981 421.882C520.773 426.626 516.277 428.869 510.835 429.999C506.374 430.157 502.693 429.77 498.753 427.396C494.146 424.621 490.898 419.935 489.653 414.726Q489.436 413.845 489.309 412.946Q489.181 412.047 489.145 411.14Q489.108 410.233 489.162 409.327Q489.216 408.421 489.361 407.525Q489.505 406.629 489.739 405.752Q489.972 404.875 490.293 404.026Q490.613 403.176 491.016 402.363Q491.42 401.55 491.903 400.782C495.174 395.53 500.008 393.144 505.805 391.705Z"
     id="path38" />
  <path
     fill="#129D69"
     d="M498.456 458.593C503.246 458.298 507.932 459.285 511.922 462.051Q512.317 462.325 512.697 462.618Q513.077 462.912 513.442 463.224Q513.807 463.536 514.155 463.867Q514.504 464.197 514.835 464.545Q515.167 464.892 515.48 465.256Q515.793 465.62 516.088 466Q516.382 466.379 516.657 466.773Q516.932 467.167 517.187 467.574Q517.441 467.981 517.675 468.401Q517.909 468.82 518.121 469.251Q518.333 469.682 518.523 470.123Q518.713 470.564 518.88 471.015Q519.048 471.465 519.192 471.923Q519.336 472.381 519.457 472.846Q519.578 473.311 519.675 473.781Q519.773 474.251 519.846 474.726Q519.917 475.215 519.964 475.706Q520.011 476.198 520.033 476.691Q520.056 477.184 520.054 477.678Q520.052 478.172 520.027 478.665Q520 479.158 519.95 479.649Q519.9 480.14 519.826 480.629Q519.751 481.117 519.653 481.601Q519.555 482.084 519.433 482.563Q519.311 483.041 519.165 483.513Q519.02 483.985 518.851 484.449Q518.683 484.914 518.492 485.369Q518.301 485.824 518.088 486.269Q517.874 486.715 517.639 487.149Q517.404 487.583 517.148 488.006Q516.892 488.428 516.616 488.837Q516.339 489.246 516.043 489.641Q515.76 490.022 515.459 490.389Q515.158 490.756 514.839 491.107Q514.52 491.459 514.184 491.794Q513.848 492.129 513.495 492.446Q513.143 492.764 512.775 493.064Q512.407 493.364 512.024 493.645Q511.642 493.926 511.246 494.187Q510.85 494.449 510.441 494.69Q510.033 494.932 509.613 495.153Q509.193 495.374 508.762 495.573Q508.331 495.773 507.891 495.951Q507.451 496.128 507.003 496.284Q506.555 496.44 506.099 496.573Q505.644 496.706 505.182 496.816Q504.72 496.926 504.254 497.013Q503.787 497.1 503.317 497.164C498.534 497.32 494.264 496.99 489.991 494.543Q489.569 494.303 489.16 494.04Q488.75 493.778 488.355 493.495Q487.96 493.212 487.58 492.909Q487.201 492.606 486.837 492.284Q486.473 491.961 486.127 491.62Q485.781 491.279 485.453 490.921Q485.125 490.563 484.815 490.188Q484.506 489.813 484.217 489.422Q483.928 489.032 483.659 488.627Q483.391 488.222 483.144 487.803Q482.897 487.385 482.672 486.954Q482.447 486.523 482.244 486.082Q482.042 485.64 481.863 485.188Q481.683 484.737 481.528 484.276Q481.373 483.816 481.241 483.348Q481.11 482.88 481.003 482.406C479.84 477.326 480.664 471.685 483.558 467.312C487.101 461.959 492.474 459.928 498.456 458.593Z"
     id="path39" />
  <path
     fill="#FEFEFE"
     d="M363.76 527.548C366.895 521.6 371.18 516.017 375.314 510.723C393.161 487.872 416.847 466.378 443.854 454.972C426.453 470.942 412.34 489.648 399.745 509.541C396.034 515.403 391.901 521.674 389.078 528.007L388.51 528.1C380.897 527.741 371.001 529.311 363.76 527.548Z"
     id="path40" />
  <path
     fill="#129D69"
     d="M558.021 502.165C561.541 501.886 566.104 503.342 569.065 505.188Q569.495 505.459 569.912 505.751Q570.329 506.042 570.731 506.354Q571.132 506.666 571.519 506.997Q571.905 507.328 572.274 507.678Q572.643 508.028 572.995 508.395Q573.347 508.762 573.68 509.146Q574.014 509.53 574.328 509.93Q574.642 510.33 574.936 510.745Q575.231 511.16 575.504 511.589Q575.778 512.018 576.03 512.46Q576.282 512.901 576.512 513.355Q576.742 513.809 576.95 514.273Q577.158 514.737 577.343 515.211Q577.527 515.685 577.689 516.167Q577.85 516.65 577.987 517.139Q578.125 517.629 578.238 518.125C579.435 523.406 578.197 528.927 575.241 533.419C571.42 539.226 566.195 541.753 559.593 543.018C554.727 542.858 550.236 541.912 546.147 539.107Q545.74 538.829 545.348 538.531Q544.955 538.233 544.579 537.915Q544.203 537.597 543.843 537.26Q543.484 536.923 543.142 536.568Q542.8 536.213 542.477 535.841Q542.154 535.469 541.851 535.081Q541.547 534.692 541.265 534.289Q540.982 533.885 540.72 533.468Q540.458 533.051 540.218 532.62Q539.978 532.19 539.761 531.748Q539.543 531.306 539.349 530.853Q539.155 530.4 538.984 529.938Q538.813 529.476 538.666 529.005Q538.519 528.535 538.397 528.058Q538.275 527.58 538.177 527.097Q538.08 526.614 538.007 526.127Q537.93 525.603 537.88 525.076Q537.829 524.549 537.805 524.021Q537.781 523.492 537.784 522.963Q537.786 522.433 537.815 521.905Q537.844 521.376 537.899 520.85Q537.955 520.323 538.036 519.8Q538.118 519.277 538.226 518.759Q538.333 518.241 538.467 517.729Q538.6 517.216 538.759 516.711Q538.918 516.206 539.102 515.71Q539.286 515.214 539.495 514.727Q539.704 514.241 539.936 513.766Q540.169 513.29 540.425 512.827Q540.682 512.364 540.961 511.914Q541.24 511.464 541.541 511.029Q541.842 510.594 542.165 510.174C546.195 504.921 551.659 502.906 558.021 502.165Z"
     id="path41" />
  <defs
     id="defs42">
    <linearGradient
       id="gradient_0"
       gradientUnits="userSpaceOnUse"
       x1="645.76288"
       y1="804.10693"
       x2="380.37973"
       y2="507.5257">
      <stop
         offset="0"
         stop-color="#E38A41"
         id="stop41" />
      <stop
         offset="1"
         stop-color="#FEB851"
         id="stop42" />
    </linearGradient>
  </defs>
  <path
     fill="url(#gradient_0)"
     d="M355.635 540.745C362.582 540.122 375.129 538.534 381.481 540.459L381.855 540.505C387.982 542.09 394.885 541.689 401.186 542.633C414.915 544.69 428.587 548.092 441.896 552.002C462.662 558.103 482.692 566.118 503.292 572.626C564.771 592.051 600.742 590.167 661.39 569.97C672.634 566.225 683.656 561.842 694.896 558.087C699.905 567.285 703.456 577.229 706.454 587.243Q707.559 590.93 708.529 594.656Q709.499 598.381 710.334 602.138Q711.168 605.896 711.866 609.682Q712.564 613.467 713.125 617.276Q713.685 621.084 714.107 624.91Q714.529 628.736 714.812 632.576Q715.094 636.414 715.238 640.261Q715.382 644.108 715.386 647.957Q715.39 651.807 715.254 655.653Q715.119 659.5 714.844 663.34Q714.569 667.18 714.156 671.007Q713.742 674.834 713.19 678.643Q712.638 682.453 711.948 686.24Q711.258 690.027 710.431 693.786Q709.604 697.546 708.642 701.273Q707.68 705 706.583 708.69C691.472 759.737 658.457 803.898 611.39 829.352C563.672 855.157 507.34 862.486 455.123 846.862Q452.682 846.12 450.259 845.318Q447.837 844.516 445.435 843.654Q443.033 842.793 440.653 841.873Q438.273 840.953 435.916 839.974Q433.559 838.996 431.228 837.96Q428.896 836.923 426.59 835.83Q424.284 834.737 422.006 833.587Q419.728 832.438 417.479 831.232Q415.23 830.027 413.011 828.767Q410.792 827.506 408.605 826.192Q406.418 824.878 404.264 823.51Q402.11 822.142 399.99 820.721Q397.87 819.301 395.786 817.829Q393.702 816.356 391.654 814.833Q389.607 813.31 387.598 811.737Q385.588 810.165 383.618 808.543Q381.648 806.921 379.719 805.251Q377.79 803.581 375.902 801.864Q374.014 800.147 372.169 798.385Q370.324 796.622 368.523 794.814Q366.722 793.007 364.966 791.155Q363.21 789.304 361.5 787.41Q359.79 785.516 358.127 783.581Q356.464 781.645 354.849 779.669Q353.234 777.693 351.669 775.678Q350.103 773.663 348.587 771.611Q347.072 769.558 345.607 767.468Q344.143 765.379 342.73 763.254Q341.317 761.129 339.957 758.97Q338.597 756.811 337.29 754.619Q335.984 752.427 334.731 750.204Q333.479 747.98 332.282 745.727Q331.089 743.523 329.95 741.29Q328.812 739.057 327.729 736.797Q326.647 734.537 325.62 732.25Q324.593 729.964 323.624 727.653Q322.654 725.342 321.742 723.008Q320.829 720.673 319.975 718.317Q319.121 715.961 318.325 713.585Q317.529 711.208 316.792 708.812Q316.056 706.417 315.378 704.004Q314.701 701.591 314.083 699.162Q313.466 696.733 312.909 694.29Q312.351 691.846 311.855 689.39Q311.358 686.933 310.922 684.465Q310.486 681.997 310.112 679.519Q309.737 677.041 309.424 674.554Q309.111 672.067 308.859 669.574Q308.607 667.08 308.417 664.581Q308.227 662.082 308.099 659.579Q307.971 657.076 307.905 654.571Q307.838 652.065 307.834 649.559Q307.83 647.053 307.888 644.547Q307.945 642.042 308.065 639.538Q308.185 637.035 308.366 634.535Q308.548 632.036 308.791 629.541Q309.034 627.047 309.339 624.559Q309.644 622.072 310.01 619.592Q310.376 617.113 310.804 614.643Q311.231 612.174 311.719 609.716Q312.208 607.257 312.757 604.812Q313.306 602.367 313.915 599.936Q314.524 597.504 315.193 595.089Q315.862 592.674 316.591 590.276C321.241 574.797 328.284 558.196 337.306 544.757C343.26 543.517 349.424 542.712 355.293 541.161L355.635 540.745Z"
     id="path42" />
  <path
     fill="#CD7945"
     d="M559.275 741.658C563.131 741.429 566.331 741.29 569.904 743.077Q570.634 743.45 571.323 743.896Q572.011 744.341 572.651 744.854Q573.291 745.367 573.875 745.943Q574.46 746.518 574.983 747.15Q575.506 747.781 575.963 748.462Q576.419 749.144 576.804 749.868Q577.189 750.592 577.499 751.352Q577.808 752.111 578.039 752.898Q578.287 753.73 578.451 754.582Q578.614 755.434 578.691 756.299Q578.769 757.163 578.759 758.031Q578.749 758.899 578.651 759.762Q578.554 760.624 578.371 761.472Q578.188 762.321 577.92 763.146Q577.653 763.972 577.304 764.767Q576.955 765.561 576.528 766.317C574.482 769.904 570.84 772.48 566.926 773.646Q566.323 773.825 565.706 773.952Q565.09 774.079 564.466 774.155Q563.841 774.23 563.212 774.253Q562.583 774.276 561.955 774.246Q561.326 774.216 560.702 774.133Q560.078 774.05 559.464 773.916Q558.849 773.781 558.248 773.596Q557.647 773.41 557.063 773.175C553.042 771.595 549.871 768.236 548.258 764.26Q547.927 763.435 547.68 762.581Q547.433 761.728 547.272 760.854Q547.111 759.98 547.038 759.094Q546.964 758.209 546.979 757.32Q546.994 756.431 547.097 755.549Q547.201 754.666 547.391 753.798Q547.581 752.93 547.857 752.085Q548.133 751.24 548.491 750.427C550.703 745.534 554.46 743.373 559.275 741.658Z"
     id="path43" />
  <path
     fill="#E9A558"
     d="M559.665 745.511C560.398 745.572 561.335 745.587 562.024 745.836C563.117 746.23 564.021 747.042 564.358 748.179C564.694 749.314 564.449 750.51 563.989 751.567C562.745 754.425 560.772 755.958 557.914 756.995C557.63 756.939 557.346 756.887 557.063 756.826C555.474 756.484 553.938 755.718 553.207 754.174C552.645 752.986 552.876 751.661 553.415 750.517C554.728 747.73 556.906 746.573 559.665 745.511Z"
     id="path44" />
  <path
     fill="#CD7945"
     d="M627.34 659.747C631.973 659.519 636.972 660.664 641.016 662.932C646.47 665.99 650.266 671.261 651.857 677.272Q652.01 677.832 652.133 678.4Q652.257 678.967 652.351 679.54Q652.445 680.113 652.509 680.69Q652.573 681.267 652.607 681.847Q652.641 682.427 652.645 683.007Q652.648 683.588 652.622 684.168Q652.596 684.748 652.539 685.326Q652.483 685.904 652.396 686.478Q652.31 687.052 652.194 687.621Q652.078 688.19 651.932 688.752Q651.787 689.315 651.612 689.868Q651.438 690.422 651.235 690.966Q651.032 691.51 650.801 692.043Q650.57 692.576 650.311 693.096Q650.053 693.616 649.768 694.122Q649.483 694.628 649.172 695.118C645.463 701.066 639.978 703.779 633.409 705.354C627.279 705.504 622.364 705.086 617.187 701.347Q616.702 700.992 616.235 700.614Q615.769 700.235 615.321 699.834Q614.874 699.433 614.446 699.011Q614.019 698.588 613.613 698.145Q613.208 697.702 612.824 697.24Q612.441 696.777 612.081 696.296Q611.72 695.815 611.385 695.317Q611.049 694.819 610.738 694.304Q610.427 693.79 610.142 693.261Q609.856 692.732 609.598 692.19Q609.339 691.648 609.107 691.093Q608.876 690.539 608.672 689.974Q608.468 689.409 608.292 688.834Q608.116 688.26 607.969 687.677Q607.822 687.094 607.703 686.505Q607.585 685.916 607.496 685.322C606.57 679.444 607.845 673.254 611.39 668.428C615.347 663.04 620.976 660.803 627.34 659.747Z"
     id="path45" />
  <path
     fill="#E9A558"
     d="M622.786 664.955C623.436 664.977 624.097 664.982 624.739 665.11C626.393 665.438 628.217 666.345 629.03 667.881C629.976 669.668 629.505 671.738 628.755 673.495C626.898 677.847 623.783 680.11 619.542 681.852C618.495 681.906 617.423 681.969 616.392 681.738C614.951 681.416 613.483 680.723 612.815 679.317C612.071 677.752 612.473 675.904 613.05 674.363C614.837 669.587 618.257 666.904 622.786 664.955Z"
     id="path46" />
  <path
     fill="#CD7945"
     d="M391.764 599.11C396.446 598.671 401.125 599.587 405.225 601.927Q405.734 602.223 406.227 602.544Q406.721 602.865 407.198 603.21Q407.675 603.555 408.135 603.923Q408.594 604.291 409.035 604.682Q409.476 605.072 409.896 605.484Q410.317 605.896 410.717 606.328Q411.117 606.76 411.495 607.211Q411.874 607.662 412.229 608.132Q412.584 608.601 412.916 609.088Q413.248 609.574 413.555 610.076Q413.862 610.579 414.144 611.096Q414.426 611.612 414.683 612.142Q414.939 612.673 415.168 613.215Q415.398 613.757 415.601 614.31Q415.803 614.863 415.978 615.425Q416.153 615.987 416.3 616.557Q416.453 617.13 416.577 617.711Q416.701 618.291 416.796 618.877Q416.891 619.463 416.956 620.053Q417.021 620.643 417.057 621.236Q417.093 621.828 417.099 622.422Q417.105 623.015 417.081 623.608Q417.058 624.201 417.004 624.792Q416.951 625.384 416.868 625.971Q416.786 626.559 416.673 627.142Q416.561 627.725 416.42 628.301Q416.279 628.878 416.109 629.447Q415.939 630.015 415.741 630.575Q415.543 631.134 415.317 631.683Q415.092 632.232 414.839 632.769Q414.586 633.306 414.306 633.829Q414.026 634.353 413.721 634.862C409.915 641.178 404.609 643.85 397.725 645.579C391.468 645.881 385.679 644.954 380.462 641.211C375.297 637.506 372.045 631.799 371.176 625.529C370.32 619.355 371.842 612.642 375.676 607.677C379.67 602.506 385.472 600.042 391.764 599.11Z"
     id="path47" />
  <path
     fill="#E9A558"
     d="M385.54 604.637C387.091 604.424 388.659 604.158 390.201 604.562C391.673 604.947 392.941 605.867 393.615 607.255C394.446 608.967 394.158 610.981 393.508 612.696C392.159 616.254 389.841 617.87 386.518 619.447C385.324 619.528 384.089 619.601 382.895 619.474C381.299 619.306 379.671 618.446 378.765 617.097C377.684 615.489 377.758 613.57 378.342 611.805C379.598 608.005 382.101 606.33 385.54 604.637Z"
     id="path48" />
  <path
     fill="#CD7945"
     d="M438.55 715.621C443.947 715.238 448.967 716.244 453.645 719.04Q454.179 719.36 454.695 719.706Q455.212 720.053 455.71 720.425Q456.208 720.798 456.687 721.195Q457.165 721.592 457.623 722.013Q458.081 722.434 458.517 722.878Q458.953 723.322 459.366 723.787Q459.779 724.252 460.167 724.738Q460.556 725.224 460.919 725.729Q461.283 726.233 461.62 726.756Q461.957 727.279 462.267 727.818Q462.578 728.357 462.86 728.911Q463.143 729.465 463.397 730.033Q463.651 730.601 463.876 731.181Q464.1 731.761 464.295 732.351Q464.49 732.942 464.655 733.542Q464.82 734.142 464.954 734.749Q465.084 735.326 465.184 735.909Q465.285 736.491 465.356 737.078Q465.427 737.665 465.47 738.255Q465.512 738.845 465.524 739.436Q465.537 740.027 465.52 740.619Q465.503 741.21 465.456 741.799Q465.409 742.389 465.334 742.975Q465.258 743.562 465.153 744.144Q465.048 744.726 464.914 745.301Q464.78 745.877 464.617 746.446Q464.455 747.015 464.264 747.574Q464.073 748.134 463.855 748.684Q463.636 749.233 463.391 749.771Q463.145 750.309 462.873 750.834Q462.601 751.359 462.303 751.87Q462.005 752.381 461.682 752.876C457.796 758.822 451.992 761.905 445.218 763.394C440.265 763.709 435.74 763.341 431.269 760.941Q430.749 760.655 430.243 760.345Q429.737 760.035 429.246 759.7Q428.756 759.366 428.282 759.008Q427.809 758.65 427.353 758.27Q426.897 757.89 426.46 757.488Q426.023 757.086 425.606 756.664Q425.189 756.242 424.792 755.8Q424.396 755.358 424.022 754.897Q423.647 754.436 423.296 753.958Q422.944 753.48 422.616 752.986Q422.287 752.491 421.984 751.981Q421.68 751.471 421.4 750.947Q421.121 750.423 420.868 749.887Q420.615 749.35 420.387 748.802Q420.16 748.253 419.96 747.694Q419.759 747.136 419.586 746.568C417.647 740.11 418.575 732.572 421.907 726.716C425.678 720.09 431.533 717.464 438.55 715.621Z"
     id="path49" />
  <path
     fill="#E9A558"
     d="M434.413 723.051C435.76 722.984 436.903 722.992 438.207 723.459C439.483 723.915 440.399 724.956 440.868 726.198C441.588 728.104 440.774 730.495 439.916 732.208C438.109 735.815 435.907 737.353 432.164 738.647C431.09 738.631 429.948 738.644 428.912 738.328C427.397 737.866 426.024 736.888 425.358 735.413C424.472 733.452 425.052 731.218 426.001 729.397C427.89 725.778 430.601 724.134 434.413 723.051Z"
     id="path50" />
  <path
     fill="#FEFEFE"
     d="M355.635 540.745C362.582 540.122 375.129 538.534 381.481 540.459C355.111 591.18 343.891 656.387 361.395 711.709C362.628 715.607 364.198 719.383 365.464 723.262C361.96 719.674 359.221 714.555 356.639 710.256C341.992 685.863 331.813 656.231 332.039 627.644C332.216 605.173 338.067 581.458 346.448 560.667C349.123 554.029 352.432 547.706 355.293 541.161L355.635 540.745Z"
     id="path51" />
  <path
     fill="#CD7945"
     d="M507.722 614.168C517.921 612.712 529.069 615.317 537.715 620.828C547.051 626.779 553.356 637.129 555.63 647.853C558.003 659.041 555.281 670.697 548.992 680.16C541.993 690.69 531.745 695.934 519.607 698.371C508.688 699.662 497.923 697.297 488.976 690.768C479.476 683.835 473.43 673.34 471.708 661.741C470.075 650.742 472.99 638.807 479.7 629.913C486.609 620.756 496.485 615.713 507.722 614.168Z"
     id="path52" />
  <path
     fill="#E9A558"
     d="M496.319 624.541C498.599 624.414 500.745 624.351 502.801 625.499C504.561 626.482 505.698 628.012 506.112 629.986C506.89 633.692 505.494 638.07 503.464 641.159C500.423 645.786 496.484 647.888 491.254 649.049C489.49 649.067 487.548 648.974 485.869 648.407C484.027 647.785 482.424 646.584 481.674 644.748C480.562 642.021 481.631 638.666 482.849 636.164C485.705 630.293 490.246 626.591 496.319 624.541Z"
     id="path53" />
</svg>
