<?xml version="1.0" encoding="UTF-8" standalone="no"?>
<svg
   width="650.02698"
   height="760.89014"
   version="1.1"
   id="svg15"
   sodipodi:docname="tab.svg"
   inkscape:version="1.3.2 (091e20ef0f, 2023-11-25)"
   xmlns:inkscape="http://www.inkscape.org/namespaces/inkscape"
   xmlns:sodipodi="http://sodipodi.sourceforge.net/DTD/sodipodi-0.dtd"
   xmlns="http://www.w3.org/2000/svg"
   xmlns:svg="http://www.w3.org/2000/svg">
  <sodipodi:namedview
     id="namedview15"
     pagecolor="#ffffff"
     bordercolor="#000000"
     borderopacity="0.25"
     inkscape:showpageshadow="2"
     inkscape:pageopacity="0.0"
     inkscape:pagecheckerboard="0"
     inkscape:deskcolor="#d1d1d1"
     inkscape:zoom="0.70507812"
     inkscape:cx="425.48477"
     inkscape:cy="387.90028"
     inkscape:window-width="1920"
     inkscape:window-height="1011"
     inkscape:window-x="0"
     inkscape:window-y="0"
     inkscape:window-maximized="1"
     inkscape:current-layer="svg15" />
  <defs
     id="defs3">
    <linearGradient
       id="gradient_0"
       gradientUnits="userSpaceOnUse"
       x1="677.26904"
       y1="937.1452"
       x2="323.96027"
       y2="69.872429">
      <stop
         offset="0"
         stop-color="#61222A"
         id="stop2" />
      <stop
         offset="1"
         stop-color="#8F3446"
         id="stop3" />
    </linearGradient>
  </defs>
  <path
     id="path3"
     d="M 136.19689,2.4444121e-5 C 129.67414,0.00202444 123.16005,0.17730444 116.77306,0.86330444 c -1.36267,0.14132996 -2.72275,0.30551996 -4.08008,0.49218996 -1.35733,0.186 -2.70988,0.39433 -4.06055,0.625 -1.35066,0.23067 -2.69835,0.48314 -4.04101,0.75781 -1.342,0.27467 -2.67905,0.57067 -4.01172,0.88867 -1.332675,0.31867 -2.659145,0.65949 -3.980475,1.02149 -1.32133,0.362 -2.63598,0.74506 -3.94531,1.15039 -1.30867,0.40533 -2.61159,0.83325 -3.90625,1.28125 -1.29533,0.44733 -2.582,0.91625 -3.86133,1.40625 -1.27933,0.49 -2.54983,0.99925 -3.8125,1.5312496 -1.26266,0.53133 -2.51705,1.08487 -3.76172,1.6582 -1.24466,0.57267 -2.47974,1.16597 -3.70508,1.7793 -1.22533,0.61266 -2.43986,1.2451 -3.64453,1.89844 -1.20466,0.65333 -2.39808,1.32557 -3.58008,2.01757 -1.18266,0.692 -2.35434,1.4041 -3.51367,2.13477 -1.15866,0.73067 -2.30479,1.48005 -3.43945,2.24805 -1.13467,0.76866 -2.25657,1.55471 -3.36524,2.35937 -0.89866,0.648 -1.78987,1.30723 -2.67187,1.97656 -0.88267,0.67 -1.75576,1.34969 -2.62109,2.04102 -0.86534,0.69133 -1.72165,1.39476 -2.57032,2.10742 -0.848,0.71267 -1.68758,1.43464 -2.51757,2.16797 -0.83067,0.73267 -1.65285,1.47647 -2.46485,2.23047 -0.812,0.75333 -1.61358,1.51573 -2.40625,2.28906 -0.79333,0.77333 -1.57627,1.55694 -2.34961,2.34961 -0.774,0.79267 -1.53897,1.59425 -2.29297,2.40625 -0.754,0.81133 -1.49713,1.63289 -2.23047,2.46289 -0.73399,0.83 -1.45725,1.66958 -2.16992,2.51758 -0.71266,0.848 -1.41542,1.70498 -2.10742,2.57031 -0.69133,0.86467 -1.3723,1.73648 -2.04297,2.61914 -0.67,0.882 -1.32856,1.77388 -1.97656,2.67188 -0.648,0.89866 -1.28611,1.80475 -1.91211,2.71875 -0.626,0.914 -1.23913,1.83434 -1.8418,2.76367 -0.60333,0.92867 -1.1941,1.86655 -1.77343,2.81055 -0.58,0.944 -1.14842,1.89356 -1.70508,2.85156 -0.556,0.958 -1.1021,1.9232 -1.63477,2.89453 -0.53266,0.97133 -1.05254,1.94959 -1.56054,2.93359 -0.50867,0.984 -1.00455,1.97404 -1.488286,2.97071 -0.483932,0.99666 -0.954929,1.99786 -1.414062,3.00586 -0.459133,1.008 -0.905778,2.02168 -1.339844,3.04101 -0.434066,1.01867 -0.854939,2.04422 -1.2636718,3.07422 -0.408799,1.02933 -0.806253,2.06418 -1.189453,3.10352 -0.383199,1.03933 -0.753862,2.08219 -1.111328,3.13086 -0.3574,1.04866 -0.701803,2.10153 -1.033203,3.1582 -0.3314,1.05733 -0.647925,2.11893 -0.953125,3.18359 -0.305133,1.06467 -0.598154,2.13308 -0.876953,3.20508 -0.2788,1.072666 -0.544676,2.147896 -0.796875,3.226556 -0.252267,1.078 -0.491331,2.15948 -0.716797,3.24414 -0.225467,1.08467 -0.436099,2.17172 -0.634766,3.26172 -0.1986,1.08933 -0.384974,2.18073 -0.55664,3.27539 -2.37679802,15.08399 -1.77187802,30.44503 -1.76757802,45.66602 l 0.03125,57.32226 -0.05469,195.2168 0.08203,154.54688 -0.05664,45.24804 c -0.0218,11.69599 -0.400993,23.54298 1.06640602,35.16797 2.638697,20.90598 11.4996808,41.22785 23.9179728,58.17383 9.28999,12.67799 19.94359,21.92543 31.76757,31.98242 9.76899,6.315 19.48797,12.27602 30.37696,16.54102 12.30098,4.81799 24.903278,7.3964 38.072258,8.1914 12.82499,0.773 25.82489,0.3366 38.67188,0.3086 l 62.1914,-0.0781 196.16016,0.0156 187.08594,0.082 40.64258,-0.0117 V 0.16018444 l -28.5254,-0.008 -189.37695,0.0625 -215.11523,-0.0937 -61.33203,0.0508 c -6.425,-0.004 -12.95773,-0.17425 -19.48047,-0.171879995879 z"
     style="fill:#1a1a1a;fill-opacity:1" />
  <defs
     id="defs5">
    <linearGradient
       id="gradient_1"
       gradientUnits="userSpaceOnUse"
       x1="621.80859"
       y1="864.81781"
       x2="363.08698"
       y2="89.411774">
      <stop
         offset="0"
         stop-color="#F8C690"
         id="stop4" />
      <stop
         offset="1"
         stop-color="#FFE6BC"
         id="stop5" />
    </linearGradient>
  </defs>
  <path
     id="path5"
     d="m 141.28478,19.023464 c -6.52275,0.0151 -13.03416,0.21901 -19.41016,0.97851 -1.304,0.14867 -2.6063,0.31906 -3.90429,0.51172 -1.298,0.19267 -2.59215,0.40658 -3.88282,0.64258 -1.29066,0.236 -2.57737,0.4941 -3.85937,0.77344 -1.282,0.27933 -2.55808,0.58034 -3.83008,0.90234 -1.272,0.32267 -2.53816,0.66658 -3.79883,1.03125 -1.26066,0.36467 -2.51439,0.74958 -3.761725,1.15625 -1.24733,0.40733 -2.48737,0.83454 -3.7207,1.2832 -1.23267,0.44867 -2.45845,0.91887 -3.67578,1.40821 -1.21733,0.49 -2.42629,1.00058 -3.62696,1.53125 -1.19999,0.53066 -2.39093,1.08039 -3.57226,1.65039 -1.182,0.57066 -2.35363,1.16148 -3.51563,1.77148 -1.16199,0.61 -2.31441,1.23872 -3.45507,1.88672 -1.14067,0.64867 -2.26872,1.31529 -3.38672,2.00195 -1.118,0.68667 -2.22565,1.39319 -3.32032,2.11719 -1.09466,0.72333 -2.17676,1.46461 -3.24609,2.22461 -1.07,0.76067 -2.12659,1.53865 -3.16992,2.33399 -23.85798,17.97698 -41.07961,46.85098 -45.09961,76.501946 -1.584,11.67999 -1.31927,23.48715 -1.32227,35.24414 l -0.008,39.62695 0.17969,144.66016 c -0.30067,66.03727 -0.22725,132.07725 0.21875,198.11719 l 0.30078,61.01562 c 0.058,10.51499 -0.46359,21.35514 0.31641,31.82813 0.749,10.07399 4.01874,28.61882 10.17773,36.75781 -4.51599,-16.57998 -4.94015,-32.40233 -4.91016,-49.44531 -1.20399,-4.739 0.41671,-18.7157 0.47071,-24.67969 l 0.0488,-73.66211 -0.25391,-251.91211 c -0.022,-39.79696 -0.65867,-79.64659 -0.13867,-119.43555 0.399,-30.51597 13.14225,-58.055796 34.99023,-79.300776 15.86999,-15.43198 36.40395,-27.50636 58.419925,-31.31836 9.341,-1.618 18.87437,-1.27125 28.31836,-1.28125 l 32.53907,-0.01 118.32031,0.0273 261.79687,0.0547 c 30.47948,0.004 61.00233,-0.17171 91.51368,-0.13867 v -16.67969 c -5.91065,-0.002 -11.82178,0.0508 -17.73243,0.0176 l -195.66992,-0.0371 -212.54101,-0.0469 -63.32422,0.043 c -6.419,0.006 -12.95187,-0.16747 -19.47461,-0.15234 z"
     style="fill:#4b2905;fill-opacity:1" />
  <path
     id="path6"
     d="m 24.306255,610.0176 c -0.098,2.431 0.0443,5.13758 -0.30469,7.51758 -0.03,17.04298 0.39417,32.86533 4.91016,49.44531 0.09,0.143 0.18753,0.28073 0.26953,0.42773 0.787,1.414 1.1213,3.11333 1.7793,4.61133 1.521,3.459 3.32216,7.01819 5.28516,10.24219 0.90866,1.488 1.84826,2.95634 2.82226,4.40234 0.97333,1.44667 1.97896,2.87015 3.01563,4.27149 1.03666,1.402 2.10384,2.78138 3.20117,4.13672 1.09666,1.35466 2.22291,2.68294 3.3789,3.98828 1.156,1.30533 2.34074,2.58522 3.55274,3.83789 1.21266,1.25333 2.4508,2.47973 3.7168,3.67773 1.26666,1.19867 2.55895,2.36844 3.87695,3.50977 1.318,1.14133 2.66068,2.25198 4.02734,3.33398 1.36667,1.082 2.75659,2.13492 4.16992,3.15625 1.41334,1.02067 2.84931,2.00947 4.30664,2.9668 1.45667,0.958 2.93365,1.88272 4.43165,2.77539 1.49733,0.892 3.01478,1.75017 4.55078,2.57617 1.53533,0.82533 3.08753,1.61767 4.6582,2.375 1.57067,0.75667 3.15777,1.47868 4.75977,2.16602 1.60266,0.68733 3.21894,1.33779 4.8496,1.95312 1.63134,0.616 3.27498,1.1969 4.931655,1.74024 9.89699,3.18699 19.87382,4.89986 30.25781,5.38086 13.56398,0.62699 27.31731,0.22981 40.9043,0.25781 l 72.82421,0.11719 h 219.76172 l 164.6543,-0.17188 21.12891,0.041 v -36.93164 l -17.91211,-0.0801 -151.81446,-0.01 -242.81836,0.0254 -65.44726,-0.006 c -20.00298,-0.012 -40.53366,1.19517 -60.18164,-3.17383 -0.93,-0.21066 -1.85659,-0.43396 -2.78125,-0.66796 -0.924,-0.234 -1.84696,-0.47838 -2.76563,-0.73438 -0.91866,-0.25667 -1.83281,-0.52535 -2.74414,-0.80469 -0.912,-0.27866 -1.81994,-0.5678 -2.72461,-0.86914 -0.904665,-0.30133 -1.805795,-0.61416 -2.703125,-0.9375 -0.89667,-0.324 -1.79036,-0.65857 -2.67969,-1.0039 -0.88867,-0.34534 -1.77234,-0.70103 -2.65234,-1.06836 -0.88,-0.36734 -1.75629,-0.7461 -2.62696,-1.13477 -0.87066,-0.38866 -1.73503,-0.78855 -2.5957,-1.19922 -0.86133,-0.41 -1.71769,-0.8291 -2.56836,-1.25976 -0.85,-0.43134 -1.69516,-0.87417 -2.53516,-1.32617 -0.83933,-0.452 -1.67328,-0.91406 -2.50195,-1.38672 -0.828,-0.47267 -1.65013,-0.9546 -2.4668,-1.44727 -0.81599,-0.49266 -1.62568,-0.99515 -2.42968,-1.50781 -0.804,-0.51267 -1.6032,-1.03636 -2.39453,-1.56836 -0.79134,-0.53267 -1.57552,-1.07367 -2.35352,-1.625 -0.77733,-0.552 -1.54783,-1.11488 -2.3125,-1.68555 -0.764,-0.57066 -1.5202,-1.14895 -2.26953,-1.73828 -0.75,-0.58866 -1.49385,-1.18692 -2.22852,-1.79492 -0.73533,-0.60733 -1.46164,-1.22428 -2.18164,-1.84961 -0.71933,-0.62533 -1.43205,-1.25901 -2.13672,-1.90234 -0.704,-0.64267 -1.39989,-1.29508 -2.08789,-1.95508 -0.68866,-0.66 -1.36773,-1.32853 -2.03906,-2.00586 -0.672,-0.67667 -1.33557,-1.36202 -1.99023,-2.05469 -0.65534,-0.69333 -1.30212,-1.39418 -1.93946,-2.10351 -0.63733,-0.70867 -1.26672,-1.42573 -1.88672,-2.15039 -0.62,-0.72467 -1.23003,-1.45598 -1.83203,-2.19532 -0.602,-0.74 -1.19529,-1.48623 -1.77929,-2.24023 -0.58334,-0.754 -1.15799,-1.51521 -1.72266,-2.28321 -0.56533,-0.76866 -1.12068,-1.54417 -1.66602,-2.32617 -0.546,-0.782 -1.08142,-1.57057 -1.60742,-2.36523 -0.52666,-0.79533 -1.04411,-1.5963 -1.55078,-2.4043 -6.88999,-10.94999 -12.54497,-24.17385 -14.79297,-36.96484 z"
     style="fill:#1f1f1f;fill-opacity:1" />
  <path
     id="path7"
     d="m 628.03868,35.744164 c -23.18385,0.0803 -46.37041,0.27644 -69.52539,0.27344 l -261.79687,-0.0547 -118.32031,-0.0273 -32.53907,0.01 c -9.44399,0.01 -18.97736,-0.33675 -28.31836,1.28125 -22.015975,3.812 -42.549935,15.88638 -58.419925,31.31836 -21.84798,21.24498 -34.59123,48.784806 -34.99023,79.300776 -0.52,39.78896 0.11667,79.63859 0.13867,119.43555 l 0.25391,251.91211 -0.0488,73.66211 c -0.054,5.96399 -1.6747,19.94069 -0.47071,24.67969 0.349,-2.38 0.20669,-5.08658 0.30469,-7.51758 2.248,12.79099 7.90298,26.01485 14.79297,36.96484 0.50667,0.808 1.02283,1.60897 1.54883,2.4043 0.52667,0.79466 1.06337,1.58323 1.60937,2.36523 0.54534,0.782 1.10069,1.55751 1.66602,2.32617 0.56467,0.768 1.13932,1.52921 1.72266,2.28321 0.584,0.754 1.17729,1.50023 1.77929,2.24023 0.602,0.73934 1.21203,1.47065 1.83203,2.19532 0.62,0.72466 1.24939,1.44172 1.88672,2.15039 0.63734,0.70933 1.28412,1.41018 1.93946,2.10351 0.65466,0.69267 1.31823,1.37802 1.99023,2.05469 0.67133,0.67733 1.3504,1.34586 2.03906,2.00586 0.688,0.66 1.38389,1.31241 2.08789,1.95508 0.70467,0.64333 1.41739,1.27701 2.13672,1.90234 0.72,0.62533 1.44631,1.24228 2.18164,1.84961 0.73467,0.608 1.47852,1.20626 2.22852,1.79492 0.74933,0.58933 1.50553,1.16762 2.26953,1.73828 0.76467,0.57067 1.53517,1.13355 2.3125,1.68555 0.778,0.55133 1.56218,1.09233 2.35352,1.625 0.79133,0.532 1.59053,1.05569 2.39453,1.56836 0.804,0.51266 1.61369,1.01515 2.42968,1.50781 0.81667,0.49267 1.6388,0.9746 2.4668,1.44727 0.82867,0.47266 1.66262,0.93472 2.50195,1.38672 0.84,0.452 1.68516,0.89355 2.53516,1.32421 0.85067,0.43134 1.70703,0.85172 2.56836,1.26172 0.86067,0.41067 1.72504,0.81056 2.5957,1.19922 0.87067,0.38867 1.74696,0.76743 2.62696,1.13477 0.88,0.36733 1.76367,0.72302 2.65234,1.06836 0.88933,0.34533 1.78302,0.6799 2.67969,1.0039 0.89733,0.32334 1.79846,0.63617 2.703125,0.9375 0.90467,0.30134 1.81261,0.59048 2.72461,0.86914 0.91133,0.27934 1.82548,0.54802 2.74414,0.80469 0.91867,0.256 1.84163,0.50038 2.76563,0.73438 0.92466,0.234 1.85125,0.4573 2.78125,0.66796 19.64798,4.369 40.17866,3.16183 60.18164,3.17383 l 65.44726,0.006 242.81836,-0.0254 151.81446,0.01 17.91211,0.0801 V 35.878934 c -7.33216,-0.008 -14.65466,-0.16015 -21.98829,-0.13477 z"
     style="fill:#383838;fill-opacity:1" />
  <path
     id="path8"
     d="m 173.08361,63.343774 c -4.74175,-0.0598 -9.47687,0.002 -14.06836,0.4668 -0.185,0.019 -0.36874,0.056 -0.55274,0.084 -24.23397,2.318 -48.76529,12.24355 -64.488285,31.39453 -13.02099,15.859986 -20.7185,35.268786 -23.5625,55.509766 -1.678,11.94799 -1.38959,24.06657 -1.43359,36.10156 l -0.12305,43.85938 -0.15234,152.62304 -0.0371,136.83594 -0.0508,41.5332 c -0.011,8.16399 -0.42891,16.59276 0.37109,24.71875 2.679,27.20198 15.13121,51.25871 36.367195,68.55469 13.70198,11.15899 30.61806,19.70424 48.24804,22.11523 10.70799,1.465 21.65947,1.0695 32.43946,1.0625 l 41.61523,-0.0371 143.30469,0.002 198.55273,0.01 58.77539,0.0117 c 7.15333,0.002 14.46975,0.20826 21.73829,0.10743 V 63.615254 c -6.01495,-0.0651 -12.03651,0.0366 -18.02149,0.0391 l -50.08984,0.0195 -169.44531,0.0156 -174.5293,-0.0117 -50.74805,-0.0742 c -4.61949,-0.019 -9.36763,-0.20002 -14.10937,-0.25977 z"
     style="fill:#1f1f1f;fill-opacity:1" />
</svg>
