<?xml version="1.0" encoding="UTF-8" standalone="no"?>
<svg
   width="674.67896"
   height="797.43878"
   version="1.1"
   id="svg40"
   sodipodi:docname="tower.svg"
   inkscape:version="1.3.2 (091e20ef0f, 2023-11-25)"
   xmlns:inkscape="http://www.inkscape.org/namespaces/inkscape"
   xmlns:sodipodi="http://sodipodi.sourceforge.net/DTD/sodipodi-0.dtd"
   xmlns="http://www.w3.org/2000/svg"
   xmlns:svg="http://www.w3.org/2000/svg">
  <defs
     id="defs40" />
  <sodipodi:namedview
     id="namedview40"
     pagecolor="#ffffff"
     bordercolor="#000000"
     borderopacity="0.25"
     inkscape:showpageshadow="2"
     inkscape:pageopacity="0.0"
     inkscape:pagecheckerboard="0"
     inkscape:deskcolor="#d1d1d1"
     inkscape:zoom="0.1918536"
     inkscape:cx="534.26154"
     inkscape:cy="768.81538"
     inkscape:window-width="1440"
     inkscape:window-height="831"
     inkscape:window-x="0"
     inkscape:window-y="0"
     inkscape:window-maximized="1"
     inkscape:current-layer="svg40" />
  <rect
     style="fill:#96b006;stroke-width:4.43049;stroke-linecap:round"
     id="rect1"
     width="377.15701"
     height="377.15701"
     x="-702.98517"
     y="702.98517"
     transform="matrix(0.89442719,-0.4472136,0.89442719,0.4472136,0,0)" />
  <g
     id="g52"
     transform="translate(-1.8451157,16.502247)">
    <g
       id="g53"
       transform="translate(4.8182554,30.578258)">
      <path
         id="rect50"
         style="fill:#f8c25e;fill-opacity:1;stroke-width:3.48634;stroke-linecap:round"
         d="m 560.35293,552.86854 -0.13867,0.16211 -222.92969,111.46485 v 32 l 222.92969,-111.46485 0.13867,-0.33789 z" />
      <path
         id="rect3"
         style="fill:#f9e3a3;fill-opacity:1;stroke-width:3.48634;stroke-linecap:round"
         d="m 114.24746,553.0326 v 32 l 222.98047,111.49024 0.0879,-0.043 v -32 l -0.0879,0.043 z" />
      <rect
         style="fill:#d2dbb5;fill-opacity:1;stroke-width:2.92861;stroke-linecap:round"
         id="rect2"
         width="249.30536"
         height="249.30536"
         x="-554.44293"
         y="682.17072"
         transform="matrix(0.89442719,-0.4472136,0.89442719,0.4472136,0,0)" />
    </g>
  </g>
  <path
     fill="#f9e3a3"
     d="m 974.4976,6.4844737 c 4.4659,2.13174 9.1812,6.1082003 13.3988,8.8331403 11.0681,7.15098 22.551,13.96327 33.2392,21.66477 0.9694,0.69891 1.9058,1.36252 2.4932,2.42584 -6.6739,6.14849 -18.0801,12.28422 -26.0227,17.38194 -7.4668,4.79296 -15.159,10.56327 -23.0776,14.47171 l -0.4638,-0.0588 c -5.2119,-2.28583 -13.2841,-8.87483 -18.4372,-12.23445 -8.143,-5.30876 -23.4346,-13.64195 -29.983,-19.45065 1.0731,-3.17981 42.9211,-29.6060203 48.8531,-33.0334603 z"
     id="path3"
     style="stroke-width:0.997306" />
  <path
     fill="#f8c25e"
     d="m 925.6445,39.517934 c 6.5484,5.8087 21.84,14.14189 29.983,19.45065 5.1531,3.35962 13.2253,9.94862 18.4372,12.23445 l 0.4638,0.0588 c -1.3962,5.12016 -0.3551,15.641745 -0.3211,21.438085 0.093,16.110481 0.3231,32.230921 0.2403,48.341401 l -0.099,0.83873 c -6.0297,-2.14217 -15.4882,-10.11762 -21.4431,-13.96024 Q 930.543,113.64338 907.7586,100.0501 c 2.3666,-11.951711 6.6141,-23.783746 10.1994,-35.421306 3.0199,-6.60227 6.5812,-18.00755 7.6862,-25.11086 z"
     id="path4"
     style="stroke-width:0.997306" />
  <path
     fill="#f89624"
     d="m 1032.1877,64.655714 c 6.4675,2.95702 12.5611,6.97516 18.6307,10.67217 15.4064,9.38265 34.0759,19.706765 41.815,36.894336 -15.3226,8.88101 -30.2463,18.62169 -45.2976,27.95946 -15.7166,9.74966 -31.5996,19.14528 -47.4159,28.72041 -8.2767,5.01047 -16.4216,10.98532 -24.8738,15.57792 -3.7928,-1.98863 -7.4619,-4.76812 -11.0701,-7.09882 q -11.3105,-7.35613 -22.7874,-14.45096 c -19.3877,-11.94972 -38.7344,-23.86852 -57.8996,-36.17926 -7.0061,-4.50084 -15.6627,-8.80023 -21.8191,-14.36021 3.334,-5.43132 6.8505,-11.48796 11.1978,-16.145381 6.5473,-7.01305 15.901,-12.098315 23.8735,-17.406975 7.1257,-4.74618 14.1517,-9.67985 21.4171,-14.20961 -3.5853,11.63756 -7.8328,23.469595 -10.1994,35.421306 q 22.7844,13.59328 45.147,27.86971 c 5.9549,3.84262 15.4134,11.81807 21.4431,13.96028 l 0.099,-0.83873 c 10.362,-6.68993 21.2725,-12.7346 31.9078,-18.9887 12.1072,-7.11976 24.1617,-14.55667 36.6729,-20.94242 q -2.949,-10.794841 -6.3329,-21.462026 c -1.5488,-4.88181 -3.5883,-9.96308 -4.5078,-14.9925 z"
     id="path5"
     style="stroke-width:0.997306" />
  <path
     fill="#96b006"
     d="m 861.1687,133.82386 c 0.9844,-6.71586 0.2563,-14.57662 0.3012,-21.4331 6.1564,5.55998 14.813,9.85937 21.8191,14.36021 19.1652,12.31074 38.5119,24.22954 57.8996,36.17926 q 11.4769,7.09483 22.7874,14.45096 c 3.6082,2.3307 7.2773,5.11019 11.0701,7.09882 -1.0891,24.40905 0.3072,48.96471 0.1715,73.39571 l 0.8218,1.37229 c -0.078,16.27703 0.069,32.60193 -0.4109,48.87097 -18.0432,-10.42882 -35.1839,-22.54509 -52.8033,-33.68001 l -103.302,-65.02233 0.07,-8.00139 c 0.3621,-6.5114 -1.0352,-37.40494 1.2527,-40.65117 5.8541,-2.92909 11.4251,-7.02502 16.8465,-10.68514 q 11.8898,-7.90863 23.4765,-16.25508 z"
     id="path8"
     style="stroke-width:0.997306" />
  <path
     fill="#d27620"
     d="m 861.1687,133.82386 c 0.9844,-6.71586 0.2563,-14.57662 0.3012,-21.4331 6.1564,5.55998 14.813,9.85937 21.8191,14.36021 19.1652,12.31074 38.5119,24.22954 57.8996,36.17926 q 11.4769,7.09483 22.7874,14.45096 c 3.6082,2.3307 7.2773,5.11019 11.0701,7.09882 -1.0891,24.40905 0.3072,48.96471 0.1715,73.39571 -14.3093,-7.34914 -27.6313,-17.36808 -41.2645,-25.91898 q -26.8993,-16.58519 -53.3997,-33.80068 c -5.8373,-3.74488 -11.9577,-7.17661 -17.6713,-11.08904 -0.9574,-0.65623 -1.4979,-1.02922 -1.9308,-2.1472 0.8168,-16.89635 0.1716,-34.15672 0.2174,-51.09596 z"
     id="path9"
     style="stroke-width:0.997306" />
  <path
     fill="#f89624"
     d="m 807.8298,208.85815 c 3.7639,-2.69971 7.8109,-5.02942 11.7633,-7.4429 l -0.07,8.00139 103.3019,65.02233 c 17.6194,11.13492 34.7601,23.25119 52.8033,33.68001 l 0.1057,0.45577 c -0.2244,11.67147 0.6802,23.97024 -0.4458,35.55096 -0.9045,7.18359 -0.4956,14.75613 -0.4657,21.98959 0.068,16.52635 0.8637,33.33893 0.1506,49.82639 0.2852,4.38814 -0.3979,9.1812 0.5156,13.43369 l -0.088,0.4189 c 2.0614,3.7389 1.1419,7.8418 1.2746,11.9437 l -0.4309,0.8517 c 0.7729,7.9426 0.4159,16.1993 0.4309,24.1877 0.014,7.38 0.352,14.9336 -0.043,22.2967 -10.5286,-6.2471 -20.737,-13.0377 -31.1509,-19.4743 q -36.6151,-22.3038 -72.7943,-45.30964 -52.8203,-32.6857 -105.1799,-66.10741 c -0.7619,-3.99521 -0.3829,-8.76332 -0.374,-12.84729 0.028,-12.01454 1.0831,-25.43229 -0.2383,-37.31619 2.6458,-3.94035 50.7399,-33.76578 57.7031,-38.31848 0.2334,-7.22348 0.02,-14.5068 -0.01,-21.73727 -5.0424,-3.76782 -11.114,-6.73879 -16.4984,-10.05783 q 0.01,-14.52476 -0.2633,-29.04752 z"
     id="path10"
     style="stroke-width:0.997306" />
  <path
     fill="#d27620"
     d="m 841.2964,258.46014 c 3.0618,1.98564 6.1544,3.93437 9.1852,5.96588 -0.01,7.36112 -0.8726,49.99992 0.3471,53.51543 l 0.1954,0.16754 0.2234,7.1088 c -3.1664,1.5179 -6.3847,3.26418 -9.7347,4.31833 -1.3912,-23.50649 -0.5654,-47.53657 -0.2164,-71.07598 z"
     id="path11"
     style="stroke-width:0.997306" />
  <path
     fill="#f8c25e"
     d="m 901.8468,296.07452 c 5.5441,3.51052 11.3823,6.87742 16.5952,10.85468 10e-4,13.27414 -0.6602,26.9841 0.2264,40.20538 0.057,9.23006 -0.6143,19.12034 0.3231,28.25068 q -8.5898,-5.1461 -17.0619,-10.48368 c -0.3959,-22.91808 -0.068,-45.90199 -0.083,-68.82706 z"
     id="path12"
     style="stroke-width:0.997306" />
  <path
     fill="#f8c25e"
     d="m 956.5171,332.01443 0.6942,-0.17852 c 5.7903,3.9224 12.9211,7.63039 18.0771,12.2898 -0.9045,7.18359 -0.4956,14.75613 -0.4657,21.98959 0.068,16.52635 0.8637,33.33893 0.1506,49.82639 -3.3849,0.0409 -14.6594,-9.0326 -17.783,-11.29947 -0.1167,-10.4029 1.1619,-22.43838 -0.3999,-32.59195 -0.6891,-13.24522 -0.028,-26.74475 -0.2733,-40.03584 z"
     id="path13"
     style="stroke-width:0.997306" />
  <path
     fill="#f8c25e"
     d="m 882.899,284.40206 c 4.075,2.71466 9.1294,5.04038 12.8284,8.16594 1.9836,1.12396 4.2924,2.16814 6.1194,3.50652 0.015,22.92507 -0.3131,45.90898 0.083,68.82706 -1.9657,0.84671 -3.9643,1.87493 -6.0377,2.39952 -4.6424,-1.31345 -10.0169,-6.80263 -13.7857,-9.89128 -0.045,-5.07728 -0.9135,-14.36918 0.6133,-18.96177 0.4728,-6.39074 0.2015,-12.96298 0.2005,-19.37566 z"
     id="path14"
     style="stroke-width:0.997306" />
  <path
     fill="#d27620"
     d="m 895.7274,292.568 c 1.9836,1.12396 4.2924,2.16814 6.1194,3.50652 0.015,22.92507 -0.3131,45.90898 0.083,68.82706 -1.9657,0.84671 -3.9643,1.87493 -6.0377,2.39952 z"
     id="path15"
     style="stroke-width:0.997306" />
  <path
     fill="#873129"
     d="m 850.4816,264.42602 c 11.0013,6.30198 21.7313,13.15746 32.4174,19.97604 l 0.021,34.67033 c 0.001,6.41268 0.2723,12.98492 -0.2004,19.37566 -10.3381,-7.0709 -21.1509,-13.57134 -31.6954,-20.33906 l -0.1955,-0.16754 c -1.2197,-3.51551 -0.356,-46.15431 -0.347,-53.51543 z"
     id="path16"
     style="stroke-width:0.997306" />
  <path
     fill="#cc5627"
     d="m 918.7083,307.10173 c 3.9882,2.25192 36.1264,21.73129 37.4039,23.71094 0.2294,0.35505 0.2703,0.80184 0.4049,1.20176 0.2454,13.29109 -0.4158,26.79062 0.2733,40.03584 q -0.064,6.40669 -0.01,12.81338 c -8.0323,-6.0696 -16.7248,-11.9198 -25.5101,-16.84449 -3.5893,2.3686 -8.155,6.1803 -12.2828,7.3661 -0.9375,-9.13034 -0.2663,-19.02062 -0.3231,-28.25068 0.5375,-13.26317 0.032,-26.74475 0.04,-40.03285 z"
     id="path17"
     style="stroke-width:0.997306" />
  <path
     fill="#dde2d6"
     d="m 824.5985,269.70077 c 0.016,4.97257 1.1519,35.17697 -0.8806,37.61339 -0.3919,0.46973 -1.091,0.91951 -1.5658,1.27156 -2.0095,1.65054 -3.8665,3.31305 -5.6786,5.18499 l -0.1466,13.79573 q 79.2638,51.54076 159.0742,102.22784 c 2.0615,3.7389 1.1419,7.8418 1.2746,11.9437 l -0.4309,0.8517 c -10.9833,-6.8235 -22.186,-13.3559 -33.0517,-20.35998 -25.4532,-16.40667 -50.4716,-33.47656 -76.0545,-49.69375 q -32.5999,-20.24929 -64.7172,-41.25753 c -11.9168,-7.67028 -23.9642,-15.04635 -35.526,-23.25917 2.6459,-3.94035 50.7399,-33.76578 57.7031,-38.31848 z"
     id="path18"
     style="stroke-width:0.997306" />
  <path
     fill="#f9e3a3"
     d="m -223.63401,381.616 c 11.56176,8.21282 23.60922,15.58889 35.52602,23.25917 q 32.11723,21.00824 64.71716,41.25753 c 25.582886,16.21719 50.601297,33.28708 76.054527,49.69375 10.86565,7.00408 22.06838,13.53643 33.05171,20.36 0.77291,7.94254 0.41588,16.19923 0.43084,24.18765 0.014,7.38006 0.35205,14.93366 -0.0429,22.29676 -10.52855,-6.24712 -20.73697,-13.03777 -31.15084,-19.47438 q -36.61508,-22.30375 -72.794337,-45.30959 -52.8203,-32.6857 -105.17984,-66.10741 c -0.76195,-3.99521 -0.38297,-8.76332 -0.37399,-12.84729 0.0279,-12.01454 1.08307,-25.43229 -0.23836,-37.31619 z"
     id="path19"
     style="stroke-width:0.997306" />
  <path
     fill="#f89624"
     d="m 1427.1829,298.19483 c 2.4803,1.60965 6.9951,3.81171 8.3674,6.35284 -1.6207,6.95122 -1.119,42.27679 -0.5087,50.80973 l -2.9201,1.90386 c 0.9455,16.91829 -0.1595,33.98518 0.4977,50.9334 -12.2409,8.57084 -25.1411,16.0646 -37.5446,24.37415 q -51.9716,32.71964 -103.5343,66.07944 l -43.294,27.9505 c -5.6827,3.6741 -11.2107,7.8797 -17.02,11.3085 q -48.6846,-30.9245 -97.7859,-61.1807 c -22.9261,-14.44003 -45.5709,-29.98204 -69.213,-43.21329 -3.3939,-2.82637 -7.6464,-5.11319 -11.4052,-7.46484 -10.0379,-6.28202 -20.6084,-12.16713 -30.2493,-19.01263 -0.4049,-17.76601 0.5585,-35.69257 -0.4089,-53.42866 q 52.3595,33.42171 105.1798,66.10741 36.1793,23.00584 72.7943,45.30961 c 10.4139,6.4366 20.6223,13.2272 31.151,19.4744 0.3949,-7.3631 0.057,-14.9167 0.043,-22.2968 -0.015,-7.98842 0.3421,-16.24511 -0.4309,-24.18765 l 0.4309,-0.8517 c -0.1327,-4.10192 0.7869,-8.20484 -1.2746,-11.94373 l 0.088,-0.41887 c 6.6122,-3.43971 12.9979,-8.16993 19.273,-12.22797 l 40.4028,-26.33585 111.1348,-71.57762 c 1.1219,0.0199 23.321,-14.73121 26.2271,-16.46353 z"
     id="path20"
     style="stroke-width:0.997306" />
  <path
     id="rect6"
     style="fill:#873129;fill-opacity:1;stroke-width:6.71084;stroke-linecap:round"
     d="m 519.91406,421.15234 -176.57422,88.28516 -2.27539,-1.13672 0.0977,181.67188 178.75195,-89.37696 z" />
  <path
     id="rect5"
     style="fill:#cc5627;fill-opacity:1;stroke-width:5.568;stroke-linecap:round"
     d="M 162.4082,418.97266 V 600.5957 l 178.75391,89.37696 0.39648,-181.42578 z" />
  <path
     fill="#f8c25e"
     d="m 1159.6582,264.83754 c 2.4803,1.60965 6.9951,3.81171 8.3674,6.35284 -1.6207,6.95122 -1.119,42.27679 -0.5087,50.80973 l -2.9201,1.90386 q -73.6021,47.0838 -147.7767,93.26005 -17.9735,11.46103 -35.81829,23.12253 c -5.52407,3.58033 -11.31543,8.02632 -17.23743,10.85467 0.39494,-7.3631 0.0569,-14.9167 0.0429,-22.29676 -0.015,-7.98842 0.34207,-16.24511 -0.43084,-24.18765 l 0.43084,-0.8517 c -0.13264,-4.10192 0.78687,-8.20484 -1.27456,-11.94373 l 0.0878,-0.41887 c 6.61214,-3.43971 12.99789,-8.16993 19.27294,-12.22797 l 40.40284,-26.33585 111.1348,-71.57762 c 1.1219,0.0199 23.321,-14.73121 26.2271,-16.46353 z"
     id="path21"
     style="stroke-width:0.997306" />
  <path
     fill="#f9e3a3"
     d="m 1036.3604,45.549701 c 2.4803,1.60965 6.9951,3.81171 8.3674,6.35284 -6.301,5.55699 -14.7452,10.07079 -21.8171,14.66139 l -48.24363,30.971328 c -44.81892,28.802191 -89.0584,58.620631 -134.15756,86.982011 -0.13264,-4.10192 0.78687,-8.20484 -1.27456,-11.94373 l 0.0878,-0.41887 c 6.61214,-3.43971 12.99789,-8.16993 19.27294,-12.22797 l 40.40284,-26.33585 111.13477,-71.577619 c 1.122,0.0199 23.321,-14.73121 26.2271,-16.46353 z"
     id="path22"
     style="stroke-width:0.997306" />
  <path
     fill="#d27620"
     d="m 1092.6334,112.22222 c -0.7849,7.79195 -0.371,15.91002 -0.2593,23.73986 3.0817,1.28254 6.0188,3.42675 8.8641,5.17103 7.5815,4.64745 15.1072,9.81549 22.921,14.02711 5.8812,11.22667 9.5682,24.34423 14.3961,36.12341 1.867,4.55469 3.733,9.54022 6.6202,13.55139 2.4583,1.09404 4.446,3.00089 6.9253,4.17771 -0.2673,8.64365 -0.5665,17.43091 0.053,26.06159 -7.3302,4.59459 -14.8998,8.8481 -22.0116,13.77479 0.8896,8.82316 0.5984,17.88468 0.5675,26.74873 13.9114,8.9229 28.4461,17.47679 41.817,27.17259 -2.9061,1.73232 -25.1052,16.48347 -26.2271,16.46353 l -111.1348,71.57762 -40.4028,26.33585 c -6.2751,4.05804 -12.6608,8.78826 -19.273,12.22795 -0.9135,-4.25249 -0.2303,-9.04555 -0.5156,-13.43369 0.7131,-16.48746 -0.083,-33.30004 -0.1506,-49.82639 -0.03,-7.23346 -0.4388,-14.806 0.4658,-21.98959 1.1259,-11.58072 0.2214,-23.87949 0.4458,-35.55096 l -0.1057,-0.45577 c 0.4797,-16.26904 0.3331,-32.59394 0.4108,-48.87097 l -0.8217,-1.37229 c 0.1356,-24.431 -1.2606,-48.98666 -0.1716,-73.39571 8.4522,-4.5926 16.5972,-10.56745 24.8738,-15.57792 15.8163,-9.57513 31.6994,-18.97075 47.4159,-28.72041 15.0514,-9.33777 29.975,-19.07845 45.2977,-27.95946 z"
     id="path23"
     style="stroke-width:0.997306" />
  <path
     fill="#f89624"
     d="m 1117.2579,257.31623 c 1.2167,6.68394 0.2353,15.13013 0.2254,21.99558 q -0.013,21.52485 0.2692,43.0487 -5.2099,-3.42774 -10.7409,-6.30696 c -0.4558,-11.107 -0.1137,-22.31771 -0.081,-33.43667 0.4956,-6.2571 0.2922,-12.74357 0.3809,-19.02759 3.1066,-2.35165 6.6082,-4.26349 9.9462,-6.27306 z"
     id="path24"
     style="stroke-width:0.997306" />
  <path
     fill="#f8c25e"
     d="m 1049.9986,298.72337 0.014,46.64698 c 0,7.87273 0.6014,16.30893 -0.1935,24.10986 -4.7073,-2.16715 -8.6327,-5.67766 -13.2791,-8.00039 -1.3713,-2.05046 -0.4129,-47.85172 -0.3341,-53.62113 4.1019,-3.4068 9.3457,-6.15138 13.7927,-9.13532 z"
     id="path25"
     style="stroke-width:0.997306" />
  <path
     fill="#dde2d6"
     d="m 1130.7095,275.59784 c 13.9115,8.9229 28.4462,17.47679 41.8171,27.17259 -2.9062,1.73232 -25.1052,16.48347 -26.2272,16.46353 -4.3183,-2.07241 -8.488,-4.75616 -12.6478,-7.14371 -0.7161,-0.48967 -1.4611,-0.92649 -2.2021,-1.37727 -1.6734,-6.51241 -0.722,-27.32817 -0.74,-35.11514 z"
     id="path26"
     style="stroke-width:0.997306" />
  <path
     fill="#873129"
     d="m 993.197,334.05791 c 9.7178,-6.2202 19.4485,-12.74258 29.5213,-18.36938 -0.01,10.72702 -0.2872,21.52884 0.1705,32.24489 l -0.022,21.80409 c -10.1216,4.38316 -20.6442,12.21401 -29.8064,18.45315 z"
     id="path27"
     style="stroke-width:0.997306" />
  <path
     fill="#873129"
     d="m 1107.0026,263.67206 q -0.3072,9.47141 -0.072,18.94482 c -0.033,11.11896 -0.375,22.32967 0.081,33.43667 -1.2367,2.58202 -32.3775,21.55078 -37.2464,25.42032 -0.2124,-16.56026 0.083,-33.13847 -0.028,-49.70172 l -0.079,-3.8526 c 0.1696,-0.76593 0.2962,-1.09304 0.9176,-1.6276 3.3389,-2.87623 7.9614,-5.16504 11.7263,-7.46284 q 12.4184,-7.46682 24.7002,-15.15705 z"
     id="path28"
     style="stroke-width:0.997306" />
  <rect
     style="fill:#f89624;fill-opacity:1;stroke-width:2.71937;stroke-linecap:round"
     id="rect8"
     width="231.49384"
     height="231.49384"
     x="-380.98541"
     y="530.03259"
     transform="matrix(0.89442719,-0.4472136,0.89442719,0.4472136,0,0)" />
  <rect
     style="fill:#f9e3a3;fill-opacity:1;stroke-width:2.71937;stroke-linecap:round"
     id="rect2-3-5"
     width="231.49384"
     height="231.49384"
     x="-340.73645"
     y="489.78336"
     transform="matrix(0.89442719,-0.4472136,0.89442719,0.4472136,0,0)" />
  <path
     fill="#4d7c28"
     d="m 1124.1592,155.16022 c 5.8812,11.22667 9.5682,24.34423 14.3961,36.12341 1.867,4.55469 3.733,9.54022 6.6202,13.55139 -6.7029,4.15278 -13.694,7.82885 -20.4528,11.89785 l -56.9402,34.75511 -50.8984,31.69537 c -5.7904,3.64515 -37.3192,24.59256 -41.1499,25.3914 l -0.1057,-0.45577 c 0.4797,-16.26904 0.3331,-32.59394 0.4109,-48.87097 7.3721,-2.96997 18.0762,-10.91351 25.4064,-15.19794 q 45.502,-27.07186 90.5384,-54.91065 c -0.1048,-4.56168 -0.1646,-9.07249 0.062,-13.63317 q 16.2281,-9.90225 32.1132,-20.34603 z"
     id="path29"
     style="stroke-width:0.997306" />
  <path
     fill="#cc5627"
     d="m 1092.6334,112.22222 c -0.7849,7.79195 -0.371,15.91002 -0.2593,23.73986 3.0817,1.28254 6.0188,3.42675 8.8641,5.17103 7.5815,4.64745 15.1072,9.81549 22.921,14.02711 q -15.885,10.44378 -32.1132,20.34603 c -0.2264,4.56068 -0.1666,9.07149 -0.062,13.63317 q -45.0363,27.83879 -90.5384,54.91065 c -7.3302,4.28443 -18.0343,12.22797 -25.4064,15.19794 l -0.8217,-1.37229 c 0.1356,-24.431 -1.2606,-48.98666 -0.1716,-73.39571 8.4522,-4.5926 16.5972,-10.56745 24.8738,-15.57792 15.8163,-9.57513 31.6994,-18.97075 47.4159,-28.72041 15.0514,-9.33777 29.975,-19.07845 45.2976,-27.95946 z"
     id="path30"
     style="stroke-width:0.997306" />
  <path
     fill="#96b006"
     d="m 1092.3741,135.96208 c 3.0817,1.28254 6.0188,3.42675 8.8641,5.17103 7.5815,4.64745 15.1072,9.81549 22.921,14.02711 q -15.885,10.44378 -32.1132,20.34603 -0.012,-19.77458 0.3281,-39.54417 z"
     id="path31"
     style="stroke-width:0.997306" />
  <path
     fill="#d27620"
     d="m 390.51568,666.53109 c -0.77148,-18.65447 -0.0548,-37.49943 -0.12751,-56.17702 -0.0589,-14.66 -1.96776,-37.87817 1.66219,-51.68268 3.40933,-12.96993 11.17624,-25.85069 21.46041,-36.19691 8.99744,-9.05254 22.45936,-17.87165 37.34228,-18.99029 6.34727,-0.47673 14.92815,1.05808 19.84756,4.53728 5.36613,3.7963 8.99745,9.95427 10.40064,15.54081 2.26101,9.01069 1.03047,19.36132 0.98662,28.55589 l -0.0822,41.32103 c -0.007,8.39633 -0.36039,16.92368 0.31244,25.29909 l 0.0631,0.71236 c -30.17831,16.19811 -61.68308,30.8592 -91.8655,47.08044 z"
     id="path34"
     style="stroke-width:1.2283" />
  <path
     fill="#f8c25e"
     d="m 197.35203,616.43912 c 1.55862,-6.33713 0.34535,-15.89328 0.33089,-22.60179 l -0.10243,-43.63215 c -0.0171,-8.25202 -0.42149,-16.66288 0.21009,-24.89986 0.60796,-7.93107 3.15793,-16.29256 10.87615,-21.66366 6.74523,-4.69596 14.50284,-5.02334 22.87496,-4.5693 21.8258,6.05483 35.03002,20.30264 45.0054,36.76801 4.98046,8.22195 9.16127,17.3949 10.76059,26.51419 1.99717,11.3873 0.69592,24.03794 0.72087,35.57336 0.0486,22.11019 0.46089,44.29335 -0.14837,66.39388 -0.25605,-0.10623 -0.51473,-0.20716 -0.76684,-0.31879 -18.08226,-7.99547 -35.53029,-18.00242 -52.93501,-26.96822 -9.54732,-4.91922 -27.28687,-13.05315 -35.37274,-18.65074 -0.81936,-0.56673 -1.14893,-1.12273 -1.45357,-1.94493 z"
     id="path35"
     style="stroke-width:1.18718" />
  <path
     fill="#873129"
     d="m 196.3076,618.45867 0.27835,-65.0452 c 0.009,-11.15241 -1.35858,-23.74141 0.83369,-34.71925 0.86287,-4.3185 2.71848,-8.13933 6.09173,-11.57092 4.77024,-4.85519 11.70095,-8.10354 19.33946,-8.56542 4.10489,-0.24721 11.98991,-0.40009 15.18953,1.87788 -8.451,-0.45863 -16.28169,-0.12793 -23.09046,4.61557 -7.79094,5.4255 -10.36493,13.87166 -10.97862,21.88304 -0.63753,8.32039 -0.2293,16.81643 -0.21206,25.152 l 0.10338,44.07399 c 0.0146,6.77645 1.23931,16.42937 -0.334,22.83067 -2.62569,0.17347 -5.00617,0.73836 -7.22099,-0.53236 z"
     id="path33"
     style="stroke-width:1.19878" />
  <rect
     style="fill:#dde2d6;fill-opacity:1;stroke-width:2.70624;stroke-linecap:round"
     id="rect2-3"
     width="230.37581"
     height="230.37581"
     x="-294.48767"
     y="444.53979"
     transform="matrix(0.89442719,-0.4472136,0.89442719,0.4472136,0,0)" />
  <rect
     style="fill:#f89624;fill-opacity:1;stroke-width:2.23538;stroke-linecap:round"
     id="rect9"
     width="190.29283"
     height="190.29283"
     x="-274.83008"
     y="463.90784"
     transform="matrix(0.89442719,-0.4472136,0.89442719,0.4472136,0,0)" />
  <rect
     style="fill:#f89624;fill-opacity:1;stroke-width:2.23538;stroke-linecap:round"
     id="rect10"
     width="190.29283"
     height="190.29283"
     x="-174.20711"
     y="363.28543"
     transform="matrix(0.89442719,-0.4472136,0.89442719,0.4472136,0,0)" />
  <rect
     style="fill:#96b006;fill-opacity:1;stroke-width:2.02098;stroke-linecap:round"
     id="rect11"
     width="172.04131"
     height="172.04131"
     x="-162.84521"
     y="370.53809"
     transform="matrix(0.89442719,-0.4472136,0.89442719,0.4472136,0,0)" />
  <rect
     style="fill:#4d7c28;fill-opacity:1;stroke-width:1.87205;stroke-linecap:round"
     id="rect12"
     width="159.36298"
     height="159.36298"
     x="-106.1945"
     y="325.06805"
     transform="matrix(0.89442719,-0.4472136,0.89442719,0.4472136,0,0)" />
  <rect
     style="fill:#cc5627;fill-opacity:1;stroke-width:1.49872;stroke-linecap:round"
     id="rect4"
     width="127.58253"
     height="127.58253"
     x="-88.879318"
     y="338.89853"
     transform="matrix(0.89442719,-0.4472136,0.89442719,0.4472136,0,0)" />
  <rect
     style="fill:#f89624;fill-opacity:1;stroke-width:1.49872;stroke-linecap:round"
     id="rect7"
     width="127.58253"
     height="127.58253"
     x="-17.325119"
     y="267.34482"
     transform="matrix(0.89442719,-0.4472136,0.89442719,0.4472136,0,0)" />
  <rect
     style="fill:#f8c25e;fill-opacity:1;stroke-width:0.985478;stroke-linecap:round"
     id="rect13"
     width="83.891388"
     height="83.891388"
     x="6.7877731"
     y="286.7659"
     transform="matrix(0.89442719,-0.4472136,0.89442719,0.4472136,0,0)" />
  <rect
     style="fill:#f9e3a3;fill-opacity:1;stroke-width:0.650756;stroke-linecap:round"
     id="rect14"
     width="55.397289"
     height="55.397289"
     x="100.41526"
     y="222.20761"
     transform="matrix(0.89442719,-0.4472136,0.89442719,0.4472136,0,0)" />
</svg>
