<?xml version="1.0" encoding="UTF-8" standalone="no"?>
<svg
   width="674.67896"
   height="776.65967"
   version="1.1"
   id="svg40"
   sodipodi:docname="tower.svg"
   inkscape:version="1.3.2 (091e20ef0f, 2023-11-25)"
   xmlns:inkscape="http://www.inkscape.org/namespaces/inkscape"
   xmlns:sodipodi="http://sodipodi.sourceforge.net/DTD/sodipodi-0.dtd"
   xmlns="http://www.w3.org/2000/svg"
   xmlns:svg="http://www.w3.org/2000/svg">
  <defs
     id="defs40" />
  <sodipodi:namedview
     id="namedview40"
     pagecolor="#ffffff"
     bordercolor="#000000"
     borderopacity="0.25"
     inkscape:showpageshadow="2"
     inkscape:pageopacity="0.0"
     inkscape:pagecheckerboard="0"
     inkscape:deskcolor="#d1d1d1"
     inkscape:zoom="0.546875"
     inkscape:cx="336.45714"
     inkscape:cy="467.2"
     inkscape:window-width="1440"
     inkscape:window-height="831"
     inkscape:window-x="0"
     inkscape:window-y="0"
     inkscape:window-maximized="1"
     inkscape:current-layer="svg40" />
  <rect
     style="fill:#96b006;stroke-width:4.43049;stroke-linecap:round"
     id="rect1"
     width="377.15701"
     height="377.15701"
     x="-679.75336"
     y="679.75336"
     transform="matrix(0.89442719,-0.4472136,0.89442719,0.4472136,0,0)" />
  <path
     fill="#dde2d6"
     d="m 127.98851,561.1934 q 22.315,-13.395 44.093,-27.644 c 0.06,10.457 -0.425,21.105 0.045,31.54 -0.029,6.348 -0.19,12.73 -0.021,19.074 -6.312,-0.625 -36.468,-18.627 -44.117,-22.97 z"
     id="path2" />
  <path
     fill="#f9e3a3"
     d="m 337.83451,0 c 4.478,2.1375 9.206,6.1247 13.435,8.857 11.098,7.1703 22.612,14.001 33.329,21.7233 0.972,0.7008 1.911,1.3662 2.5,2.4324 -6.692,6.1651 -18.129,12.3174 -26.093,17.4289 -7.487,4.8059 -15.2,10.5918 -23.14,14.5108 l -0.465,-0.059 c -5.226,-2.292 -13.32,-8.8988 -18.487,-12.2675 -8.165,-5.3231 -23.498,-13.6788 -30.064,-19.5032 1.076,-3.1884 43.037,-29.686 48.985,-33.1227 z"
     id="path3" />
  <path
     fill="#f8c25e"
     d="m 288.84951,33.1227 c 6.566,5.8244 21.899,14.1801 30.064,19.5032 5.167,3.3687 13.261,9.9755 18.487,12.2675 l 0.465,0.059 c -1.4,5.134 -0.356,15.684 -0.322,21.496 0.093,16.154 0.324,32.318 0.241,48.472 l -0.099,0.841 c -6.046,-2.148 -15.53,-10.145 -21.501,-13.998 q -22.423,-14.315 -45.269,-27.945 c 2.373,-11.984 6.632,-23.848 10.227,-35.517 3.028,-6.6201 6.599,-18.0562 7.707,-25.1787 z"
     id="path4" />
  <path
     fill="#f89624"
     d="m 395.68051,58.3284 c 6.485,2.965 12.595,6.994 18.681,10.701 15.448,9.408 34.168,19.76 41.928,36.994 -15.364,8.905 -30.328,18.672 -45.42,28.035 -15.759,9.776 -31.685,19.197 -47.544,28.798 -8.299,5.024 -16.466,11.015 -24.941,15.62 -3.803,-1.994 -7.482,-4.781 -11.1,-7.118 q -11.341,-7.376 -22.849,-14.49 c -19.44,-11.982 -38.839,-23.933 -58.056,-36.277 -7.025,-4.513 -15.705,-8.824 -21.878,-14.399 3.343,-5.446 6.869,-11.519 11.228,-16.189 6.565,-7.032 15.944,-12.131 23.938,-17.454 7.145,-4.759 14.19,-9.706 21.475,-14.248 -3.595,11.669 -7.854,23.533 -10.227,35.517 q 22.846,13.63 45.269,27.945 c 5.971,3.853 15.455,11.85 21.501,13.998 l 0.099,-0.841 c 10.39,-6.708 21.33,-12.769 31.994,-19.04 12.14,-7.139 24.227,-14.596 36.772,-20.999 q -2.957,-10.824 -6.35,-21.52 c -1.553,-4.895 -3.598,-9.99 -4.52,-15.033 z"
     id="path5" />
  <path
     fill="#96b006"
     d="m 224.19951,127.6834 c 0.987,-6.734 0.257,-14.616 0.302,-21.491 6.173,5.575 14.853,9.886 21.878,14.399 19.217,12.344 38.616,24.295 58.056,36.277 q 11.508,7.114 22.849,14.49 c 3.618,2.337 7.297,5.124 11.1,7.118 -1.092,24.475 0.308,49.097 0.172,73.594 l 0.824,1.376 c -0.078,16.321 0.069,32.69 -0.412,49.003 -18.092,-10.457 -35.279,-22.606 -52.946,-33.771 l -103.581,-65.198 0.07,-8.023 c 0.363,-6.529 -1.038,-37.506 1.256,-40.761 5.87,-2.937 11.456,-7.044 16.892,-10.714 q 11.922,-7.93 23.54,-16.299 z"
     id="path8" />
  <path
     fill="#d27620"
     d="m 224.19951,127.6834 c 0.987,-6.734 0.257,-14.616 0.302,-21.491 6.173,5.575 14.853,9.886 21.878,14.399 19.217,12.344 38.616,24.295 58.056,36.277 q 11.508,7.114 22.849,14.49 c 3.618,2.337 7.297,5.124 11.1,7.118 -1.092,24.475 0.308,49.097 0.172,73.594 -14.348,-7.369 -27.706,-17.415 -41.376,-25.989 q -26.972,-16.63 -53.544,-33.892 c -5.853,-3.755 -11.99,-7.196 -17.719,-11.119 -0.96,-0.658 -1.502,-1.032 -1.936,-2.153 0.819,-16.942 0.172,-34.249 0.218,-51.234 z"
     id="path9" />
  <path
     fill="#f89624"
     d="m 170.71651,202.9204 c 3.774,-2.707 7.832,-5.043 11.795,-7.463 l -0.07,8.023 103.581,65.198 c 17.667,11.165 34.854,23.314 52.946,33.771 l 0.106,0.457 c -0.225,11.703 0.682,24.035 -0.447,35.647 -0.907,7.203 -0.497,14.796 -0.467,22.049 0.068,16.571 0.866,33.429 0.151,49.961 0.286,4.4 -0.399,9.206 0.517,13.47 l -0.088,0.42 c 2.067,3.749 1.145,7.863 1.278,11.976 l -0.432,0.854 c 0.775,7.964 0.417,16.243 0.432,24.253 0.014,7.4 0.353,14.974 -0.043,22.357 -10.557,-6.264 -20.793,-13.073 -31.235,-19.527 q -36.714,-22.364 -72.991,-45.432 -52.963,-32.774 -105.464,-66.286 c -0.764,-4.006 -0.384,-8.787 -0.375,-12.882 0.028,-12.047 1.086,-25.501 -0.239,-37.417 2.653,-3.951 50.877,-33.857 57.859,-38.422 0.234,-7.243 0.02,-14.546 -0.007,-21.796 -5.056,-3.778 -11.144,-6.757 -16.543,-10.085 q 0.006,-14.564 -0.264,-29.126 z"
     id="path10" />
  <path
     fill="#d27620"
     d="m 204.27351,252.6564 c 3.07,1.991 6.171,3.945 9.21,5.982 -0.009,7.381 -0.875,50.135 0.348,53.66 l 0.196,0.168 0.224,7.128 c -3.175,1.522 -6.402,3.273 -9.761,4.33 -1.395,-23.57 -0.567,-47.665 -0.217,-71.268 z"
     id="path11" />
  <path
     fill="#f8c25e"
     d="m 264.98751,290.3724 c 5.559,3.52 11.413,6.896 16.64,10.884 0.001,13.31 -0.662,27.057 0.227,40.314 0.057,9.255 -0.616,19.172 0.324,28.327 q -8.613,-5.16 -17.108,-10.512 c -0.397,-22.98 -0.068,-46.026 -0.083,-69.013 z"
     id="path12" />
  <path
     fill="#f8c25e"
     d="m 319.80551,326.4094 0.696,-0.179 c 5.806,3.933 12.956,7.651 18.126,12.323 -0.907,7.203 -0.497,14.796 -0.467,22.049 0.068,16.571 0.866,33.429 0.151,49.961 -3.394,0.041 -14.699,-9.057 -17.831,-11.33 -0.117,-10.431 1.165,-22.499 -0.401,-32.68 -0.691,-13.281 -0.028,-26.817 -0.274,-40.144 z"
     id="path13" />
  <path
     fill="#f8c25e"
     d="m 245.98851,278.6684 c 4.086,2.722 9.154,5.054 12.863,8.188 1.989,1.127 4.304,2.174 6.136,3.516 0.015,22.987 -0.314,46.033 0.083,69.013 -1.971,0.849 -3.975,1.88 -6.054,2.406 -4.655,-1.317 -10.044,-6.821 -13.823,-9.918 -0.045,-5.091 -0.916,-14.408 0.615,-19.013 0.474,-6.408 0.202,-12.998 0.201,-19.428 z"
     id="path14" />
  <path
     fill="#d27620"
     d="m 258.85151,286.8564 c 1.989,1.127 4.304,2.174 6.136,3.516 0.015,22.987 -0.314,46.033 0.083,69.013 -1.971,0.849 -3.975,1.88 -6.054,2.406 z"
     id="path15" />
  <path
     fill="#873129"
     d="m 213.48351,258.6384 c 11.031,6.319 21.79,13.193 32.505,20.03 l 0.021,34.764 c 0.001,6.43 0.273,13.02 -0.201,19.428 -10.366,-7.09 -21.208,-13.608 -31.781,-20.394 l -0.196,-0.168 c -1.223,-3.525 -0.357,-46.279 -0.348,-53.66 z"
     id="path16" />
  <path
     fill="#cc5627"
     d="m 281.89451,301.4294 c 3.999,2.258 36.224,21.79 37.505,23.775 0.23,0.356 0.271,0.804 0.406,1.205 0.246,13.327 -0.417,26.863 0.274,40.144 q -0.064,6.424 -0.006,12.848 c -8.054,-6.086 -16.77,-11.952 -25.579,-16.89 -3.599,2.375 -8.177,6.197 -12.316,7.386 -0.94,-9.155 -0.267,-19.072 -0.324,-28.327 0.539,-13.299 0.032,-26.817 0.04,-40.141 z"
     id="path17" />
  <path
     fill="#dde2d6"
     d="m 187.53051,263.9274 c 0.016,4.986 1.155,35.272 -0.883,37.715 -0.393,0.471 -1.094,0.922 -1.57,1.275 -2.015,1.655 -3.877,3.322 -5.694,5.199 l -0.147,13.833 q 79.478,51.68 159.504,102.504 c 2.067,3.749 1.145,7.863 1.278,11.976 l -0.432,0.854 c -11.013,-6.842 -22.246,-13.392 -33.141,-20.415 -25.522,-16.451 -50.608,-33.567 -76.26,-49.828 q -32.688,-20.304 -64.892,-41.369 c -11.949,-7.691 -24.029,-15.087 -35.622,-23.322 2.653,-3.951 50.877,-33.857 57.859,-38.422 z"
     id="path18" />
  <path
     fill="#f9e3a3"
     d="m 129.67151,302.3494 c 11.593,8.235 23.673,15.631 35.622,23.322 q 32.204,21.065 64.892,41.369 c 25.652,16.261 50.738,33.377 76.26,49.828 10.895,7.023 22.128,13.573 33.141,20.415 0.775,7.964 0.417,16.243 0.432,24.253 0.014,7.4 0.353,14.974 -0.043,22.357 -10.557,-6.264 -20.793,-13.073 -31.235,-19.527 q -36.714,-22.364 -72.991,-45.432 -52.963,-32.774 -105.464,-66.286 c -0.764,-4.006 -0.384,-8.787 -0.375,-12.882 0.028,-12.047 1.086,-25.501 -0.239,-37.417 z"
     id="path19" />
  <path
     fill="#f89624"
     d="m 536.39851,297.0864 c 2.487,1.614 7.014,3.822 8.39,6.37 -1.625,6.97 -1.122,42.391 -0.51,50.947 l -2.928,1.909 c 0.948,16.964 -0.16,34.077 0.499,51.071 -12.274,8.594 -25.209,16.108 -37.646,24.44 q -52.112,32.808 -103.814,66.258 l -43.411,28.026 c -5.698,3.684 -11.241,7.901 -17.066,11.339 q -48.816,-31.008 -98.05,-61.346 c -22.988,-14.479 -45.694,-30.063 -69.4,-43.33 -3.403,-2.834 -7.667,-5.127 -11.436,-7.485 -10.065,-6.299 -20.664,-12.2 -30.331,-19.064 -0.406,-17.814 0.56,-35.789 -0.41,-53.573 q 52.501,33.512 105.464,66.286 36.277,23.068 72.991,45.432 c 10.442,6.454 20.678,13.263 31.235,19.527 0.396,-7.383 0.057,-14.957 0.043,-22.357 -0.015,-8.01 0.343,-16.289 -0.432,-24.253 l 0.432,-0.854 c -0.133,-4.113 0.789,-8.227 -1.278,-11.976 l 0.088,-0.42 c 6.63,-3.449 13.033,-8.192 19.325,-12.261 l 40.512,-26.407 111.435,-71.771 c 1.125,0.02 23.384,-14.771 26.298,-16.508 z"
     id="path20" />
  <path
     fill="#f8c25e"
     d="m 536.39851,297.0864 c 2.487,1.614 7.014,3.822 8.39,6.37 -1.625,6.97 -1.122,42.391 -0.51,50.947 l -2.928,1.909 q -73.801,47.211 -148.176,93.512 -18.022,11.492 -35.915,23.185 c -5.539,3.59 -11.346,8.048 -17.284,10.884 0.396,-7.383 0.057,-14.957 0.043,-22.357 -0.015,-8.01 0.343,-16.289 -0.432,-24.253 l 0.432,-0.854 c -0.133,-4.113 0.789,-8.227 -1.278,-11.976 l 0.088,-0.42 c 6.63,-3.449 13.033,-8.192 19.325,-12.261 l 40.512,-26.407 111.435,-71.771 c 1.125,0.02 23.384,-14.771 26.298,-16.508 z"
     id="path21" />
  <path
     fill="#f9e3a3"
     d="m 536.39851,297.0864 c 2.487,1.614 7.014,3.822 8.39,6.37 -6.318,5.572 -14.785,10.098 -21.876,14.701 l -48.374,31.055 c -44.94,28.88 -89.299,58.779 -134.52,87.217 -0.133,-4.113 0.789,-8.227 -1.278,-11.976 l 0.088,-0.42 c 6.63,-3.449 13.033,-8.192 19.325,-12.261 l 40.512,-26.407 111.435,-71.771 c 1.125,0.02 23.384,-14.771 26.298,-16.508 z"
     id="path22" />
  <path
     fill="#d27620"
     d="m 456.28951,106.0234 c -0.787,7.813 -0.372,15.953 -0.26,23.804 3.09,1.286 6.035,3.436 8.888,5.185 7.602,4.66 15.148,9.842 22.983,14.065 5.897,11.257 9.594,24.41 14.435,36.221 1.872,4.567 3.743,9.566 6.638,13.588 2.465,1.097 4.458,3.009 6.944,4.189 -0.268,8.667 -0.568,17.478 0.053,26.132 -7.35,4.607 -14.94,8.872 -22.071,13.812 0.892,8.847 0.6,17.933 0.569,26.821 13.949,8.947 28.523,17.524 41.93,27.246 -2.914,1.737 -25.173,16.528 -26.298,16.508 l -111.435,71.771 -40.512,26.407 c -6.292,4.069 -12.695,8.812 -19.325,12.261 -0.916,-4.264 -0.231,-9.07 -0.517,-13.47 0.715,-16.532 -0.083,-33.39 -0.151,-49.961 -0.03,-7.253 -0.44,-14.846 0.467,-22.049 1.129,-11.612 0.222,-23.944 0.447,-35.647 l -0.106,-0.457 c 0.481,-16.313 0.334,-32.682 0.412,-49.003 l -0.824,-1.376 c 0.136,-24.497 -1.264,-49.119 -0.172,-73.594 8.475,-4.605 16.642,-10.596 24.941,-15.62 15.859,-9.601 31.785,-19.022 47.544,-28.798 15.092,-9.363 30.056,-19.13 45.42,-28.035 z"
     id="path23" />
  <path
     fill="#f89624"
     d="m 480.98051,251.5094 c 1.22,6.702 0.236,15.171 0.226,22.055 q -0.013,21.583 0.27,43.165 -5.224,-3.437 -10.77,-6.324 c -0.457,-11.137 -0.114,-22.378 -0.081,-33.527 0.497,-6.274 0.293,-12.778 0.382,-19.079 3.115,-2.358 6.626,-4.275 9.973,-6.29 z"
     id="path24" />
  <path
     fill="#f8c25e"
     d="m 413.53951,293.0284 0.014,46.773 c 0,7.894 0.603,16.353 -0.194,24.175 -4.72,-2.173 -8.656,-5.693 -13.315,-8.022 -1.375,-2.056 -0.414,-47.981 -0.335,-53.766 4.113,-3.416 9.371,-6.168 13.83,-9.16 z"
     id="path25" />
  <path
     fill="#dde2d6"
     d="m 494.46851,269.8404 c 13.949,8.947 28.523,17.524 41.93,27.246 -2.914,1.737 -25.173,16.528 -26.298,16.508 -4.33,-2.078 -8.511,-4.769 -12.682,-7.163 -0.718,-0.491 -1.465,-0.929 -2.208,-1.381 -1.678,-6.53 -0.724,-27.402 -0.742,-35.21 z"
     id="path26" />
  <path
     fill="#873129"
     d="m 356.58451,328.4584 c 9.744,-6.237 19.501,-12.777 29.601,-18.419 -0.008,10.756 -0.288,21.587 0.171,32.332 l -0.022,21.863 c -10.149,4.395 -20.7,12.247 -29.887,18.503 z"
     id="path27" />
  <path
     fill="#873129"
     d="m 470.69751,257.8824 q -0.308,9.497 -0.072,18.996 c -0.033,11.149 -0.376,22.39 0.081,33.527 -1.24,2.589 -32.465,21.609 -37.347,25.489 -0.213,-16.605 0.083,-33.228 -0.028,-49.836 l -0.079,-3.863 c 0.17,-0.768 0.297,-1.096 0.92,-1.632 3.348,-2.884 7.983,-5.179 11.758,-7.483 q 12.452,-7.487 24.767,-15.198 z"
     id="path28" />
  <path
     fill="#4d7c28"
     d="m 487.90051,149.0774 c 5.897,11.257 9.594,24.41 14.435,36.221 1.872,4.567 3.743,9.566 6.638,13.588 -6.721,4.164 -13.731,7.85 -20.508,11.93 l -57.094,34.849 -51.036,31.781 c -5.806,3.655 -37.42,24.659 -41.261,25.46 l -0.106,-0.457 c 0.481,-16.313 0.334,-32.682 0.412,-49.003 7.392,-2.978 18.125,-10.943 25.475,-15.239 q 45.625,-27.145 90.783,-55.059 c -0.105,-4.574 -0.165,-9.097 0.062,-13.67 q 16.272,-9.929 32.2,-20.401 z"
     id="path29" />
  <path
     fill="#cc5627"
     d="m 456.28951,106.0234 c -0.787,7.813 -0.372,15.953 -0.26,23.804 3.09,1.286 6.035,3.436 8.888,5.185 7.602,4.66 15.148,9.842 22.983,14.065 q -15.928,10.472 -32.2,20.401 c -0.227,4.573 -0.167,9.096 -0.062,13.67 q -45.158,27.914 -90.783,55.059 c -7.35,4.296 -18.083,12.261 -25.475,15.239 l -0.824,-1.376 c 0.136,-24.497 -1.264,-49.119 -0.172,-73.594 8.475,-4.605 16.642,-10.596 24.941,-15.62 15.859,-9.601 31.785,-19.022 47.544,-28.798 15.092,-9.363 30.056,-19.13 45.42,-28.035 z"
     id="path30" />
  <path
     fill="#96b006"
     d="m 456.02951,129.8274 c 3.09,1.286 6.035,3.436 8.888,5.185 7.602,4.66 15.148,9.842 22.983,14.065 q -15.928,10.472 -32.2,20.401 -0.012,-19.828 0.329,-39.651 z"
     id="path31" />
  <path
     fill="#cc5627"
     d="m 339.91251,537.4464 c 5.825,-3.438 11.368,-7.655 17.066,-11.339 l 43.411,-28.026 q 51.702,-33.449 103.814,-66.258 l -0.003,77.875 c -0.008,4.738 0.891,19.595 -0.115,23.419 -0.279,16.625 -0.517,33.467 -0.039,50.084 -17.523,10.875 -34.88,22.419 -52.718,32.735 -22.023,14.712 -45.014,28.028 -67.04,42.761 -14.233,9.824 -29.854,18.032 -43.664,28.393 l -0.356,0.252 c -6.68,-3.433 -13.12,-8.02 -19.559,-11.924 -10.379,-6.294 -20.988,-12.321 -31.093,-19.048 -0.195,-0.099 -0.392,-0.193 -0.584,-0.297 -13.771,-7.449 -27.059,-16.772 -40.314,-25.125 -7.271,-4.583 -20.781,-12.161 -26.939,-17.376 -0.624,-0.528 -0.875,-1.046 -1.107,-1.812 -1.981,0.16 -3.777,0.681 -5.448,-0.491 -7.627,-5.679 -16.145,-10.572 -24.187,-15.656 -6.054,-3.827 -12.415,-8.572 -18.932,-11.45 -0.169,-6.344 -0.008,-12.726 0.021,-19.074 1.702,-7.84 0.114,-29.744 0.036,-39.261 -0.252,-30.926 -0.58,-62.148 0.3,-93.058 23.706,13.267 46.412,28.851 69.4,43.33 q 49.234,30.338 98.05,61.346 z"
     id="path32" />
  <path
     fill="#873129"
     d="m 215.22451,611.2694 0.21,-59.992 c 0.007,-10.286 -1.025,-21.897 0.629,-32.022 0.651,-3.983 2.051,-7.507 4.596,-10.672 3.599,-4.478 8.828,-7.474 14.591,-7.9 3.097,-0.228 9.046,-0.369 11.46,1.732 -6.376,-0.423 -12.284,-0.118 -17.421,4.257 -5.878,5.004 -7.82,12.794 -8.283,20.183 -0.481,7.674 -0.173,15.51 -0.16,23.198 l 0.078,40.65 c 0.011,6.25 0.935,15.153 -0.252,21.057 -1.981,0.16 -3.777,0.681 -5.448,-0.491 z"
     id="path33" />
  <path
     fill="#d27620"
     d="m 384.28851,658.6974 c -0.563,-16.943 -0.04,-34.059 -0.093,-51.023 -0.043,-13.315 -1.436,-34.403 1.213,-46.941 2.488,-11.78 8.156,-23.479 15.661,-32.876 6.566,-8.222 16.39,-16.232 27.251,-17.248 4.632,-0.433 10.894,0.961 14.484,4.121 3.916,3.448 6.566,9.041 7.59,14.115 1.65,8.184 0.752,17.585 0.72,25.936 l -0.06,37.53 c -0.005,7.626 -0.263,15.371 0.228,22.978 l 0.046,0.647 c -22.023,14.712 -45.014,28.028 -67.04,42.761 z"
     id="path34" />
  <path
     fill="#f8c25e"
     d="m 220.67251,611.7604 c 1.187,-5.904 0.263,-14.807 0.252,-21.057 l -0.078,-40.65 c -0.013,-7.688 -0.321,-15.524 0.16,-23.198 0.463,-7.389 2.405,-15.179 8.283,-20.183 5.137,-4.375 11.045,-4.68 17.421,-4.257 16.622,5.641 26.678,18.915 34.275,34.255 3.793,7.66 6.977,16.206 8.195,24.702 1.521,10.609 0.53,22.395 0.549,33.142 0.037,20.599 0.351,41.266 -0.113,61.856 -0.195,-0.099 -0.392,-0.193 -0.584,-0.297 -13.771,-7.449 -27.059,-16.772 -40.314,-25.125 -7.271,-4.583 -20.781,-12.161 -26.939,-17.376 -0.624,-0.528 -0.875,-1.046 -1.107,-1.812 z"
     id="path35" />
  <path
     fill="#f9e3a3"
     d="m 127.98851,561.1934 c 7.649,4.343 37.805,22.345 44.117,22.97 6.517,2.878 12.878,7.623 18.932,11.45 8.042,5.084 16.56,9.977 24.187,15.656 1.671,1.172 3.467,0.651 5.448,0.491 0.232,0.766 0.483,1.284 1.107,1.812 6.158,5.215 19.668,12.793 26.939,17.376 13.255,8.353 26.543,17.676 40.314,25.125 0.192,0.104 0.389,0.198 0.584,0.297 10.105,6.727 20.714,12.754 31.093,19.048 6.439,3.904 12.879,8.491 19.559,11.924 0.874,8.804 0.24,18.21 0.238,27.076 -10e-4,8.992 0.575,18.46 -0.171,27.403 -35.675,-21.037 -70.39,-43.713 -105.66,-65.42 q -38.486,-23.247 -76.683,-46.965 c -10.488,-6.405 -21.146,-12.536 -31.512,-19.14 -1.028,-12.054 -0.138,-24.928 -0.025,-37.05 0,-2.953 -0.201,-6.04 -0.009,-8.979 0.107,-1.645 0.287,-2.028 1.542,-3.074 z"
     id="path38" />
  <path
     fill="#f8c25e"
     d="m 504.49151,533.1504 c 5.196,1.069 34.26,20.265 41.025,24.567 1.309,0.705 2.125,0.863 2.671,2.369 1.195,3.301 0.02,8.422 0.168,11.984 l 0.01,17.175 c -0.142,8.049 0.056,16.153 -0.235,24.188 l -162.787,101.229 c -10.045,6.133 -19.971,12.501 -29.919,18.792 -4.547,2.876 -9.694,6.934 -14.67,8.847 l -0.419,-0.48 c 0.746,-8.943 0.17,-18.411 0.171,-27.403 0.002,-8.866 0.636,-18.272 -0.238,-27.076 l 0.356,-0.252 c 13.81,-10.361 29.431,-18.569 43.664,-28.393 22.026,-14.733 45.017,-28.049 67.04,-42.761 17.838,-10.316 35.195,-21.86 52.718,-32.735 -0.478,-16.617 -0.24,-33.459 0.039,-50.084 z"
     id="path39" />
  <path
     fill="#dde2d6"
     d="m 504.49151,533.1504 c 5.196,1.069 34.26,20.265 41.025,24.567 -4.961,5.015 -33.665,21.364 -40.984,25.375 -0.536,-16.606 -0.097,-33.324 -0.041,-49.942 z"
     id="path40" />
  <rect
     style="fill:#96b006;stroke-width:4.43049;stroke-linecap:round"
     id="rect40"
     width="377.15701"
     height="377.15701"
     x="-679.75336"
     y="679.75336"
     transform="matrix(0.89442719,-0.4472136,0.89442719,0.4472136,0,0)" />
  <path
     fill="#dde2d6"
     d="m 127.98851,561.1934 q 22.315,-13.395 44.093,-27.644 c 0.06,10.457 -0.425,21.105 0.045,31.54 -0.029,6.348 -0.19,12.73 -0.021,19.074 -6.312,-0.625 -36.468,-18.627 -44.117,-22.97 z"
     id="path41" />
  <path
     fill="#f9e3a3"
     d="m 337.83451,0 c 4.478,2.1375 9.206,6.1247 13.435,8.857 11.098,7.1703 22.612,14.001 33.329,21.7233 0.972,0.7008 1.911,1.3662 2.5,2.4324 -6.692,6.1651 -18.129,12.3174 -26.093,17.4289 -7.487,4.8059 -15.2,10.5918 -23.14,14.5108 l -0.465,-0.059 c -5.226,-2.292 -13.32,-8.8988 -18.487,-12.2675 -8.165,-5.3231 -23.498,-13.6788 -30.064,-19.5032 1.076,-3.1884 43.037,-29.686 48.985,-33.1227 z"
     id="path42" />
  <path
     fill="#f8c25e"
     d="m 288.84951,33.1227 c 6.566,5.8244 21.899,14.1801 30.064,19.5032 5.167,3.3687 13.261,9.9755 18.487,12.2675 l 0.465,0.059 c -1.4,5.134 -0.356,15.684 -0.322,21.496 0.093,16.154 0.324,32.318 0.241,48.472 l -0.099,0.841 c -6.046,-2.148 -15.53,-10.145 -21.501,-13.998 q -22.423,-14.315 -45.269,-27.945 c 2.373,-11.984 6.632,-23.848 10.227,-35.517 3.028,-6.6201 6.599,-18.0562 7.707,-25.1787 z"
     id="path43" />
  <path
     fill="#f89624"
     d="m 395.68051,58.3284 c 6.485,2.965 12.595,6.994 18.681,10.701 15.448,9.408 34.168,19.76 41.928,36.994 -15.364,8.905 -30.328,18.672 -45.42,28.035 -15.759,9.776 -31.685,19.197 -47.544,28.798 -8.299,5.024 -16.466,11.015 -24.941,15.62 -3.803,-1.994 -7.482,-4.781 -11.1,-7.118 q -11.341,-7.376 -22.849,-14.49 c -19.44,-11.982 -38.839,-23.933 -58.056,-36.277 -7.025,-4.513 -15.705,-8.824 -21.878,-14.399 3.343,-5.446 6.869,-11.519 11.228,-16.189 6.565,-7.032 15.944,-12.131 23.938,-17.454 7.145,-4.759 14.19,-9.706 21.475,-14.248 -3.595,11.669 -7.854,23.533 -10.227,35.517 q 22.846,13.63 45.269,27.945 c 5.971,3.853 15.455,11.85 21.501,13.998 l 0.099,-0.841 c 10.39,-6.708 21.33,-12.769 31.994,-19.04 12.14,-7.139 24.227,-14.596 36.772,-20.999 q -2.957,-10.824 -6.35,-21.52 c -1.553,-4.895 -3.598,-9.99 -4.52,-15.033 z"
     id="path44" />
  <path
     fill="#96b006"
     d="m 224.19951,127.6834 c 0.987,-6.734 0.257,-14.616 0.302,-21.491 6.173,5.575 14.853,9.886 21.878,14.399 19.217,12.344 38.616,24.295 58.056,36.277 q 11.508,7.114 22.849,14.49 c 3.618,2.337 7.297,5.124 11.1,7.118 -1.092,24.475 0.308,49.097 0.172,73.594 l 0.824,1.376 c -0.078,16.321 0.069,32.69 -0.412,49.003 -18.092,-10.457 -35.279,-22.606 -52.946,-33.771 l -103.581,-65.198 0.07,-8.023 c 0.363,-6.529 -1.038,-37.506 1.256,-40.761 5.87,-2.937 11.456,-7.044 16.892,-10.714 q 11.922,-7.93 23.54,-16.299 z"
     id="path45" />
  <path
     fill="#d27620"
     d="m 224.19951,127.6834 c 0.987,-6.734 0.257,-14.616 0.302,-21.491 6.173,5.575 14.853,9.886 21.878,14.399 19.217,12.344 38.616,24.295 58.056,36.277 q 11.508,7.114 22.849,14.49 c 3.618,2.337 7.297,5.124 11.1,7.118 -1.092,24.475 0.308,49.097 0.172,73.594 -14.348,-7.369 -27.706,-17.415 -41.376,-25.989 q -26.972,-16.63 -53.544,-33.892 c -5.853,-3.755 -11.99,-7.196 -17.719,-11.119 -0.96,-0.658 -1.502,-1.032 -1.936,-2.153 0.819,-16.942 0.172,-34.249 0.218,-51.234 z"
     id="path46" />
  <path
     fill="#f89624"
     d="m 170.71651,202.9204 c 3.774,-2.707 7.832,-5.043 11.795,-7.463 l -0.07,8.023 103.581,65.198 c 17.667,11.165 34.854,23.314 52.946,33.771 l 0.106,0.457 c -0.225,11.703 0.682,24.035 -0.447,35.647 -0.907,7.203 -0.497,14.796 -0.467,22.049 0.068,16.571 0.866,33.429 0.151,49.961 0.286,4.4 -0.399,9.206 0.517,13.47 l -0.088,0.42 c 2.067,3.749 1.145,7.863 1.278,11.976 l -0.432,0.854 c 0.775,7.964 0.417,16.243 0.432,24.253 0.014,7.4 0.353,14.974 -0.043,22.357 -10.557,-6.264 -20.793,-13.073 -31.235,-19.527 q -36.714,-22.364 -72.991,-45.432 -52.963,-32.774 -105.464,-66.286 c -0.764,-4.006 -0.384,-8.787 -0.375,-12.882 0.028,-12.047 1.086,-25.501 -0.239,-37.417 2.653,-3.951 50.877,-33.857 57.859,-38.422 0.234,-7.243 0.02,-14.546 -0.007,-21.796 -5.056,-3.778 -11.144,-6.757 -16.543,-10.085 q 0.006,-14.564 -0.264,-29.126 z"
     id="path47" />
  <path
     fill="#d27620"
     d="m 204.27351,252.6564 c 3.07,1.991 6.171,3.945 9.21,5.982 -0.009,7.381 -0.875,50.135 0.348,53.66 l 0.196,0.168 0.224,7.128 c -3.175,1.522 -6.402,3.273 -9.761,4.33 -1.395,-23.57 -0.567,-47.665 -0.217,-71.268 z"
     id="path48" />
  <path
     fill="#f8c25e"
     d="m 264.98751,290.3724 c 5.559,3.52 11.413,6.896 16.64,10.884 0.001,13.31 -0.662,27.057 0.227,40.314 0.057,9.255 -0.616,19.172 0.324,28.327 q -8.613,-5.16 -17.108,-10.512 c -0.397,-22.98 -0.068,-46.026 -0.083,-69.013 z"
     id="path49" />
  <path
     fill="#f8c25e"
     d="m 319.80551,326.4094 0.696,-0.179 c 5.806,3.933 12.956,7.651 18.126,12.323 -0.907,7.203 -0.497,14.796 -0.467,22.049 0.068,16.571 0.866,33.429 0.151,49.961 -3.394,0.041 -14.699,-9.057 -17.831,-11.33 -0.117,-10.431 1.165,-22.499 -0.401,-32.68 -0.691,-13.281 -0.028,-26.817 -0.274,-40.144 z"
     id="path50" />
  <path
     fill="#f8c25e"
     d="m 245.98851,278.6684 c 4.086,2.722 9.154,5.054 12.863,8.188 1.989,1.127 4.304,2.174 6.136,3.516 0.015,22.987 -0.314,46.033 0.083,69.013 -1.971,0.849 -3.975,1.88 -6.054,2.406 -4.655,-1.317 -10.044,-6.821 -13.823,-9.918 -0.045,-5.091 -0.916,-14.408 0.615,-19.013 0.474,-6.408 0.202,-12.998 0.201,-19.428 z"
     id="path51" />
  <path
     fill="#d27620"
     d="m 258.85151,286.8564 c 1.989,1.127 4.304,2.174 6.136,3.516 0.015,22.987 -0.314,46.033 0.083,69.013 -1.971,0.849 -3.975,1.88 -6.054,2.406 z"
     id="path52" />
  <path
     fill="#873129"
     d="m 213.48351,258.6384 c 11.031,6.319 21.79,13.193 32.505,20.03 l 0.021,34.764 c 0.001,6.43 0.273,13.02 -0.201,19.428 -10.366,-7.09 -21.208,-13.608 -31.781,-20.394 l -0.196,-0.168 c -1.223,-3.525 -0.357,-46.279 -0.348,-53.66 z"
     id="path53" />
  <path
     fill="#cc5627"
     d="m 281.89451,301.4294 c 3.999,2.258 36.224,21.79 37.505,23.775 0.23,0.356 0.271,0.804 0.406,1.205 0.246,13.327 -0.417,26.863 0.274,40.144 q -0.064,6.424 -0.006,12.848 c -8.054,-6.086 -16.77,-11.952 -25.579,-16.89 -3.599,2.375 -8.177,6.197 -12.316,7.386 -0.94,-9.155 -0.267,-19.072 -0.324,-28.327 0.539,-13.299 0.032,-26.817 0.04,-40.141 z"
     id="path54" />
  <path
     fill="#dde2d6"
     d="m 187.53051,263.9274 c 0.016,4.986 1.155,35.272 -0.883,37.715 -0.393,0.471 -1.094,0.922 -1.57,1.275 -2.015,1.655 -3.877,3.322 -5.694,5.199 l -0.147,13.833 q 79.478,51.68 159.504,102.504 c 2.067,3.749 1.145,7.863 1.278,11.976 l -0.432,0.854 c -11.013,-6.842 -22.246,-13.392 -33.141,-20.415 -25.522,-16.451 -50.608,-33.567 -76.26,-49.828 q -32.688,-20.304 -64.892,-41.369 c -11.949,-7.691 -24.029,-15.087 -35.622,-23.322 2.653,-3.951 50.877,-33.857 57.859,-38.422 z"
     id="path55" />
  <path
     fill="#f9e3a3"
     d="m 129.67151,302.3494 c 11.593,8.235 23.673,15.631 35.622,23.322 q 32.204,21.065 64.892,41.369 c 25.652,16.261 50.738,33.377 76.26,49.828 10.895,7.023 22.128,13.573 33.141,20.415 0.775,7.964 0.417,16.243 0.432,24.253 0.014,7.4 0.353,14.974 -0.043,22.357 -10.557,-6.264 -20.793,-13.073 -31.235,-19.527 q -36.714,-22.364 -72.991,-45.432 -52.963,-32.774 -105.464,-66.286 c -0.764,-4.006 -0.384,-8.787 -0.375,-12.882 0.028,-12.047 1.086,-25.501 -0.239,-37.417 z"
     id="path56" />
  <path
     fill="#f89624"
     d="m 536.39851,297.0864 c 2.487,1.614 7.014,3.822 8.39,6.37 -1.625,6.97 -1.122,42.391 -0.51,50.947 l -2.928,1.909 c 0.948,16.964 -0.16,34.077 0.499,51.071 -12.274,8.594 -25.209,16.108 -37.646,24.44 q -52.112,32.808 -103.814,66.258 l -43.411,28.026 c -5.698,3.684 -11.241,7.901 -17.066,11.339 q -48.816,-31.008 -98.05,-61.346 c -22.988,-14.479 -45.694,-30.063 -69.4,-43.33 -3.403,-2.834 -7.667,-5.127 -11.436,-7.485 -10.065,-6.299 -20.664,-12.2 -30.331,-19.064 -0.406,-17.814 0.56,-35.789 -0.41,-53.573 q 52.501,33.512 105.464,66.286 36.277,23.068 72.991,45.432 c 10.442,6.454 20.678,13.263 31.235,19.527 0.396,-7.383 0.057,-14.957 0.043,-22.357 -0.015,-8.01 0.343,-16.289 -0.432,-24.253 l 0.432,-0.854 c -0.133,-4.113 0.789,-8.227 -1.278,-11.976 l 0.088,-0.42 c 6.63,-3.449 13.033,-8.192 19.325,-12.261 l 40.512,-26.407 111.435,-71.771 c 1.125,0.02 23.384,-14.771 26.298,-16.508 z"
     id="path57" />
  <path
     fill="#f8c25e"
     d="m 536.39851,297.0864 c 2.487,1.614 7.014,3.822 8.39,6.37 -1.625,6.97 -1.122,42.391 -0.51,50.947 l -2.928,1.909 q -73.801,47.211 -148.176,93.512 -18.022,11.492 -35.915,23.185 c -5.539,3.59 -11.346,8.048 -17.284,10.884 0.396,-7.383 0.057,-14.957 0.043,-22.357 -0.015,-8.01 0.343,-16.289 -0.432,-24.253 l 0.432,-0.854 c -0.133,-4.113 0.789,-8.227 -1.278,-11.976 l 0.088,-0.42 c 6.63,-3.449 13.033,-8.192 19.325,-12.261 l 40.512,-26.407 111.435,-71.771 c 1.125,0.02 23.384,-14.771 26.298,-16.508 z"
     id="path58" />
  <path
     fill="#f9e3a3"
     d="m 536.39851,297.0864 c 2.487,1.614 7.014,3.822 8.39,6.37 -6.318,5.572 -14.785,10.098 -21.876,14.701 l -48.374,31.055 c -44.94,28.88 -89.299,58.779 -134.52,87.217 -0.133,-4.113 0.789,-8.227 -1.278,-11.976 l 0.088,-0.42 c 6.63,-3.449 13.033,-8.192 19.325,-12.261 l 40.512,-26.407 111.435,-71.771 c 1.125,0.02 23.384,-14.771 26.298,-16.508 z"
     id="path59" />
  <path
     fill="#d27620"
     d="m 456.28951,106.0234 c -0.787,7.813 -0.372,15.953 -0.26,23.804 3.09,1.286 6.035,3.436 8.888,5.185 7.602,4.66 15.148,9.842 22.983,14.065 5.897,11.257 9.594,24.41 14.435,36.221 1.872,4.567 3.743,9.566 6.638,13.588 2.465,1.097 4.458,3.009 6.944,4.189 -0.268,8.667 -0.568,17.478 0.053,26.132 -7.35,4.607 -14.94,8.872 -22.071,13.812 0.892,8.847 0.6,17.933 0.569,26.821 13.949,8.947 28.523,17.524 41.93,27.246 -2.914,1.737 -25.173,16.528 -26.298,16.508 l -111.435,71.771 -40.512,26.407 c -6.292,4.069 -12.695,8.812 -19.325,12.261 -0.916,-4.264 -0.231,-9.07 -0.517,-13.47 0.715,-16.532 -0.083,-33.39 -0.151,-49.961 -0.03,-7.253 -0.44,-14.846 0.467,-22.049 1.129,-11.612 0.222,-23.944 0.447,-35.647 l -0.106,-0.457 c 0.481,-16.313 0.334,-32.682 0.412,-49.003 l -0.824,-1.376 c 0.136,-24.497 -1.264,-49.119 -0.172,-73.594 8.475,-4.605 16.642,-10.596 24.941,-15.62 15.859,-9.601 31.785,-19.022 47.544,-28.798 15.092,-9.363 30.056,-19.13 45.42,-28.035 z"
     id="path60" />
  <path
     fill="#f89624"
     d="m 480.98051,251.5094 c 1.22,6.702 0.236,15.171 0.226,22.055 q -0.013,21.583 0.27,43.165 -5.224,-3.437 -10.77,-6.324 c -0.457,-11.137 -0.114,-22.378 -0.081,-33.527 0.497,-6.274 0.293,-12.778 0.382,-19.079 3.115,-2.358 6.626,-4.275 9.973,-6.29 z"
     id="path61" />
  <path
     fill="#f8c25e"
     d="m 413.53951,293.0284 0.014,46.773 c 0,7.894 0.603,16.353 -0.194,24.175 -4.72,-2.173 -8.656,-5.693 -13.315,-8.022 -1.375,-2.056 -0.414,-47.981 -0.335,-53.766 4.113,-3.416 9.371,-6.168 13.83,-9.16 z"
     id="path62" />
  <path
     fill="#dde2d6"
     d="m 494.46851,269.8404 c 13.949,8.947 28.523,17.524 41.93,27.246 -2.914,1.737 -25.173,16.528 -26.298,16.508 -4.33,-2.078 -8.511,-4.769 -12.682,-7.163 -0.718,-0.491 -1.465,-0.929 -2.208,-1.381 -1.678,-6.53 -0.724,-27.402 -0.742,-35.21 z"
     id="path63" />
  <path
     fill="#873129"
     d="m 356.58451,328.4584 c 9.744,-6.237 19.501,-12.777 29.601,-18.419 -0.008,10.756 -0.288,21.587 0.171,32.332 l -0.022,21.863 c -10.149,4.395 -20.7,12.247 -29.887,18.503 z"
     id="path64" />
  <path
     fill="#873129"
     d="m 470.69751,257.8824 q -0.308,9.497 -0.072,18.996 c -0.033,11.149 -0.376,22.39 0.081,33.527 -1.24,2.589 -32.465,21.609 -37.347,25.489 -0.213,-16.605 0.083,-33.228 -0.028,-49.836 l -0.079,-3.863 c 0.17,-0.768 0.297,-1.096 0.92,-1.632 3.348,-2.884 7.983,-5.179 11.758,-7.483 q 12.452,-7.487 24.767,-15.198 z"
     id="path65" />
  <path
     fill="#4d7c28"
     d="m 487.90051,149.0774 c 5.897,11.257 9.594,24.41 14.435,36.221 1.872,4.567 3.743,9.566 6.638,13.588 -6.721,4.164 -13.731,7.85 -20.508,11.93 l -57.094,34.849 -51.036,31.781 c -5.806,3.655 -37.42,24.659 -41.261,25.46 l -0.106,-0.457 c 0.481,-16.313 0.334,-32.682 0.412,-49.003 7.392,-2.978 18.125,-10.943 25.475,-15.239 q 45.625,-27.145 90.783,-55.059 c -0.105,-4.574 -0.165,-9.097 0.062,-13.67 q 16.272,-9.929 32.2,-20.401 z"
     id="path66" />
  <path
     fill="#cc5627"
     d="m 456.28951,106.0234 c -0.787,7.813 -0.372,15.953 -0.26,23.804 3.09,1.286 6.035,3.436 8.888,5.185 7.602,4.66 15.148,9.842 22.983,14.065 q -15.928,10.472 -32.2,20.401 c -0.227,4.573 -0.167,9.096 -0.062,13.67 q -45.158,27.914 -90.783,55.059 c -7.35,4.296 -18.083,12.261 -25.475,15.239 l -0.824,-1.376 c 0.136,-24.497 -1.264,-49.119 -0.172,-73.594 8.475,-4.605 16.642,-10.596 24.941,-15.62 15.859,-9.601 31.785,-19.022 47.544,-28.798 15.092,-9.363 30.056,-19.13 45.42,-28.035 z"
     id="path67" />
  <path
     fill="#96b006"
     d="m 456.02951,129.8274 c 3.09,1.286 6.035,3.436 8.888,5.185 7.602,4.66 15.148,9.842 22.983,14.065 q -15.928,10.472 -32.2,20.401 -0.012,-19.828 0.329,-39.651 z"
     id="path68" />
  <path
     fill="#cc5627"
     d="m 339.91251,537.4464 c 5.825,-3.438 11.368,-7.655 17.066,-11.339 l 43.411,-28.026 q 51.702,-33.449 103.814,-66.258 l -0.003,77.875 c -0.008,4.738 0.891,19.595 -0.115,23.419 -0.279,16.625 -0.517,33.467 -0.039,50.084 -17.523,10.875 -34.88,22.419 -52.718,32.735 -22.023,14.712 -45.014,28.028 -67.04,42.761 -14.233,9.824 -29.854,18.032 -43.664,28.393 l -0.356,0.252 c -6.68,-3.433 -13.12,-8.02 -19.559,-11.924 -10.379,-6.294 -20.988,-12.321 -31.093,-19.048 -0.195,-0.099 -0.392,-0.193 -0.584,-0.297 -13.771,-7.449 -27.059,-16.772 -40.314,-25.125 -7.271,-4.583 -20.781,-12.161 -26.939,-17.376 -0.624,-0.528 -0.875,-1.046 -1.107,-1.812 -1.981,0.16 -3.777,0.681 -5.448,-0.491 -7.627,-5.679 -16.145,-10.572 -24.187,-15.656 -6.054,-3.827 -12.415,-8.572 -18.932,-11.45 -0.169,-6.344 -0.008,-12.726 0.021,-19.074 1.702,-7.84 0.114,-29.744 0.036,-39.261 -0.252,-30.926 -0.58,-62.148 0.3,-93.058 23.706,13.267 46.412,28.851 69.4,43.33 q 49.234,30.338 98.05,61.346 z"
     id="path69" />
  <path
     fill="#873129"
     d="m 215.22451,611.2694 0.21,-59.992 c 0.007,-10.286 -1.025,-21.897 0.629,-32.022 0.651,-3.983 2.051,-7.507 4.596,-10.672 3.599,-4.478 8.828,-7.474 14.591,-7.9 3.097,-0.228 9.046,-0.369 11.46,1.732 -6.376,-0.423 -12.284,-0.118 -17.421,4.257 -5.878,5.004 -7.82,12.794 -8.283,20.183 -0.481,7.674 -0.173,15.51 -0.16,23.198 l 0.078,40.65 c 0.011,6.25 0.935,15.153 -0.252,21.057 -1.981,0.16 -3.777,0.681 -5.448,-0.491 z"
     id="path70" />
  <path
     fill="#d27620"
     d="m 384.28851,658.6974 c -0.563,-16.943 -0.04,-34.059 -0.093,-51.023 -0.043,-13.315 -1.436,-34.403 1.213,-46.941 2.488,-11.78 8.156,-23.479 15.661,-32.876 6.566,-8.222 16.39,-16.232 27.251,-17.248 4.632,-0.433 10.894,0.961 14.484,4.121 3.916,3.448 6.566,9.041 7.59,14.115 1.65,8.184 0.752,17.585 0.72,25.936 l -0.06,37.53 c -0.005,7.626 -0.263,15.371 0.228,22.978 l 0.046,0.647 c -22.023,14.712 -45.014,28.028 -67.04,42.761 z"
     id="path71" />
  <path
     fill="#f8c25e"
     d="m 220.67251,611.7604 c 1.187,-5.904 0.263,-14.807 0.252,-21.057 l -0.078,-40.65 c -0.013,-7.688 -0.321,-15.524 0.16,-23.198 0.463,-7.389 2.405,-15.179 8.283,-20.183 5.137,-4.375 11.045,-4.68 17.421,-4.257 16.622,5.641 26.678,18.915 34.275,34.255 3.793,7.66 6.977,16.206 8.195,24.702 1.521,10.609 0.53,22.395 0.549,33.142 0.037,20.599 0.351,41.266 -0.113,61.856 -0.195,-0.099 -0.392,-0.193 -0.584,-0.297 -13.771,-7.449 -27.059,-16.772 -40.314,-25.125 -7.271,-4.583 -20.781,-12.161 -26.939,-17.376 -0.624,-0.528 -0.875,-1.046 -1.107,-1.812 z"
     id="path72" />
  <path
     fill="#f9e3a3"
     d="m 127.98851,561.1934 c 7.649,4.343 37.805,22.345 44.117,22.97 6.517,2.878 12.878,7.623 18.932,11.45 8.042,5.084 16.56,9.977 24.187,15.656 1.671,1.172 3.467,0.651 5.448,0.491 0.232,0.766 0.483,1.284 1.107,1.812 6.158,5.215 19.668,12.793 26.939,17.376 13.255,8.353 26.543,17.676 40.314,25.125 0.192,0.104 0.389,0.198 0.584,0.297 10.105,6.727 20.714,12.754 31.093,19.048 6.439,3.904 12.879,8.491 19.559,11.924 0.874,8.804 0.24,18.21 0.238,27.076 -10e-4,8.992 0.575,18.46 -0.171,27.403 -35.675,-21.037 -70.39,-43.713 -105.66,-65.42 q -38.486,-23.247 -76.683,-46.965 c -10.488,-6.405 -21.146,-12.536 -31.512,-19.14 -1.028,-12.054 -0.138,-24.928 -0.025,-37.05 0,-2.953 -0.201,-6.04 -0.009,-8.979 0.107,-1.645 0.287,-2.028 1.542,-3.074 z"
     id="path73" />
  <path
     fill="#f8c25e"
     d="m 504.49151,533.1504 c 5.196,1.069 34.26,20.265 41.025,24.567 1.309,0.705 2.125,0.863 2.671,2.369 1.195,3.301 0.02,8.422 0.168,11.984 l 0.01,17.175 c -0.142,8.049 0.056,16.153 -0.235,24.188 l -162.787,101.229 c -10.045,6.133 -19.971,12.501 -29.919,18.792 -4.547,2.876 -9.694,6.934 -14.67,8.847 l -0.419,-0.48 c 0.746,-8.943 0.17,-18.411 0.171,-27.403 0.002,-8.866 0.636,-18.272 -0.238,-27.076 l 0.356,-0.252 c 13.81,-10.361 29.431,-18.569 43.664,-28.393 22.026,-14.733 45.017,-28.049 67.04,-42.761 17.838,-10.316 35.195,-21.86 52.718,-32.735 -0.478,-16.617 -0.24,-33.459 0.039,-50.084 z"
     id="path74" />
  <path
     fill="#dde2d6"
     d="m 504.49151,533.1504 c 5.196,1.069 34.26,20.265 41.025,24.567 -4.961,5.015 -33.665,21.364 -40.984,25.375 -0.536,-16.606 -0.097,-33.324 -0.041,-49.942 z"
     id="path75" />
</svg>
