<?xml version="1.0" encoding="UTF-8" standalone="no"?>
<svg
   width="942.35193"
   height="1054.7515"
   version="1.1"
   id="svg40"
   sodipodi:docname="tower.svg"
   inkscape:version="1.3.2 (091e20ef0f, 2023-11-25)"
   xmlns:inkscape="http://www.inkscape.org/namespaces/inkscape"
   xmlns:sodipodi="http://sodipodi.sourceforge.net/DTD/sodipodi-0.dtd"
   xmlns="http://www.w3.org/2000/svg"
   xmlns:svg="http://www.w3.org/2000/svg">
  <defs
     id="defs40" />
  <sodipodi:namedview
     id="namedview40"
     pagecolor="#ffffff"
     bordercolor="#000000"
     borderopacity="0.25"
     inkscape:showpageshadow="2"
     inkscape:pageopacity="0.0"
     inkscape:pagecheckerboard="0"
     inkscape:deskcolor="#d1d1d1"
     inkscape:zoom="0.4296875"
     inkscape:cx="323.49091"
     inkscape:cy="548.07273"
     inkscape:window-width="1440"
     inkscape:window-height="831"
     inkscape:window-x="0"
     inkscape:window-y="0"
     inkscape:window-maximized="1"
     inkscape:current-layer="svg40" />
  <path
     fill="#dde2d6"
     d="m 291.15828,780.57227 q 22.25488,-13.35891 43.9742,-27.56951 c 0.0598,10.42882 -0.42385,21.04813 0.0449,31.45502 -0.0289,6.33089 -0.18949,12.6957 -0.0209,19.0226 -6.29499,-0.62331 -36.36974,-18.57681 -43.99814,-22.90811 z"
     id="path2"
     style="stroke-width:0.997306" />
  <path
     fill="#f9e3a3"
     d="m 500.43889,220.89091 c 4.46594,2.13174 9.1812,6.1082 13.3988,8.83314 11.0681,7.15098 22.55108,13.96327 33.2392,21.66477 0.96939,0.69891 1.90586,1.36252 2.49327,2.42584 -6.67397,6.14849 -18.08016,12.28422 -26.0227,17.38194 -7.46683,4.79296 -15.15904,10.56327 -23.07765,14.47171 l -0.46375,-0.0588 c -5.21192,-2.28583 -13.28411,-8.87483 -18.43719,-12.23445 -8.143,-5.30876 -23.43469,-13.64195 -29.983,-19.45065 1.0731,-3.17981 42.92105,-29.60602 48.85302,-33.03346 z"
     id="path3"
     style="stroke-width:0.997306" />
  <path
     fill="#f8c25e"
     d="m 451.58587,253.92437 c 6.54831,5.8087 21.84,14.14189 29.983,19.45065 5.15308,3.35962 13.22527,9.94862 18.43719,12.23445 l 0.46375,0.0588 c -1.39623,5.12016 -0.35504,15.64174 -0.32113,21.43808 0.0927,16.11048 0.32312,32.23092 0.24035,48.3414 l -0.0987,0.83873 c -6.02975,-2.14217 -15.48819,-10.11762 -21.44311,-13.96024 q -22.36258,-14.27643 -45.14703,-27.86971 c 2.36661,-11.95171 6.61413,-23.78374 10.19945,-35.4213 3.01984,-6.60227 6.58122,-18.00755 7.68623,-25.11086 z"
     id="path4"
     style="stroke-width:0.997306" />
  <path
     fill="#f89624"
     d="m 558.12904,279.06215 c 6.46752,2.95702 12.56106,6.97516 18.63066,10.67217 15.40638,9.38265 34.07594,19.70676 41.81504,36.89433 -15.32261,8.88101 -30.24629,18.62169 -45.29763,27.95946 -15.71654,9.74966 -31.59963,19.14528 -47.4159,28.72041 -8.27664,5.01047 -16.42163,10.98532 -24.8738,15.57792 -3.79275,-1.98863 -7.46184,-4.76812 -11.07009,-7.09882 q -11.31045,-7.35613 -22.78744,-14.45096 c -19.38762,-11.94972 -38.73436,-23.86852 -57.89958,-36.17926 -7.00607,-4.50084 -15.66268,-8.80023 -21.81905,-14.36021 3.33399,-5.43132 6.85049,-11.48796 11.19775,-16.14538 6.54731,-7.01305 15.90104,-12.09831 23.8735,-17.40697 7.12575,-4.74618 14.15177,-9.67985 21.41714,-14.20961 -3.58532,11.63756 -7.83284,23.46959 -10.19945,35.4213 q 22.78445,13.59328 45.14703,27.86971 c 5.95492,3.84262 15.41336,11.81807 21.44307,13.96028 l 0.0987,-0.83873 c 10.362,-6.68993 21.27253,-12.7346 31.90779,-18.9887 12.10729,-7.11976 24.16173,-14.55667 36.67293,-20.94242 q -2.94903,-10.79484 -6.33289,-21.46202 c -1.54882,-4.88181 -3.58831,-9.96308 -4.50782,-14.9925 z"
     id="path5"
     style="stroke-width:0.997306" />
  <path
     fill="#96b006"
     d="m 387.11006,348.23029 c 0.98434,-6.71586 0.25631,-14.57662 0.30119,-21.4331 6.15637,5.55998 14.81298,9.85937 21.81905,14.36021 19.16522,12.31074 38.51196,24.22954 57.89958,36.17926 q 11.47699,7.09483 22.78744,14.45096 c 3.60825,2.3307 7.27734,5.11019 11.07009,7.09882 -1.08906,24.40905 0.30717,48.96471 0.17154,73.39571 l 0.82178,1.37229 c -0.0778,16.27703 0.0688,32.60193 -0.41089,48.87097 -18.04326,-10.42882 -35.18395,-22.54509 -52.80335,-33.68001 l -103.30192,-65.02233 0.0698,-8.00139 c 0.36202,-6.5114 -1.0352,-37.40494 1.25262,-40.65117 5.85418,-2.92909 11.42513,-7.02502 16.84649,-10.68514 q 11.88987,-7.90863 23.47657,-16.25508 z"
     id="path8"
     style="stroke-width:0.997306" />
  <path
     fill="#d27620"
     d="m 387.11006,348.23029 c 0.98434,-6.71586 0.25631,-14.57662 0.30119,-21.4331 6.15637,5.55998 14.81298,9.85937 21.81905,14.36021 19.16522,12.31074 38.51196,24.22954 57.89958,36.17926 q 11.47699,7.09483 22.78744,14.45096 c 3.60825,2.3307 7.27734,5.11019 11.07009,7.09882 -1.08906,24.40905 0.30717,48.96471 0.17154,73.39571 -14.30935,-7.34914 -27.63135,-17.36808 -41.26452,-25.91898 Q 432.9951,429.77798 406.49469,412.56249 c -5.83723,-3.74488 -11.95769,-7.17661 -17.67126,-11.08904 -0.95741,-0.65623 -1.49795,-1.02922 -1.93078,-2.1472 0.81679,-16.89635 0.17153,-34.15672 0.21741,-51.09596 z"
     id="path9"
     style="stroke-width:0.997306" />
  <path
     fill="#f89624"
     d="m 333.77116,423.26458 c 3.76383,-2.69971 7.8109,-5.02942 11.76322,-7.4429 l -0.0698,8.00139 103.30192,65.02233 c 17.6194,11.13492 34.76009,23.25119 52.80335,33.68001 l 0.10571,0.45577 c -0.22439,11.67147 0.68016,23.97024 -0.4458,35.55096 -0.90455,7.18359 -0.49566,14.75613 -0.46574,21.98959 0.0678,16.52635 0.86367,33.33893 0.1506,49.82639 0.28523,4.38814 -0.39793,9.1812 0.5156,13.43371 l -0.0878,0.41887 c 2.06143,3.73889 1.14192,7.84181 1.27456,11.94373 l -0.43084,0.8517 c 0.77291,7.94254 0.41588,16.19923 0.43084,24.18765 0.014,7.38006 0.35205,14.93366 -0.0429,22.29676 -10.52855,-6.24712 -20.73697,-13.03777 -31.15084,-19.47438 Q 434.80816,661.70241 398.6289,638.69657 345.8086,606.01087 293.44906,572.58916 c -0.76195,-3.99521 -0.38297,-8.76332 -0.37399,-12.84729 0.0279,-12.01454 1.08307,-25.43229 -0.23836,-37.31619 2.64585,-3.94035 50.73992,-33.76578 57.70311,-38.31848 0.23337,-7.22348 0.0199,-14.5068 -0.007,-21.73727 -5.04238,-3.76782 -11.11398,-6.73879 -16.49843,-10.05783 q 0.006,-14.52476 -0.26329,-29.04752 z"
     id="path10"
     style="stroke-width:0.997306" />
  <path
     fill="#d27620"
     d="m 367.23775,472.86657 c 3.06173,1.98564 6.15437,3.93437 9.18518,5.96588 -0.009,7.36112 -0.87264,49.99992 0.34707,53.51543 l 0.19547,0.16754 0.22339,7.1088 c -3.16644,1.5179 -6.38475,3.26418 -9.7347,4.31833 -1.39124,-23.50649 -0.56547,-47.53657 -0.21641,-71.07598 z"
     id="path11"
     style="stroke-width:0.997306" />
  <path
     fill="#f8c25e"
     d="m 427.78816,510.48095 c 5.54403,3.51052 11.38225,6.87742 16.59517,10.85468 10e-4,13.27414 -0.66022,26.9841 0.22639,40.20538 0.0568,9.23006 -0.61434,19.12034 0.32313,28.25068 q -8.5898,-5.1461 -17.06191,-10.48368 c -0.39593,-22.91808 -0.0678,-45.90199 -0.0828,-68.82706 z"
     id="path12"
     style="stroke-width:0.997306" />
  <path
     fill="#f8c25e"
     d="m 482.45847,546.42086 0.69412,-0.17852 c 5.79036,3.9224 12.92109,7.63039 18.07716,12.2898 -0.90455,7.18359 -0.49566,14.75613 -0.46574,21.98959 0.0678,16.52635 0.86367,33.33893 0.1506,49.82639 -3.38486,0.0409 -14.6594,-9.0326 -17.78296,-11.29947 -0.11669,-10.4029 1.16186,-22.43838 -0.39992,-32.59195 -0.68914,-13.24522 -0.0279,-26.74475 -0.27326,-40.03584 z"
     id="path13"
     style="stroke-width:0.997306" />
  <path
     fill="#f8c25e"
     d="m 408.84035,498.80849 c 4.075,2.71466 9.12934,5.04038 12.82835,8.16594 1.98364,1.12396 4.2924,2.16814 6.11946,3.50652 0.015,22.92507 -0.31315,45.90898 0.0828,68.82706 -1.96569,0.84671 -3.96429,1.87493 -6.03769,2.39952 -4.64246,-1.31345 -10.01694,-6.80263 -13.78575,-9.89128 -0.0449,-5.07728 -0.91354,-14.36918 0.61334,-18.96177 0.47272,-6.39074 0.20146,-12.96298 0.20046,-19.37566 z"
     id="path14"
     style="stroke-width:0.997306" />
  <path
     fill="#d27620"
     d="m 421.6687,506.97443 c 1.98364,1.12396 4.2924,2.16814 6.11946,3.50652 0.015,22.92507 -0.31315,45.90898 0.0828,68.82706 -1.96569,0.84671 -3.96429,1.87493 -6.03769,2.39952 z"
     id="path15"
     style="stroke-width:0.997306" />
  <path
     fill="#873129"
     d="m 376.42293,478.83245 c 11.00128,6.30198 21.73129,13.15746 32.41742,19.97604 l 0.021,34.67033 c 10e-4,6.41268 0.27226,12.98492 -0.20046,19.37566 -10.33807,-7.0709 -21.15086,-13.57134 -31.69537,-20.33906 l -0.19547,-0.16754 c -1.21971,-3.51551 -0.35604,-46.15431 -0.34707,-53.51543 z"
     id="path16"
     style="stroke-width:0.997306" />
  <path
     fill="#cc5627"
     d="m 444.64961,521.50816 c 3.98823,2.25192 36.1264,21.73129 37.40395,23.71094 0.22938,0.35505 0.27027,0.80184 0.40491,1.20176 0.24533,13.29109 -0.41588,26.79062 0.27326,40.03584 q -0.0638,6.40669 -0.006,12.81338 c -8.0323,-6.0696 -16.72482,-11.9198 -25.51009,-16.84449 -3.5893,2.3686 -8.15497,6.1803 -12.28281,7.3661 -0.93747,-9.13034 -0.26628,-19.02062 -0.32313,-28.25068 0.53755,-13.26317 0.0319,-26.74475 0.0399,-40.03285 z"
     id="path17"
     style="stroke-width:0.997306" />
  <path
     fill="#dde2d6"
     d="m 350.53986,484.1072 c 0.016,4.97257 1.15189,35.17697 -0.88062,37.61339 -0.39194,0.46973 -1.09105,0.91951 -1.56577,1.27156 -2.00957,1.65054 -3.86656,3.31305 -5.67866,5.18499 l -0.1466,13.79573 q 79.26386,51.54076 159.07424,102.22783 c 2.06143,3.73889 1.14192,7.84181 1.27456,11.94373 l -0.43084,0.8517 c -10.98333,-6.82357 -22.18606,-13.35592 -33.05171,-20.36 -25.45323,-16.40667 -50.47164,-33.47656 -76.05453,-49.69375 Q 360.48,566.69309 328.36277,545.68485 c -11.9168,-7.67028 -23.96426,-15.04635 -35.52602,-23.25917 2.64585,-3.94035 50.73992,-33.76578 57.70311,-38.31848 z"
     id="path18"
     style="stroke-width:0.997306" />
  <path
     fill="#f9e3a3"
     d="m 292.83675,522.42568 c 11.56176,8.21282 23.60922,15.58889 35.52602,23.25917 q 32.11723,21.00824 64.71716,41.25753 c 25.58289,16.21719 50.6013,33.28708 76.05453,49.69375 10.86565,7.00408 22.06838,13.53643 33.05171,20.36 0.77291,7.94254 0.41588,16.19923 0.43084,24.18765 0.014,7.38006 0.35205,14.93366 -0.0429,22.29676 -10.52855,-6.24712 -20.73697,-13.03777 -31.15084,-19.47438 q -36.61508,-22.30375 -72.79434,-45.30959 -52.8203,-32.6857 -105.17984,-66.10741 c -0.76195,-3.99521 -0.38297,-8.76332 -0.37399,-12.84729 0.0279,-12.01454 1.08307,-25.43229 -0.23836,-37.31619 z"
     id="path19"
     style="stroke-width:0.997306" />
  <path
     fill="#f89624"
     d="m 698.4679,517.17686 c 2.4803,1.60965 6.9951,3.81171 8.36739,6.35284 -1.62062,6.95122 -1.11898,42.27679 -0.50863,50.80973 l -2.92011,1.90386 c 0.94545,16.91829 -0.15957,33.98518 0.49766,50.9334 -12.24093,8.57084 -25.14108,16.0646 -37.54457,24.37415 q -51.97159,32.7196 -103.53429,66.07948 l -43.29404,27.95049 c -5.68265,3.67407 -11.21071,7.87971 -17.02002,11.30845 Q 453.82682,725.9648 404.72547,695.70854 c -22.92606,-14.43999 -45.57088,-29.982 -69.21301,-43.21325 -3.39383,-2.82637 -7.64635,-5.11319 -11.40519,-7.46484 -10.03788,-6.28202 -20.60833,-12.16713 -30.24928,-19.01263 -0.40491,-17.76601 0.55849,-35.69257 -0.40889,-53.42866 q 52.35954,33.42171 105.17984,66.10741 36.17926,23.00584 72.79434,45.30959 c 10.41387,6.43661 20.62229,13.22726 31.15084,19.47438 0.39494,-7.3631 0.0569,-14.9167 0.0429,-22.29676 -0.015,-7.98842 0.34207,-16.24511 -0.43084,-24.18765 l 0.43084,-0.8517 c -0.13264,-4.10192 0.78687,-8.20484 -1.27456,-11.94373 l 0.0878,-0.41887 c 6.61214,-3.43971 12.99789,-8.16993 19.27294,-12.22797 l 40.40284,-26.33585 111.13476,-71.57762 c 1.12197,0.0199 23.321,-14.73121 26.22715,-16.46353 z"
     id="path20"
     style="stroke-width:0.997306" />
  <path
     fill="#f8c25e"
     d="m 698.4679,517.17686 c 2.4803,1.60965 6.9951,3.81171 8.36739,6.35284 -1.62062,6.95122 -1.11898,42.27679 -0.50863,50.80973 l -2.92011,1.90386 q -73.60215,47.0838 -147.77676,93.26005 -17.97345,11.46103 -35.81824,23.12253 c -5.52407,3.58033 -11.31543,8.02632 -17.23743,10.85467 0.39494,-7.3631 0.0569,-14.9167 0.0429,-22.29676 -0.015,-7.98842 0.34207,-16.24511 -0.43084,-24.18765 l 0.43084,-0.8517 c -0.13264,-4.10192 0.78687,-8.20484 -1.27456,-11.94373 l 0.0878,-0.41887 c 6.61214,-3.43971 12.99789,-8.16993 19.27294,-12.22797 l 40.40284,-26.33585 111.13476,-71.57762 c 1.12197,0.0199 23.321,-14.73121 26.22715,-16.46353 z"
     id="path21"
     style="stroke-width:0.997306" />
  <path
     fill="#f9e3a3"
     d="m 698.4679,517.17686 c 2.4803,1.60965 6.9951,3.81171 8.36739,6.35284 -6.30098,5.55699 -14.74516,10.07079 -21.81706,14.66139 l -48.24366,30.97133 c -44.81892,28.80219 -89.0584,58.62063 -134.15756,86.98201 -0.13264,-4.10192 0.78687,-8.20484 -1.27456,-11.94373 l 0.0878,-0.41887 c 6.61214,-3.43971 12.99789,-8.16993 19.27294,-12.22797 l 40.40284,-26.33585 111.13476,-71.57762 c 1.12197,0.0199 23.321,-14.73121 26.22715,-16.46353 z"
     id="path22"
     style="stroke-width:0.997306" />
  <path
     fill="#d27620"
     d="m 618.57474,326.62865 c -0.78488,7.79195 -0.371,15.91002 -0.2593,23.73986 3.08167,1.28254 6.01874,3.42675 8.86405,5.17103 7.58152,4.64745 15.10719,9.81549 22.92108,14.02711 5.88111,11.22667 9.56815,24.34423 14.3961,36.12341 1.86696,4.55469 3.73292,9.54022 6.62012,13.55139 2.45836,1.09404 4.44599,3.00089 6.92529,4.17771 -0.26728,8.64365 -0.56647,17.43091 0.0529,26.06159 -7.3302,4.59459 -14.89975,8.8481 -22.01154,13.77479 0.8896,8.82316 0.59839,17.88468 0.56747,26.74873 13.91142,8.9229 28.44615,17.47679 41.81703,27.17259 -2.90615,1.73232 -25.10518,16.48347 -26.22715,16.46353 l -111.13476,71.57762 -40.40284,26.33585 c -6.27505,4.05804 -12.6608,8.78826 -19.27294,12.22797 -0.91353,-4.25251 -0.23037,-9.04557 -0.5156,-13.43371 0.71307,-16.48746 -0.0828,-33.30004 -0.1506,-49.82639 -0.0299,-7.23346 -0.43881,-14.806 0.46574,-21.98959 1.12596,-11.58072 0.22141,-23.87949 0.4458,-35.55096 l -0.10571,-0.45577 c 0.4797,-16.26904 0.3331,-32.59394 0.41089,-48.87097 l -0.82178,-1.37229 c 0.13563,-24.431 -1.2606,-48.98666 -0.17154,-73.39571 8.45217,-4.5926 16.59716,-10.56745 24.8738,-15.57792 15.81627,-9.57513 31.69936,-18.97075 47.4159,-28.72041 15.05134,-9.33777 29.97502,-19.07845 45.29763,-27.95946 z"
     id="path23"
     style="stroke-width:0.997306" />
  <path
     fill="#f89624"
     d="m 643.19921,471.72266 c 1.21671,6.68394 0.23536,15.13013 0.22539,21.99558 q -0.013,21.52485 0.26927,43.0487 -5.20992,-3.42774 -10.74098,-6.30696 c -0.45577,-11.107 -0.11369,-22.31771 -0.0808,-33.43667 0.49566,-6.2571 0.29221,-12.74357 0.38097,-19.02759 3.10661,-2.35165 6.60815,-4.26349 9.94613,-6.27306 z"
     id="path24"
     style="stroke-width:0.997306" />
  <path
     fill="#f8c25e"
     d="m 575.93992,513.1298 0.014,46.64698 c 0,7.87273 0.60138,16.30893 -0.19348,24.10986 -4.70728,-2.16715 -8.63268,-5.67766 -13.27912,-8.00039 -1.3713,-2.05046 -0.41289,-47.85172 -0.3341,-53.62113 4.10192,-3.4068 9.34575,-6.15138 13.79274,-9.13532 z"
     id="path25"
     style="stroke-width:0.997306" />
  <path
     fill="#dde2d6"
     d="m 656.65087,490.00427 c 13.91142,8.9229 28.44615,17.47679 41.81703,27.17259 -2.90615,1.73232 -25.10518,16.48347 -26.22715,16.46353 -4.31833,-2.07241 -8.48807,-4.75616 -12.64783,-7.14371 -0.71606,-0.48967 -1.46105,-0.92649 -2.20205,-1.37727 -1.67348,-6.51241 -0.72205,-27.32817 -0.74,-35.11514 z"
     id="path26"
     style="stroke-width:0.997306" />
  <path
     fill="#873129"
     d="m 519.13837,548.46434 c 9.71775,-6.2202 19.44846,-12.74258 29.52125,-18.36938 -0.008,10.72702 -0.28723,21.52884 0.17054,32.24489 l -0.0219,21.80409 c -10.12166,4.38316 -20.64423,12.21401 -29.80648,18.45315 z"
     id="path27"
     style="stroke-width:0.997306" />
  <path
     fill="#873129"
     d="m 632.94392,478.07849 q -0.30717,9.47141 -0.0718,18.94482 c -0.0329,11.11896 -0.37499,22.32967 0.0808,33.43667 -1.23666,2.58202 -32.37753,21.55078 -37.24637,25.42032 -0.21243,-16.56026 0.0828,-33.13847 -0.0279,-49.70172 l -0.0788,-3.8526 c 0.16955,-0.76593 0.2962,-1.09304 0.91753,-1.6276 3.33898,-2.87623 7.96149,-5.16504 11.72632,-7.46284 q 12.41845,-7.46682 24.70027,-15.15705 z"
     id="path28"
     style="stroke-width:0.997306" />
  <path
     fill="#4d7c28"
     d="m 650.10057,369.56665 c 5.88111,11.22667 9.56815,24.34423 14.3961,36.12341 1.86696,4.55469 3.73292,9.54022 6.62012,13.55139 -6.70289,4.15278 -13.69401,7.82885 -20.45275,11.89785 l -56.94017,34.75511 -50.89849,31.69537 c -5.79036,3.64515 -37.31918,24.59256 -41.14983,25.3914 l -0.10571,-0.45577 c 0.4797,-16.26904 0.3331,-32.59394 0.41089,-48.87097 7.37208,-2.96997 18.07616,-10.91351 25.40636,-15.19794 q 45.50207,-27.07186 90.5384,-54.91065 c -0.10472,-4.56168 -0.16456,-9.07249 0.0618,-13.63317 q 16.22816,-9.90225 32.11325,-20.34603 z"
     id="path29"
     style="stroke-width:0.997306" />
  <path
     fill="#cc5627"
     d="m 618.57474,326.62865 c -0.78488,7.79195 -0.371,15.91002 -0.2593,23.73986 3.08167,1.28254 6.01874,3.42675 8.86405,5.17103 7.58152,4.64745 15.10719,9.81549 22.92108,14.02711 q -15.88509,10.44378 -32.11325,20.34603 c -0.22639,4.56068 -0.16655,9.07149 -0.0618,13.63317 q -45.03633,27.83879 -90.5384,54.91065 c -7.3302,4.28443 -18.03428,12.22797 -25.40636,15.19794 l -0.82178,-1.37229 c 0.13563,-24.431 -1.2606,-48.98666 -0.17154,-73.39571 8.45217,-4.5926 16.59716,-10.56745 24.8738,-15.57792 15.81627,-9.57513 31.69936,-18.97075 47.4159,-28.72041 15.05134,-9.33777 29.97502,-19.07845 45.29763,-27.95946 z"
     id="path30"
     style="stroke-width:0.997306" />
  <path
     fill="#96b006"
     d="m 618.31544,350.36851 c 3.08167,1.28254 6.01874,3.42675 8.86405,5.17103 7.58152,4.64745 15.10719,9.81549 22.92108,14.02711 q -15.88509,10.44378 -32.11325,20.34603 -0.012,-19.77458 0.32812,-39.54417 z"
     id="path31"
     style="stroke-width:0.997306" />
  <path
     fill="#cc5627"
     d="m 502.51129,756.88926 c 5.80931,-3.42874 11.33737,-7.63438 17.02002,-11.30845 l 43.29404,-27.95049 q 51.5627,-33.35888 103.53429,-66.07948 l -0.003,77.66518 c -0.008,4.72523 0.8886,19.5422 -0.11469,23.3559 -0.27825,16.58021 -0.51561,33.37683 -0.0389,49.94906 -17.47578,10.8457 -34.78602,22.35859 -52.57596,32.6468 -21.96366,14.67236 -44.89272,27.95248 -66.85937,42.64579 -14.19465,9.79753 -29.77356,17.98341 -43.54636,28.3165 l -0.35504,0.25132 c -6.662,-3.42375 -13.08465,-7.99839 -19.5063,-11.89188 -10.35103,-6.27704 -20.93145,-12.2878 -31.00922,-18.99667 -0.19448,-0.0987 -0.39095,-0.19248 -0.58243,-0.2962 -13.7339,-7.42893 -26.98609,-16.72681 -40.20538,-25.05731 -7.25141,-4.57065 -20.72501,-12.12823 -26.86642,-17.32918 -0.62232,-0.52658 -0.87264,-1.04318 -1.10402,-1.80712 -1.97566,0.15957 -3.76682,0.67916 -5.43332,-0.48968 -7.60645,-5.6637 -16.1015,-10.54351 -24.12183,-15.61382 -6.03769,-3.81668 -12.38155,-8.5489 -18.88099,-11.41915 -0.16855,-6.3269 -0.008,-12.69171 0.0209,-19.0226 1.69742,-7.81888 0.1137,-29.66386 0.0359,-39.15522 -0.25133,-30.84268 -0.57844,-61.98055 0.29919,-92.80727 23.64213,13.23125 46.28695,28.77326 69.21301,43.21325 q 49.10135,30.25626 97.78582,61.18072 z"
     id="path32"
     style="stroke-width:0.997306" />
  <path
     fill="#873129"
     d="m 378.15924,830.51335 0.20944,-59.83036 c 0.007,-10.25829 -1.02224,-21.838 0.6273,-31.93572 0.64925,-3.97227 2.04548,-7.48678 4.58362,-10.64325 3.5893,-4.46593 8.80421,-7.45386 14.55169,-7.87871 3.08865,-0.22739 9.02162,-0.36801 11.42912,1.72733 -6.35882,-0.42186 -12.2509,-0.11768 -17.37406,4.24553 -5.86217,4.99052 -7.79893,12.75953 -8.26069,20.12862 -0.4797,7.65332 -0.17253,15.46821 -0.15957,23.1355 l 0.0778,40.54047 c 0.011,6.23316 0.93249,15.11218 -0.25132,21.00027 -1.97566,0.15957 -3.76682,0.67916 -5.43332,-0.48968 z"
     id="path33"
     style="stroke-width:0.997306" />
  <path
     fill="#d27620"
     d="m 546.76773,877.81357 c -0.56148,-16.89735 -0.0399,-33.96724 -0.0928,-50.88553 -0.0429,-13.27913 -1.43213,-34.31031 1.20973,-46.81453 2.4813,-11.74826 8.13403,-23.41574 15.61881,-32.78742 6.5483,-8.19985 16.34584,-16.18826 27.17757,-17.20153 4.61952,-0.43183 10.86465,0.95841 14.44498,4.1099 3.90545,3.43871 6.54831,9.01664 7.56955,14.07697 1.64555,8.16195 0.74997,17.53762 0.71806,25.86612 l -0.0598,37.42888 c -0.005,7.60545 -0.26229,15.32959 0.22739,22.91609 l 0.0459,0.64526 c -21.96366,14.67236 -44.89272,27.95248 -66.85937,42.64579 z"
     id="path34"
     style="stroke-width:0.997306" />
  <path
     fill="#f8c25e"
     d="m 383.59256,831.00303 c 1.18381,-5.88809 0.2623,-14.76711 0.25132,-21.00027 l -0.0778,-40.54047 c -0.013,-7.66729 -0.32013,-15.48218 0.15957,-23.1355 0.46176,-7.36909 2.39852,-15.1381 8.26069,-20.12862 5.12316,-4.36321 11.01524,-4.66739 17.37406,-4.24553 16.57721,5.6258 26.60612,18.86404 34.18265,34.16271 3.78278,7.63936 6.9582,16.16233 8.17292,24.63544 1.5169,10.58042 0.52857,22.33466 0.54752,33.05271 0.0369,20.5435 0.35006,41.15481 -0.11269,61.68934 -0.19448,-0.0987 -0.39095,-0.19248 -0.58243,-0.2962 -13.7339,-7.42893 -26.98609,-16.72681 -40.20538,-25.05731 -7.25141,-4.57065 -20.72501,-12.12823 -26.86642,-17.32918 -0.62232,-0.52658 -0.87264,-1.04318 -1.10402,-1.80712 z"
     id="path35"
     style="stroke-width:0.997306" />
  <path
     fill="#f9e3a3"
     d="m 291.15828,780.57227 c 7.6284,4.3313 37.70315,22.2848 43.99814,22.90811 6.49944,2.87025 12.8433,7.60247 18.88099,11.41915 8.02033,5.07031 16.51538,9.95012 24.12183,15.61382 1.6665,1.16884 3.45766,0.64925 5.43332,0.48968 0.23138,0.76394 0.4817,1.28054 1.10402,1.80712 6.14141,5.20095 19.61501,12.75853 26.86642,17.32918 13.21929,8.3305 26.47148,17.62838 40.20538,25.05731 0.19148,0.10372 0.38795,0.19746 0.58243,0.2962 10.07777,6.70887 20.65819,12.71963 31.00922,18.99667 6.42165,3.89349 12.8443,8.46813 19.5063,11.89188 0.87165,8.78028 0.23936,18.16093 0.23736,27.00305 -10e-4,8.96777 0.57345,18.41026 -0.17054,27.32916 -35.57888,-20.98032 -70.20034,-43.59522 -105.37531,-65.24373 Q 359.17553,872.2855 321.08144,848.6314 c -10.45974,-6.38774 -21.08902,-12.50222 -31.42709,-19.08843 -1.02523,-12.02152 -0.13763,-24.86083 -0.0249,-36.95017 0,-2.94504 -0.20045,-6.02373 -0.009,-8.95481 0.10671,-1.64057 0.28623,-2.02253 1.53784,-3.06572 z"
     id="path38"
     style="stroke-width:0.997306" />
  <path
     fill="#f8c25e"
     d="m 666.64686,752.60483 c 5.182,1.06612 34.1677,20.2104 40.91447,24.50081 1.30547,0.7031 2.11927,0.86067 2.6638,2.36262 1.19178,3.2921 0.0199,8.3993 0.16755,11.95171 l 0.01,17.12872 c -0.14161,8.02732 0.0559,16.10948 -0.23436,24.12283 l -162.3484,100.95626 c -10.01794,6.11647 -19.91719,12.46732 -29.83839,18.74137 -4.53475,2.86825 -9.66788,6.91531 -14.63048,8.82316 l -0.41787,-0.47871 c 0.74399,-8.9189 0.16954,-18.36139 0.17054,-27.32916 0.002,-8.84212 0.63429,-18.22277 -0.23736,-27.00305 l 0.35504,-0.25132 c 13.7728,-10.33309 29.35171,-18.51897 43.54636,-28.3165 21.96665,-14.69331 44.89571,-27.97343 66.85937,-42.64579 17.78994,-10.28821 35.10018,-21.8011 52.57596,-32.6468 -0.47671,-16.57223 -0.23935,-33.36885 0.0389,-49.94906 z"
     id="path39"
     style="stroke-width:0.997306" />
  <path
     fill="#dde2d6"
     d="m 666.64686,752.60483 c 5.182,1.06612 34.1677,20.2104 40.91447,24.50081 -4.94763,5.00149 -33.5743,21.30644 -40.87358,25.30663 -0.53455,-16.56126 -0.0967,-33.23421 -0.0409,-49.80744 z"
     id="path40"
     style="stroke-width:0.997306" />
</svg>
