<?xml version="1.0" encoding="UTF-8" standalone="no"?>
<svg
   width="1444.8882"
   height="969.35199"
   version="1.1"
   id="svg45"
   sodipodi:docname="well.svg"
   inkscape:version="1.3.2 (091e20ef0f, 2023-11-25)"
   xmlns:inkscape="http://www.inkscape.org/namespaces/inkscape"
   xmlns:sodipodi="http://sodipodi.sourceforge.net/DTD/sodipodi-0.dtd"
   xmlns="http://www.w3.org/2000/svg"
   xmlns:svg="http://www.w3.org/2000/svg">
  <defs
     id="defs45" />
  <sodipodi:namedview
     id="namedview45"
     pagecolor="#ffffff"
     bordercolor="#000000"
     borderopacity="0.25"
     inkscape:showpageshadow="2"
     inkscape:pageopacity="0.0"
     inkscape:pagecheckerboard="0"
     inkscape:deskcolor="#d1d1d1"
     inkscape:zoom="0.71279108"
     inkscape:cx="686.03552"
     inkscape:cy="306.54143"
     inkscape:window-width="1440"
     inkscape:window-height="831"
     inkscape:window-x="0"
     inkscape:window-y="0"
     inkscape:window-maximized="1"
     inkscape:current-layer="svg45" />
  <rect
     style="fill:#96b006;stroke-width:9.48831;stroke-linecap:round"
     id="rect1"
     width="807.71704"
     height="807.71704"
     x="-679.90997"
     y="679.90997"
     transform="matrix(0.89442719,-0.4472136,0.89442719,0.4472136,0,0)" />
  <path
     id="rect45"
     style="fill:#cc5627;fill-opacity:1;stroke-width:4.97753;stroke-linecap:round"
     d="M 483.66211 343.50977 L 483.66211 651.51953 L 560.79688 651.51953 L 560.79688 692.04102 L 884.52539 692.04102 L 884.52539 632.5957 L 985.16992 632.5957 L 985.16992 528.51367 L 955.48828 558.19531 L 955.48828 464.04492 L 941.80664 464.04492 L 985.16992 420.68164 L 985.16992 343.50977 L 483.66211 343.50977 z M 939.67773 560.81445 L 952.86914 560.81445 L 946.27344 567.41016 L 939.67773 560.81445 z " />
  <path
     fill="#d27620"
     d="m 823.12005,613.9146 c 12.748,-2.482 25.413,-5.451 38.128,-8.105 1.402,0.385 2.952,0.694 4.305,1.204 l 1.625,1.254 c -13.961,4.077 -28.769,5.601 -42.892,9.292 -0.321,-1.422 -0.517,-2.46 -1.498,-3.604 z"
     id="path2" />
  <path
     fill="#fed20b"
     d="m 720.12205,0 c 10.195,5.9721 20.887,11.4674 31.436,16.796 q -9.993,4.8298 -19.77,10.0836 c -3.446,1.826 -7.097,4.182 -10.718,5.575 -1.467,-10.6367 0.857,-21.808 -0.948,-32.4546 z"
     id="path3" />
  <path
     fill="#fee202"
     d="m 691.86205,15.4074 c 3.454,-2.4459 25.243,-15.2273 28.26,-15.4074 1.805,10.6466 -0.519,21.8179 0.948,32.4546 l -0.438,0.443 c -9.828,-4.595 -19.233,-10.0389 -28.642,-15.4226 z"
     id="path4" />
  <path
     fill="#873129"
     d="m 740.98405,569.1776 c 20.126,-3.238 40.736,-6.237 60.533,-11.105 q -0.016,13.248 -0.347,26.492 c -6.621,-2.137 -13.717,-3.571 -20.471,-5.292 z"
     id="path5" />
  <path
     fill="#873129"
     d="m 911.75005,492.3486 -0.023,10.512 c -13.693,11.617 -26.188,24.709 -39.979,36.169 -3.728,2.461 -57.626,12.353 -67.048,14.562 q 0.309,-8.325 0.006,-16.65 c 8.637,-1.357 17.217,-3.726 25.726,-5.744 l 40.964,-9.755 c 4.885,-0.89 12.08,-2.096 16.35,-4.427 4.57,-6.206 17.921,-19.442 24.004,-24.667 z"
     id="path6" />
  <path
     fill="#873129"
     d="m 914.62105,489.4196 c 8.215,-7.745 16.466,-15.464 24.572,-23.323 4.534,-4.397 9.183,-9.879 14.292,-13.529 q 0.171,13.065 0.716,26.119 l 1.528,40.627 -38.266,37.831 c -0.883,-22.582 -2.362,-45.125 -2.842,-67.725 z"
     id="path7" />
  <path
     fill="#fed20b"
     d="m 623.02305,72.1926 c 9.071,5.805 18.637,10.76 28.158,15.775 9.078,4.635 18.602,9.427 27.219,14.862 l 0.05,23.477 c -8.716,6.08 -17.697,13.024 -27.042,18.029 l -6.294,4.42 -22.491,-23.972 c 0.112,-17.521 -0.091,-35.078 0.4,-52.591 z"
     id="path8" />
  <path
     fill="#f89624"
     d="m 651.18105,87.9676 c 9.078,4.635 18.602,9.427 27.219,14.862 l 0.05,23.477 c -8.716,6.08 -17.697,13.024 -27.042,18.029 -0.454,-18.75 -0.043,-37.601 -0.227,-56.368 z"
     id="path9" />
  <path
     fill="#873129"
     d="m 579.50605,527.3196 c 10.701,2.127 21.503,3.788 32.233,5.775 l 71.36,13.448 27.041,5.142 c 4.559,0.884 9.825,1.523 14.175,3.143 4.061,0.592 67.831,-14.684 77.354,-17.044 0.82,5.12 -0.154,10.984 -0.117,16.22 q -25.14,5.452 -50.46,9.991 c -6.152,1.127 -13.595,3.301 -19.808,3.192 -9.511,-2.604 -19.915,-3.509 -29.648,-5.401 -30.416,-5.914 -60.963,-11.168 -91.254,-17.709 -10.398,-2.245 -20.933,-4.015 -31.153,-6.998 0.087,-3.061 -0.561,-6.838 0.277,-9.759 z"
     id="path10" />
  <path
     fill="#f89624"
     d="m 821.16605,128.9406 c -0.006,20.077 0.192,40.182 -0.021,60.256 l -0.007,12.604 -12.169,7.954 c -4.848,2.28 -9.307,7.296 -14.138,8.883 -9.414,-5.295 -18.491,-11.079 -27.601,-16.876 0.189,-17.237 -0.044,-34.499 -0.079,-51.738 3.048,1.515 6.514,3.757 9.952,4.033 l 0.117,-0.252 c 3.302,-0.092 13.169,-7.085 16.385,-9.056 7.056,-5.944 19.168,-11.319 27.561,-15.808 z"
     id="path11" />
  <path
     id="path46"
     d="M 754.05078 142.74609 C 756.30603 143.88078 758.54617 145.04067 760.74023 146.24609 C 758.54617 145.04067 756.30603 143.88078 754.05078 142.74609 z M 760.74023 146.24609 C 762.93429 147.45151 765.08114 148.70269 767.15039 150.02344 C 765.08114 148.70269 762.93429 147.45151 760.74023 146.24609 z M 767.27539 175.89258 C 767.31439 184.51757 767.32497 193.14323 767.23047 201.76172 C 767.32497 193.14323 767.31439 184.51757 767.27539 175.89258 z M 740.60352 199.34961 C 742.59184 199.47547 744.6392 199.5667 746.70898 199.6582 C 744.6679 199.56791 742.56495 199.47377 740.60352 199.34961 z " />
  <path
     fill="#fed20b"
     d="m 767.15105,150.0236 c 3.048,1.515 6.514,3.757 9.952,4.033 5.61,0.362 11.484,5.721 16.55,8.09 l 1.115,1.403 q -0.208,17.117 -0.101,34.235 c 0.006,6.892 -0.323,13.985 0.164,20.853 -9.414,-5.295 -18.491,-11.079 -27.601,-16.876 0.189,-17.237 -0.044,-34.499 -0.079,-51.738 z"
     id="path12" />
  <path
     fill="#873129"
     d="m 804.69005,557.4586 c 9.846,-2.08 63.28,-11.82 67.837,-14.813 4.971,-3.264 9.293,-7.954 13.635,-12.011 8.557,-7.995 16.991,-16.246 25.922,-23.821 0.29,17.651 2.328,35.352 1.978,53.002 -8.233,9.961 -18.267,18.693 -27.361,27.888 -5.359,5.419 -10.46,11.99 -16.337,16.8 -1.459,1.195 -3.062,1.86 -4.811,2.51 -1.353,-0.51 -2.903,-0.819 -4.305,-1.204 -12.715,2.654 -25.38,5.623 -38.128,8.105 l -0.332,0.041 q -9.079,2.289 -18.222,4.31 l 0.087,-26.597 0.073,-6.317 q 0.251,-13.947 -0.036,-27.893 z"
     id="path14" />
  <path
     fill="#cc5627"
     d="m 804.72605,585.3516 c 10.946,1.428 35.42,11.038 46.449,15.685 3.335,1.405 6.778,3.585 10.073,4.773 -12.715,2.654 -25.38,5.623 -38.128,8.105 l -0.332,0.041 q -9.079,2.289 -18.222,4.31 l 0.087,-26.597 z"
     id="path15" />
  <path
     fill="#dde2d6"
     d="m 684.50805,11.388 c 2.394,1.5352 4.786,2.8033 7.354,4.0194 l 0.128,2.0676 c 9.409,5.3837 18.814,10.8276 28.642,15.4226 l 0.438,-0.443 c 3.621,-1.393 7.272,-3.749 10.718,-5.575 q 9.777,-5.2538 19.77,-10.0836 c 0.751,4.3054 0.254,9.3386 0.232,13.7466 -0.041,8.353 -0.01,16.717 -0.154,25.069 14.853,9.21 30.844,17.037 46.198,25.409 l 27.291,14.853 c 3.673,1.985 7.324,4.286 11.091,6.068 1.417,3.046 0.488,14.094 0.54,18.065 l -15.59,8.934 c -8.393,4.489 -20.505,9.864 -27.561,15.808 -3.216,1.971 -13.083,8.964 -16.385,9.056 l -0.117,0.252 c -3.438,-0.276 -6.904,-2.518 -9.952,-4.033 -8.277,-5.283 -17.807,-9.465 -26.554,-13.973 -5.401,-3.343 -11.313,-6.142 -16.93,-9.128 -6.838,-3.916 -14.018,-7.401 -20.994,-11.078 -7.901,-4.618 -16.189,-8.716 -24.273,-13.015 -8.617,-5.435 -18.141,-10.227 -27.219,-14.862 -9.521,-5.015 -19.087,-9.97 -28.158,-15.775 -2.528,-1.518 -5.235,-2.776 -7.866,-4.108 l -0.057,-16.98 c 8.669,-5.554 17.884,-10.451 26.82,-15.58 q 21.157,-12.3098 42.588,-24.1366 z"
     id="path16" />
  <path
     fill="#c18860"
     d="m 836.21605,101.9416 c 1.417,3.046 0.488,14.094 0.54,18.065 l -15.59,8.934 c -8.393,4.489 -20.505,9.864 -27.561,15.808 -3.216,1.971 -13.083,8.964 -16.385,9.056 -0.022,-5.216 0.159,-10.525 -0.321,-15.72 3.231,-3.152 8.295,-5.635 12.163,-7.969 9.583,-5.785 19.345,-11.251 29.038,-16.848 6.103,-3.525 12.611,-6.914 18.116,-11.326 z"
     id="path17" />
  <path
     fill="#f89624"
     d="m 691.99005,17.475 c 9.409,5.3837 18.814,10.8276 28.642,15.4226 0.069,17.374 0.94,37.141 -0.238,54.315 -5.365,-1.053 -22.778,-11.528 -28.653,-14.711 0.448,-12.658 0.095,-25.411 0.065,-38.079 -0.014,-5.607 -0.286,-11.3633 0.184,-16.9476 z"
     id="path18" />
  <path
     fill="#d27620"
     d="m 751.55805,16.796 c 0.751,4.3054 0.254,9.3386 0.232,13.7466 -0.041,8.353 -0.01,16.717 -0.154,25.069 q -0.071,7.675 -0.02,15.351 c -10.39,5.32 -21.349,10.015 -31.222,16.25 1.178,-17.174 0.307,-36.941 0.238,-54.315 l 0.438,-0.443 c 3.621,-1.393 7.272,-3.749 10.718,-5.575 q 9.777,-5.2538 19.77,-10.0836 z"
     id="path19" />
  <path
     fill="#f9e3a3"
     d="m 615.15705,68.0846 -0.057,-16.98 c 7.88,3.992 15.527,8.455 23.335,12.591 l 98.243,53.072 q 12.514,6.656 24.9,13.549 c 4.282,2.389 8.637,5.266 13.085,7.302 0.892,0.409 1.283,0.535 2.236,0.466 0.48,5.195 0.299,10.504 0.321,15.72 l -0.117,0.252 c -3.438,-0.276 -6.904,-2.518 -9.952,-4.033 -8.277,-5.283 -17.807,-9.465 -26.554,-13.973 -5.401,-3.343 -11.313,-6.142 -16.93,-9.128 -6.838,-3.916 -14.018,-7.401 -20.994,-11.078 -7.901,-4.618 -16.189,-8.716 -24.273,-13.015 -8.617,-5.435 -18.141,-10.227 -27.219,-14.862 -9.521,-5.015 -19.087,-9.97 -28.158,-15.775 -2.528,-1.518 -5.235,-2.776 -7.866,-4.108 z"
     id="path20" />
  <path
     fill="#657b17"
     d="m 954.20105,478.6866 c 10.841,4.906 21.872,12.745 32.132,18.928 12.381,7.461 25.39195,14.378 37.34395,22.495 l -0.018,16.383 0.031,17.364 -65.26195,76.779 -40.066,14.468 c -17.226,6.326 -34.46,12.896 -51.931,18.521 -19.837,6.387 -40.085,11.528 -60.054,17.495 -21.407,6.396 -47.748,16.489 -70.004,17.411 -7.316,0.303 -15.134,-0.854 -22.3,-2.248 -10.057,-1.956 -20.01,-4.881 -29.952,-7.355 q -29.609,-7.117 -58.95,-15.272 c -9.779,-2.679 -24.987,-5.713 -33.858,-9.596 11.761,0.804 23.842,3.471 35.448,5.497 q 31.143,5.483 62.223,11.319 c 10.182,1.899 23.881,5.611 33.915,5.44 9.548,-0.164 20.295,-3.949 29.673,-6.013 26.409,-5.815 52.653,-12.326 79.096,-17.971 10.76,-3.599 30.603,-5.163 39.519,-10.389 -0.448,-14.652 0.106,-29.33 -0.165,-43.986 10.047,-10.903 21.177,-21.109 31.826,-31.444 6.152,-5.971 11.902,-12.33 18.015,-18.338 11.732,-11.529 23.604,-22.626 34.956,-34.562 l -0.09,-4.299 z"
     id="path21" />
  <path
     fill="#873129"
     d="m 955.81905,523.6126 c 1.01,14.885 0.336,29.958 0.853,44.888 l -53.456,52.22 c -10.576,10.379 -20.872,21.475 -32.029,31.222 -0.448,-14.652 0.106,-29.33 -0.165,-43.986 10.047,-10.903 21.177,-21.109 31.826,-31.444 6.152,-5.971 11.902,-12.33 18.015,-18.338 11.732,-11.529 23.604,-22.626 34.956,-34.562 z"
     id="path22" />
  <path
     fill="#f89624"
     d="m 487.68505,443.7006 22.734,26.203 c 2.778,3.226 6.69,6.852 8.892,10.452 10.299,11.317 21.243,22.579 30.671,34.622 2.736,2.687 4.949,5.848 7.658,8.535 1.699,1.051 4.238,1.113 6.202,1.398 l 12.226,1.955 3.438,0.454 c -0.838,2.921 -0.19,6.698 -0.277,9.759 l -0.223,7.758 c 23.268,4.953 47.205,8.055 70.668,12.134 q 20.785,3.597 41.612,6.944 c 8.486,1.447 17.077,3.417 25.638,4.267 4.915,0.489 9.424,0.547 14.273,-0.551 2.923,-0.058 5.319,0.75 8.093,1.508 -5.593,1.253 -11.643,3.119 -17.389,3.182 -9.226,0.102 -19.431,-2.705 -28.581,-4.237 -14.065,-2.355 -28.241,-4.313 -42.244,-6.993 q 0.028,31.661 -0.294,63.32 c 16.053,3.253 32.292,5.602 48.416,8.473 6.895,1.227 17.334,4.387 24,4.128 6.81,-0.266 19.069,-4.45 26.304,-6.182 17.186,-4.112 34.647,-7.583 51.718,-12.103 -0.032,-11.377 -0.245,-22.789 -0.05,-34.162 1.177,0.278 2.36,0.609 3.556,0.787 l -0.073,6.317 -0.087,26.597 q 9.143,-2.021 18.222,-4.31 c 0.981,1.144 1.177,2.182 1.498,3.604 q -32.271,7.567 -64.618,14.801 c -11.92,2.784 -23.801,6.021 -35.768,8.562 l -0.228,44.025 -4.253,0.068 0.164,-44.529 c -19.523,-2.998 -38.968,-6.912 -58.454,-10.203 -27.374,-4.624 -54.911,-8.752 -82.206,-13.777 l -0.229,44.921 c -1.381,-0.362 -2.586,-0.535 -3.566,-1.662 -10.875,-12.508 -23.476,-24.137 -35.294,-35.783 -17.41,-17.158 -34.746,-34.42 -52.384,-51.342 0.295,-14.182 -0.327,-28.374 0.086,-42.559 l 0.004,-4.504 0.124,-47.941 -0.074,-13.513 -0.161,-2.646 c 0.573,-5.787 0.229,-11.948 0.256,-17.777 z"
     id="path23" />
  <path
     fill="#cc5627"
     d="m 487.68505,443.7006 22.734,26.203 c 2.778,3.226 6.69,6.852 8.892,10.452 10.299,11.317 21.243,22.579 30.671,34.622 2.736,2.687 4.949,5.848 7.658,8.535 1.699,1.051 4.238,1.113 6.202,1.398 l 12.226,1.955 3.438,0.454 c -0.838,2.921 -0.19,6.698 -0.277,9.759 -1.118,-0.322 -2.305,-0.41 -3.458,-0.564 -0.112,2.133 0.12,4.336 0.228,6.47 -3.862,-3.583 -8.026,-6.798 -11.772,-10.515 -1.978,-2.295 -5.19,-4.259 -7.563,-6.215 q -4.791,-4.017 -9.261,-8.388 c -5.1,-4.182 -9.71,-9.335 -14.386,-13.988 q -13.679,-13.529 -27.736,-26.665 c -5.726,-5.363 -11.451,-11.198 -17.852,-15.736 0.573,-5.787 0.229,-11.948 0.256,-17.777 z"
     id="path24" />
  <path
     fill="#873129"
     d="m 519.31105,480.3556 c 10.299,11.317 21.243,22.579 30.671,34.622 -0.902,-0.054 -1.884,-0.466 -2.755,-0.724 -0.156,-0.121 -0.316,-0.237 -0.468,-0.363 -3.803,-3.167 -27.228,-30.46 -27.448,-33.535 z"
     id="path25" />
  <path
     fill="#873129"
     d="m 563.84205,524.9106 12.226,1.955 c 0.041,3.107 0.174,6.222 -0.239,9.31 -3.262,-0.772 -6.056,-2.047 -9.039,-3.531 -0.859,-2.646 -1.678,-5.247 -2.948,-7.734 z"
     id="path26" />
  <path
     fill="#cc5627"
     d="m 487.59005,464.1236 c 14.929,12.951 29.005,27.237 43.021,41.169 0.074,20.81 0.328,41.637 0.16,62.445 -8.101,-8.479 -16.672,-16.5 -25.059,-24.693 -5.951,-5.814 -11.825,-12.102 -18.172,-17.467 l 0.124,-47.941 z"
     id="path27" />
  <path
     fill="#cc5627"
     d="m 487.53605,530.0816 c 9.704,8.299 18.601,17.76 27.687,26.727 l 36.298,35.505 c 7.12,7.057 15.824,17.173 23.649,23.045 l -0.042,44.407 c -10.875,-12.508 -23.476,-24.137 -35.294,-35.783 -17.41,-17.158 -34.746,-34.42 -52.384,-51.342 0.295,-14.182 -0.327,-28.374 0.086,-42.559 z"
     id="path28" />
  <path
     fill="#cc5627"
     d="m 534.72205,509.0506 c 4.264,1.864 35.801,33.228 42.431,39.585 10.262,2.356 20.91,3.69 31.307,5.32 q 19.866,3.106 39.69,6.472 l 0.01,42.26 c 0.003,6.98 0.538,14.384 -0.193,21.301 -23.621,-3.187 -47.135,-9.149 -70.903,-11.054 -6.718,-5.512 -12.734,-12.312 -18.885,-18.456 q -11.763,-11.572 -23.853,-22.802 c 0.433,-20.861 -0.043,-41.756 0.396,-62.626 z"
     id="path29" />
  <path
     fill="#96b006"
     d="m 487.66405,477.6366 -0.124,47.941 -0.004,4.504 c -0.413,14.185 0.209,28.377 -0.086,42.559 17.638,16.922 34.974,34.184 52.384,51.342 11.818,11.646 24.419,23.275 35.294,35.783 0.98,1.127 2.185,1.3 3.566,1.662 l 12.619,2.632 c 8.871,3.883 24.079,6.917 33.858,9.596 q 29.341,8.155 58.95,15.272 c 9.942,2.474 19.895,5.399 29.952,7.355 7.166,1.394 14.984,2.551 22.3,2.248 22.256,-0.922 48.597,-11.015 70.004,-17.411 19.969,-5.967 40.217,-11.108 60.054,-17.495 17.471,-5.625 34.705,-12.195 51.931,-18.521 l 40.066,-14.468 65.26195,-76.779 q 0.262,40.851 0.047,81.702 c -10.658,5.433 -20.917,12.18 -31.34295,18.094 -36.263,20.573 -71.936,42.211 -108.238,62.709 -10.051,5.675 -25.032,16.153 -35.006,20.003 -5.189,2.002 -72.893,1.128 -85.466,1.124 l -167.283,-0.311 c -27.711,-16.292 -55.956,-31.709 -83.822,-47.736 -31.125,-17.903 -61.972,-36.418 -93.33,-53.895 l -0.084,-119.57 c 22.923,-12.564 45.861,-25.277 68.499,-38.34 z"
     id="path34" />
  <path
     id="path35"
     d="M 702.67383 115.84375 C 703.89383 128.06774 703.0343 141.13523 703.0293 153.44922 C 703.0233 168.1772 703.7398 183.32973 702.7168 198.01172 C 698.3538 196.80672 694.1332 195.50309 689.9082 193.87109 C 638.72425 210.56608 586.57789 224.0277 534.83594 238.80469 L 483.55469 309.59375 L 466.60156 333.13867 C 463.55357 337.35867 460.51412 342.17522 456.95312 345.94922 C 456.07313 352.98921 456.57994 360.52482 456.58594 367.63281 L 456.61523 408.32031 C 463.49023 415.9333 470.85021 423.47091 476.9082 431.75391 C 480.4072 435.6779 484.54155 439.51318 487.68555 443.70117 L 510.41992 469.9043 C 513.19792 473.13029 517.10855 476.75547 519.31055 480.35547 C 529.60954 491.67246 540.55443 502.93553 549.98242 514.97852 C 552.71842 517.66551 554.93163 520.82472 557.64062 523.51172 C 559.33962 524.56272 561.8778 524.62516 563.8418 524.91016 L 576.06836 526.86523 L 579.50586 527.32031 C 590.20685 529.44731 601.00829 531.10675 611.73828 533.09375 L 683.09961 546.54297 L 710.14062 551.68555 C 714.69962 552.56955 719.96446 553.20813 724.31445 554.82812 C 724.06545 541.74514 724.86955 528.74935 725.56055 515.69336 C 725.86955 509.86637 725.65452 503.74918 726.47852 497.99219 C 732.16851 498.09419 743.00982 494.05545 748.88281 492.43945 C 761.52813 488.97012 774.18982 485.56337 786.86914 482.2207 C 793.70513 480.3937 800.68768 478.15542 807.63867 476.85742 C 817.92066 474.93642 828.57223 474.01881 838.94922 472.63281 C 854.9592 470.65548 870.87342 468.08459 886.69141 464.91992 C 888.8304 461.29293 892.51408 457.80318 895.33008 454.61719 L 911.54297 436.2832 C 936.80294 407.53923 961.90829 378.14968 988.44727 350.5957 L 989.6582 349.09375 C 989.6252 348.74175 989.6945 348.36511 989.5625 348.03711 C 988.8035 346.16011 978.67565 334.66129 976.59766 332.0293 L 902.79492 239.42578 C 871.30395 230.29479 840.58272 218.3679 808.96875 209.75391 C 804.12075 212.0339 799.66107 217.04972 794.83008 218.63672 C 785.41609 213.34172 776.34046 207.55871 767.23047 201.76172 C 758.85248 199.80972 749.21351 199.89461 740.60352 199.34961 C 740.96152 178.27263 740.69566 157.12976 740.59766 136.05078 C 735.19666 132.70778 729.28496 129.90787 723.66797 126.92188 C 716.82998 123.00588 709.64982 119.52075 702.67383 115.84375 z M 740.59766 136.05078 C 744.97115 138.30478 749.54029 140.47672 754.05078 142.74609 C 749.54029 140.47672 744.97115 138.30478 740.59766 136.05078 z "
     style="fill:#f8c25e;fill-opacity:1" />
  <path
     fill="#f89624"
     d="m 740.67205,230.7476 c 15.68,3.791 31.183,9.226 46.729,13.623 26.379,7.461 52.958,14.301 79.049,22.729 q 30.596,41.818 62.337,82.774 c -5.52,5.885 -10.735,12.006 -15.952,18.16 -15.063,-23.303 -31.895,-45.459 -47.358,-68.516 -41.383,-13.037 -83.173,-24.769 -124.394,-38.354 -0.513,-10.091 -0.304,-20.308 -0.411,-30.416 z"
     id="path36" />
  <path
     fill="#f89624"
     d="m 456.95305,345.9486 c 20.58,26.711 42.854,52.156 64.137,78.3 q 13.097,16.159 26.378,32.167 c 3.363,4.087 6.593,9.11 10.41,12.678 10.703,0.088 21.824,1.861 32.473,2.965 10.941,1.135 22.154,1.795 33.026,3.394 9.043,1.331 101.88,21.469 103.101,22.54 -0.824,5.757 -0.608,11.873 -0.917,17.7 -0.691,13.056 -1.495,26.052 -1.246,39.135 -4.35,-1.62 -9.616,-2.259 -14.175,-3.143 l -27.041,-5.142 -71.36,-13.448 c -10.73,-1.987 -21.532,-3.648 -32.233,-5.775 l -3.438,-0.454 -12.226,-1.955 c -1.964,-0.285 -4.503,-0.347 -6.202,-1.398 -2.709,-2.687 -4.922,-5.848 -7.658,-8.535 -9.428,-12.043 -20.372,-23.305 -30.671,-34.622 -2.202,-3.6 -6.114,-7.226 -8.892,-10.452 l -22.734,-26.203 c -3.144,-4.188 -7.277,-8.023 -10.776,-11.947 -6.058,-8.283 -13.419,-15.821 -20.294,-23.434 l -0.03,-40.686 c -0.006,-7.108 -0.512,-14.645 0.368,-21.685 z"
     id="path37" />
  <path
     fill="#cc5627"
     d="m 741.08305,261.1636 c 41.221,13.585 83.011,25.317 124.394,38.354 15.463,23.057 32.295,45.213 47.358,68.516 q -22.46,26.003 -45.874,51.151 c -7.513,-6.22 -14.973,-12.521 -23.255,-17.715 -30.407,-19.07 -67.458,-25.896 -102.598,-29.229 -0.49,-22.031 -0.099,-44.125 -0.248,-66.166 -0.094,-13.992 -1.23,-31.346 0.223,-44.911 z"
     id="path38" />
  <path
     fill="#873129"
     d="m 702.61005,226.8556 0.059,31.942 c 1.43,37.012 0.47,74.361 0.456,111.415 -3.337,0.242 -6.797,0.316 -10.101,0.814 -4.702,0.466 -9.409,0.888 -14.082,1.599 -38.991,6.864 -79.734,18.575 -107.678,48.301 -6.091,-6.542 -11.605,-13.99 -17.325,-20.88 l -26.429,-31.283 c -5.086,-6.337 -10.127,-12.804 -15.672,-18.746 14.286,-19.194 28.247,-38.681 42.257,-58.08 6.03,-8.35 12.714,-19.369 19.466,-26.724 7.583,-2.49 15.448,-4.343 23.121,-6.555 l 48.765,-14.385 c 11.079,-3.248 22.38,-6.191 33.283,-9.974 7.562,-3.078 16.086,-4.877 23.88,-7.444 z"
     id="path39" />
  <path
     fill="#cc5627"
     d="m 702.61005,226.8556 0.059,31.942 c 1.43,37.012 0.47,74.361 0.456,111.415 -3.337,0.242 -6.797,0.316 -10.101,0.814 -4.702,0.466 -9.409,0.888 -14.082,1.599 -0.906,-11.413 -0.195,-23.375 -0.165,-34.838 q 0.176,-35.282 -0.045,-70.563 c -33.598,12.459 -69.332,20.694 -103.038,33.01 -4.43,5.609 -8.357,11.742 -12.434,17.621 l -22.35,32.367 c -4.285,6.203 -8.534,12.784 -13.4,18.541 -5.086,-6.337 -10.127,-12.804 -15.672,-18.746 14.286,-19.194 28.247,-38.681 42.257,-58.08 6.03,-8.35 12.714,-19.369 19.466,-26.724 7.583,-2.49 15.448,-4.343 23.121,-6.555 l 48.765,-14.385 c 11.079,-3.248 22.38,-6.191 33.283,-9.974 7.562,-3.078 16.086,-4.877 23.88,-7.444 z"
     id="path40" />
  <path
     fill="#d27620"
     d="m 702.61005,226.8556 0.059,31.942 c -7.52,3.216 -15.369,5.683 -23.13,8.248 -2.523,-6.012 1.477,-24.839 -0.809,-32.746 7.562,-3.078 16.086,-4.877 23.88,-7.444 z"
     id="path41" />
  <path
     id="path43"
     d="M 702.67383 115.84375 C 703.89383 128.06774 703.0343 141.13523 703.0293 153.44922 C 703.0233 168.1772 703.7398 183.32973 702.7168 198.01172 L 702.60938 226.85547 L 702.66992 258.79688 C 704.09992 295.80884 703.139 333.15893 703.125 370.21289 L 703.03125 377.77148 C 703.32725 393.39447 703.10245 409.04689 703.06445 424.67188 C 709.08445 427.97287 716.45126 433.11319 723.15625 434.61719 C 728.75124 431.90919 735.15765 430.81165 740.93164 428.47266 C 740.73364 418.70467 740.98913 408.90476 741.07812 399.13477 C 741.14079 390.17011 741.15009 381.20489 741.10742 372.24023 C 740.61742 350.20926 741.00837 328.1152 740.85938 306.07422 C 740.76538 292.08223 739.63099 274.72905 741.08398 261.16406 C 740.57098 251.07307 740.77887 240.85604 740.67188 230.74805 L 740.60352 199.34961 C 740.96152 178.27263 740.69566 157.12976 740.59766 136.05078 C 735.19666 132.70778 729.28496 129.90787 723.66797 126.92188 C 716.82998 123.00588 709.64982 119.52075 702.67383 115.84375 z M 740.59766 136.05078 C 744.97115 138.30478 749.54029 140.47672 754.05078 142.74609 C 749.54029 140.47672 744.97115 138.30478 740.59766 136.05078 z M 746.70898 199.6582 C 749.14771 199.76609 751.53623 199.869 754.00391 200.02734 C 751.56454 199.87081 749.12058 199.76482 746.70898 199.6582 z M 754.00391 200.02734 C 756.2704 200.17278 758.52985 200.36363 760.74609 200.63867 C 758.52985 200.36363 756.2704 200.17278 754.00391 200.02734 z M 760.74609 200.63867 C 761.85422 200.7762 762.95105 200.93359 764.0332 201.11914 C 762.95105 200.93359 761.85422 200.7762 760.74609 200.63867 z M 764.0332 201.11914 C 765.11536 201.30469 766.18322 201.51772 767.23047 201.76172 C 766.18322 201.51772 765.11536 201.30469 764.0332 201.11914 z "
     style="fill:#d27620;fill-opacity:1" />
  <path
     fill="#f89624"
     d="m 702.67305,115.8446 c 6.976,3.677 14.156,7.162 20.994,11.078 l -0.566,198.716 0.028,71.315 c 0.039,12.458 0.742,25.261 0.027,37.663 -6.705,-1.504 -14.072,-6.644 -20.092,-9.945 0.038,-15.625 0.263,-31.277 -0.033,-46.9 l 0.094,-7.559 c 0.014,-37.054 0.974,-74.403 -0.456,-111.415 l -0.059,-31.942 0.106,-28.843 c 1.023,-14.682 0.308,-29.835 0.314,-44.563 0.005,-12.314 0.863,-25.381 -0.357,-37.605 z"
     id="path45" />
</svg>
