<?xml version="1.0" encoding="UTF-8" standalone="no"?>
<svg
   width="628.42047"
   height="632.68701"
   version="1.1"
   id="svg65"
   sodipodi:docname="world.svg"
   inkscape:version="1.3.2 (091e20ef0f, 2023-11-25)"
   xmlns:inkscape="http://www.inkscape.org/namespaces/inkscape"
   xmlns:sodipodi="http://sodipodi.sourceforge.net/DTD/sodipodi-0.dtd"
   xmlns="http://www.w3.org/2000/svg"
   xmlns:svg="http://www.w3.org/2000/svg">
  <sodipodi:namedview
     id="namedview65"
     pagecolor="#ffffff"
     bordercolor="#000000"
     borderopacity="0.25"
     inkscape:showpageshadow="2"
     inkscape:pageopacity="0.0"
     inkscape:pagecheckerboard="0"
     inkscape:deskcolor="#d1d1d1"
     inkscape:zoom="0.70507812"
     inkscape:cx="313.44044"
     inkscape:cy="318.40443"
     inkscape:window-width="1920"
     inkscape:window-height="1011"
     inkscape:window-x="0"
     inkscape:window-y="0"
     inkscape:window-maximized="1"
     inkscape:current-layer="svg65" />
  <path
     fill="#fefeff"
     d="m 600.75118,549.93843 c 1.354,0.682 2.064,0.981 3.596,0.898 1.401,-0.076 2.36,0.066 3.721,0.396 1.205,1.128 1.019,1.981 1.238,3.584 0.756,0.698 1.563,1.391 2.152,2.24 0.743,1.071 0.68,1.174 0.488,2.403 -1.722,1.875 -2.598,3.234 -3.436,5.604 -0.078,0.22 -0.15,0.443 -0.225,0.664 -0.163,0.038 -0.322,0.115 -0.49,0.115 -1.993,-0.003 -4.311,-0.057 -6.312,-0.271 -1.461,-1.321 -1.951,-3.326 -2.616,-5.129 -0.813,-0.464 -1.699,-0.822 -2.189,-1.659 -0.352,-0.604 0.113,-1.257 0.319,-1.867 2.574,-2.154 3.382,-2.803 3.696,-6.269 z"
     id="path6" />
  <path
     fill="#870254"
     d="m 603.37318,553.60243 c 0.75,0.092 1.473,0.292 2.207,0.466 1.695,1.381 2.374,3.203 3.281,5.135 l -3.947,4.374 c -1.735,-0.901 -3.118,-2.807 -4.453,-4.241 0.774,-2.143 1.593,-3.872 2.912,-5.734 z"
     id="path7" />
  <path
     fill="#fefeff"
     d="m 504.05318,13.776432 c 2.775,1.378 3.203,3.898 4.118,6.607 2.433,1.114 4.886,2.198 7.291,3.372 -1.891,2.355 -4.576,3.52 -7.206,4.856 -0.607,1.559 -1.203,3.722 -2.344,4.96 -0.647,0.703 -0.685,0.527 -1.565,0.592 -1.668,-1.363 -2.458,-3.52 -3.402,-5.416 -1.45,-0.808 -3.477,-1.745 -4.546,-2.994 -0.765,-0.894 -0.645,-1.193 -0.573,-2.293 1.309,-1.748 3.42,-2.396 5.363,-3.261 0.78,-2.329 1.592,-4.302 2.864,-6.423 z"
     id="path15" />
  <path
     fill="#870254"
     d="m 504.19518,18.588432 c 0.68,0.533 1.074,1.201 1.546,1.914 1.116,1.686 1.926,2.603 3.691,3.655 0.717,0.428 0.388,0.082 0.82,0.977 -2.628,0.789 -4.187,1.162 -5.565,3.713 -0.08,0.147 -0.154,0.296 -0.231,0.444 l -0.269,0.218 c -2.029,-5.163 -2.761,-2.29 -4.966,-5.246 2.231,-1.545 3.409,-2.639 4.664,-5.05 0.107,-0.207 0.207,-0.417 0.31,-0.625 z"
     id="path16" />
  <path
     fill="#311554"
     d="m 265.72418,629.55543 q -4.285,-0.71 -8.549,-1.536 -4.264,-0.826 -8.504,-1.767 -4.24,-0.942 -8.453,-1.999 -4.213,-1.056 -8.396,-2.227 -4.183,-1.171 -8.332,-2.454 -4.149,-1.284 -8.262,-2.681 -4.113,-1.396 -8.186,-2.903 -4.074,-1.508 -8.105,-3.125 -4.031,-1.618 -8.016,-3.345 -3.986,-1.726 -7.923,-3.561 -3.937,-1.834 -7.822,-3.775 -3.886,-1.94 -7.718,-3.986 -3.831,-2.045 -7.606,-4.194 -3.774,-2.149 -7.489,-4.4 -3.715,-2.251 -7.367,-4.602 -3.652,-2.351 -7.239,-4.8 -3.188,-2.168 -6.321,-4.414 -3.133,-2.246 -6.21,-4.569 -3.077,-2.322 -6.096,-4.719 -3.019,-2.398 -5.978,-4.869 -2.959,-2.471 -5.857,-5.014 -2.897,-2.542 -5.731,-5.156 -2.834,-2.613 -5.603,-5.296 -2.769,-2.682 -5.471,-5.431 -2.702,-2.75 -5.336,-5.565 -2.634,-2.816 -5.197,-5.695 -2.564,-2.879 -5.056,-5.82 -2.492,-2.942 -4.911,-5.943 -2.419,-3.002 -4.763,-6.062 -2.344,-3.061 -4.613,-6.178 -2.268,-3.117 -4.459,-6.289 -2.191,-3.172 -4.303,-6.396 -2.113,-3.225 -4.145,-6.501 -2.033,-3.276 -3.984,-6.601 -1.951,-3.325 -3.82,-6.696 -1.869,-3.372 -3.654,-6.789 -1.785,-3.417 -3.486,-6.876 -1.701,-3.46 -3.316,-6.96 -1.615,-3.501 -3.144,-7.04 -1.529,-3.539 -2.97,-7.115 -1.441,-3.575 -2.793,-7.185 -1.353,-3.61 -2.617,-7.252 -1.263,-3.642 -2.437,-7.315 -1.173,-3.672 -2.256,-7.372 -1.083,-3.699 -2.075,-7.425 -0.991,-3.725 -1.8910001,-7.474 -0.899,-3.748 -1.707,-7.518 -0.807,-3.77 -1.521,-7.558 c -15.742,-82.696 -0.888,-167.765 46.8500001,-237.729 q 4.609,-6.845 9.57,-13.438 4.961,-6.594 10.262,-12.918 5.3,-6.324 10.926,-12.361 5.625,-6.036998 11.559,-11.770998 c 42.954,-41.108 102.086,-72.508 160.607,-83.5370004 78.709,-14.834 165.639,1.283 232.037,46.8190004 11.435,7.842 23.089,15.899 33.528,25.049 q 2.429,2.157 4.814,4.363 2.384,2.206 4.723,4.461 2.34,2.254 4.632,4.555 2.293,2.302 4.539,4.65 2.245,2.347 4.442,4.74 2.198,2.392998 4.346,4.829998 2.148,2.437 4.246,4.917 2.098,2.481 4.145,5.003 2.047,2.523 4.042,5.086 1.995,2.564 3.938,5.168 1.943,2.603 3.832,5.246 1.889,2.643 3.724,5.324 1.835,2.68 3.615,5.398 1.78,2.717 3.505,5.471 1.724,2.753 3.392,5.54 1.668,2.788 3.279,5.609 1.611,2.821 3.164,5.675 1.553,2.853 3.048,5.737 1.494,2.885 2.93,5.799 1.436,2.914 2.812,5.857 1.376,2.943 2.692,5.913 1.316,2.97 2.571,5.966 1.255,2.997 2.449,6.018 1.193,3.021 2.325,6.066 1.132,3.045 2.202,6.113 1.07,3.067 2.077,6.156 1.007,3.088 1.952,6.196 0.944,3.109 1.824,6.236 0.881,3.127 1.698,6.271 0.816,3.144 1.569,6.305 0.752,3.16 1.441,6.335 0.688,3.175 1.311,6.363 c 15.596,83.908 -0.346,169.287 -49.029,239.903 q -5.495,7.97 -11.474,15.583 -5.978,7.613 -12.418,14.841 -6.44,7.227 -13.316,14.041 -6.876,6.814 -14.162,13.188 c -46.164,40.946 -97.847,64.701 -158.499,75.806 l -0.876,0.05 c -8.305,0.528 -16.673,2.712 -25.019,3.476 q -9.008,0.789 -18.046,1.064 -9.038,0.275 -18.077,0.034 -9.039,-0.241 -18.05,-0.996 -9.011,-0.755 -17.964,-2.023 z"
     id="path20" />
  <path
     fill="#017e45"
     d="m 498.47218,77.474432 c 6.801,2.95 13.788,10.204 19.257,15.233 -2.408,0.624 -4.943,0.653 -7.287,1.36 -0.292,-0.132 -0.42,-0.484 -0.617,-0.736 -3.679,-4.72 -9.038,-10.411 -11.353,-15.857 z"
     id="path21" />
  <path
     fill="#0c5940"
     d="m 517.72918,92.707432 c 9.117,6.746 17.276,16.736998 24.591,25.384998 q 3.476,4.074 6.808,8.267 3.332,4.192 6.516,8.499 3.184,4.306 6.215,8.721 3.032,4.415 5.907,8.933 2.876,4.518 5.592,9.133 2.717,4.616 5.27,9.323 2.554,4.708 4.942,9.501 2.388,4.794 4.607,9.668 2.219,4.874 4.267,9.823 2.047,4.948 3.921,9.965 1.874,5.017 3.572,10.097 1.698,5.079 3.217,10.214 1.519,5.136 2.859,10.321 1.339,5.185 2.497,10.414 1.158,5.229 2.132,10.495 0.975,5.266 1.765,10.563 0.558,3.714 1.023,7.44 0.465,3.726 0.838,7.463 0.373,3.737 0.652,7.482 0.279,3.745 0.466,7.496 0.186,3.75 0.279,7.504 0.093,3.755 0.093,7.51 -0.001,3.755 -0.095,7.51 -0.093,3.754 -0.281,7.504 -0.187,3.751 -0.467,7.496 -0.28,3.745 -0.654,7.481 -0.373,3.737 -0.839,7.463 -0.466,3.727 -1.025,7.44 -0.558,3.714 -1.209,7.412 -0.651,3.699 -1.394,7.38 -0.742,3.681 -1.576,7.343 -0.834,3.661 -1.759,7.301 -0.925,3.64 -1.939,7.255 -1.015,3.616 -2.12,7.205 -1.104,3.589 -2.298,7.15 -1.193,3.561 -2.475,7.091 -1.281,3.529 -2.65,7.026 -1.369,3.497 -2.824,6.959 -1.456,3.462 -2.997,6.887 -1.541,3.424 -3.167,6.809 -1.626,3.386 -3.335,6.729 -1.709,3.344 -3.501,6.644 -1.793,3.3 -3.666,6.555 -1.874,3.254 -3.828,6.461 -1.953,3.207 -3.986,6.365 -2.033,3.157 -4.144,6.263 -2.111,3.106 -4.299,6.158 -2.187,3.053 -4.45,6.05 c -48.451,65.333 -124.154,108.062 -204.243,119.835 -54.628,8.031 -108.151,-1.226 -158.073,-24.157 -18.318,-8.415 -35.528,-17.989 -51.709,-30.039 -11.932,-8.885 -33.791,-25.696 -42.377,-37.504 0.823,0.013 1.581,-0.039 2.371,0.235 5.708,1.981 11.792,6.131 17.186,9.037 12.522,6.745 24.965,13.575 37.77,19.781 q 6.726,3.305 13.581,6.336 6.854,3.03 13.825,5.781 6.971,2.752 14.048,5.219 7.077,2.467 14.247,4.647 7.171,2.179 14.423,4.067 7.253,1.888 14.576,3.482 7.323,1.593 14.705,2.89 7.381,1.296 14.809,2.293 c 76.809,9.81 153.665,-8.783 215.154,-56.462 61.046,-47.335 98.032,-120.077 107.468,-196.165 q 0.617,-5.26 1.036,-10.54 0.419,-5.28 0.64,-10.572 0.22,-5.292 0.241,-10.589 0.022,-5.296 -0.156,-10.59 -0.178,-5.293 -0.555,-10.576 -0.376,-5.283 -0.951,-10.549 -0.575,-5.265 -1.348,-10.505 -0.772,-5.24 -1.741,-10.447 c -2.894,-15.53 -6.497,-31.298 -11.81,-46.197 -14.544,-40.786 -40.959,-79.571 -67.455,-113.504998 2.344,-0.707 4.879,-0.736 7.287,-1.36 z"
     id="path22" />
  <defs
     id="defs23">
    <linearGradient
       id="gradient_0"
       gradientUnits="userSpaceOnUse"
       x1="658.09174"
       y1="743.90375"
       x2="458.61496"
       y2="439.1741"
       gradientTransform="translate(-198.08282,-193.16657)">
      <stop
         offset="0"
         stop-color="#126B4E"
         id="stop22" />
      <stop
         offset="1"
         stop-color="#019357"
         id="stop23" />
    </linearGradient>
  </defs>
  <path
     fill="url(#gradient_0)"
     d="m 509.82518,93.331432 c 0.197,0.252 0.325,0.604 0.617,0.736 26.496,33.933998 52.911,72.718998 67.455,113.504998 5.313,14.899 8.916,30.667 11.81,46.197 q 0.969,5.207 1.741,10.447 0.773,5.24 1.348,10.505 0.575,5.266 0.951,10.549 0.377,5.283 0.555,10.576 0.178,5.294 0.156,10.59 -0.021,5.297 -0.241,10.589 -0.221,5.292 -0.64,10.572 -0.419,5.28 -1.036,10.54 c -9.436,76.088 -46.422,148.83 -107.468,196.165 -61.489,47.679 -138.345,66.272 -215.154,56.462 q -7.428,-0.997 -14.809,-2.293 -7.382,-1.297 -14.705,-2.89 -7.323,-1.594 -14.576,-3.482 -7.252,-1.888 -14.423,-4.067 -7.17,-2.18 -14.247,-4.647 -7.077,-2.467 -14.048,-5.219 -6.971,-2.751 -13.825,-5.781 -6.855,-3.031 -13.581,-6.336 c -12.805,-6.206 -25.248,-13.036 -37.77,-19.781 -5.394,-2.906 -11.478,-7.056 -17.186,-9.037 -0.79,-0.274 -1.548,-0.222 -2.371,-0.235 -16.838,-16.487 -39.683,-48.213 -49.778,-69.429 1.51,0.324 3.175,0.661 4.718,0.398 2.462,-0.419 3.711,-1.968 5.07,-3.914 5.072,2.879 9.597,7.274 14.472,10.6 8.149,5.559 16.798,10.42 25.318,15.381 2.005,1.168 4.822,2.356 6.536,3.859 8.943,3.498 53.472,26.454 60.671,23.494 0.15,-0.062 0.28,-0.165 0.42,-0.248 3.382,1.837 6.642,4.712 9.737,7.01 5.284,3.921 10.576,7.669 16.204,11.085 31.952,19.39 70.702,32.982 108.176,34.999 66.99,3.607 129.513,-16.45 179.705,-61.555 q 2.192,-1.974 4.336,-4.002 2.144,-2.027 4.238,-4.106 2.093,-2.079 4.135,-4.209 2.043,-2.129 4.033,-4.308 1.989,-2.178 3.926,-4.405 1.936,-2.226 3.817,-4.499 1.881,-2.273 3.707,-4.591 1.825,-2.318 3.593,-4.68 1.768,-2.362 3.479,-4.767 1.71,-2.404 3.361,-4.849 1.651,-2.445 3.242,-4.93 1.591,-2.485 3.121,-5.008 1.53,-2.523 2.998,-5.082 1.468,-2.56 2.873,-5.154 1.405,-2.595 2.747,-5.223 1.341,-2.627 2.618,-5.287 1.277,-2.66 2.489,-5.35 1.212,-2.69 2.358,-5.409 1.146,-2.719 2.225,-5.465 1.079,-2.746 2.091,-5.518 1.012,-2.772 1.956,-5.567 0.944,-2.795 1.82,-5.613 0.876,-2.817 1.683,-5.655 0.807,-2.839 1.544,-5.695 0.737,-2.857 1.405,-5.731 0.667,-2.874 1.265,-5.764 0.597,-2.889 1.124,-5.792 0.526,-2.904 0.982,-5.819 0.456,-2.915 0.84,-5.84 0.385,-2.926 0.698,-5.859 0.313,-2.934 0.555,-5.875 0.241,-2.94 0.411,-5.886 c 3.158,-60.991 -12.584,-116.756 -50.516,-164.903 -7.689,-9.759 -16.694,-17.884 -24.964,-27.058 1.758,-5.523 -10.439,-21.972 -1.288,-38.438 4.93,-8.871998 12.775,-8.360998 21.733,-8.487998 1.538,-0.022 3.481,0.175 4.95,-0.304 0.206,-0.067 0.409,-0.144 0.613,-0.216 z"
     id="path23"
     style="fill:url(#gradient_0)" />
  <path
     fill="#d5f2d9"
     d="m 102.42118,490.73543 c -0.512,-0.59 -1.138,-1.24 -1.502,-1.933 -0.614,-1.168 -0.378,-1.974 0.007,-3.145 1.212,-1.21 2.186,-1.41 3.788,-1.766 0.515,0.649 1.128,1.35 1.498,2.092 0.577,1.159 0.462,1.967 0.108,3.145 -1.285,1.178 -2.199,1.343 -3.899,1.607 z"
     id="path24" />
  <path
     fill="#08b869"
     d="m 508.96218,122.91743 c 2.436,-0.213 4.745,-0.449 7.091,0.421 q 0.611,0.229 1.196,0.519 0.584,0.29 1.137,0.637 0.553,0.346 1.068,0.747 0.515,0.401 0.987,0.851 0.472,0.45 0.897,0.946 0.425,0.495 0.798,1.031 0.372,0.535 0.69,1.105 0.317,0.571 0.575,1.17 c 1.396,3.166 1.584,6.908 0.242,10.124 -1.638,3.93 -4.545,5.713 -8.304,7.328 -2.486,0.15 -4.765,0.272 -7.144,-0.623 q -0.61,-0.226 -1.195,-0.511 -0.585,-0.286 -1.139,-0.628 -0.553,-0.341 -1.07,-0.737 -0.518,-0.395 -0.993,-0.839 -0.475,-0.445 -0.904,-0.934 -0.429,-0.489 -0.807,-1.019 -0.379,-0.529 -0.703,-1.094 -0.324,-0.564 -0.59,-1.158 -0.254,-0.576 -0.449,-1.174 -0.194,-0.599 -0.329,-1.213 -0.134,-0.615 -0.206,-1.24 -0.073,-0.626 -0.082,-1.255 -0.01,-0.629 0.043,-1.256 0.054,-0.627 0.169,-1.246 0.116,-0.619 0.292,-1.223 0.177,-0.604 0.413,-1.187 c 1.587,-3.904 4.55,-5.999 8.317,-7.542 z"
     id="path25" />
  <path
     fill="#08b869"
     d="m 44.81918,450.93343 c -3.265,-5.715 -5.528,-13.173 -7.891,-19.338 -12.7,-33.142 -19.651,-63.395 -21.912,-98.944 q -0.263,-3.604 -0.436,-7.214 -0.173,-3.61 -0.257,-7.223 -0.084,-3.613 -0.079,-7.227 0.006,-3.614 0.101,-7.227 0.095,-3.613 0.279,-7.222 0.184,-3.609 0.458,-7.213 0.273,-3.603 0.636,-7.199 0.363,-3.596 0.814,-7.182 0.452,-3.585 0.992,-7.159 0.54,-3.573 1.169,-7.132 0.628,-3.559 1.344,-7.101 0.717,-3.542 1.521,-7.066 0.803,-3.523 1.694,-7.026 0.891,-3.502 1.868,-6.982 0.977,-3.479 2.04,-6.933 1.063,-3.454 2.211,-6.881 1.148,-3.427 2.381,-6.824 1.233,-3.398 2.549,-6.763 1.316,-3.366 2.715,-6.698 1.399,-3.332 2.881,-6.629 1.481,-3.296 3.043,-6.555 1.563,-3.259 3.205,-6.478 1.643,-3.219 3.364,-6.397 1.722,-3.177 3.522,-6.311 1.8,-3.134 3.677,-6.223 1.877,-3.088 3.829,-6.129 1.953,-3.041 3.98,-6.033 2.028,-2.992 4.128,-5.932 2.101,-2.941 4.274,-5.829 2.173,-2.888 4.417,-5.721 2.244,-2.833 4.557,-5.61 2.313,-2.776 4.694,-5.495 2.471,-2.836 5.012,-5.611 2.54,-2.775 5.147,-5.486 2.608,-2.712 5.282,-5.358 2.673,-2.646998 5.411,-5.226998 2.738,-2.58 5.538,-5.092 2.8,-2.512 5.662,-4.954 2.861,-2.442 5.782,-4.814 2.92,-2.371 5.898,-4.67 2.978,-2.299 6.011,-4.523 3.034,-2.225 6.121,-4.375 3.087,-2.149 6.226,-4.222 3.14,-2.074 6.329,-4.069 3.189,-1.995 6.426,-3.911 3.237,-1.917 6.521,-3.753 3.283,-1.836 6.611,-3.591 3.327,-1.754 6.697,-3.427 3.37,-1.672 6.78,-3.262 3.409,-1.589 6.857,-3.094 3.448,-1.504 6.932,-2.924 3.483,-1.42 7.001,-2.753 3.518,-1.334 7.067,-2.58 3.549,-1.247 7.128,-2.406 3.579,-1.159 7.185,-2.23 3.607,-1.071 7.238,-2.052 3.632,-0.982 7.286,-1.874 3.655,-0.893 7.33,-1.695 3.676,-0.802 7.37,-1.513 3.694,-0.712 7.404,-1.332 3.711,-0.62 7.435,-1.15 3.725,-0.529 7.461,-0.966 3.737,-0.437 7.483,-0.783 3.746,-0.345 7.499,-0.598 2.691,-0.15 5.384,-0.252 2.694,-0.103 5.388,-0.157 2.695,-0.054 5.39,-0.06 2.695,-0.007 5.39,0.035 2.695,0.042 5.389,0.132 2.694,0.089 5.385,0.227 2.692,0.138 5.381,0.323 2.689,0.186 5.374,0.419 2.685,0.234 5.365,0.515 2.681,0.281 5.356,0.61 2.675,0.329 5.344,0.705 2.668,0.376 5.33,0.8 2.662,0.424 5.315,0.895 2.654,0.472 5.299,0.99 2.645,0.518 5.28,1.084 2.635,0.565 5.26,1.177 2.625,0.612 5.238,1.271 2.614,0.659 5.215,1.364 2.601,0.706 5.19,1.457 2.588,0.752 5.162,1.549 2.575,0.797 5.135,1.64 2.56,0.844 5.104,1.732 2.545,0.889 5.073,1.823 2.529,0.933 5.04,1.912 2.511,0.978 5.004,2.002 2.494,1.023 4.969,2.09 2.475,1.068 4.93,2.179 2.455,1.111 4.891,2.266 2.435,1.155 4.849,2.353 2.415,1.198 4.807,2.439 2.393,1.24 4.763,2.524 2.37,1.283 4.717,2.608 c 12.56,6.978 25.229,14.559 36.038,24.08 2.315,5.446 7.674,11.137 11.353,15.857 -0.204,0.072 -0.407,0.149 -0.613,0.216 -1.469,0.479 -3.412,0.282 -4.95,0.304 -8.958,0.127 -16.803,-0.384 -21.733,8.487998 -9.151,16.466 3.046,32.915 1.288,38.438 -10.499,-9.557 -21.069,-18.465 -32.893,-26.363 q -1.994,-1.319 -4.014,-2.599 -2.02,-1.28 -4.065,-2.521 -2.044,-1.24 -4.112,-2.44 -2.069,-1.2 -4.16,-2.359 -2.092,-1.16 -4.205,-2.278 -2.114,-1.118 -4.249,-2.195 -2.135,-1.076998 -4.291,-2.111998 -2.156,-1.034 -4.332,-2.027 -2.175,-0.992 -4.37,-1.942 -2.194,-0.949 -4.407,-1.856 -2.213,-0.907 -4.443,-1.77 -2.23,-0.863 -4.477,-1.682 -2.246,-0.82 -4.508,-1.595 -2.262,-0.775 -4.539,-1.506 -2.277,-0.731 -4.568,-1.417 -2.29,-0.686 -4.594,-1.328 -2.304,-0.641 -4.62,-1.237 -2.315,-0.596 -4.642,-1.147 -2.327,-0.551 -4.665,-1.056 -2.337,-0.505 -4.684,-0.964 -2.346,-0.46 -4.702,-0.873 -2.355,-0.413 -4.718,-0.781 -2.363,-0.367 -4.733,-0.688 -2.369,-0.321 -4.745,-0.595 -2.375,-0.275 -4.756,-0.503 -2.38,-0.228 -4.764,-0.409 -2.385,-0.182 -4.772,-0.317 -2.388,-0.134 -4.777,-0.222 -2.39,-0.089 -4.781,-0.13 -2.391,-0.041 -4.782,-0.036 -2.391,0.006 -4.782,0.058 -2.391,0.052 -4.78,0.151 -3.134,0.153 -6.263,0.382 -3.129,0.23 -6.252,0.537 -3.123,0.306 -6.237,0.69 -3.114,0.383 -6.217,0.843 -3.104,0.46 -6.196,0.997 -3.091,0.536 -6.168,1.148 -3.078,0.613 -6.139,1.3 -3.061,0.688 -6.105,1.451 -3.043,0.763 -6.067,1.601 -3.024,0.838 -6.026,1.75 -3.002,0.911 -5.981,1.897 -2.979,0.985 -5.932,2.044 -2.954,1.059 -5.881,2.19 -2.926,1.131 -5.824,2.333 -2.898,1.203 -5.766,2.477 -2.867,1.273 -5.702,2.617 -2.836,1.344 -5.637,2.756998 -2.801,1.414 -5.567,2.896 -2.766,1.481 -5.494,3.031 -2.728,1.549 -5.418,3.165 -2.689,1.617 -5.338,3.299 -2.648,1.681 -5.255,3.428 -2.606,1.747 -5.169,3.557 -2.563,1.81 -5.08,3.683 -2.518,1.873 -4.988,3.807 -2.471,1.934 -4.893,3.929 -2.422,1.994 -4.794,4.048 -2.373,2.053 -4.694,4.164 -2.321,2.112 -4.589,4.279 -2.268,2.168 -4.483,4.391 -2.214,2.223 -4.373,4.5 -2.159,2.277 -4.261,4.606 -1.933,2.108 -3.813,4.264 -1.88,2.156 -3.705,4.358 -1.826,2.202 -3.596,4.448 -1.77,2.247 -3.483,4.537 -1.714,2.29 -3.37,4.623 -1.656,2.332 -3.253,4.705 -1.597,2.372 -3.135,4.784 -1.537,2.412 -3.014,4.861 -1.477,2.45 -2.893,4.935 -1.415,2.486 -2.768,5.006 -1.353,2.52 -2.643,5.073 -1.29,2.553 -2.515,5.137 -1.226,2.584 -2.387,5.198 -1.161,2.615 -2.256,5.257 -1.096,2.642 -2.125,5.311 -1.029,2.668 -1.991,5.362 -0.963,2.693 -1.857,5.41 -0.895,2.717 -1.722,5.455 -0.827,2.738 -1.585,5.496 -0.759,2.758 -1.448,5.534 -0.689,2.776 -1.309,5.568 -0.62,2.792 -1.17,5.599 -0.55,2.807 -1.03,5.627 -0.48,2.819 -0.89,5.65 -0.409,2.831 -0.748,5.671 -0.339,2.84 -0.607,5.688 -0.268,2.847 -0.464,5.701 -0.197,2.853 -0.323,5.711 -0.125,2.857 -0.18,5.717 -0.054,2.86 -0.037,5.72 0.017,2.86 0.105,5.719 0.088,2.859 0.248,5.715 c 3.228,61.993 31.637,124.338 77.984,165.947 6.037,5.42 12.505,10.279 18.687,15.515 -0.14,0.083 -0.27,0.186 -0.42,0.248 -7.199,2.96 -51.728,-19.996 -60.671,-23.494 -1.714,-1.503 -4.531,-2.691 -6.536,-3.859 -8.52,-4.961 -17.169,-9.822 -25.318,-15.381 -4.875,-3.326 -9.4,-7.721 -14.472,-10.6 -1.359,1.946 -2.608,3.495 -5.07,3.914 -1.543,0.263 -3.208,-0.074 -4.718,-0.398 -0.154,-0.224 -0.304,-0.45 -0.462,-0.672 -1.401,-1.975 -2.405,-3.707 -3.319,-5.962 z"
     id="path26" />
  <path
     fill="#d5f2d9"
     d="m 48.08918,252.27543 c 1.824,0.522 3.265,1.038 4.362,2.678 0.86,1.287 1.085,2.835 0.591,4.31 -0.684,2.042 -2.145,2.984 -3.987,3.871 -0.548,-0.08 -0.849,-0.108 -1.413,-0.277 -1.77,-0.53 -3.279,-1.565 -4.029,-3.306 -0.569,-1.321 -0.466,-2.581 0.061,-3.903 0.785,-1.97 2.591,-2.678 4.415,-3.373 z"
     id="path27" />
  <path
     fill="#d5f2d9"
     d="m 166.95018,78.829432 c 1.748,0.28 3.681,0.637 4.77,2.203 0.906,1.302 1.268,2.622 0.874,4.184 -0.622,2.459 -2.111,3.55 -4.225,4.742 -0.19,-0.035 -0.382,-0.06 -0.571,-0.104 -2.072,-0.475 -3.906,-1.414 -4.893,-3.407 -0.629,-1.27 -0.633,-2.478 -0.229,-3.812 0.623,-2.058 2.46,-2.992 4.274,-3.806 z"
     id="path28" />
  <path
     fill="#d5f2d9"
     d="m 41.36118,382.38943 c 1.035,0.119 2.15,0.219 3.116,0.63 1.709,0.728 3.076,2.303 3.68,4.045 0.634,1.828 0.44,3.828 -0.44,5.542 -1.124,2.191 -2.719,2.954 -4.957,3.735 -0.896,-0.128 -1.791,-0.239 -2.647,-0.546 -1.782,-0.639 -3.234,-1.952 -3.976,-3.705 -0.746,-1.762 -0.662,-3.733 0.112,-5.47 1.04,-2.335 2.848,-3.302 5.112,-4.231 z"
     id="path29" />
  <path
     fill="#d5f2d9"
     d="m 44.81918,450.93343 c 0.929,-2.492 2.027,-4.657 4.535,-5.866 1.657,-0.799 3.611,-0.95 5.323,-0.229 1.735,0.731 3.022,2.25 3.657,3.999 0.641,1.764 0.348,3.409 0.054,5.214 -1.359,1.946 -2.608,3.495 -5.07,3.914 -1.543,0.263 -3.208,-0.074 -4.718,-0.398 -0.154,-0.224 -0.304,-0.45 -0.462,-0.672 -1.401,-1.975 -2.405,-3.707 -3.319,-5.962 z"
     id="path30" />
  <path
     fill="#d5f2d9"
     d="m 192.69218,55.359432 c 1.647,0.012 3.185,0.222 4.731,0.832 q 0.517,0.201 1.011,0.455 0.493,0.255 0.957,0.56 0.464,0.305 0.893,0.657 0.43,0.352 0.819,0.748 0.39,0.395 0.736,0.829 0.345,0.435 0.643,0.903 0.299,0.468 0.546,0.965 0.247,0.498 0.44,1.018 0.193,0.518 0.332,1.054 0.138,0.536 0.22,1.083 0.082,0.547 0.107,1.1 0.025,0.553 -0.008,1.105 -0.033,0.553 -0.123,1.099 -0.09,0.546 -0.236,1.079 -0.146,0.534 -0.347,1.049 -0.201,0.516 -0.454,1.008 c -1.716,3.386 -4.313,4.8 -7.812,5.875 -1.776,0.052 -3.398,-0.045 -5.082,-0.668 -2.545,-0.943 -4.677,-2.805 -5.769,-5.309 -1.179,-2.702 -1.082,-5.834 0.109,-8.514 1.703,-3.834 4.476,-5.553 8.287,-6.928 z"
     id="path31" />
  <path
     fill="#5a1d4e"
     d="m 165.80518,507.13743 c -6.182,-5.236 -12.65,-10.095 -18.687,-15.515 -46.347,-41.609 -74.756,-103.954 -77.984,-165.947 q -0.16,-2.856 -0.248,-5.715 -0.088,-2.859 -0.105,-5.719 -0.017,-2.86 0.037,-5.72 0.055,-2.86 0.18,-5.717 0.126,-2.858 0.323,-5.711 0.196,-2.854 0.464,-5.701 0.268,-2.848 0.607,-5.688 0.339,-2.84 0.748,-5.671 0.41,-2.831 0.89,-5.65 0.48,-2.82 1.03,-5.627 0.55,-2.807 1.17,-5.599 0.62,-2.792 1.309,-5.568 0.689,-2.776 1.448,-5.534 0.758,-2.758 1.585,-5.496 0.827,-2.738 1.722,-5.455 0.895,-2.717 1.857,-5.41 0.962,-2.694 1.991,-5.362 1.029,-2.669 2.125,-5.311 1.095,-2.642 2.256,-5.257 1.161,-2.614 2.387,-5.198 1.225,-2.584 2.515,-5.137 1.29,-2.553 2.643,-5.073 1.353,-2.52 2.768,-5.006 1.416,-2.485 2.893,-4.935 1.477,-2.449 3.014,-4.861 1.538,-2.412 3.135,-4.784 1.597,-2.373 3.253,-4.705 1.656,-2.333 3.37,-4.623 1.713,-2.29 3.483,-4.537 1.77,-2.246 3.596,-4.448 1.825,-2.202 3.705,-4.358 1.88,-2.156 3.813,-4.264 2.102,-2.329 4.261,-4.606 2.159,-2.277 4.373,-4.5 2.215,-2.223 4.483,-4.391 2.268,-2.167 4.589,-4.279 2.321,-2.111 4.694,-4.164 2.372,-2.054 4.794,-4.048 2.422,-1.995 4.893,-3.929 2.47,-1.934 4.988,-3.807 2.517,-1.873 5.08,-3.683 2.563,-1.81 5.169,-3.557 2.607,-1.747 5.255,-3.428 2.649,-1.682 5.338,-3.299 2.69,-1.616 5.418,-3.165 2.728,-1.55 5.494,-3.031 2.766,-1.482 5.567,-2.896 2.801,-1.412998 5.637,-2.756998 2.835,-1.344 5.702,-2.617 2.868,-1.274 5.766,-2.477 2.898,-1.202 5.824,-2.333 2.927,-1.131 5.881,-2.19 2.953,-1.059 5.932,-2.044 2.979,-0.986 5.981,-1.897 3.002,-0.912 6.026,-1.75 3.024,-0.838 6.067,-1.601 3.044,-0.763 6.105,-1.451 3.061,-0.687 6.139,-1.3 3.077,-0.612 6.168,-1.148 3.092,-0.537 6.196,-0.997 3.103,-0.46 6.217,-0.843 3.114,-0.384 6.237,-0.69 3.123,-0.307 6.252,-0.537 3.129,-0.229 6.263,-0.382 2.389,-0.099 4.78,-0.151 2.391,-0.052 4.782,-0.058 2.391,-0.005 4.782,0.036 2.391,0.041 4.781,0.13 2.389,0.088 4.777,0.222 2.387,0.135 4.772,0.317 2.384,0.181 4.765,0.409 2.38,0.228 4.755,0.503 2.376,0.274 4.745,0.595 2.37,0.321 4.733,0.688 2.363,0.368 4.718,0.781 2.356,0.413 4.702,0.873 2.347,0.459 4.684,0.964 2.338,0.505 4.665,1.056 2.327,0.551 4.642,1.147 2.316,0.596 4.62,1.237 2.304,0.642 4.594,1.328 2.291,0.686 4.568,1.417 2.277,0.731 4.539,1.506 2.262,0.775 4.509,1.595 2.246,0.819 4.476,1.682 2.23,0.863 4.443,1.77 2.213,0.906 4.407,1.856 2.195,0.95 4.37,1.942 2.176,0.993 4.332,2.027 2.156,1.035 4.291,2.111998 2.135,1.077 4.249,2.195 2.113,1.118 4.205,2.278 2.091,1.159 4.16,2.359 2.068,1.2 4.112,2.44 2.045,1.241 4.065,2.521 2.02,1.28 4.014,2.599 c 11.824,7.898 22.394,16.806 32.893,26.363 8.27,9.174 17.275,17.299 24.964,27.058 37.932,48.147 53.674,103.912 50.516,164.903 q -0.17,2.946 -0.411,5.886 -0.242,2.941 -0.555,5.875 -0.313,2.933 -0.698,5.859 -0.384,2.925 -0.84,5.84 -0.456,2.916 -0.982,5.819 -0.527,2.903 -1.124,5.792 -0.598,2.89 -1.265,5.764 -0.668,2.874 -1.405,5.731 -0.737,2.856 -1.544,5.695 -0.807,2.838 -1.683,5.655 -0.876,2.818 -1.82,5.613 -0.944,2.795 -1.956,5.567 -1.012,2.771 -2.091,5.517 -1.079,2.747 -2.225,5.466 -1.146,2.718 -2.358,5.409 -1.212,2.69 -2.489,5.35 -1.277,2.659 -2.619,5.287 -1.341,2.628 -2.746,5.223 -1.405,2.594 -2.873,5.154 -1.468,2.559 -2.998,5.082 -1.53,2.523 -3.121,5.008 -1.591,2.484 -3.242,4.93 -1.651,2.445 -3.361,4.849 -1.71,2.405 -3.479,4.767 -1.768,2.362 -3.593,4.68 -1.826,2.318 -3.707,4.591 -1.881,2.273 -3.817,4.499 -1.937,2.227 -3.926,4.405 -1.99,2.179 -4.033,4.308 -2.042,2.13 -4.136,4.209 -2.093,2.079 -4.237,4.106 -2.144,2.028 -4.336,4.002 c -50.192,45.105 -112.715,65.162 -179.705,61.555 -37.474,-2.017 -76.224,-15.609 -108.176,-34.999 -5.628,-3.416 -10.92,-7.164 -16.204,-11.085 -3.095,-2.298 -6.355,-5.173 -9.737,-7.01 z"
     id="path32" />
  <path
     fill="#fec967"
     d="m 87.10318,377.22743 c 2.986,1.651 5.416,3.442 7.937,5.721 0.537,2.957 3.671,17.726 2.026,19.662 -0.132,0.154 -0.314,0.257 -0.471,0.385 -3.997,-8.043 -6.689,-17.25 -9.492,-25.768 z"
     id="path33" />
  <path
     fill="#af5529"
     d="m 534.48218,234.89643 c 0.398,0.177 0.714,0.565 0.926,0.933 1.63,2.835 3.604,8.314 3.073,11.516 -0.511,0.664 -0.618,1.08 -1.474,1.317 -3.312,0.916 -8.189,-1.819 -11.158,-3.284 -3.155,-2.224 -5.828,-4.786 -8.527,-7.533 6.1,0.092 11.39,-1.046 17.16,-2.949 z"
     id="path34" />
  <path
     fill="#fe8b93"
     d="m 490.16618,163.62643 3.341,4.158 c -1.285,4.642 -2.463,9.35 -4,13.916 -6.068,10.025 -17.567,8.639 -19.98,21.878 -0.441,2.42 -0.166,4.907 -0.461,7.327 -1.618,-3.955 -3.473,-8.566 -2.765,-12.913 1.108,-6.806 8.739,-9.334 13.701,-12.864 7.626,-5.426 8.57,-12.968 10.164,-21.502 z"
     id="path35" />
  <path
     fill="#fe8b93"
     d="m 80.60418,348.49843 c 11.399,2.494 18.948,8.903 25.18,18.635 3.469,5.419 6.937,12.166 5.991,18.764 -0.948,-1.232 -1.165,-3.145 -1.584,-4.641 -2.624,-9.369 -15.057,-22.153 -23.617,-26.926 0.779,5.489 2.239,10.805 2.541,16.369 -2.202,-0.943 -3.137,-1.203 -4.12,-3.524 -2.478,-5.848 -2.933,-12.528 -4.391,-18.677 z"
     id="path36" />
  <path
     fill="#dc2671"
     d="m 86.57418,354.33043 c 8.56,4.773 20.993,17.557 23.617,26.926 0.419,1.496 0.636,3.409 1.584,4.641 l -0.315,0.225 -1.013,-0.32 1.174,0.35 -1.111,0.524 0.126,-0.638 c -3.452,-1.807 -6.619,-4.985 -9.7,-7.402 -3.776,-2.962 -7.665,-5.54 -11.821,-7.937 -0.302,-5.564 -1.762,-10.88 -2.541,-16.369 z"
     id="path37" />
  <path
     fill="#af5529"
     d="m 446.80718,125.52643 c 14.266,8 27.223,20.155 38.603,31.814 -1.394,4.154 -2.46,8.159 -2.702,12.556 -0.204,-4.688 -18.567,-25.595 -22.692,-29.966 -3.337,-3.535 -11.878,-10.391 -13.209,-14.404 z"
     id="path38" />
  <path
     fill="#fec967"
     d="m 102.09218,229.57843 c -1.441,-0.073 -2.299,-0.094 -3.508,-1 -1.34,-2.078 -1.131,-3.758 -0.632,-6.079 2.716,-12.639 25.746,-48.663 37.422,-55.69 2.448,-1.473 5.269,-2.471 8.121,-1.643 1.602,0.466 2.336,1.281 3.152,2.672 -4.346,6.049 -9.162,6.707 -14.474,11.116 -11.581,9.611 -28.885,35.415 -30.081,50.624 z"
     id="path39" />
  <path
     fill="#ee9523"
     d="m 146.64718,167.83843 c -0.538,5.707 -6.962,12.482 -10.056,17.255 -6.142,9.477 -9.261,20.455 -15.322,29.963 -1.87,2.933 -4.203,5.202 -6.871,7.405 -3.722,3.075 -7.835,5.335 -12.306,7.117 1.196,-15.209 18.5,-41.013 30.081,-50.624 5.312,-4.409 10.128,-5.067 14.474,-11.116 z"
     id="path40" />
  <path
     fill="#dc2671"
     d="m 469.06618,210.90543 c 0.295,-2.42 0.02,-4.907 0.461,-7.327 2.413,-13.239 13.912,-11.853 19.98,-21.878 6.219,10.983 11.81,31.176 12.002,43.996 -7.599,-1.916 -16.711,-1.174 -23.813,-4.527 -4.537,-2.143 -7.017,-5.625 -8.63,-10.264 z"
     id="path41" />
  <path
     fill="#ab2c53"
     d="m 493.50718,167.78443 c 16.204,15.501 30.901,39.618 38.892,60.515 -14.8,6.152 -17.636,1.059 -30.89,-2.603 -0.192,-12.82 -5.783,-33.013 -12.002,-43.996 1.537,-4.566 2.715,-9.274 4,-13.916 z"
     id="path42" />
  <path
     fill="#fe8b93"
     d="m 308.16918,361.80943 c -6.215,-5.926 -11.252,-13.511 -12.129,-22.242 -0.823,-8.189 2.945,-16.743 8.024,-23.031 8.522,-10.55 22.342,-16.057 35.77,-15.348 8.098,0.427 16.129,2.032 24.256,1.054 13.396,-1.612 23.029,-10.104 27.535,-22.622 2.169,-6.027 3.397,-12.321 7.554,-17.413 4.538,-5.559 11.141,-8.533 18.175,-9.261 25.526,-2.642 33.85,20.084 50.836,33.701 -0.2,-0.023 -0.403,-0.024 -0.599,-0.069 -3.034,-0.702 -6.783,-4.503 -9.117,-6.484 -12.377,-10.505 -29.903,-26.418 -47.4,-17.301 -14.527,7.569 -12.029,28.79 -30.861,40.909 -19.016,12.238 -39.976,-1.028 -60.481,10.144 q -1.003,0.544 -1.971,1.148 -0.968,0.605 -1.896,1.268 -0.929,0.663 -1.815,1.382 -0.886,0.719 -1.726,1.491 -0.84,0.772 -1.631,1.594 -0.791,0.823 -1.53,1.693 -0.738,0.869 -1.422,1.783 -0.684,0.913 -1.31,1.867 -1.485,2.265 -2.576,4.744 c -0.532,1.235 -0.997,2.48 -1.363,3.775 -3.106,10.959 1.386,17.827 5.677,27.218 z"
     id="path43" />
  <path
     fill="#fec967"
     d="m 93.26818,233.83243 c 1.451,1.105 2.907,2.09 4.687,2.589 5.389,1.511 10.721,-2.008 15.27,-4.409 -0.629,5.537 -3.342,11.195 -4.672,16.666 -7.21,21.99 -15.108,44.855 -16.898,68.039 -0.698,9.037 0.011,17.921 -0.284,26.924 -4.114,-1.913 -7.836,-2.485 -12.317,-1.804 -2.533,-40.61 0.012,-69.646 14.214,-108.005 z"
     id="path44" />
  <path
     fill="#d06d2a"
     d="m 459.64518,196.38643 c -3.523,-6.358 -4.831,-15.368 -7.65,-22.363 -8.739,-21.69 -27.085,-51.635 -44.189,-67.09 l 0.166,-0.32 c 1.925,0.443 3.554,0.799 5.534,0.536 0.144,-0.019 0.288,-0.044 0.432,-0.067 8.483,3.217 26.25,12.573 32.869,18.444 1.331,4.013 9.872,10.869 13.209,14.404 4.125,4.371 22.488,25.278 22.692,29.966 -1.053,4.93 -2.747,8.013 -7.11,10.802 -6.774,4.329 -13.719,6.528 -15.843,15.219 z"
     id="path45" />
  <path
     fill="#af5529"
     d="m 493.03018,231.24843 q 2.973,0.384 5.953,0.715 c 2.011,0.728 4.316,1.41 6.115,2.577 3.065,1.987 5.306,5.008 7.509,7.852 8.346,10.775 16.488,14.778 30.067,13.92 2.033,8.132 3.537,16.338 5.356,24.512 -14.387,6.539 -30.728,13.711 -46.961,10.777 -3.464,-0.364 -6.893,-1.212 -10.299,-1.938 3.484,-19.603 2.981,-38.641 2.26,-58.415 z"
     id="path46" />
  <path
     fill="#d06d2a"
     d="m 493.03018,231.24843 q 2.973,0.384 5.953,0.715 c -0.226,9.715 0.933,19.554 1.467,29.259 0.556,10.112 0.545,20.255 0.619,30.379 -3.464,-0.364 -6.893,-1.212 -10.299,-1.938 3.484,-19.603 2.981,-38.641 2.26,-58.415 z"
     id="path47" />
  <path
     fill="#fec967"
     d="m 143.96518,157.93043 q 4.414,-4.506 9.056,-8.776 4.642,-4.27 9.5,-8.293 4.858,-4.022 9.919,-7.787 5.061,-3.765 10.31,-7.261 5.25,-3.497 10.674,-6.715 5.425,-3.219 11.009,-6.151 5.584,-2.932 11.314,-5.57 5.729,-2.638 11.588,-4.974 c 56.124,-21.993998 121.565,-23.752998 177.261,0.537 -0.904,0.783 -1.082,1.059 -2.363,0.935 -3.842,-0.37 -8.504,-2.194 -12.277,-3.139 -8.403,-2.105998 -30.04,-6.925998 -37.308,-4.458998 q -5.526,-0.557 -11.079,-0.452 -5.554,0.105 -11.055,0.871 c -4.187,-0.321 -8.497,0.026 -12.697,0.161 -24.227,0.777 -49.08,4.937998 -71.948,13.084998 -3.644,1.298 -7.874,2.614 -11.144,4.646 -24.976,6.676 -47.305,18.974 -67.474,35.01 -3.19,2.536 -13.507,12.537 -15.683,13.548 -0.187,-0.729 -0.349,-1.586 -0.669,-2.266 -0.748,-1.589 -4.59,-2.377 -6.216,-2.778 z"
     id="path48" />
  <path
     fill="#8a3636"
     d="m 501.17418,298.27143 c 18.793,2.145 30.681,-2.496 47.567,-9.774 4.234,25.954 1.353,56.553 -3.731,82.244 -22.953,5.244 -46.918,5.86 -60.592,27.856 -6.579,10.582 -7.732,20.517 -5.753,32.611 0.758,4.631 1.509,9.001 0.479,13.683 -1.377,6.264 -4.951,12.371 -8.742,17.467 -7.3,9.812 -30.302,32.167 -42.416,34.862 -1.11,0.247 -1.968,0.181 -3.077,-0.013 -0.939,-0.81 -1.349,-0.993 -1.294,-2.361 0.098,-2.492 1.261,-5.502 1.904,-7.934 2.344,-8.868 3.208,-15.949 1.742,-25.059 -2.249,-6.44 -4.872,-12.414 -9.677,-17.383 -7.423,-7.677 -16.428,-10.092 -26.81,-10.254 1.972,-0.461 4.023,-0.368 6.039,-0.393 39.773,-29.012 68.354,-64.47 84.399,-111.297 2.968,-8.662 5.099,-17.62 7.363,-26.484 4.185,0.83 8.361,1.715 12.599,2.229 z"
     id="path49" />
  <path
     fill="#ab2c53"
     d="m 488.57518,296.04243 c 4.185,0.83 8.361,1.715 12.599,2.229 -1.043,15.657 -2.705,31.115 -6.294,46.417 -10.398,44.329 -35.798,84.985 -67.619,117.165 -2.249,-6.44 -4.872,-12.414 -9.677,-17.383 -7.423,-7.677 -16.428,-10.092 -26.81,-10.254 1.972,-0.461 4.023,-0.368 6.039,-0.393 39.773,-29.012 68.354,-64.47 84.399,-111.297 2.968,-8.662 5.099,-17.62 7.363,-26.484 z"
     id="path50" />
  <path
     fill="#af5529"
     d="m 421.06018,468.32943 c 0.563,9.795 -5.389,19.39 -3.866,28.774 0.42,2.594 1.422,5.486 3.744,6.974 2.609,1.672 6.219,1.065 9.019,0.288 15.224,-4.221 37.959,-25.765 47.017,-38.573 4.147,-5.865 7.787,-12.896 9.126,-20.01 3.035,-16.138 -7.594,-22.655 3.666,-41.854 12.022,-20.495 33.041,-20.508 53.568,-26.007 -3.654,12.148 -7.696,24.012 -12.867,35.609 q -1.144,2.618 -2.352,5.206 -1.208,2.588 -2.481,5.145 -1.273,2.557 -2.609,5.082 -1.337,2.524 -2.736,5.014 -1.398,2.491 -2.859,4.945 -1.461,2.455 -2.982,4.872 -1.522,2.418 -3.104,4.796 -1.581,2.379 -3.222,4.717 -1.64,2.338 -3.338,4.635 -1.699,2.297 -3.454,4.55 -1.755,2.254 -3.566,4.462 -1.811,2.209 -3.677,4.372 -1.865,2.163 -3.784,4.279 -1.919,2.116 -3.891,4.183 -1.971,2.067 -3.993,4.084 -2.023,2.017 -4.095,3.983 -2.072,1.966 -4.193,3.88 -2.12,1.913 -4.288,3.773 -2.168,1.86 -4.381,3.666 -2.214,1.805 -4.472,3.554 -2.258,1.75 -4.559,3.442 -2.301,1.693 -4.643,3.327 -2.343,1.634 -4.725,3.21 -2.383,1.575 -4.804,3.091 -2.421,1.515 -4.88,2.969 -2.458,1.455 -4.952,2.847 -2.494,1.393 -5.022,2.723 -2.528,1.329 -5.088,2.595 -2.561,1.267 -5.152,2.469 -2.591,1.201 -5.212,2.338 -2.62,1.137 -5.268,2.208 -2.648,1.071 -5.322,2.075 c -55.117,21.108 -119.235,22.381 -173.59,-2.014 -46.626,-20.926 -89.331,-54.225 -115.631,-98.54 -4.573,-7.705 -9.093,-15.852 -12.294,-24.23 1.239,0.379 1.463,0.453 2.265,1.525 2.832,3.787 5.048,8.187 7.654,12.152 6.683,10.171 14.11,20.692 22.04,29.92 19.582,22.788 61.035,47.65 89.997,55.884 2.822,0.802 6.034,3.366 9.026,2.58 0.699,-5.179 0.764,-17.686 -2.139,-21.742 -5.871,-8.205 -27.806,-8.501 -37.108,-10.286 -12.39,-2.377 -24.962,-5.568 -35.031,-13.546 -2.131,-1.688 -5.415,-4.322 -6.265,-6.96 0.179,0.12 0.36,0.237 0.538,0.358 1.8,1.224 3.363,2.969 5.017,4.392 4.813,4.14 9.69,7.306 15.643,9.542 7.671,2.882 16.026,4.537 24.103,5.894 9.51,1.598 22.504,1.388 30.742,6.93 3.014,2.028 4.659,5.338 5.264,8.849 1.734,10.066 -3.528,26.178 6.1,33.439 3.039,2.293 7.769,3.306 11.509,2.766 3.248,-0.468 5.638,-2.342 7.499,-4.965 1.673,-2.358 2.599,-5.032 3.732,-7.663 6.139,-12.107 26.2,-22.315 26.585,-36.23 0.142,-5.145 -2.561,-8.9 -5.962,-12.415 20.502,-1.229 60.26,-11.014 77.948,-21.809 3.829,-0.127 7.3,-0.42 10.994,-1.482 14.722,-4.229 26.888,-13.528 41.199,-0.4 6.04,5.541 8.46,12.523 9.862,20.358 z"
     id="path51" />
  <path
     fill="#d06d2a"
     d="m 359.00518,449.85343 c 3.829,-0.127 7.3,-0.42 10.994,-1.482 14.722,-4.229 26.888,-13.528 41.199,-0.4 6.04,5.541 8.46,12.523 9.862,20.358 -42.5,36.688 -100.378,56.87 -156.513,52.672 -1.456,-0.108 -2.731,-0.212 -4.113,-0.694 6.139,-12.107 26.2,-22.315 26.585,-36.23 0.142,-5.145 -2.561,-8.9 -5.962,-12.415 20.502,-1.229 60.26,-11.014 77.948,-21.809 z"
     id="path52" />
  <path
     fill="#dc2671"
     d="m 308.16918,361.80943 c -4.291,-9.391 -8.783,-16.259 -5.677,-27.218 0.366,-1.295 0.831,-2.54 1.363,-3.775 q 1.091,-2.479 2.576,-4.744 0.626,-0.954 1.31,-1.867 0.684,-0.914 1.422,-1.783 0.739,-0.87 1.53,-1.693 0.791,-0.822 1.631,-1.594 0.84,-0.772 1.726,-1.491 0.886,-0.719 1.815,-1.382 0.928,-0.663 1.896,-1.268 0.968,-0.604 1.971,-1.148 c 20.505,-11.172 41.465,2.094 60.481,-10.144 18.832,-12.119 16.334,-33.34 30.861,-40.909 17.497,-9.117 35.023,6.796 47.4,17.301 2.334,1.981 6.083,5.782 9.117,6.484 0.196,0.045 0.399,0.046 0.599,0.069 6.63,4.181 12.74,7.534 20.385,9.395 -2.264,8.864 -4.395,17.822 -7.363,26.484 -16.045,46.827 -44.626,82.285 -84.399,111.297 -2.016,0.025 -4.067,-0.068 -6.039,0.393 -11.703,1.815 -22.277,10.071 -34.271,8.385 q -0.969,-0.139 -1.925,-0.352 -0.956,-0.213 -1.892,-0.498 -0.937,-0.284 -1.85,-0.64 -0.912,-0.355 -1.794,-0.779 -0.883,-0.424 -1.731,-0.914 -0.848,-0.489 -1.656,-1.042 -0.808,-0.553 -1.572,-1.166 -0.763,-0.613 -1.478,-1.282 c -15.968,-14.72 -2.271,-31.359 -9.992,-48.161 -5.374,-11.696 -16.983,-16.39 -24.444,-25.958 z"
     id="path53" />
  <path
     fill="#dc2671"
     d="m 113.22518,232.01243 c 16.272,-11.963 16.36,-18.201 24.893,-35.189 3.071,-6.115 13.482,-22.229 17.801,-27.205 14.636,-16.862 59.316,-47.021 81.746,-47.948 3.053,-0.127 6.307,0.376 8.593,2.576 6.651,6.405 -0.294,19.536 -2.115,27.016 -0.954,3.917 -1.263,7.509 -1.216,11.534 0.695,3.459 1.549,6.666 2.643,10.022 12.138,22.86 37.534,18.941 46.58,51.396 q 0.209,0.542 0.391,1.093 0.182,0.551 0.337,1.11 0.154,0.56 0.282,1.126 0.127,0.566 0.227,1.138 0.099,0.572 0.171,1.148 0.072,0.576 0.115,1.155 0.043,0.578 0.059,1.159 0.015,0.58 10e-4,1.16 -0.013,0.58 -0.054,1.159 -0.042,0.579 -0.112,1.156 -0.069,0.576 -0.167,1.148 -0.098,0.572 -0.223,1.139 -0.126,0.566 -0.279,1.126 -0.153,0.56 -0.333,1.112 -0.18,0.552 -0.387,1.094 -0.207,0.542 -0.44,1.074 c -8.743,20.305 -40.928,25.926 -47.817,45.012 -1.265,3.503 -1.664,7.341 -1.393,11.043 0.462,6.293 2.506,12.409 3.391,18.648 1.58,11.147 0.406,26.358 -11.985,30.818 -1.782,0.642 -3.845,0.858 -5.582,-0.039 -4.425,-2.285 -6.49,-15.573 -9.414,-20.705 -3.387,-5.946 -8.431,-10.658 -14.047,-14.48 -34.544,-23.511 -80.3,5.045 -94.043,-46.223 -1.103,-4.117 -1.701,-8.384 -2.303,-12.599 l 0.49,-2.694 -0.482,-2.414 c 1.33,-5.471 4.043,-11.129 4.672,-16.666 z"
     id="path54" />
  <path
     fill="#fe8b93"
     d="m 245.57018,172.81843 c 12.138,22.86 37.534,18.941 46.58,51.396 l -0.343,0.232 c -2.292,-3.936 -3.647,-8.372 -6.228,-12.158 -7.968,-11.692 -21.567,-16.49 -31.688,-25.817 -3.75,-3.456 -8.117,-8.335 -8.321,-13.653 z"
     id="path55" />
  <path
     fill="#fe8b93"
     d="m 113.22518,232.01243 c 16.272,-11.963 16.36,-18.201 24.893,-35.189 3.071,-6.115 13.482,-22.229 17.801,-27.205 14.636,-16.862 59.316,-47.021 81.746,-47.948 3.053,-0.127 6.307,0.376 8.593,2.576 6.651,6.405 -0.294,19.536 -2.115,27.016 -0.954,3.917 -1.263,7.509 -1.216,11.534 -0.123,-0.277 -0.255,-0.549 -0.368,-0.83 -3.597,-8.945 5.889,-28.623 2.003,-32.325 -8.178,-2.541 -30.3,8.035 -37.769,11.938 -24.385,12.745 -48.563,32.776 -63.279,56.175 -5.577,8.866 -9.419,18.769 -15.12,27.557 -6.124,9.439 -14.019,15.399 -19.359,25.781 l -0.482,-2.414 c 1.33,-5.471 4.043,-11.129 4.672,-16.666 z"
     id="path56" />
  <path
     fill="#ee9523"
     d="m 352.64818,96.277432 c 7.268,-2.467 28.905,2.353 37.308,4.458998 3.773,0.945 8.435,2.769 12.277,3.139 1.281,0.124 1.459,-0.152 2.363,-0.935 3.252,1.087 6.272,2.634 9.342,4.142 -0.144,0.023 -0.288,0.048 -0.432,0.067 -1.98,0.263 -3.609,-0.093 -5.534,-0.536 l -0.166,0.32 c 17.104,15.455 35.45,45.4 44.189,67.09 2.819,6.995 4.127,16.005 7.65,22.363 -0.621,8.96 0.792,18.461 6.93,25.445 6.737,7.665 17.021,8.335 26.455,9.417 0.721,19.774 1.224,38.812 -2.26,58.415 -7.421,-2.598 -14.024,-5.692 -20.054,-10.826 -7.05,-6.004 -12.092,-13.794 -18.555,-20.336 -12.82,-12.977 -30.997,-17.32 -47.869,-9.348 -21.121,9.98 -14.417,31.7 -30.572,42.256 -11.807,7.715 -25.35,2.087 -38.225,2.441 -19.81,0.545 -38.371,12.627 -44.913,31.706 -3.185,9.29 -2.868,18.699 1.53,27.544 8.959,18.013 34.08,27.111 35.969,45.524 0.58,5.656 -0.865,11.189 -1.328,16.791 0.135,9.451 2.554,17.598 9.449,24.385 6.325,6.226 14.19,8.86 22.803,10.053 -17.688,10.795 -57.446,20.58 -77.948,21.809 3.401,3.515 6.104,7.27 5.962,12.415 -0.385,13.915 -20.446,24.123 -26.585,36.23 -1.133,2.631 -2.059,5.305 -3.732,7.663 -1.861,2.623 -4.251,4.497 -7.499,4.965 -3.74,0.54 -8.47,-0.473 -11.509,-2.766 -9.628,-7.261 -4.366,-23.373 -6.1,-33.439 -0.605,-3.511 -2.25,-6.821 -5.264,-8.849 -8.238,-5.542 -21.232,-5.332 -30.742,-6.93 -8.077,-1.357 -16.432,-3.012 -24.103,-5.894 -5.953,-2.236 -10.83,-5.402 -15.643,-9.542 -1.654,-1.423 -3.217,-3.168 -5.017,-4.392 -0.178,-0.121 -0.359,-0.238 -0.538,-0.358 0.85,2.638 4.134,5.272 6.265,6.96 10.069,7.978 22.641,11.169 35.031,13.546 9.302,1.785 31.237,2.081 37.108,10.286 2.903,4.056 2.838,16.563 2.139,21.742 -2.992,0.786 -6.204,-1.778 -9.026,-2.58 -28.962,-8.234 -70.415,-33.096 -89.997,-55.884 -7.93,-9.228 -15.357,-19.749 -22.04,-29.92 -2.606,-3.965 -4.822,-8.365 -7.654,-12.152 -0.802,-1.072 -1.026,-1.146 -2.265,-1.525 -1.18,-2.693 -2.531,-5.386 -3.253,-8.243 0.157,-0.128 0.339,-0.231 0.471,-0.385 1.645,-1.936 -1.489,-16.705 -2.026,-19.662 2.533,2.191 5.063,4.472 7.798,6.409 3.39,2.401 7.816,4.809 12.123,3.904 1.551,-0.326 2.885,-1.162 3.718,-2.537 2.121,-3.498 1.341,-8.752 0.348,-12.507 -3.996,-15.098 -14.334,-26.953 -27.656,-34.576 0.295,-9.003 -0.414,-17.887 0.284,-26.924 1.79,-23.184 9.688,-46.049 16.898,-68.039 l 0.482,2.414 -0.49,2.694 c -0.09,0.495 -0.172,0.991 -0.25,1.489 -1.893,12.133 -0.703,25.625 6.848,35.766 14.525,19.507 40.054,15.473 61.041,18.506 14.899,2.154 32.544,10.282 38.151,25.35 1.924,5.171 2.639,11.268 6.147,15.699 2.23,2.817 5.359,4.44 8.932,4.719 5.436,0.426 10.85,-2.31 14.855,-5.809 10.15,-8.869 11.081,-23.899 8.255,-36.214 -1.371,-5.979 -3.922,-12.329 -3.44,-18.541 0.316,-4.068 2.189,-7.571 4.887,-10.578 7.928,-8.838 23.568,-16.05 33.236,-24.651 7.727,-6.874 13.038,-15.421 13.604,-25.933 1.038,-19.27 -11.321,-35.195 -26.52,-45.521 -5.968,-4.054 -12.766,-6.988 -17.612,-12.52 -13.192,-15.061 -0.663,-27.727 -0.196,-43.54 0.127,-4.301 -0.998,-8.79 -4.025,-11.975 -4.564,-4.802 -11.517,-5.405 -17.733,-5.445 3.27,-2.032 7.5,-3.348 11.144,-4.646 22.868,-8.147 47.721,-12.307998 71.948,-13.084998 4.2,-0.135 8.51,-0.482 12.697,-0.161 q 5.501,-0.766 11.055,-0.871 5.553,-0.105 11.079,0.452 z"
     id="path57" />
  <path
     fill="#5a1d4e"
     d="m 330.51418,96.696432 q 5.501,-0.766 11.055,-0.871 5.553,-0.105 11.079,0.452 c 9.507,2.641 18.515,6.199998 27.859,9.286998 4.706,1.555 9.998,2.521 14.398,4.812 1.567,0.816 2.646,1.853 3.517,3.402 1.961,3.489 2.166,7.585 0.93,11.344 -1.251,3.809 -3.571,7.109 -7.275,8.841 -8.327,3.894 -16.376,-3.471 -24.641,-0.282 -8.259,3.188 -9.775,12.338 -15.972,17.763 -10.118,8.858 -33.915,8.745 -45.868,4.065 -5.396,-2.114 -9.857,-5.699 -12.121,-11.147 -2.1,-5.055 -2.606,-11.773 -0.365,-16.867 4.948,-11.246 15.353,-9.705 23.048,-16.037 5.634,-4.636 7.497,-10.944 14.356,-14.761998 z"
     id="path58" />
  <path
     fill="#fe8b93"
     d="m 300.57518,141.22843 c -0.942,-3.275 -1.389,-6.696 -0.344,-10.019 2.983,-9.483 15.557,-9.381 21.65,-15.75 3.995,-4.176 4.652,-10.389 10.345,-13.026 10.98,-5.083998 29.316,3.306 39.857,6.817 5.051,1.682 10.284,2.967 15.269,4.811 3.217,1.19 4.634,2.164 6.075,5.304 -11.821,4.222 -41.287,-19.065 -57.383,-12.321 -6.452,2.703 -8.168,11.074 -14.301,14.749 -5.426,3.251 -15.731,4.858 -18.581,10.939 -1.009,2.153 -1.579,4.174 -1.876,6.519 -0.075,0.592 -0.152,1.18 -0.218,1.773 z"
     id="path59" />
  <path
     fill="#dc2671"
     d="m 300.57518,141.22843 0.493,-0.204 c 0.066,-0.593 0.143,-1.181 0.218,-1.773 0.297,-2.345 0.867,-4.366 1.876,-6.519 2.85,-6.081 13.155,-7.688 18.581,-10.939 6.133,-3.675 7.849,-12.046 14.301,-14.749 16.096,-6.744 45.562,16.543 57.383,12.321 0.051,2.24 -0.307,4.967 -2.003,6.627 -1.916,1.877 -4.637,2.277 -7.224,2.097 -9.467,-0.659 -16.506,-5.038 -25.21,1.773 -3.811,2.983 -5.909,7.343 -8.448,11.347 -6.617,10.437 -21.249,10.837 -32.378,9.782 -5.182,-0.491 -12.159,-1.772 -15.612,-5.988 -0.921,-1.124 -1.59,-2.377 -1.977,-3.775 z"
     id="path60" />
  <path
     fill="#5a1d4e"
     d="m 150.28718,460.76543 c -7.528,-8.96 -15.166,-21.006 -15.685,-33.051 -0.148,-3.44 0.494,-6.83 3.003,-9.346 2.366,-2.373 6.227,-3.692 9.543,-3.632 7.894,0.144 12.905,7.678 17.993,12.691 12.456,12.272 22.244,-4.59 32.095,-10.437 5.008,-2.973 10.537,-4.203 16.33,-4.138 12.666,0.142 24.422,4.858 33.319,13.848 2.511,3.217 4.581,6.273 6.13,10.083 3.102,7.632 3.524,16.213 9.723,22.303 5.248,5.156 12.438,8.177 18.319,12.576 3.401,3.515 6.104,7.27 5.962,12.415 -0.385,13.915 -20.446,24.123 -26.585,36.23 -1.133,2.631 -2.059,5.305 -3.732,7.663 -1.861,2.623 -4.251,4.497 -7.499,4.965 -3.74,0.54 -8.47,-0.473 -11.509,-2.766 -9.628,-7.261 -4.366,-23.373 -6.1,-33.439 -0.605,-3.511 -2.25,-6.821 -5.264,-8.849 -8.238,-5.542 -21.232,-5.332 -30.742,-6.93 -8.077,-1.357 -16.432,-3.012 -24.103,-5.894 -5.953,-2.236 -10.83,-5.402 -15.643,-9.542 -1.654,-1.423 -3.217,-3.168 -5.017,-4.392 -0.178,-0.121 -0.359,-0.238 -0.538,-0.358 z"
     id="path61" />
  <path
     fill="#8a3636"
     d="m 238.39218,511.13243 c 6.089,-0.816 10.481,2.198 15.886,4.231 -0.944,2.368 -1.803,5.218 -3.144,7.366 -0.948,1.517 -2.547,3.098 -4.381,3.39 -1.582,0.251 -3.003,-0.463 -4.109,-1.529 -3.471,-3.348 -4.2,-8.882 -4.252,-13.458 z"
     id="path62" />
  <path
     fill="#fe8b93"
     d="m 145.32418,421.67443 c 11.779,3.176 14.883,17.559 28.529,17.677 3.674,0.032 7.062,-0.831 10.275,-2.616 3.409,-1.894 6.266,-4.605 9.132,-7.211 10.006,-9.102 17.525,-11.121 30.545,-7.742 7.855,2.039 15.656,5.928 19.961,13.099 5.051,8.413 4.589,18.876 10.787,26.749 6.135,7.793 21.448,13.13 24.708,19.585 l -3.178,-2.406 c -6.161,-4.907 -13.489,-7.591 -19.188,-13.337 -8.316,-8.384 -9.496,-20.499 -17.257,-29.074 -3.977,-4.395 -9.078,-7.269 -14.719,-8.97 -26.701,-8.048 -30.731,19.83 -50.938,18.33 -10.719,-0.796 -16.716,-9.906 -22.801,-17.489 -1.843,-2.297 -3.935,-4.364 -5.856,-6.595 z"
     id="path63" />
  <path
     fill="#ab2c53"
     d="m 276.08318,478.80943 3.178,2.406 c 0.837,1.051 0.947,2.068 0.833,3.378 -0.628,7.225 -12.723,16.195 -17.623,21.136 -2.971,2.996 -5.787,6.161 -8.193,9.634 -5.405,-2.033 -9.797,-5.047 -15.886,-4.231 0.165,-4.624 0.773,-9.276 0.444,-13.907 -0.525,-7.378 -3.869,-11.522 -9.187,-16.175 6.107,-0.211 12.216,0.113 18.326,-0.073 9.411,-0.286 18.747,-1.206 28.108,-2.168 z"
     id="path64" />
  <path
     fill="#dc2671"
     d="m 229.64918,481.05043 c -14.624,-6.369 -31.05,-5.852 -46.378,-10.07 -17.554,-4.83 -27.626,-12.981 -36.485,-28.85 -2.485,-4.451 -5.947,-12.241 -4.299,-17.264 0.532,-1.621 1.389,-2.39 2.837,-3.192 1.921,2.231 4.013,4.298 5.856,6.595 6.085,7.583 12.082,16.693 22.801,17.489 20.207,1.5 24.237,-26.378 50.938,-18.33 5.641,1.701 10.742,4.575 14.719,8.97 7.761,8.575 8.941,20.69 17.257,29.074 5.699,5.746 13.027,8.43 19.188,13.337 -9.361,0.962 -18.697,1.882 -28.108,2.168 -6.11,0.186 -12.219,-0.138 -18.326,0.073 z"
     id="path65" />
</svg>
