<?xml version="1.0" encoding="UTF-8" standalone="no"?>
<svg
   width="942.35193"
   height="853.36963"
   version="1.1"
   id="svg105"
   sodipodi:docname="ziggurat.svg"
   inkscape:version="1.3.2 (091e20ef0f, 2023-11-25)"
   xmlns:inkscape="http://www.inkscape.org/namespaces/inkscape"
   xmlns:sodipodi="http://sodipodi.sourceforge.net/DTD/sodipodi-0.dtd"
   xmlns="http://www.w3.org/2000/svg"
   xmlns:svg="http://www.w3.org/2000/svg">
  <defs
     id="defs105" />
  <sodipodi:namedview
     id="namedview105"
     pagecolor="#ffffff"
     bordercolor="#000000"
     borderopacity="0.25"
     inkscape:showpageshadow="2"
     inkscape:pageopacity="0.0"
     inkscape:pagecheckerboard="0"
     inkscape:deskcolor="#d1d1d1"
     inkscape:zoom="0.39577662"
     inkscape:cx="445.95864"
     inkscape:cy="547.02575"
     inkscape:window-width="1440"
     inkscape:window-height="831"
     inkscape:window-x="0"
     inkscape:window-y="0"
     inkscape:window-maximized="1"
     inkscape:current-layer="svg105" />
  <path
     fill="#fccb66"
     d="m 485.4869,24.8976 c 11.914,1.097 25.223,9.114 34.034,16.858 2.984,2.622 5.603,6.068 8.654,8.491 2.404,3.584 4.97,7.106 7.249,10.767 -2.043,-0.274 -10.464,-7.104 -13.74,-8.626 -5.159,-6.027 -33.261,-19.725 -41.184,-24.333 1.541,-1.239 3.281,-2.168 4.987,-3.157 z"
     id="path2" />
  <path
     fill="#f79329"
     d="m 467.9779,0 q 8.385,5.1899 16.956,10.0656 c 1.129,4.612 0.115,10.048 0.553,14.832 -1.706,0.989 -3.446,1.918 -4.987,3.157 -2.092,1.544 -9.404,7.983 -11.639,7.42 -0.26,-0.066 -0.504,-0.182 -0.755,-0.273 l -0.316,-0.044 c -4.993,-3.203 -10.166,-6.785 -15.596,-9.18 l -0.691,-0.925 c -0.82,-3.396 -1.217,-11.594 0.219,-14.7285 C 457.3709,7.47 462.5189,3.2562 467.9779,0 Z"
     id="path3" />
  <path
     fill="#d1771f"
     d="m 451.7219,10.3241 q 7.758,5.7305 16.023,10.7005 c 0.71,4.554 0.389,9.565 0.361,14.177 l -0.316,-0.044 c -4.993,-3.203 -10.166,-6.785 -15.596,-9.18 l -0.691,-0.925 c -0.82,-3.396 -1.217,-11.594 0.219,-14.7285 z"
     id="path4" />
  <path
     fill="#d05827"
     d="m 484.9339,10.0656 c 1.129,4.612 0.115,10.048 0.553,14.832 -1.706,0.989 -3.446,1.918 -4.987,3.157 -2.092,1.544 -9.404,7.983 -11.639,7.42 -0.26,-0.066 -0.504,-0.182 -0.755,-0.273 0.028,-4.612 0.349,-9.623 -0.361,-14.177 q 8.517,-5.601 17.189,-10.959 z"
     id="path5" />
  <path
     fill="#f9e6a9"
     d="m 555.1529,114.9386 c 7.58,3.806 14.813,8.612 22.047,13.048 l 43.541,27.052 q 16.801,10.156 33.758,20.05 c 5.774,3.368 12.068,6.496 17.553,10.291 -5.145,3.282 -10.321,6.741 -15.743,9.55 -10.45,-3.923 -21.171,-6.648 -31.496,-11.095 -24.711,-10.64 -47.25,-25.722 -69.795,-40.222 -0.014,-9.548 -0.2,-19.132 0.135,-28.674 z"
     id="path6" />
  <path
     fill="#256a58"
     d="m 858.8509,403.0636 0.6,-2.685 0.616,-0.288 c 2.596,5.023 4.639,10.427 6.847,15.632 5.216,12.297 9.952,24.597 14.447,37.17 5.344,14.949 11.568,30.212 13.764,46.043 1.048,7.548 0.828,15.209 -1.495,22.512 -2.072,6.514 -5.841,12.308 -10.599,17.186 -5.745,4.13 -10.978,6.552 -17.892,8.061 l -7.032,-0.096 -6.825,-0.625 c -5.272,-1.577 -10.415,-3.65 -14.903,-6.887 -8.593,-6.197 -12.958,-14.945 -14.694,-25.193 l -0.04,-5.838 c -0.069,-17.022 10.996,-38.427 16.894,-54.593 q 10.009,-25.259 20.312,-50.399 z"
     id="path7" />
  <path
     fill="#07a480"
     d="m 858.8509,403.0636 c 0.7,2.912 -0.34,33.358 -0.4,39.516 l -0.344,104.019 -6.825,-0.625 c -5.272,-1.577 -10.415,-3.65 -14.903,-6.887 -8.593,-6.197 -12.958,-14.945 -14.694,-25.193 l -0.04,-5.838 c -0.069,-17.022 10.996,-38.427 16.894,-54.593 q 10.009,-25.259 20.312,-50.399 z"
     id="path8" />
  <path
     fill="#07a480"
     d="m 60.7169,534.8806 c -5.9552,-3.99 -10.9878,-9.084 -14.2901,-15.496 -8.7237,-16.936 -2.5745,-35.917 2.6327,-52.911 l 7.6384,-24.614 c 2.4397,-7.689 17.838,-51.12 22.872,-53.723 13.584,25.251 37.886,89.119 37.868,116.825 -0.002,3.146 -0.576,5.884 -1.431,8.877 -3.917,10.344 -10.111,17.827 -20.341,22.409 -2.812,1.259 -5.839,2.223 -8.82,2.989 l -6.631,0.665 c -2.725,0.133 -5.444,-0.173 -8.16,-0.392 -3.974,-1.157 -7.707,-2.642 -11.338,-4.629 z"
     id="path9" />
  <path
     fill="#256a58"
     d="m 79.5699,388.1366 c 13.584,25.251 37.886,89.119 37.868,116.825 -0.002,3.146 -0.576,5.884 -1.431,8.877 -3.917,10.344 -10.111,17.827 -20.341,22.409 -2.812,1.259 -5.839,2.223 -8.82,2.989 l -6.631,0.665 c -0.413,-32.615 -0.125,-65.257 -0.112,-97.875 0.007,-17.94 0.359,-35.97 -0.533,-53.89 z"
     id="path10" />
  <path
     fill="#fccb66"
     d="m 125.9399,448.7436 c 4.066,-4.01 13.893,-9.049 19.057,-12.24 17.576,-10.863 35.313,-21.418 52.747,-32.516 l -0.07,61.456 c 10.88,6.616 21.989,13.07 32.632,20.049 -3.737,2.221 -7.754,3.454 -11.934,4.553 -1.207,2.782 -0.201,10.011 0.066,13.159 l -0.564,1.11 -0.718,0.029 c -4.639,1.426 -9.017,4.035 -13.346,6.217 0.7,1.448 1.5,2.906 2.099,4.396 0.36,6.483 -0.851,17.705 0.859,23.443 -5.603,4.684 -14.972,9.759 -21.615,12.742 0.127,1.7 0.2,3.422 0.395,5.115 -10.275,-4.899 -19.671,-12.31 -29.748,-17.761 -9.453,-6.371 -19.658,-11.596 -29.121,-17.941 l -0.354,-45.732 c -0.049,-8.578 0.457,-17.551 -0.385,-26.079 z"
     id="path11" />
  <path
     fill="#f9e6a9"
     d="m 125.9399,448.7436 c 4.066,-4.01 13.893,-9.049 19.057,-12.24 17.576,-10.863 35.313,-21.418 52.747,-32.516 l -0.07,61.456 c 10.88,6.616 21.989,13.07 32.632,20.049 -3.737,2.221 -7.754,3.454 -11.934,4.553 -1.207,2.782 -0.201,10.011 0.066,13.159 l -0.564,1.11 -0.718,0.029 c -0.059,-0.034 -0.114,-0.074 -0.176,-0.101 -8.303,-3.715 -16.04,-8.823 -23.742,-13.643 l -30.939,-19.388 -23.751,-14.376 c -4.223,-2.572 -8.744,-5.011 -12.608,-8.092 z"
     id="path12" />
  <path
     fill="#97b106"
     d="m 116.0069,513.8386 c 3.698,2.063 7.258,4.202 10.672,6.716 9.463,6.345 19.668,11.57 29.121,17.941 10.077,5.451 19.473,12.862 29.748,17.761 l 0.085,6.364 c -10.194,5.874 -20.07,12.283 -30.25,18.163 l -0.245,0.451 c 0.044,5.758 0.995,15.64 -0.315,20.924 -4.306,1.539 -20.636,10.507 -22.514,13.94 1.643,10.611 -0.99,21.804 0.449,32.383 l -0.227,3.66 c -7.938,-4.319 -15.556,-9.238 -23.316,-13.869 L 51.2622,603.2446 20.934,584.9976 C 13.96,580.8176 6.2354,576.7336 0,571.4946 c 1.6989,-2.663 53.28,-31.919 60.7169,-36.614 3.631,1.987 7.364,3.472 11.338,4.629 2.716,0.219 5.435,0.525 8.16,0.392 l 6.631,-0.665 c 2.981,-0.766 6.008,-1.73 8.82,-2.989 10.23,-4.582 16.424,-12.065 20.341,-22.409 z"
     id="path13" />
  <path
     fill="#507015"
     d="m 116.0069,513.8386 c 3.698,2.063 7.258,4.202 10.672,6.716 9.463,6.345 19.668,11.57 29.121,17.941 10.077,5.451 19.473,12.862 29.748,17.761 l 0.085,6.364 c -10.194,5.874 -20.07,12.283 -30.25,18.163 l -0.245,0.451 c -11.91,0.842 -77.385,1.396 -83.563,-3.682 1.453,-12.253 0.579,-25.679 0.48,-38.043 2.716,0.219 5.435,0.525 8.16,0.392 l 6.631,-0.665 c 2.981,-0.766 6.008,-1.73 8.82,-2.989 10.23,-4.582 16.424,-12.065 20.341,-22.409 z"
     id="path14" />
  <path
     fill="#d1771f"
     d="m 86.8459,539.2366 0.022,13.151 q -0.156,11.989 -0.15,23.979 c -4.593,0.358 -10.846,-0.15 -15.143,1.186 1.453,-12.253 0.579,-25.679 0.48,-38.043 2.716,0.219 5.435,0.525 8.16,0.392 z"
     id="path15" />
  <path
     fill="#97b106"
     d="m 116.0069,513.8386 c 3.698,2.063 7.258,4.202 10.672,6.716 9.463,6.345 19.668,11.57 29.121,17.941 -8.698,2.597 -18.001,3.949 -26.908,5.686 l -42.024,8.206 -0.022,-13.151 c 2.981,-0.766 6.008,-1.73 8.82,-2.989 10.23,-4.582 16.424,-12.065 20.341,-22.409 z"
     id="path16" />
  <path
     fill="#d05827"
     d="m 451.5029,25.0526 0.691,0.925 c 5.43,2.395 10.603,5.977 15.596,9.18 l 0.316,0.044 c 0.251,0.091 0.495,0.207 0.755,0.273 2.235,0.563 9.547,-5.876 11.639,-7.42 7.923,4.608 36.025,18.306 41.184,24.333 3.276,1.522 11.697,8.352 13.74,8.626 -2.279,-3.661 -4.845,-7.183 -7.249,-10.767 4.475,1.562 8.831,4.562 12.865,7.054 9.19,5.676 23.936,16.008 32.916,20.058 0.667,7.14 0.192,14.591 0.237,21.775 -6.246,3.83 -13.015,7.36 -18.963,11.594 q -42.313,25.953 -84.21,52.573 l -0.306,0.542 c -7.682,-3.154 -15.08,-9.053 -22.199,-13.446 -21.067,-13 -41.736,-26.658 -63.114,-39.144 -6.349,-4.329 -13.142,-8.221 -19.669,-12.294 l -0.04,-20.963 q 11.537,-6.51 22.952,-13.231 c 5.207,-3.067 10.449,-6.585 15.978,-9.019 15.101,-17.062 25.276,-23.688 46.881,-30.693 z"
     id="path17" />
  <path
     fill="#873129"
     d="m 385.7839,84.4156 c 0.851,-0.641 1.703,-1.312 2.602,-1.884 1.175,-0.748 1.734,-1.146 3.102,-0.796 l -1.53,5.186 c -1.476,-0.214 -2.973,-1.623 -4.174,-2.506 z"
     id="path18" />
  <path
     fill="#873129"
     d="m 573.9559,77.3586 c 0.667,7.14 0.192,14.591 0.237,21.775 -6.246,3.83 -13.015,7.36 -18.963,11.594 q -42.313,25.953 -84.21,52.573 c -0.661,-7.28 -0.154,-15.092 -0.171,-22.426 14.367,-7.702 28.098,-16.556 41.841,-25.299 13.571,-8.633 27.298,-16.967 40.971,-25.433 6.789,-4.204 13.412,-8.744 20.295,-12.784 z"
     id="path19" />
  <path
     fill="#d1771f"
     d="m 521.6839,52.3876 c 3.276,1.522 11.697,8.352 13.74,8.626 5.411,6.644 9.854,17.45 11.177,25.874 -18.926,11.966 -38.151,23.446 -57.213,35.19 -4.521,2.785 -17.922,12.101 -21.961,13.388 -0.365,0.116 -0.765,-0.009 -1.147,-0.014 l -1.299,-1.002 c 1.518,-16.039 5.068,-31.144 12.679,-45.476 10.451,-19.679 22.675,-29.554 43.81,-35.965 z"
     id="path20" />
  <path
     fill="#feaa0b"
     d="m 451.5029,25.0526 0.691,0.925 c 5.43,2.395 10.603,5.977 15.596,9.18 l 0.316,0.044 c 0.251,0.091 0.495,0.207 0.755,0.273 2.235,0.563 9.547,-5.876 11.639,-7.42 7.923,4.608 36.025,18.306 41.184,24.333 l -0.214,0.621 c -21.135,6.411 -33.359,16.286 -43.81,35.965 -7.611,14.332 -11.161,29.437 -12.679,45.476 -10.013,-6.533 -72.456,-44.095 -75.023,-47.528 l 1.53,-5.186 c 3.4,-9.679 7.413,-17.48 13.134,-25.99 15.101,-17.062 25.276,-23.688 46.881,-30.693 z"
     id="path21" />
  <path
     fill="#f79329"
     d="m 452.1939,25.9776 c 5.43,2.395 10.603,5.977 15.596,9.18 -2.137,4.459 -2.159,10.289 -2.16,15.15 -4.836,-2.506 -9.466,-6.074 -13.788,-9.373 0.519,-5.015 0.916,-9.929 0.352,-14.957 z"
     id="path22" />
  <path
     fill="#d1771f"
     d="m 468.1059,35.2016 c 0.251,0.091 0.495,0.207 0.755,0.273 2.235,0.563 9.547,-5.876 11.639,-7.42 7.923,4.608 36.025,18.306 41.184,24.333 l -0.214,0.621 c -3.373,-1.387 -27.394,0.665 -32.945,0.534 -7.773,-0.184 -15.419,-1.068 -22.895,-3.235 10e-4,-4.861 0.023,-10.691 2.16,-15.15 z"
     id="path23" />
  <path
     fill="#f9e6a9"
     d="m 555.2299,110.7276 -0.077,4.211 c -0.335,9.542 -0.149,19.126 -0.135,28.674 22.545,14.5 45.084,29.582 69.795,40.222 10.325,4.447 21.046,7.172 31.496,11.095 l -87.169,53.757 c -5.303,3.282 -19.224,13.543 -23.868,15.158 -23.884,15.557 -48.534,30.083 -72.666,45.28 -0.785,8.494 -1.006,19.336 -0.116,27.818 l -0.344,2.44 c -5.453,-2.431 -10.77,-6.161 -15.906,-9.242 l -30.505,-18.346 -104.721,-64.167 c -8.181,-5.079 -29.644,-20.903 -37.529,-22.583 l -0.368,-5.372 c -3.861,-2.902 -8.768,-5.344 -12.926,-7.863 -0.012,-5.84 -1.031,-19.187 0.72,-24.018 l 1.136,-0.434 c 10.337,-4.936 23.555,-14.193 33.613,-20.603 l 49.104,-31.507 c 10.181,-6.596 20.266,-13.492 30.674,-19.717 l -0.037,-4.278 c 21.378,12.486 42.047,26.144 63.114,39.144 7.119,4.393 14.517,10.292 22.199,13.446 l 0.306,-0.542 q 41.898,-26.62 84.21,-52.573 z"
     id="path26" />
  <path
     fill="#f7be5b"
     d="m 385.4009,111.2526 c 21.378,12.486 42.047,26.144 63.114,39.144 7.119,4.393 14.517,10.292 22.199,13.446 1.671,3.688 0.74,16.315 0.365,20.882 -0.523,-6.024 -0.251,-12.282 -0.256,-18.333 -11.916,-5.621 -23.034,-13.651 -34.349,-20.441 -16.968,-10.184 -34.359,-19.767 -51.036,-30.42 z"
     id="path27" />
  <path
     fill="#154d4d"
     d="m 401.7029,138.2886 q 9.887,5.504 19.216,11.908 0.117,25.883 -0.083,51.766 c -3.049,-0.265 -15.713,-8.76 -19.239,-10.883 z"
     id="path28" />
  <path
     fill="#154d4d"
     d="m 433.5459,158.3766 c 6.555,3.96 13.287,7.605 19.644,11.887 l 0.177,53.412 c -6.647,-4.497 -13.458,-8.745 -20.086,-13.274 0.299,-17.335 0.208,-34.687 0.265,-52.025 z"
     id="path29" />
  <path
     fill="#f7be5b"
     d="m 385.6769,148.6686 q 0.057,11.532 -0.135,23.063 c -14.556,7.589 -29.932,19.312 -44.194,28.2 -6.212,-4.024 -12.628,-7.751 -18.98,-11.551 21.212,-12.977 42.663,-25.859 63.309,-39.712 z"
     id="path30" />
  <path
     fill="#fcda93"
     d="m 341.3479,199.9316 c 14.262,-8.888 29.638,-20.611 44.194,-28.2 -0.09,9.035 1.111,32.82 -0.708,40.077 3.507,3.949 13.594,9.114 18.359,12.053 l 41.56,25.626 c 7.926,4.914 16.576,9.684 23.884,15.444 l -1.799,-0.43 c -7.063,-1.724 -15.449,0.989 -23.145,-1.33 -5.408,-1.63 -10.709,-5.084 -15.615,-7.838 -20.87,-11.719 -40.49,-25.427 -60.466,-38.554 -8.67,-5.698 -17.928,-10.677 -26.264,-16.848 z"
     id="path31" />
  <path
     fill="#d05827"
     d="m 270.1909,211.8096 c -0.012,-5.84 -1.031,-19.187 0.72,-24.018 l 1.136,-0.434 q 68.06,40.022 135.266,81.462 l 43.214,26.319 c 7.375,4.551 15.015,8.97 22.079,13.986 -0.785,8.494 -1.006,19.336 -0.116,27.818 l -0.344,2.44 c -5.453,-2.431 -10.77,-6.161 -15.906,-9.242 l -30.505,-18.346 -104.721,-64.167 c -8.181,-5.079 -29.644,-20.903 -37.529,-22.583 l -0.368,-5.372 c -3.861,-2.902 -8.768,-5.344 -12.926,-7.863 z"
     id="path32" />
  <path
     fill="#f7be5b"
     d="m 283.1169,219.6726 c 41.765,26.899 84.386,52.7 126.801,78.567 q 21.971,13.237 43.684,26.894 c 6.203,3.873 13.025,7.476 18.888,11.809 l -0.344,2.44 c -5.453,-2.431 -10.77,-6.161 -15.906,-9.242 l -30.505,-18.346 -104.721,-64.167 c -8.181,-5.079 -29.644,-20.903 -37.529,-22.583 z"
     id="path33" />
  <path
     fill="#f79329"
     d="m 555.2299,110.7276 -0.077,4.211 c -0.335,9.542 -0.149,19.126 -0.135,28.674 22.545,14.5 45.084,29.582 69.795,40.222 10.325,4.447 21.046,7.172 31.496,11.095 l -87.169,53.757 c -5.303,3.282 -19.224,13.543 -23.868,15.158 -5.79,-1.291 -17.121,0.271 -23.408,0.451 -14.258,0.406 -28.643,0.714 -42.9,0.322 -2.411,1.046 -4.863,2.345 -7.479,2.725 -0.689,-0.466 -0.815,-0.459 -1.213,-1.238 l -1.635,-1.173 c -7.308,-5.76 -15.958,-10.53 -23.884,-15.444 l -41.56,-25.626 c -4.765,-2.939 -14.852,-8.104 -18.359,-12.053 4.44,0.586 77.008,46.354 85.739,52.073 1.046,-26.324 0.364,-52.81 0.506,-79.157 0.375,-4.567 1.306,-17.194 -0.365,-20.882 l 0.306,-0.542 q 41.898,-26.62 84.21,-52.573 z"
     id="path34" />
  <path
     fill="#004052"
     d="m 536.1319,137.5306 c 0.031,0.027 0.071,0.047 0.095,0.082 1.282,1.921 0.562,47.628 0.555,53.777 -6.495,3.877 -12.908,7.908 -19.357,11.863 -0.205,-0.226 -0.467,-0.41 -0.615,-0.677 -0.712,-1.286 -0.18,-47.73 -0.172,-53.462 6.688,-3.201 13.162,-7.717 19.494,-11.583 z"
     id="path35" />
  <path
     fill="#004052"
     d="m 503.2289,157.6096 c 1.516,2.001 0.823,47.51 0.839,53.892 -6.448,4.234 -13.07,8.241 -19.588,12.369 l -0.335,0.004 c -1.117,-2.059 -0.305,-49.162 -0.328,-55.103 q 9.849,-5.332 19.412,-11.162 z"
     id="path36" />
  <path
     fill="#f7be5b"
     d="m 555.0179,143.6126 c 22.545,14.5 45.084,29.582 69.795,40.222 10.325,4.447 21.046,7.172 31.496,11.095 l -87.169,53.757 c -5.303,3.282 -19.224,13.543 -23.868,15.158 -5.79,-1.291 -17.121,0.271 -23.408,0.451 -14.258,0.406 -28.643,0.714 -42.9,0.322 -2.411,1.046 -4.863,2.345 -7.479,2.725 -0.689,-0.466 -0.815,-0.459 -1.213,-1.238 7.205,-4.144 14.033,-8.896 21.099,-13.268 l 35.26,-21.499 c 7.958,-4.933 19.323,-13.15 27.918,-16.054 0.72,-10.527 0.062,-21.197 0.467,-31.76 l 0.023,-6.117 c -0.329,-1.97 -0.096,-4.029 10e-4,-6.016 0.3,-9.232 0.008,-18.538 -0.022,-27.778 z"
     id="path37" />
  <path
     fill="#feaa0b"
     d="m 555.0399,171.3906 c 10.635,7.66 25.378,15.464 37.536,20.407 -1.897,1.393 -4.394,3.702 -6.532,4.545 -10.17,-6.893 -21.843,-10.228 -31.005,-18.936 -0.329,-1.97 -0.096,-4.029 10e-4,-6.016 z"
     id="path38" />
  <path
     fill="#fccb66"
     d="m 555.0389,177.4066 c 9.162,8.708 20.835,12.043 31.005,18.936 -7.11,5.099 -14.52,10.584 -22.313,14.593 -2.445,1.609 -4.955,3.164 -7.345,4.852 l -1.837,-0.504 c 0.72,-10.527 0.062,-21.197 0.467,-31.76 z"
     id="path39" />
  <path
     fill="#feaa0b"
     d="m 555.0159,183.5236 q 0.099,11.708 0.349,23.414 c 2.766,1.28 5.537,2.92 8.366,3.998 -2.445,1.609 -4.955,3.164 -7.345,4.852 l -1.837,-0.504 c 0.72,-10.527 0.062,-21.197 0.467,-31.76 z"
     id="path40" />
  <path
     fill="#97b106"
     d="m 560.1839,660.7566 c 4.659,-2.062 9.515,-5.956 13.887,-8.727 q 15.038,-9.534 30.194,-18.882 c 19.388,-11.786 214.091,-129.06 214.17,-129.07 0.262,-0.035 0.527,0.053 0.79,0.08 0.368,0.732 0.647,1.371 0.867,2.168 0.29,1.049 0.702,1.09 1.553,1.73 l 0.04,5.838 c 1.736,10.248 6.101,18.996 14.694,25.193 4.488,3.237 9.631,5.31 14.903,6.887 l 6.825,0.625 7.032,0.096 c 6.914,-1.509 12.147,-3.931 17.892,-8.061 4.734,1.319 9.572,4.572 13.816,7.034 l 28.507,16.79 c 5.242,3.091 11.215,7.34 16.998,9.268 -5.37,3.888 -11.361,8.579 -17.561,11.011 -29.892,16.933 -58.903,35.341 -88.452,52.851 -37.074,21.969 -74.642,43.009 -111.57,65.256 q -85.17,52.309 -171.297,103.027 c -27.65,16.546 -55.046,33.474 -83.011,49.499 -6.584,-3.11 -13.014,-7.549 -19.296,-11.287 -13.785,-8.201 -27.479,-16.578 -41.347,-24.637 q -42.179,-24.541 -83.92,-49.822 c -19.401,-11.527 -39.355,-22.635 -58.16,-35.091 l -1.684,-1.633 2.366,-0.441 c -0.402,-9.507 -1.032,-20.025 -0.084,-29.481 8.321,-3.81 16.37,-8.401 24.441,-12.718 0.535,-0.217 1.639,-0.497 2.054,-0.836 3.098,-2.53 -0.879,-13.076 1.843,-16.977 8.103,-3.218 16.66,-7.817 23.995,-12.533 -0.318,-7.183 -0.119,-14.41 -0.06,-21.599 7.822,-3.132 15.559,-8.031 23.029,-11.976 1.087,0.433 2.009,0.81 2.98,1.477 l 0.184,0.623 q 3.951,-2.328 7.997,-4.488 17.443,-9.455 34.547,-19.508 c 17.303,11.883 36.132,22.044 54.336,32.513 7.173,4.125 15.006,8.007 21.748,12.795 1.616,-4.623 3.304,-16.078 6.585,-19.209 0.205,2.031 0.402,4.045 0.764,6.057 3.313,10.671 7.495,21.218 11.925,31.471 l 2.182,5.871 q 4.18,12.146 8.134,24.368 c 2.622,0.546 5.337,1.352 8.023,1.089 6.084,-5.476 14.456,-9.775 21.412,-14.122 z"
     id="path41" />
  <path
     fill="#507015"
     d="m 454.2709,775.7936 c 3.396,1.54 6.8,3.023 10.008,4.934 l -0.047,9.322 c -3.37,-3.003 -8.29,-10.023 -9.961,-14.256 z"
     id="path42" />
  <path
     fill="#f79329"
     d="m 464.5149,790.3446 c 3.252,1.571 6.025,4.487 8.738,6.854 l -0.106,16.509 c -3.195,-0.54 -5.802,-2.197 -8.455,-3.945 z"
     id="path43" />
  <path
     fill="#507015"
     d="m 347.1189,685.1996 c 7.108,3.408 14.336,7.666 21.016,11.864 -5.549,4.486 -13.929,7.269 -20.33,10.541 -25.879,13.233 -49.762,27.3 -80.067,24.928 l -1.684,-1.633 2.366,-0.441 c 19.471,-10.104 37.985,-22.179 56.97,-33.177 7.034,-4.076 14.308,-8.812 21.729,-12.082 z"
     id="path44" />
  <path
     fill="#507015"
     d="m 883.0309,538.6336 c 4.734,1.319 9.572,4.572 13.816,7.034 l 28.507,16.79 c 5.242,3.091 11.215,7.34 16.998,9.268 -5.37,3.888 -11.361,8.579 -17.561,11.011 -5.546,-0.745 -11.538,-0.539 -17.136,-0.689 l -32.517,-0.8 c -6.537,-0.141 -13.331,-0.014 -19.764,-1.289 -1.477,0.142 -2.54,0.252 -3.976,-0.27 0.204,-11.143 0.659,-22.605 -0.116,-33.715 l 6.825,0.625 7.032,0.096 c 6.914,-1.509 12.147,-3.931 17.892,-8.061 z"
     id="path45" />
  <path
     fill="#d1771f"
     d="m 851.2819,545.9736 6.825,0.625 7.032,0.096 q -0.096,15.578 0.028,31.155 c -3.242,0.735 -6.51,1.592 -9.793,2.109 -1.477,0.142 -2.54,0.252 -3.976,-0.27 0.204,-11.143 0.659,-22.605 -0.116,-33.715 z"
     id="path46" />
  <path
     fill="#507015"
     d="m 473.2539,784.0356 c 3.225,-3.305 10.565,-6.26 14.878,-7.82 32.066,1.26 64.28,0.894 96.296,3.489 -9.12,5.987 -18.263,11.897 -27.306,18.004 -9.515,6.426 -18.944,13.093 -29.003,18.653 -11.263,-0.294 -22.468,-1 -33.709,-1.708 -7.015,-0.442 -14.233,-1.144 -21.263,-0.946 l 0.106,-16.509 c -2.713,-2.367 -5.486,-5.283 -8.738,-6.854 l -0.283,-0.295 0.047,-9.322 7.079,3.134 z"
     id="path47" />
  <path
     fill="#d1771f"
     d="m 464.2789,780.7276 7.079,3.134 1.896,0.174 c 0.663,4.204 0.124,8.902 -10e-4,13.163 -2.713,-2.367 -5.486,-5.283 -8.738,-6.854 l -0.283,-0.295 z"
     id="path48" />
  <path
     fill="#809487"
     d="m 343.6379,624.3386 c 1.087,0.433 2.009,0.81 2.98,1.477 l 0.184,0.623 c 0.458,19.579 -0.233,39.196 0.317,58.761 -7.421,3.27 -14.695,8.006 -21.729,12.082 -18.985,10.998 -37.499,23.073 -56.97,33.177 -0.402,-9.507 -1.032,-20.025 -0.084,-29.481 8.321,-3.81 16.37,-8.401 24.441,-12.718 0.535,-0.217 1.639,-0.497 2.054,-0.836 3.098,-2.53 -0.879,-13.076 1.843,-16.977 8.103,-3.218 16.66,-7.817 23.995,-12.533 -0.318,-7.183 -0.119,-14.41 -0.06,-21.599 7.822,-3.132 15.559,-8.031 23.029,-11.976 z"
     id="path49" />
  <path
     fill="#256a58"
     d="m 465.4299,647.7506 c 1.616,-4.623 3.304,-16.078 6.585,-19.209 0.205,2.031 0.402,4.045 0.764,6.057 3.313,10.671 7.495,21.218 11.925,31.471 l 2.182,5.871 q 4.18,12.146 8.134,24.368 c 2.622,0.546 5.337,1.352 8.023,1.089 0.211,7.081 1.154,15.919 -0.161,22.833 l 11.51,34.497 1.667,4.805 c -4.083,3.703 -9.372,5.564 -13.452,9.259 -4.789,2.176 -10.222,4.344 -14.475,7.424 -4.313,1.56 -11.653,4.515 -14.878,7.82 l -1.896,-0.174 -7.079,-3.134 c -3.208,-1.911 -6.612,-3.394 -10.008,-4.934 -3.095,-3.154 -20.184,-11.013 -25.561,-14.232 q 4.653,-12.189 8.196,-24.745 8.397,-28.414 17.645,-56.563 c 4.216,-10.448 7.475,-21.74 10.879,-32.503 z"
     id="path50" />
  <path
     fill="#fccb66"
     d="m 495.0199,696.3086 c 2.622,0.546 5.337,1.352 8.023,1.089 0.211,7.081 1.154,15.919 -0.161,22.833 -2.993,-7.848 -5.38,-15.902 -7.862,-23.922 z"
     id="path51" />
  <path
     fill="#07a480"
     d="m 465.4299,647.7506 c 1.616,-4.623 3.304,-16.078 6.585,-19.209 0.205,2.031 0.402,4.045 0.764,6.057 -1.009,21.237 -0.532,42.581 -0.731,63.841 -0.266,28.473 -0.961,56.946 -0.69,85.422 l -7.079,-3.134 c -3.208,-1.911 -6.612,-3.394 -10.008,-4.934 -3.095,-3.154 -20.184,-11.013 -25.561,-14.232 q 4.653,-12.189 8.196,-24.745 8.397,-28.414 17.645,-56.563 c 4.216,-10.448 7.475,-21.74 10.879,-32.503 z"
     id="path52" />
  <path
     fill="#fccb66"
     d="m 389.3459,602.4426 c 17.303,11.883 36.132,22.044 54.336,32.513 7.173,4.125 15.006,8.007 21.748,12.795 -3.404,10.763 -6.663,22.055 -10.879,32.503 q -9.248,28.149 -17.645,56.563 c -6.342,-4.886 -13.802,-8.721 -20.752,-12.68 l -32.146,-18.217 c -5.097,-2.887 -10.842,-5.601 -15.508,-9.115 l -0.365,0.259 c -6.68,-4.198 -13.908,-8.456 -21.016,-11.864 -0.55,-19.565 0.141,-39.182 -0.317,-58.761 q 3.951,-2.328 7.997,-4.488 17.443,-9.455 34.547,-19.508 z"
     id="path53" />
  <path
     fill="#d05827"
     d="m 346.8019,626.4386 q 3.951,-2.328 7.997,-4.488 l 0.442,1.214 q 4.332,25.26 8.945,50.47 c 1.239,6.75 3.863,16.865 4.314,23.17 l -0.365,0.259 c -6.68,-4.198 -13.908,-8.456 -21.016,-11.864 -0.55,-19.565 0.141,-39.182 -0.317,-58.761 z"
     id="path54" />
  <path
     fill="#fcda93"
     d="m 389.3459,602.4426 c 17.303,11.883 36.132,22.044 54.336,32.513 7.173,4.125 15.006,8.007 21.748,12.795 -3.404,10.763 -6.663,22.055 -10.879,32.503 -6.204,-4.288 -13.059,-7.993 -19.54,-11.868 -16.424,-9.818 -33.044,-19.155 -49.741,-28.485 -9.783,-5.466 -19.666,-12.56 -30.029,-16.736 l -0.442,-1.214 q 17.443,-9.455 34.547,-19.508 z"
     id="path55" />
  <path
     fill="#507015"
     d="m 514.3919,754.7276 c 3.292,-1.277 11.915,-8.114 15.746,-10.601 l 49.046,-31.263 q 101.872,-63.164 205.744,-122.982 c 4.1,-2.386 28.808,-17.653 31.269,-18.061 0.531,-0.088 1.075,0.065 1.612,0.097 3.309,3.274 8.622,5.64 12.645,8.061 11.518,6.931 23.013,13.78 34.752,20.335 l -259.847,122.051 -58.494,27.816 c -10.947,5.174 -33.579,16.877 -44.258,18.611 4.08,-3.695 9.369,-5.556 13.452,-9.259 z"
     id="path56" />
  <path
     fill="#d1771f"
     d="m 560.1839,660.7566 c 4.659,-2.062 9.515,-5.956 13.887,-8.727 q 15.038,-9.534 30.194,-18.882 c 19.388,-11.786 214.091,-129.06 214.17,-129.07 0.262,-0.035 0.527,0.053 0.79,0.08 0.368,0.732 0.647,1.371 0.867,2.168 0.29,1.049 0.702,1.09 1.553,1.73 l 0.04,5.838 c -3.314,3.846 -1.982,38.323 -1.932,45.746 0.019,2.955 0.652,7.524 -0.241,10.34 -0.391,1.234 -0.653,1.359 -1.703,1.938 -0.537,-0.032 -1.081,-0.185 -1.612,-0.097 -2.461,0.408 -27.169,15.675 -31.269,18.061 q -103.872,59.818 -205.744,122.982 l -49.046,31.263 c -3.831,2.487 -12.454,9.324 -15.746,10.601 l -11.51,-34.497 c 1.315,-6.914 0.372,-15.752 0.161,-22.833 6.084,-5.476 14.456,-9.775 21.412,-14.122 z"
     id="path57" />
  <path
     fill="#f79329"
     d="m 283.4849,225.0446 c 7.885,1.68 29.348,17.504 37.529,22.583 l 104.721,64.167 30.505,18.346 c 5.136,3.081 10.453,6.811 15.906,9.242 0.204,16.38 0.068,32.773 0.058,49.154 -0.007,11.048 0.239,22.168 -0.085,33.207 l 0.127,0.557 c 0.132,6.525 1.193,26.786 -0.383,32.031 l 0.328,0.28 q 0.134,14.084 0.125,28.169 l 0.335,0.581 c -0.888,12.519 -0.025,25.415 0.004,37.985 l -0.045,77.573 c -0.039,7.949 1.188,22.578 -0.595,29.622 -3.281,3.131 -4.969,14.586 -6.585,19.209 -6.742,-4.788 -14.575,-8.67 -21.748,-12.795 -18.204,-10.469 -37.033,-20.63 -54.336,-32.513 q -17.104,10.053 -34.547,19.508 -4.046,2.16 -7.997,4.488 l -0.184,-0.623 c -0.971,-0.667 -1.893,-1.044 -2.98,-1.477 -7.47,3.945 -15.207,8.844 -23.029,11.976 -0.059,7.189 -0.258,14.416 0.06,21.599 -7.335,4.716 -15.892,9.315 -23.995,12.533 -2.722,3.901 1.255,14.447 -1.843,16.977 -0.415,0.339 -1.519,0.619 -2.054,0.836 -8.071,4.317 -16.12,8.908 -24.441,12.718 -0.948,9.456 -0.318,19.974 0.084,29.481 l -2.366,0.441 c -5.308,-5.418 -28.382,-17.84 -36.18,-22.499 -7.682,-4.589 -15.28,-9.856 -23.242,-13.913 -4.546,-0.202 -63.86,-36.682 -74.101,-42.346 l 0.227,-3.66 c -1.439,-10.579 1.194,-21.772 -0.449,-32.383 1.878,-3.433 18.208,-12.401 22.514,-13.94 1.31,-5.284 0.359,-15.166 0.315,-20.924 l 0.245,-0.451 c 10.18,-5.88 20.056,-12.289 30.25,-18.163 l -0.085,-6.364 c -0.195,-1.693 -0.268,-3.415 -0.395,-5.115 6.643,-2.983 16.012,-8.058 21.615,-12.742 -1.71,-5.738 -0.499,-16.96 -0.859,-23.443 -0.599,-1.49 -1.399,-2.948 -2.099,-4.396 4.329,-2.182 8.707,-4.791 13.346,-6.217 l 0.718,-0.029 0.564,-1.11 c -0.267,-3.148 -1.273,-10.377 -0.066,-13.159 4.18,-1.099 8.197,-2.332 11.934,-4.553 -10.643,-6.979 -21.752,-13.433 -32.632,-20.049 l 0.07,-61.456 c -0.469,-30.294 -0.09,-60.64 -0.243,-90.941 -0.995,-3.251 -0.852,-24.301 0.11,-27.756 0.975,-2.884 77.43,-49.57 85.938,-54.702 -0.332,-1.812 -0.14,-3.709 -0.064,-5.544 z"
     id="path58" />
  <path
     fill="#dee3d7"
     d="m 244.2119,396.3566 c 13.363,-8.353 27.739,-16.346 40.254,-25.899 q 41.753,26.394 83.987,52.011 9.704,6.006 19.491,11.876 c 3.536,2.13 7.957,4.225 10.996,6.981 l 0.119,0.783 c -0.344,5.108 -0.095,10.241 0.039,15.354 -4.392,2.654 -20.423,11.231 -22.116,15.007 l -0.744,-0.427 c -5.321,3.254 -11.186,6.389 -15.996,10.344 l -0.593,0.398 c -2.135,-2.206 -0.411,-10.89 -1.188,-14.27 -3.617,-1.665 -7.142,-4.524 -10.479,-6.725 q -11.245,-7.444 -22.573,-14.761 z"
     id="path59" />
  <path
     fill="#8a8c82"
     d="m 358.4609,468.5146 c 2.884,-2.862 7.661,-5.26 11.122,-7.442 9.761,-6.154 20.327,-11.975 29.476,-18.964 -0.344,5.108 -0.095,10.241 0.039,15.354 -4.392,2.654 -20.423,11.231 -22.116,15.007 l -0.744,-0.427 c -5.321,3.254 -11.186,6.389 -15.996,10.344 l -0.593,0.398 c -2.135,-2.206 -0.411,-10.89 -1.188,-14.27 z"
     id="path60" />
  <path
     fill="#d05827"
     d="m 197.5009,313.0466 c -0.995,-3.251 -0.852,-24.301 0.11,-27.756 l 166.247,102.532 67.111,41.382 c 13.599,8.4 27.065,17.117 40.894,25.127 l 0.328,0.28 q 0.134,14.084 0.125,28.169 c -46.667,-29.781 -94.336,-58.146 -141.555,-87.054 z"
     id="path61" />
  <path
     fill="#f9e6a9"
     d="m 283.5489,230.5886 c 0.5,11.865 -0.202,23.775 0.346,35.63 -0.003,6.624 0.984,35.972 -0.198,40.236 8.33,5.595 17.137,10.573 25.767,15.684 6.866,4.068 13.615,8.837 20.641,12.538 l 7.607,4.863 c 7.016,4.803 15.262,9.633 22.974,13.184 q 9.73,6.164 19.632,12.048 c 2.221,1.386 4.451,2.659 6.767,3.879 2.69,3.221 19.857,12.997 24.079,14.956 6.525,4.791 13.672,8.898 20.61,13.061 l 8.841,5.721 c 10.63,5.444 21.045,14.538 31.504,19.355 l 0.127,0.557 c 0.132,6.525 1.193,26.786 -0.383,32.031 -13.829,-8.01 -27.295,-16.727 -40.894,-25.127 l -67.111,-41.382 -166.247,-102.532 c 0.975,-2.884 77.43,-49.57 85.938,-54.702 z"
     id="path62" />
  <path
     fill="#f79329"
     d="m 251.1909,286.9696 32.704,-20.751 c -0.003,6.624 0.984,35.972 -0.198,40.236 -10.928,-6.345 -21.625,-13.062 -32.506,-19.485 z"
     id="path63" />
  <path
     fill="#b4cbbd"
     d="m 243.5909,409.4556 c -0.069,-3.495 -0.944,-9.982 0.621,-13.099 l 81.197,50.672 q 11.328,7.317 22.573,14.761 c 3.337,2.201 6.862,5.06 10.479,6.725 0.777,3.38 -0.947,12.064 1.188,14.27 l 0.593,-0.398 c 4.81,-3.955 10.675,-7.09 15.996,-10.344 l 0.744,0.427 c 0.506,29.956 -0.014,59.946 0.145,89.907 l -0.021,0.906 c -0.05,2.835 0.219,4.864 1.214,7.525 l -0.335,0.434 -0.095,-0.674 -0.878,0.003 -0.35,1.48 c -5.257,2.449 -10.492,4.981 -15.827,7.259 -4.323,-2.04 -8.237,-4.91 -12.586,-6.975 -0.006,-2.021 0.298,-4.553 -0.633,-6.378 l -43.365,-27.543 c -7.498,-4.785 -15.01,-10.187 -22.85,-14.367 -3.304,0.928 -9.191,1.342 -12.374,0.036 -4.444,-2.738 -8.775,-5.69 -13.143,-8.549 0,-2.763 -0.094,-5.506 -0.223,-8.265 1.451,-4.328 0.532,-15.836 0.504,-20.886 -0.01,-5.705 -0.088,-11.417 0.195,-17.117 1.014,-4.631 0.254,-11.053 0.243,-15.844 q -0.119,-17.718 0.016,-35.436 c -4.123,-3.131 -8.648,-5.775 -13.028,-8.53 z"
     id="path64" />
  <path
     fill="#809487"
     d="m 268.7889,427.9016 c 4.144,2.442 8.811,4.718 12.459,7.852 l -0.069,74.181 c -0.002,4.606 -0.382,9.556 0.222,14.112 -3.304,0.928 -9.191,1.342 -12.374,0.036 q -0.594,-48.09 -0.238,-96.181 z"
     id="path65" />
  <path
     fill="#809487"
     d="m 360.2419,482.3866 c 4.81,-3.955 10.675,-7.09 15.996,-10.344 l 0.744,0.427 c 0.506,29.956 -0.014,59.946 0.145,89.907 l -0.021,0.906 c -0.05,2.835 0.219,4.864 1.214,7.525 l -0.335,0.434 -0.095,-0.674 -0.878,0.003 -0.35,1.48 c -5.257,2.449 -10.492,4.981 -15.827,7.259 q -0.282,-29.447 -0.065,-58.893 c 0.034,-5.06 1,-34.518 0.156,-37.043 -0.127,-0.38 -0.456,-0.658 -0.684,-0.987 z"
     id="path66" />
  <path
     fill="#256a58"
     d="m 281.2479,435.7536 42.062,25.986 c 6.83,4.23 14.364,8.337 20.722,13.208 -5.793,3.725 -12.007,6.839 -18.024,10.193 l -31.146,17.35 c -4.497,2.482 -9.35,4.712 -13.683,7.444 z"
     id="path67" />
  <path
     fill="#154d4d"
     d="m 344.0319,474.9476 c 1.31,0.76 2.519,1.288 3.45,2.51 q 0.282,29.475 0.207,58.952 c 0.006,9.691 0.671,19.928 -0.073,29.547 l -43.365,-27.543 c -7.498,-4.785 -15.01,-10.187 -22.85,-14.367 -0.604,-4.556 -0.224,-9.506 -0.222,-14.112 4.333,-2.732 9.186,-4.962 13.683,-7.444 l 31.146,-17.35 c 6.017,-3.354 12.231,-6.468 18.024,-10.193 z"
     id="path68" />
  <path
     fill="#dee3d7"
     d="m 230.3059,485.4926 c 8.849,-4.912 17.458,-10.855 26.054,-16.227 -0.283,5.7 -0.205,11.412 -0.195,17.117 0.028,5.05 0.947,16.558 -0.504,20.886 0.129,2.759 0.223,5.502 0.223,8.265 4.368,2.859 8.699,5.811 13.143,8.549 3.183,1.306 9.07,0.892 12.374,-0.036 7.84,4.18 15.352,9.582 22.85,14.367 l 43.365,27.543 c 0.931,1.825 0.627,4.357 0.633,6.378 4.349,2.065 8.263,4.935 12.586,6.975 5.335,-2.278 10.57,-4.81 15.827,-7.259 l 0.35,-1.48 0.878,-0.003 0.095,0.674 0.335,-0.434 c -0.995,-2.661 -1.264,-4.69 -1.214,-7.525 l 0.021,-0.906 c 4.489,2.488 13.689,6.569 16.915,10.226 l 0.109,0.606 c -0.578,8.877 -0.228,17.925 -0.217,26.824 l -4.588,2.41 q -17.104,10.053 -34.547,19.508 -4.046,2.16 -7.997,4.488 l -0.184,-0.623 c -0.971,-0.667 -1.893,-1.044 -2.98,-1.477 -7.47,3.945 -15.207,8.844 -23.029,11.976 -18.142,-13.367 -38.096,-24.744 -57.138,-36.806 -25.882,-16.393 -51.561,-33.426 -78.318,-48.367 6.643,-2.983 16.012,-8.058 21.615,-12.742 -1.71,-5.738 -0.499,-16.96 -0.859,-23.443 -0.599,-1.49 -1.399,-2.948 -2.099,-4.396 4.329,-2.182 8.707,-4.791 13.346,-6.217 l 0.718,-0.029 0.564,-1.11 c -0.267,-3.148 -1.273,-10.377 -0.066,-13.159 4.18,-1.099 8.197,-2.332 11.934,-4.553 z"
     id="path69" />
  <path
     fill="#809487"
     d="m 256.1649,486.3826 c 0.028,5.05 0.947,16.558 -0.504,20.886 -4.406,2.342 -18.478,12.173 -21.95,12.545 -0.408,-6.63 0.031,-13.382 -0.184,-20.041 7.733,-4.103 14.842,-9.379 22.638,-13.39 z"
     id="path70" />
  <path
     fill="#809487"
     d="m 346.5509,602.1906 c 16.056,-9.085 31.967,-19.172 47.6,-28.982 -0.578,8.877 -0.228,17.925 -0.217,26.824 l -4.588,2.41 q -17.104,10.053 -34.547,19.508 -4.046,2.16 -7.997,4.488 l -0.184,-0.623 c 0.458,-7.781 0.221,-15.829 -0.067,-23.625 z"
     id="path71" />
  <path
     fill="#b4cbbd"
     d="m 205.9089,514.9566 c 8.381,6.045 17.665,10.82 26.401,16.329 l 57.114,35.945 35.509,22.179 c 7.056,4.376 14.188,9.076 21.618,12.781 0.288,7.796 0.525,15.844 0.067,23.625 -0.971,-0.667 -1.893,-1.044 -2.98,-1.477 -10.309,-6.19 -20.343,-12.949 -30.51,-19.377 l -70.114,-44.021 c -11.994,-7.428 -23.69,-16.115 -36.246,-22.541 -1.71,-5.738 -0.499,-16.96 -0.859,-23.443 z"
     id="path72" />
  <path
     fill="#dee3d7"
     d="m 206.7679,538.3996 c 12.556,6.426 24.252,15.113 36.246,22.541 l 70.114,44.021 c 10.167,6.428 20.201,13.187 30.51,19.377 -7.47,3.945 -15.207,8.844 -23.029,11.976 -18.142,-13.367 -38.096,-24.744 -57.138,-36.806 -25.882,-16.393 -51.561,-33.426 -78.318,-48.367 6.643,-2.983 16.012,-8.058 21.615,-12.742 z"
     id="path73" />
  <path
     fill="#fccb66"
     d="m 283.4849,225.0446 c 7.885,1.68 29.348,17.504 37.529,22.583 l 104.721,64.167 30.505,18.346 c 5.136,3.081 10.453,6.811 15.906,9.242 0.204,16.38 0.068,32.773 0.058,49.154 -0.007,11.048 0.239,22.168 -0.085,33.207 -10.459,-4.817 -20.874,-13.911 -31.504,-19.355 l -8.841,-5.721 c -6.938,-4.163 -14.085,-8.27 -20.61,-13.061 -4.222,-1.959 -21.389,-11.735 -24.079,-14.956 -2.316,-1.22 -4.546,-2.493 -6.767,-3.879 q -9.902,-5.884 -19.632,-12.048 c -7.712,-3.551 -15.958,-8.381 -22.974,-13.184 l -7.607,-4.863 c -7.026,-3.701 -13.775,-8.47 -20.641,-12.538 -8.63,-5.111 -17.437,-10.089 -25.767,-15.684 1.182,-4.264 0.195,-33.612 0.198,-40.236 -0.548,-11.855 0.154,-23.765 -0.346,-35.63 -0.332,-1.812 -0.14,-3.709 -0.064,-5.544 z"
     id="path74" />
  <path
     fill="#256a58"
     d="m 360.7549,299.8066 c 0.033,-1.126 -0.192,-2.789 0.397,-3.733 6.877,2.948 20.097,11.487 26.096,16.011 l 0.074,36.903 c 0.002,6.455 0.405,13.246 -0.237,19.663 -2.316,-1.22 -4.546,-2.493 -6.767,-3.879 0.799,-5.058 0.495,-10.656 0.582,-15.783 q 0.276,-17.427 0.2,-34.857 c -3.783,-2.806 -18.892,-11.318 -20.345,-14.325 z"
     id="path75" />
  <path
     fill="#256a58"
     d="m 309.5689,267.5376 c 0.02,-1.359 -0.134,-2.873 0.434,-4.133 9.207,5.43 18.887,10.627 27.718,16.629 l -0.009,59.506 -7.607,-4.863 c 1.005,-17.268 0.467,-34.896 0.597,-52.207 -6.862,-5.222 -14.267,-9.672 -21.133,-14.932 z"
     id="path76" />
  <path
     fill="#256a58"
     d="m 411.4739,331.1406 c 0.034,-1.506 -0.134,-3.036 0.506,-4.417 q 0.888,0.557 1.765,1.131 l 0.48,-0.297 c 0.209,0.226 0.397,0.472 0.625,0.678 4.152,3.739 19.86,12.066 25.354,15.267 q 0.506,29.441 0.411,58.886 l -8.841,-5.721 c 0.975,-16.952 0.104,-34.296 0.087,-51.29 -6.708,-4.878 -13.807,-9.171 -20.387,-14.237 z"
     id="path77" />
  <path
     fill="#07a480"
     d="m 360.7549,299.8066 c 1.453,3.007 16.562,11.519 20.345,14.325 q 0.076,17.43 -0.2,34.857 c -0.087,5.127 0.217,10.725 -0.582,15.783 q -9.902,-5.884 -19.632,-12.048 z"
     id="path78" />
  <path
     fill="#07a480"
     d="m 411.4739,331.1406 c 6.58,5.066 13.679,9.359 20.387,14.237 0.017,16.994 0.888,34.338 -0.087,51.29 -6.938,-4.163 -14.085,-8.27 -20.61,-13.061 q 0.004,-26.234 0.31,-52.466 z"
     id="path79" />
  <path
     fill="#07a480"
     d="m 309.5689,267.5376 c 6.866,5.26 14.271,9.71 21.133,14.932 -0.13,17.311 0.408,34.939 -0.597,52.207 -7.026,-3.701 -13.775,-8.47 -20.641,-12.538 0.294,-18.19 -0.104,-36.404 0.105,-54.601 z"
     id="path80" />
  <path
     fill="#dee3d7"
     d="m 185.1529,551.1416 c 26.757,14.941 52.436,31.974 78.318,48.367 19.042,12.062 38.996,23.439 57.138,36.806 -0.059,7.189 -0.258,14.416 0.06,21.599 -7.335,4.716 -15.892,9.315 -23.995,12.533 -2.722,3.901 1.255,14.447 -1.843,16.977 -0.415,0.339 -1.519,0.619 -2.054,0.836 -8.071,4.317 -16.12,8.908 -24.441,12.718 -0.948,9.456 -0.318,19.974 0.084,29.481 l -2.366,0.441 c -5.308,-5.418 -28.382,-17.84 -36.18,-22.499 -7.682,-4.589 -15.28,-9.856 -23.242,-13.913 -4.546,-0.202 -63.86,-36.682 -74.101,-42.346 l 0.227,-3.66 c -1.439,-10.579 1.194,-21.772 -0.449,-32.383 1.878,-3.433 18.208,-12.401 22.514,-13.94 1.31,-5.284 0.359,-15.166 0.315,-20.924 l 0.245,-0.451 c 10.18,-5.88 20.056,-12.289 30.25,-18.163 l -0.085,-6.364 c -0.195,-1.693 -0.268,-3.415 -0.395,-5.115 z"
     id="path81" />
  <path
     fill="#b4cbbd"
     d="m 185.1529,551.1416 c 26.757,14.941 52.436,31.974 78.318,48.367 19.042,12.062 38.996,23.439 57.138,36.806 -0.059,7.189 -0.258,14.416 0.06,21.599 l -78.153,-48.935 c -18.994,-11.869 -38.657,-23.369 -56.829,-36.443 l -0.054,-9.915 -0.085,-6.364 c -0.195,-1.693 -0.268,-3.415 -0.395,-5.115 z"
     id="path82" />
  <path
     fill="#b4cbbd"
     d="m 155.3829,580.7836 c 15.202,8.776 30,18.284 44.856,27.63 l 54.643,34.372 q 14.912,9.384 29.581,19.143 c 3.949,2.615 8.893,5.137 12.211,8.518 -2.722,3.901 1.255,14.447 -1.843,16.977 -0.415,0.339 -1.519,0.619 -2.054,0.836 -10.038,-6.403 -20.514,-12.294 -30.649,-18.58 q -42.938,-26.54 -85.575,-53.564 c -3.877,-2.444 -19.997,-11.445 -21.73,-13.957 1.31,-5.284 0.359,-15.166 0.315,-20.924 z"
     id="path83" />
  <path
     fill="#dee3d7"
     d="m 154.8229,602.1586 c 1.733,2.512 17.853,11.513 21.73,13.957 q 42.636,27.024 85.575,53.564 c 10.135,6.286 20.611,12.177 30.649,18.58 -8.071,4.317 -16.12,8.908 -24.441,12.718 -3.803,-3.153 -8.502,-5.682 -12.719,-8.264 l -21.743,-13.345 -61.771,-38.459 c -13.25,-8.153 -27.064,-15.896 -39.794,-24.811 1.878,-3.433 18.208,-12.401 22.514,-13.94 z"
     id="path84" />
  <path
     fill="#b4cbbd"
     d="m 132.3089,616.0986 c 12.73,8.915 26.544,16.658 39.794,24.811 l 61.771,38.459 21.743,13.345 c 4.217,2.582 8.916,5.111 12.719,8.264 -0.948,9.456 -0.318,19.974 0.084,29.481 l -2.366,0.441 c -5.308,-5.418 -28.382,-17.84 -36.18,-22.499 -7.682,-4.589 -15.28,-9.856 -23.242,-13.913 -4.546,-0.202 -63.86,-36.682 -74.101,-42.346 l 0.227,-3.66 c -1.439,-10.579 1.194,-21.772 -0.449,-32.383 z"
     id="path85" />
  <path
     fill="#07a480"
     d="m 132.7579,648.4816 c 24.517,15.484 49.473,30.363 73.874,46.006 -4.546,-0.202 -63.86,-36.682 -74.101,-42.346 z"
     id="path86" />
  <path
     fill="#d05827"
     d="m 672.0519,185.3796 0.392,0.02 c 0.082,0.858 0.119,1.347 -0.073,2.202 l 0.936,0.265 -0.433,0.515 q -0.062,12.05 0.107,24.1 c -3.836,2.304 -7.866,4.485 -11.518,7.067 q 0.204,6.855 0.24,13.712 c 20.218,12.624 40.693,24.908 60.712,37.841 7.618,4.922 15.978,9.653 23.062,15.285 -0.152,0.953 -0.283,1.11 -0.845,1.849 -0.164,9.619 -0.361,19.221 -0.387,28.844 -0.179,26.752 -0.541,53.642 -0.065,80.388 26.022,17.207 53.502,32.646 80.581,48.12 3.006,1.718 11.948,5.626 13.778,7.875 -5.898,16.166 -16.963,37.571 -16.894,54.593 -0.851,-0.64 -1.263,-0.681 -1.553,-1.73 -0.22,-0.797 -0.499,-1.436 -0.867,-2.168 -0.263,-0.027 -0.528,-0.115 -0.79,-0.08 -0.079,0.01 -194.782,117.284 -214.17,129.07 q -15.156,9.348 -30.194,18.882 c -4.372,2.771 -9.228,6.665 -13.887,8.727 l -35.729,22.519 c -6.956,4.347 -15.328,8.646 -21.412,14.122 -2.686,0.263 -5.401,-0.543 -8.023,-1.089 q -3.954,-12.222 -8.134,-24.368 l -2.182,-5.871 c -4.43,-10.253 -8.612,-20.8 -11.925,-31.471 -0.362,-2.012 -0.559,-4.026 -0.764,-6.057 1.783,-7.044 0.556,-21.673 0.595,-29.622 l 0.045,-77.573 c -0.029,-12.57 -0.892,-25.466 -0.004,-37.985 l -0.335,-0.581 q 0.009,-14.085 -0.125,-28.169 l -0.328,-0.28 c 1.576,-5.245 0.515,-25.506 0.383,-32.031 l -0.127,-0.557 c 0.324,-11.039 0.078,-22.159 0.085,-33.207 0.01,-16.381 0.146,-32.774 -0.058,-49.154 l 0.344,-2.44 c -0.89,-8.482 -0.669,-19.324 0.116,-27.818 24.132,-15.197 48.782,-29.723 72.666,-45.28 4.644,-1.615 18.565,-11.876 23.868,-15.158 l 87.169,-53.757 c 5.422,-2.809 10.598,-6.268 15.743,-9.55 z"
     id="path87" />
  <path
     fill="#f79329"
     d="m 619.4269,440.0806 c 3.238,-0.043 5.975,1.431 8.295,3.646 2.5,2.387 3.916,5.123 4.472,8.514 1.856,11.322 0.774,30.591 0.791,42.509 l 0.119,86.354 c -3.6,-1.599 -7.158,-4.134 -10.539,-6.166 0.518,-7.207 0.076,-14.78 0.075,-22.021 l 0.023,-42.449 0.038,-40.051 c 0.004,-7.35 0.432,-15.015 -0.241,-22.331 -0.281,-3.053 -1.291,-5.505 -3.033,-8.005 z"
     id="path88" />
  <path
     fill="#f79329"
     d="m 540.0699,488.0756 c 3.935,0.619 7.161,2.659 9.538,5.856 1.668,2.244 2.562,4.523 2.868,7.294 0.749,6.789 0.279,14.027 0.269,20.874 l -0.046,38.938 0.096,44.899 c 0.017,7.941 0.484,16.229 -0.234,24.126 -3.468,-1.869 -7.361,-3.855 -10.284,-6.498 0.906,-5.169 0.222,-11.53 0.167,-16.811 q -0.179,-15.473 -0.193,-30.948 l 0.084,-50.454 c 0.065,-9.406 0.685,-19.081 0.084,-28.446 -0.203,-3.158 -1.205,-5.924 -2.349,-8.83 z"
     id="path89" />
  <path
     fill="#f79329"
     d="m 697.8039,388.6266 c 4.427,0.806 8.269,2.328 10.891,6.194 1.579,2.328 2.303,4.736 2.638,7.503 1.254,10.353 0.349,21.78 0.341,32.262 l -0.037,66.204 c 0.013,10.681 -0.612,21.927 0.19,32.548 -3.762,-2.08 -7.319,-4.742 -10.983,-7.016 -1.125,-9.716 -0.248,-22.721 -0.247,-32.837 l 0.061,-68.98 c 0.008,-9.328 0.815,-19.412 -0.383,-28.635 -0.361,-2.783 -1.072,-4.81 -2.471,-7.243 z"
     id="path90" />
  <path
     fill="#873129"
     d="m 664.1279,549.6656 c -1.298,-3.961 -0.224,-46.028 -0.204,-53.678 0.062,-23.15 -0.59,-46.448 0.057,-69.581 0.329,-11.729 4.128,-21.074 12.817,-29.147 5.801,-5.389 12.964,-8.938 21.006,-8.633 1.399,2.433 2.11,4.46 2.471,7.243 1.198,9.223 0.391,19.307 0.383,28.635 l -0.061,68.98 c -10e-4,10.116 -0.878,23.121 0.247,32.837 -10.64,9.452 -24.907,14.947 -36.317,23.371 z"
     id="path91" />
  <path
     fill="#873129"
     d="m 503.7359,647.4356 c 0.886,-28.732 0.102,-57.927 0.037,-86.691 -0.026,-11.469 -0.61,-23.277 0.124,-34.712 0.775,-12.069 6.001,-22.237 15.163,-30.143 6.114,-5.276 12.795,-8.421 21.01,-7.814 1.144,2.906 2.146,5.672 2.349,8.83 0.601,9.365 -0.019,19.04 -0.084,28.446 l -0.084,50.454 q 0.014,15.475 0.193,30.948 c 0.055,5.281 0.739,11.642 -0.167,16.811 -13.04,7.572 -25.753,15.871 -38.541,23.871 z"
     id="path92" />
  <path
     fill="#873129"
     d="m 582.2119,599.3946 0.053,-83.818 -0.041,-24.932 c -0.008,-6.611 -0.514,-13.841 0.944,-20.313 2.358,-10.47 10.942,-21.024 19.925,-26.623 4.943,-3.08 10.518,-4.946 16.334,-3.628 1.742,2.5 2.752,4.952 3.033,8.005 0.673,7.316 0.245,14.981 0.241,22.331 l -0.038,40.051 -0.023,42.449 c 10e-4,7.241 0.443,14.814 -0.075,22.021 -13.792,7.518 -26.849,16.437 -40.353,24.457 z"
     id="path93" />
  <path
     fill="#f7be5b"
     d="m 661.7029,233.2606 c 20.218,12.624 40.693,24.908 60.712,37.841 7.618,4.922 15.978,9.653 23.062,15.285 -0.152,0.953 -0.283,1.11 -0.845,1.849 -0.164,9.619 -0.361,19.221 -0.387,28.844 -16.363,10.691 -33.431,20.461 -50.085,30.703 l -115.785,70.982 -75.959,46.615 -19.178,11.579 c -3.47,2.121 -6.949,4.612 -10.587,6.403 l -0.335,-0.581 q 0.009,-14.085 -0.125,-28.169 l -0.328,-0.28 c 1.576,-5.245 0.515,-25.506 0.383,-32.031 0.111,0.018 0.221,0.046 0.333,0.054 1.324,0.104 29.605,-17.042 32.692,-19.355 8.546,-5.288 17.265,-10.472 25.503,-16.228 7.595,-4.498 15.796,-8.608 22.958,-13.74 8.277,-4.959 17.178,-9.634 24.931,-15.383 7.398,-3.345 16.618,-9.48 23.918,-13.636 8.692,-4.289 17.43,-9.984 25.166,-15.82 11.542,-6.698 23.141,-13.456 34.367,-20.672 l -0.017,-40.489 z"
     id="path94" />
  <path
     fill="#f79329"
     d="m 662.0969,267.0316 c 10.867,6.733 21.196,14.409 32.179,20.943 -10.739,6.344 -21.838,12.551 -32.162,19.546 z"
     id="path95" />
  <path
     fill="#873129"
     d="m 744.6319,288.2356 c -0.164,9.619 -0.361,19.221 -0.387,28.844 -16.363,10.691 -33.431,20.461 -50.085,30.703 l -115.785,70.982 -75.959,46.615 -19.178,11.579 c -3.47,2.121 -6.949,4.612 -10.587,6.403 l -0.335,-0.581 q 0.009,-14.085 -0.125,-28.169 c 7.578,-2.992 15.291,-8.657 22.263,-12.887 l 51.818,-32.042 142.408,-87.062 c 18.703,-11.386 37.045,-23.332 55.952,-34.385 z"
     id="path96" />
  <path
     fill="#f7be5b"
     d="m 744.1799,397.4676 c 26.022,17.207 53.502,32.646 80.581,48.12 3.006,1.718 11.948,5.626 13.778,7.875 -5.898,16.166 -16.963,37.571 -16.894,54.593 -0.851,-0.64 -1.263,-0.681 -1.553,-1.73 -0.22,-0.797 -0.499,-1.436 -0.867,-2.168 -0.263,-0.027 -0.528,-0.115 -0.79,-0.08 -0.079,0.01 -194.782,117.284 -214.17,129.07 q -15.156,9.348 -30.194,18.882 c -4.372,2.771 -9.228,6.665 -13.887,8.727 l -35.729,22.519 c -6.956,4.347 -15.328,8.646 -21.412,14.122 -2.686,0.263 -5.401,-0.543 -8.023,-1.089 q -3.954,-12.222 -8.134,-24.368 l -2.182,-5.871 c 7.491,-3.174 14.902,-8.294 22.19,-12.07 -1.892,-2.163 -2.918,-3.658 -3.158,-6.564 12.788,-8 25.501,-16.299 38.541,-23.871 2.923,2.643 6.816,4.629 10.284,6.498 10.465,-7.321 21.821,-13.61 32.576,-20.534 l -2.954,-2.52 0.029,-7.614 c 13.504,-8.02 26.561,-16.939 40.353,-24.457 3.381,2.032 6.939,4.567 10.539,6.166 10.549,-5.964 20.99,-11.957 31.139,-18.587 l -0.115,-12.851 0.399,0.027 c 11.41,-8.424 25.677,-13.919 36.317,-23.371 3.664,2.274 7.221,4.936 10.983,7.016 11.999,-7.433 24.225,-14.515 36.282,-21.86 q -1.645,-0.833 -3.323,-1.598 c -0.978,-1.474 -0.848,-1.951 -0.876,-3.676 -0.142,-18.064 -0.265,-36.236 0.233,-54.293 -0.542,-18.095 -0.034,-36.334 0.037,-54.443 z"
     id="path97" />
  <path
     fill="#d1771f"
     d="m 664.5269,549.6926 c 2.616,2.679 7.22,4.887 10.534,6.705 l -10.818,6.119 -0.115,-12.851 z"
     id="path98" />
  <path
     fill="#fcda93"
     d="m 486.8859,671.9406 c 16.852,-0.805 34.155,-5.368 50.729,-8.437 6.82,-1.263 15.731,-3.698 22.569,-2.747 l -35.729,22.519 c -6.956,4.347 -15.328,8.646 -21.412,14.122 -2.686,0.263 -5.401,-0.543 -8.023,-1.089 q -3.954,-12.222 -8.134,-24.368 z"
     id="path99" />
  <path
     fill="#f79329"
     d="m 744.1429,451.9106 c 13.921,9.945 29.872,17.048 43.842,26.98 -8.989,6.132 -18.305,11.614 -27.667,17.145 -5.474,3.233 -11.316,6.365 -16.408,10.168 -0.142,-18.064 -0.265,-36.236 0.233,-54.293 z"
     id="path100" />
  <path
     fill="#d1771f"
     d="m 672.0519,185.3796 0.392,0.02 c 0.082,0.858 0.119,1.347 -0.073,2.202 l 0.936,0.265 -0.433,0.515 q -0.062,12.05 0.107,24.1 c -3.836,2.304 -7.866,4.485 -11.518,7.067 q 0.204,6.855 0.24,13.712 l 0.394,33.771 0.017,40.489 c -11.226,7.216 -22.825,13.974 -34.367,20.672 -7.736,5.836 -16.474,11.531 -25.166,15.82 -7.3,4.156 -16.52,10.291 -23.918,13.636 -7.753,5.749 -16.654,10.424 -24.931,15.383 -7.162,5.132 -15.363,9.242 -22.958,13.74 -8.238,5.756 -16.957,10.94 -25.503,16.228 -3.087,2.313 -31.368,19.459 -32.692,19.355 -0.112,-0.008 -0.222,-0.036 -0.333,-0.054 l -0.127,-0.557 c 0.324,-11.039 0.078,-22.159 0.085,-33.207 0.01,-16.381 0.146,-32.774 -0.058,-49.154 l 0.344,-2.44 c -0.89,-8.482 -0.669,-19.324 0.116,-27.818 24.132,-15.197 48.782,-29.723 72.666,-45.28 4.644,-1.615 18.565,-11.876 23.868,-15.158 l 87.169,-53.757 c 5.422,-2.809 10.598,-6.268 15.743,-9.55 z"
     id="path101" />
  <path
     fill="#154d4d"
     d="m 553.2629,312.9416 c 8.77,-4.482 17.095,-9.982 25.433,-15.215 l -0.033,59.922 c -7.753,5.749 -16.654,10.424 -24.931,15.383 -1.437,-3.749 -0.341,-51.601 -0.469,-60.09 z"
     id="path102" />
  <path
     fill="#154d4d"
     d="m 530.7069,327.4986 0.067,59.273 c -8.238,5.756 -16.957,10.94 -25.503,16.228 -1.242,-5.365 -0.411,-12.432 -0.409,-18.028 l 0.163,-41.661 c 8.734,-5.006 17.199,-10.397 25.682,-15.812 z"
     id="path103" />
  <path
     fill="#154d4d"
     d="m 602.1929,283.0516 c 8.712,-4.79 17.07,-10.296 25.447,-15.646 l 0.107,60.787 c -7.736,5.836 -16.474,11.531 -25.166,15.82 -1.469,-3.746 -0.399,-52.583 -0.388,-60.961 z"
     id="path104" />
  <path
     fill="#873129"
     d="m 672.0519,185.3796 0.392,0.02 c 0.082,0.858 0.119,1.347 -0.073,2.202 l 0.936,0.265 -0.433,0.515 q -0.062,12.05 0.107,24.1 c -3.836,2.304 -7.866,4.485 -11.518,7.067 l -142.038,87.929 q -16.1,9.893 -32.022,20.071 c -4.776,3.044 -9.826,6.962 -14.913,9.394 -0.89,-8.482 -0.669,-19.324 0.116,-27.818 24.132,-15.197 48.782,-29.723 72.666,-45.28 4.644,-1.615 18.565,-11.876 23.868,-15.158 l 87.169,-53.757 c 5.422,-2.809 10.598,-6.268 15.743,-9.55 z"
     id="path105" />
</svg>
